G04 #@! TF.GenerationSoftware,KiCad,Pcbnew,5.1.5*
G04 #@! TF.CreationDate,2019-12-15T20:25:27-05:00*
G04 #@! TF.ProjectId,front_panel_board,66726f6e-745f-4706-916e-656c5f626f61,0*
G04 #@! TF.SameCoordinates,Original*
G04 #@! TF.FileFunction,Copper,L2,Bot*
G04 #@! TF.FilePolarity,Positive*
%FSLAX46Y46*%
G04 Gerber Fmt 4.6, Leading zero omitted, Abs format (unit mm)*
G04 Created by KiCad (PCBNEW 5.1.5) date 2019-12-15 20:25:27*
%MOMM*%
%LPD*%
G04 APERTURE LIST*
%ADD10C,2.500000*%
%ADD11R,2.500000X2.500000*%
%ADD12O,1.740000X2.140000*%
%ADD13C,0.100000*%
%ADD14O,1.740000X2.200000*%
%ADD15C,2.800000*%
%ADD16R,2.800000X2.800000*%
%ADD17C,1.800000*%
%ADD18R,1.800000X1.800000*%
%ADD19C,0.800000*%
%ADD20C,0.508000*%
%ADD21C,0.254000*%
G04 APERTURE END LIST*
D10*
X186449470Y-76799416D03*
X175878223Y-71672891D03*
X173005332Y-76648885D03*
X175878223Y-87370662D03*
X180854217Y-90243553D03*
X191575994Y-87370662D03*
X194448885Y-82394668D03*
X191575994Y-71672891D03*
D11*
X186600000Y-68800000D03*
D12*
X195760000Y-59340000D03*
X193220000Y-59340000D03*
X190680000Y-59340000D03*
X188140000Y-59340000D03*
X185600000Y-59340000D03*
X195760000Y-56800000D03*
X193220000Y-56800000D03*
X190680000Y-56800000D03*
X188140000Y-56800000D03*
G04 #@! TA.AperFunction,ComponentPad*
D13*
G36*
X186244505Y-55731204D02*
G01*
X186268773Y-55734804D01*
X186292572Y-55740765D01*
X186315671Y-55749030D01*
X186337850Y-55759520D01*
X186358893Y-55772132D01*
X186378599Y-55786747D01*
X186396777Y-55803223D01*
X186413253Y-55821401D01*
X186427868Y-55841107D01*
X186440480Y-55862150D01*
X186450970Y-55884329D01*
X186459235Y-55907428D01*
X186465196Y-55931227D01*
X186468796Y-55955495D01*
X186470000Y-55979999D01*
X186470000Y-57620001D01*
X186468796Y-57644505D01*
X186465196Y-57668773D01*
X186459235Y-57692572D01*
X186450970Y-57715671D01*
X186440480Y-57737850D01*
X186427868Y-57758893D01*
X186413253Y-57778599D01*
X186396777Y-57796777D01*
X186378599Y-57813253D01*
X186358893Y-57827868D01*
X186337850Y-57840480D01*
X186315671Y-57850970D01*
X186292572Y-57859235D01*
X186268773Y-57865196D01*
X186244505Y-57868796D01*
X186220001Y-57870000D01*
X184979999Y-57870000D01*
X184955495Y-57868796D01*
X184931227Y-57865196D01*
X184907428Y-57859235D01*
X184884329Y-57850970D01*
X184862150Y-57840480D01*
X184841107Y-57827868D01*
X184821401Y-57813253D01*
X184803223Y-57796777D01*
X184786747Y-57778599D01*
X184772132Y-57758893D01*
X184759520Y-57737850D01*
X184749030Y-57715671D01*
X184740765Y-57692572D01*
X184734804Y-57668773D01*
X184731204Y-57644505D01*
X184730000Y-57620001D01*
X184730000Y-55979999D01*
X184731204Y-55955495D01*
X184734804Y-55931227D01*
X184740765Y-55907428D01*
X184749030Y-55884329D01*
X184759520Y-55862150D01*
X184772132Y-55841107D01*
X184786747Y-55821401D01*
X184803223Y-55803223D01*
X184821401Y-55786747D01*
X184841107Y-55772132D01*
X184862150Y-55759520D01*
X184884329Y-55749030D01*
X184907428Y-55740765D01*
X184931227Y-55734804D01*
X184955495Y-55731204D01*
X184979999Y-55730000D01*
X186220001Y-55730000D01*
X186244505Y-55731204D01*
G37*
G04 #@! TD.AperFunction*
D14*
X123140000Y-57800000D03*
G04 #@! TA.AperFunction,ComponentPad*
D13*
G36*
X121244505Y-56701204D02*
G01*
X121268773Y-56704804D01*
X121292572Y-56710765D01*
X121315671Y-56719030D01*
X121337850Y-56729520D01*
X121358893Y-56742132D01*
X121378599Y-56756747D01*
X121396777Y-56773223D01*
X121413253Y-56791401D01*
X121427868Y-56811107D01*
X121440480Y-56832150D01*
X121450970Y-56854329D01*
X121459235Y-56877428D01*
X121465196Y-56901227D01*
X121468796Y-56925495D01*
X121470000Y-56949999D01*
X121470000Y-58650001D01*
X121468796Y-58674505D01*
X121465196Y-58698773D01*
X121459235Y-58722572D01*
X121450970Y-58745671D01*
X121440480Y-58767850D01*
X121427868Y-58788893D01*
X121413253Y-58808599D01*
X121396777Y-58826777D01*
X121378599Y-58843253D01*
X121358893Y-58857868D01*
X121337850Y-58870480D01*
X121315671Y-58880970D01*
X121292572Y-58889235D01*
X121268773Y-58895196D01*
X121244505Y-58898796D01*
X121220001Y-58900000D01*
X119979999Y-58900000D01*
X119955495Y-58898796D01*
X119931227Y-58895196D01*
X119907428Y-58889235D01*
X119884329Y-58880970D01*
X119862150Y-58870480D01*
X119841107Y-58857868D01*
X119821401Y-58843253D01*
X119803223Y-58826777D01*
X119786747Y-58808599D01*
X119772132Y-58788893D01*
X119759520Y-58767850D01*
X119749030Y-58745671D01*
X119740765Y-58722572D01*
X119734804Y-58698773D01*
X119731204Y-58674505D01*
X119730000Y-58650001D01*
X119730000Y-56949999D01*
X119731204Y-56925495D01*
X119734804Y-56901227D01*
X119740765Y-56877428D01*
X119749030Y-56854329D01*
X119759520Y-56832150D01*
X119772132Y-56811107D01*
X119786747Y-56791401D01*
X119803223Y-56773223D01*
X119821401Y-56756747D01*
X119841107Y-56742132D01*
X119862150Y-56729520D01*
X119884329Y-56719030D01*
X119907428Y-56710765D01*
X119931227Y-56704804D01*
X119955495Y-56701204D01*
X119979999Y-56700000D01*
X121220001Y-56700000D01*
X121244505Y-56701204D01*
G37*
G04 #@! TD.AperFunction*
D15*
X123729800Y-84218800D03*
X123729800Y-79518800D03*
D16*
X123729800Y-74818800D03*
D14*
X151640000Y-57800000D03*
G04 #@! TA.AperFunction,ComponentPad*
D13*
G36*
X149744505Y-56701204D02*
G01*
X149768773Y-56704804D01*
X149792572Y-56710765D01*
X149815671Y-56719030D01*
X149837850Y-56729520D01*
X149858893Y-56742132D01*
X149878599Y-56756747D01*
X149896777Y-56773223D01*
X149913253Y-56791401D01*
X149927868Y-56811107D01*
X149940480Y-56832150D01*
X149950970Y-56854329D01*
X149959235Y-56877428D01*
X149965196Y-56901227D01*
X149968796Y-56925495D01*
X149970000Y-56949999D01*
X149970000Y-58650001D01*
X149968796Y-58674505D01*
X149965196Y-58698773D01*
X149959235Y-58722572D01*
X149950970Y-58745671D01*
X149940480Y-58767850D01*
X149927868Y-58788893D01*
X149913253Y-58808599D01*
X149896777Y-58826777D01*
X149878599Y-58843253D01*
X149858893Y-58857868D01*
X149837850Y-58870480D01*
X149815671Y-58880970D01*
X149792572Y-58889235D01*
X149768773Y-58895196D01*
X149744505Y-58898796D01*
X149720001Y-58900000D01*
X148479999Y-58900000D01*
X148455495Y-58898796D01*
X148431227Y-58895196D01*
X148407428Y-58889235D01*
X148384329Y-58880970D01*
X148362150Y-58870480D01*
X148341107Y-58857868D01*
X148321401Y-58843253D01*
X148303223Y-58826777D01*
X148286747Y-58808599D01*
X148272132Y-58788893D01*
X148259520Y-58767850D01*
X148249030Y-58745671D01*
X148240765Y-58722572D01*
X148234804Y-58698773D01*
X148231204Y-58674505D01*
X148230000Y-58650001D01*
X148230000Y-56949999D01*
X148231204Y-56925495D01*
X148234804Y-56901227D01*
X148240765Y-56877428D01*
X148249030Y-56854329D01*
X148259520Y-56832150D01*
X148272132Y-56811107D01*
X148286747Y-56791401D01*
X148303223Y-56773223D01*
X148321401Y-56756747D01*
X148341107Y-56742132D01*
X148362150Y-56729520D01*
X148384329Y-56719030D01*
X148407428Y-56710765D01*
X148431227Y-56704804D01*
X148455495Y-56701204D01*
X148479999Y-56700000D01*
X149720001Y-56700000D01*
X149744505Y-56701204D01*
G37*
G04 #@! TD.AperFunction*
G04 #@! TA.AperFunction,ComponentPad*
G36*
X164244505Y-55731204D02*
G01*
X164268773Y-55734804D01*
X164292572Y-55740765D01*
X164315671Y-55749030D01*
X164337850Y-55759520D01*
X164358893Y-55772132D01*
X164378599Y-55786747D01*
X164396777Y-55803223D01*
X164413253Y-55821401D01*
X164427868Y-55841107D01*
X164440480Y-55862150D01*
X164450970Y-55884329D01*
X164459235Y-55907428D01*
X164465196Y-55931227D01*
X164468796Y-55955495D01*
X164470000Y-55979999D01*
X164470000Y-57620001D01*
X164468796Y-57644505D01*
X164465196Y-57668773D01*
X164459235Y-57692572D01*
X164450970Y-57715671D01*
X164440480Y-57737850D01*
X164427868Y-57758893D01*
X164413253Y-57778599D01*
X164396777Y-57796777D01*
X164378599Y-57813253D01*
X164358893Y-57827868D01*
X164337850Y-57840480D01*
X164315671Y-57850970D01*
X164292572Y-57859235D01*
X164268773Y-57865196D01*
X164244505Y-57868796D01*
X164220001Y-57870000D01*
X162979999Y-57870000D01*
X162955495Y-57868796D01*
X162931227Y-57865196D01*
X162907428Y-57859235D01*
X162884329Y-57850970D01*
X162862150Y-57840480D01*
X162841107Y-57827868D01*
X162821401Y-57813253D01*
X162803223Y-57796777D01*
X162786747Y-57778599D01*
X162772132Y-57758893D01*
X162759520Y-57737850D01*
X162749030Y-57715671D01*
X162740765Y-57692572D01*
X162734804Y-57668773D01*
X162731204Y-57644505D01*
X162730000Y-57620001D01*
X162730000Y-55979999D01*
X162731204Y-55955495D01*
X162734804Y-55931227D01*
X162740765Y-55907428D01*
X162749030Y-55884329D01*
X162759520Y-55862150D01*
X162772132Y-55841107D01*
X162786747Y-55821401D01*
X162803223Y-55803223D01*
X162821401Y-55786747D01*
X162841107Y-55772132D01*
X162862150Y-55759520D01*
X162884329Y-55749030D01*
X162907428Y-55740765D01*
X162931227Y-55734804D01*
X162955495Y-55731204D01*
X162979999Y-55730000D01*
X164220001Y-55730000D01*
X164244505Y-55731204D01*
G37*
G04 #@! TD.AperFunction*
D12*
X166140000Y-56800000D03*
X168680000Y-56800000D03*
X171220000Y-56800000D03*
X173760000Y-56800000D03*
X163600000Y-59340000D03*
X166140000Y-59340000D03*
X168680000Y-59340000D03*
X171220000Y-59340000D03*
X173760000Y-59340000D03*
D17*
X106600000Y-57340000D03*
D18*
X106600000Y-54800000D03*
D19*
X195502895Y-71467338D03*
X195720000Y-67800012D03*
X181220000Y-54300000D03*
D20*
X195297342Y-71672891D02*
X195502895Y-71467338D01*
X191575994Y-71672891D02*
X195297342Y-71672891D01*
X194720012Y-68800000D02*
X195720000Y-67800012D01*
X186600000Y-68800000D02*
X194720012Y-68800000D01*
X181619999Y-54699999D02*
X181220000Y-54300000D01*
X183720000Y-56800000D02*
X181619999Y-54699999D01*
X185600000Y-56800000D02*
X183720000Y-56800000D01*
D21*
G36*
X200940000Y-100140000D02*
G01*
X102260000Y-100140000D01*
X102260000Y-90057897D01*
X178969217Y-90057897D01*
X178969217Y-90429209D01*
X179041656Y-90793387D01*
X179183751Y-91136435D01*
X179390042Y-91445171D01*
X179652599Y-91707728D01*
X179961335Y-91914019D01*
X180304383Y-92056114D01*
X180668561Y-92128553D01*
X181039873Y-92128553D01*
X181404051Y-92056114D01*
X181747099Y-91914019D01*
X182055835Y-91707728D01*
X182318392Y-91445171D01*
X182524683Y-91136435D01*
X182666778Y-90793387D01*
X182739217Y-90429209D01*
X182739217Y-90057897D01*
X182666778Y-89693719D01*
X182524683Y-89350671D01*
X182318392Y-89041935D01*
X182055835Y-88779378D01*
X181747099Y-88573087D01*
X181404051Y-88430992D01*
X181039873Y-88358553D01*
X180668561Y-88358553D01*
X180304383Y-88430992D01*
X179961335Y-88573087D01*
X179652599Y-88779378D01*
X179390042Y-89041935D01*
X179183751Y-89350671D01*
X179041656Y-89693719D01*
X178969217Y-90057897D01*
X102260000Y-90057897D01*
X102260000Y-87185006D01*
X173993223Y-87185006D01*
X173993223Y-87556318D01*
X174065662Y-87920496D01*
X174207757Y-88263544D01*
X174414048Y-88572280D01*
X174676605Y-88834837D01*
X174985341Y-89041128D01*
X175328389Y-89183223D01*
X175692567Y-89255662D01*
X176063879Y-89255662D01*
X176428057Y-89183223D01*
X176771105Y-89041128D01*
X177079841Y-88834837D01*
X177342398Y-88572280D01*
X177548689Y-88263544D01*
X177690784Y-87920496D01*
X177763223Y-87556318D01*
X177763223Y-87185006D01*
X189690994Y-87185006D01*
X189690994Y-87556318D01*
X189763433Y-87920496D01*
X189905528Y-88263544D01*
X190111819Y-88572280D01*
X190374376Y-88834837D01*
X190683112Y-89041128D01*
X191026160Y-89183223D01*
X191390338Y-89255662D01*
X191761650Y-89255662D01*
X192125828Y-89183223D01*
X192468876Y-89041128D01*
X192777612Y-88834837D01*
X193040169Y-88572280D01*
X193246460Y-88263544D01*
X193388555Y-87920496D01*
X193460994Y-87556318D01*
X193460994Y-87185006D01*
X193388555Y-86820828D01*
X193246460Y-86477780D01*
X193040169Y-86169044D01*
X192777612Y-85906487D01*
X192468876Y-85700196D01*
X192125828Y-85558101D01*
X191761650Y-85485662D01*
X191390338Y-85485662D01*
X191026160Y-85558101D01*
X190683112Y-85700196D01*
X190374376Y-85906487D01*
X190111819Y-86169044D01*
X189905528Y-86477780D01*
X189763433Y-86820828D01*
X189690994Y-87185006D01*
X177763223Y-87185006D01*
X177690784Y-86820828D01*
X177548689Y-86477780D01*
X177342398Y-86169044D01*
X177079841Y-85906487D01*
X176771105Y-85700196D01*
X176428057Y-85558101D01*
X176063879Y-85485662D01*
X175692567Y-85485662D01*
X175328389Y-85558101D01*
X174985341Y-85700196D01*
X174676605Y-85906487D01*
X174414048Y-86169044D01*
X174207757Y-86477780D01*
X174065662Y-86820828D01*
X173993223Y-87185006D01*
X102260000Y-87185006D01*
X102260000Y-85639247D01*
X122488958Y-85639247D01*
X122632935Y-85944570D01*
X122990692Y-86125397D01*
X123376853Y-86232955D01*
X123776577Y-86263110D01*
X124174504Y-86214704D01*
X124555340Y-86089595D01*
X124826665Y-85944570D01*
X124970642Y-85639247D01*
X123729800Y-84398405D01*
X122488958Y-85639247D01*
X102260000Y-85639247D01*
X102260000Y-84265577D01*
X121685490Y-84265577D01*
X121733896Y-84663504D01*
X121859005Y-85044340D01*
X122004030Y-85315665D01*
X122309353Y-85459642D01*
X123550195Y-84218800D01*
X123909405Y-84218800D01*
X125150247Y-85459642D01*
X125455570Y-85315665D01*
X125636397Y-84957908D01*
X125743955Y-84571747D01*
X125774110Y-84172023D01*
X125725704Y-83774096D01*
X125600595Y-83393260D01*
X125455570Y-83121935D01*
X125150247Y-82977958D01*
X123909405Y-84218800D01*
X123550195Y-84218800D01*
X122309353Y-82977958D01*
X122004030Y-83121935D01*
X121823203Y-83479692D01*
X121715645Y-83865853D01*
X121685490Y-84265577D01*
X102260000Y-84265577D01*
X102260000Y-82798353D01*
X122488958Y-82798353D01*
X123729800Y-84039195D01*
X124970642Y-82798353D01*
X124826665Y-82493030D01*
X124468908Y-82312203D01*
X124098426Y-82209012D01*
X192563885Y-82209012D01*
X192563885Y-82580324D01*
X192636324Y-82944502D01*
X192778419Y-83287550D01*
X192984710Y-83596286D01*
X193247267Y-83858843D01*
X193556003Y-84065134D01*
X193899051Y-84207229D01*
X194263229Y-84279668D01*
X194634541Y-84279668D01*
X194998719Y-84207229D01*
X195341767Y-84065134D01*
X195650503Y-83858843D01*
X195913060Y-83596286D01*
X196119351Y-83287550D01*
X196261446Y-82944502D01*
X196333885Y-82580324D01*
X196333885Y-82209012D01*
X196261446Y-81844834D01*
X196119351Y-81501786D01*
X195913060Y-81193050D01*
X195650503Y-80930493D01*
X195341767Y-80724202D01*
X194998719Y-80582107D01*
X194634541Y-80509668D01*
X194263229Y-80509668D01*
X193899051Y-80582107D01*
X193556003Y-80724202D01*
X193247267Y-80930493D01*
X192984710Y-81193050D01*
X192778419Y-81501786D01*
X192636324Y-81844834D01*
X192563885Y-82209012D01*
X124098426Y-82209012D01*
X124082747Y-82204645D01*
X123683023Y-82174490D01*
X123285096Y-82222896D01*
X122904260Y-82348005D01*
X122632935Y-82493030D01*
X122488958Y-82798353D01*
X102260000Y-82798353D01*
X102260000Y-79318370D01*
X121694800Y-79318370D01*
X121694800Y-79719230D01*
X121773004Y-80112387D01*
X121926407Y-80482734D01*
X122149113Y-80816037D01*
X122432563Y-81099487D01*
X122765866Y-81322193D01*
X123136213Y-81475596D01*
X123529370Y-81553800D01*
X123930230Y-81553800D01*
X124323387Y-81475596D01*
X124693734Y-81322193D01*
X125027037Y-81099487D01*
X125310487Y-80816037D01*
X125533193Y-80482734D01*
X125686596Y-80112387D01*
X125764800Y-79719230D01*
X125764800Y-79318370D01*
X125686596Y-78925213D01*
X125533193Y-78554866D01*
X125310487Y-78221563D01*
X125027037Y-77938113D01*
X124693734Y-77715407D01*
X124323387Y-77562004D01*
X123930230Y-77483800D01*
X123529370Y-77483800D01*
X123136213Y-77562004D01*
X122765866Y-77715407D01*
X122432563Y-77938113D01*
X122149113Y-78221563D01*
X121926407Y-78554866D01*
X121773004Y-78925213D01*
X121694800Y-79318370D01*
X102260000Y-79318370D01*
X102260000Y-73418800D01*
X121691728Y-73418800D01*
X121691728Y-76218800D01*
X121703988Y-76343282D01*
X121740298Y-76462980D01*
X121799263Y-76573294D01*
X121878615Y-76669985D01*
X121975306Y-76749337D01*
X122085620Y-76808302D01*
X122205318Y-76844612D01*
X122329800Y-76856872D01*
X125129800Y-76856872D01*
X125254282Y-76844612D01*
X125373980Y-76808302D01*
X125484294Y-76749337D01*
X125580985Y-76669985D01*
X125660337Y-76573294D01*
X125719168Y-76463229D01*
X171120332Y-76463229D01*
X171120332Y-76834541D01*
X171192771Y-77198719D01*
X171334866Y-77541767D01*
X171541157Y-77850503D01*
X171803714Y-78113060D01*
X172112450Y-78319351D01*
X172455498Y-78461446D01*
X172819676Y-78533885D01*
X173190988Y-78533885D01*
X173555166Y-78461446D01*
X173898214Y-78319351D01*
X174206950Y-78113060D01*
X174469507Y-77850503D01*
X174675798Y-77541767D01*
X174817893Y-77198719D01*
X174890332Y-76834541D01*
X174890332Y-76613760D01*
X184564470Y-76613760D01*
X184564470Y-76985072D01*
X184636909Y-77349250D01*
X184779004Y-77692298D01*
X184985295Y-78001034D01*
X185247852Y-78263591D01*
X185556588Y-78469882D01*
X185899636Y-78611977D01*
X186263814Y-78684416D01*
X186635126Y-78684416D01*
X186999304Y-78611977D01*
X187342352Y-78469882D01*
X187651088Y-78263591D01*
X187913645Y-78001034D01*
X188119936Y-77692298D01*
X188262031Y-77349250D01*
X188334470Y-76985072D01*
X188334470Y-76613760D01*
X188262031Y-76249582D01*
X188119936Y-75906534D01*
X187913645Y-75597798D01*
X187651088Y-75335241D01*
X187342352Y-75128950D01*
X186999304Y-74986855D01*
X186635126Y-74914416D01*
X186263814Y-74914416D01*
X185899636Y-74986855D01*
X185556588Y-75128950D01*
X185247852Y-75335241D01*
X184985295Y-75597798D01*
X184779004Y-75906534D01*
X184636909Y-76249582D01*
X184564470Y-76613760D01*
X174890332Y-76613760D01*
X174890332Y-76463229D01*
X174817893Y-76099051D01*
X174675798Y-75756003D01*
X174469507Y-75447267D01*
X174206950Y-75184710D01*
X173898214Y-74978419D01*
X173555166Y-74836324D01*
X173190988Y-74763885D01*
X172819676Y-74763885D01*
X172455498Y-74836324D01*
X172112450Y-74978419D01*
X171803714Y-75184710D01*
X171541157Y-75447267D01*
X171334866Y-75756003D01*
X171192771Y-76099051D01*
X171120332Y-76463229D01*
X125719168Y-76463229D01*
X125719302Y-76462980D01*
X125755612Y-76343282D01*
X125767872Y-76218800D01*
X125767872Y-73418800D01*
X125755612Y-73294318D01*
X125719302Y-73174620D01*
X125660337Y-73064306D01*
X125580985Y-72967615D01*
X125484294Y-72888263D01*
X125373980Y-72829298D01*
X125254282Y-72792988D01*
X125129800Y-72780728D01*
X122329800Y-72780728D01*
X122205318Y-72792988D01*
X122085620Y-72829298D01*
X121975306Y-72888263D01*
X121878615Y-72967615D01*
X121799263Y-73064306D01*
X121740298Y-73174620D01*
X121703988Y-73294318D01*
X121691728Y-73418800D01*
X102260000Y-73418800D01*
X102260000Y-71487235D01*
X173993223Y-71487235D01*
X173993223Y-71858547D01*
X174065662Y-72222725D01*
X174207757Y-72565773D01*
X174414048Y-72874509D01*
X174676605Y-73137066D01*
X174985341Y-73343357D01*
X175328389Y-73485452D01*
X175692567Y-73557891D01*
X176063879Y-73557891D01*
X176428057Y-73485452D01*
X176771105Y-73343357D01*
X177079841Y-73137066D01*
X177342398Y-72874509D01*
X177548689Y-72565773D01*
X177690784Y-72222725D01*
X177763223Y-71858547D01*
X177763223Y-71487235D01*
X189690994Y-71487235D01*
X189690994Y-71858547D01*
X189763433Y-72222725D01*
X189905528Y-72565773D01*
X190111819Y-72874509D01*
X190374376Y-73137066D01*
X190683112Y-73343357D01*
X191026160Y-73485452D01*
X191390338Y-73557891D01*
X191761650Y-73557891D01*
X192125828Y-73485452D01*
X192468876Y-73343357D01*
X192777612Y-73137066D01*
X193040169Y-72874509D01*
X193246460Y-72565773D01*
X193248068Y-72561891D01*
X195253682Y-72561891D01*
X195297342Y-72566191D01*
X195341002Y-72561891D01*
X195341009Y-72561891D01*
X195471616Y-72549027D01*
X195639193Y-72498194D01*
X195647210Y-72493909D01*
X195804793Y-72462564D01*
X195993151Y-72384543D01*
X196162669Y-72271275D01*
X196306832Y-72127112D01*
X196420100Y-71957594D01*
X196498121Y-71769236D01*
X196537895Y-71569277D01*
X196537895Y-71365399D01*
X196498121Y-71165440D01*
X196420100Y-70977082D01*
X196306832Y-70807564D01*
X196162669Y-70663401D01*
X195993151Y-70550133D01*
X195804793Y-70472112D01*
X195604834Y-70432338D01*
X195400956Y-70432338D01*
X195200997Y-70472112D01*
X195012639Y-70550133D01*
X194843121Y-70663401D01*
X194722631Y-70783891D01*
X193248068Y-70783891D01*
X193246460Y-70780009D01*
X193040169Y-70471273D01*
X192777612Y-70208716D01*
X192468876Y-70002425D01*
X192125828Y-69860330D01*
X191761650Y-69787891D01*
X191390338Y-69787891D01*
X191026160Y-69860330D01*
X190683112Y-70002425D01*
X190374376Y-70208716D01*
X190111819Y-70471273D01*
X189905528Y-70780009D01*
X189763433Y-71123057D01*
X189690994Y-71487235D01*
X177763223Y-71487235D01*
X177690784Y-71123057D01*
X177548689Y-70780009D01*
X177342398Y-70471273D01*
X177079841Y-70208716D01*
X176771105Y-70002425D01*
X176428057Y-69860330D01*
X176063879Y-69787891D01*
X175692567Y-69787891D01*
X175328389Y-69860330D01*
X174985341Y-70002425D01*
X174676605Y-70208716D01*
X174414048Y-70471273D01*
X174207757Y-70780009D01*
X174065662Y-71123057D01*
X173993223Y-71487235D01*
X102260000Y-71487235D01*
X102260000Y-67550000D01*
X184711928Y-67550000D01*
X184711928Y-70050000D01*
X184724188Y-70174482D01*
X184760498Y-70294180D01*
X184819463Y-70404494D01*
X184898815Y-70501185D01*
X184995506Y-70580537D01*
X185105820Y-70639502D01*
X185225518Y-70675812D01*
X185350000Y-70688072D01*
X187850000Y-70688072D01*
X187974482Y-70675812D01*
X188094180Y-70639502D01*
X188204494Y-70580537D01*
X188301185Y-70501185D01*
X188380537Y-70404494D01*
X188439502Y-70294180D01*
X188475812Y-70174482D01*
X188488072Y-70050000D01*
X188488072Y-69689000D01*
X194676352Y-69689000D01*
X194720012Y-69693300D01*
X194763672Y-69689000D01*
X194763679Y-69689000D01*
X194894286Y-69676136D01*
X195061863Y-69625303D01*
X195216303Y-69542753D01*
X195351671Y-69431659D01*
X195379511Y-69397736D01*
X195972105Y-68805142D01*
X196021898Y-68795238D01*
X196210256Y-68717217D01*
X196379774Y-68603949D01*
X196523937Y-68459786D01*
X196637205Y-68290268D01*
X196715226Y-68101910D01*
X196755000Y-67901951D01*
X196755000Y-67698073D01*
X196715226Y-67498114D01*
X196637205Y-67309756D01*
X196523937Y-67140238D01*
X196379774Y-66996075D01*
X196210256Y-66882807D01*
X196021898Y-66804786D01*
X195821939Y-66765012D01*
X195618061Y-66765012D01*
X195418102Y-66804786D01*
X195229744Y-66882807D01*
X195060226Y-66996075D01*
X194916063Y-67140238D01*
X194802795Y-67309756D01*
X194724774Y-67498114D01*
X194714870Y-67547907D01*
X194351777Y-67911000D01*
X188488072Y-67911000D01*
X188488072Y-67550000D01*
X188475812Y-67425518D01*
X188439502Y-67305820D01*
X188380537Y-67195506D01*
X188301185Y-67098815D01*
X188204494Y-67019463D01*
X188094180Y-66960498D01*
X187974482Y-66924188D01*
X187850000Y-66911928D01*
X185350000Y-66911928D01*
X185225518Y-66924188D01*
X185105820Y-66960498D01*
X184995506Y-67019463D01*
X184898815Y-67098815D01*
X184819463Y-67195506D01*
X184760498Y-67305820D01*
X184724188Y-67425518D01*
X184711928Y-67550000D01*
X102260000Y-67550000D01*
X102260000Y-59703814D01*
X162099073Y-59703814D01*
X162159871Y-59993483D01*
X162276013Y-60265725D01*
X162443035Y-60510077D01*
X162654518Y-60717150D01*
X162902336Y-60878986D01*
X163176965Y-60989365D01*
X163239969Y-61001302D01*
X163473000Y-60880246D01*
X163473000Y-59467000D01*
X163727000Y-59467000D01*
X163727000Y-60880246D01*
X163960031Y-61001302D01*
X164023035Y-60989365D01*
X164297664Y-60878986D01*
X164545482Y-60717150D01*
X164756965Y-60510077D01*
X164870000Y-60344708D01*
X164983035Y-60510077D01*
X165194518Y-60717150D01*
X165442336Y-60878986D01*
X165716965Y-60989365D01*
X165779969Y-61001302D01*
X166013000Y-60880246D01*
X166013000Y-59467000D01*
X166267000Y-59467000D01*
X166267000Y-60880246D01*
X166500031Y-61001302D01*
X166563035Y-60989365D01*
X166837664Y-60878986D01*
X167085482Y-60717150D01*
X167296965Y-60510077D01*
X167410000Y-60344708D01*
X167523035Y-60510077D01*
X167734518Y-60717150D01*
X167982336Y-60878986D01*
X168256965Y-60989365D01*
X168319969Y-61001302D01*
X168553000Y-60880246D01*
X168553000Y-59467000D01*
X168807000Y-59467000D01*
X168807000Y-60880246D01*
X169040031Y-61001302D01*
X169103035Y-60989365D01*
X169377664Y-60878986D01*
X169625482Y-60717150D01*
X169836965Y-60510077D01*
X169950000Y-60344708D01*
X170063035Y-60510077D01*
X170274518Y-60717150D01*
X170522336Y-60878986D01*
X170796965Y-60989365D01*
X170859969Y-61001302D01*
X171093000Y-60880246D01*
X171093000Y-59467000D01*
X171347000Y-59467000D01*
X171347000Y-60880246D01*
X171580031Y-61001302D01*
X171643035Y-60989365D01*
X171917664Y-60878986D01*
X172165482Y-60717150D01*
X172376965Y-60510077D01*
X172490000Y-60344708D01*
X172603035Y-60510077D01*
X172814518Y-60717150D01*
X173062336Y-60878986D01*
X173336965Y-60989365D01*
X173399969Y-61001302D01*
X173633000Y-60880246D01*
X173633000Y-59467000D01*
X173887000Y-59467000D01*
X173887000Y-60880246D01*
X174120031Y-61001302D01*
X174183035Y-60989365D01*
X174457664Y-60878986D01*
X174705482Y-60717150D01*
X174916965Y-60510077D01*
X175083987Y-60265725D01*
X175200129Y-59993483D01*
X175260927Y-59703814D01*
X184099073Y-59703814D01*
X184159871Y-59993483D01*
X184276013Y-60265725D01*
X184443035Y-60510077D01*
X184654518Y-60717150D01*
X184902336Y-60878986D01*
X185176965Y-60989365D01*
X185239969Y-61001302D01*
X185473000Y-60880246D01*
X185473000Y-59467000D01*
X185727000Y-59467000D01*
X185727000Y-60880246D01*
X185960031Y-61001302D01*
X186023035Y-60989365D01*
X186297664Y-60878986D01*
X186545482Y-60717150D01*
X186756965Y-60510077D01*
X186870000Y-60344708D01*
X186983035Y-60510077D01*
X187194518Y-60717150D01*
X187442336Y-60878986D01*
X187716965Y-60989365D01*
X187779969Y-61001302D01*
X188013000Y-60880246D01*
X188013000Y-59467000D01*
X188267000Y-59467000D01*
X188267000Y-60880246D01*
X188500031Y-61001302D01*
X188563035Y-60989365D01*
X188837664Y-60878986D01*
X189085482Y-60717150D01*
X189296965Y-60510077D01*
X189410000Y-60344708D01*
X189523035Y-60510077D01*
X189734518Y-60717150D01*
X189982336Y-60878986D01*
X190256965Y-60989365D01*
X190319969Y-61001302D01*
X190553000Y-60880246D01*
X190553000Y-59467000D01*
X190807000Y-59467000D01*
X190807000Y-60880246D01*
X191040031Y-61001302D01*
X191103035Y-60989365D01*
X191377664Y-60878986D01*
X191625482Y-60717150D01*
X191836965Y-60510077D01*
X191950000Y-60344708D01*
X192063035Y-60510077D01*
X192274518Y-60717150D01*
X192522336Y-60878986D01*
X192796965Y-60989365D01*
X192859969Y-61001302D01*
X193093000Y-60880246D01*
X193093000Y-59467000D01*
X193347000Y-59467000D01*
X193347000Y-60880246D01*
X193580031Y-61001302D01*
X193643035Y-60989365D01*
X193917664Y-60878986D01*
X194165482Y-60717150D01*
X194376965Y-60510077D01*
X194490000Y-60344708D01*
X194603035Y-60510077D01*
X194814518Y-60717150D01*
X195062336Y-60878986D01*
X195336965Y-60989365D01*
X195399969Y-61001302D01*
X195633000Y-60880246D01*
X195633000Y-59467000D01*
X195887000Y-59467000D01*
X195887000Y-60880246D01*
X196120031Y-61001302D01*
X196183035Y-60989365D01*
X196457664Y-60878986D01*
X196705482Y-60717150D01*
X196916965Y-60510077D01*
X197083987Y-60265725D01*
X197200129Y-59993483D01*
X197260927Y-59703814D01*
X197109324Y-59467000D01*
X195887000Y-59467000D01*
X195633000Y-59467000D01*
X193347000Y-59467000D01*
X193093000Y-59467000D01*
X190807000Y-59467000D01*
X190553000Y-59467000D01*
X188267000Y-59467000D01*
X188013000Y-59467000D01*
X185727000Y-59467000D01*
X185473000Y-59467000D01*
X184250676Y-59467000D01*
X184099073Y-59703814D01*
X175260927Y-59703814D01*
X175109324Y-59467000D01*
X173887000Y-59467000D01*
X173633000Y-59467000D01*
X171347000Y-59467000D01*
X171093000Y-59467000D01*
X168807000Y-59467000D01*
X168553000Y-59467000D01*
X166267000Y-59467000D01*
X166013000Y-59467000D01*
X163727000Y-59467000D01*
X163473000Y-59467000D01*
X162250676Y-59467000D01*
X162099073Y-59703814D01*
X102260000Y-59703814D01*
X102260000Y-58900000D01*
X119091928Y-58900000D01*
X119104188Y-59024482D01*
X119140498Y-59144180D01*
X119199463Y-59254494D01*
X119278815Y-59351185D01*
X119375506Y-59430537D01*
X119485820Y-59489502D01*
X119605518Y-59525812D01*
X119730000Y-59538072D01*
X120314250Y-59535000D01*
X120473000Y-59376250D01*
X120473000Y-57927000D01*
X119253750Y-57927000D01*
X119095000Y-58085750D01*
X119091928Y-58900000D01*
X102260000Y-58900000D01*
X102260000Y-55700000D01*
X105061928Y-55700000D01*
X105074188Y-55824482D01*
X105110498Y-55944180D01*
X105169463Y-56054494D01*
X105248815Y-56151185D01*
X105345506Y-56230537D01*
X105455820Y-56289502D01*
X105474127Y-56295056D01*
X105407688Y-56361495D01*
X105239701Y-56612905D01*
X105123989Y-56892257D01*
X105065000Y-57188816D01*
X105065000Y-57491184D01*
X105123989Y-57787743D01*
X105239701Y-58067095D01*
X105407688Y-58318505D01*
X105621495Y-58532312D01*
X105872905Y-58700299D01*
X106152257Y-58816011D01*
X106448816Y-58875000D01*
X106751184Y-58875000D01*
X107047743Y-58816011D01*
X107327095Y-58700299D01*
X107578505Y-58532312D01*
X107792312Y-58318505D01*
X107960299Y-58067095D01*
X108076011Y-57787743D01*
X108135000Y-57491184D01*
X108135000Y-57188816D01*
X108076011Y-56892257D01*
X107996376Y-56700000D01*
X119091928Y-56700000D01*
X119095000Y-57514250D01*
X119253750Y-57673000D01*
X120473000Y-57673000D01*
X120473000Y-56223750D01*
X120727000Y-56223750D01*
X120727000Y-57673000D01*
X120747000Y-57673000D01*
X120747000Y-57927000D01*
X120727000Y-57927000D01*
X120727000Y-59376250D01*
X120885750Y-59535000D01*
X121470000Y-59538072D01*
X121594482Y-59525812D01*
X121714180Y-59489502D01*
X121824494Y-59430537D01*
X121921185Y-59351185D01*
X122000537Y-59254494D01*
X122059502Y-59144180D01*
X122072615Y-59100953D01*
X122299822Y-59287417D01*
X122561276Y-59427166D01*
X122844969Y-59513224D01*
X123140000Y-59542282D01*
X123435032Y-59513224D01*
X123718725Y-59427166D01*
X123980179Y-59287417D01*
X124209345Y-59099345D01*
X124397417Y-58870179D01*
X124537166Y-58608724D01*
X124623224Y-58325031D01*
X124645000Y-58103935D01*
X124645000Y-57496064D01*
X124623224Y-57274968D01*
X124537166Y-56991275D01*
X124515104Y-56949999D01*
X147591928Y-56949999D01*
X147591928Y-58650001D01*
X147608992Y-58823255D01*
X147659528Y-58989851D01*
X147741595Y-59143387D01*
X147852038Y-59277962D01*
X147986613Y-59388405D01*
X148140149Y-59470472D01*
X148306745Y-59521008D01*
X148479999Y-59538072D01*
X149720001Y-59538072D01*
X149893255Y-59521008D01*
X150059851Y-59470472D01*
X150213387Y-59388405D01*
X150347962Y-59277962D01*
X150458405Y-59143387D01*
X150516507Y-59034686D01*
X150669506Y-59190536D01*
X150914563Y-59357571D01*
X151187498Y-59473588D01*
X151279969Y-59491302D01*
X151513000Y-59370246D01*
X151513000Y-57927000D01*
X151767000Y-57927000D01*
X151767000Y-59370246D01*
X152000031Y-59491302D01*
X152092502Y-59473588D01*
X152365437Y-59357571D01*
X152610494Y-59190536D01*
X152818256Y-58978903D01*
X152980738Y-58730804D01*
X153091696Y-58455773D01*
X153146866Y-58164380D01*
X152990586Y-57927000D01*
X151767000Y-57927000D01*
X151513000Y-57927000D01*
X151493000Y-57927000D01*
X151493000Y-57673000D01*
X151513000Y-57673000D01*
X151513000Y-56229754D01*
X151767000Y-56229754D01*
X151767000Y-57673000D01*
X152990586Y-57673000D01*
X153146866Y-57435620D01*
X153091696Y-57144227D01*
X152980738Y-56869196D01*
X152818256Y-56621097D01*
X152610494Y-56409464D01*
X152365437Y-56242429D01*
X152092502Y-56126412D01*
X152000031Y-56108698D01*
X151767000Y-56229754D01*
X151513000Y-56229754D01*
X151279969Y-56108698D01*
X151187498Y-56126412D01*
X150914563Y-56242429D01*
X150669506Y-56409464D01*
X150516507Y-56565314D01*
X150458405Y-56456613D01*
X150347962Y-56322038D01*
X150213387Y-56211595D01*
X150059851Y-56129528D01*
X149893255Y-56078992D01*
X149720001Y-56061928D01*
X148479999Y-56061928D01*
X148306745Y-56078992D01*
X148140149Y-56129528D01*
X147986613Y-56211595D01*
X147852038Y-56322038D01*
X147741595Y-56456613D01*
X147659528Y-56610149D01*
X147608992Y-56776745D01*
X147591928Y-56949999D01*
X124515104Y-56949999D01*
X124397417Y-56729821D01*
X124209345Y-56500655D01*
X123980178Y-56312583D01*
X123718724Y-56172834D01*
X123435031Y-56086776D01*
X123140000Y-56057718D01*
X122844968Y-56086776D01*
X122561275Y-56172834D01*
X122299821Y-56312583D01*
X122072615Y-56499047D01*
X122059502Y-56455820D01*
X122000537Y-56345506D01*
X121921185Y-56248815D01*
X121824494Y-56169463D01*
X121714180Y-56110498D01*
X121594482Y-56074188D01*
X121470000Y-56061928D01*
X120885750Y-56065000D01*
X120727000Y-56223750D01*
X120473000Y-56223750D01*
X120314250Y-56065000D01*
X119730000Y-56061928D01*
X119605518Y-56074188D01*
X119485820Y-56110498D01*
X119375506Y-56169463D01*
X119278815Y-56248815D01*
X119199463Y-56345506D01*
X119140498Y-56455820D01*
X119104188Y-56575518D01*
X119091928Y-56700000D01*
X107996376Y-56700000D01*
X107960299Y-56612905D01*
X107792312Y-56361495D01*
X107725873Y-56295056D01*
X107744180Y-56289502D01*
X107854494Y-56230537D01*
X107951185Y-56151185D01*
X108030537Y-56054494D01*
X108070356Y-55979999D01*
X162091928Y-55979999D01*
X162091928Y-57620001D01*
X162108992Y-57793255D01*
X162159528Y-57959851D01*
X162241595Y-58113387D01*
X162352038Y-58247962D01*
X162376161Y-58267759D01*
X162276013Y-58414275D01*
X162159871Y-58686517D01*
X162099073Y-58976186D01*
X162250676Y-59213000D01*
X163473000Y-59213000D01*
X163473000Y-59193000D01*
X163727000Y-59193000D01*
X163727000Y-59213000D01*
X166013000Y-59213000D01*
X166013000Y-59193000D01*
X166267000Y-59193000D01*
X166267000Y-59213000D01*
X168553000Y-59213000D01*
X168553000Y-59193000D01*
X168807000Y-59193000D01*
X168807000Y-59213000D01*
X171093000Y-59213000D01*
X171093000Y-59193000D01*
X171347000Y-59193000D01*
X171347000Y-59213000D01*
X173633000Y-59213000D01*
X173633000Y-59193000D01*
X173887000Y-59193000D01*
X173887000Y-59213000D01*
X175109324Y-59213000D01*
X175260927Y-58976186D01*
X175200129Y-58686517D01*
X175083987Y-58414275D01*
X174916965Y-58169923D01*
X174821130Y-58076087D01*
X174829345Y-58069345D01*
X175017417Y-57840179D01*
X175157166Y-57578724D01*
X175243224Y-57295031D01*
X175265000Y-57073935D01*
X175265000Y-56526064D01*
X175243224Y-56304968D01*
X175157166Y-56021275D01*
X175017417Y-55759821D01*
X174829345Y-55530655D01*
X174600178Y-55342583D01*
X174338724Y-55202834D01*
X174055031Y-55116776D01*
X173760000Y-55087718D01*
X173464968Y-55116776D01*
X173181275Y-55202834D01*
X172919821Y-55342583D01*
X172690655Y-55530655D01*
X172502583Y-55759822D01*
X172490000Y-55783363D01*
X172477417Y-55759821D01*
X172289345Y-55530655D01*
X172060178Y-55342583D01*
X171798724Y-55202834D01*
X171515031Y-55116776D01*
X171220000Y-55087718D01*
X170924968Y-55116776D01*
X170641275Y-55202834D01*
X170379821Y-55342583D01*
X170150655Y-55530655D01*
X169962583Y-55759822D01*
X169950000Y-55783363D01*
X169937417Y-55759821D01*
X169749345Y-55530655D01*
X169520178Y-55342583D01*
X169258724Y-55202834D01*
X168975031Y-55116776D01*
X168680000Y-55087718D01*
X168384968Y-55116776D01*
X168101275Y-55202834D01*
X167839821Y-55342583D01*
X167610655Y-55530655D01*
X167422583Y-55759822D01*
X167410000Y-55783363D01*
X167397417Y-55759821D01*
X167209345Y-55530655D01*
X166980178Y-55342583D01*
X166718724Y-55202834D01*
X166435031Y-55116776D01*
X166140000Y-55087718D01*
X165844968Y-55116776D01*
X165561275Y-55202834D01*
X165299821Y-55342583D01*
X165070655Y-55530655D01*
X165016935Y-55596114D01*
X164958405Y-55486613D01*
X164847962Y-55352038D01*
X164713387Y-55241595D01*
X164559851Y-55159528D01*
X164393255Y-55108992D01*
X164220001Y-55091928D01*
X162979999Y-55091928D01*
X162806745Y-55108992D01*
X162640149Y-55159528D01*
X162486613Y-55241595D01*
X162352038Y-55352038D01*
X162241595Y-55486613D01*
X162159528Y-55640149D01*
X162108992Y-55806745D01*
X162091928Y-55979999D01*
X108070356Y-55979999D01*
X108089502Y-55944180D01*
X108125812Y-55824482D01*
X108138072Y-55700000D01*
X108135000Y-55085750D01*
X107976250Y-54927000D01*
X106727000Y-54927000D01*
X106727000Y-54947000D01*
X106473000Y-54947000D01*
X106473000Y-54927000D01*
X105223750Y-54927000D01*
X105065000Y-55085750D01*
X105061928Y-55700000D01*
X102260000Y-55700000D01*
X102260000Y-53900000D01*
X105061928Y-53900000D01*
X105065000Y-54514250D01*
X105223750Y-54673000D01*
X106473000Y-54673000D01*
X106473000Y-53423750D01*
X106727000Y-53423750D01*
X106727000Y-54673000D01*
X107976250Y-54673000D01*
X108135000Y-54514250D01*
X108136581Y-54198061D01*
X180185000Y-54198061D01*
X180185000Y-54401939D01*
X180224774Y-54601898D01*
X180302795Y-54790256D01*
X180416063Y-54959774D01*
X180560226Y-55103937D01*
X180729744Y-55217205D01*
X180918102Y-55295226D01*
X180967895Y-55305130D01*
X183060506Y-57397742D01*
X183088341Y-57431659D01*
X183223709Y-57542753D01*
X183378149Y-57625303D01*
X183472758Y-57654002D01*
X183545725Y-57676136D01*
X183562325Y-57677771D01*
X183676333Y-57689000D01*
X183676340Y-57689000D01*
X183720000Y-57693300D01*
X183763660Y-57689000D01*
X184098724Y-57689000D01*
X184108992Y-57793255D01*
X184159528Y-57959851D01*
X184241595Y-58113387D01*
X184352038Y-58247962D01*
X184376161Y-58267759D01*
X184276013Y-58414275D01*
X184159871Y-58686517D01*
X184099073Y-58976186D01*
X184250676Y-59213000D01*
X185473000Y-59213000D01*
X185473000Y-59193000D01*
X185727000Y-59193000D01*
X185727000Y-59213000D01*
X188013000Y-59213000D01*
X188013000Y-59193000D01*
X188267000Y-59193000D01*
X188267000Y-59213000D01*
X190553000Y-59213000D01*
X190553000Y-59193000D01*
X190807000Y-59193000D01*
X190807000Y-59213000D01*
X193093000Y-59213000D01*
X193093000Y-59193000D01*
X193347000Y-59193000D01*
X193347000Y-59213000D01*
X195633000Y-59213000D01*
X195633000Y-59193000D01*
X195887000Y-59193000D01*
X195887000Y-59213000D01*
X197109324Y-59213000D01*
X197260927Y-58976186D01*
X197200129Y-58686517D01*
X197083987Y-58414275D01*
X196916965Y-58169923D01*
X196821130Y-58076087D01*
X196829345Y-58069345D01*
X197017417Y-57840179D01*
X197157166Y-57578724D01*
X197243224Y-57295031D01*
X197265000Y-57073935D01*
X197265000Y-56526064D01*
X197243224Y-56304968D01*
X197157166Y-56021275D01*
X197017417Y-55759821D01*
X196829345Y-55530655D01*
X196600178Y-55342583D01*
X196338724Y-55202834D01*
X196055031Y-55116776D01*
X195760000Y-55087718D01*
X195464968Y-55116776D01*
X195181275Y-55202834D01*
X194919821Y-55342583D01*
X194690655Y-55530655D01*
X194502583Y-55759822D01*
X194490000Y-55783363D01*
X194477417Y-55759821D01*
X194289345Y-55530655D01*
X194060178Y-55342583D01*
X193798724Y-55202834D01*
X193515031Y-55116776D01*
X193220000Y-55087718D01*
X192924968Y-55116776D01*
X192641275Y-55202834D01*
X192379821Y-55342583D01*
X192150655Y-55530655D01*
X191962583Y-55759822D01*
X191950000Y-55783363D01*
X191937417Y-55759821D01*
X191749345Y-55530655D01*
X191520178Y-55342583D01*
X191258724Y-55202834D01*
X190975031Y-55116776D01*
X190680000Y-55087718D01*
X190384968Y-55116776D01*
X190101275Y-55202834D01*
X189839821Y-55342583D01*
X189610655Y-55530655D01*
X189422583Y-55759822D01*
X189410000Y-55783363D01*
X189397417Y-55759821D01*
X189209345Y-55530655D01*
X188980178Y-55342583D01*
X188718724Y-55202834D01*
X188435031Y-55116776D01*
X188140000Y-55087718D01*
X187844968Y-55116776D01*
X187561275Y-55202834D01*
X187299821Y-55342583D01*
X187070655Y-55530655D01*
X187016935Y-55596114D01*
X186958405Y-55486613D01*
X186847962Y-55352038D01*
X186713387Y-55241595D01*
X186559851Y-55159528D01*
X186393255Y-55108992D01*
X186220001Y-55091928D01*
X184979999Y-55091928D01*
X184806745Y-55108992D01*
X184640149Y-55159528D01*
X184486613Y-55241595D01*
X184352038Y-55352038D01*
X184241595Y-55486613D01*
X184159528Y-55640149D01*
X184108992Y-55806745D01*
X184098724Y-55911000D01*
X184088236Y-55911000D01*
X182225130Y-54047895D01*
X182215226Y-53998102D01*
X182137205Y-53809744D01*
X182023937Y-53640226D01*
X181879774Y-53496063D01*
X181710256Y-53382795D01*
X181521898Y-53304774D01*
X181321939Y-53265000D01*
X181118061Y-53265000D01*
X180918102Y-53304774D01*
X180729744Y-53382795D01*
X180560226Y-53496063D01*
X180416063Y-53640226D01*
X180302795Y-53809744D01*
X180224774Y-53998102D01*
X180185000Y-54198061D01*
X108136581Y-54198061D01*
X108138072Y-53900000D01*
X108125812Y-53775518D01*
X108089502Y-53655820D01*
X108030537Y-53545506D01*
X107951185Y-53448815D01*
X107854494Y-53369463D01*
X107744180Y-53310498D01*
X107624482Y-53274188D01*
X107500000Y-53261928D01*
X106885750Y-53265000D01*
X106727000Y-53423750D01*
X106473000Y-53423750D01*
X106314250Y-53265000D01*
X105700000Y-53261928D01*
X105575518Y-53274188D01*
X105455820Y-53310498D01*
X105345506Y-53369463D01*
X105248815Y-53448815D01*
X105169463Y-53545506D01*
X105110498Y-53655820D01*
X105074188Y-53775518D01*
X105061928Y-53900000D01*
X102260000Y-53900000D01*
X102260000Y-51460000D01*
X200940001Y-51460000D01*
X200940000Y-100140000D01*
G37*
X200940000Y-100140000D02*
X102260000Y-100140000D01*
X102260000Y-90057897D01*
X178969217Y-90057897D01*
X178969217Y-90429209D01*
X179041656Y-90793387D01*
X179183751Y-91136435D01*
X179390042Y-91445171D01*
X179652599Y-91707728D01*
X179961335Y-91914019D01*
X180304383Y-92056114D01*
X180668561Y-92128553D01*
X181039873Y-92128553D01*
X181404051Y-92056114D01*
X181747099Y-91914019D01*
X182055835Y-91707728D01*
X182318392Y-91445171D01*
X182524683Y-91136435D01*
X182666778Y-90793387D01*
X182739217Y-90429209D01*
X182739217Y-90057897D01*
X182666778Y-89693719D01*
X182524683Y-89350671D01*
X182318392Y-89041935D01*
X182055835Y-88779378D01*
X181747099Y-88573087D01*
X181404051Y-88430992D01*
X181039873Y-88358553D01*
X180668561Y-88358553D01*
X180304383Y-88430992D01*
X179961335Y-88573087D01*
X179652599Y-88779378D01*
X179390042Y-89041935D01*
X179183751Y-89350671D01*
X179041656Y-89693719D01*
X178969217Y-90057897D01*
X102260000Y-90057897D01*
X102260000Y-87185006D01*
X173993223Y-87185006D01*
X173993223Y-87556318D01*
X174065662Y-87920496D01*
X174207757Y-88263544D01*
X174414048Y-88572280D01*
X174676605Y-88834837D01*
X174985341Y-89041128D01*
X175328389Y-89183223D01*
X175692567Y-89255662D01*
X176063879Y-89255662D01*
X176428057Y-89183223D01*
X176771105Y-89041128D01*
X177079841Y-88834837D01*
X177342398Y-88572280D01*
X177548689Y-88263544D01*
X177690784Y-87920496D01*
X177763223Y-87556318D01*
X177763223Y-87185006D01*
X189690994Y-87185006D01*
X189690994Y-87556318D01*
X189763433Y-87920496D01*
X189905528Y-88263544D01*
X190111819Y-88572280D01*
X190374376Y-88834837D01*
X190683112Y-89041128D01*
X191026160Y-89183223D01*
X191390338Y-89255662D01*
X191761650Y-89255662D01*
X192125828Y-89183223D01*
X192468876Y-89041128D01*
X192777612Y-88834837D01*
X193040169Y-88572280D01*
X193246460Y-88263544D01*
X193388555Y-87920496D01*
X193460994Y-87556318D01*
X193460994Y-87185006D01*
X193388555Y-86820828D01*
X193246460Y-86477780D01*
X193040169Y-86169044D01*
X192777612Y-85906487D01*
X192468876Y-85700196D01*
X192125828Y-85558101D01*
X191761650Y-85485662D01*
X191390338Y-85485662D01*
X191026160Y-85558101D01*
X190683112Y-85700196D01*
X190374376Y-85906487D01*
X190111819Y-86169044D01*
X189905528Y-86477780D01*
X189763433Y-86820828D01*
X189690994Y-87185006D01*
X177763223Y-87185006D01*
X177690784Y-86820828D01*
X177548689Y-86477780D01*
X177342398Y-86169044D01*
X177079841Y-85906487D01*
X176771105Y-85700196D01*
X176428057Y-85558101D01*
X176063879Y-85485662D01*
X175692567Y-85485662D01*
X175328389Y-85558101D01*
X174985341Y-85700196D01*
X174676605Y-85906487D01*
X174414048Y-86169044D01*
X174207757Y-86477780D01*
X174065662Y-86820828D01*
X173993223Y-87185006D01*
X102260000Y-87185006D01*
X102260000Y-85639247D01*
X122488958Y-85639247D01*
X122632935Y-85944570D01*
X122990692Y-86125397D01*
X123376853Y-86232955D01*
X123776577Y-86263110D01*
X124174504Y-86214704D01*
X124555340Y-86089595D01*
X124826665Y-85944570D01*
X124970642Y-85639247D01*
X123729800Y-84398405D01*
X122488958Y-85639247D01*
X102260000Y-85639247D01*
X102260000Y-84265577D01*
X121685490Y-84265577D01*
X121733896Y-84663504D01*
X121859005Y-85044340D01*
X122004030Y-85315665D01*
X122309353Y-85459642D01*
X123550195Y-84218800D01*
X123909405Y-84218800D01*
X125150247Y-85459642D01*
X125455570Y-85315665D01*
X125636397Y-84957908D01*
X125743955Y-84571747D01*
X125774110Y-84172023D01*
X125725704Y-83774096D01*
X125600595Y-83393260D01*
X125455570Y-83121935D01*
X125150247Y-82977958D01*
X123909405Y-84218800D01*
X123550195Y-84218800D01*
X122309353Y-82977958D01*
X122004030Y-83121935D01*
X121823203Y-83479692D01*
X121715645Y-83865853D01*
X121685490Y-84265577D01*
X102260000Y-84265577D01*
X102260000Y-82798353D01*
X122488958Y-82798353D01*
X123729800Y-84039195D01*
X124970642Y-82798353D01*
X124826665Y-82493030D01*
X124468908Y-82312203D01*
X124098426Y-82209012D01*
X192563885Y-82209012D01*
X192563885Y-82580324D01*
X192636324Y-82944502D01*
X192778419Y-83287550D01*
X192984710Y-83596286D01*
X193247267Y-83858843D01*
X193556003Y-84065134D01*
X193899051Y-84207229D01*
X194263229Y-84279668D01*
X194634541Y-84279668D01*
X194998719Y-84207229D01*
X195341767Y-84065134D01*
X195650503Y-83858843D01*
X195913060Y-83596286D01*
X196119351Y-83287550D01*
X196261446Y-82944502D01*
X196333885Y-82580324D01*
X196333885Y-82209012D01*
X196261446Y-81844834D01*
X196119351Y-81501786D01*
X195913060Y-81193050D01*
X195650503Y-80930493D01*
X195341767Y-80724202D01*
X194998719Y-80582107D01*
X194634541Y-80509668D01*
X194263229Y-80509668D01*
X193899051Y-80582107D01*
X193556003Y-80724202D01*
X193247267Y-80930493D01*
X192984710Y-81193050D01*
X192778419Y-81501786D01*
X192636324Y-81844834D01*
X192563885Y-82209012D01*
X124098426Y-82209012D01*
X124082747Y-82204645D01*
X123683023Y-82174490D01*
X123285096Y-82222896D01*
X122904260Y-82348005D01*
X122632935Y-82493030D01*
X122488958Y-82798353D01*
X102260000Y-82798353D01*
X102260000Y-79318370D01*
X121694800Y-79318370D01*
X121694800Y-79719230D01*
X121773004Y-80112387D01*
X121926407Y-80482734D01*
X122149113Y-80816037D01*
X122432563Y-81099487D01*
X122765866Y-81322193D01*
X123136213Y-81475596D01*
X123529370Y-81553800D01*
X123930230Y-81553800D01*
X124323387Y-81475596D01*
X124693734Y-81322193D01*
X125027037Y-81099487D01*
X125310487Y-80816037D01*
X125533193Y-80482734D01*
X125686596Y-80112387D01*
X125764800Y-79719230D01*
X125764800Y-79318370D01*
X125686596Y-78925213D01*
X125533193Y-78554866D01*
X125310487Y-78221563D01*
X125027037Y-77938113D01*
X124693734Y-77715407D01*
X124323387Y-77562004D01*
X123930230Y-77483800D01*
X123529370Y-77483800D01*
X123136213Y-77562004D01*
X122765866Y-77715407D01*
X122432563Y-77938113D01*
X122149113Y-78221563D01*
X121926407Y-78554866D01*
X121773004Y-78925213D01*
X121694800Y-79318370D01*
X102260000Y-79318370D01*
X102260000Y-73418800D01*
X121691728Y-73418800D01*
X121691728Y-76218800D01*
X121703988Y-76343282D01*
X121740298Y-76462980D01*
X121799263Y-76573294D01*
X121878615Y-76669985D01*
X121975306Y-76749337D01*
X122085620Y-76808302D01*
X122205318Y-76844612D01*
X122329800Y-76856872D01*
X125129800Y-76856872D01*
X125254282Y-76844612D01*
X125373980Y-76808302D01*
X125484294Y-76749337D01*
X125580985Y-76669985D01*
X125660337Y-76573294D01*
X125719168Y-76463229D01*
X171120332Y-76463229D01*
X171120332Y-76834541D01*
X171192771Y-77198719D01*
X171334866Y-77541767D01*
X171541157Y-77850503D01*
X171803714Y-78113060D01*
X172112450Y-78319351D01*
X172455498Y-78461446D01*
X172819676Y-78533885D01*
X173190988Y-78533885D01*
X173555166Y-78461446D01*
X173898214Y-78319351D01*
X174206950Y-78113060D01*
X174469507Y-77850503D01*
X174675798Y-77541767D01*
X174817893Y-77198719D01*
X174890332Y-76834541D01*
X174890332Y-76613760D01*
X184564470Y-76613760D01*
X184564470Y-76985072D01*
X184636909Y-77349250D01*
X184779004Y-77692298D01*
X184985295Y-78001034D01*
X185247852Y-78263591D01*
X185556588Y-78469882D01*
X185899636Y-78611977D01*
X186263814Y-78684416D01*
X186635126Y-78684416D01*
X186999304Y-78611977D01*
X187342352Y-78469882D01*
X187651088Y-78263591D01*
X187913645Y-78001034D01*
X188119936Y-77692298D01*
X188262031Y-77349250D01*
X188334470Y-76985072D01*
X188334470Y-76613760D01*
X188262031Y-76249582D01*
X188119936Y-75906534D01*
X187913645Y-75597798D01*
X187651088Y-75335241D01*
X187342352Y-75128950D01*
X186999304Y-74986855D01*
X186635126Y-74914416D01*
X186263814Y-74914416D01*
X185899636Y-74986855D01*
X185556588Y-75128950D01*
X185247852Y-75335241D01*
X184985295Y-75597798D01*
X184779004Y-75906534D01*
X184636909Y-76249582D01*
X184564470Y-76613760D01*
X174890332Y-76613760D01*
X174890332Y-76463229D01*
X174817893Y-76099051D01*
X174675798Y-75756003D01*
X174469507Y-75447267D01*
X174206950Y-75184710D01*
X173898214Y-74978419D01*
X173555166Y-74836324D01*
X173190988Y-74763885D01*
X172819676Y-74763885D01*
X172455498Y-74836324D01*
X172112450Y-74978419D01*
X171803714Y-75184710D01*
X171541157Y-75447267D01*
X171334866Y-75756003D01*
X171192771Y-76099051D01*
X171120332Y-76463229D01*
X125719168Y-76463229D01*
X125719302Y-76462980D01*
X125755612Y-76343282D01*
X125767872Y-76218800D01*
X125767872Y-73418800D01*
X125755612Y-73294318D01*
X125719302Y-73174620D01*
X125660337Y-73064306D01*
X125580985Y-72967615D01*
X125484294Y-72888263D01*
X125373980Y-72829298D01*
X125254282Y-72792988D01*
X125129800Y-72780728D01*
X122329800Y-72780728D01*
X122205318Y-72792988D01*
X122085620Y-72829298D01*
X121975306Y-72888263D01*
X121878615Y-72967615D01*
X121799263Y-73064306D01*
X121740298Y-73174620D01*
X121703988Y-73294318D01*
X121691728Y-73418800D01*
X102260000Y-73418800D01*
X102260000Y-71487235D01*
X173993223Y-71487235D01*
X173993223Y-71858547D01*
X174065662Y-72222725D01*
X174207757Y-72565773D01*
X174414048Y-72874509D01*
X174676605Y-73137066D01*
X174985341Y-73343357D01*
X175328389Y-73485452D01*
X175692567Y-73557891D01*
X176063879Y-73557891D01*
X176428057Y-73485452D01*
X176771105Y-73343357D01*
X177079841Y-73137066D01*
X177342398Y-72874509D01*
X177548689Y-72565773D01*
X177690784Y-72222725D01*
X177763223Y-71858547D01*
X177763223Y-71487235D01*
X189690994Y-71487235D01*
X189690994Y-71858547D01*
X189763433Y-72222725D01*
X189905528Y-72565773D01*
X190111819Y-72874509D01*
X190374376Y-73137066D01*
X190683112Y-73343357D01*
X191026160Y-73485452D01*
X191390338Y-73557891D01*
X191761650Y-73557891D01*
X192125828Y-73485452D01*
X192468876Y-73343357D01*
X192777612Y-73137066D01*
X193040169Y-72874509D01*
X193246460Y-72565773D01*
X193248068Y-72561891D01*
X195253682Y-72561891D01*
X195297342Y-72566191D01*
X195341002Y-72561891D01*
X195341009Y-72561891D01*
X195471616Y-72549027D01*
X195639193Y-72498194D01*
X195647210Y-72493909D01*
X195804793Y-72462564D01*
X195993151Y-72384543D01*
X196162669Y-72271275D01*
X196306832Y-72127112D01*
X196420100Y-71957594D01*
X196498121Y-71769236D01*
X196537895Y-71569277D01*
X196537895Y-71365399D01*
X196498121Y-71165440D01*
X196420100Y-70977082D01*
X196306832Y-70807564D01*
X196162669Y-70663401D01*
X195993151Y-70550133D01*
X195804793Y-70472112D01*
X195604834Y-70432338D01*
X195400956Y-70432338D01*
X195200997Y-70472112D01*
X195012639Y-70550133D01*
X194843121Y-70663401D01*
X194722631Y-70783891D01*
X193248068Y-70783891D01*
X193246460Y-70780009D01*
X193040169Y-70471273D01*
X192777612Y-70208716D01*
X192468876Y-70002425D01*
X192125828Y-69860330D01*
X191761650Y-69787891D01*
X191390338Y-69787891D01*
X191026160Y-69860330D01*
X190683112Y-70002425D01*
X190374376Y-70208716D01*
X190111819Y-70471273D01*
X189905528Y-70780009D01*
X189763433Y-71123057D01*
X189690994Y-71487235D01*
X177763223Y-71487235D01*
X177690784Y-71123057D01*
X177548689Y-70780009D01*
X177342398Y-70471273D01*
X177079841Y-70208716D01*
X176771105Y-70002425D01*
X176428057Y-69860330D01*
X176063879Y-69787891D01*
X175692567Y-69787891D01*
X175328389Y-69860330D01*
X174985341Y-70002425D01*
X174676605Y-70208716D01*
X174414048Y-70471273D01*
X174207757Y-70780009D01*
X174065662Y-71123057D01*
X173993223Y-71487235D01*
X102260000Y-71487235D01*
X102260000Y-67550000D01*
X184711928Y-67550000D01*
X184711928Y-70050000D01*
X184724188Y-70174482D01*
X184760498Y-70294180D01*
X184819463Y-70404494D01*
X184898815Y-70501185D01*
X184995506Y-70580537D01*
X185105820Y-70639502D01*
X185225518Y-70675812D01*
X185350000Y-70688072D01*
X187850000Y-70688072D01*
X187974482Y-70675812D01*
X188094180Y-70639502D01*
X188204494Y-70580537D01*
X188301185Y-70501185D01*
X188380537Y-70404494D01*
X188439502Y-70294180D01*
X188475812Y-70174482D01*
X188488072Y-70050000D01*
X188488072Y-69689000D01*
X194676352Y-69689000D01*
X194720012Y-69693300D01*
X194763672Y-69689000D01*
X194763679Y-69689000D01*
X194894286Y-69676136D01*
X195061863Y-69625303D01*
X195216303Y-69542753D01*
X195351671Y-69431659D01*
X195379511Y-69397736D01*
X195972105Y-68805142D01*
X196021898Y-68795238D01*
X196210256Y-68717217D01*
X196379774Y-68603949D01*
X196523937Y-68459786D01*
X196637205Y-68290268D01*
X196715226Y-68101910D01*
X196755000Y-67901951D01*
X196755000Y-67698073D01*
X196715226Y-67498114D01*
X196637205Y-67309756D01*
X196523937Y-67140238D01*
X196379774Y-66996075D01*
X196210256Y-66882807D01*
X196021898Y-66804786D01*
X195821939Y-66765012D01*
X195618061Y-66765012D01*
X195418102Y-66804786D01*
X195229744Y-66882807D01*
X195060226Y-66996075D01*
X194916063Y-67140238D01*
X194802795Y-67309756D01*
X194724774Y-67498114D01*
X194714870Y-67547907D01*
X194351777Y-67911000D01*
X188488072Y-67911000D01*
X188488072Y-67550000D01*
X188475812Y-67425518D01*
X188439502Y-67305820D01*
X188380537Y-67195506D01*
X188301185Y-67098815D01*
X188204494Y-67019463D01*
X188094180Y-66960498D01*
X187974482Y-66924188D01*
X187850000Y-66911928D01*
X185350000Y-66911928D01*
X185225518Y-66924188D01*
X185105820Y-66960498D01*
X184995506Y-67019463D01*
X184898815Y-67098815D01*
X184819463Y-67195506D01*
X184760498Y-67305820D01*
X184724188Y-67425518D01*
X184711928Y-67550000D01*
X102260000Y-67550000D01*
X102260000Y-59703814D01*
X162099073Y-59703814D01*
X162159871Y-59993483D01*
X162276013Y-60265725D01*
X162443035Y-60510077D01*
X162654518Y-60717150D01*
X162902336Y-60878986D01*
X163176965Y-60989365D01*
X163239969Y-61001302D01*
X163473000Y-60880246D01*
X163473000Y-59467000D01*
X163727000Y-59467000D01*
X163727000Y-60880246D01*
X163960031Y-61001302D01*
X164023035Y-60989365D01*
X164297664Y-60878986D01*
X164545482Y-60717150D01*
X164756965Y-60510077D01*
X164870000Y-60344708D01*
X164983035Y-60510077D01*
X165194518Y-60717150D01*
X165442336Y-60878986D01*
X165716965Y-60989365D01*
X165779969Y-61001302D01*
X166013000Y-60880246D01*
X166013000Y-59467000D01*
X166267000Y-59467000D01*
X166267000Y-60880246D01*
X166500031Y-61001302D01*
X166563035Y-60989365D01*
X166837664Y-60878986D01*
X167085482Y-60717150D01*
X167296965Y-60510077D01*
X167410000Y-60344708D01*
X167523035Y-60510077D01*
X167734518Y-60717150D01*
X167982336Y-60878986D01*
X168256965Y-60989365D01*
X168319969Y-61001302D01*
X168553000Y-60880246D01*
X168553000Y-59467000D01*
X168807000Y-59467000D01*
X168807000Y-60880246D01*
X169040031Y-61001302D01*
X169103035Y-60989365D01*
X169377664Y-60878986D01*
X169625482Y-60717150D01*
X169836965Y-60510077D01*
X169950000Y-60344708D01*
X170063035Y-60510077D01*
X170274518Y-60717150D01*
X170522336Y-60878986D01*
X170796965Y-60989365D01*
X170859969Y-61001302D01*
X171093000Y-60880246D01*
X171093000Y-59467000D01*
X171347000Y-59467000D01*
X171347000Y-60880246D01*
X171580031Y-61001302D01*
X171643035Y-60989365D01*
X171917664Y-60878986D01*
X172165482Y-60717150D01*
X172376965Y-60510077D01*
X172490000Y-60344708D01*
X172603035Y-60510077D01*
X172814518Y-60717150D01*
X173062336Y-60878986D01*
X173336965Y-60989365D01*
X173399969Y-61001302D01*
X173633000Y-60880246D01*
X173633000Y-59467000D01*
X173887000Y-59467000D01*
X173887000Y-60880246D01*
X174120031Y-61001302D01*
X174183035Y-60989365D01*
X174457664Y-60878986D01*
X174705482Y-60717150D01*
X174916965Y-60510077D01*
X175083987Y-60265725D01*
X175200129Y-59993483D01*
X175260927Y-59703814D01*
X184099073Y-59703814D01*
X184159871Y-59993483D01*
X184276013Y-60265725D01*
X184443035Y-60510077D01*
X184654518Y-60717150D01*
X184902336Y-60878986D01*
X185176965Y-60989365D01*
X185239969Y-61001302D01*
X185473000Y-60880246D01*
X185473000Y-59467000D01*
X185727000Y-59467000D01*
X185727000Y-60880246D01*
X185960031Y-61001302D01*
X186023035Y-60989365D01*
X186297664Y-60878986D01*
X186545482Y-60717150D01*
X186756965Y-60510077D01*
X186870000Y-60344708D01*
X186983035Y-60510077D01*
X187194518Y-60717150D01*
X187442336Y-60878986D01*
X187716965Y-60989365D01*
X187779969Y-61001302D01*
X188013000Y-60880246D01*
X188013000Y-59467000D01*
X188267000Y-59467000D01*
X188267000Y-60880246D01*
X188500031Y-61001302D01*
X188563035Y-60989365D01*
X188837664Y-60878986D01*
X189085482Y-60717150D01*
X189296965Y-60510077D01*
X189410000Y-60344708D01*
X189523035Y-60510077D01*
X189734518Y-60717150D01*
X189982336Y-60878986D01*
X190256965Y-60989365D01*
X190319969Y-61001302D01*
X190553000Y-60880246D01*
X190553000Y-59467000D01*
X190807000Y-59467000D01*
X190807000Y-60880246D01*
X191040031Y-61001302D01*
X191103035Y-60989365D01*
X191377664Y-60878986D01*
X191625482Y-60717150D01*
X191836965Y-60510077D01*
X191950000Y-60344708D01*
X192063035Y-60510077D01*
X192274518Y-60717150D01*
X192522336Y-60878986D01*
X192796965Y-60989365D01*
X192859969Y-61001302D01*
X193093000Y-60880246D01*
X193093000Y-59467000D01*
X193347000Y-59467000D01*
X193347000Y-60880246D01*
X193580031Y-61001302D01*
X193643035Y-60989365D01*
X193917664Y-60878986D01*
X194165482Y-60717150D01*
X194376965Y-60510077D01*
X194490000Y-60344708D01*
X194603035Y-60510077D01*
X194814518Y-60717150D01*
X195062336Y-60878986D01*
X195336965Y-60989365D01*
X195399969Y-61001302D01*
X195633000Y-60880246D01*
X195633000Y-59467000D01*
X195887000Y-59467000D01*
X195887000Y-60880246D01*
X196120031Y-61001302D01*
X196183035Y-60989365D01*
X196457664Y-60878986D01*
X196705482Y-60717150D01*
X196916965Y-60510077D01*
X197083987Y-60265725D01*
X197200129Y-59993483D01*
X197260927Y-59703814D01*
X197109324Y-59467000D01*
X195887000Y-59467000D01*
X195633000Y-59467000D01*
X193347000Y-59467000D01*
X193093000Y-59467000D01*
X190807000Y-59467000D01*
X190553000Y-59467000D01*
X188267000Y-59467000D01*
X188013000Y-59467000D01*
X185727000Y-59467000D01*
X185473000Y-59467000D01*
X184250676Y-59467000D01*
X184099073Y-59703814D01*
X175260927Y-59703814D01*
X175109324Y-59467000D01*
X173887000Y-59467000D01*
X173633000Y-59467000D01*
X171347000Y-59467000D01*
X171093000Y-59467000D01*
X168807000Y-59467000D01*
X168553000Y-59467000D01*
X166267000Y-59467000D01*
X166013000Y-59467000D01*
X163727000Y-59467000D01*
X163473000Y-59467000D01*
X162250676Y-59467000D01*
X162099073Y-59703814D01*
X102260000Y-59703814D01*
X102260000Y-58900000D01*
X119091928Y-58900000D01*
X119104188Y-59024482D01*
X119140498Y-59144180D01*
X119199463Y-59254494D01*
X119278815Y-59351185D01*
X119375506Y-59430537D01*
X119485820Y-59489502D01*
X119605518Y-59525812D01*
X119730000Y-59538072D01*
X120314250Y-59535000D01*
X120473000Y-59376250D01*
X120473000Y-57927000D01*
X119253750Y-57927000D01*
X119095000Y-58085750D01*
X119091928Y-58900000D01*
X102260000Y-58900000D01*
X102260000Y-55700000D01*
X105061928Y-55700000D01*
X105074188Y-55824482D01*
X105110498Y-55944180D01*
X105169463Y-56054494D01*
X105248815Y-56151185D01*
X105345506Y-56230537D01*
X105455820Y-56289502D01*
X105474127Y-56295056D01*
X105407688Y-56361495D01*
X105239701Y-56612905D01*
X105123989Y-56892257D01*
X105065000Y-57188816D01*
X105065000Y-57491184D01*
X105123989Y-57787743D01*
X105239701Y-58067095D01*
X105407688Y-58318505D01*
X105621495Y-58532312D01*
X105872905Y-58700299D01*
X106152257Y-58816011D01*
X106448816Y-58875000D01*
X106751184Y-58875000D01*
X107047743Y-58816011D01*
X107327095Y-58700299D01*
X107578505Y-58532312D01*
X107792312Y-58318505D01*
X107960299Y-58067095D01*
X108076011Y-57787743D01*
X108135000Y-57491184D01*
X108135000Y-57188816D01*
X108076011Y-56892257D01*
X107996376Y-56700000D01*
X119091928Y-56700000D01*
X119095000Y-57514250D01*
X119253750Y-57673000D01*
X120473000Y-57673000D01*
X120473000Y-56223750D01*
X120727000Y-56223750D01*
X120727000Y-57673000D01*
X120747000Y-57673000D01*
X120747000Y-57927000D01*
X120727000Y-57927000D01*
X120727000Y-59376250D01*
X120885750Y-59535000D01*
X121470000Y-59538072D01*
X121594482Y-59525812D01*
X121714180Y-59489502D01*
X121824494Y-59430537D01*
X121921185Y-59351185D01*
X122000537Y-59254494D01*
X122059502Y-59144180D01*
X122072615Y-59100953D01*
X122299822Y-59287417D01*
X122561276Y-59427166D01*
X122844969Y-59513224D01*
X123140000Y-59542282D01*
X123435032Y-59513224D01*
X123718725Y-59427166D01*
X123980179Y-59287417D01*
X124209345Y-59099345D01*
X124397417Y-58870179D01*
X124537166Y-58608724D01*
X124623224Y-58325031D01*
X124645000Y-58103935D01*
X124645000Y-57496064D01*
X124623224Y-57274968D01*
X124537166Y-56991275D01*
X124515104Y-56949999D01*
X147591928Y-56949999D01*
X147591928Y-58650001D01*
X147608992Y-58823255D01*
X147659528Y-58989851D01*
X147741595Y-59143387D01*
X147852038Y-59277962D01*
X147986613Y-59388405D01*
X148140149Y-59470472D01*
X148306745Y-59521008D01*
X148479999Y-59538072D01*
X149720001Y-59538072D01*
X149893255Y-59521008D01*
X150059851Y-59470472D01*
X150213387Y-59388405D01*
X150347962Y-59277962D01*
X150458405Y-59143387D01*
X150516507Y-59034686D01*
X150669506Y-59190536D01*
X150914563Y-59357571D01*
X151187498Y-59473588D01*
X151279969Y-59491302D01*
X151513000Y-59370246D01*
X151513000Y-57927000D01*
X151767000Y-57927000D01*
X151767000Y-59370246D01*
X152000031Y-59491302D01*
X152092502Y-59473588D01*
X152365437Y-59357571D01*
X152610494Y-59190536D01*
X152818256Y-58978903D01*
X152980738Y-58730804D01*
X153091696Y-58455773D01*
X153146866Y-58164380D01*
X152990586Y-57927000D01*
X151767000Y-57927000D01*
X151513000Y-57927000D01*
X151493000Y-57927000D01*
X151493000Y-57673000D01*
X151513000Y-57673000D01*
X151513000Y-56229754D01*
X151767000Y-56229754D01*
X151767000Y-57673000D01*
X152990586Y-57673000D01*
X153146866Y-57435620D01*
X153091696Y-57144227D01*
X152980738Y-56869196D01*
X152818256Y-56621097D01*
X152610494Y-56409464D01*
X152365437Y-56242429D01*
X152092502Y-56126412D01*
X152000031Y-56108698D01*
X151767000Y-56229754D01*
X151513000Y-56229754D01*
X151279969Y-56108698D01*
X151187498Y-56126412D01*
X150914563Y-56242429D01*
X150669506Y-56409464D01*
X150516507Y-56565314D01*
X150458405Y-56456613D01*
X150347962Y-56322038D01*
X150213387Y-56211595D01*
X150059851Y-56129528D01*
X149893255Y-56078992D01*
X149720001Y-56061928D01*
X148479999Y-56061928D01*
X148306745Y-56078992D01*
X148140149Y-56129528D01*
X147986613Y-56211595D01*
X147852038Y-56322038D01*
X147741595Y-56456613D01*
X147659528Y-56610149D01*
X147608992Y-56776745D01*
X147591928Y-56949999D01*
X124515104Y-56949999D01*
X124397417Y-56729821D01*
X124209345Y-56500655D01*
X123980178Y-56312583D01*
X123718724Y-56172834D01*
X123435031Y-56086776D01*
X123140000Y-56057718D01*
X122844968Y-56086776D01*
X122561275Y-56172834D01*
X122299821Y-56312583D01*
X122072615Y-56499047D01*
X122059502Y-56455820D01*
X122000537Y-56345506D01*
X121921185Y-56248815D01*
X121824494Y-56169463D01*
X121714180Y-56110498D01*
X121594482Y-56074188D01*
X121470000Y-56061928D01*
X120885750Y-56065000D01*
X120727000Y-56223750D01*
X120473000Y-56223750D01*
X120314250Y-56065000D01*
X119730000Y-56061928D01*
X119605518Y-56074188D01*
X119485820Y-56110498D01*
X119375506Y-56169463D01*
X119278815Y-56248815D01*
X119199463Y-56345506D01*
X119140498Y-56455820D01*
X119104188Y-56575518D01*
X119091928Y-56700000D01*
X107996376Y-56700000D01*
X107960299Y-56612905D01*
X107792312Y-56361495D01*
X107725873Y-56295056D01*
X107744180Y-56289502D01*
X107854494Y-56230537D01*
X107951185Y-56151185D01*
X108030537Y-56054494D01*
X108070356Y-55979999D01*
X162091928Y-55979999D01*
X162091928Y-57620001D01*
X162108992Y-57793255D01*
X162159528Y-57959851D01*
X162241595Y-58113387D01*
X162352038Y-58247962D01*
X162376161Y-58267759D01*
X162276013Y-58414275D01*
X162159871Y-58686517D01*
X162099073Y-58976186D01*
X162250676Y-59213000D01*
X163473000Y-59213000D01*
X163473000Y-59193000D01*
X163727000Y-59193000D01*
X163727000Y-59213000D01*
X166013000Y-59213000D01*
X166013000Y-59193000D01*
X166267000Y-59193000D01*
X166267000Y-59213000D01*
X168553000Y-59213000D01*
X168553000Y-59193000D01*
X168807000Y-59193000D01*
X168807000Y-59213000D01*
X171093000Y-59213000D01*
X171093000Y-59193000D01*
X171347000Y-59193000D01*
X171347000Y-59213000D01*
X173633000Y-59213000D01*
X173633000Y-59193000D01*
X173887000Y-59193000D01*
X173887000Y-59213000D01*
X175109324Y-59213000D01*
X175260927Y-58976186D01*
X175200129Y-58686517D01*
X175083987Y-58414275D01*
X174916965Y-58169923D01*
X174821130Y-58076087D01*
X174829345Y-58069345D01*
X175017417Y-57840179D01*
X175157166Y-57578724D01*
X175243224Y-57295031D01*
X175265000Y-57073935D01*
X175265000Y-56526064D01*
X175243224Y-56304968D01*
X175157166Y-56021275D01*
X175017417Y-55759821D01*
X174829345Y-55530655D01*
X174600178Y-55342583D01*
X174338724Y-55202834D01*
X174055031Y-55116776D01*
X173760000Y-55087718D01*
X173464968Y-55116776D01*
X173181275Y-55202834D01*
X172919821Y-55342583D01*
X172690655Y-55530655D01*
X172502583Y-55759822D01*
X172490000Y-55783363D01*
X172477417Y-55759821D01*
X172289345Y-55530655D01*
X172060178Y-55342583D01*
X171798724Y-55202834D01*
X171515031Y-55116776D01*
X171220000Y-55087718D01*
X170924968Y-55116776D01*
X170641275Y-55202834D01*
X170379821Y-55342583D01*
X170150655Y-55530655D01*
X169962583Y-55759822D01*
X169950000Y-55783363D01*
X169937417Y-55759821D01*
X169749345Y-55530655D01*
X169520178Y-55342583D01*
X169258724Y-55202834D01*
X168975031Y-55116776D01*
X168680000Y-55087718D01*
X168384968Y-55116776D01*
X168101275Y-55202834D01*
X167839821Y-55342583D01*
X167610655Y-55530655D01*
X167422583Y-55759822D01*
X167410000Y-55783363D01*
X167397417Y-55759821D01*
X167209345Y-55530655D01*
X166980178Y-55342583D01*
X166718724Y-55202834D01*
X166435031Y-55116776D01*
X166140000Y-55087718D01*
X165844968Y-55116776D01*
X165561275Y-55202834D01*
X165299821Y-55342583D01*
X165070655Y-55530655D01*
X165016935Y-55596114D01*
X164958405Y-55486613D01*
X164847962Y-55352038D01*
X164713387Y-55241595D01*
X164559851Y-55159528D01*
X164393255Y-55108992D01*
X164220001Y-55091928D01*
X162979999Y-55091928D01*
X162806745Y-55108992D01*
X162640149Y-55159528D01*
X162486613Y-55241595D01*
X162352038Y-55352038D01*
X162241595Y-55486613D01*
X162159528Y-55640149D01*
X162108992Y-55806745D01*
X162091928Y-55979999D01*
X108070356Y-55979999D01*
X108089502Y-55944180D01*
X108125812Y-55824482D01*
X108138072Y-55700000D01*
X108135000Y-55085750D01*
X107976250Y-54927000D01*
X106727000Y-54927000D01*
X106727000Y-54947000D01*
X106473000Y-54947000D01*
X106473000Y-54927000D01*
X105223750Y-54927000D01*
X105065000Y-55085750D01*
X105061928Y-55700000D01*
X102260000Y-55700000D01*
X102260000Y-53900000D01*
X105061928Y-53900000D01*
X105065000Y-54514250D01*
X105223750Y-54673000D01*
X106473000Y-54673000D01*
X106473000Y-53423750D01*
X106727000Y-53423750D01*
X106727000Y-54673000D01*
X107976250Y-54673000D01*
X108135000Y-54514250D01*
X108136581Y-54198061D01*
X180185000Y-54198061D01*
X180185000Y-54401939D01*
X180224774Y-54601898D01*
X180302795Y-54790256D01*
X180416063Y-54959774D01*
X180560226Y-55103937D01*
X180729744Y-55217205D01*
X180918102Y-55295226D01*
X180967895Y-55305130D01*
X183060506Y-57397742D01*
X183088341Y-57431659D01*
X183223709Y-57542753D01*
X183378149Y-57625303D01*
X183472758Y-57654002D01*
X183545725Y-57676136D01*
X183562325Y-57677771D01*
X183676333Y-57689000D01*
X183676340Y-57689000D01*
X183720000Y-57693300D01*
X183763660Y-57689000D01*
X184098724Y-57689000D01*
X184108992Y-57793255D01*
X184159528Y-57959851D01*
X184241595Y-58113387D01*
X184352038Y-58247962D01*
X184376161Y-58267759D01*
X184276013Y-58414275D01*
X184159871Y-58686517D01*
X184099073Y-58976186D01*
X184250676Y-59213000D01*
X185473000Y-59213000D01*
X185473000Y-59193000D01*
X185727000Y-59193000D01*
X185727000Y-59213000D01*
X188013000Y-59213000D01*
X188013000Y-59193000D01*
X188267000Y-59193000D01*
X188267000Y-59213000D01*
X190553000Y-59213000D01*
X190553000Y-59193000D01*
X190807000Y-59193000D01*
X190807000Y-59213000D01*
X193093000Y-59213000D01*
X193093000Y-59193000D01*
X193347000Y-59193000D01*
X193347000Y-59213000D01*
X195633000Y-59213000D01*
X195633000Y-59193000D01*
X195887000Y-59193000D01*
X195887000Y-59213000D01*
X197109324Y-59213000D01*
X197260927Y-58976186D01*
X197200129Y-58686517D01*
X197083987Y-58414275D01*
X196916965Y-58169923D01*
X196821130Y-58076087D01*
X196829345Y-58069345D01*
X197017417Y-57840179D01*
X197157166Y-57578724D01*
X197243224Y-57295031D01*
X197265000Y-57073935D01*
X197265000Y-56526064D01*
X197243224Y-56304968D01*
X197157166Y-56021275D01*
X197017417Y-55759821D01*
X196829345Y-55530655D01*
X196600178Y-55342583D01*
X196338724Y-55202834D01*
X196055031Y-55116776D01*
X195760000Y-55087718D01*
X195464968Y-55116776D01*
X195181275Y-55202834D01*
X194919821Y-55342583D01*
X194690655Y-55530655D01*
X194502583Y-55759822D01*
X194490000Y-55783363D01*
X194477417Y-55759821D01*
X194289345Y-55530655D01*
X194060178Y-55342583D01*
X193798724Y-55202834D01*
X193515031Y-55116776D01*
X193220000Y-55087718D01*
X192924968Y-55116776D01*
X192641275Y-55202834D01*
X192379821Y-55342583D01*
X192150655Y-55530655D01*
X191962583Y-55759822D01*
X191950000Y-55783363D01*
X191937417Y-55759821D01*
X191749345Y-55530655D01*
X191520178Y-55342583D01*
X191258724Y-55202834D01*
X190975031Y-55116776D01*
X190680000Y-55087718D01*
X190384968Y-55116776D01*
X190101275Y-55202834D01*
X189839821Y-55342583D01*
X189610655Y-55530655D01*
X189422583Y-55759822D01*
X189410000Y-55783363D01*
X189397417Y-55759821D01*
X189209345Y-55530655D01*
X188980178Y-55342583D01*
X188718724Y-55202834D01*
X188435031Y-55116776D01*
X188140000Y-55087718D01*
X187844968Y-55116776D01*
X187561275Y-55202834D01*
X187299821Y-55342583D01*
X187070655Y-55530655D01*
X187016935Y-55596114D01*
X186958405Y-55486613D01*
X186847962Y-55352038D01*
X186713387Y-55241595D01*
X186559851Y-55159528D01*
X186393255Y-55108992D01*
X186220001Y-55091928D01*
X184979999Y-55091928D01*
X184806745Y-55108992D01*
X184640149Y-55159528D01*
X184486613Y-55241595D01*
X184352038Y-55352038D01*
X184241595Y-55486613D01*
X184159528Y-55640149D01*
X184108992Y-55806745D01*
X184098724Y-55911000D01*
X184088236Y-55911000D01*
X182225130Y-54047895D01*
X182215226Y-53998102D01*
X182137205Y-53809744D01*
X182023937Y-53640226D01*
X181879774Y-53496063D01*
X181710256Y-53382795D01*
X181521898Y-53304774D01*
X181321939Y-53265000D01*
X181118061Y-53265000D01*
X180918102Y-53304774D01*
X180729744Y-53382795D01*
X180560226Y-53496063D01*
X180416063Y-53640226D01*
X180302795Y-53809744D01*
X180224774Y-53998102D01*
X180185000Y-54198061D01*
X108136581Y-54198061D01*
X108138072Y-53900000D01*
X108125812Y-53775518D01*
X108089502Y-53655820D01*
X108030537Y-53545506D01*
X107951185Y-53448815D01*
X107854494Y-53369463D01*
X107744180Y-53310498D01*
X107624482Y-53274188D01*
X107500000Y-53261928D01*
X106885750Y-53265000D01*
X106727000Y-53423750D01*
X106473000Y-53423750D01*
X106314250Y-53265000D01*
X105700000Y-53261928D01*
X105575518Y-53274188D01*
X105455820Y-53310498D01*
X105345506Y-53369463D01*
X105248815Y-53448815D01*
X105169463Y-53545506D01*
X105110498Y-53655820D01*
X105074188Y-53775518D01*
X105061928Y-53900000D01*
X102260000Y-53900000D01*
X102260000Y-51460000D01*
X200940001Y-51460000D01*
X200940000Y-100140000D01*
M02*
