G04 #@! TF.GenerationSoftware,KiCad,Pcbnew,5.1.5*
G04 #@! TF.CreationDate,2019-12-15T20:25:27-05:00*
G04 #@! TF.ProjectId,front_panel_board,66726f6e-745f-4706-916e-656c5f626f61,0*
G04 #@! TF.SameCoordinates,Original*
G04 #@! TF.FileFunction,Copper,L1,Top*
G04 #@! TF.FilePolarity,Positive*
%FSLAX46Y46*%
G04 Gerber Fmt 4.6, Leading zero omitted, Abs format (unit mm)*
G04 Created by KiCad (PCBNEW 5.1.5) date 2019-12-15 20:25:27*
%MOMM*%
%LPD*%
G04 APERTURE LIST*
%ADD10C,2.500000*%
%ADD11R,2.500000X2.500000*%
%ADD12O,1.740000X2.140000*%
%ADD13C,0.100000*%
%ADD14O,1.740000X2.200000*%
%ADD15C,2.800000*%
%ADD16R,2.800000X2.800000*%
%ADD17C,1.800000*%
%ADD18R,1.800000X1.800000*%
%ADD19C,0.800000*%
%ADD20C,0.508000*%
%ADD21C,0.609600*%
G04 APERTURE END LIST*
D10*
X186449470Y-76799416D03*
X175878223Y-71672891D03*
X173005332Y-76648885D03*
X175878223Y-87370662D03*
X180854217Y-90243553D03*
X191575994Y-87370662D03*
X194448885Y-82394668D03*
X191575994Y-71672891D03*
D11*
X186600000Y-68800000D03*
D12*
X195760000Y-59340000D03*
X193220000Y-59340000D03*
X190680000Y-59340000D03*
X188140000Y-59340000D03*
X185600000Y-59340000D03*
X195760000Y-56800000D03*
X193220000Y-56800000D03*
X190680000Y-56800000D03*
X188140000Y-56800000D03*
G04 #@! TA.AperFunction,ComponentPad*
D13*
G36*
X186244505Y-55731204D02*
G01*
X186268773Y-55734804D01*
X186292572Y-55740765D01*
X186315671Y-55749030D01*
X186337850Y-55759520D01*
X186358893Y-55772132D01*
X186378599Y-55786747D01*
X186396777Y-55803223D01*
X186413253Y-55821401D01*
X186427868Y-55841107D01*
X186440480Y-55862150D01*
X186450970Y-55884329D01*
X186459235Y-55907428D01*
X186465196Y-55931227D01*
X186468796Y-55955495D01*
X186470000Y-55979999D01*
X186470000Y-57620001D01*
X186468796Y-57644505D01*
X186465196Y-57668773D01*
X186459235Y-57692572D01*
X186450970Y-57715671D01*
X186440480Y-57737850D01*
X186427868Y-57758893D01*
X186413253Y-57778599D01*
X186396777Y-57796777D01*
X186378599Y-57813253D01*
X186358893Y-57827868D01*
X186337850Y-57840480D01*
X186315671Y-57850970D01*
X186292572Y-57859235D01*
X186268773Y-57865196D01*
X186244505Y-57868796D01*
X186220001Y-57870000D01*
X184979999Y-57870000D01*
X184955495Y-57868796D01*
X184931227Y-57865196D01*
X184907428Y-57859235D01*
X184884329Y-57850970D01*
X184862150Y-57840480D01*
X184841107Y-57827868D01*
X184821401Y-57813253D01*
X184803223Y-57796777D01*
X184786747Y-57778599D01*
X184772132Y-57758893D01*
X184759520Y-57737850D01*
X184749030Y-57715671D01*
X184740765Y-57692572D01*
X184734804Y-57668773D01*
X184731204Y-57644505D01*
X184730000Y-57620001D01*
X184730000Y-55979999D01*
X184731204Y-55955495D01*
X184734804Y-55931227D01*
X184740765Y-55907428D01*
X184749030Y-55884329D01*
X184759520Y-55862150D01*
X184772132Y-55841107D01*
X184786747Y-55821401D01*
X184803223Y-55803223D01*
X184821401Y-55786747D01*
X184841107Y-55772132D01*
X184862150Y-55759520D01*
X184884329Y-55749030D01*
X184907428Y-55740765D01*
X184931227Y-55734804D01*
X184955495Y-55731204D01*
X184979999Y-55730000D01*
X186220001Y-55730000D01*
X186244505Y-55731204D01*
G37*
G04 #@! TD.AperFunction*
D14*
X123140000Y-57800000D03*
G04 #@! TA.AperFunction,ComponentPad*
D13*
G36*
X121244505Y-56701204D02*
G01*
X121268773Y-56704804D01*
X121292572Y-56710765D01*
X121315671Y-56719030D01*
X121337850Y-56729520D01*
X121358893Y-56742132D01*
X121378599Y-56756747D01*
X121396777Y-56773223D01*
X121413253Y-56791401D01*
X121427868Y-56811107D01*
X121440480Y-56832150D01*
X121450970Y-56854329D01*
X121459235Y-56877428D01*
X121465196Y-56901227D01*
X121468796Y-56925495D01*
X121470000Y-56949999D01*
X121470000Y-58650001D01*
X121468796Y-58674505D01*
X121465196Y-58698773D01*
X121459235Y-58722572D01*
X121450970Y-58745671D01*
X121440480Y-58767850D01*
X121427868Y-58788893D01*
X121413253Y-58808599D01*
X121396777Y-58826777D01*
X121378599Y-58843253D01*
X121358893Y-58857868D01*
X121337850Y-58870480D01*
X121315671Y-58880970D01*
X121292572Y-58889235D01*
X121268773Y-58895196D01*
X121244505Y-58898796D01*
X121220001Y-58900000D01*
X119979999Y-58900000D01*
X119955495Y-58898796D01*
X119931227Y-58895196D01*
X119907428Y-58889235D01*
X119884329Y-58880970D01*
X119862150Y-58870480D01*
X119841107Y-58857868D01*
X119821401Y-58843253D01*
X119803223Y-58826777D01*
X119786747Y-58808599D01*
X119772132Y-58788893D01*
X119759520Y-58767850D01*
X119749030Y-58745671D01*
X119740765Y-58722572D01*
X119734804Y-58698773D01*
X119731204Y-58674505D01*
X119730000Y-58650001D01*
X119730000Y-56949999D01*
X119731204Y-56925495D01*
X119734804Y-56901227D01*
X119740765Y-56877428D01*
X119749030Y-56854329D01*
X119759520Y-56832150D01*
X119772132Y-56811107D01*
X119786747Y-56791401D01*
X119803223Y-56773223D01*
X119821401Y-56756747D01*
X119841107Y-56742132D01*
X119862150Y-56729520D01*
X119884329Y-56719030D01*
X119907428Y-56710765D01*
X119931227Y-56704804D01*
X119955495Y-56701204D01*
X119979999Y-56700000D01*
X121220001Y-56700000D01*
X121244505Y-56701204D01*
G37*
G04 #@! TD.AperFunction*
G04 #@! TA.AperFunction,SMDPad,CuDef*
G36*
X141444505Y-58871204D02*
G01*
X141468773Y-58874804D01*
X141492572Y-58880765D01*
X141515671Y-58889030D01*
X141537850Y-58899520D01*
X141558893Y-58912132D01*
X141578599Y-58926747D01*
X141596777Y-58943223D01*
X141613253Y-58961401D01*
X141627868Y-58981107D01*
X141640480Y-59002150D01*
X141650970Y-59024329D01*
X141659235Y-59047428D01*
X141665196Y-59071227D01*
X141668796Y-59095495D01*
X141670000Y-59119999D01*
X141670000Y-59770001D01*
X141668796Y-59794505D01*
X141665196Y-59818773D01*
X141659235Y-59842572D01*
X141650970Y-59865671D01*
X141640480Y-59887850D01*
X141627868Y-59908893D01*
X141613253Y-59928599D01*
X141596777Y-59946777D01*
X141578599Y-59963253D01*
X141558893Y-59977868D01*
X141537850Y-59990480D01*
X141515671Y-60000970D01*
X141492572Y-60009235D01*
X141468773Y-60015196D01*
X141444505Y-60018796D01*
X141420001Y-60020000D01*
X140519999Y-60020000D01*
X140495495Y-60018796D01*
X140471227Y-60015196D01*
X140447428Y-60009235D01*
X140424329Y-60000970D01*
X140402150Y-59990480D01*
X140381107Y-59977868D01*
X140361401Y-59963253D01*
X140343223Y-59946777D01*
X140326747Y-59928599D01*
X140312132Y-59908893D01*
X140299520Y-59887850D01*
X140289030Y-59865671D01*
X140280765Y-59842572D01*
X140274804Y-59818773D01*
X140271204Y-59794505D01*
X140270000Y-59770001D01*
X140270000Y-59119999D01*
X140271204Y-59095495D01*
X140274804Y-59071227D01*
X140280765Y-59047428D01*
X140289030Y-59024329D01*
X140299520Y-59002150D01*
X140312132Y-58981107D01*
X140326747Y-58961401D01*
X140343223Y-58943223D01*
X140361401Y-58926747D01*
X140381107Y-58912132D01*
X140402150Y-58899520D01*
X140424329Y-58889030D01*
X140447428Y-58880765D01*
X140471227Y-58874804D01*
X140495495Y-58871204D01*
X140519999Y-58870000D01*
X141420001Y-58870000D01*
X141444505Y-58871204D01*
G37*
G04 #@! TD.AperFunction*
G04 #@! TA.AperFunction,SMDPad,CuDef*
G36*
X141444505Y-56821204D02*
G01*
X141468773Y-56824804D01*
X141492572Y-56830765D01*
X141515671Y-56839030D01*
X141537850Y-56849520D01*
X141558893Y-56862132D01*
X141578599Y-56876747D01*
X141596777Y-56893223D01*
X141613253Y-56911401D01*
X141627868Y-56931107D01*
X141640480Y-56952150D01*
X141650970Y-56974329D01*
X141659235Y-56997428D01*
X141665196Y-57021227D01*
X141668796Y-57045495D01*
X141670000Y-57069999D01*
X141670000Y-57720001D01*
X141668796Y-57744505D01*
X141665196Y-57768773D01*
X141659235Y-57792572D01*
X141650970Y-57815671D01*
X141640480Y-57837850D01*
X141627868Y-57858893D01*
X141613253Y-57878599D01*
X141596777Y-57896777D01*
X141578599Y-57913253D01*
X141558893Y-57927868D01*
X141537850Y-57940480D01*
X141515671Y-57950970D01*
X141492572Y-57959235D01*
X141468773Y-57965196D01*
X141444505Y-57968796D01*
X141420001Y-57970000D01*
X140519999Y-57970000D01*
X140495495Y-57968796D01*
X140471227Y-57965196D01*
X140447428Y-57959235D01*
X140424329Y-57950970D01*
X140402150Y-57940480D01*
X140381107Y-57927868D01*
X140361401Y-57913253D01*
X140343223Y-57896777D01*
X140326747Y-57878599D01*
X140312132Y-57858893D01*
X140299520Y-57837850D01*
X140289030Y-57815671D01*
X140280765Y-57792572D01*
X140274804Y-57768773D01*
X140271204Y-57744505D01*
X140270000Y-57720001D01*
X140270000Y-57069999D01*
X140271204Y-57045495D01*
X140274804Y-57021227D01*
X140280765Y-56997428D01*
X140289030Y-56974329D01*
X140299520Y-56952150D01*
X140312132Y-56931107D01*
X140326747Y-56911401D01*
X140343223Y-56893223D01*
X140361401Y-56876747D01*
X140381107Y-56862132D01*
X140402150Y-56849520D01*
X140424329Y-56839030D01*
X140447428Y-56830765D01*
X140471227Y-56824804D01*
X140495495Y-56821204D01*
X140519999Y-56820000D01*
X141420001Y-56820000D01*
X141444505Y-56821204D01*
G37*
G04 #@! TD.AperFunction*
G04 #@! TA.AperFunction,SMDPad,CuDef*
G36*
X143984505Y-58871204D02*
G01*
X144008773Y-58874804D01*
X144032572Y-58880765D01*
X144055671Y-58889030D01*
X144077850Y-58899520D01*
X144098893Y-58912132D01*
X144118599Y-58926747D01*
X144136777Y-58943223D01*
X144153253Y-58961401D01*
X144167868Y-58981107D01*
X144180480Y-59002150D01*
X144190970Y-59024329D01*
X144199235Y-59047428D01*
X144205196Y-59071227D01*
X144208796Y-59095495D01*
X144210000Y-59119999D01*
X144210000Y-59770001D01*
X144208796Y-59794505D01*
X144205196Y-59818773D01*
X144199235Y-59842572D01*
X144190970Y-59865671D01*
X144180480Y-59887850D01*
X144167868Y-59908893D01*
X144153253Y-59928599D01*
X144136777Y-59946777D01*
X144118599Y-59963253D01*
X144098893Y-59977868D01*
X144077850Y-59990480D01*
X144055671Y-60000970D01*
X144032572Y-60009235D01*
X144008773Y-60015196D01*
X143984505Y-60018796D01*
X143960001Y-60020000D01*
X143059999Y-60020000D01*
X143035495Y-60018796D01*
X143011227Y-60015196D01*
X142987428Y-60009235D01*
X142964329Y-60000970D01*
X142942150Y-59990480D01*
X142921107Y-59977868D01*
X142901401Y-59963253D01*
X142883223Y-59946777D01*
X142866747Y-59928599D01*
X142852132Y-59908893D01*
X142839520Y-59887850D01*
X142829030Y-59865671D01*
X142820765Y-59842572D01*
X142814804Y-59818773D01*
X142811204Y-59794505D01*
X142810000Y-59770001D01*
X142810000Y-59119999D01*
X142811204Y-59095495D01*
X142814804Y-59071227D01*
X142820765Y-59047428D01*
X142829030Y-59024329D01*
X142839520Y-59002150D01*
X142852132Y-58981107D01*
X142866747Y-58961401D01*
X142883223Y-58943223D01*
X142901401Y-58926747D01*
X142921107Y-58912132D01*
X142942150Y-58899520D01*
X142964329Y-58889030D01*
X142987428Y-58880765D01*
X143011227Y-58874804D01*
X143035495Y-58871204D01*
X143059999Y-58870000D01*
X143960001Y-58870000D01*
X143984505Y-58871204D01*
G37*
G04 #@! TD.AperFunction*
G04 #@! TA.AperFunction,SMDPad,CuDef*
G36*
X143984505Y-56821204D02*
G01*
X144008773Y-56824804D01*
X144032572Y-56830765D01*
X144055671Y-56839030D01*
X144077850Y-56849520D01*
X144098893Y-56862132D01*
X144118599Y-56876747D01*
X144136777Y-56893223D01*
X144153253Y-56911401D01*
X144167868Y-56931107D01*
X144180480Y-56952150D01*
X144190970Y-56974329D01*
X144199235Y-56997428D01*
X144205196Y-57021227D01*
X144208796Y-57045495D01*
X144210000Y-57069999D01*
X144210000Y-57720001D01*
X144208796Y-57744505D01*
X144205196Y-57768773D01*
X144199235Y-57792572D01*
X144190970Y-57815671D01*
X144180480Y-57837850D01*
X144167868Y-57858893D01*
X144153253Y-57878599D01*
X144136777Y-57896777D01*
X144118599Y-57913253D01*
X144098893Y-57927868D01*
X144077850Y-57940480D01*
X144055671Y-57950970D01*
X144032572Y-57959235D01*
X144008773Y-57965196D01*
X143984505Y-57968796D01*
X143960001Y-57970000D01*
X143059999Y-57970000D01*
X143035495Y-57968796D01*
X143011227Y-57965196D01*
X142987428Y-57959235D01*
X142964329Y-57950970D01*
X142942150Y-57940480D01*
X142921107Y-57927868D01*
X142901401Y-57913253D01*
X142883223Y-57896777D01*
X142866747Y-57878599D01*
X142852132Y-57858893D01*
X142839520Y-57837850D01*
X142829030Y-57815671D01*
X142820765Y-57792572D01*
X142814804Y-57768773D01*
X142811204Y-57744505D01*
X142810000Y-57720001D01*
X142810000Y-57069999D01*
X142811204Y-57045495D01*
X142814804Y-57021227D01*
X142820765Y-56997428D01*
X142829030Y-56974329D01*
X142839520Y-56952150D01*
X142852132Y-56931107D01*
X142866747Y-56911401D01*
X142883223Y-56893223D01*
X142901401Y-56876747D01*
X142921107Y-56862132D01*
X142942150Y-56849520D01*
X142964329Y-56839030D01*
X142987428Y-56830765D01*
X143011227Y-56824804D01*
X143035495Y-56821204D01*
X143059999Y-56820000D01*
X143960001Y-56820000D01*
X143984505Y-56821204D01*
G37*
G04 #@! TD.AperFunction*
D15*
X123729800Y-84218800D03*
X123729800Y-79518800D03*
D16*
X123729800Y-74818800D03*
D14*
X151640000Y-57800000D03*
G04 #@! TA.AperFunction,ComponentPad*
D13*
G36*
X149744505Y-56701204D02*
G01*
X149768773Y-56704804D01*
X149792572Y-56710765D01*
X149815671Y-56719030D01*
X149837850Y-56729520D01*
X149858893Y-56742132D01*
X149878599Y-56756747D01*
X149896777Y-56773223D01*
X149913253Y-56791401D01*
X149927868Y-56811107D01*
X149940480Y-56832150D01*
X149950970Y-56854329D01*
X149959235Y-56877428D01*
X149965196Y-56901227D01*
X149968796Y-56925495D01*
X149970000Y-56949999D01*
X149970000Y-58650001D01*
X149968796Y-58674505D01*
X149965196Y-58698773D01*
X149959235Y-58722572D01*
X149950970Y-58745671D01*
X149940480Y-58767850D01*
X149927868Y-58788893D01*
X149913253Y-58808599D01*
X149896777Y-58826777D01*
X149878599Y-58843253D01*
X149858893Y-58857868D01*
X149837850Y-58870480D01*
X149815671Y-58880970D01*
X149792572Y-58889235D01*
X149768773Y-58895196D01*
X149744505Y-58898796D01*
X149720001Y-58900000D01*
X148479999Y-58900000D01*
X148455495Y-58898796D01*
X148431227Y-58895196D01*
X148407428Y-58889235D01*
X148384329Y-58880970D01*
X148362150Y-58870480D01*
X148341107Y-58857868D01*
X148321401Y-58843253D01*
X148303223Y-58826777D01*
X148286747Y-58808599D01*
X148272132Y-58788893D01*
X148259520Y-58767850D01*
X148249030Y-58745671D01*
X148240765Y-58722572D01*
X148234804Y-58698773D01*
X148231204Y-58674505D01*
X148230000Y-58650001D01*
X148230000Y-56949999D01*
X148231204Y-56925495D01*
X148234804Y-56901227D01*
X148240765Y-56877428D01*
X148249030Y-56854329D01*
X148259520Y-56832150D01*
X148272132Y-56811107D01*
X148286747Y-56791401D01*
X148303223Y-56773223D01*
X148321401Y-56756747D01*
X148341107Y-56742132D01*
X148362150Y-56729520D01*
X148384329Y-56719030D01*
X148407428Y-56710765D01*
X148431227Y-56704804D01*
X148455495Y-56701204D01*
X148479999Y-56700000D01*
X149720001Y-56700000D01*
X149744505Y-56701204D01*
G37*
G04 #@! TD.AperFunction*
G04 #@! TA.AperFunction,ComponentPad*
G36*
X164244505Y-55731204D02*
G01*
X164268773Y-55734804D01*
X164292572Y-55740765D01*
X164315671Y-55749030D01*
X164337850Y-55759520D01*
X164358893Y-55772132D01*
X164378599Y-55786747D01*
X164396777Y-55803223D01*
X164413253Y-55821401D01*
X164427868Y-55841107D01*
X164440480Y-55862150D01*
X164450970Y-55884329D01*
X164459235Y-55907428D01*
X164465196Y-55931227D01*
X164468796Y-55955495D01*
X164470000Y-55979999D01*
X164470000Y-57620001D01*
X164468796Y-57644505D01*
X164465196Y-57668773D01*
X164459235Y-57692572D01*
X164450970Y-57715671D01*
X164440480Y-57737850D01*
X164427868Y-57758893D01*
X164413253Y-57778599D01*
X164396777Y-57796777D01*
X164378599Y-57813253D01*
X164358893Y-57827868D01*
X164337850Y-57840480D01*
X164315671Y-57850970D01*
X164292572Y-57859235D01*
X164268773Y-57865196D01*
X164244505Y-57868796D01*
X164220001Y-57870000D01*
X162979999Y-57870000D01*
X162955495Y-57868796D01*
X162931227Y-57865196D01*
X162907428Y-57859235D01*
X162884329Y-57850970D01*
X162862150Y-57840480D01*
X162841107Y-57827868D01*
X162821401Y-57813253D01*
X162803223Y-57796777D01*
X162786747Y-57778599D01*
X162772132Y-57758893D01*
X162759520Y-57737850D01*
X162749030Y-57715671D01*
X162740765Y-57692572D01*
X162734804Y-57668773D01*
X162731204Y-57644505D01*
X162730000Y-57620001D01*
X162730000Y-55979999D01*
X162731204Y-55955495D01*
X162734804Y-55931227D01*
X162740765Y-55907428D01*
X162749030Y-55884329D01*
X162759520Y-55862150D01*
X162772132Y-55841107D01*
X162786747Y-55821401D01*
X162803223Y-55803223D01*
X162821401Y-55786747D01*
X162841107Y-55772132D01*
X162862150Y-55759520D01*
X162884329Y-55749030D01*
X162907428Y-55740765D01*
X162931227Y-55734804D01*
X162955495Y-55731204D01*
X162979999Y-55730000D01*
X164220001Y-55730000D01*
X164244505Y-55731204D01*
G37*
G04 #@! TD.AperFunction*
D12*
X166140000Y-56800000D03*
X168680000Y-56800000D03*
X171220000Y-56800000D03*
X173760000Y-56800000D03*
X163600000Y-59340000D03*
X166140000Y-59340000D03*
X168680000Y-59340000D03*
X171220000Y-59340000D03*
X173760000Y-59340000D03*
G04 #@! TA.AperFunction,SMDPad,CuDef*
D13*
G36*
X107035779Y-62326144D02*
G01*
X107058834Y-62329563D01*
X107081443Y-62335227D01*
X107103387Y-62343079D01*
X107124457Y-62353044D01*
X107144448Y-62365026D01*
X107163168Y-62378910D01*
X107180438Y-62394562D01*
X107196090Y-62411832D01*
X107209974Y-62430552D01*
X107221956Y-62450543D01*
X107231921Y-62471613D01*
X107239773Y-62493557D01*
X107245437Y-62516166D01*
X107248856Y-62539221D01*
X107250000Y-62562500D01*
X107250000Y-63037500D01*
X107248856Y-63060779D01*
X107245437Y-63083834D01*
X107239773Y-63106443D01*
X107231921Y-63128387D01*
X107221956Y-63149457D01*
X107209974Y-63169448D01*
X107196090Y-63188168D01*
X107180438Y-63205438D01*
X107163168Y-63221090D01*
X107144448Y-63234974D01*
X107124457Y-63246956D01*
X107103387Y-63256921D01*
X107081443Y-63264773D01*
X107058834Y-63270437D01*
X107035779Y-63273856D01*
X107012500Y-63275000D01*
X106437500Y-63275000D01*
X106414221Y-63273856D01*
X106391166Y-63270437D01*
X106368557Y-63264773D01*
X106346613Y-63256921D01*
X106325543Y-63246956D01*
X106305552Y-63234974D01*
X106286832Y-63221090D01*
X106269562Y-63205438D01*
X106253910Y-63188168D01*
X106240026Y-63169448D01*
X106228044Y-63149457D01*
X106218079Y-63128387D01*
X106210227Y-63106443D01*
X106204563Y-63083834D01*
X106201144Y-63060779D01*
X106200000Y-63037500D01*
X106200000Y-62562500D01*
X106201144Y-62539221D01*
X106204563Y-62516166D01*
X106210227Y-62493557D01*
X106218079Y-62471613D01*
X106228044Y-62450543D01*
X106240026Y-62430552D01*
X106253910Y-62411832D01*
X106269562Y-62394562D01*
X106286832Y-62378910D01*
X106305552Y-62365026D01*
X106325543Y-62353044D01*
X106346613Y-62343079D01*
X106368557Y-62335227D01*
X106391166Y-62329563D01*
X106414221Y-62326144D01*
X106437500Y-62325000D01*
X107012500Y-62325000D01*
X107035779Y-62326144D01*
G37*
G04 #@! TD.AperFunction*
G04 #@! TA.AperFunction,SMDPad,CuDef*
G36*
X108785779Y-62326144D02*
G01*
X108808834Y-62329563D01*
X108831443Y-62335227D01*
X108853387Y-62343079D01*
X108874457Y-62353044D01*
X108894448Y-62365026D01*
X108913168Y-62378910D01*
X108930438Y-62394562D01*
X108946090Y-62411832D01*
X108959974Y-62430552D01*
X108971956Y-62450543D01*
X108981921Y-62471613D01*
X108989773Y-62493557D01*
X108995437Y-62516166D01*
X108998856Y-62539221D01*
X109000000Y-62562500D01*
X109000000Y-63037500D01*
X108998856Y-63060779D01*
X108995437Y-63083834D01*
X108989773Y-63106443D01*
X108981921Y-63128387D01*
X108971956Y-63149457D01*
X108959974Y-63169448D01*
X108946090Y-63188168D01*
X108930438Y-63205438D01*
X108913168Y-63221090D01*
X108894448Y-63234974D01*
X108874457Y-63246956D01*
X108853387Y-63256921D01*
X108831443Y-63264773D01*
X108808834Y-63270437D01*
X108785779Y-63273856D01*
X108762500Y-63275000D01*
X108187500Y-63275000D01*
X108164221Y-63273856D01*
X108141166Y-63270437D01*
X108118557Y-63264773D01*
X108096613Y-63256921D01*
X108075543Y-63246956D01*
X108055552Y-63234974D01*
X108036832Y-63221090D01*
X108019562Y-63205438D01*
X108003910Y-63188168D01*
X107990026Y-63169448D01*
X107978044Y-63149457D01*
X107968079Y-63128387D01*
X107960227Y-63106443D01*
X107954563Y-63083834D01*
X107951144Y-63060779D01*
X107950000Y-63037500D01*
X107950000Y-62562500D01*
X107951144Y-62539221D01*
X107954563Y-62516166D01*
X107960227Y-62493557D01*
X107968079Y-62471613D01*
X107978044Y-62450543D01*
X107990026Y-62430552D01*
X108003910Y-62411832D01*
X108019562Y-62394562D01*
X108036832Y-62378910D01*
X108055552Y-62365026D01*
X108075543Y-62353044D01*
X108096613Y-62343079D01*
X108118557Y-62335227D01*
X108141166Y-62329563D01*
X108164221Y-62326144D01*
X108187500Y-62325000D01*
X108762500Y-62325000D01*
X108785779Y-62326144D01*
G37*
G04 #@! TD.AperFunction*
D17*
X106600000Y-57340000D03*
D18*
X106600000Y-54800000D03*
D19*
X195502895Y-71467338D03*
X195720000Y-67800012D03*
X181220000Y-54300000D03*
D20*
X106725000Y-57465000D02*
X106600000Y-57340000D01*
X106725000Y-62800000D02*
X106725000Y-57465000D01*
X106600000Y-57340000D02*
X112840000Y-57340000D01*
X112840000Y-57340000D02*
X116840000Y-53340000D01*
X120910000Y-53340000D02*
X123140000Y-55570000D01*
X123140000Y-55570000D02*
X123140000Y-55800000D01*
X116840000Y-53340000D02*
X120910000Y-53340000D01*
X123140000Y-57800000D02*
X123140000Y-55570000D01*
X143510000Y-57395000D02*
X140970000Y-57395000D01*
X140970000Y-57395000D02*
X134375000Y-57395000D01*
X128970000Y-62800000D02*
X108475000Y-62800000D01*
X134375000Y-57395000D02*
X128970000Y-62800000D01*
X148695000Y-57395000D02*
X149100000Y-57800000D01*
X143510000Y-57395000D02*
X148695000Y-57395000D01*
X200220000Y-59300000D02*
X197720000Y-56800000D01*
X200220000Y-81300000D02*
X200220000Y-59300000D01*
X191575994Y-87370662D02*
X194149338Y-87370662D01*
X197720000Y-56800000D02*
X195760000Y-56800000D01*
X194149338Y-87370662D02*
X200220000Y-81300000D01*
X191575994Y-77823897D02*
X191575994Y-85602896D01*
X176811989Y-59851989D02*
X176811989Y-66176110D01*
X183527868Y-72891989D02*
X186644086Y-72891989D01*
X173760000Y-56800000D02*
X176811989Y-59851989D01*
X176811989Y-66176110D02*
X183527868Y-72891989D01*
X186644086Y-72891989D02*
X191575994Y-77823897D01*
X191575994Y-85602896D02*
X191575994Y-87370662D01*
X194448885Y-80626902D02*
X194448885Y-82394668D01*
X188935880Y-64799999D02*
X194448885Y-70313004D01*
X183151757Y-64799999D02*
X188935880Y-64799999D01*
X180959675Y-62607917D02*
X183151757Y-64799999D01*
X191206011Y-53208011D02*
X183811989Y-53208011D01*
X193220000Y-55222000D02*
X191206011Y-53208011D01*
X193220000Y-56800000D02*
X193220000Y-55222000D01*
X194448885Y-70313004D02*
X194448885Y-80626902D01*
X183811989Y-53208011D02*
X180959675Y-56060325D01*
X180959675Y-56060325D02*
X180959675Y-62607917D01*
X178220000Y-58904725D02*
X174115275Y-54800000D01*
X171220000Y-55222000D02*
X171220000Y-56800000D01*
X194448885Y-79028885D02*
X187403978Y-71983978D01*
X174115275Y-54800000D02*
X171642000Y-54800000D01*
X194448885Y-82394668D02*
X194448885Y-79028885D01*
X183903978Y-71983978D02*
X178220000Y-66300000D01*
X171642000Y-54800000D02*
X171220000Y-55222000D01*
X187403978Y-71983978D02*
X183903978Y-71983978D01*
X178220000Y-66300000D02*
X178220000Y-58904725D01*
X181867686Y-62231807D02*
X183343890Y-63708011D01*
X189128011Y-63708011D02*
X195502895Y-70082895D01*
X183343890Y-63708011D02*
X189128011Y-63708011D01*
X195502895Y-70901653D02*
X195502895Y-71467338D01*
X190680000Y-56800000D02*
X190680000Y-55222000D01*
X184188098Y-54116022D02*
X181867686Y-56436434D01*
X181867686Y-56436434D02*
X181867686Y-62231807D01*
X189574022Y-54116022D02*
X184188098Y-54116022D01*
X190680000Y-55222000D02*
X189574022Y-54116022D01*
X195502895Y-70082895D02*
X195502895Y-70901653D01*
X188183661Y-66616021D02*
X182271132Y-66616021D01*
X174491385Y-53891989D02*
X170010011Y-53891989D01*
X190325995Y-70422892D02*
X190325995Y-68758355D01*
X191575994Y-71672891D02*
X190325995Y-70422892D01*
X168680000Y-55222000D02*
X168680000Y-56800000D01*
X182271132Y-66616021D02*
X179128011Y-63472900D01*
X190325995Y-68758355D02*
X188183661Y-66616021D01*
X179128011Y-63472900D02*
X179128011Y-58528615D01*
X170010011Y-53891989D02*
X168680000Y-55222000D01*
X179128011Y-58528615D02*
X174491385Y-53891989D01*
X182775697Y-61855697D02*
X183720000Y-62800000D01*
X183720000Y-62800000D02*
X190719988Y-62800000D01*
X188140000Y-56220000D02*
X186944033Y-55024033D01*
X188140000Y-56800000D02*
X188140000Y-56220000D01*
X190719988Y-62800000D02*
X195320001Y-67400013D01*
X182775697Y-56812543D02*
X182775697Y-61855697D01*
X195320001Y-67400013D02*
X195720000Y-67800012D01*
X186944033Y-55024033D02*
X184564207Y-55024033D01*
X184564207Y-55024033D02*
X182775697Y-56812543D01*
X193479995Y-70628235D02*
X188559771Y-65708010D01*
X190504120Y-73800000D02*
X192720000Y-73800000D01*
X192720000Y-73800000D02*
X193479995Y-73040005D01*
X168378022Y-52983978D02*
X166140000Y-55222000D01*
X188559771Y-65708010D02*
X182647242Y-65708010D01*
X166140000Y-55222000D02*
X166140000Y-56800000D01*
X180036022Y-57438696D02*
X175581304Y-52983978D01*
X175581304Y-52983978D02*
X168378022Y-52983978D01*
X182647242Y-65708010D02*
X180036022Y-63096790D01*
X180036022Y-63096790D02*
X180036022Y-57438696D01*
X186600000Y-69895880D02*
X190504120Y-73800000D01*
X193479995Y-73040005D02*
X193479995Y-70628235D01*
X186600000Y-68800000D02*
X186600000Y-69895880D01*
X171220000Y-79300000D02*
X183948886Y-79300000D01*
X162720000Y-70800000D02*
X171220000Y-79300000D01*
X183948886Y-79300000D02*
X186449470Y-76799416D01*
X144210000Y-59445000D02*
X146565000Y-61800000D01*
X143510000Y-59445000D02*
X144210000Y-59445000D01*
X146565000Y-61800000D02*
X156720000Y-61800000D01*
X162720000Y-67800000D02*
X162720000Y-70800000D01*
X156720000Y-61800000D02*
X162720000Y-67800000D01*
X178995967Y-52075967D02*
X180820001Y-53900001D01*
X163600000Y-55730000D02*
X167254033Y-52075967D01*
X180820001Y-53900001D02*
X181220000Y-54300000D01*
X163600000Y-56800000D02*
X163600000Y-55730000D01*
X167254033Y-52075967D02*
X178995967Y-52075967D01*
X161720000Y-57810000D02*
X162730000Y-56800000D01*
X161720000Y-61800000D02*
X161720000Y-57810000D01*
X188720000Y-76252024D02*
X186267976Y-73800000D01*
X126511000Y-82300000D02*
X185720000Y-82300000D01*
X173720000Y-73800000D02*
X161720000Y-61800000D01*
X162730000Y-56800000D02*
X163600000Y-56800000D01*
X188720000Y-79300000D02*
X188720000Y-76252024D01*
X123729800Y-79518800D02*
X126511000Y-82300000D01*
X185720000Y-82300000D02*
X188720000Y-79300000D01*
X186267976Y-73800000D02*
X173720000Y-73800000D01*
D21*
X140270000Y-59445000D02*
X140970000Y-59445000D01*
X137094000Y-59445000D02*
X140270000Y-59445000D01*
X123729800Y-72809200D02*
X137094000Y-59445000D01*
X123729800Y-74818800D02*
X123729800Y-72809200D01*
M02*
