G04 #@! TF.GenerationSoftware,KiCad,Pcbnew,5.1.5*
G04 #@! TF.CreationDate,2019-12-15T20:25:27-05:00*
G04 #@! TF.ProjectId,front_panel_board,66726f6e-745f-4706-916e-656c5f626f61,0*
G04 #@! TF.SameCoordinates,Original*
G04 #@! TF.FileFunction,Soldermask,Bot*
G04 #@! TF.FilePolarity,Negative*
%FSLAX46Y46*%
G04 Gerber Fmt 4.6, Leading zero omitted, Abs format (unit mm)*
G04 Created by KiCad (PCBNEW 5.1.5) date 2019-12-15 20:25:27*
%MOMM*%
%LPD*%
G04 APERTURE LIST*
%ADD10C,0.010000*%
%ADD11C,0.100000*%
G04 APERTURE END LIST*
D10*
G36*
X140184017Y-92744870D02*
G01*
X140117373Y-92751962D01*
X140054466Y-92765651D01*
X139997671Y-92785938D01*
X139955964Y-92808374D01*
X139916564Y-92838597D01*
X139880272Y-92874962D01*
X139851130Y-92913313D01*
X139846351Y-92921135D01*
X139824223Y-92968132D01*
X139806752Y-93023908D01*
X139794503Y-93085536D01*
X139788041Y-93150087D01*
X139787931Y-93214633D01*
X139788346Y-93221836D01*
X139797809Y-93301600D01*
X139815488Y-93372109D01*
X139841524Y-93433524D01*
X139876057Y-93486004D01*
X139919226Y-93529707D01*
X139971172Y-93564792D01*
X140032036Y-93591419D01*
X140101956Y-93609745D01*
X140135183Y-93615160D01*
X140194486Y-93620173D01*
X140257065Y-93620147D01*
X140315646Y-93615086D01*
X140316118Y-93615020D01*
X140389360Y-93599793D01*
X140453678Y-93575973D01*
X140509151Y-93543480D01*
X140555855Y-93502235D01*
X140593868Y-93452161D01*
X140623269Y-93393178D01*
X140644135Y-93325206D01*
X140653667Y-93272512D01*
X140658995Y-93206408D01*
X140657624Y-93139109D01*
X140649966Y-93073218D01*
X140636437Y-93011339D01*
X140617451Y-92956077D01*
X140596842Y-92915451D01*
X140572450Y-92882353D01*
X140540709Y-92848897D01*
X140505801Y-92819285D01*
X140490237Y-92808374D01*
X140440504Y-92782478D01*
X140382642Y-92763180D01*
X140319025Y-92750479D01*
X140252025Y-92744376D01*
X140184017Y-92744870D01*
G37*
X140184017Y-92744870D02*
X140117373Y-92751962D01*
X140054466Y-92765651D01*
X139997671Y-92785938D01*
X139955964Y-92808374D01*
X139916564Y-92838597D01*
X139880272Y-92874962D01*
X139851130Y-92913313D01*
X139846351Y-92921135D01*
X139824223Y-92968132D01*
X139806752Y-93023908D01*
X139794503Y-93085536D01*
X139788041Y-93150087D01*
X139787931Y-93214633D01*
X139788346Y-93221836D01*
X139797809Y-93301600D01*
X139815488Y-93372109D01*
X139841524Y-93433524D01*
X139876057Y-93486004D01*
X139919226Y-93529707D01*
X139971172Y-93564792D01*
X140032036Y-93591419D01*
X140101956Y-93609745D01*
X140135183Y-93615160D01*
X140194486Y-93620173D01*
X140257065Y-93620147D01*
X140315646Y-93615086D01*
X140316118Y-93615020D01*
X140389360Y-93599793D01*
X140453678Y-93575973D01*
X140509151Y-93543480D01*
X140555855Y-93502235D01*
X140593868Y-93452161D01*
X140623269Y-93393178D01*
X140644135Y-93325206D01*
X140653667Y-93272512D01*
X140658995Y-93206408D01*
X140657624Y-93139109D01*
X140649966Y-93073218D01*
X140636437Y-93011339D01*
X140617451Y-92956077D01*
X140596842Y-92915451D01*
X140572450Y-92882353D01*
X140540709Y-92848897D01*
X140505801Y-92819285D01*
X140490237Y-92808374D01*
X140440504Y-92782478D01*
X140382642Y-92763180D01*
X140319025Y-92750479D01*
X140252025Y-92744376D01*
X140184017Y-92744870D01*
G36*
X139493586Y-93815690D02*
G01*
X139456087Y-93840026D01*
X139422162Y-93873278D01*
X139395330Y-93911959D01*
X139394135Y-93914166D01*
X139379741Y-93941137D01*
X139376425Y-95283691D01*
X139736309Y-95283691D01*
X139736309Y-96815380D01*
X140709893Y-96815380D01*
X140709893Y-95283691D01*
X141069777Y-95283691D01*
X141068119Y-94612414D01*
X141066460Y-93941137D01*
X141052303Y-93912698D01*
X141028253Y-93876148D01*
X140995699Y-93843348D01*
X140958541Y-93818099D01*
X140951739Y-93814684D01*
X140917632Y-93798510D01*
X139528570Y-93798510D01*
X139493586Y-93815690D01*
G37*
X139493586Y-93815690D02*
X139456087Y-93840026D01*
X139422162Y-93873278D01*
X139395330Y-93911959D01*
X139394135Y-93914166D01*
X139379741Y-93941137D01*
X139376425Y-95283691D01*
X139736309Y-95283691D01*
X139736309Y-96815380D01*
X140709893Y-96815380D01*
X140709893Y-95283691D01*
X141069777Y-95283691D01*
X141068119Y-94612414D01*
X141066460Y-93941137D01*
X141052303Y-93912698D01*
X141028253Y-93876148D01*
X140995699Y-93843348D01*
X140958541Y-93818099D01*
X140951739Y-93814684D01*
X140917632Y-93798510D01*
X139528570Y-93798510D01*
X139493586Y-93815690D01*
G36*
X145818713Y-93806995D02*
G01*
X145760283Y-93811648D01*
X145709403Y-93818648D01*
X145707351Y-93819017D01*
X145601756Y-93843454D01*
X145504507Y-93876952D01*
X145415241Y-93919743D01*
X145333592Y-93972058D01*
X145259198Y-94034129D01*
X145191695Y-94106189D01*
X145133177Y-94184768D01*
X145118460Y-94207657D01*
X145106721Y-94227510D01*
X145099529Y-94241587D01*
X145098044Y-94246165D01*
X145101732Y-94251119D01*
X145113647Y-94259878D01*
X145134293Y-94272733D01*
X145164172Y-94289976D01*
X145203786Y-94311900D01*
X145253637Y-94338795D01*
X145298760Y-94362783D01*
X145500298Y-94469398D01*
X145515973Y-94440912D01*
X145555521Y-94379022D01*
X145600734Y-94327641D01*
X145652919Y-94285667D01*
X145713383Y-94251997D01*
X145763848Y-94231909D01*
X145784428Y-94226136D01*
X145807613Y-94222603D01*
X145836809Y-94220951D01*
X145869268Y-94220759D01*
X145939567Y-94225279D01*
X146001432Y-94237965D01*
X146056165Y-94259302D01*
X146105071Y-94289775D01*
X146142119Y-94322303D01*
X146181343Y-94367743D01*
X146213555Y-94418625D01*
X146239060Y-94475946D01*
X146258166Y-94540704D01*
X146271178Y-94613894D01*
X146278403Y-94696515D01*
X146280223Y-94772094D01*
X146277155Y-94865320D01*
X146267673Y-94948724D01*
X146251475Y-95023280D01*
X146228256Y-95089959D01*
X146197712Y-95149735D01*
X146159540Y-95203579D01*
X146137555Y-95228520D01*
X146091341Y-95268782D01*
X146038294Y-95300008D01*
X145980074Y-95322199D01*
X145918343Y-95335356D01*
X145854763Y-95339478D01*
X145790995Y-95334566D01*
X145728701Y-95320620D01*
X145669543Y-95297640D01*
X145615182Y-95265628D01*
X145571060Y-95228423D01*
X145553189Y-95208710D01*
X145533871Y-95184396D01*
X145514735Y-95157921D01*
X145497409Y-95131721D01*
X145483522Y-95108237D01*
X145474704Y-95089906D01*
X145472393Y-95080732D01*
X145468506Y-95073437D01*
X145466152Y-95072851D01*
X145459714Y-95075501D01*
X145443762Y-95082934D01*
X145419869Y-95094371D01*
X145389607Y-95109037D01*
X145354548Y-95126154D01*
X145316265Y-95144946D01*
X145276330Y-95164634D01*
X145236316Y-95184443D01*
X145197796Y-95203595D01*
X145162341Y-95221314D01*
X145131525Y-95236821D01*
X145106919Y-95249341D01*
X145090097Y-95258096D01*
X145082631Y-95262309D01*
X145082477Y-95262434D01*
X145084104Y-95268779D01*
X145091769Y-95283029D01*
X145104118Y-95303128D01*
X145119794Y-95327024D01*
X145137442Y-95352663D01*
X145155707Y-95377991D01*
X145173233Y-95400956D01*
X145177139Y-95405839D01*
X145248457Y-95484398D01*
X145327814Y-95554145D01*
X145414150Y-95614487D01*
X145506404Y-95664834D01*
X145603517Y-95704596D01*
X145704428Y-95733183D01*
X145791753Y-95748175D01*
X145835191Y-95751867D01*
X145886303Y-95753705D01*
X145940497Y-95753683D01*
X145993185Y-95751799D01*
X146036699Y-95748384D01*
X146145085Y-95731217D01*
X146247094Y-95703462D01*
X146342662Y-95665148D01*
X146431724Y-95616306D01*
X146514216Y-95556966D01*
X146579526Y-95497888D01*
X146644569Y-95424886D01*
X146699856Y-95345594D01*
X146745647Y-95259453D01*
X146782201Y-95165901D01*
X146809778Y-95064378D01*
X146827628Y-94962076D01*
X146831696Y-94920980D01*
X146834448Y-94870983D01*
X146835886Y-94815514D01*
X146836007Y-94758002D01*
X146834814Y-94701879D01*
X146832305Y-94650574D01*
X146828481Y-94607518D01*
X146827612Y-94600599D01*
X146807442Y-94490986D01*
X146777065Y-94387844D01*
X146736659Y-94291495D01*
X146686400Y-94202260D01*
X146626465Y-94120459D01*
X146557030Y-94046415D01*
X146492486Y-93991213D01*
X146419638Y-93939548D01*
X146346307Y-93897495D01*
X146269634Y-93863772D01*
X146186764Y-93837095D01*
X146109037Y-93818945D01*
X146062176Y-93811857D01*
X146006425Y-93807119D01*
X145945072Y-93804730D01*
X145881405Y-93804689D01*
X145818713Y-93806995D01*
G37*
X145818713Y-93806995D02*
X145760283Y-93811648D01*
X145709403Y-93818648D01*
X145707351Y-93819017D01*
X145601756Y-93843454D01*
X145504507Y-93876952D01*
X145415241Y-93919743D01*
X145333592Y-93972058D01*
X145259198Y-94034129D01*
X145191695Y-94106189D01*
X145133177Y-94184768D01*
X145118460Y-94207657D01*
X145106721Y-94227510D01*
X145099529Y-94241587D01*
X145098044Y-94246165D01*
X145101732Y-94251119D01*
X145113647Y-94259878D01*
X145134293Y-94272733D01*
X145164172Y-94289976D01*
X145203786Y-94311900D01*
X145253637Y-94338795D01*
X145298760Y-94362783D01*
X145500298Y-94469398D01*
X145515973Y-94440912D01*
X145555521Y-94379022D01*
X145600734Y-94327641D01*
X145652919Y-94285667D01*
X145713383Y-94251997D01*
X145763848Y-94231909D01*
X145784428Y-94226136D01*
X145807613Y-94222603D01*
X145836809Y-94220951D01*
X145869268Y-94220759D01*
X145939567Y-94225279D01*
X146001432Y-94237965D01*
X146056165Y-94259302D01*
X146105071Y-94289775D01*
X146142119Y-94322303D01*
X146181343Y-94367743D01*
X146213555Y-94418625D01*
X146239060Y-94475946D01*
X146258166Y-94540704D01*
X146271178Y-94613894D01*
X146278403Y-94696515D01*
X146280223Y-94772094D01*
X146277155Y-94865320D01*
X146267673Y-94948724D01*
X146251475Y-95023280D01*
X146228256Y-95089959D01*
X146197712Y-95149735D01*
X146159540Y-95203579D01*
X146137555Y-95228520D01*
X146091341Y-95268782D01*
X146038294Y-95300008D01*
X145980074Y-95322199D01*
X145918343Y-95335356D01*
X145854763Y-95339478D01*
X145790995Y-95334566D01*
X145728701Y-95320620D01*
X145669543Y-95297640D01*
X145615182Y-95265628D01*
X145571060Y-95228423D01*
X145553189Y-95208710D01*
X145533871Y-95184396D01*
X145514735Y-95157921D01*
X145497409Y-95131721D01*
X145483522Y-95108237D01*
X145474704Y-95089906D01*
X145472393Y-95080732D01*
X145468506Y-95073437D01*
X145466152Y-95072851D01*
X145459714Y-95075501D01*
X145443762Y-95082934D01*
X145419869Y-95094371D01*
X145389607Y-95109037D01*
X145354548Y-95126154D01*
X145316265Y-95144946D01*
X145276330Y-95164634D01*
X145236316Y-95184443D01*
X145197796Y-95203595D01*
X145162341Y-95221314D01*
X145131525Y-95236821D01*
X145106919Y-95249341D01*
X145090097Y-95258096D01*
X145082631Y-95262309D01*
X145082477Y-95262434D01*
X145084104Y-95268779D01*
X145091769Y-95283029D01*
X145104118Y-95303128D01*
X145119794Y-95327024D01*
X145137442Y-95352663D01*
X145155707Y-95377991D01*
X145173233Y-95400956D01*
X145177139Y-95405839D01*
X145248457Y-95484398D01*
X145327814Y-95554145D01*
X145414150Y-95614487D01*
X145506404Y-95664834D01*
X145603517Y-95704596D01*
X145704428Y-95733183D01*
X145791753Y-95748175D01*
X145835191Y-95751867D01*
X145886303Y-95753705D01*
X145940497Y-95753683D01*
X145993185Y-95751799D01*
X146036699Y-95748384D01*
X146145085Y-95731217D01*
X146247094Y-95703462D01*
X146342662Y-95665148D01*
X146431724Y-95616306D01*
X146514216Y-95556966D01*
X146579526Y-95497888D01*
X146644569Y-95424886D01*
X146699856Y-95345594D01*
X146745647Y-95259453D01*
X146782201Y-95165901D01*
X146809778Y-95064378D01*
X146827628Y-94962076D01*
X146831696Y-94920980D01*
X146834448Y-94870983D01*
X146835886Y-94815514D01*
X146836007Y-94758002D01*
X146834814Y-94701879D01*
X146832305Y-94650574D01*
X146828481Y-94607518D01*
X146827612Y-94600599D01*
X146807442Y-94490986D01*
X146777065Y-94387844D01*
X146736659Y-94291495D01*
X146686400Y-94202260D01*
X146626465Y-94120459D01*
X146557030Y-94046415D01*
X146492486Y-93991213D01*
X146419638Y-93939548D01*
X146346307Y-93897495D01*
X146269634Y-93863772D01*
X146186764Y-93837095D01*
X146109037Y-93818945D01*
X146062176Y-93811857D01*
X146006425Y-93807119D01*
X145945072Y-93804730D01*
X145881405Y-93804689D01*
X145818713Y-93806995D01*
G36*
X147666514Y-93806461D02*
G01*
X147612187Y-93809564D01*
X147563560Y-93814237D01*
X147531056Y-93819037D01*
X147428533Y-93842447D01*
X147334234Y-93874385D01*
X147246962Y-93915315D01*
X147182625Y-93954028D01*
X147117270Y-94003159D01*
X147054298Y-94061337D01*
X146996572Y-94125531D01*
X146946957Y-94192707D01*
X146927322Y-94224332D01*
X146910483Y-94253279D01*
X147011543Y-94306020D01*
X147053094Y-94327687D01*
X147100970Y-94352624D01*
X147150485Y-94378392D01*
X147196955Y-94402553D01*
X147218666Y-94413830D01*
X147324729Y-94468900D01*
X147348891Y-94425289D01*
X147374881Y-94385855D01*
X147408155Y-94346541D01*
X147445574Y-94310466D01*
X147484001Y-94280751D01*
X147509478Y-94265579D01*
X147547961Y-94246898D01*
X147580148Y-94234072D01*
X147610089Y-94226115D01*
X147641830Y-94222038D01*
X147679418Y-94220852D01*
X147692412Y-94220913D01*
X147765804Y-94226784D01*
X147832091Y-94242801D01*
X147891220Y-94268905D01*
X147943137Y-94305036D01*
X147987786Y-94351134D01*
X148025113Y-94407143D01*
X148055064Y-94473001D01*
X148077583Y-94548650D01*
X148092617Y-94634032D01*
X148095157Y-94656479D01*
X148101310Y-94758253D01*
X148098666Y-94854590D01*
X148087386Y-94944769D01*
X148067629Y-95028071D01*
X148039557Y-95103777D01*
X148003329Y-95171166D01*
X147970415Y-95216409D01*
X147939824Y-95246735D01*
X147900577Y-95275640D01*
X147856380Y-95300710D01*
X147813335Y-95318723D01*
X147791286Y-95325819D01*
X147771970Y-95330627D01*
X147751958Y-95333587D01*
X147727822Y-95335137D01*
X147696135Y-95335714D01*
X147680010Y-95335771D01*
X147628319Y-95334583D01*
X147585472Y-95330427D01*
X147548127Y-95322635D01*
X147512941Y-95310541D01*
X147482068Y-95296298D01*
X147426982Y-95261594D01*
X147377551Y-95216487D01*
X147334853Y-95162102D01*
X147306532Y-95113200D01*
X147296846Y-95094096D01*
X147289463Y-95079953D01*
X147286006Y-95073873D01*
X147280271Y-95076038D01*
X147265070Y-95083080D01*
X147241969Y-95094210D01*
X147212537Y-95108639D01*
X147178338Y-95125579D01*
X147140941Y-95144242D01*
X147101912Y-95163839D01*
X147062818Y-95183581D01*
X147025226Y-95202680D01*
X146990702Y-95220347D01*
X146960813Y-95235794D01*
X146937127Y-95248232D01*
X146921209Y-95256872D01*
X146915079Y-95260552D01*
X146911113Y-95264629D01*
X146910379Y-95270342D01*
X146913704Y-95279551D01*
X146921913Y-95294118D01*
X146935833Y-95315906D01*
X146947414Y-95333438D01*
X146996620Y-95402628D01*
X147046649Y-95462389D01*
X147100241Y-95515545D01*
X147160138Y-95564919D01*
X147200497Y-95594078D01*
X147265914Y-95634299D01*
X147339532Y-95670903D01*
X147417303Y-95702217D01*
X147495180Y-95726571D01*
X147552886Y-95739568D01*
X147584707Y-95743964D01*
X147625564Y-95747563D01*
X147672110Y-95750261D01*
X147720998Y-95751955D01*
X147768881Y-95752539D01*
X147812413Y-95751911D01*
X147848246Y-95749965D01*
X147857662Y-95749034D01*
X147966000Y-95731041D01*
X148068229Y-95702783D01*
X148163890Y-95664617D01*
X148252525Y-95616900D01*
X148333674Y-95559991D01*
X148406879Y-95494247D01*
X148471680Y-95420027D01*
X148527619Y-95337686D01*
X148574237Y-95247585D01*
X148606018Y-95165680D01*
X148633868Y-95064847D01*
X148652646Y-94957957D01*
X148662352Y-94847378D01*
X148662985Y-94735477D01*
X148654543Y-94624623D01*
X148637025Y-94517182D01*
X148610431Y-94415522D01*
X148606397Y-94403125D01*
X148570638Y-94311570D01*
X148526562Y-94227825D01*
X148472817Y-94149649D01*
X148409003Y-94075800D01*
X148333145Y-94004840D01*
X148250958Y-93944401D01*
X148162198Y-93894355D01*
X148066624Y-93854571D01*
X147963993Y-93824922D01*
X147918755Y-93815466D01*
X147880881Y-93810304D01*
X147833723Y-93806850D01*
X147780278Y-93805076D01*
X147723543Y-93804956D01*
X147666514Y-93806461D01*
G37*
X147666514Y-93806461D02*
X147612187Y-93809564D01*
X147563560Y-93814237D01*
X147531056Y-93819037D01*
X147428533Y-93842447D01*
X147334234Y-93874385D01*
X147246962Y-93915315D01*
X147182625Y-93954028D01*
X147117270Y-94003159D01*
X147054298Y-94061337D01*
X146996572Y-94125531D01*
X146946957Y-94192707D01*
X146927322Y-94224332D01*
X146910483Y-94253279D01*
X147011543Y-94306020D01*
X147053094Y-94327687D01*
X147100970Y-94352624D01*
X147150485Y-94378392D01*
X147196955Y-94402553D01*
X147218666Y-94413830D01*
X147324729Y-94468900D01*
X147348891Y-94425289D01*
X147374881Y-94385855D01*
X147408155Y-94346541D01*
X147445574Y-94310466D01*
X147484001Y-94280751D01*
X147509478Y-94265579D01*
X147547961Y-94246898D01*
X147580148Y-94234072D01*
X147610089Y-94226115D01*
X147641830Y-94222038D01*
X147679418Y-94220852D01*
X147692412Y-94220913D01*
X147765804Y-94226784D01*
X147832091Y-94242801D01*
X147891220Y-94268905D01*
X147943137Y-94305036D01*
X147987786Y-94351134D01*
X148025113Y-94407143D01*
X148055064Y-94473001D01*
X148077583Y-94548650D01*
X148092617Y-94634032D01*
X148095157Y-94656479D01*
X148101310Y-94758253D01*
X148098666Y-94854590D01*
X148087386Y-94944769D01*
X148067629Y-95028071D01*
X148039557Y-95103777D01*
X148003329Y-95171166D01*
X147970415Y-95216409D01*
X147939824Y-95246735D01*
X147900577Y-95275640D01*
X147856380Y-95300710D01*
X147813335Y-95318723D01*
X147791286Y-95325819D01*
X147771970Y-95330627D01*
X147751958Y-95333587D01*
X147727822Y-95335137D01*
X147696135Y-95335714D01*
X147680010Y-95335771D01*
X147628319Y-95334583D01*
X147585472Y-95330427D01*
X147548127Y-95322635D01*
X147512941Y-95310541D01*
X147482068Y-95296298D01*
X147426982Y-95261594D01*
X147377551Y-95216487D01*
X147334853Y-95162102D01*
X147306532Y-95113200D01*
X147296846Y-95094096D01*
X147289463Y-95079953D01*
X147286006Y-95073873D01*
X147280271Y-95076038D01*
X147265070Y-95083080D01*
X147241969Y-95094210D01*
X147212537Y-95108639D01*
X147178338Y-95125579D01*
X147140941Y-95144242D01*
X147101912Y-95163839D01*
X147062818Y-95183581D01*
X147025226Y-95202680D01*
X146990702Y-95220347D01*
X146960813Y-95235794D01*
X146937127Y-95248232D01*
X146921209Y-95256872D01*
X146915079Y-95260552D01*
X146911113Y-95264629D01*
X146910379Y-95270342D01*
X146913704Y-95279551D01*
X146921913Y-95294118D01*
X146935833Y-95315906D01*
X146947414Y-95333438D01*
X146996620Y-95402628D01*
X147046649Y-95462389D01*
X147100241Y-95515545D01*
X147160138Y-95564919D01*
X147200497Y-95594078D01*
X147265914Y-95634299D01*
X147339532Y-95670903D01*
X147417303Y-95702217D01*
X147495180Y-95726571D01*
X147552886Y-95739568D01*
X147584707Y-95743964D01*
X147625564Y-95747563D01*
X147672110Y-95750261D01*
X147720998Y-95751955D01*
X147768881Y-95752539D01*
X147812413Y-95751911D01*
X147848246Y-95749965D01*
X147857662Y-95749034D01*
X147966000Y-95731041D01*
X148068229Y-95702783D01*
X148163890Y-95664617D01*
X148252525Y-95616900D01*
X148333674Y-95559991D01*
X148406879Y-95494247D01*
X148471680Y-95420027D01*
X148527619Y-95337686D01*
X148574237Y-95247585D01*
X148606018Y-95165680D01*
X148633868Y-95064847D01*
X148652646Y-94957957D01*
X148662352Y-94847378D01*
X148662985Y-94735477D01*
X148654543Y-94624623D01*
X148637025Y-94517182D01*
X148610431Y-94415522D01*
X148606397Y-94403125D01*
X148570638Y-94311570D01*
X148526562Y-94227825D01*
X148472817Y-94149649D01*
X148409003Y-94075800D01*
X148333145Y-94004840D01*
X148250958Y-93944401D01*
X148162198Y-93894355D01*
X148066624Y-93854571D01*
X147963993Y-93824922D01*
X147918755Y-93815466D01*
X147880881Y-93810304D01*
X147833723Y-93806850D01*
X147780278Y-93805076D01*
X147723543Y-93804956D01*
X147666514Y-93806461D01*
G36*
X133473629Y-93147228D02*
G01*
X133327942Y-93158972D01*
X133188141Y-93181382D01*
X133054377Y-93214392D01*
X132926799Y-93257939D01*
X132805555Y-93311959D01*
X132690797Y-93376388D01*
X132582672Y-93451163D01*
X132481331Y-93536220D01*
X132386923Y-93631494D01*
X132328050Y-93700482D01*
X132244425Y-93814266D01*
X132171279Y-93934597D01*
X132108662Y-94061302D01*
X132056630Y-94194209D01*
X132015233Y-94333146D01*
X131984527Y-94477939D01*
X131964562Y-94628417D01*
X131955394Y-94784406D01*
X131955824Y-94911621D01*
X131965558Y-95064367D01*
X131985516Y-95210268D01*
X132015790Y-95349629D01*
X132056471Y-95482756D01*
X132107650Y-95609952D01*
X132169418Y-95731523D01*
X132229469Y-95829394D01*
X132314154Y-95946545D01*
X132405605Y-96053302D01*
X132503788Y-96149646D01*
X132608670Y-96235554D01*
X132720216Y-96311006D01*
X132838392Y-96375980D01*
X132963163Y-96430454D01*
X133094495Y-96474407D01*
X133232355Y-96507819D01*
X133349102Y-96527182D01*
X133384415Y-96530919D01*
X133428582Y-96534087D01*
X133478820Y-96536623D01*
X133532349Y-96538463D01*
X133586388Y-96539545D01*
X133638155Y-96539805D01*
X133684869Y-96539180D01*
X133723750Y-96537608D01*
X133742876Y-96536112D01*
X133877275Y-96517088D01*
X134005023Y-96487771D01*
X134126653Y-96447977D01*
X134242699Y-96397524D01*
X134353692Y-96336228D01*
X134387798Y-96314577D01*
X134492247Y-96239160D01*
X134586891Y-96156202D01*
X134671751Y-96065667D01*
X134746852Y-95967521D01*
X134812213Y-95861729D01*
X134867858Y-95748256D01*
X134913808Y-95627068D01*
X134950085Y-95498130D01*
X134970592Y-95398413D01*
X134975321Y-95371863D01*
X134979567Y-95348641D01*
X134982651Y-95332431D01*
X134983426Y-95328649D01*
X134986447Y-95314697D01*
X134192461Y-95314697D01*
X134192461Y-95343178D01*
X134190399Y-95371464D01*
X134184750Y-95407682D01*
X134176319Y-95448167D01*
X134165913Y-95489254D01*
X134154338Y-95527277D01*
X134148230Y-95544344D01*
X134115460Y-95613199D01*
X134072571Y-95675168D01*
X134020037Y-95729814D01*
X133958335Y-95776699D01*
X133887938Y-95815388D01*
X133827572Y-95839500D01*
X133785489Y-95852987D01*
X133746148Y-95863402D01*
X133706945Y-95871096D01*
X133665275Y-95876419D01*
X133618534Y-95879719D01*
X133564118Y-95881348D01*
X133513433Y-95881681D01*
X133458056Y-95881251D01*
X133412578Y-95879711D01*
X133374512Y-95876589D01*
X133341372Y-95871413D01*
X133310671Y-95863713D01*
X133279923Y-95853018D01*
X133246640Y-95838855D01*
X133218877Y-95825845D01*
X133145330Y-95783747D01*
X133076773Y-95730778D01*
X133013678Y-95667619D01*
X132956516Y-95594949D01*
X132905760Y-95513449D01*
X132861880Y-95423797D01*
X132825350Y-95326675D01*
X132796639Y-95222761D01*
X132794824Y-95214754D01*
X132774222Y-95101473D01*
X132761020Y-94981199D01*
X132755184Y-94856793D01*
X132756684Y-94731118D01*
X132765488Y-94607036D01*
X132781565Y-94487406D01*
X132804079Y-94378320D01*
X132834340Y-94275755D01*
X132871968Y-94182765D01*
X132916852Y-94099480D01*
X132968877Y-94026030D01*
X133027931Y-93962545D01*
X133093900Y-93909154D01*
X133166671Y-93865988D01*
X133246132Y-93833176D01*
X133290643Y-93820099D01*
X133356212Y-93807518D01*
X133429611Y-93800691D01*
X133507762Y-93799471D01*
X133587588Y-93803711D01*
X133666009Y-93813265D01*
X133739947Y-93827986D01*
X133796096Y-93844156D01*
X133876734Y-93877066D01*
X133948107Y-93918179D01*
X134010398Y-93967662D01*
X134063790Y-94025686D01*
X134108467Y-94092419D01*
X134142595Y-94163028D01*
X134154478Y-94194835D01*
X134166042Y-94230529D01*
X134176454Y-94266999D01*
X134184882Y-94301132D01*
X134190494Y-94329819D01*
X134192461Y-94349489D01*
X134192461Y-94365631D01*
X134083907Y-94367325D01*
X133975353Y-94369018D01*
X134280818Y-94674426D01*
X134586282Y-94979834D01*
X134893193Y-94672876D01*
X135200105Y-94365917D01*
X134963108Y-94365917D01*
X134955484Y-94317858D01*
X134951112Y-94294114D01*
X134944370Y-94262075D01*
X134936075Y-94225436D01*
X134927045Y-94187887D01*
X134924158Y-94176378D01*
X134885543Y-94046936D01*
X134837319Y-93924780D01*
X134779702Y-93810199D01*
X134712904Y-93703485D01*
X134637140Y-93604929D01*
X134552625Y-93514823D01*
X134459571Y-93433457D01*
X134358195Y-93361122D01*
X134297549Y-93324487D01*
X134193893Y-93271012D01*
X134088521Y-93227585D01*
X133979865Y-93193790D01*
X133866353Y-93169211D01*
X133746415Y-93153432D01*
X133625054Y-93146212D01*
X133473629Y-93147228D01*
G37*
X133473629Y-93147228D02*
X133327942Y-93158972D01*
X133188141Y-93181382D01*
X133054377Y-93214392D01*
X132926799Y-93257939D01*
X132805555Y-93311959D01*
X132690797Y-93376388D01*
X132582672Y-93451163D01*
X132481331Y-93536220D01*
X132386923Y-93631494D01*
X132328050Y-93700482D01*
X132244425Y-93814266D01*
X132171279Y-93934597D01*
X132108662Y-94061302D01*
X132056630Y-94194209D01*
X132015233Y-94333146D01*
X131984527Y-94477939D01*
X131964562Y-94628417D01*
X131955394Y-94784406D01*
X131955824Y-94911621D01*
X131965558Y-95064367D01*
X131985516Y-95210268D01*
X132015790Y-95349629D01*
X132056471Y-95482756D01*
X132107650Y-95609952D01*
X132169418Y-95731523D01*
X132229469Y-95829394D01*
X132314154Y-95946545D01*
X132405605Y-96053302D01*
X132503788Y-96149646D01*
X132608670Y-96235554D01*
X132720216Y-96311006D01*
X132838392Y-96375980D01*
X132963163Y-96430454D01*
X133094495Y-96474407D01*
X133232355Y-96507819D01*
X133349102Y-96527182D01*
X133384415Y-96530919D01*
X133428582Y-96534087D01*
X133478820Y-96536623D01*
X133532349Y-96538463D01*
X133586388Y-96539545D01*
X133638155Y-96539805D01*
X133684869Y-96539180D01*
X133723750Y-96537608D01*
X133742876Y-96536112D01*
X133877275Y-96517088D01*
X134005023Y-96487771D01*
X134126653Y-96447977D01*
X134242699Y-96397524D01*
X134353692Y-96336228D01*
X134387798Y-96314577D01*
X134492247Y-96239160D01*
X134586891Y-96156202D01*
X134671751Y-96065667D01*
X134746852Y-95967521D01*
X134812213Y-95861729D01*
X134867858Y-95748256D01*
X134913808Y-95627068D01*
X134950085Y-95498130D01*
X134970592Y-95398413D01*
X134975321Y-95371863D01*
X134979567Y-95348641D01*
X134982651Y-95332431D01*
X134983426Y-95328649D01*
X134986447Y-95314697D01*
X134192461Y-95314697D01*
X134192461Y-95343178D01*
X134190399Y-95371464D01*
X134184750Y-95407682D01*
X134176319Y-95448167D01*
X134165913Y-95489254D01*
X134154338Y-95527277D01*
X134148230Y-95544344D01*
X134115460Y-95613199D01*
X134072571Y-95675168D01*
X134020037Y-95729814D01*
X133958335Y-95776699D01*
X133887938Y-95815388D01*
X133827572Y-95839500D01*
X133785489Y-95852987D01*
X133746148Y-95863402D01*
X133706945Y-95871096D01*
X133665275Y-95876419D01*
X133618534Y-95879719D01*
X133564118Y-95881348D01*
X133513433Y-95881681D01*
X133458056Y-95881251D01*
X133412578Y-95879711D01*
X133374512Y-95876589D01*
X133341372Y-95871413D01*
X133310671Y-95863713D01*
X133279923Y-95853018D01*
X133246640Y-95838855D01*
X133218877Y-95825845D01*
X133145330Y-95783747D01*
X133076773Y-95730778D01*
X133013678Y-95667619D01*
X132956516Y-95594949D01*
X132905760Y-95513449D01*
X132861880Y-95423797D01*
X132825350Y-95326675D01*
X132796639Y-95222761D01*
X132794824Y-95214754D01*
X132774222Y-95101473D01*
X132761020Y-94981199D01*
X132755184Y-94856793D01*
X132756684Y-94731118D01*
X132765488Y-94607036D01*
X132781565Y-94487406D01*
X132804079Y-94378320D01*
X132834340Y-94275755D01*
X132871968Y-94182765D01*
X132916852Y-94099480D01*
X132968877Y-94026030D01*
X133027931Y-93962545D01*
X133093900Y-93909154D01*
X133166671Y-93865988D01*
X133246132Y-93833176D01*
X133290643Y-93820099D01*
X133356212Y-93807518D01*
X133429611Y-93800691D01*
X133507762Y-93799471D01*
X133587588Y-93803711D01*
X133666009Y-93813265D01*
X133739947Y-93827986D01*
X133796096Y-93844156D01*
X133876734Y-93877066D01*
X133948107Y-93918179D01*
X134010398Y-93967662D01*
X134063790Y-94025686D01*
X134108467Y-94092419D01*
X134142595Y-94163028D01*
X134154478Y-94194835D01*
X134166042Y-94230529D01*
X134176454Y-94266999D01*
X134184882Y-94301132D01*
X134190494Y-94329819D01*
X134192461Y-94349489D01*
X134192461Y-94365631D01*
X134083907Y-94367325D01*
X133975353Y-94369018D01*
X134280818Y-94674426D01*
X134586282Y-94979834D01*
X134893193Y-94672876D01*
X135200105Y-94365917D01*
X134963108Y-94365917D01*
X134955484Y-94317858D01*
X134951112Y-94294114D01*
X134944370Y-94262075D01*
X134936075Y-94225436D01*
X134927045Y-94187887D01*
X134924158Y-94176378D01*
X134885543Y-94046936D01*
X134837319Y-93924780D01*
X134779702Y-93810199D01*
X134712904Y-93703485D01*
X134637140Y-93604929D01*
X134552625Y-93514823D01*
X134459571Y-93433457D01*
X134358195Y-93361122D01*
X134297549Y-93324487D01*
X134193893Y-93271012D01*
X134088521Y-93227585D01*
X133979865Y-93193790D01*
X133866353Y-93169211D01*
X133746415Y-93153432D01*
X133625054Y-93146212D01*
X133473629Y-93147228D01*
G36*
X140111344Y-91631147D02*
G01*
X140031194Y-91633671D01*
X139966966Y-91637481D01*
X139765721Y-91658534D01*
X139570287Y-91690529D01*
X139380553Y-91733513D01*
X139196408Y-91787532D01*
X139017738Y-91852634D01*
X138844432Y-91928864D01*
X138676378Y-92016269D01*
X138513464Y-92114896D01*
X138355577Y-92224791D01*
X138202606Y-92346001D01*
X138148809Y-92392335D01*
X138106775Y-92430514D01*
X138059386Y-92475579D01*
X138008802Y-92525322D01*
X137957186Y-92577531D01*
X137906699Y-92629996D01*
X137859505Y-92680506D01*
X137817763Y-92726852D01*
X137789680Y-92759527D01*
X137667963Y-92914213D01*
X137557818Y-93073039D01*
X137459155Y-93236234D01*
X137371881Y-93404021D01*
X137295908Y-93576629D01*
X137231143Y-93754282D01*
X137177496Y-93937208D01*
X137134876Y-94125632D01*
X137103192Y-94319780D01*
X137082354Y-94519878D01*
X137082273Y-94520947D01*
X137079982Y-94560431D01*
X137078217Y-94609707D01*
X137076980Y-94666224D01*
X137076270Y-94727430D01*
X137076088Y-94790774D01*
X137076433Y-94853704D01*
X137077305Y-94913670D01*
X137078704Y-94968120D01*
X137080630Y-95014503D01*
X137082279Y-95040631D01*
X137103117Y-95240949D01*
X137134623Y-95434976D01*
X137176861Y-95622852D01*
X137229893Y-95804718D01*
X137293783Y-95980714D01*
X137368595Y-96150980D01*
X137454390Y-96315656D01*
X137551234Y-96474883D01*
X137659188Y-96628799D01*
X137778316Y-96777547D01*
X137908682Y-96921265D01*
X137950053Y-96963482D01*
X138100662Y-97106564D01*
X138255715Y-97238239D01*
X138415119Y-97358443D01*
X138578779Y-97467114D01*
X138746603Y-97564189D01*
X138918498Y-97649605D01*
X139062726Y-97711022D01*
X139232562Y-97772646D01*
X139403304Y-97823638D01*
X139576098Y-97864186D01*
X139752089Y-97894482D01*
X139932423Y-97914713D01*
X140118246Y-97925070D01*
X140310702Y-97925742D01*
X140353325Y-97924632D01*
X140548090Y-97912550D01*
X140739430Y-97888571D01*
X140927207Y-97852755D01*
X141111278Y-97805167D01*
X141291503Y-97745867D01*
X141467741Y-97674918D01*
X141639851Y-97592382D01*
X141807693Y-97498322D01*
X141971126Y-97392798D01*
X142130009Y-97275875D01*
X142284200Y-97147613D01*
X142433560Y-97008075D01*
X142437157Y-97004516D01*
X142577874Y-96857178D01*
X142706996Y-96705471D01*
X142824573Y-96549293D01*
X142930656Y-96388541D01*
X143025296Y-96223111D01*
X143108543Y-96052902D01*
X143180448Y-95877809D01*
X143241061Y-95697730D01*
X143290434Y-95512563D01*
X143328615Y-95322203D01*
X143354401Y-95137963D01*
X143362685Y-95045192D01*
X143368056Y-94943515D01*
X143370559Y-94835943D01*
X143370507Y-94817789D01*
X142810314Y-94817789D01*
X142802405Y-94987917D01*
X142783615Y-95156775D01*
X142753963Y-95323415D01*
X142713464Y-95486891D01*
X142662136Y-95646258D01*
X142599996Y-95800568D01*
X142592260Y-95817722D01*
X142518408Y-95965441D01*
X142433361Y-96109973D01*
X142338001Y-96250432D01*
X142233208Y-96385936D01*
X142119863Y-96515599D01*
X141998846Y-96638538D01*
X141871036Y-96753868D01*
X141737316Y-96860706D01*
X141598565Y-96958168D01*
X141455663Y-97045369D01*
X141309491Y-97121426D01*
X141280401Y-97135012D01*
X141121689Y-97200932D01*
X140957784Y-97255658D01*
X140788988Y-97299116D01*
X140615605Y-97331229D01*
X140437937Y-97351921D01*
X140399834Y-97354828D01*
X140356065Y-97356948D01*
X140302864Y-97358063D01*
X140243158Y-97358232D01*
X140179873Y-97357515D01*
X140115933Y-97355969D01*
X140054266Y-97353654D01*
X139997796Y-97350627D01*
X139949450Y-97346949D01*
X139934746Y-97345493D01*
X139759192Y-97320913D01*
X139588773Y-97285221D01*
X139423190Y-97238292D01*
X139262145Y-97179998D01*
X139105341Y-97110214D01*
X138952480Y-97028812D01*
X138803264Y-96935668D01*
X138657394Y-96830655D01*
X138585991Y-96773960D01*
X138446170Y-96652678D01*
X138317979Y-96527335D01*
X138201254Y-96397703D01*
X138095830Y-96263554D01*
X138001541Y-96124660D01*
X137918223Y-95980794D01*
X137845712Y-95831727D01*
X137783842Y-95677232D01*
X137775123Y-95652579D01*
X137729144Y-95503208D01*
X137692325Y-95346999D01*
X137664727Y-95185546D01*
X137646414Y-95020441D01*
X137637449Y-94853279D01*
X137637894Y-94685651D01*
X137647813Y-94519151D01*
X137667267Y-94355373D01*
X137696320Y-94195909D01*
X137714627Y-94117653D01*
X137762591Y-93951527D01*
X137821295Y-93791023D01*
X137890892Y-93635880D01*
X137971533Y-93485837D01*
X138063373Y-93340631D01*
X138166564Y-93200001D01*
X138281259Y-93063685D01*
X138406784Y-92932237D01*
X138533762Y-92813725D01*
X138662838Y-92706855D01*
X138795124Y-92610906D01*
X138931735Y-92525155D01*
X139073783Y-92448881D01*
X139222385Y-92381362D01*
X139311529Y-92346111D01*
X139455919Y-92297874D01*
X139607591Y-92258509D01*
X139765044Y-92228134D01*
X139926774Y-92206864D01*
X140091281Y-92194817D01*
X140257062Y-92192110D01*
X140422616Y-92198858D01*
X140586441Y-92215178D01*
X140722295Y-92236496D01*
X140892595Y-92274022D01*
X141057736Y-92322824D01*
X141217775Y-92382927D01*
X141372768Y-92454355D01*
X141522771Y-92537132D01*
X141667841Y-92631281D01*
X141697376Y-92652277D01*
X141828712Y-92753851D01*
X141955190Y-92865137D01*
X142075872Y-92984955D01*
X142189820Y-93112127D01*
X142296097Y-93245472D01*
X142393765Y-93383810D01*
X142481887Y-93525963D01*
X142559524Y-93670750D01*
X142625739Y-93816993D01*
X142628324Y-93823315D01*
X142686056Y-93981198D01*
X142732805Y-94143488D01*
X142768588Y-94309239D01*
X142793423Y-94477503D01*
X142807326Y-94647335D01*
X142810314Y-94817789D01*
X143370507Y-94817789D01*
X143370239Y-94725488D01*
X143367144Y-94615160D01*
X143361320Y-94507970D01*
X143352811Y-94406931D01*
X143341845Y-94316308D01*
X143308039Y-94122432D01*
X143262972Y-93933577D01*
X143206582Y-93749611D01*
X143138808Y-93570398D01*
X143059588Y-93395806D01*
X142968861Y-93225700D01*
X142866565Y-93059946D01*
X142752638Y-92898412D01*
X142627020Y-92740962D01*
X142606061Y-92716406D01*
X142470668Y-92568170D01*
X142328788Y-92430227D01*
X142180695Y-92302724D01*
X142026659Y-92185808D01*
X141866955Y-92079624D01*
X141701853Y-91984320D01*
X141531627Y-91900042D01*
X141356549Y-91826936D01*
X141176891Y-91765149D01*
X140992927Y-91714827D01*
X140804927Y-91676116D01*
X140623076Y-91650257D01*
X140549243Y-91643289D01*
X140466794Y-91637756D01*
X140378755Y-91633716D01*
X140288150Y-91631229D01*
X140198005Y-91630353D01*
X140111344Y-91631147D01*
G37*
X140111344Y-91631147D02*
X140031194Y-91633671D01*
X139966966Y-91637481D01*
X139765721Y-91658534D01*
X139570287Y-91690529D01*
X139380553Y-91733513D01*
X139196408Y-91787532D01*
X139017738Y-91852634D01*
X138844432Y-91928864D01*
X138676378Y-92016269D01*
X138513464Y-92114896D01*
X138355577Y-92224791D01*
X138202606Y-92346001D01*
X138148809Y-92392335D01*
X138106775Y-92430514D01*
X138059386Y-92475579D01*
X138008802Y-92525322D01*
X137957186Y-92577531D01*
X137906699Y-92629996D01*
X137859505Y-92680506D01*
X137817763Y-92726852D01*
X137789680Y-92759527D01*
X137667963Y-92914213D01*
X137557818Y-93073039D01*
X137459155Y-93236234D01*
X137371881Y-93404021D01*
X137295908Y-93576629D01*
X137231143Y-93754282D01*
X137177496Y-93937208D01*
X137134876Y-94125632D01*
X137103192Y-94319780D01*
X137082354Y-94519878D01*
X137082273Y-94520947D01*
X137079982Y-94560431D01*
X137078217Y-94609707D01*
X137076980Y-94666224D01*
X137076270Y-94727430D01*
X137076088Y-94790774D01*
X137076433Y-94853704D01*
X137077305Y-94913670D01*
X137078704Y-94968120D01*
X137080630Y-95014503D01*
X137082279Y-95040631D01*
X137103117Y-95240949D01*
X137134623Y-95434976D01*
X137176861Y-95622852D01*
X137229893Y-95804718D01*
X137293783Y-95980714D01*
X137368595Y-96150980D01*
X137454390Y-96315656D01*
X137551234Y-96474883D01*
X137659188Y-96628799D01*
X137778316Y-96777547D01*
X137908682Y-96921265D01*
X137950053Y-96963482D01*
X138100662Y-97106564D01*
X138255715Y-97238239D01*
X138415119Y-97358443D01*
X138578779Y-97467114D01*
X138746603Y-97564189D01*
X138918498Y-97649605D01*
X139062726Y-97711022D01*
X139232562Y-97772646D01*
X139403304Y-97823638D01*
X139576098Y-97864186D01*
X139752089Y-97894482D01*
X139932423Y-97914713D01*
X140118246Y-97925070D01*
X140310702Y-97925742D01*
X140353325Y-97924632D01*
X140548090Y-97912550D01*
X140739430Y-97888571D01*
X140927207Y-97852755D01*
X141111278Y-97805167D01*
X141291503Y-97745867D01*
X141467741Y-97674918D01*
X141639851Y-97592382D01*
X141807693Y-97498322D01*
X141971126Y-97392798D01*
X142130009Y-97275875D01*
X142284200Y-97147613D01*
X142433560Y-97008075D01*
X142437157Y-97004516D01*
X142577874Y-96857178D01*
X142706996Y-96705471D01*
X142824573Y-96549293D01*
X142930656Y-96388541D01*
X143025296Y-96223111D01*
X143108543Y-96052902D01*
X143180448Y-95877809D01*
X143241061Y-95697730D01*
X143290434Y-95512563D01*
X143328615Y-95322203D01*
X143354401Y-95137963D01*
X143362685Y-95045192D01*
X143368056Y-94943515D01*
X143370559Y-94835943D01*
X143370507Y-94817789D01*
X142810314Y-94817789D01*
X142802405Y-94987917D01*
X142783615Y-95156775D01*
X142753963Y-95323415D01*
X142713464Y-95486891D01*
X142662136Y-95646258D01*
X142599996Y-95800568D01*
X142592260Y-95817722D01*
X142518408Y-95965441D01*
X142433361Y-96109973D01*
X142338001Y-96250432D01*
X142233208Y-96385936D01*
X142119863Y-96515599D01*
X141998846Y-96638538D01*
X141871036Y-96753868D01*
X141737316Y-96860706D01*
X141598565Y-96958168D01*
X141455663Y-97045369D01*
X141309491Y-97121426D01*
X141280401Y-97135012D01*
X141121689Y-97200932D01*
X140957784Y-97255658D01*
X140788988Y-97299116D01*
X140615605Y-97331229D01*
X140437937Y-97351921D01*
X140399834Y-97354828D01*
X140356065Y-97356948D01*
X140302864Y-97358063D01*
X140243158Y-97358232D01*
X140179873Y-97357515D01*
X140115933Y-97355969D01*
X140054266Y-97353654D01*
X139997796Y-97350627D01*
X139949450Y-97346949D01*
X139934746Y-97345493D01*
X139759192Y-97320913D01*
X139588773Y-97285221D01*
X139423190Y-97238292D01*
X139262145Y-97179998D01*
X139105341Y-97110214D01*
X138952480Y-97028812D01*
X138803264Y-96935668D01*
X138657394Y-96830655D01*
X138585991Y-96773960D01*
X138446170Y-96652678D01*
X138317979Y-96527335D01*
X138201254Y-96397703D01*
X138095830Y-96263554D01*
X138001541Y-96124660D01*
X137918223Y-95980794D01*
X137845712Y-95831727D01*
X137783842Y-95677232D01*
X137775123Y-95652579D01*
X137729144Y-95503208D01*
X137692325Y-95346999D01*
X137664727Y-95185546D01*
X137646414Y-95020441D01*
X137637449Y-94853279D01*
X137637894Y-94685651D01*
X137647813Y-94519151D01*
X137667267Y-94355373D01*
X137696320Y-94195909D01*
X137714627Y-94117653D01*
X137762591Y-93951527D01*
X137821295Y-93791023D01*
X137890892Y-93635880D01*
X137971533Y-93485837D01*
X138063373Y-93340631D01*
X138166564Y-93200001D01*
X138281259Y-93063685D01*
X138406784Y-92932237D01*
X138533762Y-92813725D01*
X138662838Y-92706855D01*
X138795124Y-92610906D01*
X138931735Y-92525155D01*
X139073783Y-92448881D01*
X139222385Y-92381362D01*
X139311529Y-92346111D01*
X139455919Y-92297874D01*
X139607591Y-92258509D01*
X139765044Y-92228134D01*
X139926774Y-92206864D01*
X140091281Y-92194817D01*
X140257062Y-92192110D01*
X140422616Y-92198858D01*
X140586441Y-92215178D01*
X140722295Y-92236496D01*
X140892595Y-92274022D01*
X141057736Y-92322824D01*
X141217775Y-92382927D01*
X141372768Y-92454355D01*
X141522771Y-92537132D01*
X141667841Y-92631281D01*
X141697376Y-92652277D01*
X141828712Y-92753851D01*
X141955190Y-92865137D01*
X142075872Y-92984955D01*
X142189820Y-93112127D01*
X142296097Y-93245472D01*
X142393765Y-93383810D01*
X142481887Y-93525963D01*
X142559524Y-93670750D01*
X142625739Y-93816993D01*
X142628324Y-93823315D01*
X142686056Y-93981198D01*
X142732805Y-94143488D01*
X142768588Y-94309239D01*
X142793423Y-94477503D01*
X142807326Y-94647335D01*
X142810314Y-94817789D01*
X143370507Y-94817789D01*
X143370239Y-94725488D01*
X143367144Y-94615160D01*
X143361320Y-94507970D01*
X143352811Y-94406931D01*
X143341845Y-94316308D01*
X143308039Y-94122432D01*
X143262972Y-93933577D01*
X143206582Y-93749611D01*
X143138808Y-93570398D01*
X143059588Y-93395806D01*
X142968861Y-93225700D01*
X142866565Y-93059946D01*
X142752638Y-92898412D01*
X142627020Y-92740962D01*
X142606061Y-92716406D01*
X142470668Y-92568170D01*
X142328788Y-92430227D01*
X142180695Y-92302724D01*
X142026659Y-92185808D01*
X141866955Y-92079624D01*
X141701853Y-91984320D01*
X141531627Y-91900042D01*
X141356549Y-91826936D01*
X141176891Y-91765149D01*
X140992927Y-91714827D01*
X140804927Y-91676116D01*
X140623076Y-91650257D01*
X140549243Y-91643289D01*
X140466794Y-91637756D01*
X140378755Y-91633716D01*
X140288150Y-91631229D01*
X140198005Y-91630353D01*
X140111344Y-91631147D01*
G36*
X146764140Y-91632438D02*
G01*
X146706535Y-91633528D01*
X146656871Y-91635365D01*
X146630948Y-91636902D01*
X146430990Y-91656813D01*
X146236713Y-91687709D01*
X146047917Y-91729657D01*
X145864403Y-91782724D01*
X145685970Y-91846975D01*
X145512418Y-91922478D01*
X145343546Y-92009298D01*
X145179156Y-92107502D01*
X145143731Y-92130536D01*
X145057245Y-92189214D01*
X144977283Y-92247070D01*
X144901398Y-92306117D01*
X144827146Y-92368370D01*
X144752078Y-92435844D01*
X144673749Y-92510551D01*
X144631921Y-92551923D01*
X144560088Y-92625123D01*
X144496278Y-92693319D01*
X144438501Y-92758825D01*
X144384767Y-92823956D01*
X144333087Y-92891028D01*
X144291982Y-92947501D01*
X144184519Y-93109155D01*
X144088018Y-93276539D01*
X144002554Y-93449442D01*
X143928201Y-93627655D01*
X143865034Y-93810969D01*
X143813128Y-93999175D01*
X143772556Y-94192062D01*
X143743394Y-94389422D01*
X143729929Y-94528548D01*
X143727580Y-94568546D01*
X143725782Y-94618095D01*
X143724537Y-94674609D01*
X143723845Y-94735501D01*
X143723705Y-94798185D01*
X143724118Y-94860075D01*
X143725084Y-94918584D01*
X143726604Y-94971126D01*
X143728678Y-95015114D01*
X143729879Y-95032543D01*
X143751573Y-95234793D01*
X143784279Y-95431367D01*
X143828021Y-95622342D01*
X143882822Y-95807794D01*
X143948707Y-95987799D01*
X144025699Y-96162432D01*
X144113822Y-96331770D01*
X144161790Y-96414022D01*
X144250931Y-96551106D01*
X144351383Y-96686642D01*
X144462059Y-96819456D01*
X144581873Y-96948378D01*
X144709740Y-97072234D01*
X144844573Y-97189853D01*
X144977143Y-97294012D01*
X145133941Y-97403406D01*
X145298598Y-97503946D01*
X145469820Y-97595035D01*
X145646312Y-97676078D01*
X145826782Y-97746476D01*
X146009934Y-97805634D01*
X146184378Y-97850685D01*
X146364677Y-97885825D01*
X146547751Y-97910054D01*
X146734702Y-97923470D01*
X146926631Y-97926173D01*
X146997881Y-97924519D01*
X147189240Y-97912242D01*
X147377819Y-97888033D01*
X147563904Y-97851819D01*
X147747785Y-97803527D01*
X147929749Y-97743083D01*
X148110084Y-97670414D01*
X148241216Y-97609433D01*
X148413098Y-97518261D01*
X148578608Y-97417014D01*
X148737318Y-97306205D01*
X148888801Y-97186346D01*
X149032626Y-97057952D01*
X149168367Y-96921533D01*
X149295594Y-96777603D01*
X149413880Y-96626676D01*
X149522795Y-96469262D01*
X149621911Y-96305876D01*
X149710800Y-96137030D01*
X149789033Y-95963237D01*
X149856182Y-95785009D01*
X149908904Y-95613560D01*
X149944565Y-95471917D01*
X149972729Y-95333152D01*
X149993768Y-95194394D01*
X150008056Y-95052771D01*
X150015966Y-94905410D01*
X150017956Y-94775195D01*
X150016084Y-94692007D01*
X149456984Y-94692007D01*
X149456827Y-94866786D01*
X149444429Y-95042295D01*
X149437572Y-95100756D01*
X149409450Y-95270607D01*
X149369328Y-95438398D01*
X149317530Y-95603450D01*
X149254382Y-95765084D01*
X149180208Y-95922620D01*
X149095334Y-96075379D01*
X149000084Y-96222681D01*
X148894782Y-96363847D01*
X148779755Y-96498197D01*
X148758171Y-96521468D01*
X148638546Y-96642243D01*
X148516704Y-96751777D01*
X148391101Y-96851211D01*
X148260196Y-96941686D01*
X148122444Y-97024345D01*
X147976302Y-97100330D01*
X147975517Y-97100710D01*
X147814577Y-97172232D01*
X147652198Y-97231667D01*
X147487662Y-97279179D01*
X147320255Y-97314935D01*
X147149261Y-97339100D01*
X146973966Y-97351841D01*
X146883159Y-97353990D01*
X146839061Y-97353895D01*
X146791610Y-97353062D01*
X146745306Y-97351615D01*
X146704648Y-97349680D01*
X146687823Y-97348567D01*
X146509291Y-97329020D01*
X146333506Y-97297560D01*
X146160980Y-97254472D01*
X145992226Y-97200043D01*
X145827756Y-97134559D01*
X145668085Y-97058305D01*
X145513725Y-96971568D01*
X145365188Y-96874635D01*
X145222989Y-96767790D01*
X145087639Y-96651321D01*
X144959652Y-96525513D01*
X144839542Y-96390653D01*
X144738262Y-96261315D01*
X144650940Y-96132648D01*
X144571745Y-95995414D01*
X144501234Y-95850868D01*
X144439962Y-95700264D01*
X144388484Y-95544858D01*
X144347356Y-95385904D01*
X144343973Y-95370507D01*
X144317754Y-95227927D01*
X144299044Y-95078939D01*
X144287898Y-94926170D01*
X144284368Y-94772246D01*
X144288509Y-94619796D01*
X144300374Y-94471444D01*
X144320018Y-94329819D01*
X144322380Y-94316308D01*
X144359956Y-94139838D01*
X144408804Y-93968476D01*
X144468808Y-93802415D01*
X144539855Y-93641850D01*
X144621827Y-93486973D01*
X144714611Y-93337978D01*
X144818090Y-93195059D01*
X144932150Y-93058409D01*
X145056676Y-92928223D01*
X145191551Y-92804692D01*
X145252251Y-92754034D01*
X145394607Y-92646059D01*
X145541412Y-92549654D01*
X145692738Y-92464790D01*
X145848652Y-92391435D01*
X146009224Y-92329558D01*
X146174523Y-92279127D01*
X146344619Y-92240111D01*
X146418072Y-92227028D01*
X146580297Y-92205892D01*
X146747512Y-92194324D01*
X146916860Y-92192317D01*
X147085484Y-92199862D01*
X147250529Y-92216950D01*
X147334855Y-92229751D01*
X147506330Y-92264865D01*
X147672530Y-92311203D01*
X147833503Y-92368785D01*
X147989296Y-92437633D01*
X148139958Y-92517769D01*
X148285539Y-92609215D01*
X148426085Y-92711992D01*
X148442754Y-92725199D01*
X148548895Y-92815196D01*
X148654390Y-92914625D01*
X148756526Y-93020690D01*
X148852590Y-93130594D01*
X148927415Y-93224902D01*
X149032009Y-93373186D01*
X149125446Y-93526186D01*
X149207605Y-93683457D01*
X149278366Y-93844558D01*
X149337609Y-94009046D01*
X149385212Y-94176477D01*
X149421056Y-94346410D01*
X149445020Y-94518400D01*
X149456984Y-94692007D01*
X150016084Y-94692007D01*
X150014175Y-94607253D01*
X150002678Y-94446707D01*
X149983038Y-94290921D01*
X149954826Y-94137255D01*
X149917614Y-93983070D01*
X149870973Y-93825728D01*
X149856924Y-93783007D01*
X149793486Y-93609881D01*
X149721349Y-93443458D01*
X149639854Y-93282582D01*
X149548342Y-93126096D01*
X149446155Y-92972841D01*
X149332634Y-92821662D01*
X149256558Y-92728808D01*
X149221117Y-92688449D01*
X149178179Y-92642099D01*
X149129751Y-92591739D01*
X149077836Y-92539349D01*
X149024441Y-92486909D01*
X148971570Y-92436399D01*
X148921230Y-92389800D01*
X148875424Y-92349091D01*
X148851334Y-92328635D01*
X148699480Y-92209423D01*
X148544960Y-92102007D01*
X148387164Y-92006129D01*
X148225483Y-91921532D01*
X148059305Y-91847957D01*
X147888022Y-91785146D01*
X147711024Y-91732841D01*
X147527700Y-91690783D01*
X147337441Y-91658715D01*
X147239727Y-91646369D01*
X147199935Y-91642753D01*
X147150007Y-91639603D01*
X147092204Y-91636952D01*
X147028785Y-91634838D01*
X146962010Y-91633294D01*
X146894137Y-91632356D01*
X146827428Y-91632059D01*
X146764140Y-91632438D01*
G37*
X146764140Y-91632438D02*
X146706535Y-91633528D01*
X146656871Y-91635365D01*
X146630948Y-91636902D01*
X146430990Y-91656813D01*
X146236713Y-91687709D01*
X146047917Y-91729657D01*
X145864403Y-91782724D01*
X145685970Y-91846975D01*
X145512418Y-91922478D01*
X145343546Y-92009298D01*
X145179156Y-92107502D01*
X145143731Y-92130536D01*
X145057245Y-92189214D01*
X144977283Y-92247070D01*
X144901398Y-92306117D01*
X144827146Y-92368370D01*
X144752078Y-92435844D01*
X144673749Y-92510551D01*
X144631921Y-92551923D01*
X144560088Y-92625123D01*
X144496278Y-92693319D01*
X144438501Y-92758825D01*
X144384767Y-92823956D01*
X144333087Y-92891028D01*
X144291982Y-92947501D01*
X144184519Y-93109155D01*
X144088018Y-93276539D01*
X144002554Y-93449442D01*
X143928201Y-93627655D01*
X143865034Y-93810969D01*
X143813128Y-93999175D01*
X143772556Y-94192062D01*
X143743394Y-94389422D01*
X143729929Y-94528548D01*
X143727580Y-94568546D01*
X143725782Y-94618095D01*
X143724537Y-94674609D01*
X143723845Y-94735501D01*
X143723705Y-94798185D01*
X143724118Y-94860075D01*
X143725084Y-94918584D01*
X143726604Y-94971126D01*
X143728678Y-95015114D01*
X143729879Y-95032543D01*
X143751573Y-95234793D01*
X143784279Y-95431367D01*
X143828021Y-95622342D01*
X143882822Y-95807794D01*
X143948707Y-95987799D01*
X144025699Y-96162432D01*
X144113822Y-96331770D01*
X144161790Y-96414022D01*
X144250931Y-96551106D01*
X144351383Y-96686642D01*
X144462059Y-96819456D01*
X144581873Y-96948378D01*
X144709740Y-97072234D01*
X144844573Y-97189853D01*
X144977143Y-97294012D01*
X145133941Y-97403406D01*
X145298598Y-97503946D01*
X145469820Y-97595035D01*
X145646312Y-97676078D01*
X145826782Y-97746476D01*
X146009934Y-97805634D01*
X146184378Y-97850685D01*
X146364677Y-97885825D01*
X146547751Y-97910054D01*
X146734702Y-97923470D01*
X146926631Y-97926173D01*
X146997881Y-97924519D01*
X147189240Y-97912242D01*
X147377819Y-97888033D01*
X147563904Y-97851819D01*
X147747785Y-97803527D01*
X147929749Y-97743083D01*
X148110084Y-97670414D01*
X148241216Y-97609433D01*
X148413098Y-97518261D01*
X148578608Y-97417014D01*
X148737318Y-97306205D01*
X148888801Y-97186346D01*
X149032626Y-97057952D01*
X149168367Y-96921533D01*
X149295594Y-96777603D01*
X149413880Y-96626676D01*
X149522795Y-96469262D01*
X149621911Y-96305876D01*
X149710800Y-96137030D01*
X149789033Y-95963237D01*
X149856182Y-95785009D01*
X149908904Y-95613560D01*
X149944565Y-95471917D01*
X149972729Y-95333152D01*
X149993768Y-95194394D01*
X150008056Y-95052771D01*
X150015966Y-94905410D01*
X150017956Y-94775195D01*
X150016084Y-94692007D01*
X149456984Y-94692007D01*
X149456827Y-94866786D01*
X149444429Y-95042295D01*
X149437572Y-95100756D01*
X149409450Y-95270607D01*
X149369328Y-95438398D01*
X149317530Y-95603450D01*
X149254382Y-95765084D01*
X149180208Y-95922620D01*
X149095334Y-96075379D01*
X149000084Y-96222681D01*
X148894782Y-96363847D01*
X148779755Y-96498197D01*
X148758171Y-96521468D01*
X148638546Y-96642243D01*
X148516704Y-96751777D01*
X148391101Y-96851211D01*
X148260196Y-96941686D01*
X148122444Y-97024345D01*
X147976302Y-97100330D01*
X147975517Y-97100710D01*
X147814577Y-97172232D01*
X147652198Y-97231667D01*
X147487662Y-97279179D01*
X147320255Y-97314935D01*
X147149261Y-97339100D01*
X146973966Y-97351841D01*
X146883159Y-97353990D01*
X146839061Y-97353895D01*
X146791610Y-97353062D01*
X146745306Y-97351615D01*
X146704648Y-97349680D01*
X146687823Y-97348567D01*
X146509291Y-97329020D01*
X146333506Y-97297560D01*
X146160980Y-97254472D01*
X145992226Y-97200043D01*
X145827756Y-97134559D01*
X145668085Y-97058305D01*
X145513725Y-96971568D01*
X145365188Y-96874635D01*
X145222989Y-96767790D01*
X145087639Y-96651321D01*
X144959652Y-96525513D01*
X144839542Y-96390653D01*
X144738262Y-96261315D01*
X144650940Y-96132648D01*
X144571745Y-95995414D01*
X144501234Y-95850868D01*
X144439962Y-95700264D01*
X144388484Y-95544858D01*
X144347356Y-95385904D01*
X144343973Y-95370507D01*
X144317754Y-95227927D01*
X144299044Y-95078939D01*
X144287898Y-94926170D01*
X144284368Y-94772246D01*
X144288509Y-94619796D01*
X144300374Y-94471444D01*
X144320018Y-94329819D01*
X144322380Y-94316308D01*
X144359956Y-94139838D01*
X144408804Y-93968476D01*
X144468808Y-93802415D01*
X144539855Y-93641850D01*
X144621827Y-93486973D01*
X144714611Y-93337978D01*
X144818090Y-93195059D01*
X144932150Y-93058409D01*
X145056676Y-92928223D01*
X145191551Y-92804692D01*
X145252251Y-92754034D01*
X145394607Y-92646059D01*
X145541412Y-92549654D01*
X145692738Y-92464790D01*
X145848652Y-92391435D01*
X146009224Y-92329558D01*
X146174523Y-92279127D01*
X146344619Y-92240111D01*
X146418072Y-92227028D01*
X146580297Y-92205892D01*
X146747512Y-92194324D01*
X146916860Y-92192317D01*
X147085484Y-92199862D01*
X147250529Y-92216950D01*
X147334855Y-92229751D01*
X147506330Y-92264865D01*
X147672530Y-92311203D01*
X147833503Y-92368785D01*
X147989296Y-92437633D01*
X148139958Y-92517769D01*
X148285539Y-92609215D01*
X148426085Y-92711992D01*
X148442754Y-92725199D01*
X148548895Y-92815196D01*
X148654390Y-92914625D01*
X148756526Y-93020690D01*
X148852590Y-93130594D01*
X148927415Y-93224902D01*
X149032009Y-93373186D01*
X149125446Y-93526186D01*
X149207605Y-93683457D01*
X149278366Y-93844558D01*
X149337609Y-94009046D01*
X149385212Y-94176477D01*
X149421056Y-94346410D01*
X149445020Y-94518400D01*
X149456984Y-94692007D01*
X150016084Y-94692007D01*
X150014175Y-94607253D01*
X150002678Y-94446707D01*
X149983038Y-94290921D01*
X149954826Y-94137255D01*
X149917614Y-93983070D01*
X149870973Y-93825728D01*
X149856924Y-93783007D01*
X149793486Y-93609881D01*
X149721349Y-93443458D01*
X149639854Y-93282582D01*
X149548342Y-93126096D01*
X149446155Y-92972841D01*
X149332634Y-92821662D01*
X149256558Y-92728808D01*
X149221117Y-92688449D01*
X149178179Y-92642099D01*
X149129751Y-92591739D01*
X149077836Y-92539349D01*
X149024441Y-92486909D01*
X148971570Y-92436399D01*
X148921230Y-92389800D01*
X148875424Y-92349091D01*
X148851334Y-92328635D01*
X148699480Y-92209423D01*
X148544960Y-92102007D01*
X148387164Y-92006129D01*
X148225483Y-91921532D01*
X148059305Y-91847957D01*
X147888022Y-91785146D01*
X147711024Y-91732841D01*
X147527700Y-91690783D01*
X147337441Y-91658715D01*
X147239727Y-91646369D01*
X147199935Y-91642753D01*
X147150007Y-91639603D01*
X147092204Y-91636952D01*
X147028785Y-91634838D01*
X146962010Y-91633294D01*
X146894137Y-91632356D01*
X146827428Y-91632059D01*
X146764140Y-91632438D01*
G36*
X133449126Y-91651058D02*
G01*
X133391625Y-91652179D01*
X133342152Y-91654052D01*
X133316424Y-91655612D01*
X133115660Y-91675865D01*
X132920799Y-91706998D01*
X132731652Y-91749083D01*
X132548034Y-91802197D01*
X132369758Y-91866414D01*
X132196635Y-91941807D01*
X132028480Y-92028452D01*
X131865105Y-92126424D01*
X131706323Y-92235796D01*
X131551947Y-92356643D01*
X131547459Y-92360382D01*
X131408453Y-92483010D01*
X131275696Y-92613390D01*
X131150637Y-92749922D01*
X131034725Y-92891006D01*
X130929410Y-93035040D01*
X130907935Y-93066772D01*
X130807117Y-93228584D01*
X130717635Y-93394788D01*
X130639404Y-93565638D01*
X130572339Y-93741388D01*
X130516356Y-93922291D01*
X130471369Y-94108602D01*
X130437294Y-94300573D01*
X130414045Y-94498459D01*
X130409330Y-94556798D01*
X130407065Y-94598483D01*
X130405521Y-94649692D01*
X130404663Y-94708226D01*
X130404460Y-94771886D01*
X130404879Y-94838471D01*
X130405888Y-94905783D01*
X130407453Y-94971623D01*
X130409542Y-95033790D01*
X130412122Y-95090085D01*
X130415162Y-95138308D01*
X130418504Y-95175170D01*
X130446460Y-95374747D01*
X130484745Y-95567526D01*
X130533469Y-95753739D01*
X130592741Y-95933618D01*
X130662673Y-96107395D01*
X130743375Y-96275302D01*
X130834956Y-96437569D01*
X130937528Y-96594429D01*
X131051199Y-96746114D01*
X131176082Y-96892854D01*
X131296002Y-97018741D01*
X131445797Y-97160141D01*
X131600263Y-97290056D01*
X131759469Y-97408523D01*
X131923488Y-97515575D01*
X132092390Y-97611248D01*
X132266247Y-97695575D01*
X132445130Y-97768592D01*
X132629111Y-97830333D01*
X132818260Y-97880833D01*
X133012648Y-97920126D01*
X133206475Y-97947588D01*
X133243795Y-97950923D01*
X133291344Y-97953792D01*
X133347005Y-97956175D01*
X133408662Y-97958052D01*
X133474199Y-97959405D01*
X133541498Y-97960213D01*
X133608443Y-97960457D01*
X133672916Y-97960119D01*
X133732803Y-97959177D01*
X133785985Y-97957615D01*
X133830346Y-97955410D01*
X133854497Y-97953525D01*
X134048506Y-97929650D01*
X134235819Y-97895615D01*
X134417171Y-97851193D01*
X134593298Y-97796154D01*
X134764935Y-97730271D01*
X134932815Y-97653315D01*
X135091375Y-97568665D01*
X135250227Y-97471241D01*
X135405021Y-97363131D01*
X135554813Y-97245289D01*
X135698660Y-97118671D01*
X135835620Y-96984232D01*
X135964749Y-96842927D01*
X136085104Y-96695711D01*
X136195743Y-96543540D01*
X136295723Y-96387368D01*
X136348498Y-96295253D01*
X136429020Y-96138195D01*
X136499027Y-95979488D01*
X136558954Y-95817750D01*
X136609239Y-95651596D01*
X136650316Y-95479644D01*
X136682622Y-95300509D01*
X136698425Y-95185342D01*
X136702915Y-95140372D01*
X136706815Y-95085395D01*
X136710077Y-95022796D01*
X136712654Y-94954957D01*
X136714499Y-94884263D01*
X136715141Y-94841433D01*
X136152130Y-94841433D01*
X136151482Y-94904172D01*
X136149964Y-94961771D01*
X136147556Y-95011349D01*
X136145986Y-95032543D01*
X136125162Y-95209014D01*
X136093400Y-95380030D01*
X136050591Y-95545821D01*
X135996625Y-95706618D01*
X135931394Y-95862650D01*
X135854788Y-96014147D01*
X135766700Y-96161340D01*
X135667019Y-96304460D01*
X135555637Y-96443735D01*
X135432444Y-96579396D01*
X135395489Y-96617096D01*
X135317093Y-96693680D01*
X135242366Y-96762159D01*
X135168497Y-96825006D01*
X135092676Y-96884692D01*
X135082687Y-96892229D01*
X134936494Y-96994635D01*
X134786117Y-97085378D01*
X134631538Y-97164464D01*
X134472742Y-97231897D01*
X134309714Y-97287681D01*
X134142438Y-97331821D01*
X133970899Y-97364320D01*
X133795080Y-97385184D01*
X133614966Y-97394417D01*
X133430542Y-97392022D01*
X133321197Y-97385276D01*
X133148438Y-97365420D01*
X132978117Y-97333484D01*
X132810706Y-97289634D01*
X132646681Y-97234036D01*
X132486514Y-97166856D01*
X132330679Y-97088260D01*
X132179650Y-96998414D01*
X132136793Y-96970261D01*
X132049997Y-96909904D01*
X131968592Y-96848706D01*
X131890078Y-96784564D01*
X131811954Y-96715378D01*
X131731720Y-96639047D01*
X131674639Y-96581947D01*
X131581172Y-96483105D01*
X131497764Y-96386730D01*
X131422935Y-96290745D01*
X131355205Y-96193071D01*
X131293094Y-96091630D01*
X131235122Y-95984344D01*
X131203970Y-95921054D01*
X131151327Y-95803047D01*
X131106043Y-95684700D01*
X131067507Y-95563840D01*
X131035109Y-95438295D01*
X131008238Y-95305894D01*
X130986283Y-95164465D01*
X130982032Y-95131762D01*
X130978333Y-95093834D01*
X130975332Y-95045817D01*
X130973028Y-94989816D01*
X130971420Y-94927940D01*
X130970508Y-94862293D01*
X130970292Y-94794983D01*
X130970770Y-94728115D01*
X130971943Y-94663797D01*
X130973810Y-94604133D01*
X130976370Y-94551231D01*
X130979623Y-94507197D01*
X130982185Y-94483740D01*
X131002029Y-94349866D01*
X131025566Y-94225308D01*
X131053464Y-94107354D01*
X131086392Y-93993293D01*
X131125019Y-93880413D01*
X131141888Y-93835825D01*
X131158069Y-93796876D01*
X131179222Y-93750043D01*
X131203954Y-93698088D01*
X131230872Y-93643773D01*
X131258583Y-93589858D01*
X131285693Y-93539105D01*
X131310811Y-93494275D01*
X131331963Y-93459046D01*
X131392902Y-93366427D01*
X131455549Y-93279343D01*
X131522048Y-93195113D01*
X131594542Y-93111056D01*
X131675176Y-93024492D01*
X131699590Y-92999351D01*
X131798364Y-92901816D01*
X131894197Y-92814320D01*
X131988965Y-92735473D01*
X132084543Y-92663885D01*
X132182805Y-92598165D01*
X132285627Y-92536924D01*
X132394884Y-92478770D01*
X132415825Y-92468302D01*
X132534428Y-92412903D01*
X132651206Y-92365414D01*
X132768686Y-92325078D01*
X132889391Y-92291139D01*
X133015849Y-92262838D01*
X133150583Y-92239420D01*
X133206475Y-92231372D01*
X133234069Y-92227752D01*
X133259610Y-92224811D01*
X133284813Y-92222480D01*
X133311392Y-92220689D01*
X133341064Y-92219370D01*
X133375543Y-92218454D01*
X133416545Y-92217872D01*
X133465785Y-92217555D01*
X133524979Y-92217434D01*
X133553740Y-92217425D01*
X133617565Y-92217486D01*
X133670718Y-92217708D01*
X133714928Y-92218164D01*
X133751924Y-92218923D01*
X133783437Y-92220057D01*
X133811196Y-92221635D01*
X133836931Y-92223729D01*
X133862370Y-92226409D01*
X133889245Y-92229746D01*
X133904107Y-92231729D01*
X134080334Y-92260974D01*
X134249329Y-92300060D01*
X134411616Y-92349249D01*
X134567719Y-92408801D01*
X134718163Y-92478978D01*
X134863473Y-92560041D01*
X135004174Y-92652251D01*
X135140790Y-92755869D01*
X135273847Y-92871156D01*
X135364483Y-92958273D01*
X135494764Y-93096492D01*
X135613288Y-93238643D01*
X135720066Y-93384755D01*
X135815114Y-93534854D01*
X135898443Y-93688968D01*
X135970069Y-93847125D01*
X136030003Y-94009351D01*
X136078260Y-94175675D01*
X136114852Y-94346124D01*
X136139794Y-94520725D01*
X136142943Y-94551514D01*
X136146376Y-94596721D01*
X136149030Y-94651198D01*
X136150886Y-94712064D01*
X136151925Y-94776436D01*
X136152130Y-94841433D01*
X136715141Y-94841433D01*
X136715567Y-94813098D01*
X136715809Y-94743845D01*
X136715180Y-94678887D01*
X136713633Y-94620610D01*
X136711120Y-94571396D01*
X136710609Y-94564305D01*
X136689878Y-94365939D01*
X136658098Y-94173114D01*
X136615165Y-93985531D01*
X136560973Y-93802892D01*
X136495416Y-93624901D01*
X136418388Y-93451258D01*
X136329785Y-93281666D01*
X136229500Y-93115828D01*
X136160919Y-93014062D01*
X136039992Y-92852019D01*
X135910071Y-92697885D01*
X135771733Y-92552221D01*
X135625556Y-92415591D01*
X135472116Y-92288554D01*
X135311991Y-92171674D01*
X135260830Y-92137425D01*
X135102197Y-92040007D01*
X134940494Y-91953837D01*
X134774990Y-91878658D01*
X134604960Y-91814211D01*
X134429673Y-91760239D01*
X134248402Y-91716483D01*
X134060419Y-91682688D01*
X133925811Y-91664973D01*
X133885781Y-91661334D01*
X133835626Y-91658168D01*
X133777614Y-91655510D01*
X133714015Y-91653395D01*
X133647098Y-91651857D01*
X133579131Y-91650932D01*
X133512384Y-91650654D01*
X133449126Y-91651058D01*
G37*
X133449126Y-91651058D02*
X133391625Y-91652179D01*
X133342152Y-91654052D01*
X133316424Y-91655612D01*
X133115660Y-91675865D01*
X132920799Y-91706998D01*
X132731652Y-91749083D01*
X132548034Y-91802197D01*
X132369758Y-91866414D01*
X132196635Y-91941807D01*
X132028480Y-92028452D01*
X131865105Y-92126424D01*
X131706323Y-92235796D01*
X131551947Y-92356643D01*
X131547459Y-92360382D01*
X131408453Y-92483010D01*
X131275696Y-92613390D01*
X131150637Y-92749922D01*
X131034725Y-92891006D01*
X130929410Y-93035040D01*
X130907935Y-93066772D01*
X130807117Y-93228584D01*
X130717635Y-93394788D01*
X130639404Y-93565638D01*
X130572339Y-93741388D01*
X130516356Y-93922291D01*
X130471369Y-94108602D01*
X130437294Y-94300573D01*
X130414045Y-94498459D01*
X130409330Y-94556798D01*
X130407065Y-94598483D01*
X130405521Y-94649692D01*
X130404663Y-94708226D01*
X130404460Y-94771886D01*
X130404879Y-94838471D01*
X130405888Y-94905783D01*
X130407453Y-94971623D01*
X130409542Y-95033790D01*
X130412122Y-95090085D01*
X130415162Y-95138308D01*
X130418504Y-95175170D01*
X130446460Y-95374747D01*
X130484745Y-95567526D01*
X130533469Y-95753739D01*
X130592741Y-95933618D01*
X130662673Y-96107395D01*
X130743375Y-96275302D01*
X130834956Y-96437569D01*
X130937528Y-96594429D01*
X131051199Y-96746114D01*
X131176082Y-96892854D01*
X131296002Y-97018741D01*
X131445797Y-97160141D01*
X131600263Y-97290056D01*
X131759469Y-97408523D01*
X131923488Y-97515575D01*
X132092390Y-97611248D01*
X132266247Y-97695575D01*
X132445130Y-97768592D01*
X132629111Y-97830333D01*
X132818260Y-97880833D01*
X133012648Y-97920126D01*
X133206475Y-97947588D01*
X133243795Y-97950923D01*
X133291344Y-97953792D01*
X133347005Y-97956175D01*
X133408662Y-97958052D01*
X133474199Y-97959405D01*
X133541498Y-97960213D01*
X133608443Y-97960457D01*
X133672916Y-97960119D01*
X133732803Y-97959177D01*
X133785985Y-97957615D01*
X133830346Y-97955410D01*
X133854497Y-97953525D01*
X134048506Y-97929650D01*
X134235819Y-97895615D01*
X134417171Y-97851193D01*
X134593298Y-97796154D01*
X134764935Y-97730271D01*
X134932815Y-97653315D01*
X135091375Y-97568665D01*
X135250227Y-97471241D01*
X135405021Y-97363131D01*
X135554813Y-97245289D01*
X135698660Y-97118671D01*
X135835620Y-96984232D01*
X135964749Y-96842927D01*
X136085104Y-96695711D01*
X136195743Y-96543540D01*
X136295723Y-96387368D01*
X136348498Y-96295253D01*
X136429020Y-96138195D01*
X136499027Y-95979488D01*
X136558954Y-95817750D01*
X136609239Y-95651596D01*
X136650316Y-95479644D01*
X136682622Y-95300509D01*
X136698425Y-95185342D01*
X136702915Y-95140372D01*
X136706815Y-95085395D01*
X136710077Y-95022796D01*
X136712654Y-94954957D01*
X136714499Y-94884263D01*
X136715141Y-94841433D01*
X136152130Y-94841433D01*
X136151482Y-94904172D01*
X136149964Y-94961771D01*
X136147556Y-95011349D01*
X136145986Y-95032543D01*
X136125162Y-95209014D01*
X136093400Y-95380030D01*
X136050591Y-95545821D01*
X135996625Y-95706618D01*
X135931394Y-95862650D01*
X135854788Y-96014147D01*
X135766700Y-96161340D01*
X135667019Y-96304460D01*
X135555637Y-96443735D01*
X135432444Y-96579396D01*
X135395489Y-96617096D01*
X135317093Y-96693680D01*
X135242366Y-96762159D01*
X135168497Y-96825006D01*
X135092676Y-96884692D01*
X135082687Y-96892229D01*
X134936494Y-96994635D01*
X134786117Y-97085378D01*
X134631538Y-97164464D01*
X134472742Y-97231897D01*
X134309714Y-97287681D01*
X134142438Y-97331821D01*
X133970899Y-97364320D01*
X133795080Y-97385184D01*
X133614966Y-97394417D01*
X133430542Y-97392022D01*
X133321197Y-97385276D01*
X133148438Y-97365420D01*
X132978117Y-97333484D01*
X132810706Y-97289634D01*
X132646681Y-97234036D01*
X132486514Y-97166856D01*
X132330679Y-97088260D01*
X132179650Y-96998414D01*
X132136793Y-96970261D01*
X132049997Y-96909904D01*
X131968592Y-96848706D01*
X131890078Y-96784564D01*
X131811954Y-96715378D01*
X131731720Y-96639047D01*
X131674639Y-96581947D01*
X131581172Y-96483105D01*
X131497764Y-96386730D01*
X131422935Y-96290745D01*
X131355205Y-96193071D01*
X131293094Y-96091630D01*
X131235122Y-95984344D01*
X131203970Y-95921054D01*
X131151327Y-95803047D01*
X131106043Y-95684700D01*
X131067507Y-95563840D01*
X131035109Y-95438295D01*
X131008238Y-95305894D01*
X130986283Y-95164465D01*
X130982032Y-95131762D01*
X130978333Y-95093834D01*
X130975332Y-95045817D01*
X130973028Y-94989816D01*
X130971420Y-94927940D01*
X130970508Y-94862293D01*
X130970292Y-94794983D01*
X130970770Y-94728115D01*
X130971943Y-94663797D01*
X130973810Y-94604133D01*
X130976370Y-94551231D01*
X130979623Y-94507197D01*
X130982185Y-94483740D01*
X131002029Y-94349866D01*
X131025566Y-94225308D01*
X131053464Y-94107354D01*
X131086392Y-93993293D01*
X131125019Y-93880413D01*
X131141888Y-93835825D01*
X131158069Y-93796876D01*
X131179222Y-93750043D01*
X131203954Y-93698088D01*
X131230872Y-93643773D01*
X131258583Y-93589858D01*
X131285693Y-93539105D01*
X131310811Y-93494275D01*
X131331963Y-93459046D01*
X131392902Y-93366427D01*
X131455549Y-93279343D01*
X131522048Y-93195113D01*
X131594542Y-93111056D01*
X131675176Y-93024492D01*
X131699590Y-92999351D01*
X131798364Y-92901816D01*
X131894197Y-92814320D01*
X131988965Y-92735473D01*
X132084543Y-92663885D01*
X132182805Y-92598165D01*
X132285627Y-92536924D01*
X132394884Y-92478770D01*
X132415825Y-92468302D01*
X132534428Y-92412903D01*
X132651206Y-92365414D01*
X132768686Y-92325078D01*
X132889391Y-92291139D01*
X133015849Y-92262838D01*
X133150583Y-92239420D01*
X133206475Y-92231372D01*
X133234069Y-92227752D01*
X133259610Y-92224811D01*
X133284813Y-92222480D01*
X133311392Y-92220689D01*
X133341064Y-92219370D01*
X133375543Y-92218454D01*
X133416545Y-92217872D01*
X133465785Y-92217555D01*
X133524979Y-92217434D01*
X133553740Y-92217425D01*
X133617565Y-92217486D01*
X133670718Y-92217708D01*
X133714928Y-92218164D01*
X133751924Y-92218923D01*
X133783437Y-92220057D01*
X133811196Y-92221635D01*
X133836931Y-92223729D01*
X133862370Y-92226409D01*
X133889245Y-92229746D01*
X133904107Y-92231729D01*
X134080334Y-92260974D01*
X134249329Y-92300060D01*
X134411616Y-92349249D01*
X134567719Y-92408801D01*
X134718163Y-92478978D01*
X134863473Y-92560041D01*
X135004174Y-92652251D01*
X135140790Y-92755869D01*
X135273847Y-92871156D01*
X135364483Y-92958273D01*
X135494764Y-93096492D01*
X135613288Y-93238643D01*
X135720066Y-93384755D01*
X135815114Y-93534854D01*
X135898443Y-93688968D01*
X135970069Y-93847125D01*
X136030003Y-94009351D01*
X136078260Y-94175675D01*
X136114852Y-94346124D01*
X136139794Y-94520725D01*
X136142943Y-94551514D01*
X136146376Y-94596721D01*
X136149030Y-94651198D01*
X136150886Y-94712064D01*
X136151925Y-94776436D01*
X136152130Y-94841433D01*
X136715141Y-94841433D01*
X136715567Y-94813098D01*
X136715809Y-94743845D01*
X136715180Y-94678887D01*
X136713633Y-94620610D01*
X136711120Y-94571396D01*
X136710609Y-94564305D01*
X136689878Y-94365939D01*
X136658098Y-94173114D01*
X136615165Y-93985531D01*
X136560973Y-93802892D01*
X136495416Y-93624901D01*
X136418388Y-93451258D01*
X136329785Y-93281666D01*
X136229500Y-93115828D01*
X136160919Y-93014062D01*
X136039992Y-92852019D01*
X135910071Y-92697885D01*
X135771733Y-92552221D01*
X135625556Y-92415591D01*
X135472116Y-92288554D01*
X135311991Y-92171674D01*
X135260830Y-92137425D01*
X135102197Y-92040007D01*
X134940494Y-91953837D01*
X134774990Y-91878658D01*
X134604960Y-91814211D01*
X134429673Y-91760239D01*
X134248402Y-91716483D01*
X134060419Y-91682688D01*
X133925811Y-91664973D01*
X133885781Y-91661334D01*
X133835626Y-91658168D01*
X133777614Y-91655510D01*
X133714015Y-91653395D01*
X133647098Y-91651857D01*
X133579131Y-91650932D01*
X133512384Y-91650654D01*
X133449126Y-91651058D01*
D11*
G36*
X181233704Y-88992549D02*
G01*
X181470470Y-89090621D01*
X181470472Y-89090622D01*
X181683556Y-89233000D01*
X181864770Y-89414214D01*
X182007149Y-89627300D01*
X182105221Y-89864066D01*
X182155217Y-90115414D01*
X182155217Y-90371692D01*
X182105221Y-90623040D01*
X182007149Y-90859806D01*
X182007148Y-90859808D01*
X181864770Y-91072892D01*
X181683556Y-91254106D01*
X181470472Y-91396484D01*
X181470471Y-91396485D01*
X181470470Y-91396485D01*
X181233704Y-91494557D01*
X180982356Y-91544553D01*
X180726078Y-91544553D01*
X180474730Y-91494557D01*
X180237964Y-91396485D01*
X180237963Y-91396485D01*
X180237962Y-91396484D01*
X180024878Y-91254106D01*
X179843664Y-91072892D01*
X179701286Y-90859808D01*
X179701285Y-90859806D01*
X179603213Y-90623040D01*
X179553217Y-90371692D01*
X179553217Y-90115414D01*
X179603213Y-89864066D01*
X179701285Y-89627300D01*
X179843664Y-89414214D01*
X180024878Y-89233000D01*
X180237962Y-89090622D01*
X180237964Y-89090621D01*
X180474730Y-88992549D01*
X180726078Y-88942553D01*
X180982356Y-88942553D01*
X181233704Y-88992549D01*
G37*
G36*
X191955481Y-86119658D02*
G01*
X192192247Y-86217730D01*
X192192249Y-86217731D01*
X192405333Y-86360109D01*
X192586547Y-86541323D01*
X192728926Y-86754409D01*
X192826998Y-86991175D01*
X192876994Y-87242523D01*
X192876994Y-87498801D01*
X192826998Y-87750149D01*
X192728926Y-87986915D01*
X192728925Y-87986917D01*
X192586547Y-88200001D01*
X192405333Y-88381215D01*
X192192249Y-88523593D01*
X192192248Y-88523594D01*
X192192247Y-88523594D01*
X191955481Y-88621666D01*
X191704133Y-88671662D01*
X191447855Y-88671662D01*
X191196507Y-88621666D01*
X190959741Y-88523594D01*
X190959740Y-88523594D01*
X190959739Y-88523593D01*
X190746655Y-88381215D01*
X190565441Y-88200001D01*
X190423063Y-87986917D01*
X190423062Y-87986915D01*
X190324990Y-87750149D01*
X190274994Y-87498801D01*
X190274994Y-87242523D01*
X190324990Y-86991175D01*
X190423062Y-86754409D01*
X190565441Y-86541323D01*
X190746655Y-86360109D01*
X190959739Y-86217731D01*
X190959741Y-86217730D01*
X191196507Y-86119658D01*
X191447855Y-86069662D01*
X191704133Y-86069662D01*
X191955481Y-86119658D01*
G37*
G36*
X176257710Y-86119658D02*
G01*
X176494476Y-86217730D01*
X176494478Y-86217731D01*
X176707562Y-86360109D01*
X176888776Y-86541323D01*
X177031155Y-86754409D01*
X177129227Y-86991175D01*
X177179223Y-87242523D01*
X177179223Y-87498801D01*
X177129227Y-87750149D01*
X177031155Y-87986915D01*
X177031154Y-87986917D01*
X176888776Y-88200001D01*
X176707562Y-88381215D01*
X176494478Y-88523593D01*
X176494477Y-88523594D01*
X176494476Y-88523594D01*
X176257710Y-88621666D01*
X176006362Y-88671662D01*
X175750084Y-88671662D01*
X175498736Y-88621666D01*
X175261970Y-88523594D01*
X175261969Y-88523594D01*
X175261968Y-88523593D01*
X175048884Y-88381215D01*
X174867670Y-88200001D01*
X174725292Y-87986917D01*
X174725291Y-87986915D01*
X174627219Y-87750149D01*
X174577223Y-87498801D01*
X174577223Y-87242523D01*
X174627219Y-86991175D01*
X174725291Y-86754409D01*
X174867670Y-86541323D01*
X175048884Y-86360109D01*
X175261968Y-86217731D01*
X175261970Y-86217730D01*
X175498736Y-86119658D01*
X175750084Y-86069662D01*
X176006362Y-86069662D01*
X176257710Y-86119658D01*
G37*
G36*
X124153041Y-82823560D02*
G01*
X124417105Y-82932939D01*
X124654758Y-83091734D01*
X124856866Y-83293842D01*
X125015661Y-83531495D01*
X125125040Y-83795559D01*
X125180800Y-84075888D01*
X125180800Y-84361712D01*
X125125040Y-84642041D01*
X125015661Y-84906105D01*
X124856866Y-85143758D01*
X124654758Y-85345866D01*
X124417105Y-85504661D01*
X124153041Y-85614040D01*
X123872712Y-85669800D01*
X123586888Y-85669800D01*
X123306559Y-85614040D01*
X123042495Y-85504661D01*
X122804842Y-85345866D01*
X122602734Y-85143758D01*
X122443939Y-84906105D01*
X122334560Y-84642041D01*
X122278800Y-84361712D01*
X122278800Y-84075888D01*
X122334560Y-83795559D01*
X122443939Y-83531495D01*
X122602734Y-83293842D01*
X122804842Y-83091734D01*
X123042495Y-82932939D01*
X123306559Y-82823560D01*
X123586888Y-82767800D01*
X123872712Y-82767800D01*
X124153041Y-82823560D01*
G37*
G36*
X194828372Y-81143664D02*
G01*
X195065138Y-81241736D01*
X195065140Y-81241737D01*
X195278224Y-81384115D01*
X195459438Y-81565329D01*
X195601817Y-81778415D01*
X195699889Y-82015181D01*
X195749885Y-82266529D01*
X195749885Y-82522807D01*
X195699889Y-82774155D01*
X195679424Y-82823561D01*
X195601816Y-83010923D01*
X195459438Y-83224007D01*
X195278224Y-83405221D01*
X195065140Y-83547599D01*
X195065139Y-83547600D01*
X195065138Y-83547600D01*
X194828372Y-83645672D01*
X194577024Y-83695668D01*
X194320746Y-83695668D01*
X194069398Y-83645672D01*
X193832632Y-83547600D01*
X193832631Y-83547600D01*
X193832630Y-83547599D01*
X193619546Y-83405221D01*
X193438332Y-83224007D01*
X193295954Y-83010923D01*
X193218346Y-82823561D01*
X193197881Y-82774155D01*
X193147885Y-82522807D01*
X193147885Y-82266529D01*
X193197881Y-82015181D01*
X193295953Y-81778415D01*
X193438332Y-81565329D01*
X193619546Y-81384115D01*
X193832630Y-81241737D01*
X193832632Y-81241736D01*
X194069398Y-81143664D01*
X194320746Y-81093668D01*
X194577024Y-81093668D01*
X194828372Y-81143664D01*
G37*
G36*
X124153041Y-78123560D02*
G01*
X124417105Y-78232939D01*
X124654758Y-78391734D01*
X124856866Y-78593842D01*
X125015661Y-78831495D01*
X125125040Y-79095559D01*
X125180800Y-79375888D01*
X125180800Y-79661712D01*
X125125040Y-79942041D01*
X125015661Y-80206105D01*
X124856866Y-80443758D01*
X124654758Y-80645866D01*
X124417105Y-80804661D01*
X124153041Y-80914040D01*
X123872712Y-80969800D01*
X123586888Y-80969800D01*
X123306559Y-80914040D01*
X123042495Y-80804661D01*
X122804842Y-80645866D01*
X122602734Y-80443758D01*
X122443939Y-80206105D01*
X122334560Y-79942041D01*
X122278800Y-79661712D01*
X122278800Y-79375888D01*
X122334560Y-79095559D01*
X122443939Y-78831495D01*
X122602734Y-78593842D01*
X122804842Y-78391734D01*
X123042495Y-78232939D01*
X123306559Y-78123560D01*
X123586888Y-78067800D01*
X123872712Y-78067800D01*
X124153041Y-78123560D01*
G37*
G36*
X186828957Y-75548412D02*
G01*
X187046042Y-75638332D01*
X187065725Y-75646485D01*
X187278809Y-75788863D01*
X187460023Y-75970077D01*
X187501820Y-76032630D01*
X187602402Y-76183163D01*
X187700474Y-76419929D01*
X187750470Y-76671277D01*
X187750470Y-76927555D01*
X187700474Y-77178903D01*
X187664754Y-77265138D01*
X187602401Y-77415671D01*
X187460023Y-77628755D01*
X187278809Y-77809969D01*
X187065725Y-77952347D01*
X187065724Y-77952348D01*
X187065723Y-77952348D01*
X186828957Y-78050420D01*
X186577609Y-78100416D01*
X186321331Y-78100416D01*
X186069983Y-78050420D01*
X185833217Y-77952348D01*
X185833216Y-77952348D01*
X185833215Y-77952347D01*
X185620131Y-77809969D01*
X185438917Y-77628755D01*
X185296539Y-77415671D01*
X185234186Y-77265138D01*
X185198466Y-77178903D01*
X185148470Y-76927555D01*
X185148470Y-76671277D01*
X185198466Y-76419929D01*
X185296538Y-76183163D01*
X185397121Y-76032630D01*
X185438917Y-75970077D01*
X185620131Y-75788863D01*
X185833215Y-75646485D01*
X185852898Y-75638332D01*
X186069983Y-75548412D01*
X186321331Y-75498416D01*
X186577609Y-75498416D01*
X186828957Y-75548412D01*
G37*
G36*
X173384819Y-75397881D02*
G01*
X173621585Y-75495953D01*
X173621587Y-75495954D01*
X173834671Y-75638332D01*
X174015885Y-75819546D01*
X174158264Y-76032632D01*
X174256336Y-76269398D01*
X174306332Y-76520746D01*
X174306332Y-76777024D01*
X174256336Y-77028372D01*
X174193983Y-77178904D01*
X174158263Y-77265140D01*
X174015885Y-77478224D01*
X173834671Y-77659438D01*
X173621587Y-77801816D01*
X173621586Y-77801817D01*
X173621585Y-77801817D01*
X173384819Y-77899889D01*
X173133471Y-77949885D01*
X172877193Y-77949885D01*
X172625845Y-77899889D01*
X172389079Y-77801817D01*
X172389078Y-77801817D01*
X172389077Y-77801816D01*
X172175993Y-77659438D01*
X171994779Y-77478224D01*
X171852401Y-77265140D01*
X171816681Y-77178904D01*
X171754328Y-77028372D01*
X171704332Y-76777024D01*
X171704332Y-76520746D01*
X171754328Y-76269398D01*
X171852400Y-76032632D01*
X171994779Y-75819546D01*
X172175993Y-75638332D01*
X172389077Y-75495954D01*
X172389079Y-75495953D01*
X172625845Y-75397881D01*
X172877193Y-75347885D01*
X173133471Y-75347885D01*
X173384819Y-75397881D01*
G37*
G36*
X125180800Y-76269800D02*
G01*
X122278800Y-76269800D01*
X122278800Y-73367800D01*
X125180800Y-73367800D01*
X125180800Y-76269800D01*
G37*
G36*
X176257710Y-70421887D02*
G01*
X176494476Y-70519959D01*
X176494478Y-70519960D01*
X176707562Y-70662338D01*
X176888776Y-70843552D01*
X177031155Y-71056638D01*
X177129227Y-71293404D01*
X177179223Y-71544752D01*
X177179223Y-71801030D01*
X177129227Y-72052378D01*
X177031155Y-72289144D01*
X177031154Y-72289146D01*
X176888776Y-72502230D01*
X176707562Y-72683444D01*
X176494478Y-72825822D01*
X176494477Y-72825823D01*
X176494476Y-72825823D01*
X176257710Y-72923895D01*
X176006362Y-72973891D01*
X175750084Y-72973891D01*
X175498736Y-72923895D01*
X175261970Y-72825823D01*
X175261969Y-72825823D01*
X175261968Y-72825822D01*
X175048884Y-72683444D01*
X174867670Y-72502230D01*
X174725292Y-72289146D01*
X174725291Y-72289144D01*
X174627219Y-72052378D01*
X174577223Y-71801030D01*
X174577223Y-71544752D01*
X174627219Y-71293404D01*
X174725291Y-71056638D01*
X174867670Y-70843552D01*
X175048884Y-70662338D01*
X175261968Y-70519960D01*
X175261970Y-70519959D01*
X175498736Y-70421887D01*
X175750084Y-70371891D01*
X176006362Y-70371891D01*
X176257710Y-70421887D01*
G37*
G36*
X191955481Y-70421887D02*
G01*
X192192247Y-70519959D01*
X192192249Y-70519960D01*
X192405333Y-70662338D01*
X192586547Y-70843552D01*
X192728926Y-71056638D01*
X192826998Y-71293404D01*
X192876994Y-71544752D01*
X192876994Y-71801030D01*
X192826998Y-72052378D01*
X192728926Y-72289144D01*
X192728925Y-72289146D01*
X192586547Y-72502230D01*
X192405333Y-72683444D01*
X192192249Y-72825822D01*
X192192248Y-72825823D01*
X192192247Y-72825823D01*
X191955481Y-72923895D01*
X191704133Y-72973891D01*
X191447855Y-72973891D01*
X191196507Y-72923895D01*
X190959741Y-72825823D01*
X190959740Y-72825823D01*
X190959739Y-72825822D01*
X190746655Y-72683444D01*
X190565441Y-72502230D01*
X190423063Y-72289146D01*
X190423062Y-72289144D01*
X190324990Y-72052378D01*
X190274994Y-71801030D01*
X190274994Y-71544752D01*
X190324990Y-71293404D01*
X190423062Y-71056638D01*
X190565441Y-70843552D01*
X190746655Y-70662338D01*
X190959739Y-70519960D01*
X190959741Y-70519959D01*
X191196507Y-70421887D01*
X191447855Y-70371891D01*
X191704133Y-70371891D01*
X191955481Y-70421887D01*
G37*
G36*
X187901000Y-70101000D02*
G01*
X185299000Y-70101000D01*
X185299000Y-67499000D01*
X187901000Y-67499000D01*
X187901000Y-70101000D01*
G37*
G36*
X173940547Y-58232326D02*
G01*
X174114156Y-58284990D01*
X174114158Y-58284991D01*
X174274155Y-58370511D01*
X174414397Y-58485603D01*
X174462450Y-58544157D01*
X174529489Y-58625844D01*
X174615010Y-58785843D01*
X174667674Y-58959452D01*
X174681000Y-59094756D01*
X174681000Y-59585243D01*
X174667674Y-59720548D01*
X174615010Y-59894157D01*
X174529489Y-60054156D01*
X174493729Y-60097729D01*
X174414397Y-60194397D01*
X174317729Y-60273729D01*
X174274156Y-60309489D01*
X174114157Y-60395010D01*
X173940548Y-60447674D01*
X173760000Y-60465456D01*
X173579453Y-60447674D01*
X173405844Y-60395010D01*
X173245845Y-60309489D01*
X173202272Y-60273729D01*
X173105604Y-60194397D01*
X173035756Y-60109286D01*
X172990511Y-60054156D01*
X172904990Y-59894157D01*
X172852326Y-59720548D01*
X172839000Y-59585244D01*
X172839000Y-59094757D01*
X172852326Y-58959453D01*
X172904990Y-58785844D01*
X172990511Y-58625845D01*
X172990512Y-58625844D01*
X173105603Y-58485603D01*
X173202271Y-58406271D01*
X173245844Y-58370511D01*
X173405843Y-58284990D01*
X173579452Y-58232326D01*
X173760000Y-58214544D01*
X173940547Y-58232326D01*
G37*
G36*
X171400547Y-58232326D02*
G01*
X171574156Y-58284990D01*
X171574158Y-58284991D01*
X171734155Y-58370511D01*
X171874397Y-58485603D01*
X171922450Y-58544157D01*
X171989489Y-58625844D01*
X172075010Y-58785843D01*
X172127674Y-58959452D01*
X172141000Y-59094756D01*
X172141000Y-59585243D01*
X172127674Y-59720548D01*
X172075010Y-59894157D01*
X171989489Y-60054156D01*
X171953729Y-60097729D01*
X171874397Y-60194397D01*
X171777729Y-60273729D01*
X171734156Y-60309489D01*
X171574157Y-60395010D01*
X171400548Y-60447674D01*
X171220000Y-60465456D01*
X171039453Y-60447674D01*
X170865844Y-60395010D01*
X170705845Y-60309489D01*
X170662272Y-60273729D01*
X170565604Y-60194397D01*
X170495756Y-60109286D01*
X170450511Y-60054156D01*
X170364990Y-59894157D01*
X170312326Y-59720548D01*
X170299000Y-59585244D01*
X170299000Y-59094757D01*
X170312326Y-58959453D01*
X170364990Y-58785844D01*
X170450511Y-58625845D01*
X170450512Y-58625844D01*
X170565603Y-58485603D01*
X170662271Y-58406271D01*
X170705844Y-58370511D01*
X170865843Y-58284990D01*
X171039452Y-58232326D01*
X171220000Y-58214544D01*
X171400547Y-58232326D01*
G37*
G36*
X166320547Y-58232326D02*
G01*
X166494156Y-58284990D01*
X166494158Y-58284991D01*
X166654155Y-58370511D01*
X166794397Y-58485603D01*
X166842450Y-58544157D01*
X166909489Y-58625844D01*
X166995010Y-58785843D01*
X167047674Y-58959452D01*
X167061000Y-59094756D01*
X167061000Y-59585243D01*
X167047674Y-59720548D01*
X166995010Y-59894157D01*
X166909489Y-60054156D01*
X166873729Y-60097729D01*
X166794397Y-60194397D01*
X166697729Y-60273729D01*
X166654156Y-60309489D01*
X166494157Y-60395010D01*
X166320548Y-60447674D01*
X166140000Y-60465456D01*
X165959453Y-60447674D01*
X165785844Y-60395010D01*
X165625845Y-60309489D01*
X165582272Y-60273729D01*
X165485604Y-60194397D01*
X165415756Y-60109286D01*
X165370511Y-60054156D01*
X165284990Y-59894157D01*
X165232326Y-59720548D01*
X165219000Y-59585244D01*
X165219000Y-59094757D01*
X165232326Y-58959453D01*
X165284990Y-58785844D01*
X165370511Y-58625845D01*
X165370512Y-58625844D01*
X165485603Y-58485603D01*
X165582271Y-58406271D01*
X165625844Y-58370511D01*
X165785843Y-58284990D01*
X165959452Y-58232326D01*
X166140000Y-58214544D01*
X166320547Y-58232326D01*
G37*
G36*
X185780547Y-58232326D02*
G01*
X185954156Y-58284990D01*
X185954158Y-58284991D01*
X186114155Y-58370511D01*
X186254397Y-58485603D01*
X186302450Y-58544157D01*
X186369489Y-58625844D01*
X186455010Y-58785843D01*
X186507674Y-58959452D01*
X186521000Y-59094756D01*
X186521000Y-59585243D01*
X186507674Y-59720548D01*
X186455010Y-59894157D01*
X186369489Y-60054156D01*
X186333729Y-60097729D01*
X186254397Y-60194397D01*
X186157729Y-60273729D01*
X186114156Y-60309489D01*
X185954157Y-60395010D01*
X185780548Y-60447674D01*
X185600000Y-60465456D01*
X185419453Y-60447674D01*
X185245844Y-60395010D01*
X185085845Y-60309489D01*
X185042272Y-60273729D01*
X184945604Y-60194397D01*
X184875756Y-60109286D01*
X184830511Y-60054156D01*
X184744990Y-59894157D01*
X184692326Y-59720548D01*
X184679000Y-59585244D01*
X184679000Y-59094757D01*
X184692326Y-58959453D01*
X184744990Y-58785844D01*
X184830511Y-58625845D01*
X184830512Y-58625844D01*
X184945603Y-58485603D01*
X185042271Y-58406271D01*
X185085844Y-58370511D01*
X185245843Y-58284990D01*
X185419452Y-58232326D01*
X185600000Y-58214544D01*
X185780547Y-58232326D01*
G37*
G36*
X188320547Y-58232326D02*
G01*
X188494156Y-58284990D01*
X188494158Y-58284991D01*
X188654155Y-58370511D01*
X188794397Y-58485603D01*
X188842450Y-58544157D01*
X188909489Y-58625844D01*
X188995010Y-58785843D01*
X189047674Y-58959452D01*
X189061000Y-59094756D01*
X189061000Y-59585243D01*
X189047674Y-59720548D01*
X188995010Y-59894157D01*
X188909489Y-60054156D01*
X188873729Y-60097729D01*
X188794397Y-60194397D01*
X188697729Y-60273729D01*
X188654156Y-60309489D01*
X188494157Y-60395010D01*
X188320548Y-60447674D01*
X188140000Y-60465456D01*
X187959453Y-60447674D01*
X187785844Y-60395010D01*
X187625845Y-60309489D01*
X187582272Y-60273729D01*
X187485604Y-60194397D01*
X187415756Y-60109286D01*
X187370511Y-60054156D01*
X187284990Y-59894157D01*
X187232326Y-59720548D01*
X187219000Y-59585244D01*
X187219000Y-59094757D01*
X187232326Y-58959453D01*
X187284990Y-58785844D01*
X187370511Y-58625845D01*
X187370512Y-58625844D01*
X187485603Y-58485603D01*
X187582271Y-58406271D01*
X187625844Y-58370511D01*
X187785843Y-58284990D01*
X187959452Y-58232326D01*
X188140000Y-58214544D01*
X188320547Y-58232326D01*
G37*
G36*
X193400547Y-58232326D02*
G01*
X193574156Y-58284990D01*
X193574158Y-58284991D01*
X193734155Y-58370511D01*
X193874397Y-58485603D01*
X193922450Y-58544157D01*
X193989489Y-58625844D01*
X194075010Y-58785843D01*
X194127674Y-58959452D01*
X194141000Y-59094756D01*
X194141000Y-59585243D01*
X194127674Y-59720548D01*
X194075010Y-59894157D01*
X193989489Y-60054156D01*
X193953729Y-60097729D01*
X193874397Y-60194397D01*
X193777729Y-60273729D01*
X193734156Y-60309489D01*
X193574157Y-60395010D01*
X193400548Y-60447674D01*
X193220000Y-60465456D01*
X193039453Y-60447674D01*
X192865844Y-60395010D01*
X192705845Y-60309489D01*
X192662272Y-60273729D01*
X192565604Y-60194397D01*
X192495756Y-60109286D01*
X192450511Y-60054156D01*
X192364990Y-59894157D01*
X192312326Y-59720548D01*
X192299000Y-59585244D01*
X192299000Y-59094757D01*
X192312326Y-58959453D01*
X192364990Y-58785844D01*
X192450511Y-58625845D01*
X192450512Y-58625844D01*
X192565603Y-58485603D01*
X192662271Y-58406271D01*
X192705844Y-58370511D01*
X192865843Y-58284990D01*
X193039452Y-58232326D01*
X193220000Y-58214544D01*
X193400547Y-58232326D01*
G37*
G36*
X195940547Y-58232326D02*
G01*
X196114156Y-58284990D01*
X196114158Y-58284991D01*
X196274155Y-58370511D01*
X196414397Y-58485603D01*
X196462450Y-58544157D01*
X196529489Y-58625844D01*
X196615010Y-58785843D01*
X196667674Y-58959452D01*
X196681000Y-59094756D01*
X196681000Y-59585243D01*
X196667674Y-59720548D01*
X196615010Y-59894157D01*
X196529489Y-60054156D01*
X196493729Y-60097729D01*
X196414397Y-60194397D01*
X196317729Y-60273729D01*
X196274156Y-60309489D01*
X196114157Y-60395010D01*
X195940548Y-60447674D01*
X195760000Y-60465456D01*
X195579453Y-60447674D01*
X195405844Y-60395010D01*
X195245845Y-60309489D01*
X195202272Y-60273729D01*
X195105604Y-60194397D01*
X195035756Y-60109286D01*
X194990511Y-60054156D01*
X194904990Y-59894157D01*
X194852326Y-59720548D01*
X194839000Y-59585244D01*
X194839000Y-59094757D01*
X194852326Y-58959453D01*
X194904990Y-58785844D01*
X194990511Y-58625845D01*
X194990512Y-58625844D01*
X195105603Y-58485603D01*
X195202271Y-58406271D01*
X195245844Y-58370511D01*
X195405843Y-58284990D01*
X195579452Y-58232326D01*
X195760000Y-58214544D01*
X195940547Y-58232326D01*
G37*
G36*
X163780547Y-58232326D02*
G01*
X163954156Y-58284990D01*
X163954158Y-58284991D01*
X164114155Y-58370511D01*
X164254397Y-58485603D01*
X164302450Y-58544157D01*
X164369489Y-58625844D01*
X164455010Y-58785843D01*
X164507674Y-58959452D01*
X164521000Y-59094756D01*
X164521000Y-59585243D01*
X164507674Y-59720548D01*
X164455010Y-59894157D01*
X164369489Y-60054156D01*
X164333729Y-60097729D01*
X164254397Y-60194397D01*
X164157729Y-60273729D01*
X164114156Y-60309489D01*
X163954157Y-60395010D01*
X163780548Y-60447674D01*
X163600000Y-60465456D01*
X163419453Y-60447674D01*
X163245844Y-60395010D01*
X163085845Y-60309489D01*
X163042272Y-60273729D01*
X162945604Y-60194397D01*
X162875756Y-60109286D01*
X162830511Y-60054156D01*
X162744990Y-59894157D01*
X162692326Y-59720548D01*
X162679000Y-59585244D01*
X162679000Y-59094757D01*
X162692326Y-58959453D01*
X162744990Y-58785844D01*
X162830511Y-58625845D01*
X162830512Y-58625844D01*
X162945603Y-58485603D01*
X163042271Y-58406271D01*
X163085844Y-58370511D01*
X163245843Y-58284990D01*
X163419452Y-58232326D01*
X163600000Y-58214544D01*
X163780547Y-58232326D01*
G37*
G36*
X190860547Y-58232326D02*
G01*
X191034156Y-58284990D01*
X191034158Y-58284991D01*
X191194155Y-58370511D01*
X191334397Y-58485603D01*
X191382450Y-58544157D01*
X191449489Y-58625844D01*
X191535010Y-58785843D01*
X191587674Y-58959452D01*
X191601000Y-59094756D01*
X191601000Y-59585243D01*
X191587674Y-59720548D01*
X191535010Y-59894157D01*
X191449489Y-60054156D01*
X191413729Y-60097729D01*
X191334397Y-60194397D01*
X191237729Y-60273729D01*
X191194156Y-60309489D01*
X191034157Y-60395010D01*
X190860548Y-60447674D01*
X190680000Y-60465456D01*
X190499453Y-60447674D01*
X190325844Y-60395010D01*
X190165845Y-60309489D01*
X190122272Y-60273729D01*
X190025604Y-60194397D01*
X189955756Y-60109286D01*
X189910511Y-60054156D01*
X189824990Y-59894157D01*
X189772326Y-59720548D01*
X189759000Y-59585244D01*
X189759000Y-59094757D01*
X189772326Y-58959453D01*
X189824990Y-58785844D01*
X189910511Y-58625845D01*
X189910512Y-58625844D01*
X190025603Y-58485603D01*
X190122271Y-58406271D01*
X190165844Y-58370511D01*
X190325843Y-58284990D01*
X190499452Y-58232326D01*
X190680000Y-58214544D01*
X190860547Y-58232326D01*
G37*
G36*
X168860547Y-58232326D02*
G01*
X169034156Y-58284990D01*
X169034158Y-58284991D01*
X169194155Y-58370511D01*
X169334397Y-58485603D01*
X169382450Y-58544157D01*
X169449489Y-58625844D01*
X169535010Y-58785843D01*
X169587674Y-58959452D01*
X169601000Y-59094756D01*
X169601000Y-59585243D01*
X169587674Y-59720548D01*
X169535010Y-59894157D01*
X169449489Y-60054156D01*
X169413729Y-60097729D01*
X169334397Y-60194397D01*
X169237729Y-60273729D01*
X169194156Y-60309489D01*
X169034157Y-60395010D01*
X168860548Y-60447674D01*
X168680000Y-60465456D01*
X168499453Y-60447674D01*
X168325844Y-60395010D01*
X168165845Y-60309489D01*
X168122272Y-60273729D01*
X168025604Y-60194397D01*
X167955756Y-60109286D01*
X167910511Y-60054156D01*
X167824990Y-59894157D01*
X167772326Y-59720548D01*
X167759000Y-59585244D01*
X167759000Y-59094757D01*
X167772326Y-58959453D01*
X167824990Y-58785844D01*
X167910511Y-58625845D01*
X167910512Y-58625844D01*
X168025603Y-58485603D01*
X168122271Y-58406271D01*
X168165844Y-58370511D01*
X168325843Y-58284990D01*
X168499452Y-58232326D01*
X168680000Y-58214544D01*
X168860547Y-58232326D01*
G37*
G36*
X123320547Y-56662326D02*
G01*
X123494156Y-56714990D01*
X123494158Y-56714991D01*
X123654155Y-56800511D01*
X123794397Y-56915603D01*
X123873729Y-57012271D01*
X123909489Y-57055844D01*
X123995010Y-57215843D01*
X124047674Y-57389452D01*
X124061000Y-57524756D01*
X124061000Y-58075243D01*
X124047674Y-58210548D01*
X123995010Y-58384157D01*
X123909489Y-58544156D01*
X123873729Y-58587729D01*
X123794397Y-58684397D01*
X123697729Y-58763729D01*
X123654156Y-58799489D01*
X123494157Y-58885010D01*
X123320548Y-58937674D01*
X123140000Y-58955456D01*
X122959453Y-58937674D01*
X122785844Y-58885010D01*
X122625845Y-58799489D01*
X122582272Y-58763729D01*
X122485604Y-58684397D01*
X122370513Y-58544157D01*
X122370512Y-58544155D01*
X122284990Y-58384157D01*
X122232326Y-58210548D01*
X122219000Y-58075244D01*
X122219000Y-57524757D01*
X122232326Y-57389453D01*
X122284990Y-57215844D01*
X122370511Y-57055845D01*
X122379212Y-57045243D01*
X122485603Y-56915603D01*
X122611388Y-56812375D01*
X122625844Y-56800511D01*
X122785843Y-56714990D01*
X122959452Y-56662326D01*
X123140000Y-56644544D01*
X123320547Y-56662326D01*
G37*
G36*
X151820547Y-56662326D02*
G01*
X151994156Y-56714990D01*
X151994158Y-56714991D01*
X152154155Y-56800511D01*
X152294397Y-56915603D01*
X152373729Y-57012271D01*
X152409489Y-57055844D01*
X152495010Y-57215843D01*
X152547674Y-57389452D01*
X152561000Y-57524756D01*
X152561000Y-58075243D01*
X152547674Y-58210548D01*
X152495010Y-58384157D01*
X152409489Y-58544156D01*
X152373729Y-58587729D01*
X152294397Y-58684397D01*
X152197729Y-58763729D01*
X152154156Y-58799489D01*
X151994157Y-58885010D01*
X151820548Y-58937674D01*
X151640000Y-58955456D01*
X151459453Y-58937674D01*
X151285844Y-58885010D01*
X151125845Y-58799489D01*
X151082272Y-58763729D01*
X150985604Y-58684397D01*
X150870513Y-58544157D01*
X150870512Y-58544155D01*
X150784990Y-58384157D01*
X150732326Y-58210548D01*
X150719000Y-58075244D01*
X150719000Y-57524757D01*
X150732326Y-57389453D01*
X150784990Y-57215844D01*
X150870511Y-57055845D01*
X150879212Y-57045243D01*
X150985603Y-56915603D01*
X151111388Y-56812375D01*
X151125844Y-56800511D01*
X151285843Y-56714990D01*
X151459452Y-56662326D01*
X151640000Y-56644544D01*
X151820547Y-56662326D01*
G37*
G36*
X149879561Y-56652966D02*
G01*
X149912383Y-56662923D01*
X149942632Y-56679092D01*
X149969148Y-56700852D01*
X149990908Y-56727368D01*
X150007077Y-56757617D01*
X150017034Y-56790439D01*
X150021000Y-56830713D01*
X150021000Y-58769287D01*
X150017034Y-58809561D01*
X150007077Y-58842383D01*
X149990908Y-58872632D01*
X149969148Y-58899148D01*
X149942632Y-58920908D01*
X149912383Y-58937077D01*
X149879561Y-58947034D01*
X149839287Y-58951000D01*
X148360713Y-58951000D01*
X148320439Y-58947034D01*
X148287617Y-58937077D01*
X148257368Y-58920908D01*
X148230852Y-58899148D01*
X148209092Y-58872632D01*
X148192923Y-58842383D01*
X148182966Y-58809561D01*
X148179000Y-58769287D01*
X148179000Y-56830713D01*
X148182966Y-56790439D01*
X148192923Y-56757617D01*
X148209092Y-56727368D01*
X148230852Y-56700852D01*
X148257368Y-56679092D01*
X148287617Y-56662923D01*
X148320439Y-56652966D01*
X148360713Y-56649000D01*
X149839287Y-56649000D01*
X149879561Y-56652966D01*
G37*
G36*
X121379561Y-56652966D02*
G01*
X121412383Y-56662923D01*
X121442632Y-56679092D01*
X121469148Y-56700852D01*
X121490908Y-56727368D01*
X121507077Y-56757617D01*
X121517034Y-56790439D01*
X121521000Y-56830713D01*
X121521000Y-58769287D01*
X121517034Y-58809561D01*
X121507077Y-58842383D01*
X121490908Y-58872632D01*
X121469148Y-58899148D01*
X121442632Y-58920908D01*
X121412383Y-58937077D01*
X121379561Y-58947034D01*
X121339287Y-58951000D01*
X119860713Y-58951000D01*
X119820439Y-58947034D01*
X119787617Y-58937077D01*
X119757368Y-58920908D01*
X119730852Y-58899148D01*
X119709092Y-58872632D01*
X119692923Y-58842383D01*
X119682966Y-58809561D01*
X119679000Y-58769287D01*
X119679000Y-56830713D01*
X119682966Y-56790439D01*
X119692923Y-56757617D01*
X119709092Y-56727368D01*
X119730852Y-56700852D01*
X119757368Y-56679092D01*
X119787617Y-56662923D01*
X119820439Y-56652966D01*
X119860713Y-56649000D01*
X121339287Y-56649000D01*
X121379561Y-56652966D01*
G37*
G36*
X106877395Y-56425546D02*
G01*
X107050466Y-56497234D01*
X107050467Y-56497235D01*
X107206227Y-56601310D01*
X107338690Y-56733773D01*
X107376553Y-56790439D01*
X107442766Y-56889534D01*
X107514454Y-57062605D01*
X107551000Y-57246333D01*
X107551000Y-57433667D01*
X107514454Y-57617395D01*
X107442766Y-57790466D01*
X107407910Y-57842632D01*
X107338690Y-57946227D01*
X107206227Y-58078690D01*
X107127818Y-58131081D01*
X107050466Y-58182766D01*
X106877395Y-58254454D01*
X106693667Y-58291000D01*
X106506333Y-58291000D01*
X106322605Y-58254454D01*
X106149534Y-58182766D01*
X106072182Y-58131081D01*
X105993773Y-58078690D01*
X105861310Y-57946227D01*
X105792090Y-57842632D01*
X105757234Y-57790466D01*
X105685546Y-57617395D01*
X105649000Y-57433667D01*
X105649000Y-57246333D01*
X105685546Y-57062605D01*
X105757234Y-56889534D01*
X105823447Y-56790439D01*
X105861310Y-56733773D01*
X105993773Y-56601310D01*
X106149533Y-56497235D01*
X106149534Y-56497234D01*
X106322605Y-56425546D01*
X106506333Y-56389000D01*
X106693667Y-56389000D01*
X106877395Y-56425546D01*
G37*
G36*
X188320547Y-55692326D02*
G01*
X188494156Y-55744990D01*
X188494158Y-55744991D01*
X188654155Y-55830511D01*
X188794397Y-55945603D01*
X188873729Y-56042271D01*
X188909489Y-56085844D01*
X188995010Y-56245843D01*
X189047674Y-56419452D01*
X189061000Y-56554756D01*
X189061000Y-57045243D01*
X189047674Y-57180548D01*
X188995010Y-57354157D01*
X188909489Y-57514156D01*
X188873729Y-57557729D01*
X188794397Y-57654397D01*
X188697729Y-57733729D01*
X188654156Y-57769489D01*
X188494157Y-57855010D01*
X188320548Y-57907674D01*
X188140000Y-57925456D01*
X187959453Y-57907674D01*
X187785844Y-57855010D01*
X187625845Y-57769489D01*
X187582272Y-57733729D01*
X187485604Y-57654397D01*
X187415756Y-57569286D01*
X187370511Y-57514156D01*
X187284990Y-57354157D01*
X187232326Y-57180548D01*
X187219000Y-57045244D01*
X187219000Y-56554757D01*
X187232326Y-56419453D01*
X187284990Y-56245844D01*
X187370511Y-56085845D01*
X187370512Y-56085844D01*
X187485603Y-55945603D01*
X187611388Y-55842375D01*
X187625844Y-55830511D01*
X187785843Y-55744990D01*
X187959452Y-55692326D01*
X188140000Y-55674544D01*
X188320547Y-55692326D01*
G37*
G36*
X195940547Y-55692326D02*
G01*
X196114156Y-55744990D01*
X196114158Y-55744991D01*
X196274155Y-55830511D01*
X196414397Y-55945603D01*
X196493729Y-56042271D01*
X196529489Y-56085844D01*
X196615010Y-56245843D01*
X196667674Y-56419452D01*
X196681000Y-56554756D01*
X196681000Y-57045243D01*
X196667674Y-57180548D01*
X196615010Y-57354157D01*
X196529489Y-57514156D01*
X196493729Y-57557729D01*
X196414397Y-57654397D01*
X196317729Y-57733729D01*
X196274156Y-57769489D01*
X196114157Y-57855010D01*
X195940548Y-57907674D01*
X195760000Y-57925456D01*
X195579453Y-57907674D01*
X195405844Y-57855010D01*
X195245845Y-57769489D01*
X195202272Y-57733729D01*
X195105604Y-57654397D01*
X195035756Y-57569286D01*
X194990511Y-57514156D01*
X194904990Y-57354157D01*
X194852326Y-57180548D01*
X194839000Y-57045244D01*
X194839000Y-56554757D01*
X194852326Y-56419453D01*
X194904990Y-56245844D01*
X194990511Y-56085845D01*
X194990512Y-56085844D01*
X195105603Y-55945603D01*
X195231388Y-55842375D01*
X195245844Y-55830511D01*
X195405843Y-55744990D01*
X195579452Y-55692326D01*
X195760000Y-55674544D01*
X195940547Y-55692326D01*
G37*
G36*
X193400547Y-55692326D02*
G01*
X193574156Y-55744990D01*
X193574158Y-55744991D01*
X193734155Y-55830511D01*
X193874397Y-55945603D01*
X193953729Y-56042271D01*
X193989489Y-56085844D01*
X194075010Y-56245843D01*
X194127674Y-56419452D01*
X194141000Y-56554756D01*
X194141000Y-57045243D01*
X194127674Y-57180548D01*
X194075010Y-57354157D01*
X193989489Y-57514156D01*
X193953729Y-57557729D01*
X193874397Y-57654397D01*
X193777729Y-57733729D01*
X193734156Y-57769489D01*
X193574157Y-57855010D01*
X193400548Y-57907674D01*
X193220000Y-57925456D01*
X193039453Y-57907674D01*
X192865844Y-57855010D01*
X192705845Y-57769489D01*
X192662272Y-57733729D01*
X192565604Y-57654397D01*
X192495756Y-57569286D01*
X192450511Y-57514156D01*
X192364990Y-57354157D01*
X192312326Y-57180548D01*
X192299000Y-57045244D01*
X192299000Y-56554757D01*
X192312326Y-56419453D01*
X192364990Y-56245844D01*
X192450511Y-56085845D01*
X192450512Y-56085844D01*
X192565603Y-55945603D01*
X192691388Y-55842375D01*
X192705844Y-55830511D01*
X192865843Y-55744990D01*
X193039452Y-55692326D01*
X193220000Y-55674544D01*
X193400547Y-55692326D01*
G37*
G36*
X190860547Y-55692326D02*
G01*
X191034156Y-55744990D01*
X191034158Y-55744991D01*
X191194155Y-55830511D01*
X191334397Y-55945603D01*
X191413729Y-56042271D01*
X191449489Y-56085844D01*
X191535010Y-56245843D01*
X191587674Y-56419452D01*
X191601000Y-56554756D01*
X191601000Y-57045243D01*
X191587674Y-57180548D01*
X191535010Y-57354157D01*
X191449489Y-57514156D01*
X191413729Y-57557729D01*
X191334397Y-57654397D01*
X191237729Y-57733729D01*
X191194156Y-57769489D01*
X191034157Y-57855010D01*
X190860548Y-57907674D01*
X190680000Y-57925456D01*
X190499453Y-57907674D01*
X190325844Y-57855010D01*
X190165845Y-57769489D01*
X190122272Y-57733729D01*
X190025604Y-57654397D01*
X189955756Y-57569286D01*
X189910511Y-57514156D01*
X189824990Y-57354157D01*
X189772326Y-57180548D01*
X189759000Y-57045244D01*
X189759000Y-56554757D01*
X189772326Y-56419453D01*
X189824990Y-56245844D01*
X189910511Y-56085845D01*
X189910512Y-56085844D01*
X190025603Y-55945603D01*
X190151388Y-55842375D01*
X190165844Y-55830511D01*
X190325843Y-55744990D01*
X190499452Y-55692326D01*
X190680000Y-55674544D01*
X190860547Y-55692326D01*
G37*
G36*
X173940547Y-55692326D02*
G01*
X174114156Y-55744990D01*
X174114158Y-55744991D01*
X174274155Y-55830511D01*
X174414397Y-55945603D01*
X174493729Y-56042271D01*
X174529489Y-56085844D01*
X174615010Y-56245843D01*
X174667674Y-56419452D01*
X174681000Y-56554756D01*
X174681000Y-57045243D01*
X174667674Y-57180548D01*
X174615010Y-57354157D01*
X174529489Y-57514156D01*
X174493729Y-57557729D01*
X174414397Y-57654397D01*
X174317729Y-57733729D01*
X174274156Y-57769489D01*
X174114157Y-57855010D01*
X173940548Y-57907674D01*
X173760000Y-57925456D01*
X173579453Y-57907674D01*
X173405844Y-57855010D01*
X173245845Y-57769489D01*
X173202272Y-57733729D01*
X173105604Y-57654397D01*
X173035756Y-57569286D01*
X172990511Y-57514156D01*
X172904990Y-57354157D01*
X172852326Y-57180548D01*
X172839000Y-57045244D01*
X172839000Y-56554757D01*
X172852326Y-56419453D01*
X172904990Y-56245844D01*
X172990511Y-56085845D01*
X172990512Y-56085844D01*
X173105603Y-55945603D01*
X173231388Y-55842375D01*
X173245844Y-55830511D01*
X173405843Y-55744990D01*
X173579452Y-55692326D01*
X173760000Y-55674544D01*
X173940547Y-55692326D01*
G37*
G36*
X171400547Y-55692326D02*
G01*
X171574156Y-55744990D01*
X171574158Y-55744991D01*
X171734155Y-55830511D01*
X171874397Y-55945603D01*
X171953729Y-56042271D01*
X171989489Y-56085844D01*
X172075010Y-56245843D01*
X172127674Y-56419452D01*
X172141000Y-56554756D01*
X172141000Y-57045243D01*
X172127674Y-57180548D01*
X172075010Y-57354157D01*
X171989489Y-57514156D01*
X171953729Y-57557729D01*
X171874397Y-57654397D01*
X171777729Y-57733729D01*
X171734156Y-57769489D01*
X171574157Y-57855010D01*
X171400548Y-57907674D01*
X171220000Y-57925456D01*
X171039453Y-57907674D01*
X170865844Y-57855010D01*
X170705845Y-57769489D01*
X170662272Y-57733729D01*
X170565604Y-57654397D01*
X170495756Y-57569286D01*
X170450511Y-57514156D01*
X170364990Y-57354157D01*
X170312326Y-57180548D01*
X170299000Y-57045244D01*
X170299000Y-56554757D01*
X170312326Y-56419453D01*
X170364990Y-56245844D01*
X170450511Y-56085845D01*
X170450512Y-56085844D01*
X170565603Y-55945603D01*
X170691388Y-55842375D01*
X170705844Y-55830511D01*
X170865843Y-55744990D01*
X171039452Y-55692326D01*
X171220000Y-55674544D01*
X171400547Y-55692326D01*
G37*
G36*
X168860547Y-55692326D02*
G01*
X169034156Y-55744990D01*
X169034158Y-55744991D01*
X169194155Y-55830511D01*
X169334397Y-55945603D01*
X169413729Y-56042271D01*
X169449489Y-56085844D01*
X169535010Y-56245843D01*
X169587674Y-56419452D01*
X169601000Y-56554756D01*
X169601000Y-57045243D01*
X169587674Y-57180548D01*
X169535010Y-57354157D01*
X169449489Y-57514156D01*
X169413729Y-57557729D01*
X169334397Y-57654397D01*
X169237729Y-57733729D01*
X169194156Y-57769489D01*
X169034157Y-57855010D01*
X168860548Y-57907674D01*
X168680000Y-57925456D01*
X168499453Y-57907674D01*
X168325844Y-57855010D01*
X168165845Y-57769489D01*
X168122272Y-57733729D01*
X168025604Y-57654397D01*
X167955756Y-57569286D01*
X167910511Y-57514156D01*
X167824990Y-57354157D01*
X167772326Y-57180548D01*
X167759000Y-57045244D01*
X167759000Y-56554757D01*
X167772326Y-56419453D01*
X167824990Y-56245844D01*
X167910511Y-56085845D01*
X167910512Y-56085844D01*
X168025603Y-55945603D01*
X168151388Y-55842375D01*
X168165844Y-55830511D01*
X168325843Y-55744990D01*
X168499452Y-55692326D01*
X168680000Y-55674544D01*
X168860547Y-55692326D01*
G37*
G36*
X166320547Y-55692326D02*
G01*
X166494156Y-55744990D01*
X166494158Y-55744991D01*
X166654155Y-55830511D01*
X166794397Y-55945603D01*
X166873729Y-56042271D01*
X166909489Y-56085844D01*
X166995010Y-56245843D01*
X167047674Y-56419452D01*
X167061000Y-56554756D01*
X167061000Y-57045243D01*
X167047674Y-57180548D01*
X166995010Y-57354157D01*
X166909489Y-57514156D01*
X166873729Y-57557729D01*
X166794397Y-57654397D01*
X166697729Y-57733729D01*
X166654156Y-57769489D01*
X166494157Y-57855010D01*
X166320548Y-57907674D01*
X166140000Y-57925456D01*
X165959453Y-57907674D01*
X165785844Y-57855010D01*
X165625845Y-57769489D01*
X165582272Y-57733729D01*
X165485604Y-57654397D01*
X165415756Y-57569286D01*
X165370511Y-57514156D01*
X165284990Y-57354157D01*
X165232326Y-57180548D01*
X165219000Y-57045244D01*
X165219000Y-56554757D01*
X165232326Y-56419453D01*
X165284990Y-56245844D01*
X165370511Y-56085845D01*
X165370512Y-56085844D01*
X165485603Y-55945603D01*
X165611388Y-55842375D01*
X165625844Y-55830511D01*
X165785843Y-55744990D01*
X165959452Y-55692326D01*
X166140000Y-55674544D01*
X166320547Y-55692326D01*
G37*
G36*
X186379561Y-55682966D02*
G01*
X186412383Y-55692923D01*
X186442632Y-55709092D01*
X186469148Y-55730852D01*
X186490908Y-55757368D01*
X186507077Y-55787617D01*
X186517034Y-55820439D01*
X186521000Y-55860713D01*
X186521000Y-57739287D01*
X186517034Y-57779561D01*
X186507077Y-57812383D01*
X186490908Y-57842632D01*
X186469148Y-57869148D01*
X186442632Y-57890908D01*
X186412383Y-57907077D01*
X186379561Y-57917034D01*
X186339287Y-57921000D01*
X184860713Y-57921000D01*
X184820439Y-57917034D01*
X184787617Y-57907077D01*
X184757368Y-57890908D01*
X184730852Y-57869148D01*
X184709092Y-57842632D01*
X184692923Y-57812383D01*
X184682966Y-57779561D01*
X184679000Y-57739287D01*
X184679000Y-55860713D01*
X184682966Y-55820439D01*
X184692923Y-55787617D01*
X184709092Y-55757368D01*
X184730852Y-55730852D01*
X184757368Y-55709092D01*
X184787617Y-55692923D01*
X184820439Y-55682966D01*
X184860713Y-55679000D01*
X186339287Y-55679000D01*
X186379561Y-55682966D01*
G37*
G36*
X164379561Y-55682966D02*
G01*
X164412383Y-55692923D01*
X164442632Y-55709092D01*
X164469148Y-55730852D01*
X164490908Y-55757368D01*
X164507077Y-55787617D01*
X164517034Y-55820439D01*
X164521000Y-55860713D01*
X164521000Y-57739287D01*
X164517034Y-57779561D01*
X164507077Y-57812383D01*
X164490908Y-57842632D01*
X164469148Y-57869148D01*
X164442632Y-57890908D01*
X164412383Y-57907077D01*
X164379561Y-57917034D01*
X164339287Y-57921000D01*
X162860713Y-57921000D01*
X162820439Y-57917034D01*
X162787617Y-57907077D01*
X162757368Y-57890908D01*
X162730852Y-57869148D01*
X162709092Y-57842632D01*
X162692923Y-57812383D01*
X162682966Y-57779561D01*
X162679000Y-57739287D01*
X162679000Y-55860713D01*
X162682966Y-55820439D01*
X162692923Y-55787617D01*
X162709092Y-55757368D01*
X162730852Y-55730852D01*
X162757368Y-55709092D01*
X162787617Y-55692923D01*
X162820439Y-55682966D01*
X162860713Y-55679000D01*
X164339287Y-55679000D01*
X164379561Y-55682966D01*
G37*
G36*
X107551000Y-55751000D02*
G01*
X105649000Y-55751000D01*
X105649000Y-53849000D01*
X107551000Y-53849000D01*
X107551000Y-55751000D01*
G37*
M02*
