M48
; DRILL file {KiCad 5.1.5} date Sun 15 Dec 2019 08:25:29 PM EST
; FORMAT={-:-/ absolute / inch / decimal}
; #@! TF.CreationDate,2019-12-15T20:25:29-05:00
; #@! TF.GenerationSoftware,Kicad,Pcbnew,5.1.5
; #@! TF.FileFunction,Plated,1,2,PTH
FMAT,2
INCH
T1C0.0157
T2C0.0354
T3C0.0449
T4C0.0472
T5C0.0591
T6C0.0709
%
G90
G05
T1
X7.1346Y-2.1378
X7.697Y-2.8137
X7.7055Y-2.6693
T2
X4.1969Y-2.1575
X4.1969Y-2.2575
T3
X7.3071Y-2.2362
X7.3071Y-2.3362
X7.4071Y-2.2362
X7.4071Y-2.3362
X7.5071Y-2.2362
X7.5071Y-2.3362
X7.6071Y-2.2362
X7.6071Y-2.3362
X7.7071Y-2.2362
X7.7071Y-2.3362
X6.4409Y-2.2362
X6.4409Y-2.3362
X6.5409Y-2.2362
X6.5409Y-2.3362
X6.6409Y-2.2362
X6.6409Y-2.3362
X6.7409Y-2.2362
X6.7409Y-2.3362
X6.8409Y-2.2362
X6.8409Y-2.3362
T4
X5.8701Y-2.2756
X5.9701Y-2.2756
X4.748Y-2.2756
X4.848Y-2.2756
T5
X6.8112Y-3.0177
X6.9243Y-2.8218
X6.9243Y-3.4398
X7.1202Y-3.5529
X7.3405Y-3.0236
X7.3465Y-2.7087
X7.5424Y-2.8218
X7.5424Y-3.4398
X7.6555Y-3.2439
T6
X4.8713Y-2.9456
X4.8713Y-3.1307
X4.8713Y-3.3157
T0
M30
