M48
; DRILL file {KiCad 5.1.4} date Sun 29 Sep 2019 10:16:21 PM EDT
; FORMAT={-:-/ absolute / inch / decimal}
; #@! TF.CreationDate,2019-09-29T22:16:21-04:00
; #@! TF.GenerationSoftware,Kicad,Pcbnew,5.1.4
; #@! TF.FileFunction,Plated,1,2,PTH
FMAT,2
INCH
T1C0.0157
T2C0.0354
T3C0.0449
T4C0.0472
T5C0.0591
T6C0.0709
%
G90
G05
T1
X6.5591Y-2.3937
X6.7165Y-2.4352
X6.874Y-2.4767
X6.9921Y-2.5182
X7.189Y-2.5597
T2
X4.1969Y-2.1575
X4.1969Y-2.2575
T3
X6.4409Y-2.1575
X6.4409Y-2.2575
X6.5409Y-2.1575
X6.5409Y-2.2575
X6.6409Y-2.1575
X6.6409Y-2.2575
X6.7409Y-2.1575
X6.7409Y-2.2575
X6.8409Y-2.1575
X6.8409Y-2.2575
X7.3071Y-2.1575
X7.3071Y-2.2575
X7.4071Y-2.1575
X7.4071Y-2.2575
X7.5071Y-2.1575
X7.5071Y-2.2575
X7.6071Y-2.1575
X7.6071Y-2.2575
X7.7071Y-2.1575
X7.7071Y-2.2575
T4
X4.748Y-2.1969
X4.848Y-2.1969
X5.8701Y-2.1969
X5.9701Y-2.1969
T5
X6.8112Y-3.0177
X6.9243Y-2.8218
X6.9243Y-3.4398
X7.1202Y-3.5529
X7.3405Y-3.0236
X7.3465Y-2.7087
X7.5424Y-2.8218
X7.5424Y-3.4398
X7.6555Y-3.2439
T6
X4.8713Y-2.9456
X4.8713Y-3.1307
X4.8713Y-3.3157
T0
M30
