G04 #@! TF.GenerationSoftware,KiCad,Pcbnew,5.1.5*
G04 #@! TF.CreationDate,2019-12-15T20:25:27-05:00*
G04 #@! TF.ProjectId,front_panel_board,66726f6e-745f-4706-916e-656c5f626f61,0*
G04 #@! TF.SameCoordinates,Original*
G04 #@! TF.FileFunction,Legend,Bot*
G04 #@! TF.FilePolarity,Positive*
%FSLAX46Y46*%
G04 Gerber Fmt 4.6, Leading zero omitted, Abs format (unit mm)*
G04 Created by KiCad (PCBNEW 5.1.5) date 2019-12-15 20:25:27*
%MOMM*%
%LPD*%
G04 APERTURE LIST*
%ADD10C,0.150000*%
%ADD11C,0.120000*%
%ADD12C,0.010000*%
G04 APERTURE END LIST*
D10*
X158152000Y-99752380D02*
X158152000Y-98752380D01*
X157723428Y-99752380D02*
X157723428Y-99228571D01*
X157771047Y-99133333D01*
X157866285Y-99085714D01*
X158009142Y-99085714D01*
X158104380Y-99133333D01*
X158152000Y-99180952D01*
X157390095Y-99085714D02*
X157009142Y-99085714D01*
X157247238Y-98752380D02*
X157247238Y-99609523D01*
X157199619Y-99704761D01*
X157104380Y-99752380D01*
X157009142Y-99752380D01*
X156818666Y-99085714D02*
X156437714Y-99085714D01*
X156675809Y-98752380D02*
X156675809Y-99609523D01*
X156628190Y-99704761D01*
X156532952Y-99752380D01*
X156437714Y-99752380D01*
X156104380Y-99085714D02*
X156104380Y-100085714D01*
X156104380Y-99133333D02*
X156009142Y-99085714D01*
X155818666Y-99085714D01*
X155723428Y-99133333D01*
X155675809Y-99180952D01*
X155628190Y-99276190D01*
X155628190Y-99561904D01*
X155675809Y-99657142D01*
X155723428Y-99704761D01*
X155818666Y-99752380D01*
X156009142Y-99752380D01*
X156104380Y-99704761D01*
X155247238Y-99704761D02*
X155152000Y-99752380D01*
X154961523Y-99752380D01*
X154866285Y-99704761D01*
X154818666Y-99609523D01*
X154818666Y-99561904D01*
X154866285Y-99466666D01*
X154961523Y-99419047D01*
X155104380Y-99419047D01*
X155199619Y-99371428D01*
X155247238Y-99276190D01*
X155247238Y-99228571D01*
X155199619Y-99133333D01*
X155104380Y-99085714D01*
X154961523Y-99085714D01*
X154866285Y-99133333D01*
X154390095Y-99657142D02*
X154342476Y-99704761D01*
X154390095Y-99752380D01*
X154437714Y-99704761D01*
X154390095Y-99657142D01*
X154390095Y-99752380D01*
X154390095Y-99133333D02*
X154342476Y-99180952D01*
X154390095Y-99228571D01*
X154437714Y-99180952D01*
X154390095Y-99133333D01*
X154390095Y-99228571D01*
X153199619Y-98704761D02*
X154056761Y-99990476D01*
X152152000Y-98704761D02*
X153009142Y-99990476D01*
X151390095Y-99704761D02*
X151485333Y-99752380D01*
X151675809Y-99752380D01*
X151771047Y-99704761D01*
X151818666Y-99657142D01*
X151866285Y-99561904D01*
X151866285Y-99276190D01*
X151818666Y-99180952D01*
X151771047Y-99133333D01*
X151675809Y-99085714D01*
X151485333Y-99085714D01*
X151390095Y-99133333D01*
X150961523Y-99752380D02*
X150961523Y-99085714D01*
X150961523Y-99276190D02*
X150913904Y-99180952D01*
X150866285Y-99133333D01*
X150771047Y-99085714D01*
X150675809Y-99085714D01*
X149961523Y-99704761D02*
X150056761Y-99752380D01*
X150247238Y-99752380D01*
X150342476Y-99704761D01*
X150390095Y-99609523D01*
X150390095Y-99228571D01*
X150342476Y-99133333D01*
X150247238Y-99085714D01*
X150056761Y-99085714D01*
X149961523Y-99133333D01*
X149913904Y-99228571D01*
X149913904Y-99323809D01*
X150390095Y-99419047D01*
X149056761Y-99752380D02*
X149056761Y-99228571D01*
X149104380Y-99133333D01*
X149199619Y-99085714D01*
X149390095Y-99085714D01*
X149485333Y-99133333D01*
X149056761Y-99704761D02*
X149152000Y-99752380D01*
X149390095Y-99752380D01*
X149485333Y-99704761D01*
X149532952Y-99609523D01*
X149532952Y-99514285D01*
X149485333Y-99419047D01*
X149390095Y-99371428D01*
X149152000Y-99371428D01*
X149056761Y-99323809D01*
X148723428Y-99085714D02*
X148342476Y-99085714D01*
X148580571Y-98752380D02*
X148580571Y-99609523D01*
X148532952Y-99704761D01*
X148437714Y-99752380D01*
X148342476Y-99752380D01*
X148009142Y-99752380D02*
X148009142Y-99085714D01*
X148009142Y-98752380D02*
X148056761Y-98800000D01*
X148009142Y-98847619D01*
X147961523Y-98800000D01*
X148009142Y-98752380D01*
X148009142Y-98847619D01*
X147628190Y-99085714D02*
X147390095Y-99752380D01*
X147152000Y-99085714D01*
X146390095Y-99704761D02*
X146485333Y-99752380D01*
X146675809Y-99752380D01*
X146771047Y-99704761D01*
X146818666Y-99609523D01*
X146818666Y-99228571D01*
X146771047Y-99133333D01*
X146675809Y-99085714D01*
X146485333Y-99085714D01*
X146390095Y-99133333D01*
X146342476Y-99228571D01*
X146342476Y-99323809D01*
X146818666Y-99419047D01*
X145485333Y-99704761D02*
X145580571Y-99752380D01*
X145771047Y-99752380D01*
X145866285Y-99704761D01*
X145913904Y-99657142D01*
X145961523Y-99561904D01*
X145961523Y-99276190D01*
X145913904Y-99180952D01*
X145866285Y-99133333D01*
X145771047Y-99085714D01*
X145580571Y-99085714D01*
X145485333Y-99133333D01*
X144913904Y-99752380D02*
X145009142Y-99704761D01*
X145056761Y-99657142D01*
X145104380Y-99561904D01*
X145104380Y-99276190D01*
X145056761Y-99180952D01*
X145009142Y-99133333D01*
X144913904Y-99085714D01*
X144771047Y-99085714D01*
X144675809Y-99133333D01*
X144628190Y-99180952D01*
X144580571Y-99276190D01*
X144580571Y-99561904D01*
X144628190Y-99657142D01*
X144675809Y-99704761D01*
X144771047Y-99752380D01*
X144913904Y-99752380D01*
X144152000Y-99752380D02*
X144152000Y-99085714D01*
X144152000Y-99180952D02*
X144104380Y-99133333D01*
X144009142Y-99085714D01*
X143866285Y-99085714D01*
X143771047Y-99133333D01*
X143723428Y-99228571D01*
X143723428Y-99752380D01*
X143723428Y-99228571D02*
X143675809Y-99133333D01*
X143580571Y-99085714D01*
X143437714Y-99085714D01*
X143342476Y-99133333D01*
X143294857Y-99228571D01*
X143294857Y-99752380D01*
X142818666Y-99752380D02*
X142818666Y-99085714D01*
X142818666Y-99180952D02*
X142771047Y-99133333D01*
X142675809Y-99085714D01*
X142532952Y-99085714D01*
X142437714Y-99133333D01*
X142390095Y-99228571D01*
X142390095Y-99752380D01*
X142390095Y-99228571D02*
X142342476Y-99133333D01*
X142247238Y-99085714D01*
X142104380Y-99085714D01*
X142009142Y-99133333D01*
X141961523Y-99228571D01*
X141961523Y-99752380D01*
X141342476Y-99752380D02*
X141437714Y-99704761D01*
X141485333Y-99657142D01*
X141532952Y-99561904D01*
X141532952Y-99276190D01*
X141485333Y-99180952D01*
X141437714Y-99133333D01*
X141342476Y-99085714D01*
X141199619Y-99085714D01*
X141104380Y-99133333D01*
X141056761Y-99180952D01*
X141009142Y-99276190D01*
X141009142Y-99561904D01*
X141056761Y-99657142D01*
X141104380Y-99704761D01*
X141199619Y-99752380D01*
X141342476Y-99752380D01*
X140580571Y-99085714D02*
X140580571Y-99752380D01*
X140580571Y-99180952D02*
X140532952Y-99133333D01*
X140437714Y-99085714D01*
X140294857Y-99085714D01*
X140199619Y-99133333D01*
X140152000Y-99228571D01*
X140152000Y-99752380D01*
X139723428Y-99704761D02*
X139628190Y-99752380D01*
X139437714Y-99752380D01*
X139342476Y-99704761D01*
X139294857Y-99609523D01*
X139294857Y-99561904D01*
X139342476Y-99466666D01*
X139437714Y-99419047D01*
X139580571Y-99419047D01*
X139675809Y-99371428D01*
X139723428Y-99276190D01*
X139723428Y-99228571D01*
X139675809Y-99133333D01*
X139580571Y-99085714D01*
X139437714Y-99085714D01*
X139342476Y-99133333D01*
X138866285Y-99657142D02*
X138818666Y-99704761D01*
X138866285Y-99752380D01*
X138913904Y-99704761D01*
X138866285Y-99657142D01*
X138866285Y-99752380D01*
X138247238Y-99752380D02*
X138342476Y-99704761D01*
X138390095Y-99657142D01*
X138437714Y-99561904D01*
X138437714Y-99276190D01*
X138390095Y-99180952D01*
X138342476Y-99133333D01*
X138247238Y-99085714D01*
X138104380Y-99085714D01*
X138009142Y-99133333D01*
X137961523Y-99180952D01*
X137913904Y-99276190D01*
X137913904Y-99561904D01*
X137961523Y-99657142D01*
X138009142Y-99704761D01*
X138104380Y-99752380D01*
X138247238Y-99752380D01*
X137485333Y-99752380D02*
X137485333Y-99085714D01*
X137485333Y-99276190D02*
X137437714Y-99180952D01*
X137390095Y-99133333D01*
X137294857Y-99085714D01*
X137199619Y-99085714D01*
X136437714Y-99085714D02*
X136437714Y-99895238D01*
X136485333Y-99990476D01*
X136532952Y-100038095D01*
X136628190Y-100085714D01*
X136771047Y-100085714D01*
X136866285Y-100038095D01*
X136437714Y-99704761D02*
X136532952Y-99752380D01*
X136723428Y-99752380D01*
X136818666Y-99704761D01*
X136866285Y-99657142D01*
X136913904Y-99561904D01*
X136913904Y-99276190D01*
X136866285Y-99180952D01*
X136818666Y-99133333D01*
X136723428Y-99085714D01*
X136532952Y-99085714D01*
X136437714Y-99133333D01*
X135247238Y-98704761D02*
X136104380Y-99990476D01*
X134771047Y-99752380D02*
X134866285Y-99704761D01*
X134913904Y-99609523D01*
X134913904Y-98752380D01*
X134390095Y-99752380D02*
X134390095Y-99085714D01*
X134390095Y-98752380D02*
X134437714Y-98800000D01*
X134390095Y-98847619D01*
X134342476Y-98800000D01*
X134390095Y-98752380D01*
X134390095Y-98847619D01*
X133485333Y-99704761D02*
X133580571Y-99752380D01*
X133771047Y-99752380D01*
X133866285Y-99704761D01*
X133913904Y-99657142D01*
X133961523Y-99561904D01*
X133961523Y-99276190D01*
X133913904Y-99180952D01*
X133866285Y-99133333D01*
X133771047Y-99085714D01*
X133580571Y-99085714D01*
X133485333Y-99133333D01*
X132675809Y-99704761D02*
X132771047Y-99752380D01*
X132961523Y-99752380D01*
X133056761Y-99704761D01*
X133104380Y-99609523D01*
X133104380Y-99228571D01*
X133056761Y-99133333D01*
X132961523Y-99085714D01*
X132771047Y-99085714D01*
X132675809Y-99133333D01*
X132628190Y-99228571D01*
X132628190Y-99323809D01*
X133104380Y-99419047D01*
X132199619Y-99085714D02*
X132199619Y-99752380D01*
X132199619Y-99180952D02*
X132152000Y-99133333D01*
X132056761Y-99085714D01*
X131913904Y-99085714D01*
X131818666Y-99133333D01*
X131771047Y-99228571D01*
X131771047Y-99752380D01*
X131342476Y-99704761D02*
X131247238Y-99752380D01*
X131056761Y-99752380D01*
X130961523Y-99704761D01*
X130913904Y-99609523D01*
X130913904Y-99561904D01*
X130961523Y-99466666D01*
X131056761Y-99419047D01*
X131199619Y-99419047D01*
X131294857Y-99371428D01*
X131342476Y-99276190D01*
X131342476Y-99228571D01*
X131294857Y-99133333D01*
X131199619Y-99085714D01*
X131056761Y-99085714D01*
X130961523Y-99133333D01*
X130104380Y-99704761D02*
X130199619Y-99752380D01*
X130390095Y-99752380D01*
X130485333Y-99704761D01*
X130532952Y-99609523D01*
X130532952Y-99228571D01*
X130485333Y-99133333D01*
X130390095Y-99085714D01*
X130199619Y-99085714D01*
X130104380Y-99133333D01*
X130056761Y-99228571D01*
X130056761Y-99323809D01*
X130532952Y-99419047D01*
X129675809Y-99704761D02*
X129580571Y-99752380D01*
X129390095Y-99752380D01*
X129294857Y-99704761D01*
X129247238Y-99609523D01*
X129247238Y-99561904D01*
X129294857Y-99466666D01*
X129390095Y-99419047D01*
X129532952Y-99419047D01*
X129628190Y-99371428D01*
X129675809Y-99276190D01*
X129675809Y-99228571D01*
X129628190Y-99133333D01*
X129532952Y-99085714D01*
X129390095Y-99085714D01*
X129294857Y-99133333D01*
X128104380Y-98704761D02*
X128961523Y-99990476D01*
X127771047Y-99752380D02*
X127771047Y-98752380D01*
X127771047Y-99133333D02*
X127675809Y-99085714D01*
X127485333Y-99085714D01*
X127390095Y-99133333D01*
X127342476Y-99180952D01*
X127294857Y-99276190D01*
X127294857Y-99561904D01*
X127342476Y-99657142D01*
X127390095Y-99704761D01*
X127485333Y-99752380D01*
X127675809Y-99752380D01*
X127771047Y-99704761D01*
X126961523Y-99085714D02*
X126723428Y-99752380D01*
X126485333Y-99085714D02*
X126723428Y-99752380D01*
X126818666Y-99990476D01*
X126866285Y-100038095D01*
X126961523Y-100085714D01*
X126104380Y-99371428D02*
X125342476Y-99371428D01*
X124913904Y-99704761D02*
X124818666Y-99752380D01*
X124628190Y-99752380D01*
X124532952Y-99704761D01*
X124485333Y-99609523D01*
X124485333Y-99561904D01*
X124532952Y-99466666D01*
X124628190Y-99419047D01*
X124771047Y-99419047D01*
X124866285Y-99371428D01*
X124913904Y-99276190D01*
X124913904Y-99228571D01*
X124866285Y-99133333D01*
X124771047Y-99085714D01*
X124628190Y-99085714D01*
X124532952Y-99133333D01*
X123628190Y-99752380D02*
X123628190Y-99228571D01*
X123675809Y-99133333D01*
X123771047Y-99085714D01*
X123961523Y-99085714D01*
X124056761Y-99133333D01*
X123628190Y-99704761D02*
X123723428Y-99752380D01*
X123961523Y-99752380D01*
X124056761Y-99704761D01*
X124104380Y-99609523D01*
X124104380Y-99514285D01*
X124056761Y-99419047D01*
X123961523Y-99371428D01*
X123723428Y-99371428D01*
X123628190Y-99323809D01*
X122437714Y-98704761D02*
X123294857Y-99990476D01*
X121675809Y-99085714D02*
X121675809Y-99752380D01*
X121913904Y-98704761D02*
X122152000Y-99419047D01*
X121532952Y-99419047D01*
X121152000Y-99657142D02*
X121104380Y-99704761D01*
X121152000Y-99752380D01*
X121199619Y-99704761D01*
X121152000Y-99657142D01*
X121152000Y-99752380D01*
X120485333Y-98752380D02*
X120390095Y-98752380D01*
X120294857Y-98800000D01*
X120247238Y-98847619D01*
X120199619Y-98942857D01*
X120152000Y-99133333D01*
X120152000Y-99371428D01*
X120199619Y-99561904D01*
X120247238Y-99657142D01*
X120294857Y-99704761D01*
X120390095Y-99752380D01*
X120485333Y-99752380D01*
X120580571Y-99704761D01*
X120628190Y-99657142D01*
X120675809Y-99561904D01*
X120723428Y-99371428D01*
X120723428Y-99133333D01*
X120675809Y-98942857D01*
X120628190Y-98847619D01*
X120580571Y-98800000D01*
X120485333Y-98752380D01*
X119009142Y-98704761D02*
X119866285Y-99990476D01*
X171081071Y-93253571D02*
X171414404Y-93253571D01*
X171414404Y-93777380D02*
X171414404Y-92777380D01*
X170938214Y-92777380D01*
X170557261Y-93777380D02*
X170557261Y-93110714D01*
X170557261Y-93301190D02*
X170509642Y-93205952D01*
X170462023Y-93158333D01*
X170366785Y-93110714D01*
X170271547Y-93110714D01*
X169795357Y-93777380D02*
X169890595Y-93729761D01*
X169938214Y-93682142D01*
X169985833Y-93586904D01*
X169985833Y-93301190D01*
X169938214Y-93205952D01*
X169890595Y-93158333D01*
X169795357Y-93110714D01*
X169652500Y-93110714D01*
X169557261Y-93158333D01*
X169509642Y-93205952D01*
X169462023Y-93301190D01*
X169462023Y-93586904D01*
X169509642Y-93682142D01*
X169557261Y-93729761D01*
X169652500Y-93777380D01*
X169795357Y-93777380D01*
X169033452Y-93110714D02*
X169033452Y-93777380D01*
X169033452Y-93205952D02*
X168985833Y-93158333D01*
X168890595Y-93110714D01*
X168747738Y-93110714D01*
X168652500Y-93158333D01*
X168604880Y-93253571D01*
X168604880Y-93777380D01*
X168271547Y-93110714D02*
X167890595Y-93110714D01*
X168128690Y-92777380D02*
X168128690Y-93634523D01*
X168081071Y-93729761D01*
X167985833Y-93777380D01*
X167890595Y-93777380D01*
X166795357Y-93777380D02*
X166795357Y-92777380D01*
X166414404Y-92777380D01*
X166319166Y-92825000D01*
X166271547Y-92872619D01*
X166223928Y-92967857D01*
X166223928Y-93110714D01*
X166271547Y-93205952D01*
X166319166Y-93253571D01*
X166414404Y-93301190D01*
X166795357Y-93301190D01*
X165366785Y-93777380D02*
X165366785Y-93253571D01*
X165414404Y-93158333D01*
X165509642Y-93110714D01*
X165700119Y-93110714D01*
X165795357Y-93158333D01*
X165366785Y-93729761D02*
X165462023Y-93777380D01*
X165700119Y-93777380D01*
X165795357Y-93729761D01*
X165842976Y-93634523D01*
X165842976Y-93539285D01*
X165795357Y-93444047D01*
X165700119Y-93396428D01*
X165462023Y-93396428D01*
X165366785Y-93348809D01*
X164890595Y-93110714D02*
X164890595Y-93777380D01*
X164890595Y-93205952D02*
X164842976Y-93158333D01*
X164747738Y-93110714D01*
X164604880Y-93110714D01*
X164509642Y-93158333D01*
X164462023Y-93253571D01*
X164462023Y-93777380D01*
X163604880Y-93729761D02*
X163700119Y-93777380D01*
X163890595Y-93777380D01*
X163985833Y-93729761D01*
X164033452Y-93634523D01*
X164033452Y-93253571D01*
X163985833Y-93158333D01*
X163890595Y-93110714D01*
X163700119Y-93110714D01*
X163604880Y-93158333D01*
X163557261Y-93253571D01*
X163557261Y-93348809D01*
X164033452Y-93444047D01*
X162985833Y-93777380D02*
X163081071Y-93729761D01*
X163128690Y-93634523D01*
X163128690Y-92777380D01*
X161509642Y-93253571D02*
X161366785Y-93301190D01*
X161319166Y-93348809D01*
X161271547Y-93444047D01*
X161271547Y-93586904D01*
X161319166Y-93682142D01*
X161366785Y-93729761D01*
X161462023Y-93777380D01*
X161842976Y-93777380D01*
X161842976Y-92777380D01*
X161509642Y-92777380D01*
X161414404Y-92825000D01*
X161366785Y-92872619D01*
X161319166Y-92967857D01*
X161319166Y-93063095D01*
X161366785Y-93158333D01*
X161414404Y-93205952D01*
X161509642Y-93253571D01*
X161842976Y-93253571D01*
X160700119Y-93777380D02*
X160795357Y-93729761D01*
X160842976Y-93682142D01*
X160890595Y-93586904D01*
X160890595Y-93301190D01*
X160842976Y-93205952D01*
X160795357Y-93158333D01*
X160700119Y-93110714D01*
X160557261Y-93110714D01*
X160462023Y-93158333D01*
X160414404Y-93205952D01*
X160366785Y-93301190D01*
X160366785Y-93586904D01*
X160414404Y-93682142D01*
X160462023Y-93729761D01*
X160557261Y-93777380D01*
X160700119Y-93777380D01*
X159509642Y-93777380D02*
X159509642Y-93253571D01*
X159557261Y-93158333D01*
X159652500Y-93110714D01*
X159842976Y-93110714D01*
X159938214Y-93158333D01*
X159509642Y-93729761D02*
X159604880Y-93777380D01*
X159842976Y-93777380D01*
X159938214Y-93729761D01*
X159985833Y-93634523D01*
X159985833Y-93539285D01*
X159938214Y-93444047D01*
X159842976Y-93396428D01*
X159604880Y-93396428D01*
X159509642Y-93348809D01*
X159033452Y-93777380D02*
X159033452Y-93110714D01*
X159033452Y-93301190D02*
X158985833Y-93205952D01*
X158938214Y-93158333D01*
X158842976Y-93110714D01*
X158747738Y-93110714D01*
X157985833Y-93777380D02*
X157985833Y-92777380D01*
X157985833Y-93729761D02*
X158081071Y-93777380D01*
X158271547Y-93777380D01*
X158366785Y-93729761D01*
X158414404Y-93682142D01*
X158462023Y-93586904D01*
X158462023Y-93301190D01*
X158414404Y-93205952D01*
X158366785Y-93158333D01*
X158271547Y-93110714D01*
X158081071Y-93110714D01*
X157985833Y-93158333D01*
X156747738Y-93777380D02*
X156747738Y-93110714D01*
X156747738Y-93301190D02*
X156700119Y-93205952D01*
X156652500Y-93158333D01*
X156557261Y-93110714D01*
X156462023Y-93110714D01*
X155747738Y-93729761D02*
X155842976Y-93777380D01*
X156033452Y-93777380D01*
X156128690Y-93729761D01*
X156176309Y-93634523D01*
X156176309Y-93253571D01*
X156128690Y-93158333D01*
X156033452Y-93110714D01*
X155842976Y-93110714D01*
X155747738Y-93158333D01*
X155700119Y-93253571D01*
X155700119Y-93348809D01*
X156176309Y-93444047D01*
X155366785Y-93110714D02*
X155128690Y-93777380D01*
X154890595Y-93110714D01*
X153985833Y-93777380D02*
X154557261Y-93777380D01*
X154271547Y-93777380D02*
X154271547Y-92777380D01*
X154366785Y-92920238D01*
X154462023Y-93015476D01*
X154557261Y-93063095D01*
X171414404Y-95427380D02*
X171414404Y-94427380D01*
X171033452Y-94427380D01*
X170938214Y-94475000D01*
X170890595Y-94522619D01*
X170842976Y-94617857D01*
X170842976Y-94760714D01*
X170890595Y-94855952D01*
X170938214Y-94903571D01*
X171033452Y-94951190D01*
X171414404Y-94951190D01*
X170414404Y-95427380D02*
X170414404Y-94760714D01*
X170414404Y-94951190D02*
X170366785Y-94855952D01*
X170319166Y-94808333D01*
X170223928Y-94760714D01*
X170128690Y-94760714D01*
X169414404Y-95379761D02*
X169509642Y-95427380D01*
X169700119Y-95427380D01*
X169795357Y-95379761D01*
X169842976Y-95284523D01*
X169842976Y-94903571D01*
X169795357Y-94808333D01*
X169700119Y-94760714D01*
X169509642Y-94760714D01*
X169414404Y-94808333D01*
X169366785Y-94903571D01*
X169366785Y-94998809D01*
X169842976Y-95094047D01*
X168509642Y-95427380D02*
X168509642Y-94903571D01*
X168557261Y-94808333D01*
X168652500Y-94760714D01*
X168842976Y-94760714D01*
X168938214Y-94808333D01*
X168509642Y-95379761D02*
X168604880Y-95427380D01*
X168842976Y-95427380D01*
X168938214Y-95379761D01*
X168985833Y-95284523D01*
X168985833Y-95189285D01*
X168938214Y-95094047D01*
X168842976Y-95046428D01*
X168604880Y-95046428D01*
X168509642Y-94998809D01*
X168033452Y-95427380D02*
X168033452Y-94760714D01*
X168033452Y-94855952D02*
X167985833Y-94808333D01*
X167890595Y-94760714D01*
X167747738Y-94760714D01*
X167652500Y-94808333D01*
X167604880Y-94903571D01*
X167604880Y-95427380D01*
X167604880Y-94903571D02*
X167557261Y-94808333D01*
X167462023Y-94760714D01*
X167319166Y-94760714D01*
X167223928Y-94808333D01*
X167176309Y-94903571D01*
X167176309Y-95427380D01*
X166700119Y-94760714D02*
X166700119Y-95760714D01*
X166700119Y-94808333D02*
X166604880Y-94760714D01*
X166414404Y-94760714D01*
X166319166Y-94808333D01*
X166271547Y-94855952D01*
X166223928Y-94951190D01*
X166223928Y-95236904D01*
X166271547Y-95332142D01*
X166319166Y-95379761D01*
X166414404Y-95427380D01*
X166604880Y-95427380D01*
X166700119Y-95379761D01*
X165081071Y-94522619D02*
X165033452Y-94475000D01*
X164938214Y-94427380D01*
X164700119Y-94427380D01*
X164604880Y-94475000D01*
X164557261Y-94522619D01*
X164509642Y-94617857D01*
X164509642Y-94713095D01*
X164557261Y-94855952D01*
X165128690Y-95427380D01*
X164509642Y-95427380D01*
X163890595Y-94427380D02*
X163795357Y-94427380D01*
X163700119Y-94475000D01*
X163652500Y-94522619D01*
X163604880Y-94617857D01*
X163557261Y-94808333D01*
X163557261Y-95046428D01*
X163604880Y-95236904D01*
X163652500Y-95332142D01*
X163700119Y-95379761D01*
X163795357Y-95427380D01*
X163890595Y-95427380D01*
X163985833Y-95379761D01*
X164033452Y-95332142D01*
X164081071Y-95236904D01*
X164128690Y-95046428D01*
X164128690Y-94808333D01*
X164081071Y-94617857D01*
X164033452Y-94522619D01*
X163985833Y-94475000D01*
X163890595Y-94427380D01*
X162604880Y-95427380D02*
X163176309Y-95427380D01*
X162890595Y-95427380D02*
X162890595Y-94427380D01*
X162985833Y-94570238D01*
X163081071Y-94665476D01*
X163176309Y-94713095D01*
X162128690Y-95427380D02*
X161938214Y-95427380D01*
X161842976Y-95379761D01*
X161795357Y-95332142D01*
X161700119Y-95189285D01*
X161652500Y-94998809D01*
X161652500Y-94617857D01*
X161700119Y-94522619D01*
X161747738Y-94475000D01*
X161842976Y-94427380D01*
X162033452Y-94427380D01*
X162128690Y-94475000D01*
X162176309Y-94522619D01*
X162223928Y-94617857D01*
X162223928Y-94855952D01*
X162176309Y-94951190D01*
X162128690Y-94998809D01*
X162033452Y-95046428D01*
X161842976Y-95046428D01*
X161747738Y-94998809D01*
X161700119Y-94951190D01*
X161652500Y-94855952D01*
X170890595Y-96125000D02*
X170985833Y-96077380D01*
X171128690Y-96077380D01*
X171271547Y-96125000D01*
X171366785Y-96220238D01*
X171414404Y-96315476D01*
X171462023Y-96505952D01*
X171462023Y-96648809D01*
X171414404Y-96839285D01*
X171366785Y-96934523D01*
X171271547Y-97029761D01*
X171128690Y-97077380D01*
X171033452Y-97077380D01*
X170890595Y-97029761D01*
X170842976Y-96982142D01*
X170842976Y-96648809D01*
X171033452Y-96648809D01*
X170414404Y-96982142D02*
X170366785Y-97029761D01*
X170414404Y-97077380D01*
X170462023Y-97029761D01*
X170414404Y-96982142D01*
X170414404Y-97077380D01*
X169176309Y-97077380D02*
X169176309Y-96077380D01*
X168604880Y-97077380D02*
X169033452Y-96505952D01*
X168604880Y-96077380D02*
X169176309Y-96648809D01*
X167795357Y-97029761D02*
X167890595Y-97077380D01*
X168081071Y-97077380D01*
X168176309Y-97029761D01*
X168223928Y-96934523D01*
X168223928Y-96553571D01*
X168176309Y-96458333D01*
X168081071Y-96410714D01*
X167890595Y-96410714D01*
X167795357Y-96458333D01*
X167747738Y-96553571D01*
X167747738Y-96648809D01*
X168223928Y-96744047D01*
X166938214Y-97029761D02*
X167033452Y-97077380D01*
X167223928Y-97077380D01*
X167319166Y-97029761D01*
X167366785Y-96934523D01*
X167366785Y-96553571D01*
X167319166Y-96458333D01*
X167223928Y-96410714D01*
X167033452Y-96410714D01*
X166938214Y-96458333D01*
X166890595Y-96553571D01*
X166890595Y-96648809D01*
X167366785Y-96744047D01*
X166604880Y-96410714D02*
X166223928Y-96410714D01*
X166462023Y-96077380D02*
X166462023Y-96934523D01*
X166414404Y-97029761D01*
X166319166Y-97077380D01*
X166223928Y-97077380D01*
X165890595Y-97077380D02*
X165890595Y-96077380D01*
X165462023Y-97077380D02*
X165462023Y-96553571D01*
X165509642Y-96458333D01*
X165604880Y-96410714D01*
X165747738Y-96410714D01*
X165842976Y-96458333D01*
X165890595Y-96505952D01*
X171462023Y-97822619D02*
X171414404Y-97775000D01*
X171319166Y-97727380D01*
X171081071Y-97727380D01*
X170985833Y-97775000D01*
X170938214Y-97822619D01*
X170890595Y-97917857D01*
X170890595Y-98013095D01*
X170938214Y-98155952D01*
X171509642Y-98727380D01*
X170890595Y-98727380D01*
X170271547Y-97727380D02*
X170176309Y-97727380D01*
X170081071Y-97775000D01*
X170033452Y-97822619D01*
X169985833Y-97917857D01*
X169938214Y-98108333D01*
X169938214Y-98346428D01*
X169985833Y-98536904D01*
X170033452Y-98632142D01*
X170081071Y-98679761D01*
X170176309Y-98727380D01*
X170271547Y-98727380D01*
X170366785Y-98679761D01*
X170414404Y-98632142D01*
X170462023Y-98536904D01*
X170509642Y-98346428D01*
X170509642Y-98108333D01*
X170462023Y-97917857D01*
X170414404Y-97822619D01*
X170366785Y-97775000D01*
X170271547Y-97727380D01*
X168985833Y-98727380D02*
X169557261Y-98727380D01*
X169271547Y-98727380D02*
X169271547Y-97727380D01*
X169366785Y-97870238D01*
X169462023Y-97965476D01*
X169557261Y-98013095D01*
X168509642Y-98727380D02*
X168319166Y-98727380D01*
X168223928Y-98679761D01*
X168176309Y-98632142D01*
X168081071Y-98489285D01*
X168033452Y-98298809D01*
X168033452Y-97917857D01*
X168081071Y-97822619D01*
X168128690Y-97775000D01*
X168223928Y-97727380D01*
X168414404Y-97727380D01*
X168509642Y-97775000D01*
X168557261Y-97822619D01*
X168604880Y-97917857D01*
X168604880Y-98155952D01*
X168557261Y-98251190D01*
X168509642Y-98298809D01*
X168414404Y-98346428D01*
X168223928Y-98346428D01*
X168128690Y-98298809D01*
X168081071Y-98251190D01*
X168033452Y-98155952D01*
X167604880Y-98346428D02*
X166842976Y-98346428D01*
X165842976Y-98727380D02*
X166414404Y-98727380D01*
X166128690Y-98727380D02*
X166128690Y-97727380D01*
X166223928Y-97870238D01*
X166319166Y-97965476D01*
X166414404Y-98013095D01*
X165462023Y-97822619D02*
X165414404Y-97775000D01*
X165319166Y-97727380D01*
X165081071Y-97727380D01*
X164985833Y-97775000D01*
X164938214Y-97822619D01*
X164890595Y-97917857D01*
X164890595Y-98013095D01*
X164938214Y-98155952D01*
X165509642Y-98727380D01*
X164890595Y-98727380D01*
X164462023Y-98346428D02*
X163700119Y-98346428D01*
X162700119Y-98727380D02*
X163271547Y-98727380D01*
X162985833Y-98727380D02*
X162985833Y-97727380D01*
X163081071Y-97870238D01*
X163176309Y-97965476D01*
X163271547Y-98013095D01*
X161795357Y-97727380D02*
X162271547Y-97727380D01*
X162319166Y-98203571D01*
X162271547Y-98155952D01*
X162176309Y-98108333D01*
X161938214Y-98108333D01*
X161842976Y-98155952D01*
X161795357Y-98203571D01*
X161747738Y-98298809D01*
X161747738Y-98536904D01*
X161795357Y-98632142D01*
X161842976Y-98679761D01*
X161938214Y-98727380D01*
X162176309Y-98727380D01*
X162271547Y-98679761D01*
X162319166Y-98632142D01*
D11*
X188735000Y-54785000D02*
X192625000Y-54785000D01*
X181680000Y-54785000D02*
X188735000Y-54785000D01*
X181680000Y-61355000D02*
X181680000Y-54785000D01*
X199680000Y-61355000D02*
X181680000Y-61355000D01*
X199680000Y-54785000D02*
X199680000Y-61355000D01*
X192625000Y-54785000D02*
X199680000Y-54785000D01*
X192625000Y-53515000D02*
X192625000Y-54785000D01*
X200950000Y-53515000D02*
X192625000Y-53515000D01*
X200950000Y-62625000D02*
X200950000Y-53515000D01*
X180410000Y-62625000D02*
X200950000Y-62625000D01*
X180410000Y-53515000D02*
X180410000Y-62625000D01*
X188735000Y-53515000D02*
X180410000Y-53515000D01*
X188735000Y-54785000D02*
X188735000Y-53515000D01*
X180120000Y-58800000D02*
X180120000Y-54800000D01*
X200950000Y-62625000D02*
X200950000Y-53515000D01*
X180410000Y-62625000D02*
X200950000Y-62625000D01*
X180410000Y-53515000D02*
X180410000Y-62625000D01*
X117785000Y-59800000D02*
X117785000Y-55800000D01*
X124645000Y-55150000D02*
X123370000Y-55150000D01*
X119095000Y-55150000D02*
X120370000Y-55150000D01*
X124645000Y-54640000D02*
X124645000Y-56170000D01*
X119095000Y-54640000D02*
X124645000Y-54640000D01*
X119095000Y-56170000D02*
X119095000Y-54640000D01*
X125665000Y-53620000D02*
X125665000Y-56170000D01*
X118075000Y-53620000D02*
X125665000Y-53620000D01*
X118075000Y-56170000D02*
X118075000Y-53620000D01*
X122495000Y-59430000D02*
X122495000Y-60450000D01*
X124645000Y-59430000D02*
X122495000Y-59430000D01*
X124645000Y-56170000D02*
X124645000Y-59430000D01*
X123370000Y-56170000D02*
X124645000Y-56170000D01*
X123370000Y-55150000D02*
X123370000Y-56170000D01*
X120370000Y-55150000D02*
X123370000Y-55150000D01*
X120370000Y-56170000D02*
X120370000Y-55150000D01*
X119095000Y-56170000D02*
X120370000Y-56170000D01*
X119095000Y-59430000D02*
X119095000Y-56170000D01*
X121245000Y-59430000D02*
X119095000Y-59430000D01*
X121245000Y-60450000D02*
X121245000Y-59430000D01*
X125665000Y-60450000D02*
X125665000Y-55150000D01*
X118075000Y-60450000D02*
X125665000Y-60450000D01*
X118075000Y-55150000D02*
X118075000Y-60450000D01*
X146285000Y-59800000D02*
X146285000Y-55800000D01*
X153145000Y-55150000D02*
X151870000Y-55150000D01*
X147595000Y-55150000D02*
X148870000Y-55150000D01*
X153145000Y-54640000D02*
X153145000Y-56170000D01*
X147595000Y-54640000D02*
X153145000Y-54640000D01*
X147595000Y-56170000D02*
X147595000Y-54640000D01*
X154165000Y-53620000D02*
X154165000Y-56170000D01*
X146575000Y-53620000D02*
X154165000Y-53620000D01*
X146575000Y-56170000D02*
X146575000Y-53620000D01*
X150995000Y-59430000D02*
X150995000Y-60450000D01*
X153145000Y-59430000D02*
X150995000Y-59430000D01*
X153145000Y-56170000D02*
X153145000Y-59430000D01*
X151870000Y-56170000D02*
X153145000Y-56170000D01*
X151870000Y-55150000D02*
X151870000Y-56170000D01*
X148870000Y-55150000D02*
X151870000Y-55150000D01*
X148870000Y-56170000D02*
X148870000Y-55150000D01*
X147595000Y-56170000D02*
X148870000Y-56170000D01*
X147595000Y-59430000D02*
X147595000Y-56170000D01*
X149745000Y-59430000D02*
X147595000Y-59430000D01*
X149745000Y-60450000D02*
X149745000Y-59430000D01*
X154165000Y-60450000D02*
X154165000Y-55150000D01*
X146575000Y-60450000D02*
X154165000Y-60450000D01*
X146575000Y-55150000D02*
X146575000Y-60450000D01*
X158410000Y-53515000D02*
X158410000Y-62625000D01*
X158410000Y-62625000D02*
X178950000Y-62625000D01*
X178950000Y-62625000D02*
X178950000Y-53515000D01*
X158120000Y-58800000D02*
X158120000Y-54800000D01*
X166735000Y-54785000D02*
X166735000Y-53515000D01*
X166735000Y-53515000D02*
X158410000Y-53515000D01*
X158410000Y-53515000D02*
X158410000Y-62625000D01*
X158410000Y-62625000D02*
X178950000Y-62625000D01*
X178950000Y-62625000D02*
X178950000Y-53515000D01*
X178950000Y-53515000D02*
X170625000Y-53515000D01*
X170625000Y-53515000D02*
X170625000Y-54785000D01*
X170625000Y-54785000D02*
X177680000Y-54785000D01*
X177680000Y-54785000D02*
X177680000Y-61355000D01*
X177680000Y-61355000D02*
X159680000Y-61355000D01*
X159680000Y-61355000D02*
X159680000Y-54785000D01*
X159680000Y-54785000D02*
X166735000Y-54785000D01*
X166735000Y-54785000D02*
X170625000Y-54785000D01*
D12*
G36*
X123544186Y-92268931D02*
G01*
X123460365Y-92713555D01*
X123151080Y-92841053D01*
X122841794Y-92968551D01*
X122470754Y-92716246D01*
X122366843Y-92645996D01*
X122272913Y-92583272D01*
X122193348Y-92530938D01*
X122132530Y-92491857D01*
X122094843Y-92468893D01*
X122084579Y-92463942D01*
X122066090Y-92476676D01*
X122026580Y-92511882D01*
X121970478Y-92565062D01*
X121902213Y-92631718D01*
X121826214Y-92707354D01*
X121746908Y-92787472D01*
X121668725Y-92867574D01*
X121596093Y-92943164D01*
X121533441Y-93009745D01*
X121485197Y-93062818D01*
X121455790Y-93097887D01*
X121448759Y-93109623D01*
X121458877Y-93131260D01*
X121487241Y-93178662D01*
X121530871Y-93247193D01*
X121586782Y-93332215D01*
X121651994Y-93429093D01*
X121689781Y-93484350D01*
X121758657Y-93585248D01*
X121819860Y-93676299D01*
X121870422Y-93752970D01*
X121907372Y-93810728D01*
X121927742Y-93845043D01*
X121930803Y-93852254D01*
X121923864Y-93872748D01*
X121904949Y-93920513D01*
X121876913Y-93988832D01*
X121842609Y-94070989D01*
X121804891Y-94160270D01*
X121766613Y-94249958D01*
X121730630Y-94333338D01*
X121699794Y-94403694D01*
X121676961Y-94454310D01*
X121664983Y-94478471D01*
X121664276Y-94479422D01*
X121645469Y-94484036D01*
X121595382Y-94494328D01*
X121519207Y-94509287D01*
X121422135Y-94527901D01*
X121309357Y-94549159D01*
X121243558Y-94561418D01*
X121123050Y-94584362D01*
X121014203Y-94606195D01*
X120922524Y-94625722D01*
X120853519Y-94641748D01*
X120812696Y-94653079D01*
X120804489Y-94656674D01*
X120796452Y-94681006D01*
X120789967Y-94735959D01*
X120785030Y-94815108D01*
X120781636Y-94912026D01*
X120779782Y-95020287D01*
X120779462Y-95133465D01*
X120780673Y-95245135D01*
X120783410Y-95348868D01*
X120787669Y-95438241D01*
X120793445Y-95506826D01*
X120800733Y-95548197D01*
X120805105Y-95556810D01*
X120831236Y-95567133D01*
X120886607Y-95581892D01*
X120963893Y-95599352D01*
X121055770Y-95617780D01*
X121087842Y-95623741D01*
X121242476Y-95652066D01*
X121364625Y-95674876D01*
X121458327Y-95693080D01*
X121527616Y-95707583D01*
X121576529Y-95719292D01*
X121609103Y-95729115D01*
X121629372Y-95737956D01*
X121641374Y-95746724D01*
X121643053Y-95748457D01*
X121659816Y-95776371D01*
X121685386Y-95830695D01*
X121717212Y-95904777D01*
X121752740Y-95991965D01*
X121789417Y-96085608D01*
X121824689Y-96179052D01*
X121856004Y-96265647D01*
X121880807Y-96338740D01*
X121896546Y-96391678D01*
X121900668Y-96417811D01*
X121900324Y-96418726D01*
X121886359Y-96440086D01*
X121854678Y-96487084D01*
X121808609Y-96554827D01*
X121751482Y-96638423D01*
X121686627Y-96732982D01*
X121668157Y-96759854D01*
X121602301Y-96857275D01*
X121544350Y-96946163D01*
X121497462Y-97021412D01*
X121464793Y-97077920D01*
X121449500Y-97110581D01*
X121448759Y-97114593D01*
X121461608Y-97135684D01*
X121497112Y-97177464D01*
X121550707Y-97235445D01*
X121617829Y-97305135D01*
X121693913Y-97382045D01*
X121774396Y-97461683D01*
X121854713Y-97539561D01*
X121930301Y-97611186D01*
X121996595Y-97672070D01*
X122049031Y-97717721D01*
X122083045Y-97743650D01*
X122092455Y-97747883D01*
X122114357Y-97737912D01*
X122159200Y-97711020D01*
X122219679Y-97671736D01*
X122266211Y-97640117D01*
X122350525Y-97582098D01*
X122450374Y-97513784D01*
X122550527Y-97445579D01*
X122604373Y-97409075D01*
X122786629Y-97285800D01*
X122939619Y-97368520D01*
X123009318Y-97404759D01*
X123068586Y-97432926D01*
X123108689Y-97448991D01*
X123118897Y-97451226D01*
X123131171Y-97434722D01*
X123155387Y-97388082D01*
X123189737Y-97315609D01*
X123232412Y-97221606D01*
X123281606Y-97110374D01*
X123335510Y-96986215D01*
X123392316Y-96853432D01*
X123450218Y-96716327D01*
X123507407Y-96579202D01*
X123562076Y-96446358D01*
X123612416Y-96322098D01*
X123656620Y-96210725D01*
X123692881Y-96116539D01*
X123719391Y-96043844D01*
X123734342Y-95996941D01*
X123736746Y-95980833D01*
X123717689Y-95960286D01*
X123675964Y-95926933D01*
X123620294Y-95887702D01*
X123615622Y-95884599D01*
X123471736Y-95769423D01*
X123355717Y-95635053D01*
X123268570Y-95485784D01*
X123211301Y-95325913D01*
X123184914Y-95159737D01*
X123190415Y-94991552D01*
X123228810Y-94825655D01*
X123301105Y-94666342D01*
X123322374Y-94631487D01*
X123433004Y-94490737D01*
X123563698Y-94377714D01*
X123709936Y-94293003D01*
X123867192Y-94237194D01*
X124030943Y-94210874D01*
X124196667Y-94214630D01*
X124359838Y-94249050D01*
X124515935Y-94314723D01*
X124660433Y-94412235D01*
X124705131Y-94451813D01*
X124818888Y-94575703D01*
X124901782Y-94706124D01*
X124958644Y-94852315D01*
X124990313Y-94997088D01*
X124998131Y-95159860D01*
X124972062Y-95323440D01*
X124914755Y-95482298D01*
X124828856Y-95630906D01*
X124717014Y-95763735D01*
X124581877Y-95875256D01*
X124564117Y-95887011D01*
X124507850Y-95925508D01*
X124465077Y-95958863D01*
X124444628Y-95980160D01*
X124444331Y-95980833D01*
X124448721Y-96003871D01*
X124466124Y-96056157D01*
X124494732Y-96133390D01*
X124532735Y-96231268D01*
X124578326Y-96345491D01*
X124629697Y-96471758D01*
X124685038Y-96605767D01*
X124742542Y-96743218D01*
X124800399Y-96879808D01*
X124856802Y-97011237D01*
X124909942Y-97133205D01*
X124958010Y-97241409D01*
X124999199Y-97331549D01*
X125031699Y-97399323D01*
X125053703Y-97440430D01*
X125062564Y-97451226D01*
X125089640Y-97442819D01*
X125140303Y-97420272D01*
X125205817Y-97387613D01*
X125241841Y-97368520D01*
X125394832Y-97285800D01*
X125577088Y-97409075D01*
X125670125Y-97472228D01*
X125771985Y-97541727D01*
X125867438Y-97607165D01*
X125915250Y-97640117D01*
X125982495Y-97685273D01*
X126039436Y-97721057D01*
X126078646Y-97742938D01*
X126091381Y-97747563D01*
X126109917Y-97735085D01*
X126150941Y-97700252D01*
X126210475Y-97646678D01*
X126284542Y-97577983D01*
X126369165Y-97497781D01*
X126422685Y-97446286D01*
X126516319Y-97354286D01*
X126597241Y-97271999D01*
X126662177Y-97202945D01*
X126707858Y-97150644D01*
X126731011Y-97118616D01*
X126733232Y-97112116D01*
X126722924Y-97087394D01*
X126694439Y-97037405D01*
X126650937Y-96967212D01*
X126595577Y-96881875D01*
X126531520Y-96786456D01*
X126513303Y-96759854D01*
X126446927Y-96663167D01*
X126387378Y-96576117D01*
X126337984Y-96503595D01*
X126302075Y-96450493D01*
X126282981Y-96421703D01*
X126281136Y-96418726D01*
X126283895Y-96395782D01*
X126298538Y-96345336D01*
X126322513Y-96274041D01*
X126353266Y-96188547D01*
X126388244Y-96095507D01*
X126424893Y-96001574D01*
X126460661Y-95913399D01*
X126492994Y-95837634D01*
X126519338Y-95780931D01*
X126537142Y-95749943D01*
X126538407Y-95748457D01*
X126549294Y-95739601D01*
X126567682Y-95730843D01*
X126597606Y-95721277D01*
X126643103Y-95709996D01*
X126708209Y-95696093D01*
X126796961Y-95678663D01*
X126913393Y-95656798D01*
X127061542Y-95629591D01*
X127093618Y-95623741D01*
X127188686Y-95605374D01*
X127271565Y-95587405D01*
X127334930Y-95571569D01*
X127371458Y-95559600D01*
X127376356Y-95556810D01*
X127384427Y-95532072D01*
X127390987Y-95476790D01*
X127396033Y-95397389D01*
X127399559Y-95300296D01*
X127401561Y-95191938D01*
X127402036Y-95078740D01*
X127400977Y-94967128D01*
X127398382Y-94863529D01*
X127394246Y-94774368D01*
X127388563Y-94706072D01*
X127381331Y-94665066D01*
X127376971Y-94656674D01*
X127352698Y-94648208D01*
X127297426Y-94634435D01*
X127216662Y-94616550D01*
X127115912Y-94595748D01*
X127000683Y-94573223D01*
X126937902Y-94561418D01*
X126818787Y-94539151D01*
X126712565Y-94518979D01*
X126624427Y-94501915D01*
X126559566Y-94488969D01*
X126523174Y-94481155D01*
X126517184Y-94479422D01*
X126507061Y-94459890D01*
X126485662Y-94412843D01*
X126455839Y-94345003D01*
X126420445Y-94263091D01*
X126382332Y-94173828D01*
X126344353Y-94083935D01*
X126309360Y-94000135D01*
X126280206Y-93929147D01*
X126259743Y-93877694D01*
X126250823Y-93852497D01*
X126250657Y-93851396D01*
X126260769Y-93831519D01*
X126289117Y-93785777D01*
X126332723Y-93718717D01*
X126388606Y-93634884D01*
X126453787Y-93538826D01*
X126491679Y-93483650D01*
X126560725Y-93382481D01*
X126622050Y-93290630D01*
X126672663Y-93212744D01*
X126709571Y-93153469D01*
X126729782Y-93117451D01*
X126732701Y-93109377D01*
X126720153Y-93090584D01*
X126685463Y-93050457D01*
X126633063Y-92993493D01*
X126567384Y-92924185D01*
X126492856Y-92847031D01*
X126413913Y-92766525D01*
X126334983Y-92687163D01*
X126260500Y-92613440D01*
X126194894Y-92549852D01*
X126142596Y-92500894D01*
X126108039Y-92471061D01*
X126096478Y-92463942D01*
X126077654Y-92473953D01*
X126032631Y-92502078D01*
X125965787Y-92545454D01*
X125881499Y-92601218D01*
X125784144Y-92666506D01*
X125710707Y-92716246D01*
X125339667Y-92968551D01*
X124721095Y-92713555D01*
X124637275Y-92268931D01*
X124553454Y-91824307D01*
X123628006Y-91824307D01*
X123544186Y-92268931D01*
G37*
X123544186Y-92268931D02*
X123460365Y-92713555D01*
X123151080Y-92841053D01*
X122841794Y-92968551D01*
X122470754Y-92716246D01*
X122366843Y-92645996D01*
X122272913Y-92583272D01*
X122193348Y-92530938D01*
X122132530Y-92491857D01*
X122094843Y-92468893D01*
X122084579Y-92463942D01*
X122066090Y-92476676D01*
X122026580Y-92511882D01*
X121970478Y-92565062D01*
X121902213Y-92631718D01*
X121826214Y-92707354D01*
X121746908Y-92787472D01*
X121668725Y-92867574D01*
X121596093Y-92943164D01*
X121533441Y-93009745D01*
X121485197Y-93062818D01*
X121455790Y-93097887D01*
X121448759Y-93109623D01*
X121458877Y-93131260D01*
X121487241Y-93178662D01*
X121530871Y-93247193D01*
X121586782Y-93332215D01*
X121651994Y-93429093D01*
X121689781Y-93484350D01*
X121758657Y-93585248D01*
X121819860Y-93676299D01*
X121870422Y-93752970D01*
X121907372Y-93810728D01*
X121927742Y-93845043D01*
X121930803Y-93852254D01*
X121923864Y-93872748D01*
X121904949Y-93920513D01*
X121876913Y-93988832D01*
X121842609Y-94070989D01*
X121804891Y-94160270D01*
X121766613Y-94249958D01*
X121730630Y-94333338D01*
X121699794Y-94403694D01*
X121676961Y-94454310D01*
X121664983Y-94478471D01*
X121664276Y-94479422D01*
X121645469Y-94484036D01*
X121595382Y-94494328D01*
X121519207Y-94509287D01*
X121422135Y-94527901D01*
X121309357Y-94549159D01*
X121243558Y-94561418D01*
X121123050Y-94584362D01*
X121014203Y-94606195D01*
X120922524Y-94625722D01*
X120853519Y-94641748D01*
X120812696Y-94653079D01*
X120804489Y-94656674D01*
X120796452Y-94681006D01*
X120789967Y-94735959D01*
X120785030Y-94815108D01*
X120781636Y-94912026D01*
X120779782Y-95020287D01*
X120779462Y-95133465D01*
X120780673Y-95245135D01*
X120783410Y-95348868D01*
X120787669Y-95438241D01*
X120793445Y-95506826D01*
X120800733Y-95548197D01*
X120805105Y-95556810D01*
X120831236Y-95567133D01*
X120886607Y-95581892D01*
X120963893Y-95599352D01*
X121055770Y-95617780D01*
X121087842Y-95623741D01*
X121242476Y-95652066D01*
X121364625Y-95674876D01*
X121458327Y-95693080D01*
X121527616Y-95707583D01*
X121576529Y-95719292D01*
X121609103Y-95729115D01*
X121629372Y-95737956D01*
X121641374Y-95746724D01*
X121643053Y-95748457D01*
X121659816Y-95776371D01*
X121685386Y-95830695D01*
X121717212Y-95904777D01*
X121752740Y-95991965D01*
X121789417Y-96085608D01*
X121824689Y-96179052D01*
X121856004Y-96265647D01*
X121880807Y-96338740D01*
X121896546Y-96391678D01*
X121900668Y-96417811D01*
X121900324Y-96418726D01*
X121886359Y-96440086D01*
X121854678Y-96487084D01*
X121808609Y-96554827D01*
X121751482Y-96638423D01*
X121686627Y-96732982D01*
X121668157Y-96759854D01*
X121602301Y-96857275D01*
X121544350Y-96946163D01*
X121497462Y-97021412D01*
X121464793Y-97077920D01*
X121449500Y-97110581D01*
X121448759Y-97114593D01*
X121461608Y-97135684D01*
X121497112Y-97177464D01*
X121550707Y-97235445D01*
X121617829Y-97305135D01*
X121693913Y-97382045D01*
X121774396Y-97461683D01*
X121854713Y-97539561D01*
X121930301Y-97611186D01*
X121996595Y-97672070D01*
X122049031Y-97717721D01*
X122083045Y-97743650D01*
X122092455Y-97747883D01*
X122114357Y-97737912D01*
X122159200Y-97711020D01*
X122219679Y-97671736D01*
X122266211Y-97640117D01*
X122350525Y-97582098D01*
X122450374Y-97513784D01*
X122550527Y-97445579D01*
X122604373Y-97409075D01*
X122786629Y-97285800D01*
X122939619Y-97368520D01*
X123009318Y-97404759D01*
X123068586Y-97432926D01*
X123108689Y-97448991D01*
X123118897Y-97451226D01*
X123131171Y-97434722D01*
X123155387Y-97388082D01*
X123189737Y-97315609D01*
X123232412Y-97221606D01*
X123281606Y-97110374D01*
X123335510Y-96986215D01*
X123392316Y-96853432D01*
X123450218Y-96716327D01*
X123507407Y-96579202D01*
X123562076Y-96446358D01*
X123612416Y-96322098D01*
X123656620Y-96210725D01*
X123692881Y-96116539D01*
X123719391Y-96043844D01*
X123734342Y-95996941D01*
X123736746Y-95980833D01*
X123717689Y-95960286D01*
X123675964Y-95926933D01*
X123620294Y-95887702D01*
X123615622Y-95884599D01*
X123471736Y-95769423D01*
X123355717Y-95635053D01*
X123268570Y-95485784D01*
X123211301Y-95325913D01*
X123184914Y-95159737D01*
X123190415Y-94991552D01*
X123228810Y-94825655D01*
X123301105Y-94666342D01*
X123322374Y-94631487D01*
X123433004Y-94490737D01*
X123563698Y-94377714D01*
X123709936Y-94293003D01*
X123867192Y-94237194D01*
X124030943Y-94210874D01*
X124196667Y-94214630D01*
X124359838Y-94249050D01*
X124515935Y-94314723D01*
X124660433Y-94412235D01*
X124705131Y-94451813D01*
X124818888Y-94575703D01*
X124901782Y-94706124D01*
X124958644Y-94852315D01*
X124990313Y-94997088D01*
X124998131Y-95159860D01*
X124972062Y-95323440D01*
X124914755Y-95482298D01*
X124828856Y-95630906D01*
X124717014Y-95763735D01*
X124581877Y-95875256D01*
X124564117Y-95887011D01*
X124507850Y-95925508D01*
X124465077Y-95958863D01*
X124444628Y-95980160D01*
X124444331Y-95980833D01*
X124448721Y-96003871D01*
X124466124Y-96056157D01*
X124494732Y-96133390D01*
X124532735Y-96231268D01*
X124578326Y-96345491D01*
X124629697Y-96471758D01*
X124685038Y-96605767D01*
X124742542Y-96743218D01*
X124800399Y-96879808D01*
X124856802Y-97011237D01*
X124909942Y-97133205D01*
X124958010Y-97241409D01*
X124999199Y-97331549D01*
X125031699Y-97399323D01*
X125053703Y-97440430D01*
X125062564Y-97451226D01*
X125089640Y-97442819D01*
X125140303Y-97420272D01*
X125205817Y-97387613D01*
X125241841Y-97368520D01*
X125394832Y-97285800D01*
X125577088Y-97409075D01*
X125670125Y-97472228D01*
X125771985Y-97541727D01*
X125867438Y-97607165D01*
X125915250Y-97640117D01*
X125982495Y-97685273D01*
X126039436Y-97721057D01*
X126078646Y-97742938D01*
X126091381Y-97747563D01*
X126109917Y-97735085D01*
X126150941Y-97700252D01*
X126210475Y-97646678D01*
X126284542Y-97577983D01*
X126369165Y-97497781D01*
X126422685Y-97446286D01*
X126516319Y-97354286D01*
X126597241Y-97271999D01*
X126662177Y-97202945D01*
X126707858Y-97150644D01*
X126731011Y-97118616D01*
X126733232Y-97112116D01*
X126722924Y-97087394D01*
X126694439Y-97037405D01*
X126650937Y-96967212D01*
X126595577Y-96881875D01*
X126531520Y-96786456D01*
X126513303Y-96759854D01*
X126446927Y-96663167D01*
X126387378Y-96576117D01*
X126337984Y-96503595D01*
X126302075Y-96450493D01*
X126282981Y-96421703D01*
X126281136Y-96418726D01*
X126283895Y-96395782D01*
X126298538Y-96345336D01*
X126322513Y-96274041D01*
X126353266Y-96188547D01*
X126388244Y-96095507D01*
X126424893Y-96001574D01*
X126460661Y-95913399D01*
X126492994Y-95837634D01*
X126519338Y-95780931D01*
X126537142Y-95749943D01*
X126538407Y-95748457D01*
X126549294Y-95739601D01*
X126567682Y-95730843D01*
X126597606Y-95721277D01*
X126643103Y-95709996D01*
X126708209Y-95696093D01*
X126796961Y-95678663D01*
X126913393Y-95656798D01*
X127061542Y-95629591D01*
X127093618Y-95623741D01*
X127188686Y-95605374D01*
X127271565Y-95587405D01*
X127334930Y-95571569D01*
X127371458Y-95559600D01*
X127376356Y-95556810D01*
X127384427Y-95532072D01*
X127390987Y-95476790D01*
X127396033Y-95397389D01*
X127399559Y-95300296D01*
X127401561Y-95191938D01*
X127402036Y-95078740D01*
X127400977Y-94967128D01*
X127398382Y-94863529D01*
X127394246Y-94774368D01*
X127388563Y-94706072D01*
X127381331Y-94665066D01*
X127376971Y-94656674D01*
X127352698Y-94648208D01*
X127297426Y-94634435D01*
X127216662Y-94616550D01*
X127115912Y-94595748D01*
X127000683Y-94573223D01*
X126937902Y-94561418D01*
X126818787Y-94539151D01*
X126712565Y-94518979D01*
X126624427Y-94501915D01*
X126559566Y-94488969D01*
X126523174Y-94481155D01*
X126517184Y-94479422D01*
X126507061Y-94459890D01*
X126485662Y-94412843D01*
X126455839Y-94345003D01*
X126420445Y-94263091D01*
X126382332Y-94173828D01*
X126344353Y-94083935D01*
X126309360Y-94000135D01*
X126280206Y-93929147D01*
X126259743Y-93877694D01*
X126250823Y-93852497D01*
X126250657Y-93851396D01*
X126260769Y-93831519D01*
X126289117Y-93785777D01*
X126332723Y-93718717D01*
X126388606Y-93634884D01*
X126453787Y-93538826D01*
X126491679Y-93483650D01*
X126560725Y-93382481D01*
X126622050Y-93290630D01*
X126672663Y-93212744D01*
X126709571Y-93153469D01*
X126729782Y-93117451D01*
X126732701Y-93109377D01*
X126720153Y-93090584D01*
X126685463Y-93050457D01*
X126633063Y-92993493D01*
X126567384Y-92924185D01*
X126492856Y-92847031D01*
X126413913Y-92766525D01*
X126334983Y-92687163D01*
X126260500Y-92613440D01*
X126194894Y-92549852D01*
X126142596Y-92500894D01*
X126108039Y-92471061D01*
X126096478Y-92463942D01*
X126077654Y-92473953D01*
X126032631Y-92502078D01*
X125965787Y-92545454D01*
X125881499Y-92601218D01*
X125784144Y-92666506D01*
X125710707Y-92716246D01*
X125339667Y-92968551D01*
X124721095Y-92713555D01*
X124637275Y-92268931D01*
X124553454Y-91824307D01*
X123628006Y-91824307D01*
X123544186Y-92268931D01*
G36*
X104491177Y-97074533D02*
G01*
X104459798Y-97096776D01*
X104432089Y-97124485D01*
X104432089Y-97433920D01*
X104432162Y-97525799D01*
X104432505Y-97597840D01*
X104433308Y-97652780D01*
X104434759Y-97693360D01*
X104437048Y-97722317D01*
X104440364Y-97742391D01*
X104444895Y-97756321D01*
X104450831Y-97766845D01*
X104455486Y-97773100D01*
X104486217Y-97797673D01*
X104521504Y-97800341D01*
X104553755Y-97785271D01*
X104564412Y-97776374D01*
X104571536Y-97764557D01*
X104575833Y-97745526D01*
X104578009Y-97714992D01*
X104578772Y-97668662D01*
X104578845Y-97632871D01*
X104578845Y-97498045D01*
X105075556Y-97498045D01*
X105075556Y-97620700D01*
X105076069Y-97676787D01*
X105078124Y-97715333D01*
X105082492Y-97741361D01*
X105089944Y-97759897D01*
X105098953Y-97773100D01*
X105129856Y-97797604D01*
X105164804Y-97800506D01*
X105198262Y-97783089D01*
X105207396Y-97773959D01*
X105213848Y-97761855D01*
X105218103Y-97743001D01*
X105220648Y-97713620D01*
X105221971Y-97669937D01*
X105222557Y-97608175D01*
X105222625Y-97594000D01*
X105223109Y-97477631D01*
X105223359Y-97381727D01*
X105223277Y-97304177D01*
X105222769Y-97242869D01*
X105221738Y-97195690D01*
X105220087Y-97160530D01*
X105217721Y-97135276D01*
X105214543Y-97117817D01*
X105210456Y-97106041D01*
X105205366Y-97097835D01*
X105199734Y-97091645D01*
X105167872Y-97071844D01*
X105134643Y-97074533D01*
X105103265Y-97096776D01*
X105090567Y-97111126D01*
X105082474Y-97126978D01*
X105077958Y-97149554D01*
X105075994Y-97184078D01*
X105075556Y-97235776D01*
X105075556Y-97351289D01*
X104578845Y-97351289D01*
X104578845Y-97232756D01*
X104578338Y-97178148D01*
X104576302Y-97141275D01*
X104571965Y-97117307D01*
X104564553Y-97101415D01*
X104556267Y-97091645D01*
X104524406Y-97071844D01*
X104491177Y-97074533D01*
G37*
X104491177Y-97074533D02*
X104459798Y-97096776D01*
X104432089Y-97124485D01*
X104432089Y-97433920D01*
X104432162Y-97525799D01*
X104432505Y-97597840D01*
X104433308Y-97652780D01*
X104434759Y-97693360D01*
X104437048Y-97722317D01*
X104440364Y-97742391D01*
X104444895Y-97756321D01*
X104450831Y-97766845D01*
X104455486Y-97773100D01*
X104486217Y-97797673D01*
X104521504Y-97800341D01*
X104553755Y-97785271D01*
X104564412Y-97776374D01*
X104571536Y-97764557D01*
X104575833Y-97745526D01*
X104578009Y-97714992D01*
X104578772Y-97668662D01*
X104578845Y-97632871D01*
X104578845Y-97498045D01*
X105075556Y-97498045D01*
X105075556Y-97620700D01*
X105076069Y-97676787D01*
X105078124Y-97715333D01*
X105082492Y-97741361D01*
X105089944Y-97759897D01*
X105098953Y-97773100D01*
X105129856Y-97797604D01*
X105164804Y-97800506D01*
X105198262Y-97783089D01*
X105207396Y-97773959D01*
X105213848Y-97761855D01*
X105218103Y-97743001D01*
X105220648Y-97713620D01*
X105221971Y-97669937D01*
X105222557Y-97608175D01*
X105222625Y-97594000D01*
X105223109Y-97477631D01*
X105223359Y-97381727D01*
X105223277Y-97304177D01*
X105222769Y-97242869D01*
X105221738Y-97195690D01*
X105220087Y-97160530D01*
X105217721Y-97135276D01*
X105214543Y-97117817D01*
X105210456Y-97106041D01*
X105205366Y-97097835D01*
X105199734Y-97091645D01*
X105167872Y-97071844D01*
X105134643Y-97074533D01*
X105103265Y-97096776D01*
X105090567Y-97111126D01*
X105082474Y-97126978D01*
X105077958Y-97149554D01*
X105075994Y-97184078D01*
X105075556Y-97235776D01*
X105075556Y-97351289D01*
X104578845Y-97351289D01*
X104578845Y-97232756D01*
X104578338Y-97178148D01*
X104576302Y-97141275D01*
X104571965Y-97117307D01*
X104564553Y-97101415D01*
X104556267Y-97091645D01*
X104524406Y-97071844D01*
X104491177Y-97074533D01*
G36*
X105756935Y-97069163D02*
G01*
X105678228Y-97069542D01*
X105617137Y-97070333D01*
X105571183Y-97071670D01*
X105537886Y-97073683D01*
X105514764Y-97076506D01*
X105499338Y-97080269D01*
X105489129Y-97085105D01*
X105484187Y-97088822D01*
X105458543Y-97121358D01*
X105455441Y-97155138D01*
X105471289Y-97185826D01*
X105481652Y-97198089D01*
X105492804Y-97206450D01*
X105508965Y-97211657D01*
X105534358Y-97214457D01*
X105573202Y-97215596D01*
X105629720Y-97215821D01*
X105640820Y-97215822D01*
X105786756Y-97215822D01*
X105786756Y-97486756D01*
X105786852Y-97572154D01*
X105787289Y-97637864D01*
X105788288Y-97686774D01*
X105790072Y-97721773D01*
X105792863Y-97745749D01*
X105796883Y-97761593D01*
X105802355Y-97772191D01*
X105809334Y-97780267D01*
X105842266Y-97800112D01*
X105876646Y-97798548D01*
X105907824Y-97775906D01*
X105910114Y-97773100D01*
X105917571Y-97762492D01*
X105923253Y-97750081D01*
X105927399Y-97732850D01*
X105930250Y-97707784D01*
X105932046Y-97671867D01*
X105933028Y-97622083D01*
X105933436Y-97555417D01*
X105933511Y-97479589D01*
X105933511Y-97215822D01*
X106072873Y-97215822D01*
X106132678Y-97215418D01*
X106174082Y-97213840D01*
X106201252Y-97210547D01*
X106218354Y-97204992D01*
X106229557Y-97196631D01*
X106230917Y-97195178D01*
X106247275Y-97161939D01*
X106245828Y-97124362D01*
X106227022Y-97091645D01*
X106219750Y-97085298D01*
X106210373Y-97080266D01*
X106196391Y-97076396D01*
X106175304Y-97073537D01*
X106144611Y-97071535D01*
X106101811Y-97070239D01*
X106044405Y-97069498D01*
X105969890Y-97069158D01*
X105875767Y-97069068D01*
X105855740Y-97069067D01*
X105756935Y-97069163D01*
G37*
X105756935Y-97069163D02*
X105678228Y-97069542D01*
X105617137Y-97070333D01*
X105571183Y-97071670D01*
X105537886Y-97073683D01*
X105514764Y-97076506D01*
X105499338Y-97080269D01*
X105489129Y-97085105D01*
X105484187Y-97088822D01*
X105458543Y-97121358D01*
X105455441Y-97155138D01*
X105471289Y-97185826D01*
X105481652Y-97198089D01*
X105492804Y-97206450D01*
X105508965Y-97211657D01*
X105534358Y-97214457D01*
X105573202Y-97215596D01*
X105629720Y-97215821D01*
X105640820Y-97215822D01*
X105786756Y-97215822D01*
X105786756Y-97486756D01*
X105786852Y-97572154D01*
X105787289Y-97637864D01*
X105788288Y-97686774D01*
X105790072Y-97721773D01*
X105792863Y-97745749D01*
X105796883Y-97761593D01*
X105802355Y-97772191D01*
X105809334Y-97780267D01*
X105842266Y-97800112D01*
X105876646Y-97798548D01*
X105907824Y-97775906D01*
X105910114Y-97773100D01*
X105917571Y-97762492D01*
X105923253Y-97750081D01*
X105927399Y-97732850D01*
X105930250Y-97707784D01*
X105932046Y-97671867D01*
X105933028Y-97622083D01*
X105933436Y-97555417D01*
X105933511Y-97479589D01*
X105933511Y-97215822D01*
X106072873Y-97215822D01*
X106132678Y-97215418D01*
X106174082Y-97213840D01*
X106201252Y-97210547D01*
X106218354Y-97204992D01*
X106229557Y-97196631D01*
X106230917Y-97195178D01*
X106247275Y-97161939D01*
X106245828Y-97124362D01*
X106227022Y-97091645D01*
X106219750Y-97085298D01*
X106210373Y-97080266D01*
X106196391Y-97076396D01*
X106175304Y-97073537D01*
X106144611Y-97071535D01*
X106101811Y-97070239D01*
X106044405Y-97069498D01*
X105969890Y-97069158D01*
X105875767Y-97069068D01*
X105855740Y-97069067D01*
X105756935Y-97069163D01*
G36*
X106531386Y-97075877D02*
G01*
X106507673Y-97090647D01*
X106481022Y-97112227D01*
X106481022Y-97433773D01*
X106481107Y-97527830D01*
X106481471Y-97601932D01*
X106482276Y-97658704D01*
X106483687Y-97700768D01*
X106485867Y-97730748D01*
X106488979Y-97751267D01*
X106493186Y-97764949D01*
X106498652Y-97774416D01*
X106502528Y-97779082D01*
X106533966Y-97799575D01*
X106569767Y-97798739D01*
X106601127Y-97781264D01*
X106627778Y-97759684D01*
X106627778Y-97112227D01*
X106601127Y-97090647D01*
X106575406Y-97074949D01*
X106554400Y-97069067D01*
X106531386Y-97075877D01*
G37*
X106531386Y-97075877D02*
X106507673Y-97090647D01*
X106481022Y-97112227D01*
X106481022Y-97433773D01*
X106481107Y-97527830D01*
X106481471Y-97601932D01*
X106482276Y-97658704D01*
X106483687Y-97700768D01*
X106485867Y-97730748D01*
X106488979Y-97751267D01*
X106493186Y-97764949D01*
X106498652Y-97774416D01*
X106502528Y-97779082D01*
X106533966Y-97799575D01*
X106569767Y-97798739D01*
X106601127Y-97781264D01*
X106627778Y-97759684D01*
X106627778Y-97112227D01*
X106601127Y-97090647D01*
X106575406Y-97074949D01*
X106554400Y-97069067D01*
X106531386Y-97075877D01*
G36*
X106975335Y-97071034D02*
G01*
X106955745Y-97078035D01*
X106954990Y-97078377D01*
X106928387Y-97098678D01*
X106913730Y-97119561D01*
X106910862Y-97129352D01*
X106911004Y-97142361D01*
X106915039Y-97160895D01*
X106923854Y-97187257D01*
X106938331Y-97223752D01*
X106959355Y-97272687D01*
X106987812Y-97336365D01*
X107024585Y-97417093D01*
X107044825Y-97461216D01*
X107081375Y-97539985D01*
X107115685Y-97612423D01*
X107146448Y-97675880D01*
X107172352Y-97727708D01*
X107192090Y-97765259D01*
X107204350Y-97785884D01*
X107206776Y-97788733D01*
X107237817Y-97801302D01*
X107272879Y-97799619D01*
X107301000Y-97784332D01*
X107302146Y-97783089D01*
X107313332Y-97766154D01*
X107332096Y-97733170D01*
X107356125Y-97688380D01*
X107383103Y-97636032D01*
X107392799Y-97616742D01*
X107465986Y-97470150D01*
X107545760Y-97629393D01*
X107574233Y-97684415D01*
X107600650Y-97732132D01*
X107622852Y-97768893D01*
X107638681Y-97791044D01*
X107644046Y-97795741D01*
X107685743Y-97802102D01*
X107720151Y-97788733D01*
X107730272Y-97774446D01*
X107747786Y-97742692D01*
X107771265Y-97696597D01*
X107799280Y-97639285D01*
X107830401Y-97573880D01*
X107863201Y-97503507D01*
X107896250Y-97431291D01*
X107928119Y-97360355D01*
X107957381Y-97293825D01*
X107982605Y-97234826D01*
X108002364Y-97186481D01*
X108015228Y-97151915D01*
X108019769Y-97134253D01*
X108019723Y-97133613D01*
X108008674Y-97111388D01*
X107986590Y-97088753D01*
X107985290Y-97087768D01*
X107958147Y-97072425D01*
X107933042Y-97072574D01*
X107923632Y-97075466D01*
X107912166Y-97081718D01*
X107899990Y-97094014D01*
X107885643Y-97114908D01*
X107867664Y-97146949D01*
X107844593Y-97192688D01*
X107814970Y-97254677D01*
X107788255Y-97311898D01*
X107757520Y-97378226D01*
X107729979Y-97437874D01*
X107707062Y-97487725D01*
X107690202Y-97524664D01*
X107680827Y-97545573D01*
X107679460Y-97548845D01*
X107673311Y-97543497D01*
X107659178Y-97521109D01*
X107638943Y-97484946D01*
X107614485Y-97438277D01*
X107604752Y-97419022D01*
X107571783Y-97354004D01*
X107546357Y-97306654D01*
X107526388Y-97274219D01*
X107509790Y-97253946D01*
X107494476Y-97243082D01*
X107478360Y-97238875D01*
X107467857Y-97238400D01*
X107449330Y-97240042D01*
X107433096Y-97246831D01*
X107416965Y-97261566D01*
X107398749Y-97287044D01*
X107376261Y-97326061D01*
X107347311Y-97381414D01*
X107331338Y-97412903D01*
X107305430Y-97463087D01*
X107282833Y-97504704D01*
X107265542Y-97534242D01*
X107255550Y-97548189D01*
X107254191Y-97548770D01*
X107247739Y-97537793D01*
X107233292Y-97509290D01*
X107212297Y-97466244D01*
X107186203Y-97411638D01*
X107156454Y-97348454D01*
X107141820Y-97317071D01*
X107103750Y-97236078D01*
X107073095Y-97173756D01*
X107048263Y-97128071D01*
X107027663Y-97096989D01*
X107009702Y-97078478D01*
X106992790Y-97070504D01*
X106975335Y-97071034D01*
G37*
X106975335Y-97071034D02*
X106955745Y-97078035D01*
X106954990Y-97078377D01*
X106928387Y-97098678D01*
X106913730Y-97119561D01*
X106910862Y-97129352D01*
X106911004Y-97142361D01*
X106915039Y-97160895D01*
X106923854Y-97187257D01*
X106938331Y-97223752D01*
X106959355Y-97272687D01*
X106987812Y-97336365D01*
X107024585Y-97417093D01*
X107044825Y-97461216D01*
X107081375Y-97539985D01*
X107115685Y-97612423D01*
X107146448Y-97675880D01*
X107172352Y-97727708D01*
X107192090Y-97765259D01*
X107204350Y-97785884D01*
X107206776Y-97788733D01*
X107237817Y-97801302D01*
X107272879Y-97799619D01*
X107301000Y-97784332D01*
X107302146Y-97783089D01*
X107313332Y-97766154D01*
X107332096Y-97733170D01*
X107356125Y-97688380D01*
X107383103Y-97636032D01*
X107392799Y-97616742D01*
X107465986Y-97470150D01*
X107545760Y-97629393D01*
X107574233Y-97684415D01*
X107600650Y-97732132D01*
X107622852Y-97768893D01*
X107638681Y-97791044D01*
X107644046Y-97795741D01*
X107685743Y-97802102D01*
X107720151Y-97788733D01*
X107730272Y-97774446D01*
X107747786Y-97742692D01*
X107771265Y-97696597D01*
X107799280Y-97639285D01*
X107830401Y-97573880D01*
X107863201Y-97503507D01*
X107896250Y-97431291D01*
X107928119Y-97360355D01*
X107957381Y-97293825D01*
X107982605Y-97234826D01*
X108002364Y-97186481D01*
X108015228Y-97151915D01*
X108019769Y-97134253D01*
X108019723Y-97133613D01*
X108008674Y-97111388D01*
X107986590Y-97088753D01*
X107985290Y-97087768D01*
X107958147Y-97072425D01*
X107933042Y-97072574D01*
X107923632Y-97075466D01*
X107912166Y-97081718D01*
X107899990Y-97094014D01*
X107885643Y-97114908D01*
X107867664Y-97146949D01*
X107844593Y-97192688D01*
X107814970Y-97254677D01*
X107788255Y-97311898D01*
X107757520Y-97378226D01*
X107729979Y-97437874D01*
X107707062Y-97487725D01*
X107690202Y-97524664D01*
X107680827Y-97545573D01*
X107679460Y-97548845D01*
X107673311Y-97543497D01*
X107659178Y-97521109D01*
X107638943Y-97484946D01*
X107614485Y-97438277D01*
X107604752Y-97419022D01*
X107571783Y-97354004D01*
X107546357Y-97306654D01*
X107526388Y-97274219D01*
X107509790Y-97253946D01*
X107494476Y-97243082D01*
X107478360Y-97238875D01*
X107467857Y-97238400D01*
X107449330Y-97240042D01*
X107433096Y-97246831D01*
X107416965Y-97261566D01*
X107398749Y-97287044D01*
X107376261Y-97326061D01*
X107347311Y-97381414D01*
X107331338Y-97412903D01*
X107305430Y-97463087D01*
X107282833Y-97504704D01*
X107265542Y-97534242D01*
X107255550Y-97548189D01*
X107254191Y-97548770D01*
X107247739Y-97537793D01*
X107233292Y-97509290D01*
X107212297Y-97466244D01*
X107186203Y-97411638D01*
X107156454Y-97348454D01*
X107141820Y-97317071D01*
X107103750Y-97236078D01*
X107073095Y-97173756D01*
X107048263Y-97128071D01*
X107027663Y-97096989D01*
X107009702Y-97078478D01*
X106992790Y-97070504D01*
X106975335Y-97071034D01*
G36*
X109701691Y-97069275D02*
G01*
X109572712Y-97073636D01*
X109463009Y-97086861D01*
X109370774Y-97109741D01*
X109294198Y-97143070D01*
X109231473Y-97187638D01*
X109180788Y-97244236D01*
X109140337Y-97313658D01*
X109139541Y-97315351D01*
X109115399Y-97377483D01*
X109106797Y-97432509D01*
X109113769Y-97487887D01*
X109136346Y-97551073D01*
X109140628Y-97560689D01*
X109169828Y-97616966D01*
X109202644Y-97660451D01*
X109244998Y-97697417D01*
X109302810Y-97734135D01*
X109306169Y-97736052D01*
X109356496Y-97760227D01*
X109413379Y-97778282D01*
X109480473Y-97790839D01*
X109561435Y-97798522D01*
X109659918Y-97801953D01*
X109694714Y-97802251D01*
X109860406Y-97802845D01*
X109883803Y-97773100D01*
X109890743Y-97763319D01*
X109896158Y-97751897D01*
X109900235Y-97736095D01*
X109903163Y-97713175D01*
X109905133Y-97680396D01*
X109905775Y-97656089D01*
X109749156Y-97656089D01*
X109655274Y-97656089D01*
X109600336Y-97654483D01*
X109543940Y-97650255D01*
X109497655Y-97644292D01*
X109494861Y-97643790D01*
X109412652Y-97621736D01*
X109348886Y-97588600D01*
X109301548Y-97542847D01*
X109268618Y-97482939D01*
X109262892Y-97467061D01*
X109257279Y-97442333D01*
X109259709Y-97417902D01*
X109271533Y-97385400D01*
X109278660Y-97369434D01*
X109302000Y-97327006D01*
X109330120Y-97297240D01*
X109361060Y-97276511D01*
X109423034Y-97249537D01*
X109502349Y-97229998D01*
X109594747Y-97218746D01*
X109661667Y-97216270D01*
X109749156Y-97215822D01*
X109749156Y-97656089D01*
X109905775Y-97656089D01*
X109906332Y-97635021D01*
X109906950Y-97574311D01*
X109907175Y-97495526D01*
X109907200Y-97433920D01*
X109907200Y-97124485D01*
X109879491Y-97096776D01*
X109867194Y-97085544D01*
X109853897Y-97077853D01*
X109835328Y-97073040D01*
X109807214Y-97070446D01*
X109765283Y-97069410D01*
X109705263Y-97069270D01*
X109701691Y-97069275D01*
G37*
X109701691Y-97069275D02*
X109572712Y-97073636D01*
X109463009Y-97086861D01*
X109370774Y-97109741D01*
X109294198Y-97143070D01*
X109231473Y-97187638D01*
X109180788Y-97244236D01*
X109140337Y-97313658D01*
X109139541Y-97315351D01*
X109115399Y-97377483D01*
X109106797Y-97432509D01*
X109113769Y-97487887D01*
X109136346Y-97551073D01*
X109140628Y-97560689D01*
X109169828Y-97616966D01*
X109202644Y-97660451D01*
X109244998Y-97697417D01*
X109302810Y-97734135D01*
X109306169Y-97736052D01*
X109356496Y-97760227D01*
X109413379Y-97778282D01*
X109480473Y-97790839D01*
X109561435Y-97798522D01*
X109659918Y-97801953D01*
X109694714Y-97802251D01*
X109860406Y-97802845D01*
X109883803Y-97773100D01*
X109890743Y-97763319D01*
X109896158Y-97751897D01*
X109900235Y-97736095D01*
X109903163Y-97713175D01*
X109905133Y-97680396D01*
X109905775Y-97656089D01*
X109749156Y-97656089D01*
X109655274Y-97656089D01*
X109600336Y-97654483D01*
X109543940Y-97650255D01*
X109497655Y-97644292D01*
X109494861Y-97643790D01*
X109412652Y-97621736D01*
X109348886Y-97588600D01*
X109301548Y-97542847D01*
X109268618Y-97482939D01*
X109262892Y-97467061D01*
X109257279Y-97442333D01*
X109259709Y-97417902D01*
X109271533Y-97385400D01*
X109278660Y-97369434D01*
X109302000Y-97327006D01*
X109330120Y-97297240D01*
X109361060Y-97276511D01*
X109423034Y-97249537D01*
X109502349Y-97229998D01*
X109594747Y-97218746D01*
X109661667Y-97216270D01*
X109749156Y-97215822D01*
X109749156Y-97656089D01*
X109905775Y-97656089D01*
X109906332Y-97635021D01*
X109906950Y-97574311D01*
X109907175Y-97495526D01*
X109907200Y-97433920D01*
X109907200Y-97124485D01*
X109879491Y-97096776D01*
X109867194Y-97085544D01*
X109853897Y-97077853D01*
X109835328Y-97073040D01*
X109807214Y-97070446D01*
X109765283Y-97069410D01*
X109705263Y-97069270D01*
X109701691Y-97069275D01*
G36*
X110489657Y-97069260D02*
G01*
X110413299Y-97070174D01*
X110354783Y-97072311D01*
X110311745Y-97076175D01*
X110281817Y-97082267D01*
X110262632Y-97091090D01*
X110251824Y-97103146D01*
X110247027Y-97118939D01*
X110245873Y-97138970D01*
X110245867Y-97141335D01*
X110246869Y-97163992D01*
X110251604Y-97181503D01*
X110262667Y-97194574D01*
X110282652Y-97203913D01*
X110314154Y-97210227D01*
X110359768Y-97214222D01*
X110422087Y-97216606D01*
X110503707Y-97218086D01*
X110528723Y-97218414D01*
X110770800Y-97221467D01*
X110774186Y-97286378D01*
X110777571Y-97351289D01*
X110609424Y-97351289D01*
X110543734Y-97351531D01*
X110496828Y-97352556D01*
X110464917Y-97354811D01*
X110444209Y-97358742D01*
X110430916Y-97364798D01*
X110421245Y-97373424D01*
X110421183Y-97373493D01*
X110403644Y-97407112D01*
X110404278Y-97443448D01*
X110422686Y-97474423D01*
X110426329Y-97477607D01*
X110439259Y-97485812D01*
X110456976Y-97491521D01*
X110483430Y-97495162D01*
X110522568Y-97497167D01*
X110578338Y-97497964D01*
X110614006Y-97498045D01*
X110776445Y-97498045D01*
X110776445Y-97656089D01*
X110529839Y-97656089D01*
X110448420Y-97656231D01*
X110386590Y-97656814D01*
X110341363Y-97658068D01*
X110309752Y-97660227D01*
X110288769Y-97663523D01*
X110275427Y-97668189D01*
X110266739Y-97674457D01*
X110264550Y-97676733D01*
X110248386Y-97708280D01*
X110247203Y-97744168D01*
X110260464Y-97775285D01*
X110270957Y-97785271D01*
X110281871Y-97790769D01*
X110298783Y-97795022D01*
X110324367Y-97798180D01*
X110361299Y-97800392D01*
X110412254Y-97801806D01*
X110479906Y-97802572D01*
X110566931Y-97802838D01*
X110586606Y-97802845D01*
X110675089Y-97802787D01*
X110743773Y-97802467D01*
X110795436Y-97801667D01*
X110832855Y-97800167D01*
X110858810Y-97797749D01*
X110876078Y-97794194D01*
X110887438Y-97789282D01*
X110895668Y-97782795D01*
X110900183Y-97778138D01*
X110906979Y-97769889D01*
X110912288Y-97759669D01*
X110916294Y-97744800D01*
X110919179Y-97722602D01*
X110921126Y-97690393D01*
X110922319Y-97645496D01*
X110922939Y-97585228D01*
X110923171Y-97506911D01*
X110923200Y-97440994D01*
X110923129Y-97348628D01*
X110922792Y-97276117D01*
X110922002Y-97220737D01*
X110920574Y-97179765D01*
X110918321Y-97150478D01*
X110915057Y-97130153D01*
X110910596Y-97116066D01*
X110904752Y-97105495D01*
X110899803Y-97098811D01*
X110876406Y-97069067D01*
X110586226Y-97069067D01*
X110489657Y-97069260D01*
G37*
X110489657Y-97069260D02*
X110413299Y-97070174D01*
X110354783Y-97072311D01*
X110311745Y-97076175D01*
X110281817Y-97082267D01*
X110262632Y-97091090D01*
X110251824Y-97103146D01*
X110247027Y-97118939D01*
X110245873Y-97138970D01*
X110245867Y-97141335D01*
X110246869Y-97163992D01*
X110251604Y-97181503D01*
X110262667Y-97194574D01*
X110282652Y-97203913D01*
X110314154Y-97210227D01*
X110359768Y-97214222D01*
X110422087Y-97216606D01*
X110503707Y-97218086D01*
X110528723Y-97218414D01*
X110770800Y-97221467D01*
X110774186Y-97286378D01*
X110777571Y-97351289D01*
X110609424Y-97351289D01*
X110543734Y-97351531D01*
X110496828Y-97352556D01*
X110464917Y-97354811D01*
X110444209Y-97358742D01*
X110430916Y-97364798D01*
X110421245Y-97373424D01*
X110421183Y-97373493D01*
X110403644Y-97407112D01*
X110404278Y-97443448D01*
X110422686Y-97474423D01*
X110426329Y-97477607D01*
X110439259Y-97485812D01*
X110456976Y-97491521D01*
X110483430Y-97495162D01*
X110522568Y-97497167D01*
X110578338Y-97497964D01*
X110614006Y-97498045D01*
X110776445Y-97498045D01*
X110776445Y-97656089D01*
X110529839Y-97656089D01*
X110448420Y-97656231D01*
X110386590Y-97656814D01*
X110341363Y-97658068D01*
X110309752Y-97660227D01*
X110288769Y-97663523D01*
X110275427Y-97668189D01*
X110266739Y-97674457D01*
X110264550Y-97676733D01*
X110248386Y-97708280D01*
X110247203Y-97744168D01*
X110260464Y-97775285D01*
X110270957Y-97785271D01*
X110281871Y-97790769D01*
X110298783Y-97795022D01*
X110324367Y-97798180D01*
X110361299Y-97800392D01*
X110412254Y-97801806D01*
X110479906Y-97802572D01*
X110566931Y-97802838D01*
X110586606Y-97802845D01*
X110675089Y-97802787D01*
X110743773Y-97802467D01*
X110795436Y-97801667D01*
X110832855Y-97800167D01*
X110858810Y-97797749D01*
X110876078Y-97794194D01*
X110887438Y-97789282D01*
X110895668Y-97782795D01*
X110900183Y-97778138D01*
X110906979Y-97769889D01*
X110912288Y-97759669D01*
X110916294Y-97744800D01*
X110919179Y-97722602D01*
X110921126Y-97690393D01*
X110922319Y-97645496D01*
X110922939Y-97585228D01*
X110923171Y-97506911D01*
X110923200Y-97440994D01*
X110923129Y-97348628D01*
X110922792Y-97276117D01*
X110922002Y-97220737D01*
X110920574Y-97179765D01*
X110918321Y-97150478D01*
X110915057Y-97130153D01*
X110910596Y-97116066D01*
X110904752Y-97105495D01*
X110899803Y-97098811D01*
X110876406Y-97069067D01*
X110586226Y-97069067D01*
X110489657Y-97069260D01*
G36*
X112020114Y-97073448D02*
G01*
X111996548Y-97087273D01*
X111965735Y-97109881D01*
X111926078Y-97142338D01*
X111875980Y-97185708D01*
X111813843Y-97241058D01*
X111738072Y-97309451D01*
X111651334Y-97388084D01*
X111470711Y-97551878D01*
X111465067Y-97332029D01*
X111463029Y-97256351D01*
X111461063Y-97199994D01*
X111458734Y-97159706D01*
X111455606Y-97132235D01*
X111451245Y-97114329D01*
X111445216Y-97102737D01*
X111437084Y-97094208D01*
X111432772Y-97090623D01*
X111398241Y-97071670D01*
X111365383Y-97074441D01*
X111339318Y-97090633D01*
X111312667Y-97112199D01*
X111309352Y-97427151D01*
X111308435Y-97519779D01*
X111307968Y-97592544D01*
X111308113Y-97648161D01*
X111309032Y-97689342D01*
X111310887Y-97718803D01*
X111313839Y-97739255D01*
X111318050Y-97753413D01*
X111323682Y-97763991D01*
X111329927Y-97772474D01*
X111343439Y-97788207D01*
X111356883Y-97798636D01*
X111372124Y-97802639D01*
X111391026Y-97799094D01*
X111415455Y-97786879D01*
X111447273Y-97764871D01*
X111488348Y-97731949D01*
X111540542Y-97686991D01*
X111605722Y-97628875D01*
X111679556Y-97562099D01*
X111944845Y-97321458D01*
X111950489Y-97540589D01*
X111952531Y-97616128D01*
X111954502Y-97672354D01*
X111956839Y-97712524D01*
X111959981Y-97739896D01*
X111964364Y-97757728D01*
X111970424Y-97769279D01*
X111978600Y-97777807D01*
X111982784Y-97781282D01*
X112019765Y-97800372D01*
X112054708Y-97797493D01*
X112085136Y-97773100D01*
X112092097Y-97763286D01*
X112097523Y-97751826D01*
X112101603Y-97735968D01*
X112104529Y-97712963D01*
X112106492Y-97680062D01*
X112107683Y-97634516D01*
X112108292Y-97573573D01*
X112108511Y-97494486D01*
X112108534Y-97435956D01*
X112108460Y-97344407D01*
X112108113Y-97272687D01*
X112107301Y-97218045D01*
X112105833Y-97177732D01*
X112103519Y-97148998D01*
X112100167Y-97129093D01*
X112095588Y-97115268D01*
X112089589Y-97104772D01*
X112085136Y-97098811D01*
X112073850Y-97084691D01*
X112063301Y-97074029D01*
X112051893Y-97067892D01*
X112038030Y-97067343D01*
X112020114Y-97073448D01*
G37*
X112020114Y-97073448D02*
X111996548Y-97087273D01*
X111965735Y-97109881D01*
X111926078Y-97142338D01*
X111875980Y-97185708D01*
X111813843Y-97241058D01*
X111738072Y-97309451D01*
X111651334Y-97388084D01*
X111470711Y-97551878D01*
X111465067Y-97332029D01*
X111463029Y-97256351D01*
X111461063Y-97199994D01*
X111458734Y-97159706D01*
X111455606Y-97132235D01*
X111451245Y-97114329D01*
X111445216Y-97102737D01*
X111437084Y-97094208D01*
X111432772Y-97090623D01*
X111398241Y-97071670D01*
X111365383Y-97074441D01*
X111339318Y-97090633D01*
X111312667Y-97112199D01*
X111309352Y-97427151D01*
X111308435Y-97519779D01*
X111307968Y-97592544D01*
X111308113Y-97648161D01*
X111309032Y-97689342D01*
X111310887Y-97718803D01*
X111313839Y-97739255D01*
X111318050Y-97753413D01*
X111323682Y-97763991D01*
X111329927Y-97772474D01*
X111343439Y-97788207D01*
X111356883Y-97798636D01*
X111372124Y-97802639D01*
X111391026Y-97799094D01*
X111415455Y-97786879D01*
X111447273Y-97764871D01*
X111488348Y-97731949D01*
X111540542Y-97686991D01*
X111605722Y-97628875D01*
X111679556Y-97562099D01*
X111944845Y-97321458D01*
X111950489Y-97540589D01*
X111952531Y-97616128D01*
X111954502Y-97672354D01*
X111956839Y-97712524D01*
X111959981Y-97739896D01*
X111964364Y-97757728D01*
X111970424Y-97769279D01*
X111978600Y-97777807D01*
X111982784Y-97781282D01*
X112019765Y-97800372D01*
X112054708Y-97797493D01*
X112085136Y-97773100D01*
X112092097Y-97763286D01*
X112097523Y-97751826D01*
X112101603Y-97735968D01*
X112104529Y-97712963D01*
X112106492Y-97680062D01*
X112107683Y-97634516D01*
X112108292Y-97573573D01*
X112108511Y-97494486D01*
X112108534Y-97435956D01*
X112108460Y-97344407D01*
X112108113Y-97272687D01*
X112107301Y-97218045D01*
X112105833Y-97177732D01*
X112103519Y-97148998D01*
X112100167Y-97129093D01*
X112095588Y-97115268D01*
X112089589Y-97104772D01*
X112085136Y-97098811D01*
X112073850Y-97084691D01*
X112063301Y-97074029D01*
X112051893Y-97067892D01*
X112038030Y-97067343D01*
X112020114Y-97073448D01*
G36*
X112670081Y-97074599D02*
G01*
X112601565Y-97086095D01*
X112548943Y-97103967D01*
X112514708Y-97127499D01*
X112505379Y-97140924D01*
X112495893Y-97172148D01*
X112502277Y-97200395D01*
X112522430Y-97227182D01*
X112553745Y-97239713D01*
X112599183Y-97238696D01*
X112634326Y-97231906D01*
X112712419Y-97218971D01*
X112792226Y-97217742D01*
X112881555Y-97228241D01*
X112906229Y-97232690D01*
X112989291Y-97256108D01*
X113054273Y-97290945D01*
X113100461Y-97336604D01*
X113127145Y-97392494D01*
X113132663Y-97421388D01*
X113129051Y-97480012D01*
X113105729Y-97531879D01*
X113064824Y-97575978D01*
X113008459Y-97611299D01*
X112938760Y-97636829D01*
X112857852Y-97651559D01*
X112767860Y-97654478D01*
X112670910Y-97644575D01*
X112665436Y-97643641D01*
X112626875Y-97636459D01*
X112605494Y-97629521D01*
X112596227Y-97619227D01*
X112594006Y-97601976D01*
X112593956Y-97592841D01*
X112593956Y-97554489D01*
X112662431Y-97554489D01*
X112722900Y-97550347D01*
X112764165Y-97537147D01*
X112788175Y-97513730D01*
X112796877Y-97478936D01*
X112796983Y-97474394D01*
X112791892Y-97444654D01*
X112774433Y-97423419D01*
X112741939Y-97409366D01*
X112691743Y-97401173D01*
X112643123Y-97398161D01*
X112572456Y-97396433D01*
X112521198Y-97399070D01*
X112486239Y-97408800D01*
X112464470Y-97428353D01*
X112452780Y-97460456D01*
X112448060Y-97507838D01*
X112447200Y-97570071D01*
X112448609Y-97639535D01*
X112452848Y-97686786D01*
X112459936Y-97712012D01*
X112461311Y-97713988D01*
X112500228Y-97745508D01*
X112557286Y-97770470D01*
X112628869Y-97788340D01*
X112711358Y-97798586D01*
X112801139Y-97800673D01*
X112894592Y-97794068D01*
X112949556Y-97785956D01*
X113035766Y-97761554D01*
X113115892Y-97721662D01*
X113182977Y-97669887D01*
X113193173Y-97659539D01*
X113226302Y-97616035D01*
X113256194Y-97562118D01*
X113279357Y-97505592D01*
X113292298Y-97454259D01*
X113293858Y-97434544D01*
X113287218Y-97393419D01*
X113269568Y-97342252D01*
X113244297Y-97288394D01*
X113214789Y-97239195D01*
X113188719Y-97206334D01*
X113127765Y-97157452D01*
X113048969Y-97118545D01*
X112955157Y-97090494D01*
X112849150Y-97074179D01*
X112752000Y-97070192D01*
X112670081Y-97074599D01*
G37*
X112670081Y-97074599D02*
X112601565Y-97086095D01*
X112548943Y-97103967D01*
X112514708Y-97127499D01*
X112505379Y-97140924D01*
X112495893Y-97172148D01*
X112502277Y-97200395D01*
X112522430Y-97227182D01*
X112553745Y-97239713D01*
X112599183Y-97238696D01*
X112634326Y-97231906D01*
X112712419Y-97218971D01*
X112792226Y-97217742D01*
X112881555Y-97228241D01*
X112906229Y-97232690D01*
X112989291Y-97256108D01*
X113054273Y-97290945D01*
X113100461Y-97336604D01*
X113127145Y-97392494D01*
X113132663Y-97421388D01*
X113129051Y-97480012D01*
X113105729Y-97531879D01*
X113064824Y-97575978D01*
X113008459Y-97611299D01*
X112938760Y-97636829D01*
X112857852Y-97651559D01*
X112767860Y-97654478D01*
X112670910Y-97644575D01*
X112665436Y-97643641D01*
X112626875Y-97636459D01*
X112605494Y-97629521D01*
X112596227Y-97619227D01*
X112594006Y-97601976D01*
X112593956Y-97592841D01*
X112593956Y-97554489D01*
X112662431Y-97554489D01*
X112722900Y-97550347D01*
X112764165Y-97537147D01*
X112788175Y-97513730D01*
X112796877Y-97478936D01*
X112796983Y-97474394D01*
X112791892Y-97444654D01*
X112774433Y-97423419D01*
X112741939Y-97409366D01*
X112691743Y-97401173D01*
X112643123Y-97398161D01*
X112572456Y-97396433D01*
X112521198Y-97399070D01*
X112486239Y-97408800D01*
X112464470Y-97428353D01*
X112452780Y-97460456D01*
X112448060Y-97507838D01*
X112447200Y-97570071D01*
X112448609Y-97639535D01*
X112452848Y-97686786D01*
X112459936Y-97712012D01*
X112461311Y-97713988D01*
X112500228Y-97745508D01*
X112557286Y-97770470D01*
X112628869Y-97788340D01*
X112711358Y-97798586D01*
X112801139Y-97800673D01*
X112894592Y-97794068D01*
X112949556Y-97785956D01*
X113035766Y-97761554D01*
X113115892Y-97721662D01*
X113182977Y-97669887D01*
X113193173Y-97659539D01*
X113226302Y-97616035D01*
X113256194Y-97562118D01*
X113279357Y-97505592D01*
X113292298Y-97454259D01*
X113293858Y-97434544D01*
X113287218Y-97393419D01*
X113269568Y-97342252D01*
X113244297Y-97288394D01*
X113214789Y-97239195D01*
X113188719Y-97206334D01*
X113127765Y-97157452D01*
X113048969Y-97118545D01*
X112955157Y-97090494D01*
X112849150Y-97074179D01*
X112752000Y-97070192D01*
X112670081Y-97074599D01*
G36*
X113643822Y-97091645D02*
G01*
X113637242Y-97099218D01*
X113632079Y-97108987D01*
X113628164Y-97123571D01*
X113625324Y-97145585D01*
X113623387Y-97177648D01*
X113622183Y-97222375D01*
X113621539Y-97282385D01*
X113621284Y-97360294D01*
X113621245Y-97435956D01*
X113621314Y-97529802D01*
X113621638Y-97603689D01*
X113622386Y-97660232D01*
X113623732Y-97702049D01*
X113625846Y-97731757D01*
X113628900Y-97751973D01*
X113633066Y-97765314D01*
X113638516Y-97774398D01*
X113643822Y-97780267D01*
X113676826Y-97799947D01*
X113711991Y-97798181D01*
X113743455Y-97776717D01*
X113750684Y-97768337D01*
X113756334Y-97758614D01*
X113760599Y-97744861D01*
X113763673Y-97724389D01*
X113765752Y-97694512D01*
X113767030Y-97652541D01*
X113767701Y-97595789D01*
X113767959Y-97521567D01*
X113768000Y-97437537D01*
X113768000Y-97124485D01*
X113740291Y-97096776D01*
X113706137Y-97073463D01*
X113673006Y-97072623D01*
X113643822Y-97091645D01*
G37*
X113643822Y-97091645D02*
X113637242Y-97099218D01*
X113632079Y-97108987D01*
X113628164Y-97123571D01*
X113625324Y-97145585D01*
X113623387Y-97177648D01*
X113622183Y-97222375D01*
X113621539Y-97282385D01*
X113621284Y-97360294D01*
X113621245Y-97435956D01*
X113621314Y-97529802D01*
X113621638Y-97603689D01*
X113622386Y-97660232D01*
X113623732Y-97702049D01*
X113625846Y-97731757D01*
X113628900Y-97751973D01*
X113633066Y-97765314D01*
X113638516Y-97774398D01*
X113643822Y-97780267D01*
X113676826Y-97799947D01*
X113711991Y-97798181D01*
X113743455Y-97776717D01*
X113750684Y-97768337D01*
X113756334Y-97758614D01*
X113760599Y-97744861D01*
X113763673Y-97724389D01*
X113765752Y-97694512D01*
X113767030Y-97652541D01*
X113767701Y-97595789D01*
X113767959Y-97521567D01*
X113768000Y-97437537D01*
X113768000Y-97124485D01*
X113740291Y-97096776D01*
X113706137Y-97073463D01*
X113673006Y-97072623D01*
X113643822Y-97091645D01*
G36*
X114411703Y-97070351D02*
G01*
X114336888Y-97075581D01*
X114267306Y-97083750D01*
X114207002Y-97094550D01*
X114160020Y-97107673D01*
X114130406Y-97122813D01*
X114125860Y-97127269D01*
X114110054Y-97161850D01*
X114114847Y-97197351D01*
X114139364Y-97227725D01*
X114140534Y-97228596D01*
X114154954Y-97237954D01*
X114170008Y-97242876D01*
X114191005Y-97243473D01*
X114223257Y-97239861D01*
X114272073Y-97232154D01*
X114276000Y-97231505D01*
X114348739Y-97222569D01*
X114427217Y-97218161D01*
X114505927Y-97218119D01*
X114579361Y-97222279D01*
X114642011Y-97230479D01*
X114688370Y-97242557D01*
X114691416Y-97243771D01*
X114725048Y-97262615D01*
X114736864Y-97281685D01*
X114727614Y-97300439D01*
X114698047Y-97318337D01*
X114648911Y-97334837D01*
X114580957Y-97349396D01*
X114535645Y-97356406D01*
X114441456Y-97369889D01*
X114366544Y-97382214D01*
X114307717Y-97394449D01*
X114261785Y-97407661D01*
X114225555Y-97422917D01*
X114195838Y-97441285D01*
X114169442Y-97463831D01*
X114148230Y-97485971D01*
X114123065Y-97516819D01*
X114110681Y-97543345D01*
X114106808Y-97576026D01*
X114106667Y-97587995D01*
X114109576Y-97627712D01*
X114121202Y-97657259D01*
X114141323Y-97683486D01*
X114182216Y-97723576D01*
X114227817Y-97754149D01*
X114281513Y-97776203D01*
X114346692Y-97790735D01*
X114426744Y-97798741D01*
X114525057Y-97801218D01*
X114541289Y-97801177D01*
X114606849Y-97799818D01*
X114671866Y-97796730D01*
X114729252Y-97792356D01*
X114771922Y-97787140D01*
X114775372Y-97786541D01*
X114817796Y-97776491D01*
X114853780Y-97763796D01*
X114874150Y-97752190D01*
X114893107Y-97721572D01*
X114894427Y-97685918D01*
X114878085Y-97654144D01*
X114874429Y-97650551D01*
X114859315Y-97639876D01*
X114840415Y-97635276D01*
X114811162Y-97636059D01*
X114775651Y-97640127D01*
X114735970Y-97643762D01*
X114680345Y-97646828D01*
X114615406Y-97649053D01*
X114547785Y-97650164D01*
X114530000Y-97650237D01*
X114462128Y-97649964D01*
X114412454Y-97648646D01*
X114376610Y-97645827D01*
X114350224Y-97641050D01*
X114328926Y-97633857D01*
X114316126Y-97627867D01*
X114288000Y-97611233D01*
X114270068Y-97596168D01*
X114267447Y-97591897D01*
X114272976Y-97574263D01*
X114299260Y-97557192D01*
X114344478Y-97541458D01*
X114406808Y-97527838D01*
X114425171Y-97524804D01*
X114521090Y-97509738D01*
X114597641Y-97497146D01*
X114657780Y-97486111D01*
X114704460Y-97475720D01*
X114740637Y-97465056D01*
X114769265Y-97453205D01*
X114793298Y-97439251D01*
X114815692Y-97422281D01*
X114839402Y-97401378D01*
X114847380Y-97394049D01*
X114875353Y-97366699D01*
X114890160Y-97345029D01*
X114895952Y-97320232D01*
X114896889Y-97288983D01*
X114886575Y-97227705D01*
X114855752Y-97175640D01*
X114804595Y-97132958D01*
X114733283Y-97099825D01*
X114682400Y-97084964D01*
X114627100Y-97075366D01*
X114560853Y-97069936D01*
X114487706Y-97068367D01*
X114411703Y-97070351D01*
G37*
X114411703Y-97070351D02*
X114336888Y-97075581D01*
X114267306Y-97083750D01*
X114207002Y-97094550D01*
X114160020Y-97107673D01*
X114130406Y-97122813D01*
X114125860Y-97127269D01*
X114110054Y-97161850D01*
X114114847Y-97197351D01*
X114139364Y-97227725D01*
X114140534Y-97228596D01*
X114154954Y-97237954D01*
X114170008Y-97242876D01*
X114191005Y-97243473D01*
X114223257Y-97239861D01*
X114272073Y-97232154D01*
X114276000Y-97231505D01*
X114348739Y-97222569D01*
X114427217Y-97218161D01*
X114505927Y-97218119D01*
X114579361Y-97222279D01*
X114642011Y-97230479D01*
X114688370Y-97242557D01*
X114691416Y-97243771D01*
X114725048Y-97262615D01*
X114736864Y-97281685D01*
X114727614Y-97300439D01*
X114698047Y-97318337D01*
X114648911Y-97334837D01*
X114580957Y-97349396D01*
X114535645Y-97356406D01*
X114441456Y-97369889D01*
X114366544Y-97382214D01*
X114307717Y-97394449D01*
X114261785Y-97407661D01*
X114225555Y-97422917D01*
X114195838Y-97441285D01*
X114169442Y-97463831D01*
X114148230Y-97485971D01*
X114123065Y-97516819D01*
X114110681Y-97543345D01*
X114106808Y-97576026D01*
X114106667Y-97587995D01*
X114109576Y-97627712D01*
X114121202Y-97657259D01*
X114141323Y-97683486D01*
X114182216Y-97723576D01*
X114227817Y-97754149D01*
X114281513Y-97776203D01*
X114346692Y-97790735D01*
X114426744Y-97798741D01*
X114525057Y-97801218D01*
X114541289Y-97801177D01*
X114606849Y-97799818D01*
X114671866Y-97796730D01*
X114729252Y-97792356D01*
X114771922Y-97787140D01*
X114775372Y-97786541D01*
X114817796Y-97776491D01*
X114853780Y-97763796D01*
X114874150Y-97752190D01*
X114893107Y-97721572D01*
X114894427Y-97685918D01*
X114878085Y-97654144D01*
X114874429Y-97650551D01*
X114859315Y-97639876D01*
X114840415Y-97635276D01*
X114811162Y-97636059D01*
X114775651Y-97640127D01*
X114735970Y-97643762D01*
X114680345Y-97646828D01*
X114615406Y-97649053D01*
X114547785Y-97650164D01*
X114530000Y-97650237D01*
X114462128Y-97649964D01*
X114412454Y-97648646D01*
X114376610Y-97645827D01*
X114350224Y-97641050D01*
X114328926Y-97633857D01*
X114316126Y-97627867D01*
X114288000Y-97611233D01*
X114270068Y-97596168D01*
X114267447Y-97591897D01*
X114272976Y-97574263D01*
X114299260Y-97557192D01*
X114344478Y-97541458D01*
X114406808Y-97527838D01*
X114425171Y-97524804D01*
X114521090Y-97509738D01*
X114597641Y-97497146D01*
X114657780Y-97486111D01*
X114704460Y-97475720D01*
X114740637Y-97465056D01*
X114769265Y-97453205D01*
X114793298Y-97439251D01*
X114815692Y-97422281D01*
X114839402Y-97401378D01*
X114847380Y-97394049D01*
X114875353Y-97366699D01*
X114890160Y-97345029D01*
X114895952Y-97320232D01*
X114896889Y-97288983D01*
X114886575Y-97227705D01*
X114855752Y-97175640D01*
X114804595Y-97132958D01*
X114733283Y-97099825D01*
X114682400Y-97084964D01*
X114627100Y-97075366D01*
X114560853Y-97069936D01*
X114487706Y-97068367D01*
X114411703Y-97070351D01*
G36*
X115432794Y-97069146D02*
G01*
X115363386Y-97069518D01*
X115310997Y-97070385D01*
X115272847Y-97071946D01*
X115246159Y-97074403D01*
X115228153Y-97077957D01*
X115216049Y-97082810D01*
X115207069Y-97089161D01*
X115203818Y-97092084D01*
X115184043Y-97123142D01*
X115180482Y-97158828D01*
X115193491Y-97190510D01*
X115199506Y-97196913D01*
X115209235Y-97203121D01*
X115224901Y-97207910D01*
X115249408Y-97211514D01*
X115285661Y-97214164D01*
X115336565Y-97216095D01*
X115405026Y-97217539D01*
X115467617Y-97218418D01*
X115715334Y-97221467D01*
X115718719Y-97286378D01*
X115722105Y-97351289D01*
X115553958Y-97351289D01*
X115480959Y-97351919D01*
X115427517Y-97354553D01*
X115390628Y-97360309D01*
X115367288Y-97370304D01*
X115354494Y-97385656D01*
X115349242Y-97407482D01*
X115348445Y-97427738D01*
X115350923Y-97452592D01*
X115360277Y-97470906D01*
X115379383Y-97483637D01*
X115411118Y-97491741D01*
X115458359Y-97496176D01*
X115523983Y-97497899D01*
X115559801Y-97498045D01*
X115720978Y-97498045D01*
X115720978Y-97656089D01*
X115472622Y-97656089D01*
X115391213Y-97656202D01*
X115329342Y-97656712D01*
X115283968Y-97657870D01*
X115252054Y-97659930D01*
X115230559Y-97663146D01*
X115216443Y-97667772D01*
X115206668Y-97674059D01*
X115201689Y-97678667D01*
X115184610Y-97705560D01*
X115179111Y-97729467D01*
X115186963Y-97758667D01*
X115201689Y-97780267D01*
X115209546Y-97787066D01*
X115219688Y-97792346D01*
X115234844Y-97796298D01*
X115257741Y-97799113D01*
X115291109Y-97800982D01*
X115337675Y-97802098D01*
X115400167Y-97802651D01*
X115481314Y-97802833D01*
X115523422Y-97802845D01*
X115613598Y-97802765D01*
X115683924Y-97802398D01*
X115737129Y-97801552D01*
X115775940Y-97800036D01*
X115803087Y-97797659D01*
X115821298Y-97794229D01*
X115833300Y-97789554D01*
X115841822Y-97783444D01*
X115845156Y-97780267D01*
X115851755Y-97772670D01*
X115856927Y-97762870D01*
X115860846Y-97748239D01*
X115863684Y-97726152D01*
X115865615Y-97693982D01*
X115866812Y-97649103D01*
X115867448Y-97588889D01*
X115867697Y-97510713D01*
X115867734Y-97437923D01*
X115867700Y-97344707D01*
X115867465Y-97271431D01*
X115866830Y-97215458D01*
X115865594Y-97174151D01*
X115863556Y-97144872D01*
X115860517Y-97124984D01*
X115856277Y-97111850D01*
X115850635Y-97102832D01*
X115843391Y-97095293D01*
X115841606Y-97093612D01*
X115832945Y-97086172D01*
X115822882Y-97080409D01*
X115808625Y-97076112D01*
X115787383Y-97073064D01*
X115756364Y-97071051D01*
X115712777Y-97069860D01*
X115653831Y-97069275D01*
X115576734Y-97069083D01*
X115522001Y-97069067D01*
X115432794Y-97069146D01*
G37*
X115432794Y-97069146D02*
X115363386Y-97069518D01*
X115310997Y-97070385D01*
X115272847Y-97071946D01*
X115246159Y-97074403D01*
X115228153Y-97077957D01*
X115216049Y-97082810D01*
X115207069Y-97089161D01*
X115203818Y-97092084D01*
X115184043Y-97123142D01*
X115180482Y-97158828D01*
X115193491Y-97190510D01*
X115199506Y-97196913D01*
X115209235Y-97203121D01*
X115224901Y-97207910D01*
X115249408Y-97211514D01*
X115285661Y-97214164D01*
X115336565Y-97216095D01*
X115405026Y-97217539D01*
X115467617Y-97218418D01*
X115715334Y-97221467D01*
X115718719Y-97286378D01*
X115722105Y-97351289D01*
X115553958Y-97351289D01*
X115480959Y-97351919D01*
X115427517Y-97354553D01*
X115390628Y-97360309D01*
X115367288Y-97370304D01*
X115354494Y-97385656D01*
X115349242Y-97407482D01*
X115348445Y-97427738D01*
X115350923Y-97452592D01*
X115360277Y-97470906D01*
X115379383Y-97483637D01*
X115411118Y-97491741D01*
X115458359Y-97496176D01*
X115523983Y-97497899D01*
X115559801Y-97498045D01*
X115720978Y-97498045D01*
X115720978Y-97656089D01*
X115472622Y-97656089D01*
X115391213Y-97656202D01*
X115329342Y-97656712D01*
X115283968Y-97657870D01*
X115252054Y-97659930D01*
X115230559Y-97663146D01*
X115216443Y-97667772D01*
X115206668Y-97674059D01*
X115201689Y-97678667D01*
X115184610Y-97705560D01*
X115179111Y-97729467D01*
X115186963Y-97758667D01*
X115201689Y-97780267D01*
X115209546Y-97787066D01*
X115219688Y-97792346D01*
X115234844Y-97796298D01*
X115257741Y-97799113D01*
X115291109Y-97800982D01*
X115337675Y-97802098D01*
X115400167Y-97802651D01*
X115481314Y-97802833D01*
X115523422Y-97802845D01*
X115613598Y-97802765D01*
X115683924Y-97802398D01*
X115737129Y-97801552D01*
X115775940Y-97800036D01*
X115803087Y-97797659D01*
X115821298Y-97794229D01*
X115833300Y-97789554D01*
X115841822Y-97783444D01*
X115845156Y-97780267D01*
X115851755Y-97772670D01*
X115856927Y-97762870D01*
X115860846Y-97748239D01*
X115863684Y-97726152D01*
X115865615Y-97693982D01*
X115866812Y-97649103D01*
X115867448Y-97588889D01*
X115867697Y-97510713D01*
X115867734Y-97437923D01*
X115867700Y-97344707D01*
X115867465Y-97271431D01*
X115866830Y-97215458D01*
X115865594Y-97174151D01*
X115863556Y-97144872D01*
X115860517Y-97124984D01*
X115856277Y-97111850D01*
X115850635Y-97102832D01*
X115843391Y-97095293D01*
X115841606Y-97093612D01*
X115832945Y-97086172D01*
X115822882Y-97080409D01*
X115808625Y-97076112D01*
X115787383Y-97073064D01*
X115756364Y-97071051D01*
X115712777Y-97069860D01*
X115653831Y-97069275D01*
X115576734Y-97069083D01*
X115522001Y-97069067D01*
X115432794Y-97069146D01*
G36*
X116841371Y-97069066D02*
G01*
X116801889Y-97069467D01*
X116686200Y-97072259D01*
X116589311Y-97080550D01*
X116507919Y-97095232D01*
X116438723Y-97117193D01*
X116378420Y-97147322D01*
X116323708Y-97186510D01*
X116304167Y-97203532D01*
X116271750Y-97243363D01*
X116242520Y-97297413D01*
X116219991Y-97357323D01*
X116207679Y-97414739D01*
X116206400Y-97435956D01*
X116214417Y-97494769D01*
X116235899Y-97559013D01*
X116266999Y-97619821D01*
X116303866Y-97668330D01*
X116309854Y-97674182D01*
X116360579Y-97715321D01*
X116416125Y-97747435D01*
X116479696Y-97771365D01*
X116554494Y-97787953D01*
X116643722Y-97798041D01*
X116750582Y-97802469D01*
X116799528Y-97802845D01*
X116861762Y-97802545D01*
X116905528Y-97801292D01*
X116934931Y-97798554D01*
X116954079Y-97793801D01*
X116967077Y-97786501D01*
X116974045Y-97780267D01*
X116980626Y-97772694D01*
X116985788Y-97762924D01*
X116989703Y-97748340D01*
X116992543Y-97726326D01*
X116994480Y-97694264D01*
X116995684Y-97649536D01*
X116996328Y-97589526D01*
X116996583Y-97511617D01*
X116996622Y-97435956D01*
X116996870Y-97335041D01*
X116996817Y-97254427D01*
X116995857Y-97215822D01*
X116849867Y-97215822D01*
X116849867Y-97656089D01*
X116756734Y-97656004D01*
X116700693Y-97654396D01*
X116641999Y-97650256D01*
X116593028Y-97644464D01*
X116591538Y-97644226D01*
X116512392Y-97625090D01*
X116451002Y-97595287D01*
X116404305Y-97552878D01*
X116374635Y-97506961D01*
X116356353Y-97456026D01*
X116357771Y-97408200D01*
X116378988Y-97356933D01*
X116420489Y-97303899D01*
X116477998Y-97264600D01*
X116552750Y-97238331D01*
X116602708Y-97229035D01*
X116659416Y-97222507D01*
X116719519Y-97217782D01*
X116770639Y-97215817D01*
X116773667Y-97215808D01*
X116849867Y-97215822D01*
X116995857Y-97215822D01*
X116995260Y-97191851D01*
X116990998Y-97145055D01*
X116982830Y-97111778D01*
X116969556Y-97089759D01*
X116949974Y-97076739D01*
X116922883Y-97070457D01*
X116887082Y-97068653D01*
X116841371Y-97069066D01*
G37*
X116841371Y-97069066D02*
X116801889Y-97069467D01*
X116686200Y-97072259D01*
X116589311Y-97080550D01*
X116507919Y-97095232D01*
X116438723Y-97117193D01*
X116378420Y-97147322D01*
X116323708Y-97186510D01*
X116304167Y-97203532D01*
X116271750Y-97243363D01*
X116242520Y-97297413D01*
X116219991Y-97357323D01*
X116207679Y-97414739D01*
X116206400Y-97435956D01*
X116214417Y-97494769D01*
X116235899Y-97559013D01*
X116266999Y-97619821D01*
X116303866Y-97668330D01*
X116309854Y-97674182D01*
X116360579Y-97715321D01*
X116416125Y-97747435D01*
X116479696Y-97771365D01*
X116554494Y-97787953D01*
X116643722Y-97798041D01*
X116750582Y-97802469D01*
X116799528Y-97802845D01*
X116861762Y-97802545D01*
X116905528Y-97801292D01*
X116934931Y-97798554D01*
X116954079Y-97793801D01*
X116967077Y-97786501D01*
X116974045Y-97780267D01*
X116980626Y-97772694D01*
X116985788Y-97762924D01*
X116989703Y-97748340D01*
X116992543Y-97726326D01*
X116994480Y-97694264D01*
X116995684Y-97649536D01*
X116996328Y-97589526D01*
X116996583Y-97511617D01*
X116996622Y-97435956D01*
X116996870Y-97335041D01*
X116996817Y-97254427D01*
X116995857Y-97215822D01*
X116849867Y-97215822D01*
X116849867Y-97656089D01*
X116756734Y-97656004D01*
X116700693Y-97654396D01*
X116641999Y-97650256D01*
X116593028Y-97644464D01*
X116591538Y-97644226D01*
X116512392Y-97625090D01*
X116451002Y-97595287D01*
X116404305Y-97552878D01*
X116374635Y-97506961D01*
X116356353Y-97456026D01*
X116357771Y-97408200D01*
X116378988Y-97356933D01*
X116420489Y-97303899D01*
X116477998Y-97264600D01*
X116552750Y-97238331D01*
X116602708Y-97229035D01*
X116659416Y-97222507D01*
X116719519Y-97217782D01*
X116770639Y-97215817D01*
X116773667Y-97215808D01*
X116849867Y-97215822D01*
X116995857Y-97215822D01*
X116995260Y-97191851D01*
X116990998Y-97145055D01*
X116982830Y-97111778D01*
X116969556Y-97089759D01*
X116949974Y-97076739D01*
X116922883Y-97070457D01*
X116887082Y-97068653D01*
X116841371Y-97069066D01*
G36*
X112993043Y-91826571D02*
G01*
X112896768Y-91850809D01*
X112810184Y-91893641D01*
X112735373Y-91953419D01*
X112674418Y-92028494D01*
X112629399Y-92117220D01*
X112603136Y-92213530D01*
X112597286Y-92310795D01*
X112612140Y-92404654D01*
X112645840Y-92492511D01*
X112696528Y-92571770D01*
X112762345Y-92639836D01*
X112841434Y-92694112D01*
X112931934Y-92732002D01*
X112983200Y-92744426D01*
X113027698Y-92751947D01*
X113061999Y-92754919D01*
X113094960Y-92753094D01*
X113135434Y-92746225D01*
X113168531Y-92739250D01*
X113261947Y-92707741D01*
X113345619Y-92656617D01*
X113417665Y-92587429D01*
X113476200Y-92501728D01*
X113490148Y-92474489D01*
X113506586Y-92438122D01*
X113516894Y-92407582D01*
X113522460Y-92375450D01*
X113524669Y-92334307D01*
X113524948Y-92288222D01*
X113520861Y-92203865D01*
X113507446Y-92134586D01*
X113482256Y-92073961D01*
X113442846Y-92015567D01*
X113404298Y-91971302D01*
X113332406Y-91905484D01*
X113257313Y-91860053D01*
X113174562Y-91832850D01*
X113096928Y-91822576D01*
X112993043Y-91826571D01*
G37*
X112993043Y-91826571D02*
X112896768Y-91850809D01*
X112810184Y-91893641D01*
X112735373Y-91953419D01*
X112674418Y-92028494D01*
X112629399Y-92117220D01*
X112603136Y-92213530D01*
X112597286Y-92310795D01*
X112612140Y-92404654D01*
X112645840Y-92492511D01*
X112696528Y-92571770D01*
X112762345Y-92639836D01*
X112841434Y-92694112D01*
X112931934Y-92732002D01*
X112983200Y-92744426D01*
X113027698Y-92751947D01*
X113061999Y-92754919D01*
X113094960Y-92753094D01*
X113135434Y-92746225D01*
X113168531Y-92739250D01*
X113261947Y-92707741D01*
X113345619Y-92656617D01*
X113417665Y-92587429D01*
X113476200Y-92501728D01*
X113490148Y-92474489D01*
X113506586Y-92438122D01*
X113516894Y-92407582D01*
X113522460Y-92375450D01*
X113524669Y-92334307D01*
X113524948Y-92288222D01*
X113520861Y-92203865D01*
X113507446Y-92134586D01*
X113482256Y-92073961D01*
X113442846Y-92015567D01*
X113404298Y-91971302D01*
X113332406Y-91905484D01*
X113257313Y-91860053D01*
X113174562Y-91832850D01*
X113096928Y-91822576D01*
X112993043Y-91826571D01*
G36*
X104533493Y-94272245D02*
G01*
X104533474Y-94506662D01*
X104533448Y-94719603D01*
X104533375Y-94912168D01*
X104533218Y-95085459D01*
X104532936Y-95240576D01*
X104532491Y-95378620D01*
X104531844Y-95500692D01*
X104530955Y-95607894D01*
X104529787Y-95701326D01*
X104528299Y-95782090D01*
X104526454Y-95851286D01*
X104524211Y-95910015D01*
X104521531Y-95959379D01*
X104518377Y-96000478D01*
X104514708Y-96034413D01*
X104510487Y-96062286D01*
X104505673Y-96085198D01*
X104500227Y-96104249D01*
X104494112Y-96120540D01*
X104487288Y-96135173D01*
X104479715Y-96149249D01*
X104471355Y-96163868D01*
X104466161Y-96172974D01*
X104431896Y-96233689D01*
X105290045Y-96233689D01*
X105290045Y-96137733D01*
X105290776Y-96094370D01*
X105292728Y-96061205D01*
X105295537Y-96043424D01*
X105296779Y-96041778D01*
X105308201Y-96048662D01*
X105330916Y-96066505D01*
X105353615Y-96085879D01*
X105408200Y-96126614D01*
X105477679Y-96167617D01*
X105554730Y-96205123D01*
X105632035Y-96235364D01*
X105662887Y-96245012D01*
X105731384Y-96259578D01*
X105814236Y-96269539D01*
X105903629Y-96274583D01*
X105991752Y-96274396D01*
X106070793Y-96268666D01*
X106108489Y-96262858D01*
X106246586Y-96224797D01*
X106373887Y-96167073D01*
X106489708Y-96090211D01*
X106593363Y-95994739D01*
X106684167Y-95881179D01*
X106750969Y-95770381D01*
X106805836Y-95653625D01*
X106847837Y-95534276D01*
X106877833Y-95408283D01*
X106896689Y-95271594D01*
X106905268Y-95120158D01*
X106905994Y-95042711D01*
X106903900Y-94985934D01*
X106074783Y-94985934D01*
X106074576Y-95079002D01*
X106071663Y-95166692D01*
X106066000Y-95243772D01*
X106057545Y-95305009D01*
X106054962Y-95317350D01*
X106023160Y-95424633D01*
X105981502Y-95511658D01*
X105929637Y-95578642D01*
X105867219Y-95625805D01*
X105793900Y-95653365D01*
X105709331Y-95661541D01*
X105613165Y-95650551D01*
X105549689Y-95634829D01*
X105500546Y-95616639D01*
X105446417Y-95590791D01*
X105405756Y-95567089D01*
X105335200Y-95520721D01*
X105335200Y-94370530D01*
X105402608Y-94326962D01*
X105481133Y-94286040D01*
X105565319Y-94259389D01*
X105650443Y-94247465D01*
X105731784Y-94250722D01*
X105804620Y-94269615D01*
X105836574Y-94285184D01*
X105894499Y-94328181D01*
X105943456Y-94384953D01*
X105984610Y-94457575D01*
X106019126Y-94548121D01*
X106048167Y-94658666D01*
X106049448Y-94664533D01*
X106059619Y-94726788D01*
X106067261Y-94804594D01*
X106072330Y-94892720D01*
X106074783Y-94985934D01*
X106903900Y-94985934D01*
X106898143Y-94829895D01*
X106876198Y-94634059D01*
X106840214Y-94455332D01*
X106790241Y-94293845D01*
X106726332Y-94149726D01*
X106648538Y-94023106D01*
X106556911Y-93914115D01*
X106451503Y-93822883D01*
X106406338Y-93791932D01*
X106305389Y-93735785D01*
X106202099Y-93696174D01*
X106092011Y-93672014D01*
X105970670Y-93662219D01*
X105878164Y-93663265D01*
X105748510Y-93674231D01*
X105635916Y-93696046D01*
X105537125Y-93729714D01*
X105448879Y-93776236D01*
X105400014Y-93810448D01*
X105370647Y-93832362D01*
X105348957Y-93847333D01*
X105340747Y-93851733D01*
X105339132Y-93840904D01*
X105337841Y-93810251D01*
X105336862Y-93762526D01*
X105336183Y-93700479D01*
X105335790Y-93626862D01*
X105335670Y-93544427D01*
X105335812Y-93455925D01*
X105336203Y-93364107D01*
X105336829Y-93271724D01*
X105337680Y-93181528D01*
X105338740Y-93096271D01*
X105339999Y-93018703D01*
X105341444Y-92951576D01*
X105343062Y-92897641D01*
X105344839Y-92859650D01*
X105345331Y-92852667D01*
X105352908Y-92782251D01*
X105364469Y-92727102D01*
X105382208Y-92679981D01*
X105408318Y-92633647D01*
X105414585Y-92624067D01*
X105439017Y-92587378D01*
X104533689Y-92587378D01*
X104533493Y-94272245D01*
G37*
X104533493Y-94272245D02*
X104533474Y-94506662D01*
X104533448Y-94719603D01*
X104533375Y-94912168D01*
X104533218Y-95085459D01*
X104532936Y-95240576D01*
X104532491Y-95378620D01*
X104531844Y-95500692D01*
X104530955Y-95607894D01*
X104529787Y-95701326D01*
X104528299Y-95782090D01*
X104526454Y-95851286D01*
X104524211Y-95910015D01*
X104521531Y-95959379D01*
X104518377Y-96000478D01*
X104514708Y-96034413D01*
X104510487Y-96062286D01*
X104505673Y-96085198D01*
X104500227Y-96104249D01*
X104494112Y-96120540D01*
X104487288Y-96135173D01*
X104479715Y-96149249D01*
X104471355Y-96163868D01*
X104466161Y-96172974D01*
X104431896Y-96233689D01*
X105290045Y-96233689D01*
X105290045Y-96137733D01*
X105290776Y-96094370D01*
X105292728Y-96061205D01*
X105295537Y-96043424D01*
X105296779Y-96041778D01*
X105308201Y-96048662D01*
X105330916Y-96066505D01*
X105353615Y-96085879D01*
X105408200Y-96126614D01*
X105477679Y-96167617D01*
X105554730Y-96205123D01*
X105632035Y-96235364D01*
X105662887Y-96245012D01*
X105731384Y-96259578D01*
X105814236Y-96269539D01*
X105903629Y-96274583D01*
X105991752Y-96274396D01*
X106070793Y-96268666D01*
X106108489Y-96262858D01*
X106246586Y-96224797D01*
X106373887Y-96167073D01*
X106489708Y-96090211D01*
X106593363Y-95994739D01*
X106684167Y-95881179D01*
X106750969Y-95770381D01*
X106805836Y-95653625D01*
X106847837Y-95534276D01*
X106877833Y-95408283D01*
X106896689Y-95271594D01*
X106905268Y-95120158D01*
X106905994Y-95042711D01*
X106903900Y-94985934D01*
X106074783Y-94985934D01*
X106074576Y-95079002D01*
X106071663Y-95166692D01*
X106066000Y-95243772D01*
X106057545Y-95305009D01*
X106054962Y-95317350D01*
X106023160Y-95424633D01*
X105981502Y-95511658D01*
X105929637Y-95578642D01*
X105867219Y-95625805D01*
X105793900Y-95653365D01*
X105709331Y-95661541D01*
X105613165Y-95650551D01*
X105549689Y-95634829D01*
X105500546Y-95616639D01*
X105446417Y-95590791D01*
X105405756Y-95567089D01*
X105335200Y-95520721D01*
X105335200Y-94370530D01*
X105402608Y-94326962D01*
X105481133Y-94286040D01*
X105565319Y-94259389D01*
X105650443Y-94247465D01*
X105731784Y-94250722D01*
X105804620Y-94269615D01*
X105836574Y-94285184D01*
X105894499Y-94328181D01*
X105943456Y-94384953D01*
X105984610Y-94457575D01*
X106019126Y-94548121D01*
X106048167Y-94658666D01*
X106049448Y-94664533D01*
X106059619Y-94726788D01*
X106067261Y-94804594D01*
X106072330Y-94892720D01*
X106074783Y-94985934D01*
X106903900Y-94985934D01*
X106898143Y-94829895D01*
X106876198Y-94634059D01*
X106840214Y-94455332D01*
X106790241Y-94293845D01*
X106726332Y-94149726D01*
X106648538Y-94023106D01*
X106556911Y-93914115D01*
X106451503Y-93822883D01*
X106406338Y-93791932D01*
X106305389Y-93735785D01*
X106202099Y-93696174D01*
X106092011Y-93672014D01*
X105970670Y-93662219D01*
X105878164Y-93663265D01*
X105748510Y-93674231D01*
X105635916Y-93696046D01*
X105537125Y-93729714D01*
X105448879Y-93776236D01*
X105400014Y-93810448D01*
X105370647Y-93832362D01*
X105348957Y-93847333D01*
X105340747Y-93851733D01*
X105339132Y-93840904D01*
X105337841Y-93810251D01*
X105336862Y-93762526D01*
X105336183Y-93700479D01*
X105335790Y-93626862D01*
X105335670Y-93544427D01*
X105335812Y-93455925D01*
X105336203Y-93364107D01*
X105336829Y-93271724D01*
X105337680Y-93181528D01*
X105338740Y-93096271D01*
X105339999Y-93018703D01*
X105341444Y-92951576D01*
X105343062Y-92897641D01*
X105344839Y-92859650D01*
X105345331Y-92852667D01*
X105352908Y-92782251D01*
X105364469Y-92727102D01*
X105382208Y-92679981D01*
X105408318Y-92633647D01*
X105414585Y-92624067D01*
X105439017Y-92587378D01*
X104533689Y-92587378D01*
X104533493Y-94272245D01*
G36*
X108046426Y-93666552D02*
G01*
X107894508Y-93686567D01*
X107759244Y-93720202D01*
X107639761Y-93767725D01*
X107535185Y-93829405D01*
X107457576Y-93892965D01*
X107388735Y-93967099D01*
X107334994Y-94046871D01*
X107292090Y-94139091D01*
X107276616Y-94182161D01*
X107263756Y-94221142D01*
X107252554Y-94257289D01*
X107242880Y-94292434D01*
X107234604Y-94328410D01*
X107227597Y-94367050D01*
X107221728Y-94410185D01*
X107216869Y-94459649D01*
X107212890Y-94517273D01*
X107209660Y-94584891D01*
X107207051Y-94664334D01*
X107204933Y-94757436D01*
X107203176Y-94866027D01*
X107201651Y-94991942D01*
X107200228Y-95137012D01*
X107198975Y-95279778D01*
X107197649Y-95435968D01*
X107196444Y-95571239D01*
X107195234Y-95687246D01*
X107193894Y-95785645D01*
X107192300Y-95868093D01*
X107190325Y-95936246D01*
X107187844Y-95991760D01*
X107184731Y-96036292D01*
X107180862Y-96071498D01*
X107176111Y-96099034D01*
X107170352Y-96120556D01*
X107163461Y-96137722D01*
X107155311Y-96152186D01*
X107145777Y-96165606D01*
X107134734Y-96179638D01*
X107130434Y-96185071D01*
X107114614Y-96207910D01*
X107107578Y-96223463D01*
X107107556Y-96223922D01*
X107118433Y-96226121D01*
X107149418Y-96228147D01*
X107198043Y-96229942D01*
X107261837Y-96231451D01*
X107338331Y-96232616D01*
X107425056Y-96233380D01*
X107519543Y-96233686D01*
X107530450Y-96233689D01*
X107953343Y-96233689D01*
X107956605Y-96137622D01*
X107959867Y-96041556D01*
X108021956Y-96092543D01*
X108119286Y-96160057D01*
X108229187Y-96214749D01*
X108315651Y-96244978D01*
X108384722Y-96259666D01*
X108468075Y-96269659D01*
X108557841Y-96274646D01*
X108646155Y-96274313D01*
X108725149Y-96268351D01*
X108761378Y-96262638D01*
X108901397Y-96224776D01*
X109027822Y-96169932D01*
X109139740Y-96098924D01*
X109236238Y-96012568D01*
X109316400Y-95911679D01*
X109379313Y-95797076D01*
X109423688Y-95670984D01*
X109436022Y-95614401D01*
X109443632Y-95552202D01*
X109447261Y-95477363D01*
X109447755Y-95443467D01*
X109447690Y-95440282D01*
X108687752Y-95440282D01*
X108678459Y-95515333D01*
X108650272Y-95579160D01*
X108601803Y-95634798D01*
X108596746Y-95639211D01*
X108548452Y-95674037D01*
X108496743Y-95696620D01*
X108436011Y-95708540D01*
X108360648Y-95711383D01*
X108342541Y-95710978D01*
X108288722Y-95708325D01*
X108248692Y-95702909D01*
X108213676Y-95692745D01*
X108174897Y-95675850D01*
X108164255Y-95670672D01*
X108103604Y-95634844D01*
X108056785Y-95592212D01*
X108044048Y-95576973D01*
X107999378Y-95520462D01*
X107999378Y-95324586D01*
X107999914Y-95245939D01*
X108001604Y-95187988D01*
X108004572Y-95148875D01*
X108008943Y-95126741D01*
X108013028Y-95120274D01*
X108028953Y-95117111D01*
X108062736Y-95114488D01*
X108109660Y-95112655D01*
X108165007Y-95111857D01*
X108173894Y-95111842D01*
X108294670Y-95117096D01*
X108397340Y-95133263D01*
X108483894Y-95160961D01*
X108556319Y-95200808D01*
X108611249Y-95247758D01*
X108655796Y-95305645D01*
X108680520Y-95368693D01*
X108687752Y-95440282D01*
X109447690Y-95440282D01*
X109445822Y-95349712D01*
X109437478Y-95270812D01*
X109421232Y-95199590D01*
X109395595Y-95128864D01*
X109371599Y-95076493D01*
X109312980Y-94981196D01*
X109234883Y-94893170D01*
X109139685Y-94814017D01*
X109029762Y-94745340D01*
X108907490Y-94688741D01*
X108775245Y-94645821D01*
X108710578Y-94630882D01*
X108574396Y-94608777D01*
X108425951Y-94594194D01*
X108274495Y-94587813D01*
X108147936Y-94589445D01*
X107986050Y-94596224D01*
X107993470Y-94537245D01*
X108012762Y-94438092D01*
X108043896Y-94357372D01*
X108087731Y-94294466D01*
X108145129Y-94248756D01*
X108216952Y-94219622D01*
X108304059Y-94206447D01*
X108407314Y-94208611D01*
X108445289Y-94212612D01*
X108586480Y-94237780D01*
X108723293Y-94278814D01*
X108817822Y-94316815D01*
X108862982Y-94336190D01*
X108901415Y-94351760D01*
X108927766Y-94361405D01*
X108935454Y-94363452D01*
X108945198Y-94354374D01*
X108961917Y-94325405D01*
X108985768Y-94276217D01*
X109016907Y-94206484D01*
X109055493Y-94115879D01*
X109062090Y-94100089D01*
X109092147Y-94027772D01*
X109119126Y-93962425D01*
X109141864Y-93906906D01*
X109159194Y-93864072D01*
X109169952Y-93836781D01*
X109173059Y-93827942D01*
X109163060Y-93823187D01*
X109136783Y-93817910D01*
X109108511Y-93814231D01*
X109078354Y-93809474D01*
X109030567Y-93800028D01*
X108969388Y-93786820D01*
X108899054Y-93770776D01*
X108823806Y-93752820D01*
X108795245Y-93745797D01*
X108690184Y-93720209D01*
X108602520Y-93700147D01*
X108527932Y-93684969D01*
X108462097Y-93674035D01*
X108400693Y-93666704D01*
X108339398Y-93662335D01*
X108273890Y-93660287D01*
X108215872Y-93659889D01*
X108046426Y-93666552D01*
G37*
X108046426Y-93666552D02*
X107894508Y-93686567D01*
X107759244Y-93720202D01*
X107639761Y-93767725D01*
X107535185Y-93829405D01*
X107457576Y-93892965D01*
X107388735Y-93967099D01*
X107334994Y-94046871D01*
X107292090Y-94139091D01*
X107276616Y-94182161D01*
X107263756Y-94221142D01*
X107252554Y-94257289D01*
X107242880Y-94292434D01*
X107234604Y-94328410D01*
X107227597Y-94367050D01*
X107221728Y-94410185D01*
X107216869Y-94459649D01*
X107212890Y-94517273D01*
X107209660Y-94584891D01*
X107207051Y-94664334D01*
X107204933Y-94757436D01*
X107203176Y-94866027D01*
X107201651Y-94991942D01*
X107200228Y-95137012D01*
X107198975Y-95279778D01*
X107197649Y-95435968D01*
X107196444Y-95571239D01*
X107195234Y-95687246D01*
X107193894Y-95785645D01*
X107192300Y-95868093D01*
X107190325Y-95936246D01*
X107187844Y-95991760D01*
X107184731Y-96036292D01*
X107180862Y-96071498D01*
X107176111Y-96099034D01*
X107170352Y-96120556D01*
X107163461Y-96137722D01*
X107155311Y-96152186D01*
X107145777Y-96165606D01*
X107134734Y-96179638D01*
X107130434Y-96185071D01*
X107114614Y-96207910D01*
X107107578Y-96223463D01*
X107107556Y-96223922D01*
X107118433Y-96226121D01*
X107149418Y-96228147D01*
X107198043Y-96229942D01*
X107261837Y-96231451D01*
X107338331Y-96232616D01*
X107425056Y-96233380D01*
X107519543Y-96233686D01*
X107530450Y-96233689D01*
X107953343Y-96233689D01*
X107956605Y-96137622D01*
X107959867Y-96041556D01*
X108021956Y-96092543D01*
X108119286Y-96160057D01*
X108229187Y-96214749D01*
X108315651Y-96244978D01*
X108384722Y-96259666D01*
X108468075Y-96269659D01*
X108557841Y-96274646D01*
X108646155Y-96274313D01*
X108725149Y-96268351D01*
X108761378Y-96262638D01*
X108901397Y-96224776D01*
X109027822Y-96169932D01*
X109139740Y-96098924D01*
X109236238Y-96012568D01*
X109316400Y-95911679D01*
X109379313Y-95797076D01*
X109423688Y-95670984D01*
X109436022Y-95614401D01*
X109443632Y-95552202D01*
X109447261Y-95477363D01*
X109447755Y-95443467D01*
X109447690Y-95440282D01*
X108687752Y-95440282D01*
X108678459Y-95515333D01*
X108650272Y-95579160D01*
X108601803Y-95634798D01*
X108596746Y-95639211D01*
X108548452Y-95674037D01*
X108496743Y-95696620D01*
X108436011Y-95708540D01*
X108360648Y-95711383D01*
X108342541Y-95710978D01*
X108288722Y-95708325D01*
X108248692Y-95702909D01*
X108213676Y-95692745D01*
X108174897Y-95675850D01*
X108164255Y-95670672D01*
X108103604Y-95634844D01*
X108056785Y-95592212D01*
X108044048Y-95576973D01*
X107999378Y-95520462D01*
X107999378Y-95324586D01*
X107999914Y-95245939D01*
X108001604Y-95187988D01*
X108004572Y-95148875D01*
X108008943Y-95126741D01*
X108013028Y-95120274D01*
X108028953Y-95117111D01*
X108062736Y-95114488D01*
X108109660Y-95112655D01*
X108165007Y-95111857D01*
X108173894Y-95111842D01*
X108294670Y-95117096D01*
X108397340Y-95133263D01*
X108483894Y-95160961D01*
X108556319Y-95200808D01*
X108611249Y-95247758D01*
X108655796Y-95305645D01*
X108680520Y-95368693D01*
X108687752Y-95440282D01*
X109447690Y-95440282D01*
X109445822Y-95349712D01*
X109437478Y-95270812D01*
X109421232Y-95199590D01*
X109395595Y-95128864D01*
X109371599Y-95076493D01*
X109312980Y-94981196D01*
X109234883Y-94893170D01*
X109139685Y-94814017D01*
X109029762Y-94745340D01*
X108907490Y-94688741D01*
X108775245Y-94645821D01*
X108710578Y-94630882D01*
X108574396Y-94608777D01*
X108425951Y-94594194D01*
X108274495Y-94587813D01*
X108147936Y-94589445D01*
X107986050Y-94596224D01*
X107993470Y-94537245D01*
X108012762Y-94438092D01*
X108043896Y-94357372D01*
X108087731Y-94294466D01*
X108145129Y-94248756D01*
X108216952Y-94219622D01*
X108304059Y-94206447D01*
X108407314Y-94208611D01*
X108445289Y-94212612D01*
X108586480Y-94237780D01*
X108723293Y-94278814D01*
X108817822Y-94316815D01*
X108862982Y-94336190D01*
X108901415Y-94351760D01*
X108927766Y-94361405D01*
X108935454Y-94363452D01*
X108945198Y-94354374D01*
X108961917Y-94325405D01*
X108985768Y-94276217D01*
X109016907Y-94206484D01*
X109055493Y-94115879D01*
X109062090Y-94100089D01*
X109092147Y-94027772D01*
X109119126Y-93962425D01*
X109141864Y-93906906D01*
X109159194Y-93864072D01*
X109169952Y-93836781D01*
X109173059Y-93827942D01*
X109163060Y-93823187D01*
X109136783Y-93817910D01*
X109108511Y-93814231D01*
X109078354Y-93809474D01*
X109030567Y-93800028D01*
X108969388Y-93786820D01*
X108899054Y-93770776D01*
X108823806Y-93752820D01*
X108795245Y-93745797D01*
X108690184Y-93720209D01*
X108602520Y-93700147D01*
X108527932Y-93684969D01*
X108462097Y-93674035D01*
X108400693Y-93666704D01*
X108339398Y-93662335D01*
X108273890Y-93660287D01*
X108215872Y-93659889D01*
X108046426Y-93666552D01*
G36*
X110391571Y-92749071D02*
G01*
X110231430Y-92770245D01*
X110067490Y-92810385D01*
X109897687Y-92869889D01*
X109719957Y-92949154D01*
X109708690Y-92954699D01*
X109650995Y-92982725D01*
X109599448Y-93006802D01*
X109557809Y-93025249D01*
X109529838Y-93036386D01*
X109520267Y-93038933D01*
X109501050Y-93043941D01*
X109496439Y-93048147D01*
X109501542Y-93058580D01*
X109517582Y-93084868D01*
X109542712Y-93124257D01*
X109575086Y-93173991D01*
X109612857Y-93231315D01*
X109654178Y-93293476D01*
X109697202Y-93357718D01*
X109740083Y-93421285D01*
X109780974Y-93481425D01*
X109818029Y-93535380D01*
X109849400Y-93580397D01*
X109873241Y-93613721D01*
X109887706Y-93632597D01*
X109889691Y-93634787D01*
X109899809Y-93630138D01*
X109922150Y-93612962D01*
X109952720Y-93586440D01*
X109968464Y-93571964D01*
X110064953Y-93496682D01*
X110171664Y-93441241D01*
X110287168Y-93406141D01*
X110410038Y-93391880D01*
X110479439Y-93393051D01*
X110600577Y-93410212D01*
X110709795Y-93446094D01*
X110807418Y-93500959D01*
X110893772Y-93575070D01*
X110969185Y-93668688D01*
X111033982Y-93782076D01*
X111071399Y-93868667D01*
X111115252Y-94004366D01*
X111147572Y-94151850D01*
X111168443Y-94307314D01*
X111177949Y-94466956D01*
X111176173Y-94626973D01*
X111163197Y-94783561D01*
X111139106Y-94932918D01*
X111103982Y-95071240D01*
X111057908Y-95194724D01*
X111041627Y-95228978D01*
X110973380Y-95343064D01*
X110892921Y-95439557D01*
X110801430Y-95517670D01*
X110700089Y-95576617D01*
X110590080Y-95615612D01*
X110472585Y-95633868D01*
X110431117Y-95635211D01*
X110309559Y-95624290D01*
X110189122Y-95591474D01*
X110071334Y-95537439D01*
X109957723Y-95462865D01*
X109866315Y-95384539D01*
X109819785Y-95340008D01*
X109638517Y-95637271D01*
X109593420Y-95711433D01*
X109552181Y-95779646D01*
X109516265Y-95839459D01*
X109487134Y-95888420D01*
X109466250Y-95924079D01*
X109455076Y-95943984D01*
X109453625Y-95947079D01*
X109461854Y-95956718D01*
X109487433Y-95973999D01*
X109527127Y-95997283D01*
X109577703Y-96024934D01*
X109635926Y-96055315D01*
X109698563Y-96086790D01*
X109762379Y-96117722D01*
X109824140Y-96146473D01*
X109880612Y-96171408D01*
X109928562Y-96190889D01*
X109952014Y-96199318D01*
X110085779Y-96237133D01*
X110223673Y-96262136D01*
X110371378Y-96275140D01*
X110498167Y-96277468D01*
X110566122Y-96276373D01*
X110631723Y-96274275D01*
X110689153Y-96271434D01*
X110732597Y-96268106D01*
X110746702Y-96266422D01*
X110885716Y-96237587D01*
X111027243Y-96192468D01*
X111164725Y-96133750D01*
X111291606Y-96064120D01*
X111369111Y-96011441D01*
X111496519Y-95903239D01*
X111614822Y-95776671D01*
X111721828Y-95634866D01*
X111815348Y-95480951D01*
X111893190Y-95318053D01*
X111937044Y-95200756D01*
X111987292Y-95017128D01*
X112020791Y-94822581D01*
X112037551Y-94621325D01*
X112037584Y-94417568D01*
X112020899Y-94215521D01*
X111987507Y-94019392D01*
X111937420Y-93833391D01*
X111933603Y-93821803D01*
X111870719Y-93659750D01*
X111793972Y-93511832D01*
X111700758Y-93373865D01*
X111588473Y-93241661D01*
X111544608Y-93196399D01*
X111408466Y-93072457D01*
X111268509Y-92969915D01*
X111122589Y-92887656D01*
X110968558Y-92824564D01*
X110804268Y-92779523D01*
X110708711Y-92762033D01*
X110549977Y-92746466D01*
X110391571Y-92749071D01*
G37*
X110391571Y-92749071D02*
X110231430Y-92770245D01*
X110067490Y-92810385D01*
X109897687Y-92869889D01*
X109719957Y-92949154D01*
X109708690Y-92954699D01*
X109650995Y-92982725D01*
X109599448Y-93006802D01*
X109557809Y-93025249D01*
X109529838Y-93036386D01*
X109520267Y-93038933D01*
X109501050Y-93043941D01*
X109496439Y-93048147D01*
X109501542Y-93058580D01*
X109517582Y-93084868D01*
X109542712Y-93124257D01*
X109575086Y-93173991D01*
X109612857Y-93231315D01*
X109654178Y-93293476D01*
X109697202Y-93357718D01*
X109740083Y-93421285D01*
X109780974Y-93481425D01*
X109818029Y-93535380D01*
X109849400Y-93580397D01*
X109873241Y-93613721D01*
X109887706Y-93632597D01*
X109889691Y-93634787D01*
X109899809Y-93630138D01*
X109922150Y-93612962D01*
X109952720Y-93586440D01*
X109968464Y-93571964D01*
X110064953Y-93496682D01*
X110171664Y-93441241D01*
X110287168Y-93406141D01*
X110410038Y-93391880D01*
X110479439Y-93393051D01*
X110600577Y-93410212D01*
X110709795Y-93446094D01*
X110807418Y-93500959D01*
X110893772Y-93575070D01*
X110969185Y-93668688D01*
X111033982Y-93782076D01*
X111071399Y-93868667D01*
X111115252Y-94004366D01*
X111147572Y-94151850D01*
X111168443Y-94307314D01*
X111177949Y-94466956D01*
X111176173Y-94626973D01*
X111163197Y-94783561D01*
X111139106Y-94932918D01*
X111103982Y-95071240D01*
X111057908Y-95194724D01*
X111041627Y-95228978D01*
X110973380Y-95343064D01*
X110892921Y-95439557D01*
X110801430Y-95517670D01*
X110700089Y-95576617D01*
X110590080Y-95615612D01*
X110472585Y-95633868D01*
X110431117Y-95635211D01*
X110309559Y-95624290D01*
X110189122Y-95591474D01*
X110071334Y-95537439D01*
X109957723Y-95462865D01*
X109866315Y-95384539D01*
X109819785Y-95340008D01*
X109638517Y-95637271D01*
X109593420Y-95711433D01*
X109552181Y-95779646D01*
X109516265Y-95839459D01*
X109487134Y-95888420D01*
X109466250Y-95924079D01*
X109455076Y-95943984D01*
X109453625Y-95947079D01*
X109461854Y-95956718D01*
X109487433Y-95973999D01*
X109527127Y-95997283D01*
X109577703Y-96024934D01*
X109635926Y-96055315D01*
X109698563Y-96086790D01*
X109762379Y-96117722D01*
X109824140Y-96146473D01*
X109880612Y-96171408D01*
X109928562Y-96190889D01*
X109952014Y-96199318D01*
X110085779Y-96237133D01*
X110223673Y-96262136D01*
X110371378Y-96275140D01*
X110498167Y-96277468D01*
X110566122Y-96276373D01*
X110631723Y-96274275D01*
X110689153Y-96271434D01*
X110732597Y-96268106D01*
X110746702Y-96266422D01*
X110885716Y-96237587D01*
X111027243Y-96192468D01*
X111164725Y-96133750D01*
X111291606Y-96064120D01*
X111369111Y-96011441D01*
X111496519Y-95903239D01*
X111614822Y-95776671D01*
X111721828Y-95634866D01*
X111815348Y-95480951D01*
X111893190Y-95318053D01*
X111937044Y-95200756D01*
X111987292Y-95017128D01*
X112020791Y-94822581D01*
X112037551Y-94621325D01*
X112037584Y-94417568D01*
X112020899Y-94215521D01*
X111987507Y-94019392D01*
X111937420Y-93833391D01*
X111933603Y-93821803D01*
X111870719Y-93659750D01*
X111793972Y-93511832D01*
X111700758Y-93373865D01*
X111588473Y-93241661D01*
X111544608Y-93196399D01*
X111408466Y-93072457D01*
X111268509Y-92969915D01*
X111122589Y-92887656D01*
X110968558Y-92824564D01*
X110804268Y-92779523D01*
X110708711Y-92762033D01*
X110549977Y-92746466D01*
X110391571Y-92749071D01*
G36*
X113666400Y-92289054D02*
G01*
X113655535Y-92402993D01*
X113623918Y-92510616D01*
X113573015Y-92609615D01*
X113504293Y-92697684D01*
X113419219Y-92772516D01*
X113322232Y-92830384D01*
X113215964Y-92870005D01*
X113108950Y-92888573D01*
X113003300Y-92887434D01*
X112901125Y-92867930D01*
X112804534Y-92831406D01*
X112715638Y-92779205D01*
X112636546Y-92712673D01*
X112569369Y-92633152D01*
X112516217Y-92541987D01*
X112479199Y-92440523D01*
X112460427Y-92330102D01*
X112458489Y-92280206D01*
X112458489Y-92192267D01*
X112406560Y-92192267D01*
X112370253Y-92195111D01*
X112343355Y-92206911D01*
X112316249Y-92230649D01*
X112277867Y-92269031D01*
X112277867Y-94460602D01*
X112277876Y-94722739D01*
X112277908Y-94963241D01*
X112277972Y-95183048D01*
X112278076Y-95383101D01*
X112278227Y-95564344D01*
X112278434Y-95727716D01*
X112278706Y-95874160D01*
X112279050Y-96004617D01*
X112279474Y-96120029D01*
X112279987Y-96221338D01*
X112280597Y-96309484D01*
X112281312Y-96385410D01*
X112282140Y-96450057D01*
X112283089Y-96504367D01*
X112284167Y-96549280D01*
X112285383Y-96585740D01*
X112286745Y-96614687D01*
X112288261Y-96637063D01*
X112289938Y-96653809D01*
X112291786Y-96665868D01*
X112293813Y-96674180D01*
X112296025Y-96679687D01*
X112297108Y-96681537D01*
X112301271Y-96688549D01*
X112304805Y-96694996D01*
X112308635Y-96700900D01*
X112313682Y-96706286D01*
X112320871Y-96711178D01*
X112331123Y-96715598D01*
X112345364Y-96719572D01*
X112364514Y-96723121D01*
X112389499Y-96726270D01*
X112421240Y-96729042D01*
X112460662Y-96731461D01*
X112508686Y-96733551D01*
X112566237Y-96735335D01*
X112634237Y-96736837D01*
X112713610Y-96738080D01*
X112805279Y-96739089D01*
X112910166Y-96739885D01*
X113029196Y-96740494D01*
X113163290Y-96740939D01*
X113313373Y-96741243D01*
X113480367Y-96741430D01*
X113665196Y-96741524D01*
X113868783Y-96741548D01*
X114092050Y-96741525D01*
X114335922Y-96741480D01*
X114601321Y-96741437D01*
X114639704Y-96741432D01*
X114906682Y-96741389D01*
X115152002Y-96741318D01*
X115376583Y-96741213D01*
X115581345Y-96741066D01*
X115767206Y-96740869D01*
X115935088Y-96740616D01*
X116085908Y-96740300D01*
X116220587Y-96739913D01*
X116340044Y-96739447D01*
X116445199Y-96738897D01*
X116536971Y-96738253D01*
X116616279Y-96737511D01*
X116684043Y-96736661D01*
X116741182Y-96735697D01*
X116788617Y-96734611D01*
X116827266Y-96733397D01*
X116858049Y-96732047D01*
X116881885Y-96730555D01*
X116899694Y-96728911D01*
X116912395Y-96727111D01*
X116920908Y-96725145D01*
X116925266Y-96723477D01*
X116933728Y-96719906D01*
X116941497Y-96717270D01*
X116948602Y-96714634D01*
X116955073Y-96711062D01*
X116960939Y-96705621D01*
X116966229Y-96697375D01*
X116970974Y-96685390D01*
X116975202Y-96668731D01*
X116978943Y-96646463D01*
X116982227Y-96617652D01*
X116985083Y-96581363D01*
X116987540Y-96536661D01*
X116989629Y-96482611D01*
X116991378Y-96418279D01*
X116992817Y-96342730D01*
X116993976Y-96255030D01*
X116994883Y-96154243D01*
X116995569Y-96039434D01*
X116996063Y-95909670D01*
X116996395Y-95764015D01*
X116996593Y-95601535D01*
X116996687Y-95421295D01*
X116996708Y-95222360D01*
X116996685Y-95003796D01*
X116996646Y-94764668D01*
X116996622Y-94504040D01*
X116996622Y-94461889D01*
X116996636Y-94198992D01*
X116996661Y-93957732D01*
X116996671Y-93737165D01*
X116996642Y-93536352D01*
X116996548Y-93354349D01*
X116996362Y-93190216D01*
X116996059Y-93043011D01*
X116995614Y-92911792D01*
X116995034Y-92801867D01*
X116692197Y-92801867D01*
X116652407Y-92859711D01*
X116641236Y-92875479D01*
X116631166Y-92889441D01*
X116622138Y-92902784D01*
X116614097Y-92916693D01*
X116606986Y-92932356D01*
X116600747Y-92950958D01*
X116595325Y-92973686D01*
X116590662Y-93001727D01*
X116586701Y-93036267D01*
X116583385Y-93078492D01*
X116580659Y-93129589D01*
X116578464Y-93190744D01*
X116576745Y-93263144D01*
X116575444Y-93347975D01*
X116574505Y-93446422D01*
X116573870Y-93559674D01*
X116573484Y-93688916D01*
X116573288Y-93835334D01*
X116573227Y-94000116D01*
X116573243Y-94184447D01*
X116573280Y-94389513D01*
X116573289Y-94512133D01*
X116573265Y-94729082D01*
X116573231Y-94924642D01*
X116573243Y-95099999D01*
X116573358Y-95256341D01*
X116573630Y-95394857D01*
X116574118Y-95516734D01*
X116574876Y-95623160D01*
X116575962Y-95715322D01*
X116577431Y-95794409D01*
X116579340Y-95861608D01*
X116581744Y-95918107D01*
X116584701Y-95965093D01*
X116588266Y-96003755D01*
X116592495Y-96035280D01*
X116597446Y-96060855D01*
X116603173Y-96081670D01*
X116609733Y-96098911D01*
X116617183Y-96113765D01*
X116625579Y-96127422D01*
X116634976Y-96141069D01*
X116645432Y-96155893D01*
X116651523Y-96164783D01*
X116690296Y-96222400D01*
X116158732Y-96222400D01*
X116035483Y-96222365D01*
X115932987Y-96222215D01*
X115849420Y-96221878D01*
X115782956Y-96221286D01*
X115731771Y-96220367D01*
X115694041Y-96219051D01*
X115667940Y-96217269D01*
X115651644Y-96214951D01*
X115643328Y-96212026D01*
X115641168Y-96208424D01*
X115643339Y-96204075D01*
X115644535Y-96202645D01*
X115669685Y-96165573D01*
X115695583Y-96112772D01*
X115719192Y-96050770D01*
X115727461Y-96024357D01*
X115732078Y-96006416D01*
X115735979Y-95985355D01*
X115739248Y-95959089D01*
X115741966Y-95925532D01*
X115744215Y-95882599D01*
X115746077Y-95828204D01*
X115747636Y-95760262D01*
X115748972Y-95676688D01*
X115750169Y-95575395D01*
X115751308Y-95454300D01*
X115751685Y-95409600D01*
X115752702Y-95284449D01*
X115753460Y-95180082D01*
X115753903Y-95094707D01*
X115753970Y-95026533D01*
X115753605Y-94973765D01*
X115752748Y-94934614D01*
X115751341Y-94907285D01*
X115749325Y-94889986D01*
X115746643Y-94880926D01*
X115743236Y-94878312D01*
X115739044Y-94880351D01*
X115734571Y-94884667D01*
X115724216Y-94897602D01*
X115702158Y-94926676D01*
X115669957Y-94969759D01*
X115629174Y-95024718D01*
X115581370Y-95089423D01*
X115528105Y-95161742D01*
X115470940Y-95239544D01*
X115411437Y-95320698D01*
X115351155Y-95403072D01*
X115291655Y-95484536D01*
X115234498Y-95562957D01*
X115181245Y-95636204D01*
X115133457Y-95702147D01*
X115092693Y-95758654D01*
X115060516Y-95803593D01*
X115038485Y-95834834D01*
X115033917Y-95841466D01*
X115010996Y-95878369D01*
X114984188Y-95926359D01*
X114958789Y-95975897D01*
X114955568Y-95982577D01*
X114933890Y-96030772D01*
X114921304Y-96068334D01*
X114915574Y-96104160D01*
X114914456Y-96146200D01*
X114915090Y-96222400D01*
X113760651Y-96222400D01*
X113851815Y-96128669D01*
X113898612Y-96078775D01*
X113948899Y-96022295D01*
X113994944Y-95968026D01*
X114015369Y-95942673D01*
X114045807Y-95903128D01*
X114085862Y-95849916D01*
X114134361Y-95784667D01*
X114190135Y-95709011D01*
X114252011Y-95624577D01*
X114318819Y-95532994D01*
X114389387Y-95435892D01*
X114462545Y-95334901D01*
X114537121Y-95231650D01*
X114611944Y-95127768D01*
X114685843Y-95024885D01*
X114757646Y-94924631D01*
X114826184Y-94828636D01*
X114890284Y-94738527D01*
X114948775Y-94655936D01*
X115000486Y-94582492D01*
X115044247Y-94519824D01*
X115078885Y-94469561D01*
X115103230Y-94433334D01*
X115116111Y-94412771D01*
X115117869Y-94408668D01*
X115109910Y-94397342D01*
X115089115Y-94370162D01*
X115056847Y-94328829D01*
X115014470Y-94275044D01*
X114963347Y-94210506D01*
X114904841Y-94136918D01*
X114840314Y-94055978D01*
X114771131Y-93969388D01*
X114698653Y-93878848D01*
X114624246Y-93786060D01*
X114564517Y-93711702D01*
X113553511Y-93711702D01*
X113547602Y-93724659D01*
X113533272Y-93746908D01*
X113532225Y-93748391D01*
X113513438Y-93778544D01*
X113493791Y-93815375D01*
X113489892Y-93823511D01*
X113486356Y-93831940D01*
X113483230Y-93842059D01*
X113480486Y-93855260D01*
X113478092Y-93872938D01*
X113476019Y-93896484D01*
X113474235Y-93927293D01*
X113472712Y-93966757D01*
X113471419Y-94016269D01*
X113470326Y-94077223D01*
X113469403Y-94151011D01*
X113468619Y-94239028D01*
X113467945Y-94342665D01*
X113467350Y-94463316D01*
X113466805Y-94602374D01*
X113466279Y-94761232D01*
X113465745Y-94940089D01*
X113465206Y-95125207D01*
X113464772Y-95289145D01*
X113464509Y-95433303D01*
X113464484Y-95559079D01*
X113464765Y-95667871D01*
X113465419Y-95761077D01*
X113466514Y-95840097D01*
X113468118Y-95906328D01*
X113470297Y-95961170D01*
X113473119Y-96006021D01*
X113476651Y-96042278D01*
X113480961Y-96071341D01*
X113486117Y-96094609D01*
X113492185Y-96113479D01*
X113499233Y-96129351D01*
X113507329Y-96143622D01*
X113516540Y-96157691D01*
X113525040Y-96170158D01*
X113542176Y-96196452D01*
X113552322Y-96214037D01*
X113553511Y-96217257D01*
X113542604Y-96218334D01*
X113511411Y-96219335D01*
X113462223Y-96220235D01*
X113397333Y-96221010D01*
X113319030Y-96221637D01*
X113229607Y-96222091D01*
X113131356Y-96222349D01*
X113062445Y-96222400D01*
X112957452Y-96222180D01*
X112860610Y-96221548D01*
X112774107Y-96220549D01*
X112700132Y-96219227D01*
X112640874Y-96217626D01*
X112598520Y-96215791D01*
X112575260Y-96213765D01*
X112571378Y-96212493D01*
X112579076Y-96197591D01*
X112587074Y-96189560D01*
X112600246Y-96172434D01*
X112617485Y-96142183D01*
X112629407Y-96117622D01*
X112656045Y-96058711D01*
X112659120Y-94881845D01*
X112662195Y-93704978D01*
X113107853Y-93704978D01*
X113205670Y-93705142D01*
X113296064Y-93705611D01*
X113376630Y-93706347D01*
X113444962Y-93707316D01*
X113498656Y-93708480D01*
X113535305Y-93709803D01*
X113552504Y-93711249D01*
X113553511Y-93711702D01*
X114564517Y-93711702D01*
X114549270Y-93692722D01*
X114475090Y-93600537D01*
X114403069Y-93511204D01*
X114334569Y-93426424D01*
X114270955Y-93347898D01*
X114213588Y-93277326D01*
X114163833Y-93216409D01*
X114123052Y-93166847D01*
X114105888Y-93146178D01*
X114019596Y-93045516D01*
X113942997Y-92962259D01*
X113874183Y-92894438D01*
X113811248Y-92840089D01*
X113801867Y-92832722D01*
X113762356Y-92802117D01*
X114894116Y-92801867D01*
X114888827Y-92849844D01*
X114892130Y-92907188D01*
X114913661Y-92975463D01*
X114953635Y-93055212D01*
X114998943Y-93127495D01*
X115015161Y-93150140D01*
X115043214Y-93187696D01*
X115081430Y-93238021D01*
X115128137Y-93298973D01*
X115181661Y-93368411D01*
X115240331Y-93444194D01*
X115302475Y-93524180D01*
X115366421Y-93606228D01*
X115430495Y-93688196D01*
X115493027Y-93767943D01*
X115552343Y-93843327D01*
X115606771Y-93912207D01*
X115654639Y-93972442D01*
X115694275Y-94021889D01*
X115724006Y-94058408D01*
X115742161Y-94079858D01*
X115745220Y-94083156D01*
X115748079Y-94075149D01*
X115750293Y-94044855D01*
X115751857Y-93992556D01*
X115752767Y-93918531D01*
X115753020Y-93823063D01*
X115752613Y-93706434D01*
X115751704Y-93586445D01*
X115750382Y-93454333D01*
X115748857Y-93342594D01*
X115746881Y-93249025D01*
X115744206Y-93171419D01*
X115740582Y-93107574D01*
X115735761Y-93055283D01*
X115729494Y-93012344D01*
X115721532Y-92976551D01*
X115711627Y-92945700D01*
X115699531Y-92917586D01*
X115684993Y-92890005D01*
X115670311Y-92864966D01*
X115632314Y-92801867D01*
X116692197Y-92801867D01*
X116995034Y-92801867D01*
X116995001Y-92795617D01*
X116994195Y-92693544D01*
X116993170Y-92604633D01*
X116991900Y-92527941D01*
X116990360Y-92462527D01*
X116988524Y-92407449D01*
X116986367Y-92361765D01*
X116983863Y-92324534D01*
X116980987Y-92294813D01*
X116977713Y-92271662D01*
X116974015Y-92254139D01*
X116969869Y-92241301D01*
X116965247Y-92232208D01*
X116960126Y-92225918D01*
X116954478Y-92221488D01*
X116948279Y-92217978D01*
X116941504Y-92214445D01*
X116935508Y-92210876D01*
X116930275Y-92208300D01*
X116922099Y-92205972D01*
X116909886Y-92203878D01*
X116892541Y-92202007D01*
X116868969Y-92200347D01*
X116838077Y-92198884D01*
X116798768Y-92197608D01*
X116749950Y-92196504D01*
X116690527Y-92195561D01*
X116619404Y-92194767D01*
X116535488Y-92194109D01*
X116437683Y-92193575D01*
X116324894Y-92193153D01*
X116196029Y-92192829D01*
X116049991Y-92192592D01*
X115885686Y-92192430D01*
X115702020Y-92192330D01*
X115497897Y-92192280D01*
X115286753Y-92192267D01*
X113666400Y-92192267D01*
X113666400Y-92289054D01*
G37*
X113666400Y-92289054D02*
X113655535Y-92402993D01*
X113623918Y-92510616D01*
X113573015Y-92609615D01*
X113504293Y-92697684D01*
X113419219Y-92772516D01*
X113322232Y-92830384D01*
X113215964Y-92870005D01*
X113108950Y-92888573D01*
X113003300Y-92887434D01*
X112901125Y-92867930D01*
X112804534Y-92831406D01*
X112715638Y-92779205D01*
X112636546Y-92712673D01*
X112569369Y-92633152D01*
X112516217Y-92541987D01*
X112479199Y-92440523D01*
X112460427Y-92330102D01*
X112458489Y-92280206D01*
X112458489Y-92192267D01*
X112406560Y-92192267D01*
X112370253Y-92195111D01*
X112343355Y-92206911D01*
X112316249Y-92230649D01*
X112277867Y-92269031D01*
X112277867Y-94460602D01*
X112277876Y-94722739D01*
X112277908Y-94963241D01*
X112277972Y-95183048D01*
X112278076Y-95383101D01*
X112278227Y-95564344D01*
X112278434Y-95727716D01*
X112278706Y-95874160D01*
X112279050Y-96004617D01*
X112279474Y-96120029D01*
X112279987Y-96221338D01*
X112280597Y-96309484D01*
X112281312Y-96385410D01*
X112282140Y-96450057D01*
X112283089Y-96504367D01*
X112284167Y-96549280D01*
X112285383Y-96585740D01*
X112286745Y-96614687D01*
X112288261Y-96637063D01*
X112289938Y-96653809D01*
X112291786Y-96665868D01*
X112293813Y-96674180D01*
X112296025Y-96679687D01*
X112297108Y-96681537D01*
X112301271Y-96688549D01*
X112304805Y-96694996D01*
X112308635Y-96700900D01*
X112313682Y-96706286D01*
X112320871Y-96711178D01*
X112331123Y-96715598D01*
X112345364Y-96719572D01*
X112364514Y-96723121D01*
X112389499Y-96726270D01*
X112421240Y-96729042D01*
X112460662Y-96731461D01*
X112508686Y-96733551D01*
X112566237Y-96735335D01*
X112634237Y-96736837D01*
X112713610Y-96738080D01*
X112805279Y-96739089D01*
X112910166Y-96739885D01*
X113029196Y-96740494D01*
X113163290Y-96740939D01*
X113313373Y-96741243D01*
X113480367Y-96741430D01*
X113665196Y-96741524D01*
X113868783Y-96741548D01*
X114092050Y-96741525D01*
X114335922Y-96741480D01*
X114601321Y-96741437D01*
X114639704Y-96741432D01*
X114906682Y-96741389D01*
X115152002Y-96741318D01*
X115376583Y-96741213D01*
X115581345Y-96741066D01*
X115767206Y-96740869D01*
X115935088Y-96740616D01*
X116085908Y-96740300D01*
X116220587Y-96739913D01*
X116340044Y-96739447D01*
X116445199Y-96738897D01*
X116536971Y-96738253D01*
X116616279Y-96737511D01*
X116684043Y-96736661D01*
X116741182Y-96735697D01*
X116788617Y-96734611D01*
X116827266Y-96733397D01*
X116858049Y-96732047D01*
X116881885Y-96730555D01*
X116899694Y-96728911D01*
X116912395Y-96727111D01*
X116920908Y-96725145D01*
X116925266Y-96723477D01*
X116933728Y-96719906D01*
X116941497Y-96717270D01*
X116948602Y-96714634D01*
X116955073Y-96711062D01*
X116960939Y-96705621D01*
X116966229Y-96697375D01*
X116970974Y-96685390D01*
X116975202Y-96668731D01*
X116978943Y-96646463D01*
X116982227Y-96617652D01*
X116985083Y-96581363D01*
X116987540Y-96536661D01*
X116989629Y-96482611D01*
X116991378Y-96418279D01*
X116992817Y-96342730D01*
X116993976Y-96255030D01*
X116994883Y-96154243D01*
X116995569Y-96039434D01*
X116996063Y-95909670D01*
X116996395Y-95764015D01*
X116996593Y-95601535D01*
X116996687Y-95421295D01*
X116996708Y-95222360D01*
X116996685Y-95003796D01*
X116996646Y-94764668D01*
X116996622Y-94504040D01*
X116996622Y-94461889D01*
X116996636Y-94198992D01*
X116996661Y-93957732D01*
X116996671Y-93737165D01*
X116996642Y-93536352D01*
X116996548Y-93354349D01*
X116996362Y-93190216D01*
X116996059Y-93043011D01*
X116995614Y-92911792D01*
X116995034Y-92801867D01*
X116692197Y-92801867D01*
X116652407Y-92859711D01*
X116641236Y-92875479D01*
X116631166Y-92889441D01*
X116622138Y-92902784D01*
X116614097Y-92916693D01*
X116606986Y-92932356D01*
X116600747Y-92950958D01*
X116595325Y-92973686D01*
X116590662Y-93001727D01*
X116586701Y-93036267D01*
X116583385Y-93078492D01*
X116580659Y-93129589D01*
X116578464Y-93190744D01*
X116576745Y-93263144D01*
X116575444Y-93347975D01*
X116574505Y-93446422D01*
X116573870Y-93559674D01*
X116573484Y-93688916D01*
X116573288Y-93835334D01*
X116573227Y-94000116D01*
X116573243Y-94184447D01*
X116573280Y-94389513D01*
X116573289Y-94512133D01*
X116573265Y-94729082D01*
X116573231Y-94924642D01*
X116573243Y-95099999D01*
X116573358Y-95256341D01*
X116573630Y-95394857D01*
X116574118Y-95516734D01*
X116574876Y-95623160D01*
X116575962Y-95715322D01*
X116577431Y-95794409D01*
X116579340Y-95861608D01*
X116581744Y-95918107D01*
X116584701Y-95965093D01*
X116588266Y-96003755D01*
X116592495Y-96035280D01*
X116597446Y-96060855D01*
X116603173Y-96081670D01*
X116609733Y-96098911D01*
X116617183Y-96113765D01*
X116625579Y-96127422D01*
X116634976Y-96141069D01*
X116645432Y-96155893D01*
X116651523Y-96164783D01*
X116690296Y-96222400D01*
X116158732Y-96222400D01*
X116035483Y-96222365D01*
X115932987Y-96222215D01*
X115849420Y-96221878D01*
X115782956Y-96221286D01*
X115731771Y-96220367D01*
X115694041Y-96219051D01*
X115667940Y-96217269D01*
X115651644Y-96214951D01*
X115643328Y-96212026D01*
X115641168Y-96208424D01*
X115643339Y-96204075D01*
X115644535Y-96202645D01*
X115669685Y-96165573D01*
X115695583Y-96112772D01*
X115719192Y-96050770D01*
X115727461Y-96024357D01*
X115732078Y-96006416D01*
X115735979Y-95985355D01*
X115739248Y-95959089D01*
X115741966Y-95925532D01*
X115744215Y-95882599D01*
X115746077Y-95828204D01*
X115747636Y-95760262D01*
X115748972Y-95676688D01*
X115750169Y-95575395D01*
X115751308Y-95454300D01*
X115751685Y-95409600D01*
X115752702Y-95284449D01*
X115753460Y-95180082D01*
X115753903Y-95094707D01*
X115753970Y-95026533D01*
X115753605Y-94973765D01*
X115752748Y-94934614D01*
X115751341Y-94907285D01*
X115749325Y-94889986D01*
X115746643Y-94880926D01*
X115743236Y-94878312D01*
X115739044Y-94880351D01*
X115734571Y-94884667D01*
X115724216Y-94897602D01*
X115702158Y-94926676D01*
X115669957Y-94969759D01*
X115629174Y-95024718D01*
X115581370Y-95089423D01*
X115528105Y-95161742D01*
X115470940Y-95239544D01*
X115411437Y-95320698D01*
X115351155Y-95403072D01*
X115291655Y-95484536D01*
X115234498Y-95562957D01*
X115181245Y-95636204D01*
X115133457Y-95702147D01*
X115092693Y-95758654D01*
X115060516Y-95803593D01*
X115038485Y-95834834D01*
X115033917Y-95841466D01*
X115010996Y-95878369D01*
X114984188Y-95926359D01*
X114958789Y-95975897D01*
X114955568Y-95982577D01*
X114933890Y-96030772D01*
X114921304Y-96068334D01*
X114915574Y-96104160D01*
X114914456Y-96146200D01*
X114915090Y-96222400D01*
X113760651Y-96222400D01*
X113851815Y-96128669D01*
X113898612Y-96078775D01*
X113948899Y-96022295D01*
X113994944Y-95968026D01*
X114015369Y-95942673D01*
X114045807Y-95903128D01*
X114085862Y-95849916D01*
X114134361Y-95784667D01*
X114190135Y-95709011D01*
X114252011Y-95624577D01*
X114318819Y-95532994D01*
X114389387Y-95435892D01*
X114462545Y-95334901D01*
X114537121Y-95231650D01*
X114611944Y-95127768D01*
X114685843Y-95024885D01*
X114757646Y-94924631D01*
X114826184Y-94828636D01*
X114890284Y-94738527D01*
X114948775Y-94655936D01*
X115000486Y-94582492D01*
X115044247Y-94519824D01*
X115078885Y-94469561D01*
X115103230Y-94433334D01*
X115116111Y-94412771D01*
X115117869Y-94408668D01*
X115109910Y-94397342D01*
X115089115Y-94370162D01*
X115056847Y-94328829D01*
X115014470Y-94275044D01*
X114963347Y-94210506D01*
X114904841Y-94136918D01*
X114840314Y-94055978D01*
X114771131Y-93969388D01*
X114698653Y-93878848D01*
X114624246Y-93786060D01*
X114564517Y-93711702D01*
X113553511Y-93711702D01*
X113547602Y-93724659D01*
X113533272Y-93746908D01*
X113532225Y-93748391D01*
X113513438Y-93778544D01*
X113493791Y-93815375D01*
X113489892Y-93823511D01*
X113486356Y-93831940D01*
X113483230Y-93842059D01*
X113480486Y-93855260D01*
X113478092Y-93872938D01*
X113476019Y-93896484D01*
X113474235Y-93927293D01*
X113472712Y-93966757D01*
X113471419Y-94016269D01*
X113470326Y-94077223D01*
X113469403Y-94151011D01*
X113468619Y-94239028D01*
X113467945Y-94342665D01*
X113467350Y-94463316D01*
X113466805Y-94602374D01*
X113466279Y-94761232D01*
X113465745Y-94940089D01*
X113465206Y-95125207D01*
X113464772Y-95289145D01*
X113464509Y-95433303D01*
X113464484Y-95559079D01*
X113464765Y-95667871D01*
X113465419Y-95761077D01*
X113466514Y-95840097D01*
X113468118Y-95906328D01*
X113470297Y-95961170D01*
X113473119Y-96006021D01*
X113476651Y-96042278D01*
X113480961Y-96071341D01*
X113486117Y-96094609D01*
X113492185Y-96113479D01*
X113499233Y-96129351D01*
X113507329Y-96143622D01*
X113516540Y-96157691D01*
X113525040Y-96170158D01*
X113542176Y-96196452D01*
X113552322Y-96214037D01*
X113553511Y-96217257D01*
X113542604Y-96218334D01*
X113511411Y-96219335D01*
X113462223Y-96220235D01*
X113397333Y-96221010D01*
X113319030Y-96221637D01*
X113229607Y-96222091D01*
X113131356Y-96222349D01*
X113062445Y-96222400D01*
X112957452Y-96222180D01*
X112860610Y-96221548D01*
X112774107Y-96220549D01*
X112700132Y-96219227D01*
X112640874Y-96217626D01*
X112598520Y-96215791D01*
X112575260Y-96213765D01*
X112571378Y-96212493D01*
X112579076Y-96197591D01*
X112587074Y-96189560D01*
X112600246Y-96172434D01*
X112617485Y-96142183D01*
X112629407Y-96117622D01*
X112656045Y-96058711D01*
X112659120Y-94881845D01*
X112662195Y-93704978D01*
X113107853Y-93704978D01*
X113205670Y-93705142D01*
X113296064Y-93705611D01*
X113376630Y-93706347D01*
X113444962Y-93707316D01*
X113498656Y-93708480D01*
X113535305Y-93709803D01*
X113552504Y-93711249D01*
X113553511Y-93711702D01*
X114564517Y-93711702D01*
X114549270Y-93692722D01*
X114475090Y-93600537D01*
X114403069Y-93511204D01*
X114334569Y-93426424D01*
X114270955Y-93347898D01*
X114213588Y-93277326D01*
X114163833Y-93216409D01*
X114123052Y-93166847D01*
X114105888Y-93146178D01*
X114019596Y-93045516D01*
X113942997Y-92962259D01*
X113874183Y-92894438D01*
X113811248Y-92840089D01*
X113801867Y-92832722D01*
X113762356Y-92802117D01*
X114894116Y-92801867D01*
X114888827Y-92849844D01*
X114892130Y-92907188D01*
X114913661Y-92975463D01*
X114953635Y-93055212D01*
X114998943Y-93127495D01*
X115015161Y-93150140D01*
X115043214Y-93187696D01*
X115081430Y-93238021D01*
X115128137Y-93298973D01*
X115181661Y-93368411D01*
X115240331Y-93444194D01*
X115302475Y-93524180D01*
X115366421Y-93606228D01*
X115430495Y-93688196D01*
X115493027Y-93767943D01*
X115552343Y-93843327D01*
X115606771Y-93912207D01*
X115654639Y-93972442D01*
X115694275Y-94021889D01*
X115724006Y-94058408D01*
X115742161Y-94079858D01*
X115745220Y-94083156D01*
X115748079Y-94075149D01*
X115750293Y-94044855D01*
X115751857Y-93992556D01*
X115752767Y-93918531D01*
X115753020Y-93823063D01*
X115752613Y-93706434D01*
X115751704Y-93586445D01*
X115750382Y-93454333D01*
X115748857Y-93342594D01*
X115746881Y-93249025D01*
X115744206Y-93171419D01*
X115740582Y-93107574D01*
X115735761Y-93055283D01*
X115729494Y-93012344D01*
X115721532Y-92976551D01*
X115711627Y-92945700D01*
X115699531Y-92917586D01*
X115684993Y-92890005D01*
X115670311Y-92864966D01*
X115632314Y-92801867D01*
X116692197Y-92801867D01*
X116995034Y-92801867D01*
X116995001Y-92795617D01*
X116994195Y-92693544D01*
X116993170Y-92604633D01*
X116991900Y-92527941D01*
X116990360Y-92462527D01*
X116988524Y-92407449D01*
X116986367Y-92361765D01*
X116983863Y-92324534D01*
X116980987Y-92294813D01*
X116977713Y-92271662D01*
X116974015Y-92254139D01*
X116969869Y-92241301D01*
X116965247Y-92232208D01*
X116960126Y-92225918D01*
X116954478Y-92221488D01*
X116948279Y-92217978D01*
X116941504Y-92214445D01*
X116935508Y-92210876D01*
X116930275Y-92208300D01*
X116922099Y-92205972D01*
X116909886Y-92203878D01*
X116892541Y-92202007D01*
X116868969Y-92200347D01*
X116838077Y-92198884D01*
X116798768Y-92197608D01*
X116749950Y-92196504D01*
X116690527Y-92195561D01*
X116619404Y-92194767D01*
X116535488Y-92194109D01*
X116437683Y-92193575D01*
X116324894Y-92193153D01*
X116196029Y-92192829D01*
X116049991Y-92192592D01*
X115885686Y-92192430D01*
X115702020Y-92192330D01*
X115497897Y-92192280D01*
X115286753Y-92192267D01*
X113666400Y-92192267D01*
X113666400Y-92289054D01*
D10*
X199723333Y-63252380D02*
X199723333Y-63966666D01*
X199770952Y-64109523D01*
X199866190Y-64204761D01*
X200009047Y-64252380D01*
X200104285Y-64252380D01*
X199294761Y-63347619D02*
X199247142Y-63300000D01*
X199151904Y-63252380D01*
X198913809Y-63252380D01*
X198818571Y-63300000D01*
X198770952Y-63347619D01*
X198723333Y-63442857D01*
X198723333Y-63538095D01*
X198770952Y-63680952D01*
X199342380Y-64252380D01*
X198723333Y-64252380D01*
X186052380Y-63295595D02*
X185052380Y-63295595D01*
X186052380Y-63771785D02*
X185052380Y-63771785D01*
X186052380Y-64343214D01*
X185052380Y-64343214D01*
X186052380Y-65343214D02*
X186052380Y-64771785D01*
X186052380Y-65057500D02*
X185052380Y-65057500D01*
X185195238Y-64962261D01*
X185290476Y-64867023D01*
X185338095Y-64771785D01*
X188412380Y-63295595D02*
X187412380Y-63295595D01*
X188412380Y-63771785D02*
X187412380Y-63771785D01*
X188412380Y-64343214D01*
X187412380Y-64343214D01*
X187507619Y-64771785D02*
X187460000Y-64819404D01*
X187412380Y-64914642D01*
X187412380Y-65152738D01*
X187460000Y-65247976D01*
X187507619Y-65295595D01*
X187602857Y-65343214D01*
X187698095Y-65343214D01*
X187840952Y-65295595D01*
X188412380Y-64724166D01*
X188412380Y-65343214D01*
X190952380Y-63295595D02*
X189952380Y-63295595D01*
X190952380Y-63771785D02*
X189952380Y-63771785D01*
X190952380Y-64343214D01*
X189952380Y-64343214D01*
X189952380Y-64724166D02*
X189952380Y-65343214D01*
X190333333Y-65009880D01*
X190333333Y-65152738D01*
X190380952Y-65247976D01*
X190428571Y-65295595D01*
X190523809Y-65343214D01*
X190761904Y-65343214D01*
X190857142Y-65295595D01*
X190904761Y-65247976D01*
X190952380Y-65152738D01*
X190952380Y-64867023D01*
X190904761Y-64771785D01*
X190857142Y-64724166D01*
X193492380Y-63295595D02*
X192492380Y-63295595D01*
X193492380Y-63771785D02*
X192492380Y-63771785D01*
X193492380Y-64343214D01*
X192492380Y-64343214D01*
X192825714Y-65247976D02*
X193492380Y-65247976D01*
X192444761Y-65009880D02*
X193159047Y-64771785D01*
X193159047Y-65390833D01*
X196032380Y-63295595D02*
X195032380Y-63295595D01*
X195508571Y-63295595D02*
X195508571Y-63867023D01*
X196032380Y-63867023D02*
X195032380Y-63867023D01*
X195508571Y-64343214D02*
X195508571Y-64676547D01*
X196032380Y-64819404D02*
X196032380Y-64343214D01*
X195032380Y-64343214D01*
X195032380Y-64819404D01*
X195746666Y-65200357D02*
X195746666Y-65676547D01*
X196032380Y-65105119D02*
X195032380Y-65438452D01*
X196032380Y-65771785D01*
X196032380Y-66105119D02*
X195032380Y-66105119D01*
X195032380Y-66343214D01*
X195080000Y-66486071D01*
X195175238Y-66581309D01*
X195270476Y-66628928D01*
X195460952Y-66676547D01*
X195603809Y-66676547D01*
X195794285Y-66628928D01*
X195889523Y-66581309D01*
X195984761Y-66486071D01*
X196032380Y-66343214D01*
X196032380Y-66105119D01*
X127333333Y-58602380D02*
X127333333Y-59316666D01*
X127380952Y-59459523D01*
X127476190Y-59554761D01*
X127619047Y-59602380D01*
X127714285Y-59602380D01*
X126428571Y-58935714D02*
X126428571Y-59602380D01*
X126666666Y-58554761D02*
X126904761Y-59269047D01*
X126285714Y-59269047D01*
X123428095Y-61856666D02*
X122951904Y-61856666D01*
X123523333Y-62142380D02*
X123190000Y-61142380D01*
X122856666Y-62142380D01*
X120861904Y-62142380D02*
X120861904Y-61142380D01*
X120290476Y-62142380D02*
X120719047Y-61570952D01*
X120290476Y-61142380D02*
X120861904Y-61713809D01*
X125967619Y-64682380D02*
X125967619Y-63682380D01*
X125586666Y-63682380D01*
X125491428Y-63730000D01*
X125443809Y-63777619D01*
X125396190Y-63872857D01*
X125396190Y-64015714D01*
X125443809Y-64110952D01*
X125491428Y-64158571D01*
X125586666Y-64206190D01*
X125967619Y-64206190D01*
X124777142Y-63682380D02*
X124586666Y-63682380D01*
X124491428Y-63730000D01*
X124396190Y-63825238D01*
X124348571Y-64015714D01*
X124348571Y-64349047D01*
X124396190Y-64539523D01*
X124491428Y-64634761D01*
X124586666Y-64682380D01*
X124777142Y-64682380D01*
X124872380Y-64634761D01*
X124967619Y-64539523D01*
X125015238Y-64349047D01*
X125015238Y-64015714D01*
X124967619Y-63825238D01*
X124872380Y-63730000D01*
X124777142Y-63682380D01*
X124015238Y-63682380D02*
X123777142Y-64682380D01*
X123586666Y-63968095D01*
X123396190Y-64682380D01*
X123158095Y-63682380D01*
X122777142Y-64158571D02*
X122443809Y-64158571D01*
X122300952Y-64682380D02*
X122777142Y-64682380D01*
X122777142Y-63682380D01*
X122300952Y-63682380D01*
X121300952Y-64682380D02*
X121634285Y-64206190D01*
X121872380Y-64682380D02*
X121872380Y-63682380D01*
X121491428Y-63682380D01*
X121396190Y-63730000D01*
X121348571Y-63777619D01*
X121300952Y-63872857D01*
X121300952Y-64015714D01*
X121348571Y-64110952D01*
X121396190Y-64158571D01*
X121491428Y-64206190D01*
X121872380Y-64206190D01*
X119634285Y-64682380D02*
X120110476Y-64682380D01*
X120110476Y-63682380D01*
X119300952Y-64158571D02*
X118967619Y-64158571D01*
X118824761Y-64682380D02*
X119300952Y-64682380D01*
X119300952Y-63682380D01*
X118824761Y-63682380D01*
X118396190Y-64682380D02*
X118396190Y-63682380D01*
X118158095Y-63682380D01*
X118015238Y-63730000D01*
X117920000Y-63825238D01*
X117872380Y-63920476D01*
X117824761Y-64110952D01*
X117824761Y-64253809D01*
X117872380Y-64444285D01*
X117920000Y-64539523D01*
X118015238Y-64634761D01*
X118158095Y-64682380D01*
X118396190Y-64682380D01*
X154003333Y-60992380D02*
X154003333Y-61706666D01*
X154050952Y-61849523D01*
X154146190Y-61944761D01*
X154289047Y-61992380D01*
X154384285Y-61992380D01*
X153003333Y-61992380D02*
X153574761Y-61992380D01*
X153289047Y-61992380D02*
X153289047Y-60992380D01*
X153384285Y-61135238D01*
X153479523Y-61230476D01*
X153574761Y-61278095D01*
X148042380Y-61882738D02*
X149042380Y-62216071D01*
X148042380Y-62549404D01*
X149042380Y-63454166D02*
X148566190Y-63120833D01*
X149042380Y-62882738D02*
X148042380Y-62882738D01*
X148042380Y-63263690D01*
X148090000Y-63358928D01*
X148137619Y-63406547D01*
X148232857Y-63454166D01*
X148375714Y-63454166D01*
X148470952Y-63406547D01*
X148518571Y-63358928D01*
X148566190Y-63263690D01*
X148566190Y-62882738D01*
X148518571Y-63882738D02*
X148518571Y-64216071D01*
X149042380Y-64358928D02*
X149042380Y-63882738D01*
X148042380Y-63882738D01*
X148042380Y-64358928D01*
X149042380Y-65263690D02*
X149042380Y-64787500D01*
X148042380Y-64787500D01*
X148756666Y-65549404D02*
X148756666Y-66025595D01*
X149042380Y-65454166D02*
X148042380Y-65787500D01*
X149042380Y-66120833D01*
X148566190Y-66644642D02*
X149042380Y-66644642D01*
X148042380Y-66311309D02*
X148566190Y-66644642D01*
X148042380Y-66977976D01*
X150630000Y-62549404D02*
X150582380Y-62454166D01*
X150582380Y-62311309D01*
X150630000Y-62168452D01*
X150725238Y-62073214D01*
X150820476Y-62025595D01*
X151010952Y-61977976D01*
X151153809Y-61977976D01*
X151344285Y-62025595D01*
X151439523Y-62073214D01*
X151534761Y-62168452D01*
X151582380Y-62311309D01*
X151582380Y-62406547D01*
X151534761Y-62549404D01*
X151487142Y-62597023D01*
X151153809Y-62597023D01*
X151153809Y-62406547D01*
X151582380Y-63025595D02*
X150582380Y-63025595D01*
X151582380Y-63597023D01*
X150582380Y-63597023D01*
X151582380Y-64073214D02*
X150582380Y-64073214D01*
X150582380Y-64311309D01*
X150630000Y-64454166D01*
X150725238Y-64549404D01*
X150820476Y-64597023D01*
X151010952Y-64644642D01*
X151153809Y-64644642D01*
X151344285Y-64597023D01*
X151439523Y-64549404D01*
X151534761Y-64454166D01*
X151582380Y-64311309D01*
X151582380Y-64073214D01*
X159083333Y-63252380D02*
X159083333Y-63966666D01*
X159130952Y-64109523D01*
X159226190Y-64204761D01*
X159369047Y-64252380D01*
X159464285Y-64252380D01*
X158702380Y-63252380D02*
X158083333Y-63252380D01*
X158416666Y-63633333D01*
X158273809Y-63633333D01*
X158178571Y-63680952D01*
X158130952Y-63728571D01*
X158083333Y-63823809D01*
X158083333Y-64061904D01*
X158130952Y-64157142D01*
X158178571Y-64204761D01*
X158273809Y-64252380D01*
X158559523Y-64252380D01*
X158654761Y-64204761D01*
X158702380Y-64157142D01*
X164282380Y-63295595D02*
X163282380Y-63295595D01*
X164282380Y-63771785D02*
X163282380Y-63771785D01*
X164282380Y-64343214D01*
X163282380Y-64343214D01*
X164282380Y-65343214D02*
X164282380Y-64771785D01*
X164282380Y-65057500D02*
X163282380Y-65057500D01*
X163425238Y-64962261D01*
X163520476Y-64867023D01*
X163568095Y-64771785D01*
X166822380Y-63295595D02*
X165822380Y-63295595D01*
X166822380Y-63771785D02*
X165822380Y-63771785D01*
X166822380Y-64343214D01*
X165822380Y-64343214D01*
X165917619Y-64771785D02*
X165870000Y-64819404D01*
X165822380Y-64914642D01*
X165822380Y-65152738D01*
X165870000Y-65247976D01*
X165917619Y-65295595D01*
X166012857Y-65343214D01*
X166108095Y-65343214D01*
X166250952Y-65295595D01*
X166822380Y-64724166D01*
X166822380Y-65343214D01*
X169362380Y-63295595D02*
X168362380Y-63295595D01*
X169362380Y-63771785D02*
X168362380Y-63771785D01*
X169362380Y-64343214D01*
X168362380Y-64343214D01*
X168362380Y-64724166D02*
X168362380Y-65343214D01*
X168743333Y-65009880D01*
X168743333Y-65152738D01*
X168790952Y-65247976D01*
X168838571Y-65295595D01*
X168933809Y-65343214D01*
X169171904Y-65343214D01*
X169267142Y-65295595D01*
X169314761Y-65247976D01*
X169362380Y-65152738D01*
X169362380Y-64867023D01*
X169314761Y-64771785D01*
X169267142Y-64724166D01*
X171902380Y-63295595D02*
X170902380Y-63295595D01*
X171902380Y-63771785D02*
X170902380Y-63771785D01*
X171902380Y-64343214D01*
X170902380Y-64343214D01*
X171235714Y-65247976D02*
X171902380Y-65247976D01*
X170854761Y-65009880D02*
X171569047Y-64771785D01*
X171569047Y-65390833D01*
X174442380Y-63295595D02*
X173442380Y-63295595D01*
X173918571Y-63295595D02*
X173918571Y-63867023D01*
X174442380Y-63867023D02*
X173442380Y-63867023D01*
X173918571Y-64343214D02*
X173918571Y-64676547D01*
X174442380Y-64819404D02*
X174442380Y-64343214D01*
X173442380Y-64343214D01*
X173442380Y-64819404D01*
X174156666Y-65200357D02*
X174156666Y-65676547D01*
X174442380Y-65105119D02*
X173442380Y-65438452D01*
X174442380Y-65771785D01*
X174442380Y-66105119D02*
X173442380Y-66105119D01*
X173442380Y-66343214D01*
X173490000Y-66486071D01*
X173585238Y-66581309D01*
X173680476Y-66628928D01*
X173870952Y-66676547D01*
X174013809Y-66676547D01*
X174204285Y-66628928D01*
X174299523Y-66581309D01*
X174394761Y-66486071D01*
X174442380Y-66343214D01*
X174442380Y-66105119D01*
M02*
