M48
; DRILL file {KiCad 5.1.4} date Sun 13 Oct 2019 07:14:43 PM EDT
; FORMAT={-:-/ absolute / inch / decimal}
; #@! TF.CreationDate,2019-10-13T19:14:43-04:00
; #@! TF.GenerationSoftware,Kicad,Pcbnew,5.1.4
; #@! TF.FileFunction,Plated,1,2,PTH
FMAT,2
INCH
T1C0.0157
T2C0.0315
T3C0.0472
T4C0.1260
%
G90
G05
T1
X4.86Y-4.96
X4.9Y-4.42
X5.7283Y-4.1929
X5.7283Y-5.1772
X5.8268Y-5.1772
X5.8465Y-4.1929
X6.96Y-4.475
X6.96Y-4.76
T2
X6.4567Y-4.8819
X6.6535Y-4.8819
X4.7047Y-4.8031
X4.7047Y-4.9016
X6.4567Y-4.3504
X6.6535Y-4.3504
X4.7047Y-4.5177
X4.7047Y-4.6161
T3
X4.4783Y-4.613
X4.4783Y-4.713
X4.4783Y-4.813
X4.4783Y-5.1362
X4.4783Y-5.2362
X4.4783Y-4.1898
X4.4783Y-4.2898
X7.3228Y-4.5472
X7.3228Y-4.6472
X7.3228Y-4.7472
T4
X4.1732Y-5.6693
X7.6378Y-5.6693
T0
M30
