G04 #@! TF.GenerationSoftware,KiCad,Pcbnew,5.1.4*
G04 #@! TF.CreationDate,2019-09-29T22:08:18-04:00*
G04 #@! TF.ProjectId,headphone_amp,68656164-7068-46f6-9e65-5f616d702e6b,0*
G04 #@! TF.SameCoordinates,Original*
G04 #@! TF.FileFunction,Copper,L2,Bot*
G04 #@! TF.FilePolarity,Positive*
%FSLAX46Y46*%
G04 Gerber Fmt 4.6, Leading zero omitted, Abs format (unit mm)*
G04 Created by KiCad (PCBNEW 5.1.4) date 2019-09-29 22:08:18*
%MOMM*%
%LPD*%
G04 APERTURE LIST*
%ADD10C,0.100000*%
%ADD11C,6.400000*%
%ADD12C,2.000000*%
%ADD13C,1.600000*%
%ADD14R,1.600000X1.600000*%
%ADD15O,2.200000X1.740000*%
%ADD16C,1.740000*%
%ADD17C,0.800000*%
%ADD18C,0.254000*%
%ADD19C,0.508000*%
%ADD20C,0.406400*%
%ADD21C,2.000000*%
G04 APERTURE END LIST*
D10*
G36*
X114000000Y-145500000D02*
G01*
X118000000Y-145500000D01*
X118000000Y-143500000D01*
X114000000Y-143500000D01*
X114000000Y-145500000D01*
G37*
D11*
X194000000Y-144000000D03*
X106000000Y-144000000D03*
D12*
X118000000Y-144500000D03*
X114000000Y-144500000D03*
D13*
X164000000Y-124000000D03*
X169000000Y-124000000D03*
X164000000Y-110500000D03*
X169000000Y-110500000D03*
X119500000Y-117250000D03*
D14*
X119500000Y-114750000D03*
D15*
X113750000Y-117170000D03*
X113750000Y-119710000D03*
D10*
G36*
X114624505Y-121381204D02*
G01*
X114648773Y-121384804D01*
X114672572Y-121390765D01*
X114695671Y-121399030D01*
X114717850Y-121409520D01*
X114738893Y-121422132D01*
X114758599Y-121436747D01*
X114776777Y-121453223D01*
X114793253Y-121471401D01*
X114807868Y-121491107D01*
X114820480Y-121512150D01*
X114830970Y-121534329D01*
X114839235Y-121557428D01*
X114845196Y-121581227D01*
X114848796Y-121605495D01*
X114850000Y-121629999D01*
X114850000Y-122870001D01*
X114848796Y-122894505D01*
X114845196Y-122918773D01*
X114839235Y-122942572D01*
X114830970Y-122965671D01*
X114820480Y-122987850D01*
X114807868Y-123008893D01*
X114793253Y-123028599D01*
X114776777Y-123046777D01*
X114758599Y-123063253D01*
X114738893Y-123077868D01*
X114717850Y-123090480D01*
X114695671Y-123100970D01*
X114672572Y-123109235D01*
X114648773Y-123115196D01*
X114624505Y-123118796D01*
X114600001Y-123120000D01*
X112899999Y-123120000D01*
X112875495Y-123118796D01*
X112851227Y-123115196D01*
X112827428Y-123109235D01*
X112804329Y-123100970D01*
X112782150Y-123090480D01*
X112761107Y-123077868D01*
X112741401Y-123063253D01*
X112723223Y-123046777D01*
X112706747Y-123028599D01*
X112692132Y-123008893D01*
X112679520Y-122987850D01*
X112669030Y-122965671D01*
X112660765Y-122942572D01*
X112654804Y-122918773D01*
X112651204Y-122894505D01*
X112650000Y-122870001D01*
X112650000Y-121629999D01*
X112651204Y-121605495D01*
X112654804Y-121581227D01*
X112660765Y-121557428D01*
X112669030Y-121534329D01*
X112679520Y-121512150D01*
X112692132Y-121491107D01*
X112706747Y-121471401D01*
X112723223Y-121453223D01*
X112741401Y-121436747D01*
X112761107Y-121422132D01*
X112782150Y-121409520D01*
X112804329Y-121399030D01*
X112827428Y-121390765D01*
X112851227Y-121384804D01*
X112875495Y-121381204D01*
X112899999Y-121380000D01*
X114600001Y-121380000D01*
X114624505Y-121381204D01*
X114624505Y-121381204D01*
G37*
D16*
X113750000Y-122250000D03*
D15*
X186000000Y-120580000D03*
X186000000Y-118040000D03*
D10*
G36*
X186874505Y-114631204D02*
G01*
X186898773Y-114634804D01*
X186922572Y-114640765D01*
X186945671Y-114649030D01*
X186967850Y-114659520D01*
X186988893Y-114672132D01*
X187008599Y-114686747D01*
X187026777Y-114703223D01*
X187043253Y-114721401D01*
X187057868Y-114741107D01*
X187070480Y-114762150D01*
X187080970Y-114784329D01*
X187089235Y-114807428D01*
X187095196Y-114831227D01*
X187098796Y-114855495D01*
X187100000Y-114879999D01*
X187100000Y-116120001D01*
X187098796Y-116144505D01*
X187095196Y-116168773D01*
X187089235Y-116192572D01*
X187080970Y-116215671D01*
X187070480Y-116237850D01*
X187057868Y-116258893D01*
X187043253Y-116278599D01*
X187026777Y-116296777D01*
X187008599Y-116313253D01*
X186988893Y-116327868D01*
X186967850Y-116340480D01*
X186945671Y-116350970D01*
X186922572Y-116359235D01*
X186898773Y-116365196D01*
X186874505Y-116368796D01*
X186850001Y-116370000D01*
X185149999Y-116370000D01*
X185125495Y-116368796D01*
X185101227Y-116365196D01*
X185077428Y-116359235D01*
X185054329Y-116350970D01*
X185032150Y-116340480D01*
X185011107Y-116327868D01*
X184991401Y-116313253D01*
X184973223Y-116296777D01*
X184956747Y-116278599D01*
X184942132Y-116258893D01*
X184929520Y-116237850D01*
X184919030Y-116215671D01*
X184910765Y-116192572D01*
X184904804Y-116168773D01*
X184901204Y-116144505D01*
X184900000Y-116120001D01*
X184900000Y-114879999D01*
X184901204Y-114855495D01*
X184904804Y-114831227D01*
X184910765Y-114807428D01*
X184919030Y-114784329D01*
X184929520Y-114762150D01*
X184942132Y-114741107D01*
X184956747Y-114721401D01*
X184973223Y-114703223D01*
X184991401Y-114686747D01*
X185011107Y-114672132D01*
X185032150Y-114659520D01*
X185054329Y-114649030D01*
X185077428Y-114640765D01*
X185101227Y-114634804D01*
X185125495Y-114631204D01*
X185149999Y-114630000D01*
X186850001Y-114630000D01*
X186874505Y-114631204D01*
X186874505Y-114631204D01*
G37*
D16*
X186000000Y-115500000D03*
D15*
X113750000Y-130460000D03*
D10*
G36*
X114624505Y-132131204D02*
G01*
X114648773Y-132134804D01*
X114672572Y-132140765D01*
X114695671Y-132149030D01*
X114717850Y-132159520D01*
X114738893Y-132172132D01*
X114758599Y-132186747D01*
X114776777Y-132203223D01*
X114793253Y-132221401D01*
X114807868Y-132241107D01*
X114820480Y-132262150D01*
X114830970Y-132284329D01*
X114839235Y-132307428D01*
X114845196Y-132331227D01*
X114848796Y-132355495D01*
X114850000Y-132379999D01*
X114850000Y-133620001D01*
X114848796Y-133644505D01*
X114845196Y-133668773D01*
X114839235Y-133692572D01*
X114830970Y-133715671D01*
X114820480Y-133737850D01*
X114807868Y-133758893D01*
X114793253Y-133778599D01*
X114776777Y-133796777D01*
X114758599Y-133813253D01*
X114738893Y-133827868D01*
X114717850Y-133840480D01*
X114695671Y-133850970D01*
X114672572Y-133859235D01*
X114648773Y-133865196D01*
X114624505Y-133868796D01*
X114600001Y-133870000D01*
X112899999Y-133870000D01*
X112875495Y-133868796D01*
X112851227Y-133865196D01*
X112827428Y-133859235D01*
X112804329Y-133850970D01*
X112782150Y-133840480D01*
X112761107Y-133827868D01*
X112741401Y-133813253D01*
X112723223Y-133796777D01*
X112706747Y-133778599D01*
X112692132Y-133758893D01*
X112679520Y-133737850D01*
X112669030Y-133715671D01*
X112660765Y-133692572D01*
X112654804Y-133668773D01*
X112651204Y-133644505D01*
X112650000Y-133620001D01*
X112650000Y-132379999D01*
X112651204Y-132355495D01*
X112654804Y-132331227D01*
X112660765Y-132307428D01*
X112669030Y-132284329D01*
X112679520Y-132262150D01*
X112692132Y-132241107D01*
X112706747Y-132221401D01*
X112723223Y-132203223D01*
X112741401Y-132186747D01*
X112761107Y-132172132D01*
X112782150Y-132159520D01*
X112804329Y-132149030D01*
X112827428Y-132140765D01*
X112851227Y-132134804D01*
X112875495Y-132131204D01*
X112899999Y-132130000D01*
X114600001Y-132130000D01*
X114624505Y-132131204D01*
X114624505Y-132131204D01*
G37*
D16*
X113750000Y-133000000D03*
D15*
X113750000Y-107710000D03*
D10*
G36*
X114624505Y-109381204D02*
G01*
X114648773Y-109384804D01*
X114672572Y-109390765D01*
X114695671Y-109399030D01*
X114717850Y-109409520D01*
X114738893Y-109422132D01*
X114758599Y-109436747D01*
X114776777Y-109453223D01*
X114793253Y-109471401D01*
X114807868Y-109491107D01*
X114820480Y-109512150D01*
X114830970Y-109534329D01*
X114839235Y-109557428D01*
X114845196Y-109581227D01*
X114848796Y-109605495D01*
X114850000Y-109629999D01*
X114850000Y-110870001D01*
X114848796Y-110894505D01*
X114845196Y-110918773D01*
X114839235Y-110942572D01*
X114830970Y-110965671D01*
X114820480Y-110987850D01*
X114807868Y-111008893D01*
X114793253Y-111028599D01*
X114776777Y-111046777D01*
X114758599Y-111063253D01*
X114738893Y-111077868D01*
X114717850Y-111090480D01*
X114695671Y-111100970D01*
X114672572Y-111109235D01*
X114648773Y-111115196D01*
X114624505Y-111118796D01*
X114600001Y-111120000D01*
X112899999Y-111120000D01*
X112875495Y-111118796D01*
X112851227Y-111115196D01*
X112827428Y-111109235D01*
X112804329Y-111100970D01*
X112782150Y-111090480D01*
X112761107Y-111077868D01*
X112741401Y-111063253D01*
X112723223Y-111046777D01*
X112706747Y-111028599D01*
X112692132Y-111008893D01*
X112679520Y-110987850D01*
X112669030Y-110965671D01*
X112660765Y-110942572D01*
X112654804Y-110918773D01*
X112651204Y-110894505D01*
X112650000Y-110870001D01*
X112650000Y-109629999D01*
X112651204Y-109605495D01*
X112654804Y-109581227D01*
X112660765Y-109557428D01*
X112669030Y-109534329D01*
X112679520Y-109512150D01*
X112692132Y-109491107D01*
X112706747Y-109471401D01*
X112723223Y-109453223D01*
X112741401Y-109436747D01*
X112761107Y-109422132D01*
X112782150Y-109409520D01*
X112804329Y-109399030D01*
X112827428Y-109390765D01*
X112851227Y-109384804D01*
X112875495Y-109381204D01*
X112899999Y-109380000D01*
X114600001Y-109380000D01*
X114624505Y-109381204D01*
X114624505Y-109381204D01*
G37*
D16*
X113750000Y-110250000D03*
D13*
X119500000Y-124500000D03*
D14*
X119500000Y-122000000D03*
D17*
X123750000Y-127750000D03*
X124750000Y-112000000D03*
X176784000Y-120904000D03*
X176784000Y-113665000D03*
X145500000Y-131500000D03*
X148000000Y-131500000D03*
X145500000Y-106500000D03*
X148500000Y-106500000D03*
D18*
X113750000Y-119710000D02*
X110290000Y-119710000D01*
X110290000Y-119710000D02*
X106000000Y-124000000D01*
X106000000Y-124000000D02*
X106000000Y-133000000D01*
X114000000Y-141000000D02*
X111500000Y-138500000D01*
X114000000Y-144500000D02*
X114000000Y-141000000D01*
X106000000Y-133000000D02*
X111500000Y-138500000D01*
X111500000Y-138500000D02*
X113500000Y-140500000D01*
D19*
X112000000Y-136000000D02*
X130999998Y-136000000D01*
X110250000Y-134250000D02*
X112000000Y-136000000D01*
X110250000Y-127500000D02*
X110250000Y-134250000D01*
X119500000Y-124500000D02*
X113250000Y-124500000D01*
X113250000Y-124500000D02*
X110250000Y-127500000D01*
X130999998Y-136000000D02*
X143500000Y-136000000D01*
X145500000Y-134000000D02*
X145250000Y-134250000D01*
X143500000Y-136000000D02*
X145250000Y-134250000D01*
D20*
X119500000Y-124500000D02*
X118368630Y-124500000D01*
D19*
X145500000Y-131500000D02*
X145500000Y-134000000D01*
X145500000Y-134000000D02*
X148000000Y-131500000D01*
X145500000Y-106500000D02*
X145500000Y-103500000D01*
X145500000Y-103500000D02*
X148500000Y-106500000D01*
X113750000Y-114750000D02*
X119500000Y-114750000D01*
X144500000Y-102500000D02*
X114000000Y-102500000D01*
X110500000Y-106000000D02*
X110500000Y-111500000D01*
X145500000Y-103500000D02*
X144500000Y-102500000D01*
X110500000Y-111500000D02*
X113750000Y-114750000D01*
X114000000Y-102500000D02*
X110500000Y-106000000D01*
D21*
X176000000Y-144500000D02*
X121500000Y-144500000D01*
X186000000Y-120580000D02*
X186000000Y-134500000D01*
X186000000Y-134500000D02*
X176000000Y-144500000D01*
X118000000Y-144500000D02*
X121500000Y-144500000D01*
D18*
G36*
X199340000Y-149340000D02*
G01*
X100660000Y-149340000D01*
X100660000Y-146700881D01*
X103478724Y-146700881D01*
X103838912Y-147190548D01*
X104502882Y-147550849D01*
X105224385Y-147774694D01*
X105975695Y-147853480D01*
X106727938Y-147784178D01*
X107452208Y-147569452D01*
X108120670Y-147217555D01*
X108161088Y-147190548D01*
X108521276Y-146700881D01*
X191478724Y-146700881D01*
X191838912Y-147190548D01*
X192502882Y-147550849D01*
X193224385Y-147774694D01*
X193975695Y-147853480D01*
X194727938Y-147784178D01*
X195452208Y-147569452D01*
X196120670Y-147217555D01*
X196161088Y-147190548D01*
X196521276Y-146700881D01*
X194000000Y-144179605D01*
X191478724Y-146700881D01*
X108521276Y-146700881D01*
X106000000Y-144179605D01*
X103478724Y-146700881D01*
X100660000Y-146700881D01*
X100660000Y-143975695D01*
X102146520Y-143975695D01*
X102215822Y-144727938D01*
X102430548Y-145452208D01*
X102782445Y-146120670D01*
X102809452Y-146161088D01*
X103299119Y-146521276D01*
X105820395Y-144000000D01*
X106179605Y-144000000D01*
X108700881Y-146521276D01*
X109190548Y-146161088D01*
X109550849Y-145497118D01*
X109774694Y-144775615D01*
X109797032Y-144562595D01*
X112358282Y-144562595D01*
X112402039Y-144881675D01*
X112507205Y-145186088D01*
X112600186Y-145360044D01*
X112864587Y-145455808D01*
X113365000Y-144955395D01*
X113365000Y-145314605D01*
X113044192Y-145635413D01*
X113139956Y-145899814D01*
X113429571Y-146040704D01*
X113741108Y-146122384D01*
X114062595Y-146141718D01*
X114111583Y-146135000D01*
X175919681Y-146135000D01*
X176000000Y-146142911D01*
X176080319Y-146135000D01*
X176080322Y-146135000D01*
X176320516Y-146111343D01*
X176628715Y-146017852D01*
X176912752Y-145866031D01*
X177161714Y-145661714D01*
X177212925Y-145599313D01*
X178836543Y-143975695D01*
X190146520Y-143975695D01*
X190215822Y-144727938D01*
X190430548Y-145452208D01*
X190782445Y-146120670D01*
X190809452Y-146161088D01*
X191299119Y-146521276D01*
X193820395Y-144000000D01*
X194179605Y-144000000D01*
X196700881Y-146521276D01*
X197190548Y-146161088D01*
X197550849Y-145497118D01*
X197774694Y-144775615D01*
X197853480Y-144024305D01*
X197784178Y-143272062D01*
X197569452Y-142547792D01*
X197217555Y-141879330D01*
X197190548Y-141838912D01*
X196700881Y-141478724D01*
X194179605Y-144000000D01*
X193820395Y-144000000D01*
X191299119Y-141478724D01*
X190809452Y-141838912D01*
X190449151Y-142502882D01*
X190225306Y-143224385D01*
X190146520Y-143975695D01*
X178836543Y-143975695D01*
X181513119Y-141299119D01*
X191478724Y-141299119D01*
X194000000Y-143820395D01*
X196521276Y-141299119D01*
X196161088Y-140809452D01*
X195497118Y-140449151D01*
X194775615Y-140225306D01*
X194024305Y-140146520D01*
X193272062Y-140215822D01*
X192547792Y-140430548D01*
X191879330Y-140782445D01*
X191838912Y-140809452D01*
X191478724Y-141299119D01*
X181513119Y-141299119D01*
X187099324Y-135712916D01*
X187161714Y-135661714D01*
X187366031Y-135412752D01*
X187517852Y-135128715D01*
X187594471Y-134876136D01*
X187611343Y-134820517D01*
X187642911Y-134500000D01*
X187635000Y-134419678D01*
X187635000Y-121132900D01*
X187713224Y-120875032D01*
X187742282Y-120580000D01*
X187713224Y-120284968D01*
X187627166Y-120001275D01*
X187487417Y-119739821D01*
X187299345Y-119510655D01*
X187070179Y-119322583D01*
X187046638Y-119310000D01*
X187070179Y-119297417D01*
X187299345Y-119109345D01*
X187487417Y-118880179D01*
X187627166Y-118618725D01*
X187713224Y-118335032D01*
X187742282Y-118040000D01*
X187713224Y-117744968D01*
X187627166Y-117461275D01*
X187487417Y-117199821D01*
X187299345Y-116970655D01*
X187233886Y-116916934D01*
X187343387Y-116858405D01*
X187477962Y-116747962D01*
X187588405Y-116613387D01*
X187670472Y-116459851D01*
X187721008Y-116293255D01*
X187738072Y-116120001D01*
X187738072Y-114879999D01*
X187721008Y-114706745D01*
X187670472Y-114540149D01*
X187588405Y-114386613D01*
X187477962Y-114252038D01*
X187343387Y-114141595D01*
X187189851Y-114059528D01*
X187023255Y-114008992D01*
X186850001Y-113991928D01*
X185149999Y-113991928D01*
X184976745Y-114008992D01*
X184810149Y-114059528D01*
X184656613Y-114141595D01*
X184522038Y-114252038D01*
X184411595Y-114386613D01*
X184329528Y-114540149D01*
X184278992Y-114706745D01*
X184261928Y-114879999D01*
X184261928Y-116120001D01*
X184278992Y-116293255D01*
X184329528Y-116459851D01*
X184411595Y-116613387D01*
X184522038Y-116747962D01*
X184656613Y-116858405D01*
X184766114Y-116916934D01*
X184700655Y-116970655D01*
X184512583Y-117199821D01*
X184372834Y-117461275D01*
X184286776Y-117744968D01*
X184257718Y-118040000D01*
X184286776Y-118335032D01*
X184372834Y-118618725D01*
X184512583Y-118880179D01*
X184700655Y-119109345D01*
X184929821Y-119297417D01*
X184953362Y-119310000D01*
X184929821Y-119322583D01*
X184700655Y-119510655D01*
X184512583Y-119739821D01*
X184372834Y-120001275D01*
X184286776Y-120284968D01*
X184257718Y-120580000D01*
X184286776Y-120875032D01*
X184365000Y-121132900D01*
X184365001Y-133822759D01*
X175322762Y-142865000D01*
X114049112Y-142865000D01*
X113937405Y-142858282D01*
X113618325Y-142902039D01*
X113313912Y-143007205D01*
X113139956Y-143100186D01*
X113044192Y-143364587D01*
X113365000Y-143685395D01*
X113365000Y-144044605D01*
X112864587Y-143544192D01*
X112600186Y-143639956D01*
X112459296Y-143929571D01*
X112377616Y-144241108D01*
X112358282Y-144562595D01*
X109797032Y-144562595D01*
X109853480Y-144024305D01*
X109784178Y-143272062D01*
X109569452Y-142547792D01*
X109217555Y-141879330D01*
X109190548Y-141838912D01*
X108700881Y-141478724D01*
X106179605Y-144000000D01*
X105820395Y-144000000D01*
X103299119Y-141478724D01*
X102809452Y-141838912D01*
X102449151Y-142502882D01*
X102225306Y-143224385D01*
X102146520Y-143975695D01*
X100660000Y-143975695D01*
X100660000Y-141299119D01*
X103478724Y-141299119D01*
X106000000Y-143820395D01*
X108521276Y-141299119D01*
X108161088Y-140809452D01*
X107497118Y-140449151D01*
X106775615Y-140225306D01*
X106024305Y-140146520D01*
X105272062Y-140215822D01*
X104547792Y-140430548D01*
X103879330Y-140782445D01*
X103838912Y-140809452D01*
X103478724Y-141299119D01*
X100660000Y-141299119D01*
X100660000Y-127500000D01*
X109356700Y-127500000D01*
X109361000Y-127543660D01*
X109361001Y-134206330D01*
X109356700Y-134250000D01*
X109373864Y-134424274D01*
X109424698Y-134591852D01*
X109507248Y-134746291D01*
X109572092Y-134825303D01*
X109618342Y-134881659D01*
X109652259Y-134909494D01*
X111340506Y-136597742D01*
X111368341Y-136631659D01*
X111503709Y-136742753D01*
X111658149Y-136825303D01*
X111774892Y-136860716D01*
X111825725Y-136876136D01*
X111842325Y-136877771D01*
X111956333Y-136889000D01*
X111956340Y-136889000D01*
X112000000Y-136893300D01*
X112043660Y-136889000D01*
X143456340Y-136889000D01*
X143500000Y-136893300D01*
X143543660Y-136889000D01*
X143543667Y-136889000D01*
X143674274Y-136876136D01*
X143841851Y-136825303D01*
X143996291Y-136742753D01*
X144131659Y-136631659D01*
X144159499Y-136597736D01*
X145909495Y-134847741D01*
X145909500Y-134847734D01*
X146097732Y-134659503D01*
X146131659Y-134631659D01*
X146159499Y-134597736D01*
X148252106Y-132505130D01*
X148301898Y-132495226D01*
X148490256Y-132417205D01*
X148659774Y-132303937D01*
X148803937Y-132159774D01*
X148917205Y-131990256D01*
X148995226Y-131801898D01*
X149035000Y-131601939D01*
X149035000Y-131398061D01*
X148995226Y-131198102D01*
X148917205Y-131009744D01*
X148803937Y-130840226D01*
X148659774Y-130696063D01*
X148490256Y-130582795D01*
X148301898Y-130504774D01*
X148101939Y-130465000D01*
X147898061Y-130465000D01*
X147698102Y-130504774D01*
X147509744Y-130582795D01*
X147340226Y-130696063D01*
X147196063Y-130840226D01*
X147082795Y-131009744D01*
X147004774Y-131198102D01*
X146994870Y-131247894D01*
X146508724Y-131734041D01*
X146535000Y-131601939D01*
X146535000Y-131398061D01*
X146495226Y-131198102D01*
X146417205Y-131009744D01*
X146303937Y-130840226D01*
X146159774Y-130696063D01*
X145990256Y-130582795D01*
X145801898Y-130504774D01*
X145601939Y-130465000D01*
X145398061Y-130465000D01*
X145198102Y-130504774D01*
X145009744Y-130582795D01*
X144840226Y-130696063D01*
X144696063Y-130840226D01*
X144582795Y-131009744D01*
X144504774Y-131198102D01*
X144465000Y-131398061D01*
X144465000Y-131601939D01*
X144504774Y-131801898D01*
X144582795Y-131990256D01*
X144611000Y-132032468D01*
X144611001Y-133631763D01*
X143131765Y-135111000D01*
X112368236Y-135111000D01*
X111139000Y-133881765D01*
X111139000Y-130460000D01*
X112007718Y-130460000D01*
X112036776Y-130755032D01*
X112122834Y-131038725D01*
X112262583Y-131300179D01*
X112450655Y-131529345D01*
X112516114Y-131583066D01*
X112406613Y-131641595D01*
X112272038Y-131752038D01*
X112161595Y-131886613D01*
X112079528Y-132040149D01*
X112028992Y-132206745D01*
X112011928Y-132379999D01*
X112011928Y-133620001D01*
X112028992Y-133793255D01*
X112079528Y-133959851D01*
X112161595Y-134113387D01*
X112272038Y-134247962D01*
X112406613Y-134358405D01*
X112560149Y-134440472D01*
X112726745Y-134491008D01*
X112899999Y-134508072D01*
X114600001Y-134508072D01*
X114773255Y-134491008D01*
X114939851Y-134440472D01*
X115093387Y-134358405D01*
X115227962Y-134247962D01*
X115338405Y-134113387D01*
X115420472Y-133959851D01*
X115471008Y-133793255D01*
X115488072Y-133620001D01*
X115488072Y-132379999D01*
X115471008Y-132206745D01*
X115420472Y-132040149D01*
X115338405Y-131886613D01*
X115227962Y-131752038D01*
X115093387Y-131641595D01*
X114983886Y-131583066D01*
X115049345Y-131529345D01*
X115237417Y-131300179D01*
X115377166Y-131038725D01*
X115463224Y-130755032D01*
X115492282Y-130460000D01*
X115463224Y-130164968D01*
X115377166Y-129881275D01*
X115237417Y-129619821D01*
X115049345Y-129390655D01*
X114820179Y-129202583D01*
X114558725Y-129062834D01*
X114275032Y-128976776D01*
X114053936Y-128955000D01*
X113446064Y-128955000D01*
X113224968Y-128976776D01*
X112941275Y-129062834D01*
X112679821Y-129202583D01*
X112450655Y-129390655D01*
X112262583Y-129619821D01*
X112122834Y-129881275D01*
X112036776Y-130164968D01*
X112007718Y-130460000D01*
X111139000Y-130460000D01*
X111139000Y-127868235D01*
X113618236Y-125389000D01*
X118368151Y-125389000D01*
X118385363Y-125414759D01*
X118585241Y-125614637D01*
X118820273Y-125771680D01*
X119081426Y-125879853D01*
X119358665Y-125935000D01*
X119641335Y-125935000D01*
X119918574Y-125879853D01*
X120179727Y-125771680D01*
X120414759Y-125614637D01*
X120614637Y-125414759D01*
X120771680Y-125179727D01*
X120879853Y-124918574D01*
X120935000Y-124641335D01*
X120935000Y-124358665D01*
X120879853Y-124081426D01*
X120787583Y-123858665D01*
X162565000Y-123858665D01*
X162565000Y-124141335D01*
X162620147Y-124418574D01*
X162728320Y-124679727D01*
X162885363Y-124914759D01*
X163085241Y-125114637D01*
X163320273Y-125271680D01*
X163581426Y-125379853D01*
X163858665Y-125435000D01*
X164141335Y-125435000D01*
X164418574Y-125379853D01*
X164679727Y-125271680D01*
X164914759Y-125114637D01*
X165114637Y-124914759D01*
X165271680Y-124679727D01*
X165379853Y-124418574D01*
X165435000Y-124141335D01*
X165435000Y-123858665D01*
X167565000Y-123858665D01*
X167565000Y-124141335D01*
X167620147Y-124418574D01*
X167728320Y-124679727D01*
X167885363Y-124914759D01*
X168085241Y-125114637D01*
X168320273Y-125271680D01*
X168581426Y-125379853D01*
X168858665Y-125435000D01*
X169141335Y-125435000D01*
X169418574Y-125379853D01*
X169679727Y-125271680D01*
X169914759Y-125114637D01*
X170114637Y-124914759D01*
X170271680Y-124679727D01*
X170379853Y-124418574D01*
X170435000Y-124141335D01*
X170435000Y-123858665D01*
X170379853Y-123581426D01*
X170271680Y-123320273D01*
X170114637Y-123085241D01*
X169914759Y-122885363D01*
X169679727Y-122728320D01*
X169418574Y-122620147D01*
X169141335Y-122565000D01*
X168858665Y-122565000D01*
X168581426Y-122620147D01*
X168320273Y-122728320D01*
X168085241Y-122885363D01*
X167885363Y-123085241D01*
X167728320Y-123320273D01*
X167620147Y-123581426D01*
X167565000Y-123858665D01*
X165435000Y-123858665D01*
X165379853Y-123581426D01*
X165271680Y-123320273D01*
X165114637Y-123085241D01*
X164914759Y-122885363D01*
X164679727Y-122728320D01*
X164418574Y-122620147D01*
X164141335Y-122565000D01*
X163858665Y-122565000D01*
X163581426Y-122620147D01*
X163320273Y-122728320D01*
X163085241Y-122885363D01*
X162885363Y-123085241D01*
X162728320Y-123320273D01*
X162620147Y-123581426D01*
X162565000Y-123858665D01*
X120787583Y-123858665D01*
X120771680Y-123820273D01*
X120614637Y-123585241D01*
X120448057Y-123418661D01*
X120544180Y-123389502D01*
X120654494Y-123330537D01*
X120751185Y-123251185D01*
X120830537Y-123154494D01*
X120889502Y-123044180D01*
X120925812Y-122924482D01*
X120938072Y-122800000D01*
X120935000Y-122285750D01*
X120776250Y-122127000D01*
X119627000Y-122127000D01*
X119627000Y-122147000D01*
X119373000Y-122147000D01*
X119373000Y-122127000D01*
X118223750Y-122127000D01*
X118065000Y-122285750D01*
X118061928Y-122800000D01*
X118074188Y-122924482D01*
X118110498Y-123044180D01*
X118169463Y-123154494D01*
X118248815Y-123251185D01*
X118345506Y-123330537D01*
X118455820Y-123389502D01*
X118551943Y-123418661D01*
X118385363Y-123585241D01*
X118368151Y-123611000D01*
X115088532Y-123611000D01*
X115093387Y-123608405D01*
X115227962Y-123497962D01*
X115338405Y-123363387D01*
X115420472Y-123209851D01*
X115471008Y-123043255D01*
X115488072Y-122870001D01*
X115488072Y-121629999D01*
X115471008Y-121456745D01*
X115420472Y-121290149D01*
X115372287Y-121200000D01*
X118061928Y-121200000D01*
X118065000Y-121714250D01*
X118223750Y-121873000D01*
X119373000Y-121873000D01*
X119373000Y-120723750D01*
X119627000Y-120723750D01*
X119627000Y-121873000D01*
X120776250Y-121873000D01*
X120935000Y-121714250D01*
X120938072Y-121200000D01*
X120925812Y-121075518D01*
X120889502Y-120955820D01*
X120830537Y-120845506D01*
X120751185Y-120748815D01*
X120654494Y-120669463D01*
X120544180Y-120610498D01*
X120424482Y-120574188D01*
X120300000Y-120561928D01*
X119785750Y-120565000D01*
X119627000Y-120723750D01*
X119373000Y-120723750D01*
X119214250Y-120565000D01*
X118700000Y-120561928D01*
X118575518Y-120574188D01*
X118455820Y-120610498D01*
X118345506Y-120669463D01*
X118248815Y-120748815D01*
X118169463Y-120845506D01*
X118110498Y-120955820D01*
X118074188Y-121075518D01*
X118061928Y-121200000D01*
X115372287Y-121200000D01*
X115338405Y-121136613D01*
X115227962Y-121002038D01*
X115093387Y-120891595D01*
X114984686Y-120833493D01*
X115140536Y-120680494D01*
X115307571Y-120435437D01*
X115423588Y-120162502D01*
X115441302Y-120070031D01*
X115320246Y-119837000D01*
X113877000Y-119837000D01*
X113877000Y-119857000D01*
X113623000Y-119857000D01*
X113623000Y-119837000D01*
X112179754Y-119837000D01*
X112058698Y-120070031D01*
X112076412Y-120162502D01*
X112192429Y-120435437D01*
X112359464Y-120680494D01*
X112515314Y-120833493D01*
X112406613Y-120891595D01*
X112272038Y-121002038D01*
X112161595Y-121136613D01*
X112079528Y-121290149D01*
X112028992Y-121456745D01*
X112011928Y-121629999D01*
X112011928Y-122870001D01*
X112028992Y-123043255D01*
X112079528Y-123209851D01*
X112161595Y-123363387D01*
X112272038Y-123497962D01*
X112406613Y-123608405D01*
X112560149Y-123690472D01*
X112726745Y-123741008D01*
X112775167Y-123745777D01*
X112753709Y-123757247D01*
X112618341Y-123868341D01*
X112590506Y-123902258D01*
X109652264Y-126840501D01*
X109618341Y-126868341D01*
X109507247Y-127003710D01*
X109424697Y-127158150D01*
X109373864Y-127325727D01*
X109361000Y-127456334D01*
X109361000Y-127456340D01*
X109356700Y-127500000D01*
X100660000Y-127500000D01*
X100660000Y-117170000D01*
X112007718Y-117170000D01*
X112036776Y-117465032D01*
X112122834Y-117748725D01*
X112262583Y-118010179D01*
X112450655Y-118239345D01*
X112679821Y-118427417D01*
X112707669Y-118442302D01*
X112571097Y-118531744D01*
X112359464Y-118739506D01*
X112192429Y-118984563D01*
X112076412Y-119257498D01*
X112058698Y-119349969D01*
X112179754Y-119583000D01*
X113623000Y-119583000D01*
X113623000Y-119563000D01*
X113877000Y-119563000D01*
X113877000Y-119583000D01*
X115320246Y-119583000D01*
X115441302Y-119349969D01*
X115423588Y-119257498D01*
X115307571Y-118984563D01*
X115140536Y-118739506D01*
X114928903Y-118531744D01*
X114792331Y-118442302D01*
X114820179Y-118427417D01*
X115045254Y-118242702D01*
X118686903Y-118242702D01*
X118758486Y-118486671D01*
X119013996Y-118607571D01*
X119288184Y-118676300D01*
X119570512Y-118690217D01*
X119850130Y-118648787D01*
X120116292Y-118553603D01*
X120241514Y-118486671D01*
X120313097Y-118242702D01*
X119500000Y-117429605D01*
X118686903Y-118242702D01*
X115045254Y-118242702D01*
X115049345Y-118239345D01*
X115237417Y-118010179D01*
X115377166Y-117748725D01*
X115463224Y-117465032D01*
X115477457Y-117320512D01*
X118059783Y-117320512D01*
X118101213Y-117600130D01*
X118196397Y-117866292D01*
X118263329Y-117991514D01*
X118507298Y-118063097D01*
X119320395Y-117250000D01*
X119679605Y-117250000D01*
X120492702Y-118063097D01*
X120736671Y-117991514D01*
X120857571Y-117736004D01*
X120926300Y-117461816D01*
X120940217Y-117179488D01*
X120898787Y-116899870D01*
X120803603Y-116633708D01*
X120736671Y-116508486D01*
X120492702Y-116436903D01*
X119679605Y-117250000D01*
X119320395Y-117250000D01*
X118507298Y-116436903D01*
X118263329Y-116508486D01*
X118142429Y-116763996D01*
X118073700Y-117038184D01*
X118059783Y-117320512D01*
X115477457Y-117320512D01*
X115492282Y-117170000D01*
X115463224Y-116874968D01*
X115377166Y-116591275D01*
X115237417Y-116329821D01*
X115049345Y-116100655D01*
X114820179Y-115912583D01*
X114558725Y-115772834D01*
X114275032Y-115686776D01*
X114053936Y-115665000D01*
X113446064Y-115665000D01*
X113224968Y-115686776D01*
X112941275Y-115772834D01*
X112679821Y-115912583D01*
X112450655Y-116100655D01*
X112262583Y-116329821D01*
X112122834Y-116591275D01*
X112036776Y-116874968D01*
X112007718Y-117170000D01*
X100660000Y-117170000D01*
X100660000Y-106000000D01*
X109606700Y-106000000D01*
X109611000Y-106043660D01*
X109611001Y-111456330D01*
X109606700Y-111500000D01*
X109623864Y-111674274D01*
X109674698Y-111841852D01*
X109724487Y-111935000D01*
X109757248Y-111996291D01*
X109868342Y-112131659D01*
X109902259Y-112159494D01*
X113090506Y-115347742D01*
X113118341Y-115381659D01*
X113253709Y-115492753D01*
X113408149Y-115575303D01*
X113474058Y-115595296D01*
X113575724Y-115626136D01*
X113608924Y-115629406D01*
X113706333Y-115639000D01*
X113706339Y-115639000D01*
X113749999Y-115643300D01*
X113793659Y-115639000D01*
X118070693Y-115639000D01*
X118074188Y-115674482D01*
X118110498Y-115794180D01*
X118169463Y-115904494D01*
X118248815Y-116001185D01*
X118345506Y-116080537D01*
X118455820Y-116139502D01*
X118575518Y-116175812D01*
X118700000Y-116188072D01*
X118707215Y-116188072D01*
X118686903Y-116257298D01*
X119500000Y-117070395D01*
X120313097Y-116257298D01*
X120292785Y-116188072D01*
X120300000Y-116188072D01*
X120424482Y-116175812D01*
X120544180Y-116139502D01*
X120654494Y-116080537D01*
X120751185Y-116001185D01*
X120830537Y-115904494D01*
X120889502Y-115794180D01*
X120925812Y-115674482D01*
X120938072Y-115550000D01*
X120938072Y-113950000D01*
X120925812Y-113825518D01*
X120889502Y-113705820D01*
X120830537Y-113595506D01*
X120751185Y-113498815D01*
X120654494Y-113419463D01*
X120544180Y-113360498D01*
X120424482Y-113324188D01*
X120300000Y-113311928D01*
X118700000Y-113311928D01*
X118575518Y-113324188D01*
X118455820Y-113360498D01*
X118345506Y-113419463D01*
X118248815Y-113498815D01*
X118169463Y-113595506D01*
X118110498Y-113705820D01*
X118074188Y-113825518D01*
X118070693Y-113861000D01*
X114118236Y-113861000D01*
X111389000Y-111131765D01*
X111389000Y-107710000D01*
X112007718Y-107710000D01*
X112036776Y-108005032D01*
X112122834Y-108288725D01*
X112262583Y-108550179D01*
X112450655Y-108779345D01*
X112516114Y-108833066D01*
X112406613Y-108891595D01*
X112272038Y-109002038D01*
X112161595Y-109136613D01*
X112079528Y-109290149D01*
X112028992Y-109456745D01*
X112011928Y-109629999D01*
X112011928Y-110870001D01*
X112028992Y-111043255D01*
X112079528Y-111209851D01*
X112161595Y-111363387D01*
X112272038Y-111497962D01*
X112406613Y-111608405D01*
X112560149Y-111690472D01*
X112726745Y-111741008D01*
X112899999Y-111758072D01*
X114600001Y-111758072D01*
X114773255Y-111741008D01*
X114939851Y-111690472D01*
X115093387Y-111608405D01*
X115227962Y-111497962D01*
X115338405Y-111363387D01*
X115420472Y-111209851D01*
X115471008Y-111043255D01*
X115488072Y-110870001D01*
X115488072Y-110358665D01*
X162565000Y-110358665D01*
X162565000Y-110641335D01*
X162620147Y-110918574D01*
X162728320Y-111179727D01*
X162885363Y-111414759D01*
X163085241Y-111614637D01*
X163320273Y-111771680D01*
X163581426Y-111879853D01*
X163858665Y-111935000D01*
X164141335Y-111935000D01*
X164418574Y-111879853D01*
X164679727Y-111771680D01*
X164914759Y-111614637D01*
X165114637Y-111414759D01*
X165271680Y-111179727D01*
X165379853Y-110918574D01*
X165435000Y-110641335D01*
X165435000Y-110358665D01*
X167565000Y-110358665D01*
X167565000Y-110641335D01*
X167620147Y-110918574D01*
X167728320Y-111179727D01*
X167885363Y-111414759D01*
X168085241Y-111614637D01*
X168320273Y-111771680D01*
X168581426Y-111879853D01*
X168858665Y-111935000D01*
X169141335Y-111935000D01*
X169418574Y-111879853D01*
X169679727Y-111771680D01*
X169914759Y-111614637D01*
X170114637Y-111414759D01*
X170271680Y-111179727D01*
X170379853Y-110918574D01*
X170435000Y-110641335D01*
X170435000Y-110358665D01*
X170379853Y-110081426D01*
X170271680Y-109820273D01*
X170114637Y-109585241D01*
X169914759Y-109385363D01*
X169679727Y-109228320D01*
X169418574Y-109120147D01*
X169141335Y-109065000D01*
X168858665Y-109065000D01*
X168581426Y-109120147D01*
X168320273Y-109228320D01*
X168085241Y-109385363D01*
X167885363Y-109585241D01*
X167728320Y-109820273D01*
X167620147Y-110081426D01*
X167565000Y-110358665D01*
X165435000Y-110358665D01*
X165379853Y-110081426D01*
X165271680Y-109820273D01*
X165114637Y-109585241D01*
X164914759Y-109385363D01*
X164679727Y-109228320D01*
X164418574Y-109120147D01*
X164141335Y-109065000D01*
X163858665Y-109065000D01*
X163581426Y-109120147D01*
X163320273Y-109228320D01*
X163085241Y-109385363D01*
X162885363Y-109585241D01*
X162728320Y-109820273D01*
X162620147Y-110081426D01*
X162565000Y-110358665D01*
X115488072Y-110358665D01*
X115488072Y-109629999D01*
X115471008Y-109456745D01*
X115420472Y-109290149D01*
X115338405Y-109136613D01*
X115227962Y-109002038D01*
X115093387Y-108891595D01*
X114983886Y-108833066D01*
X115049345Y-108779345D01*
X115237417Y-108550179D01*
X115377166Y-108288725D01*
X115463224Y-108005032D01*
X115492282Y-107710000D01*
X115463224Y-107414968D01*
X115377166Y-107131275D01*
X115237417Y-106869821D01*
X115049345Y-106640655D01*
X114820179Y-106452583D01*
X114558725Y-106312834D01*
X114275032Y-106226776D01*
X114053936Y-106205000D01*
X113446064Y-106205000D01*
X113224968Y-106226776D01*
X112941275Y-106312834D01*
X112679821Y-106452583D01*
X112450655Y-106640655D01*
X112262583Y-106869821D01*
X112122834Y-107131275D01*
X112036776Y-107414968D01*
X112007718Y-107710000D01*
X111389000Y-107710000D01*
X111389000Y-106368235D01*
X114368236Y-103389000D01*
X144131765Y-103389000D01*
X144611001Y-103868237D01*
X144611000Y-105967532D01*
X144582795Y-106009744D01*
X144504774Y-106198102D01*
X144465000Y-106398061D01*
X144465000Y-106601939D01*
X144504774Y-106801898D01*
X144582795Y-106990256D01*
X144696063Y-107159774D01*
X144840226Y-107303937D01*
X145009744Y-107417205D01*
X145198102Y-107495226D01*
X145398061Y-107535000D01*
X145601939Y-107535000D01*
X145801898Y-107495226D01*
X145990256Y-107417205D01*
X146159774Y-107303937D01*
X146303937Y-107159774D01*
X146417205Y-106990256D01*
X146495226Y-106801898D01*
X146535000Y-106601939D01*
X146535000Y-106398061D01*
X146495226Y-106198102D01*
X146417205Y-106009744D01*
X146389000Y-105967532D01*
X146389000Y-105646236D01*
X147494870Y-106752106D01*
X147504774Y-106801898D01*
X147582795Y-106990256D01*
X147696063Y-107159774D01*
X147840226Y-107303937D01*
X148009744Y-107417205D01*
X148198102Y-107495226D01*
X148398061Y-107535000D01*
X148601939Y-107535000D01*
X148801898Y-107495226D01*
X148990256Y-107417205D01*
X149159774Y-107303937D01*
X149303937Y-107159774D01*
X149417205Y-106990256D01*
X149495226Y-106801898D01*
X149535000Y-106601939D01*
X149535000Y-106398061D01*
X149495226Y-106198102D01*
X149417205Y-106009744D01*
X149303937Y-105840226D01*
X149159774Y-105696063D01*
X148990256Y-105582795D01*
X148801898Y-105504774D01*
X148752106Y-105494870D01*
X146159499Y-102902264D01*
X146131659Y-102868341D01*
X146097741Y-102840505D01*
X145159499Y-101902264D01*
X145131659Y-101868341D01*
X144996291Y-101757247D01*
X144841851Y-101674697D01*
X144674274Y-101623864D01*
X144543667Y-101611000D01*
X144543660Y-101611000D01*
X144500000Y-101606700D01*
X144456340Y-101611000D01*
X114043659Y-101611000D01*
X113999999Y-101606700D01*
X113956339Y-101611000D01*
X113956333Y-101611000D01*
X113858924Y-101620594D01*
X113825724Y-101623864D01*
X113724058Y-101654704D01*
X113658149Y-101674697D01*
X113503709Y-101757247D01*
X113368341Y-101868341D01*
X113340506Y-101902258D01*
X109902264Y-105340501D01*
X109868341Y-105368341D01*
X109757247Y-105503710D01*
X109674697Y-105658150D01*
X109623864Y-105825727D01*
X109611000Y-105956334D01*
X109611000Y-105956340D01*
X109606700Y-106000000D01*
X100660000Y-106000000D01*
X100660000Y-100660000D01*
X199340001Y-100660000D01*
X199340000Y-149340000D01*
X199340000Y-149340000D01*
G37*
X199340000Y-149340000D02*
X100660000Y-149340000D01*
X100660000Y-146700881D01*
X103478724Y-146700881D01*
X103838912Y-147190548D01*
X104502882Y-147550849D01*
X105224385Y-147774694D01*
X105975695Y-147853480D01*
X106727938Y-147784178D01*
X107452208Y-147569452D01*
X108120670Y-147217555D01*
X108161088Y-147190548D01*
X108521276Y-146700881D01*
X191478724Y-146700881D01*
X191838912Y-147190548D01*
X192502882Y-147550849D01*
X193224385Y-147774694D01*
X193975695Y-147853480D01*
X194727938Y-147784178D01*
X195452208Y-147569452D01*
X196120670Y-147217555D01*
X196161088Y-147190548D01*
X196521276Y-146700881D01*
X194000000Y-144179605D01*
X191478724Y-146700881D01*
X108521276Y-146700881D01*
X106000000Y-144179605D01*
X103478724Y-146700881D01*
X100660000Y-146700881D01*
X100660000Y-143975695D01*
X102146520Y-143975695D01*
X102215822Y-144727938D01*
X102430548Y-145452208D01*
X102782445Y-146120670D01*
X102809452Y-146161088D01*
X103299119Y-146521276D01*
X105820395Y-144000000D01*
X106179605Y-144000000D01*
X108700881Y-146521276D01*
X109190548Y-146161088D01*
X109550849Y-145497118D01*
X109774694Y-144775615D01*
X109797032Y-144562595D01*
X112358282Y-144562595D01*
X112402039Y-144881675D01*
X112507205Y-145186088D01*
X112600186Y-145360044D01*
X112864587Y-145455808D01*
X113365000Y-144955395D01*
X113365000Y-145314605D01*
X113044192Y-145635413D01*
X113139956Y-145899814D01*
X113429571Y-146040704D01*
X113741108Y-146122384D01*
X114062595Y-146141718D01*
X114111583Y-146135000D01*
X175919681Y-146135000D01*
X176000000Y-146142911D01*
X176080319Y-146135000D01*
X176080322Y-146135000D01*
X176320516Y-146111343D01*
X176628715Y-146017852D01*
X176912752Y-145866031D01*
X177161714Y-145661714D01*
X177212925Y-145599313D01*
X178836543Y-143975695D01*
X190146520Y-143975695D01*
X190215822Y-144727938D01*
X190430548Y-145452208D01*
X190782445Y-146120670D01*
X190809452Y-146161088D01*
X191299119Y-146521276D01*
X193820395Y-144000000D01*
X194179605Y-144000000D01*
X196700881Y-146521276D01*
X197190548Y-146161088D01*
X197550849Y-145497118D01*
X197774694Y-144775615D01*
X197853480Y-144024305D01*
X197784178Y-143272062D01*
X197569452Y-142547792D01*
X197217555Y-141879330D01*
X197190548Y-141838912D01*
X196700881Y-141478724D01*
X194179605Y-144000000D01*
X193820395Y-144000000D01*
X191299119Y-141478724D01*
X190809452Y-141838912D01*
X190449151Y-142502882D01*
X190225306Y-143224385D01*
X190146520Y-143975695D01*
X178836543Y-143975695D01*
X181513119Y-141299119D01*
X191478724Y-141299119D01*
X194000000Y-143820395D01*
X196521276Y-141299119D01*
X196161088Y-140809452D01*
X195497118Y-140449151D01*
X194775615Y-140225306D01*
X194024305Y-140146520D01*
X193272062Y-140215822D01*
X192547792Y-140430548D01*
X191879330Y-140782445D01*
X191838912Y-140809452D01*
X191478724Y-141299119D01*
X181513119Y-141299119D01*
X187099324Y-135712916D01*
X187161714Y-135661714D01*
X187366031Y-135412752D01*
X187517852Y-135128715D01*
X187594471Y-134876136D01*
X187611343Y-134820517D01*
X187642911Y-134500000D01*
X187635000Y-134419678D01*
X187635000Y-121132900D01*
X187713224Y-120875032D01*
X187742282Y-120580000D01*
X187713224Y-120284968D01*
X187627166Y-120001275D01*
X187487417Y-119739821D01*
X187299345Y-119510655D01*
X187070179Y-119322583D01*
X187046638Y-119310000D01*
X187070179Y-119297417D01*
X187299345Y-119109345D01*
X187487417Y-118880179D01*
X187627166Y-118618725D01*
X187713224Y-118335032D01*
X187742282Y-118040000D01*
X187713224Y-117744968D01*
X187627166Y-117461275D01*
X187487417Y-117199821D01*
X187299345Y-116970655D01*
X187233886Y-116916934D01*
X187343387Y-116858405D01*
X187477962Y-116747962D01*
X187588405Y-116613387D01*
X187670472Y-116459851D01*
X187721008Y-116293255D01*
X187738072Y-116120001D01*
X187738072Y-114879999D01*
X187721008Y-114706745D01*
X187670472Y-114540149D01*
X187588405Y-114386613D01*
X187477962Y-114252038D01*
X187343387Y-114141595D01*
X187189851Y-114059528D01*
X187023255Y-114008992D01*
X186850001Y-113991928D01*
X185149999Y-113991928D01*
X184976745Y-114008992D01*
X184810149Y-114059528D01*
X184656613Y-114141595D01*
X184522038Y-114252038D01*
X184411595Y-114386613D01*
X184329528Y-114540149D01*
X184278992Y-114706745D01*
X184261928Y-114879999D01*
X184261928Y-116120001D01*
X184278992Y-116293255D01*
X184329528Y-116459851D01*
X184411595Y-116613387D01*
X184522038Y-116747962D01*
X184656613Y-116858405D01*
X184766114Y-116916934D01*
X184700655Y-116970655D01*
X184512583Y-117199821D01*
X184372834Y-117461275D01*
X184286776Y-117744968D01*
X184257718Y-118040000D01*
X184286776Y-118335032D01*
X184372834Y-118618725D01*
X184512583Y-118880179D01*
X184700655Y-119109345D01*
X184929821Y-119297417D01*
X184953362Y-119310000D01*
X184929821Y-119322583D01*
X184700655Y-119510655D01*
X184512583Y-119739821D01*
X184372834Y-120001275D01*
X184286776Y-120284968D01*
X184257718Y-120580000D01*
X184286776Y-120875032D01*
X184365000Y-121132900D01*
X184365001Y-133822759D01*
X175322762Y-142865000D01*
X114049112Y-142865000D01*
X113937405Y-142858282D01*
X113618325Y-142902039D01*
X113313912Y-143007205D01*
X113139956Y-143100186D01*
X113044192Y-143364587D01*
X113365000Y-143685395D01*
X113365000Y-144044605D01*
X112864587Y-143544192D01*
X112600186Y-143639956D01*
X112459296Y-143929571D01*
X112377616Y-144241108D01*
X112358282Y-144562595D01*
X109797032Y-144562595D01*
X109853480Y-144024305D01*
X109784178Y-143272062D01*
X109569452Y-142547792D01*
X109217555Y-141879330D01*
X109190548Y-141838912D01*
X108700881Y-141478724D01*
X106179605Y-144000000D01*
X105820395Y-144000000D01*
X103299119Y-141478724D01*
X102809452Y-141838912D01*
X102449151Y-142502882D01*
X102225306Y-143224385D01*
X102146520Y-143975695D01*
X100660000Y-143975695D01*
X100660000Y-141299119D01*
X103478724Y-141299119D01*
X106000000Y-143820395D01*
X108521276Y-141299119D01*
X108161088Y-140809452D01*
X107497118Y-140449151D01*
X106775615Y-140225306D01*
X106024305Y-140146520D01*
X105272062Y-140215822D01*
X104547792Y-140430548D01*
X103879330Y-140782445D01*
X103838912Y-140809452D01*
X103478724Y-141299119D01*
X100660000Y-141299119D01*
X100660000Y-127500000D01*
X109356700Y-127500000D01*
X109361000Y-127543660D01*
X109361001Y-134206330D01*
X109356700Y-134250000D01*
X109373864Y-134424274D01*
X109424698Y-134591852D01*
X109507248Y-134746291D01*
X109572092Y-134825303D01*
X109618342Y-134881659D01*
X109652259Y-134909494D01*
X111340506Y-136597742D01*
X111368341Y-136631659D01*
X111503709Y-136742753D01*
X111658149Y-136825303D01*
X111774892Y-136860716D01*
X111825725Y-136876136D01*
X111842325Y-136877771D01*
X111956333Y-136889000D01*
X111956340Y-136889000D01*
X112000000Y-136893300D01*
X112043660Y-136889000D01*
X143456340Y-136889000D01*
X143500000Y-136893300D01*
X143543660Y-136889000D01*
X143543667Y-136889000D01*
X143674274Y-136876136D01*
X143841851Y-136825303D01*
X143996291Y-136742753D01*
X144131659Y-136631659D01*
X144159499Y-136597736D01*
X145909495Y-134847741D01*
X145909500Y-134847734D01*
X146097732Y-134659503D01*
X146131659Y-134631659D01*
X146159499Y-134597736D01*
X148252106Y-132505130D01*
X148301898Y-132495226D01*
X148490256Y-132417205D01*
X148659774Y-132303937D01*
X148803937Y-132159774D01*
X148917205Y-131990256D01*
X148995226Y-131801898D01*
X149035000Y-131601939D01*
X149035000Y-131398061D01*
X148995226Y-131198102D01*
X148917205Y-131009744D01*
X148803937Y-130840226D01*
X148659774Y-130696063D01*
X148490256Y-130582795D01*
X148301898Y-130504774D01*
X148101939Y-130465000D01*
X147898061Y-130465000D01*
X147698102Y-130504774D01*
X147509744Y-130582795D01*
X147340226Y-130696063D01*
X147196063Y-130840226D01*
X147082795Y-131009744D01*
X147004774Y-131198102D01*
X146994870Y-131247894D01*
X146508724Y-131734041D01*
X146535000Y-131601939D01*
X146535000Y-131398061D01*
X146495226Y-131198102D01*
X146417205Y-131009744D01*
X146303937Y-130840226D01*
X146159774Y-130696063D01*
X145990256Y-130582795D01*
X145801898Y-130504774D01*
X145601939Y-130465000D01*
X145398061Y-130465000D01*
X145198102Y-130504774D01*
X145009744Y-130582795D01*
X144840226Y-130696063D01*
X144696063Y-130840226D01*
X144582795Y-131009744D01*
X144504774Y-131198102D01*
X144465000Y-131398061D01*
X144465000Y-131601939D01*
X144504774Y-131801898D01*
X144582795Y-131990256D01*
X144611000Y-132032468D01*
X144611001Y-133631763D01*
X143131765Y-135111000D01*
X112368236Y-135111000D01*
X111139000Y-133881765D01*
X111139000Y-130460000D01*
X112007718Y-130460000D01*
X112036776Y-130755032D01*
X112122834Y-131038725D01*
X112262583Y-131300179D01*
X112450655Y-131529345D01*
X112516114Y-131583066D01*
X112406613Y-131641595D01*
X112272038Y-131752038D01*
X112161595Y-131886613D01*
X112079528Y-132040149D01*
X112028992Y-132206745D01*
X112011928Y-132379999D01*
X112011928Y-133620001D01*
X112028992Y-133793255D01*
X112079528Y-133959851D01*
X112161595Y-134113387D01*
X112272038Y-134247962D01*
X112406613Y-134358405D01*
X112560149Y-134440472D01*
X112726745Y-134491008D01*
X112899999Y-134508072D01*
X114600001Y-134508072D01*
X114773255Y-134491008D01*
X114939851Y-134440472D01*
X115093387Y-134358405D01*
X115227962Y-134247962D01*
X115338405Y-134113387D01*
X115420472Y-133959851D01*
X115471008Y-133793255D01*
X115488072Y-133620001D01*
X115488072Y-132379999D01*
X115471008Y-132206745D01*
X115420472Y-132040149D01*
X115338405Y-131886613D01*
X115227962Y-131752038D01*
X115093387Y-131641595D01*
X114983886Y-131583066D01*
X115049345Y-131529345D01*
X115237417Y-131300179D01*
X115377166Y-131038725D01*
X115463224Y-130755032D01*
X115492282Y-130460000D01*
X115463224Y-130164968D01*
X115377166Y-129881275D01*
X115237417Y-129619821D01*
X115049345Y-129390655D01*
X114820179Y-129202583D01*
X114558725Y-129062834D01*
X114275032Y-128976776D01*
X114053936Y-128955000D01*
X113446064Y-128955000D01*
X113224968Y-128976776D01*
X112941275Y-129062834D01*
X112679821Y-129202583D01*
X112450655Y-129390655D01*
X112262583Y-129619821D01*
X112122834Y-129881275D01*
X112036776Y-130164968D01*
X112007718Y-130460000D01*
X111139000Y-130460000D01*
X111139000Y-127868235D01*
X113618236Y-125389000D01*
X118368151Y-125389000D01*
X118385363Y-125414759D01*
X118585241Y-125614637D01*
X118820273Y-125771680D01*
X119081426Y-125879853D01*
X119358665Y-125935000D01*
X119641335Y-125935000D01*
X119918574Y-125879853D01*
X120179727Y-125771680D01*
X120414759Y-125614637D01*
X120614637Y-125414759D01*
X120771680Y-125179727D01*
X120879853Y-124918574D01*
X120935000Y-124641335D01*
X120935000Y-124358665D01*
X120879853Y-124081426D01*
X120787583Y-123858665D01*
X162565000Y-123858665D01*
X162565000Y-124141335D01*
X162620147Y-124418574D01*
X162728320Y-124679727D01*
X162885363Y-124914759D01*
X163085241Y-125114637D01*
X163320273Y-125271680D01*
X163581426Y-125379853D01*
X163858665Y-125435000D01*
X164141335Y-125435000D01*
X164418574Y-125379853D01*
X164679727Y-125271680D01*
X164914759Y-125114637D01*
X165114637Y-124914759D01*
X165271680Y-124679727D01*
X165379853Y-124418574D01*
X165435000Y-124141335D01*
X165435000Y-123858665D01*
X167565000Y-123858665D01*
X167565000Y-124141335D01*
X167620147Y-124418574D01*
X167728320Y-124679727D01*
X167885363Y-124914759D01*
X168085241Y-125114637D01*
X168320273Y-125271680D01*
X168581426Y-125379853D01*
X168858665Y-125435000D01*
X169141335Y-125435000D01*
X169418574Y-125379853D01*
X169679727Y-125271680D01*
X169914759Y-125114637D01*
X170114637Y-124914759D01*
X170271680Y-124679727D01*
X170379853Y-124418574D01*
X170435000Y-124141335D01*
X170435000Y-123858665D01*
X170379853Y-123581426D01*
X170271680Y-123320273D01*
X170114637Y-123085241D01*
X169914759Y-122885363D01*
X169679727Y-122728320D01*
X169418574Y-122620147D01*
X169141335Y-122565000D01*
X168858665Y-122565000D01*
X168581426Y-122620147D01*
X168320273Y-122728320D01*
X168085241Y-122885363D01*
X167885363Y-123085241D01*
X167728320Y-123320273D01*
X167620147Y-123581426D01*
X167565000Y-123858665D01*
X165435000Y-123858665D01*
X165379853Y-123581426D01*
X165271680Y-123320273D01*
X165114637Y-123085241D01*
X164914759Y-122885363D01*
X164679727Y-122728320D01*
X164418574Y-122620147D01*
X164141335Y-122565000D01*
X163858665Y-122565000D01*
X163581426Y-122620147D01*
X163320273Y-122728320D01*
X163085241Y-122885363D01*
X162885363Y-123085241D01*
X162728320Y-123320273D01*
X162620147Y-123581426D01*
X162565000Y-123858665D01*
X120787583Y-123858665D01*
X120771680Y-123820273D01*
X120614637Y-123585241D01*
X120448057Y-123418661D01*
X120544180Y-123389502D01*
X120654494Y-123330537D01*
X120751185Y-123251185D01*
X120830537Y-123154494D01*
X120889502Y-123044180D01*
X120925812Y-122924482D01*
X120938072Y-122800000D01*
X120935000Y-122285750D01*
X120776250Y-122127000D01*
X119627000Y-122127000D01*
X119627000Y-122147000D01*
X119373000Y-122147000D01*
X119373000Y-122127000D01*
X118223750Y-122127000D01*
X118065000Y-122285750D01*
X118061928Y-122800000D01*
X118074188Y-122924482D01*
X118110498Y-123044180D01*
X118169463Y-123154494D01*
X118248815Y-123251185D01*
X118345506Y-123330537D01*
X118455820Y-123389502D01*
X118551943Y-123418661D01*
X118385363Y-123585241D01*
X118368151Y-123611000D01*
X115088532Y-123611000D01*
X115093387Y-123608405D01*
X115227962Y-123497962D01*
X115338405Y-123363387D01*
X115420472Y-123209851D01*
X115471008Y-123043255D01*
X115488072Y-122870001D01*
X115488072Y-121629999D01*
X115471008Y-121456745D01*
X115420472Y-121290149D01*
X115372287Y-121200000D01*
X118061928Y-121200000D01*
X118065000Y-121714250D01*
X118223750Y-121873000D01*
X119373000Y-121873000D01*
X119373000Y-120723750D01*
X119627000Y-120723750D01*
X119627000Y-121873000D01*
X120776250Y-121873000D01*
X120935000Y-121714250D01*
X120938072Y-121200000D01*
X120925812Y-121075518D01*
X120889502Y-120955820D01*
X120830537Y-120845506D01*
X120751185Y-120748815D01*
X120654494Y-120669463D01*
X120544180Y-120610498D01*
X120424482Y-120574188D01*
X120300000Y-120561928D01*
X119785750Y-120565000D01*
X119627000Y-120723750D01*
X119373000Y-120723750D01*
X119214250Y-120565000D01*
X118700000Y-120561928D01*
X118575518Y-120574188D01*
X118455820Y-120610498D01*
X118345506Y-120669463D01*
X118248815Y-120748815D01*
X118169463Y-120845506D01*
X118110498Y-120955820D01*
X118074188Y-121075518D01*
X118061928Y-121200000D01*
X115372287Y-121200000D01*
X115338405Y-121136613D01*
X115227962Y-121002038D01*
X115093387Y-120891595D01*
X114984686Y-120833493D01*
X115140536Y-120680494D01*
X115307571Y-120435437D01*
X115423588Y-120162502D01*
X115441302Y-120070031D01*
X115320246Y-119837000D01*
X113877000Y-119837000D01*
X113877000Y-119857000D01*
X113623000Y-119857000D01*
X113623000Y-119837000D01*
X112179754Y-119837000D01*
X112058698Y-120070031D01*
X112076412Y-120162502D01*
X112192429Y-120435437D01*
X112359464Y-120680494D01*
X112515314Y-120833493D01*
X112406613Y-120891595D01*
X112272038Y-121002038D01*
X112161595Y-121136613D01*
X112079528Y-121290149D01*
X112028992Y-121456745D01*
X112011928Y-121629999D01*
X112011928Y-122870001D01*
X112028992Y-123043255D01*
X112079528Y-123209851D01*
X112161595Y-123363387D01*
X112272038Y-123497962D01*
X112406613Y-123608405D01*
X112560149Y-123690472D01*
X112726745Y-123741008D01*
X112775167Y-123745777D01*
X112753709Y-123757247D01*
X112618341Y-123868341D01*
X112590506Y-123902258D01*
X109652264Y-126840501D01*
X109618341Y-126868341D01*
X109507247Y-127003710D01*
X109424697Y-127158150D01*
X109373864Y-127325727D01*
X109361000Y-127456334D01*
X109361000Y-127456340D01*
X109356700Y-127500000D01*
X100660000Y-127500000D01*
X100660000Y-117170000D01*
X112007718Y-117170000D01*
X112036776Y-117465032D01*
X112122834Y-117748725D01*
X112262583Y-118010179D01*
X112450655Y-118239345D01*
X112679821Y-118427417D01*
X112707669Y-118442302D01*
X112571097Y-118531744D01*
X112359464Y-118739506D01*
X112192429Y-118984563D01*
X112076412Y-119257498D01*
X112058698Y-119349969D01*
X112179754Y-119583000D01*
X113623000Y-119583000D01*
X113623000Y-119563000D01*
X113877000Y-119563000D01*
X113877000Y-119583000D01*
X115320246Y-119583000D01*
X115441302Y-119349969D01*
X115423588Y-119257498D01*
X115307571Y-118984563D01*
X115140536Y-118739506D01*
X114928903Y-118531744D01*
X114792331Y-118442302D01*
X114820179Y-118427417D01*
X115045254Y-118242702D01*
X118686903Y-118242702D01*
X118758486Y-118486671D01*
X119013996Y-118607571D01*
X119288184Y-118676300D01*
X119570512Y-118690217D01*
X119850130Y-118648787D01*
X120116292Y-118553603D01*
X120241514Y-118486671D01*
X120313097Y-118242702D01*
X119500000Y-117429605D01*
X118686903Y-118242702D01*
X115045254Y-118242702D01*
X115049345Y-118239345D01*
X115237417Y-118010179D01*
X115377166Y-117748725D01*
X115463224Y-117465032D01*
X115477457Y-117320512D01*
X118059783Y-117320512D01*
X118101213Y-117600130D01*
X118196397Y-117866292D01*
X118263329Y-117991514D01*
X118507298Y-118063097D01*
X119320395Y-117250000D01*
X119679605Y-117250000D01*
X120492702Y-118063097D01*
X120736671Y-117991514D01*
X120857571Y-117736004D01*
X120926300Y-117461816D01*
X120940217Y-117179488D01*
X120898787Y-116899870D01*
X120803603Y-116633708D01*
X120736671Y-116508486D01*
X120492702Y-116436903D01*
X119679605Y-117250000D01*
X119320395Y-117250000D01*
X118507298Y-116436903D01*
X118263329Y-116508486D01*
X118142429Y-116763996D01*
X118073700Y-117038184D01*
X118059783Y-117320512D01*
X115477457Y-117320512D01*
X115492282Y-117170000D01*
X115463224Y-116874968D01*
X115377166Y-116591275D01*
X115237417Y-116329821D01*
X115049345Y-116100655D01*
X114820179Y-115912583D01*
X114558725Y-115772834D01*
X114275032Y-115686776D01*
X114053936Y-115665000D01*
X113446064Y-115665000D01*
X113224968Y-115686776D01*
X112941275Y-115772834D01*
X112679821Y-115912583D01*
X112450655Y-116100655D01*
X112262583Y-116329821D01*
X112122834Y-116591275D01*
X112036776Y-116874968D01*
X112007718Y-117170000D01*
X100660000Y-117170000D01*
X100660000Y-106000000D01*
X109606700Y-106000000D01*
X109611000Y-106043660D01*
X109611001Y-111456330D01*
X109606700Y-111500000D01*
X109623864Y-111674274D01*
X109674698Y-111841852D01*
X109724487Y-111935000D01*
X109757248Y-111996291D01*
X109868342Y-112131659D01*
X109902259Y-112159494D01*
X113090506Y-115347742D01*
X113118341Y-115381659D01*
X113253709Y-115492753D01*
X113408149Y-115575303D01*
X113474058Y-115595296D01*
X113575724Y-115626136D01*
X113608924Y-115629406D01*
X113706333Y-115639000D01*
X113706339Y-115639000D01*
X113749999Y-115643300D01*
X113793659Y-115639000D01*
X118070693Y-115639000D01*
X118074188Y-115674482D01*
X118110498Y-115794180D01*
X118169463Y-115904494D01*
X118248815Y-116001185D01*
X118345506Y-116080537D01*
X118455820Y-116139502D01*
X118575518Y-116175812D01*
X118700000Y-116188072D01*
X118707215Y-116188072D01*
X118686903Y-116257298D01*
X119500000Y-117070395D01*
X120313097Y-116257298D01*
X120292785Y-116188072D01*
X120300000Y-116188072D01*
X120424482Y-116175812D01*
X120544180Y-116139502D01*
X120654494Y-116080537D01*
X120751185Y-116001185D01*
X120830537Y-115904494D01*
X120889502Y-115794180D01*
X120925812Y-115674482D01*
X120938072Y-115550000D01*
X120938072Y-113950000D01*
X120925812Y-113825518D01*
X120889502Y-113705820D01*
X120830537Y-113595506D01*
X120751185Y-113498815D01*
X120654494Y-113419463D01*
X120544180Y-113360498D01*
X120424482Y-113324188D01*
X120300000Y-113311928D01*
X118700000Y-113311928D01*
X118575518Y-113324188D01*
X118455820Y-113360498D01*
X118345506Y-113419463D01*
X118248815Y-113498815D01*
X118169463Y-113595506D01*
X118110498Y-113705820D01*
X118074188Y-113825518D01*
X118070693Y-113861000D01*
X114118236Y-113861000D01*
X111389000Y-111131765D01*
X111389000Y-107710000D01*
X112007718Y-107710000D01*
X112036776Y-108005032D01*
X112122834Y-108288725D01*
X112262583Y-108550179D01*
X112450655Y-108779345D01*
X112516114Y-108833066D01*
X112406613Y-108891595D01*
X112272038Y-109002038D01*
X112161595Y-109136613D01*
X112079528Y-109290149D01*
X112028992Y-109456745D01*
X112011928Y-109629999D01*
X112011928Y-110870001D01*
X112028992Y-111043255D01*
X112079528Y-111209851D01*
X112161595Y-111363387D01*
X112272038Y-111497962D01*
X112406613Y-111608405D01*
X112560149Y-111690472D01*
X112726745Y-111741008D01*
X112899999Y-111758072D01*
X114600001Y-111758072D01*
X114773255Y-111741008D01*
X114939851Y-111690472D01*
X115093387Y-111608405D01*
X115227962Y-111497962D01*
X115338405Y-111363387D01*
X115420472Y-111209851D01*
X115471008Y-111043255D01*
X115488072Y-110870001D01*
X115488072Y-110358665D01*
X162565000Y-110358665D01*
X162565000Y-110641335D01*
X162620147Y-110918574D01*
X162728320Y-111179727D01*
X162885363Y-111414759D01*
X163085241Y-111614637D01*
X163320273Y-111771680D01*
X163581426Y-111879853D01*
X163858665Y-111935000D01*
X164141335Y-111935000D01*
X164418574Y-111879853D01*
X164679727Y-111771680D01*
X164914759Y-111614637D01*
X165114637Y-111414759D01*
X165271680Y-111179727D01*
X165379853Y-110918574D01*
X165435000Y-110641335D01*
X165435000Y-110358665D01*
X167565000Y-110358665D01*
X167565000Y-110641335D01*
X167620147Y-110918574D01*
X167728320Y-111179727D01*
X167885363Y-111414759D01*
X168085241Y-111614637D01*
X168320273Y-111771680D01*
X168581426Y-111879853D01*
X168858665Y-111935000D01*
X169141335Y-111935000D01*
X169418574Y-111879853D01*
X169679727Y-111771680D01*
X169914759Y-111614637D01*
X170114637Y-111414759D01*
X170271680Y-111179727D01*
X170379853Y-110918574D01*
X170435000Y-110641335D01*
X170435000Y-110358665D01*
X170379853Y-110081426D01*
X170271680Y-109820273D01*
X170114637Y-109585241D01*
X169914759Y-109385363D01*
X169679727Y-109228320D01*
X169418574Y-109120147D01*
X169141335Y-109065000D01*
X168858665Y-109065000D01*
X168581426Y-109120147D01*
X168320273Y-109228320D01*
X168085241Y-109385363D01*
X167885363Y-109585241D01*
X167728320Y-109820273D01*
X167620147Y-110081426D01*
X167565000Y-110358665D01*
X165435000Y-110358665D01*
X165379853Y-110081426D01*
X165271680Y-109820273D01*
X165114637Y-109585241D01*
X164914759Y-109385363D01*
X164679727Y-109228320D01*
X164418574Y-109120147D01*
X164141335Y-109065000D01*
X163858665Y-109065000D01*
X163581426Y-109120147D01*
X163320273Y-109228320D01*
X163085241Y-109385363D01*
X162885363Y-109585241D01*
X162728320Y-109820273D01*
X162620147Y-110081426D01*
X162565000Y-110358665D01*
X115488072Y-110358665D01*
X115488072Y-109629999D01*
X115471008Y-109456745D01*
X115420472Y-109290149D01*
X115338405Y-109136613D01*
X115227962Y-109002038D01*
X115093387Y-108891595D01*
X114983886Y-108833066D01*
X115049345Y-108779345D01*
X115237417Y-108550179D01*
X115377166Y-108288725D01*
X115463224Y-108005032D01*
X115492282Y-107710000D01*
X115463224Y-107414968D01*
X115377166Y-107131275D01*
X115237417Y-106869821D01*
X115049345Y-106640655D01*
X114820179Y-106452583D01*
X114558725Y-106312834D01*
X114275032Y-106226776D01*
X114053936Y-106205000D01*
X113446064Y-106205000D01*
X113224968Y-106226776D01*
X112941275Y-106312834D01*
X112679821Y-106452583D01*
X112450655Y-106640655D01*
X112262583Y-106869821D01*
X112122834Y-107131275D01*
X112036776Y-107414968D01*
X112007718Y-107710000D01*
X111389000Y-107710000D01*
X111389000Y-106368235D01*
X114368236Y-103389000D01*
X144131765Y-103389000D01*
X144611001Y-103868237D01*
X144611000Y-105967532D01*
X144582795Y-106009744D01*
X144504774Y-106198102D01*
X144465000Y-106398061D01*
X144465000Y-106601939D01*
X144504774Y-106801898D01*
X144582795Y-106990256D01*
X144696063Y-107159774D01*
X144840226Y-107303937D01*
X145009744Y-107417205D01*
X145198102Y-107495226D01*
X145398061Y-107535000D01*
X145601939Y-107535000D01*
X145801898Y-107495226D01*
X145990256Y-107417205D01*
X146159774Y-107303937D01*
X146303937Y-107159774D01*
X146417205Y-106990256D01*
X146495226Y-106801898D01*
X146535000Y-106601939D01*
X146535000Y-106398061D01*
X146495226Y-106198102D01*
X146417205Y-106009744D01*
X146389000Y-105967532D01*
X146389000Y-105646236D01*
X147494870Y-106752106D01*
X147504774Y-106801898D01*
X147582795Y-106990256D01*
X147696063Y-107159774D01*
X147840226Y-107303937D01*
X148009744Y-107417205D01*
X148198102Y-107495226D01*
X148398061Y-107535000D01*
X148601939Y-107535000D01*
X148801898Y-107495226D01*
X148990256Y-107417205D01*
X149159774Y-107303937D01*
X149303937Y-107159774D01*
X149417205Y-106990256D01*
X149495226Y-106801898D01*
X149535000Y-106601939D01*
X149535000Y-106398061D01*
X149495226Y-106198102D01*
X149417205Y-106009744D01*
X149303937Y-105840226D01*
X149159774Y-105696063D01*
X148990256Y-105582795D01*
X148801898Y-105504774D01*
X148752106Y-105494870D01*
X146159499Y-102902264D01*
X146131659Y-102868341D01*
X146097741Y-102840505D01*
X145159499Y-101902264D01*
X145131659Y-101868341D01*
X144996291Y-101757247D01*
X144841851Y-101674697D01*
X144674274Y-101623864D01*
X144543667Y-101611000D01*
X144543660Y-101611000D01*
X144500000Y-101606700D01*
X144456340Y-101611000D01*
X114043659Y-101611000D01*
X113999999Y-101606700D01*
X113956339Y-101611000D01*
X113956333Y-101611000D01*
X113858924Y-101620594D01*
X113825724Y-101623864D01*
X113724058Y-101654704D01*
X113658149Y-101674697D01*
X113503709Y-101757247D01*
X113368341Y-101868341D01*
X113340506Y-101902258D01*
X109902264Y-105340501D01*
X109868341Y-105368341D01*
X109757247Y-105503710D01*
X109674697Y-105658150D01*
X109623864Y-105825727D01*
X109611000Y-105956334D01*
X109611000Y-105956340D01*
X109606700Y-106000000D01*
X100660000Y-106000000D01*
X100660000Y-100660000D01*
X199340001Y-100660000D01*
X199340000Y-149340000D01*
M02*
