G04 #@! TF.GenerationSoftware,KiCad,Pcbnew,5.1.5*
G04 #@! TF.CreationDate,2019-12-15T20:35:18-05:00*
G04 #@! TF.ProjectId,input_output_board,696e7075-745f-46f7-9574-7075745f626f,1*
G04 #@! TF.SameCoordinates,Original*
G04 #@! TF.FileFunction,Copper,L2,Bot*
G04 #@! TF.FilePolarity,Positive*
%FSLAX46Y46*%
G04 Gerber Fmt 4.6, Leading zero omitted, Abs format (unit mm)*
G04 Created by KiCad (PCBNEW 5.1.5) date 2019-12-15 20:35:18*
%MOMM*%
%LPD*%
G04 APERTURE LIST*
%ADD10O,1.740000X2.140000*%
%ADD11C,0.100000*%
%ADD12C,3.000000*%
%ADD13C,3.400000*%
%ADD14C,2.700000*%
%ADD15C,2.500000*%
%ADD16O,1.740000X2.200000*%
%ADD17C,0.800000*%
%ADD18C,0.254000*%
G04 APERTURE END LIST*
D10*
X160840000Y-143540000D03*
X160840000Y-141000000D03*
X163380000Y-143540000D03*
X163380000Y-141000000D03*
X165920000Y-143540000D03*
X165920000Y-141000000D03*
X168460000Y-143540000D03*
X168460000Y-141000000D03*
X171000000Y-143540000D03*
G04 #@! TA.AperFunction,ComponentPad*
D11*
G36*
X171477637Y-139932095D02*
G01*
X171519864Y-139938358D01*
X171561274Y-139948731D01*
X171601467Y-139963112D01*
X171640058Y-139981364D01*
X171676673Y-140003311D01*
X171710961Y-140028740D01*
X171742591Y-140057409D01*
X171771260Y-140089039D01*
X171796689Y-140123327D01*
X171818636Y-140159942D01*
X171836888Y-140198533D01*
X171851269Y-140238726D01*
X171861642Y-140280136D01*
X171867905Y-140322363D01*
X171870000Y-140365000D01*
X171870000Y-141635000D01*
X171867905Y-141677637D01*
X171861642Y-141719864D01*
X171851269Y-141761274D01*
X171836888Y-141801467D01*
X171818636Y-141840058D01*
X171796689Y-141876673D01*
X171771260Y-141910961D01*
X171742591Y-141942591D01*
X171710961Y-141971260D01*
X171676673Y-141996689D01*
X171640058Y-142018636D01*
X171601467Y-142036888D01*
X171561274Y-142051269D01*
X171519864Y-142061642D01*
X171477637Y-142067905D01*
X171435000Y-142070000D01*
X170565000Y-142070000D01*
X170522363Y-142067905D01*
X170480136Y-142061642D01*
X170438726Y-142051269D01*
X170398533Y-142036888D01*
X170359942Y-142018636D01*
X170323327Y-141996689D01*
X170289039Y-141971260D01*
X170257409Y-141942591D01*
X170228740Y-141910961D01*
X170203311Y-141876673D01*
X170181364Y-141840058D01*
X170163112Y-141801467D01*
X170148731Y-141761274D01*
X170138358Y-141719864D01*
X170132095Y-141677637D01*
X170130000Y-141635000D01*
X170130000Y-140365000D01*
X170132095Y-140322363D01*
X170138358Y-140280136D01*
X170148731Y-140238726D01*
X170163112Y-140198533D01*
X170181364Y-140159942D01*
X170203311Y-140123327D01*
X170228740Y-140089039D01*
X170257409Y-140057409D01*
X170289039Y-140028740D01*
X170323327Y-140003311D01*
X170359942Y-139981364D01*
X170398533Y-139963112D01*
X170438726Y-139948731D01*
X170480136Y-139938358D01*
X170522363Y-139932095D01*
X170565000Y-139930000D01*
X171435000Y-139930000D01*
X171477637Y-139932095D01*
G37*
G04 #@! TD.AperFunction*
D12*
X183985000Y-112285000D03*
X183985000Y-117365000D03*
D13*
X187795000Y-117365000D03*
X180175000Y-117365000D03*
D12*
X145730000Y-106570000D03*
D13*
X149540000Y-115460000D03*
X158430000Y-115460000D03*
D14*
X156842500Y-122445000D03*
D15*
X151127500Y-122445000D03*
D14*
X153985000Y-123080000D03*
D12*
X160970000Y-118635000D03*
X147000000Y-118000000D03*
X115730000Y-106570000D03*
D13*
X119540000Y-115460000D03*
X128430000Y-115460000D03*
D14*
X126842500Y-122445000D03*
D15*
X121127500Y-122445000D03*
D14*
X123985000Y-123080000D03*
D12*
X130970000Y-118635000D03*
X117000000Y-118000000D03*
X85730000Y-106570000D03*
D13*
X89540000Y-115460000D03*
X98430000Y-115460000D03*
D14*
X96842500Y-122445000D03*
D15*
X91127500Y-122445000D03*
D14*
X93985000Y-123080000D03*
D12*
X100970000Y-118635000D03*
X87000000Y-118000000D03*
X55730000Y-106570000D03*
D13*
X59540000Y-115460000D03*
X68430000Y-115460000D03*
D14*
X66842500Y-122445000D03*
D15*
X61127500Y-122445000D03*
D14*
X63985000Y-123080000D03*
D12*
X70970000Y-118635000D03*
X57000000Y-118000000D03*
D16*
X193460000Y-140000000D03*
G04 #@! TA.AperFunction,ComponentPad*
D11*
G36*
X196644505Y-138901204D02*
G01*
X196668773Y-138904804D01*
X196692572Y-138910765D01*
X196715671Y-138919030D01*
X196737850Y-138929520D01*
X196758893Y-138942132D01*
X196778599Y-138956747D01*
X196796777Y-138973223D01*
X196813253Y-138991401D01*
X196827868Y-139011107D01*
X196840480Y-139032150D01*
X196850970Y-139054329D01*
X196859235Y-139077428D01*
X196865196Y-139101227D01*
X196868796Y-139125495D01*
X196870000Y-139149999D01*
X196870000Y-140850001D01*
X196868796Y-140874505D01*
X196865196Y-140898773D01*
X196859235Y-140922572D01*
X196850970Y-140945671D01*
X196840480Y-140967850D01*
X196827868Y-140988893D01*
X196813253Y-141008599D01*
X196796777Y-141026777D01*
X196778599Y-141043253D01*
X196758893Y-141057868D01*
X196737850Y-141070480D01*
X196715671Y-141080970D01*
X196692572Y-141089235D01*
X196668773Y-141095196D01*
X196644505Y-141098796D01*
X196620001Y-141100000D01*
X195379999Y-141100000D01*
X195355495Y-141098796D01*
X195331227Y-141095196D01*
X195307428Y-141089235D01*
X195284329Y-141080970D01*
X195262150Y-141070480D01*
X195241107Y-141057868D01*
X195221401Y-141043253D01*
X195203223Y-141026777D01*
X195186747Y-141008599D01*
X195172132Y-140988893D01*
X195159520Y-140967850D01*
X195149030Y-140945671D01*
X195140765Y-140922572D01*
X195134804Y-140898773D01*
X195131204Y-140874505D01*
X195130000Y-140850001D01*
X195130000Y-139149999D01*
X195131204Y-139125495D01*
X195134804Y-139101227D01*
X195140765Y-139077428D01*
X195149030Y-139054329D01*
X195159520Y-139032150D01*
X195172132Y-139011107D01*
X195186747Y-138991401D01*
X195203223Y-138973223D01*
X195221401Y-138956747D01*
X195241107Y-138942132D01*
X195262150Y-138929520D01*
X195284329Y-138919030D01*
X195307428Y-138910765D01*
X195331227Y-138904804D01*
X195355495Y-138901204D01*
X195379999Y-138900000D01*
X196620001Y-138900000D01*
X196644505Y-138901204D01*
G37*
G04 #@! TD.AperFunction*
D16*
X183460000Y-140000000D03*
G04 #@! TA.AperFunction,ComponentPad*
D11*
G36*
X186644505Y-138901204D02*
G01*
X186668773Y-138904804D01*
X186692572Y-138910765D01*
X186715671Y-138919030D01*
X186737850Y-138929520D01*
X186758893Y-138942132D01*
X186778599Y-138956747D01*
X186796777Y-138973223D01*
X186813253Y-138991401D01*
X186827868Y-139011107D01*
X186840480Y-139032150D01*
X186850970Y-139054329D01*
X186859235Y-139077428D01*
X186865196Y-139101227D01*
X186868796Y-139125495D01*
X186870000Y-139149999D01*
X186870000Y-140850001D01*
X186868796Y-140874505D01*
X186865196Y-140898773D01*
X186859235Y-140922572D01*
X186850970Y-140945671D01*
X186840480Y-140967850D01*
X186827868Y-140988893D01*
X186813253Y-141008599D01*
X186796777Y-141026777D01*
X186778599Y-141043253D01*
X186758893Y-141057868D01*
X186737850Y-141070480D01*
X186715671Y-141080970D01*
X186692572Y-141089235D01*
X186668773Y-141095196D01*
X186644505Y-141098796D01*
X186620001Y-141100000D01*
X185379999Y-141100000D01*
X185355495Y-141098796D01*
X185331227Y-141095196D01*
X185307428Y-141089235D01*
X185284329Y-141080970D01*
X185262150Y-141070480D01*
X185241107Y-141057868D01*
X185221401Y-141043253D01*
X185203223Y-141026777D01*
X185186747Y-141008599D01*
X185172132Y-140988893D01*
X185159520Y-140967850D01*
X185149030Y-140945671D01*
X185140765Y-140922572D01*
X185134804Y-140898773D01*
X185131204Y-140874505D01*
X185130000Y-140850001D01*
X185130000Y-139149999D01*
X185131204Y-139125495D01*
X185134804Y-139101227D01*
X185140765Y-139077428D01*
X185149030Y-139054329D01*
X185159520Y-139032150D01*
X185172132Y-139011107D01*
X185186747Y-138991401D01*
X185203223Y-138973223D01*
X185221401Y-138956747D01*
X185241107Y-138942132D01*
X185262150Y-138929520D01*
X185284329Y-138919030D01*
X185307428Y-138910765D01*
X185331227Y-138904804D01*
X185355495Y-138901204D01*
X185379999Y-138900000D01*
X186620001Y-138900000D01*
X186644505Y-138901204D01*
G37*
G04 #@! TD.AperFunction*
G04 #@! TA.AperFunction,ComponentPad*
G36*
X110644505Y-138901204D02*
G01*
X110668773Y-138904804D01*
X110692572Y-138910765D01*
X110715671Y-138919030D01*
X110737850Y-138929520D01*
X110758893Y-138942132D01*
X110778599Y-138956747D01*
X110796777Y-138973223D01*
X110813253Y-138991401D01*
X110827868Y-139011107D01*
X110840480Y-139032150D01*
X110850970Y-139054329D01*
X110859235Y-139077428D01*
X110865196Y-139101227D01*
X110868796Y-139125495D01*
X110870000Y-139149999D01*
X110870000Y-140850001D01*
X110868796Y-140874505D01*
X110865196Y-140898773D01*
X110859235Y-140922572D01*
X110850970Y-140945671D01*
X110840480Y-140967850D01*
X110827868Y-140988893D01*
X110813253Y-141008599D01*
X110796777Y-141026777D01*
X110778599Y-141043253D01*
X110758893Y-141057868D01*
X110737850Y-141070480D01*
X110715671Y-141080970D01*
X110692572Y-141089235D01*
X110668773Y-141095196D01*
X110644505Y-141098796D01*
X110620001Y-141100000D01*
X109379999Y-141100000D01*
X109355495Y-141098796D01*
X109331227Y-141095196D01*
X109307428Y-141089235D01*
X109284329Y-141080970D01*
X109262150Y-141070480D01*
X109241107Y-141057868D01*
X109221401Y-141043253D01*
X109203223Y-141026777D01*
X109186747Y-141008599D01*
X109172132Y-140988893D01*
X109159520Y-140967850D01*
X109149030Y-140945671D01*
X109140765Y-140922572D01*
X109134804Y-140898773D01*
X109131204Y-140874505D01*
X109130000Y-140850001D01*
X109130000Y-139149999D01*
X109131204Y-139125495D01*
X109134804Y-139101227D01*
X109140765Y-139077428D01*
X109149030Y-139054329D01*
X109159520Y-139032150D01*
X109172132Y-139011107D01*
X109186747Y-138991401D01*
X109203223Y-138973223D01*
X109221401Y-138956747D01*
X109241107Y-138942132D01*
X109262150Y-138929520D01*
X109284329Y-138919030D01*
X109307428Y-138910765D01*
X109331227Y-138904804D01*
X109355495Y-138901204D01*
X109379999Y-138900000D01*
X110620001Y-138900000D01*
X110644505Y-138901204D01*
G37*
G04 #@! TD.AperFunction*
D16*
X107460000Y-140000000D03*
D17*
X59500000Y-146500000D03*
X89500000Y-146500000D03*
X119500000Y-146500000D03*
X173990000Y-128270000D03*
X143500000Y-147500000D03*
D18*
G36*
X54123653Y-105143261D02*
G01*
X54238345Y-105257953D01*
X53922786Y-105413962D01*
X53731980Y-105788745D01*
X53617956Y-106193551D01*
X53585098Y-106612824D01*
X53634666Y-107030451D01*
X53764757Y-107430383D01*
X53922786Y-107726038D01*
X54238347Y-107882048D01*
X55550395Y-106570000D01*
X55536253Y-106555858D01*
X55715858Y-106376253D01*
X55730000Y-106390395D01*
X55744143Y-106376253D01*
X55923748Y-106555858D01*
X55909605Y-106570000D01*
X57221653Y-107882048D01*
X57537214Y-107726038D01*
X57728020Y-107351255D01*
X57750096Y-107272881D01*
X57851426Y-107314853D01*
X57873000Y-107319144D01*
X57873000Y-113824811D01*
X57726287Y-113971524D01*
X57470750Y-114353963D01*
X57294733Y-114778906D01*
X57205000Y-115230023D01*
X57205000Y-115689977D01*
X57242289Y-115877442D01*
X56957176Y-115855098D01*
X56539549Y-115904666D01*
X56139617Y-116034757D01*
X55843962Y-116192786D01*
X55687952Y-116508347D01*
X57000000Y-117820395D01*
X57014143Y-117806253D01*
X57193748Y-117985858D01*
X57179605Y-118000000D01*
X58491653Y-119312048D01*
X58807214Y-119156038D01*
X58998020Y-118781255D01*
X59112044Y-118376449D01*
X59144902Y-117957176D01*
X59121195Y-117757440D01*
X59310023Y-117795000D01*
X59769977Y-117795000D01*
X60221094Y-117705267D01*
X60410047Y-117627000D01*
X62373000Y-117627000D01*
X62373000Y-121019892D01*
X62261499Y-121131393D01*
X62135586Y-120841423D01*
X61803374Y-120675567D01*
X61445188Y-120577710D01*
X61074794Y-120551611D01*
X60706425Y-120598275D01*
X60354238Y-120715906D01*
X60119414Y-120841423D01*
X59993500Y-121131395D01*
X61127500Y-122265395D01*
X61141643Y-122251253D01*
X61321248Y-122430858D01*
X61307105Y-122445000D01*
X61321248Y-122459143D01*
X61141643Y-122638748D01*
X61127500Y-122624605D01*
X59993500Y-123758605D01*
X60043174Y-123873000D01*
X53127000Y-123873000D01*
X53127000Y-122497706D01*
X59234111Y-122497706D01*
X59280775Y-122866075D01*
X59398406Y-123218262D01*
X59523923Y-123453086D01*
X59813895Y-123579000D01*
X60947895Y-122445000D01*
X59813895Y-121311000D01*
X59523923Y-121436914D01*
X59358067Y-121769126D01*
X59260210Y-122127312D01*
X59234111Y-122497706D01*
X53127000Y-122497706D01*
X53127000Y-119491653D01*
X55687952Y-119491653D01*
X55843962Y-119807214D01*
X56218745Y-119998020D01*
X56623551Y-120112044D01*
X57042824Y-120144902D01*
X57460451Y-120095334D01*
X57860383Y-119965243D01*
X58156038Y-119807214D01*
X58312048Y-119491653D01*
X57000000Y-118179605D01*
X55687952Y-119491653D01*
X53127000Y-119491653D01*
X53127000Y-118042824D01*
X54855098Y-118042824D01*
X54904666Y-118460451D01*
X55034757Y-118860383D01*
X55192786Y-119156038D01*
X55508347Y-119312048D01*
X56820395Y-118000000D01*
X55508347Y-116687952D01*
X55192786Y-116843962D01*
X55001980Y-117218745D01*
X54887956Y-117623551D01*
X54855098Y-118042824D01*
X53127000Y-118042824D01*
X53127000Y-108061653D01*
X54417952Y-108061653D01*
X54573962Y-108377214D01*
X54948745Y-108568020D01*
X55353551Y-108682044D01*
X55772824Y-108714902D01*
X56190451Y-108665334D01*
X56590383Y-108535243D01*
X56886038Y-108377214D01*
X57042048Y-108061653D01*
X55730000Y-106749605D01*
X54417952Y-108061653D01*
X53127000Y-108061653D01*
X53127000Y-105127000D01*
X54139914Y-105127000D01*
X54123653Y-105143261D01*
G37*
X54123653Y-105143261D02*
X54238345Y-105257953D01*
X53922786Y-105413962D01*
X53731980Y-105788745D01*
X53617956Y-106193551D01*
X53585098Y-106612824D01*
X53634666Y-107030451D01*
X53764757Y-107430383D01*
X53922786Y-107726038D01*
X54238347Y-107882048D01*
X55550395Y-106570000D01*
X55536253Y-106555858D01*
X55715858Y-106376253D01*
X55730000Y-106390395D01*
X55744143Y-106376253D01*
X55923748Y-106555858D01*
X55909605Y-106570000D01*
X57221653Y-107882048D01*
X57537214Y-107726038D01*
X57728020Y-107351255D01*
X57750096Y-107272881D01*
X57851426Y-107314853D01*
X57873000Y-107319144D01*
X57873000Y-113824811D01*
X57726287Y-113971524D01*
X57470750Y-114353963D01*
X57294733Y-114778906D01*
X57205000Y-115230023D01*
X57205000Y-115689977D01*
X57242289Y-115877442D01*
X56957176Y-115855098D01*
X56539549Y-115904666D01*
X56139617Y-116034757D01*
X55843962Y-116192786D01*
X55687952Y-116508347D01*
X57000000Y-117820395D01*
X57014143Y-117806253D01*
X57193748Y-117985858D01*
X57179605Y-118000000D01*
X58491653Y-119312048D01*
X58807214Y-119156038D01*
X58998020Y-118781255D01*
X59112044Y-118376449D01*
X59144902Y-117957176D01*
X59121195Y-117757440D01*
X59310023Y-117795000D01*
X59769977Y-117795000D01*
X60221094Y-117705267D01*
X60410047Y-117627000D01*
X62373000Y-117627000D01*
X62373000Y-121019892D01*
X62261499Y-121131393D01*
X62135586Y-120841423D01*
X61803374Y-120675567D01*
X61445188Y-120577710D01*
X61074794Y-120551611D01*
X60706425Y-120598275D01*
X60354238Y-120715906D01*
X60119414Y-120841423D01*
X59993500Y-121131395D01*
X61127500Y-122265395D01*
X61141643Y-122251253D01*
X61321248Y-122430858D01*
X61307105Y-122445000D01*
X61321248Y-122459143D01*
X61141643Y-122638748D01*
X61127500Y-122624605D01*
X59993500Y-123758605D01*
X60043174Y-123873000D01*
X53127000Y-123873000D01*
X53127000Y-122497706D01*
X59234111Y-122497706D01*
X59280775Y-122866075D01*
X59398406Y-123218262D01*
X59523923Y-123453086D01*
X59813895Y-123579000D01*
X60947895Y-122445000D01*
X59813895Y-121311000D01*
X59523923Y-121436914D01*
X59358067Y-121769126D01*
X59260210Y-122127312D01*
X59234111Y-122497706D01*
X53127000Y-122497706D01*
X53127000Y-119491653D01*
X55687952Y-119491653D01*
X55843962Y-119807214D01*
X56218745Y-119998020D01*
X56623551Y-120112044D01*
X57042824Y-120144902D01*
X57460451Y-120095334D01*
X57860383Y-119965243D01*
X58156038Y-119807214D01*
X58312048Y-119491653D01*
X57000000Y-118179605D01*
X55687952Y-119491653D01*
X53127000Y-119491653D01*
X53127000Y-118042824D01*
X54855098Y-118042824D01*
X54904666Y-118460451D01*
X55034757Y-118860383D01*
X55192786Y-119156038D01*
X55508347Y-119312048D01*
X56820395Y-118000000D01*
X55508347Y-116687952D01*
X55192786Y-116843962D01*
X55001980Y-117218745D01*
X54887956Y-117623551D01*
X54855098Y-118042824D01*
X53127000Y-118042824D01*
X53127000Y-108061653D01*
X54417952Y-108061653D01*
X54573962Y-108377214D01*
X54948745Y-108568020D01*
X55353551Y-108682044D01*
X55772824Y-108714902D01*
X56190451Y-108665334D01*
X56590383Y-108535243D01*
X56886038Y-108377214D01*
X57042048Y-108061653D01*
X55730000Y-106749605D01*
X54417952Y-108061653D01*
X53127000Y-108061653D01*
X53127000Y-105127000D01*
X54139914Y-105127000D01*
X54123653Y-105143261D01*
G36*
X84123653Y-105143261D02*
G01*
X84238345Y-105257953D01*
X83922786Y-105413962D01*
X83731980Y-105788745D01*
X83617956Y-106193551D01*
X83585098Y-106612824D01*
X83634666Y-107030451D01*
X83764757Y-107430383D01*
X83922786Y-107726038D01*
X84238347Y-107882048D01*
X85550395Y-106570000D01*
X85536253Y-106555858D01*
X85715858Y-106376253D01*
X85730000Y-106390395D01*
X85744143Y-106376253D01*
X85923748Y-106555858D01*
X85909605Y-106570000D01*
X87221653Y-107882048D01*
X87537214Y-107726038D01*
X87728020Y-107351255D01*
X87750096Y-107272881D01*
X87851426Y-107314853D01*
X87873000Y-107319144D01*
X87873000Y-113824811D01*
X87726287Y-113971524D01*
X87470750Y-114353963D01*
X87294733Y-114778906D01*
X87205000Y-115230023D01*
X87205000Y-115689977D01*
X87242289Y-115877442D01*
X86957176Y-115855098D01*
X86539549Y-115904666D01*
X86139617Y-116034757D01*
X85843962Y-116192786D01*
X85687952Y-116508347D01*
X87000000Y-117820395D01*
X87014143Y-117806253D01*
X87193748Y-117985858D01*
X87179605Y-118000000D01*
X88491653Y-119312048D01*
X88807214Y-119156038D01*
X88998020Y-118781255D01*
X89112044Y-118376449D01*
X89144902Y-117957176D01*
X89121195Y-117757440D01*
X89310023Y-117795000D01*
X89769977Y-117795000D01*
X90221094Y-117705267D01*
X90410047Y-117627000D01*
X92373000Y-117627000D01*
X92373000Y-121019892D01*
X92261499Y-121131393D01*
X92135586Y-120841423D01*
X91803374Y-120675567D01*
X91445188Y-120577710D01*
X91074794Y-120551611D01*
X90706425Y-120598275D01*
X90354238Y-120715906D01*
X90119414Y-120841423D01*
X89993500Y-121131395D01*
X91127500Y-122265395D01*
X91141643Y-122251253D01*
X91321248Y-122430858D01*
X91307105Y-122445000D01*
X91321248Y-122459143D01*
X91141643Y-122638748D01*
X91127500Y-122624605D01*
X89993500Y-123758605D01*
X90043174Y-123873000D01*
X83127000Y-123873000D01*
X83127000Y-122497706D01*
X89234111Y-122497706D01*
X89280775Y-122866075D01*
X89398406Y-123218262D01*
X89523923Y-123453086D01*
X89813895Y-123579000D01*
X90947895Y-122445000D01*
X89813895Y-121311000D01*
X89523923Y-121436914D01*
X89358067Y-121769126D01*
X89260210Y-122127312D01*
X89234111Y-122497706D01*
X83127000Y-122497706D01*
X83127000Y-119491653D01*
X85687952Y-119491653D01*
X85843962Y-119807214D01*
X86218745Y-119998020D01*
X86623551Y-120112044D01*
X87042824Y-120144902D01*
X87460451Y-120095334D01*
X87860383Y-119965243D01*
X88156038Y-119807214D01*
X88312048Y-119491653D01*
X87000000Y-118179605D01*
X85687952Y-119491653D01*
X83127000Y-119491653D01*
X83127000Y-118042824D01*
X84855098Y-118042824D01*
X84904666Y-118460451D01*
X85034757Y-118860383D01*
X85192786Y-119156038D01*
X85508347Y-119312048D01*
X86820395Y-118000000D01*
X85508347Y-116687952D01*
X85192786Y-116843962D01*
X85001980Y-117218745D01*
X84887956Y-117623551D01*
X84855098Y-118042824D01*
X83127000Y-118042824D01*
X83127000Y-108061653D01*
X84417952Y-108061653D01*
X84573962Y-108377214D01*
X84948745Y-108568020D01*
X85353551Y-108682044D01*
X85772824Y-108714902D01*
X86190451Y-108665334D01*
X86590383Y-108535243D01*
X86886038Y-108377214D01*
X87042048Y-108061653D01*
X85730000Y-106749605D01*
X84417952Y-108061653D01*
X83127000Y-108061653D01*
X83127000Y-105127000D01*
X84139914Y-105127000D01*
X84123653Y-105143261D01*
G37*
X84123653Y-105143261D02*
X84238345Y-105257953D01*
X83922786Y-105413962D01*
X83731980Y-105788745D01*
X83617956Y-106193551D01*
X83585098Y-106612824D01*
X83634666Y-107030451D01*
X83764757Y-107430383D01*
X83922786Y-107726038D01*
X84238347Y-107882048D01*
X85550395Y-106570000D01*
X85536253Y-106555858D01*
X85715858Y-106376253D01*
X85730000Y-106390395D01*
X85744143Y-106376253D01*
X85923748Y-106555858D01*
X85909605Y-106570000D01*
X87221653Y-107882048D01*
X87537214Y-107726038D01*
X87728020Y-107351255D01*
X87750096Y-107272881D01*
X87851426Y-107314853D01*
X87873000Y-107319144D01*
X87873000Y-113824811D01*
X87726287Y-113971524D01*
X87470750Y-114353963D01*
X87294733Y-114778906D01*
X87205000Y-115230023D01*
X87205000Y-115689977D01*
X87242289Y-115877442D01*
X86957176Y-115855098D01*
X86539549Y-115904666D01*
X86139617Y-116034757D01*
X85843962Y-116192786D01*
X85687952Y-116508347D01*
X87000000Y-117820395D01*
X87014143Y-117806253D01*
X87193748Y-117985858D01*
X87179605Y-118000000D01*
X88491653Y-119312048D01*
X88807214Y-119156038D01*
X88998020Y-118781255D01*
X89112044Y-118376449D01*
X89144902Y-117957176D01*
X89121195Y-117757440D01*
X89310023Y-117795000D01*
X89769977Y-117795000D01*
X90221094Y-117705267D01*
X90410047Y-117627000D01*
X92373000Y-117627000D01*
X92373000Y-121019892D01*
X92261499Y-121131393D01*
X92135586Y-120841423D01*
X91803374Y-120675567D01*
X91445188Y-120577710D01*
X91074794Y-120551611D01*
X90706425Y-120598275D01*
X90354238Y-120715906D01*
X90119414Y-120841423D01*
X89993500Y-121131395D01*
X91127500Y-122265395D01*
X91141643Y-122251253D01*
X91321248Y-122430858D01*
X91307105Y-122445000D01*
X91321248Y-122459143D01*
X91141643Y-122638748D01*
X91127500Y-122624605D01*
X89993500Y-123758605D01*
X90043174Y-123873000D01*
X83127000Y-123873000D01*
X83127000Y-122497706D01*
X89234111Y-122497706D01*
X89280775Y-122866075D01*
X89398406Y-123218262D01*
X89523923Y-123453086D01*
X89813895Y-123579000D01*
X90947895Y-122445000D01*
X89813895Y-121311000D01*
X89523923Y-121436914D01*
X89358067Y-121769126D01*
X89260210Y-122127312D01*
X89234111Y-122497706D01*
X83127000Y-122497706D01*
X83127000Y-119491653D01*
X85687952Y-119491653D01*
X85843962Y-119807214D01*
X86218745Y-119998020D01*
X86623551Y-120112044D01*
X87042824Y-120144902D01*
X87460451Y-120095334D01*
X87860383Y-119965243D01*
X88156038Y-119807214D01*
X88312048Y-119491653D01*
X87000000Y-118179605D01*
X85687952Y-119491653D01*
X83127000Y-119491653D01*
X83127000Y-118042824D01*
X84855098Y-118042824D01*
X84904666Y-118460451D01*
X85034757Y-118860383D01*
X85192786Y-119156038D01*
X85508347Y-119312048D01*
X86820395Y-118000000D01*
X85508347Y-116687952D01*
X85192786Y-116843962D01*
X85001980Y-117218745D01*
X84887956Y-117623551D01*
X84855098Y-118042824D01*
X83127000Y-118042824D01*
X83127000Y-108061653D01*
X84417952Y-108061653D01*
X84573962Y-108377214D01*
X84948745Y-108568020D01*
X85353551Y-108682044D01*
X85772824Y-108714902D01*
X86190451Y-108665334D01*
X86590383Y-108535243D01*
X86886038Y-108377214D01*
X87042048Y-108061653D01*
X85730000Y-106749605D01*
X84417952Y-108061653D01*
X83127000Y-108061653D01*
X83127000Y-105127000D01*
X84139914Y-105127000D01*
X84123653Y-105143261D01*
G36*
X114123653Y-105143261D02*
G01*
X114238345Y-105257953D01*
X113922786Y-105413962D01*
X113731980Y-105788745D01*
X113617956Y-106193551D01*
X113585098Y-106612824D01*
X113634666Y-107030451D01*
X113764757Y-107430383D01*
X113922786Y-107726038D01*
X114238347Y-107882048D01*
X115550395Y-106570000D01*
X115536253Y-106555858D01*
X115715858Y-106376253D01*
X115730000Y-106390395D01*
X115744143Y-106376253D01*
X115923748Y-106555858D01*
X115909605Y-106570000D01*
X117221653Y-107882048D01*
X117537214Y-107726038D01*
X117728020Y-107351255D01*
X117750096Y-107272881D01*
X117851426Y-107314853D01*
X117873000Y-107319144D01*
X117873000Y-113824811D01*
X117726287Y-113971524D01*
X117470750Y-114353963D01*
X117294733Y-114778906D01*
X117205000Y-115230023D01*
X117205000Y-115689977D01*
X117242289Y-115877442D01*
X116957176Y-115855098D01*
X116539549Y-115904666D01*
X116139617Y-116034757D01*
X115843962Y-116192786D01*
X115687952Y-116508347D01*
X117000000Y-117820395D01*
X117014143Y-117806253D01*
X117193748Y-117985858D01*
X117179605Y-118000000D01*
X118491653Y-119312048D01*
X118807214Y-119156038D01*
X118998020Y-118781255D01*
X119112044Y-118376449D01*
X119144902Y-117957176D01*
X119121195Y-117757440D01*
X119310023Y-117795000D01*
X119769977Y-117795000D01*
X120221094Y-117705267D01*
X120410047Y-117627000D01*
X122373000Y-117627000D01*
X122373000Y-121019892D01*
X122261499Y-121131393D01*
X122135586Y-120841423D01*
X121803374Y-120675567D01*
X121445188Y-120577710D01*
X121074794Y-120551611D01*
X120706425Y-120598275D01*
X120354238Y-120715906D01*
X120119414Y-120841423D01*
X119993500Y-121131395D01*
X121127500Y-122265395D01*
X121141643Y-122251253D01*
X121321248Y-122430858D01*
X121307105Y-122445000D01*
X121321248Y-122459143D01*
X121141643Y-122638748D01*
X121127500Y-122624605D01*
X119993500Y-123758605D01*
X120043174Y-123873000D01*
X113127000Y-123873000D01*
X113127000Y-122497706D01*
X119234111Y-122497706D01*
X119280775Y-122866075D01*
X119398406Y-123218262D01*
X119523923Y-123453086D01*
X119813895Y-123579000D01*
X120947895Y-122445000D01*
X119813895Y-121311000D01*
X119523923Y-121436914D01*
X119358067Y-121769126D01*
X119260210Y-122127312D01*
X119234111Y-122497706D01*
X113127000Y-122497706D01*
X113127000Y-119491653D01*
X115687952Y-119491653D01*
X115843962Y-119807214D01*
X116218745Y-119998020D01*
X116623551Y-120112044D01*
X117042824Y-120144902D01*
X117460451Y-120095334D01*
X117860383Y-119965243D01*
X118156038Y-119807214D01*
X118312048Y-119491653D01*
X117000000Y-118179605D01*
X115687952Y-119491653D01*
X113127000Y-119491653D01*
X113127000Y-118042824D01*
X114855098Y-118042824D01*
X114904666Y-118460451D01*
X115034757Y-118860383D01*
X115192786Y-119156038D01*
X115508347Y-119312048D01*
X116820395Y-118000000D01*
X115508347Y-116687952D01*
X115192786Y-116843962D01*
X115001980Y-117218745D01*
X114887956Y-117623551D01*
X114855098Y-118042824D01*
X113127000Y-118042824D01*
X113127000Y-108061653D01*
X114417952Y-108061653D01*
X114573962Y-108377214D01*
X114948745Y-108568020D01*
X115353551Y-108682044D01*
X115772824Y-108714902D01*
X116190451Y-108665334D01*
X116590383Y-108535243D01*
X116886038Y-108377214D01*
X117042048Y-108061653D01*
X115730000Y-106749605D01*
X114417952Y-108061653D01*
X113127000Y-108061653D01*
X113127000Y-105127000D01*
X114139914Y-105127000D01*
X114123653Y-105143261D01*
G37*
X114123653Y-105143261D02*
X114238345Y-105257953D01*
X113922786Y-105413962D01*
X113731980Y-105788745D01*
X113617956Y-106193551D01*
X113585098Y-106612824D01*
X113634666Y-107030451D01*
X113764757Y-107430383D01*
X113922786Y-107726038D01*
X114238347Y-107882048D01*
X115550395Y-106570000D01*
X115536253Y-106555858D01*
X115715858Y-106376253D01*
X115730000Y-106390395D01*
X115744143Y-106376253D01*
X115923748Y-106555858D01*
X115909605Y-106570000D01*
X117221653Y-107882048D01*
X117537214Y-107726038D01*
X117728020Y-107351255D01*
X117750096Y-107272881D01*
X117851426Y-107314853D01*
X117873000Y-107319144D01*
X117873000Y-113824811D01*
X117726287Y-113971524D01*
X117470750Y-114353963D01*
X117294733Y-114778906D01*
X117205000Y-115230023D01*
X117205000Y-115689977D01*
X117242289Y-115877442D01*
X116957176Y-115855098D01*
X116539549Y-115904666D01*
X116139617Y-116034757D01*
X115843962Y-116192786D01*
X115687952Y-116508347D01*
X117000000Y-117820395D01*
X117014143Y-117806253D01*
X117193748Y-117985858D01*
X117179605Y-118000000D01*
X118491653Y-119312048D01*
X118807214Y-119156038D01*
X118998020Y-118781255D01*
X119112044Y-118376449D01*
X119144902Y-117957176D01*
X119121195Y-117757440D01*
X119310023Y-117795000D01*
X119769977Y-117795000D01*
X120221094Y-117705267D01*
X120410047Y-117627000D01*
X122373000Y-117627000D01*
X122373000Y-121019892D01*
X122261499Y-121131393D01*
X122135586Y-120841423D01*
X121803374Y-120675567D01*
X121445188Y-120577710D01*
X121074794Y-120551611D01*
X120706425Y-120598275D01*
X120354238Y-120715906D01*
X120119414Y-120841423D01*
X119993500Y-121131395D01*
X121127500Y-122265395D01*
X121141643Y-122251253D01*
X121321248Y-122430858D01*
X121307105Y-122445000D01*
X121321248Y-122459143D01*
X121141643Y-122638748D01*
X121127500Y-122624605D01*
X119993500Y-123758605D01*
X120043174Y-123873000D01*
X113127000Y-123873000D01*
X113127000Y-122497706D01*
X119234111Y-122497706D01*
X119280775Y-122866075D01*
X119398406Y-123218262D01*
X119523923Y-123453086D01*
X119813895Y-123579000D01*
X120947895Y-122445000D01*
X119813895Y-121311000D01*
X119523923Y-121436914D01*
X119358067Y-121769126D01*
X119260210Y-122127312D01*
X119234111Y-122497706D01*
X113127000Y-122497706D01*
X113127000Y-119491653D01*
X115687952Y-119491653D01*
X115843962Y-119807214D01*
X116218745Y-119998020D01*
X116623551Y-120112044D01*
X117042824Y-120144902D01*
X117460451Y-120095334D01*
X117860383Y-119965243D01*
X118156038Y-119807214D01*
X118312048Y-119491653D01*
X117000000Y-118179605D01*
X115687952Y-119491653D01*
X113127000Y-119491653D01*
X113127000Y-118042824D01*
X114855098Y-118042824D01*
X114904666Y-118460451D01*
X115034757Y-118860383D01*
X115192786Y-119156038D01*
X115508347Y-119312048D01*
X116820395Y-118000000D01*
X115508347Y-116687952D01*
X115192786Y-116843962D01*
X115001980Y-117218745D01*
X114887956Y-117623551D01*
X114855098Y-118042824D01*
X113127000Y-118042824D01*
X113127000Y-108061653D01*
X114417952Y-108061653D01*
X114573962Y-108377214D01*
X114948745Y-108568020D01*
X115353551Y-108682044D01*
X115772824Y-108714902D01*
X116190451Y-108665334D01*
X116590383Y-108535243D01*
X116886038Y-108377214D01*
X117042048Y-108061653D01*
X115730000Y-106749605D01*
X114417952Y-108061653D01*
X113127000Y-108061653D01*
X113127000Y-105127000D01*
X114139914Y-105127000D01*
X114123653Y-105143261D01*
G36*
X144123653Y-105143261D02*
G01*
X144238345Y-105257953D01*
X143922786Y-105413962D01*
X143731980Y-105788745D01*
X143617956Y-106193551D01*
X143585098Y-106612824D01*
X143634666Y-107030451D01*
X143764757Y-107430383D01*
X143922786Y-107726038D01*
X144238347Y-107882048D01*
X145550395Y-106570000D01*
X145536253Y-106555858D01*
X145715858Y-106376253D01*
X145730000Y-106390395D01*
X145744143Y-106376253D01*
X145923748Y-106555858D01*
X145909605Y-106570000D01*
X147221653Y-107882048D01*
X147537214Y-107726038D01*
X147728020Y-107351255D01*
X147750096Y-107272881D01*
X147851426Y-107314853D01*
X147873000Y-107319144D01*
X147873000Y-113824811D01*
X147726287Y-113971524D01*
X147470750Y-114353963D01*
X147294733Y-114778906D01*
X147205000Y-115230023D01*
X147205000Y-115689977D01*
X147242289Y-115877442D01*
X146957176Y-115855098D01*
X146539549Y-115904666D01*
X146139617Y-116034757D01*
X145843962Y-116192786D01*
X145687952Y-116508347D01*
X147000000Y-117820395D01*
X147014143Y-117806253D01*
X147193748Y-117985858D01*
X147179605Y-118000000D01*
X148491653Y-119312048D01*
X148807214Y-119156038D01*
X148998020Y-118781255D01*
X149112044Y-118376449D01*
X149144902Y-117957176D01*
X149121195Y-117757440D01*
X149310023Y-117795000D01*
X149769977Y-117795000D01*
X150221094Y-117705267D01*
X150410047Y-117627000D01*
X152373000Y-117627000D01*
X152373000Y-121019892D01*
X152261499Y-121131393D01*
X152135586Y-120841423D01*
X151803374Y-120675567D01*
X151445188Y-120577710D01*
X151074794Y-120551611D01*
X150706425Y-120598275D01*
X150354238Y-120715906D01*
X150119414Y-120841423D01*
X149993500Y-121131395D01*
X151127500Y-122265395D01*
X151141643Y-122251253D01*
X151321248Y-122430858D01*
X151307105Y-122445000D01*
X151321248Y-122459143D01*
X151141643Y-122638748D01*
X151127500Y-122624605D01*
X149993500Y-123758605D01*
X150043174Y-123873000D01*
X143127000Y-123873000D01*
X143127000Y-122497706D01*
X149234111Y-122497706D01*
X149280775Y-122866075D01*
X149398406Y-123218262D01*
X149523923Y-123453086D01*
X149813895Y-123579000D01*
X150947895Y-122445000D01*
X149813895Y-121311000D01*
X149523923Y-121436914D01*
X149358067Y-121769126D01*
X149260210Y-122127312D01*
X149234111Y-122497706D01*
X143127000Y-122497706D01*
X143127000Y-119491653D01*
X145687952Y-119491653D01*
X145843962Y-119807214D01*
X146218745Y-119998020D01*
X146623551Y-120112044D01*
X147042824Y-120144902D01*
X147460451Y-120095334D01*
X147860383Y-119965243D01*
X148156038Y-119807214D01*
X148312048Y-119491653D01*
X147000000Y-118179605D01*
X145687952Y-119491653D01*
X143127000Y-119491653D01*
X143127000Y-118042824D01*
X144855098Y-118042824D01*
X144904666Y-118460451D01*
X145034757Y-118860383D01*
X145192786Y-119156038D01*
X145508347Y-119312048D01*
X146820395Y-118000000D01*
X145508347Y-116687952D01*
X145192786Y-116843962D01*
X145001980Y-117218745D01*
X144887956Y-117623551D01*
X144855098Y-118042824D01*
X143127000Y-118042824D01*
X143127000Y-108061653D01*
X144417952Y-108061653D01*
X144573962Y-108377214D01*
X144948745Y-108568020D01*
X145353551Y-108682044D01*
X145772824Y-108714902D01*
X146190451Y-108665334D01*
X146590383Y-108535243D01*
X146886038Y-108377214D01*
X147042048Y-108061653D01*
X145730000Y-106749605D01*
X144417952Y-108061653D01*
X143127000Y-108061653D01*
X143127000Y-105127000D01*
X144139914Y-105127000D01*
X144123653Y-105143261D01*
G37*
X144123653Y-105143261D02*
X144238345Y-105257953D01*
X143922786Y-105413962D01*
X143731980Y-105788745D01*
X143617956Y-106193551D01*
X143585098Y-106612824D01*
X143634666Y-107030451D01*
X143764757Y-107430383D01*
X143922786Y-107726038D01*
X144238347Y-107882048D01*
X145550395Y-106570000D01*
X145536253Y-106555858D01*
X145715858Y-106376253D01*
X145730000Y-106390395D01*
X145744143Y-106376253D01*
X145923748Y-106555858D01*
X145909605Y-106570000D01*
X147221653Y-107882048D01*
X147537214Y-107726038D01*
X147728020Y-107351255D01*
X147750096Y-107272881D01*
X147851426Y-107314853D01*
X147873000Y-107319144D01*
X147873000Y-113824811D01*
X147726287Y-113971524D01*
X147470750Y-114353963D01*
X147294733Y-114778906D01*
X147205000Y-115230023D01*
X147205000Y-115689977D01*
X147242289Y-115877442D01*
X146957176Y-115855098D01*
X146539549Y-115904666D01*
X146139617Y-116034757D01*
X145843962Y-116192786D01*
X145687952Y-116508347D01*
X147000000Y-117820395D01*
X147014143Y-117806253D01*
X147193748Y-117985858D01*
X147179605Y-118000000D01*
X148491653Y-119312048D01*
X148807214Y-119156038D01*
X148998020Y-118781255D01*
X149112044Y-118376449D01*
X149144902Y-117957176D01*
X149121195Y-117757440D01*
X149310023Y-117795000D01*
X149769977Y-117795000D01*
X150221094Y-117705267D01*
X150410047Y-117627000D01*
X152373000Y-117627000D01*
X152373000Y-121019892D01*
X152261499Y-121131393D01*
X152135586Y-120841423D01*
X151803374Y-120675567D01*
X151445188Y-120577710D01*
X151074794Y-120551611D01*
X150706425Y-120598275D01*
X150354238Y-120715906D01*
X150119414Y-120841423D01*
X149993500Y-121131395D01*
X151127500Y-122265395D01*
X151141643Y-122251253D01*
X151321248Y-122430858D01*
X151307105Y-122445000D01*
X151321248Y-122459143D01*
X151141643Y-122638748D01*
X151127500Y-122624605D01*
X149993500Y-123758605D01*
X150043174Y-123873000D01*
X143127000Y-123873000D01*
X143127000Y-122497706D01*
X149234111Y-122497706D01*
X149280775Y-122866075D01*
X149398406Y-123218262D01*
X149523923Y-123453086D01*
X149813895Y-123579000D01*
X150947895Y-122445000D01*
X149813895Y-121311000D01*
X149523923Y-121436914D01*
X149358067Y-121769126D01*
X149260210Y-122127312D01*
X149234111Y-122497706D01*
X143127000Y-122497706D01*
X143127000Y-119491653D01*
X145687952Y-119491653D01*
X145843962Y-119807214D01*
X146218745Y-119998020D01*
X146623551Y-120112044D01*
X147042824Y-120144902D01*
X147460451Y-120095334D01*
X147860383Y-119965243D01*
X148156038Y-119807214D01*
X148312048Y-119491653D01*
X147000000Y-118179605D01*
X145687952Y-119491653D01*
X143127000Y-119491653D01*
X143127000Y-118042824D01*
X144855098Y-118042824D01*
X144904666Y-118460451D01*
X145034757Y-118860383D01*
X145192786Y-119156038D01*
X145508347Y-119312048D01*
X146820395Y-118000000D01*
X145508347Y-116687952D01*
X145192786Y-116843962D01*
X145001980Y-117218745D01*
X144887956Y-117623551D01*
X144855098Y-118042824D01*
X143127000Y-118042824D01*
X143127000Y-108061653D01*
X144417952Y-108061653D01*
X144573962Y-108377214D01*
X144948745Y-108568020D01*
X145353551Y-108682044D01*
X145772824Y-108714902D01*
X146190451Y-108665334D01*
X146590383Y-108535243D01*
X146886038Y-108377214D01*
X147042048Y-108061653D01*
X145730000Y-106749605D01*
X144417952Y-108061653D01*
X143127000Y-108061653D01*
X143127000Y-105127000D01*
X144139914Y-105127000D01*
X144123653Y-105143261D01*
G36*
X189873000Y-116292589D02*
G01*
X189765060Y-116090648D01*
X189429023Y-115910582D01*
X187974605Y-117365000D01*
X187988748Y-117379143D01*
X187809143Y-117558748D01*
X187795000Y-117544605D01*
X187780858Y-117558748D01*
X187601253Y-117379143D01*
X187615395Y-117365000D01*
X186160977Y-115910582D01*
X186127000Y-115928789D01*
X186127000Y-115730977D01*
X186340582Y-115730977D01*
X187795000Y-117185395D01*
X189249418Y-115730977D01*
X189069352Y-115394940D01*
X188660526Y-115184180D01*
X188218438Y-115057228D01*
X187760078Y-115018963D01*
X187303060Y-115070854D01*
X186864947Y-115210908D01*
X186520648Y-115394940D01*
X186340582Y-115730977D01*
X186127000Y-115730977D01*
X186127000Y-114500000D01*
X186124560Y-114475224D01*
X186117333Y-114451399D01*
X186105597Y-114429443D01*
X186089803Y-114410197D01*
X186070557Y-114394403D01*
X186048601Y-114382667D01*
X186024776Y-114375440D01*
X186000000Y-114373000D01*
X184467998Y-114373000D01*
X184845383Y-114250243D01*
X185141038Y-114092214D01*
X185297048Y-113776653D01*
X183985000Y-112464605D01*
X182672952Y-113776653D01*
X182828962Y-114092214D01*
X183203745Y-114283020D01*
X183523190Y-114373000D01*
X182127000Y-114373000D01*
X182127000Y-113346023D01*
X182177786Y-113441038D01*
X182493347Y-113597048D01*
X183805395Y-112285000D01*
X184164605Y-112285000D01*
X185476653Y-113597048D01*
X185792214Y-113441038D01*
X185983020Y-113066255D01*
X186097044Y-112661449D01*
X186129902Y-112242176D01*
X186080334Y-111824549D01*
X185950243Y-111424617D01*
X185792214Y-111128962D01*
X185476653Y-110972952D01*
X184164605Y-112285000D01*
X183805395Y-112285000D01*
X182493347Y-110972952D01*
X182177786Y-111128962D01*
X182127000Y-111228716D01*
X182127000Y-110793347D01*
X182672952Y-110793347D01*
X183985000Y-112105395D01*
X185297048Y-110793347D01*
X185141038Y-110477786D01*
X184766255Y-110286980D01*
X184361449Y-110172956D01*
X183942176Y-110140098D01*
X183524549Y-110189666D01*
X183124617Y-110319757D01*
X182828962Y-110477786D01*
X182672952Y-110793347D01*
X182127000Y-110793347D01*
X182127000Y-110127000D01*
X189873000Y-110127000D01*
X189873000Y-116292589D01*
G37*
X189873000Y-116292589D02*
X189765060Y-116090648D01*
X189429023Y-115910582D01*
X187974605Y-117365000D01*
X187988748Y-117379143D01*
X187809143Y-117558748D01*
X187795000Y-117544605D01*
X187780858Y-117558748D01*
X187601253Y-117379143D01*
X187615395Y-117365000D01*
X186160977Y-115910582D01*
X186127000Y-115928789D01*
X186127000Y-115730977D01*
X186340582Y-115730977D01*
X187795000Y-117185395D01*
X189249418Y-115730977D01*
X189069352Y-115394940D01*
X188660526Y-115184180D01*
X188218438Y-115057228D01*
X187760078Y-115018963D01*
X187303060Y-115070854D01*
X186864947Y-115210908D01*
X186520648Y-115394940D01*
X186340582Y-115730977D01*
X186127000Y-115730977D01*
X186127000Y-114500000D01*
X186124560Y-114475224D01*
X186117333Y-114451399D01*
X186105597Y-114429443D01*
X186089803Y-114410197D01*
X186070557Y-114394403D01*
X186048601Y-114382667D01*
X186024776Y-114375440D01*
X186000000Y-114373000D01*
X184467998Y-114373000D01*
X184845383Y-114250243D01*
X185141038Y-114092214D01*
X185297048Y-113776653D01*
X183985000Y-112464605D01*
X182672952Y-113776653D01*
X182828962Y-114092214D01*
X183203745Y-114283020D01*
X183523190Y-114373000D01*
X182127000Y-114373000D01*
X182127000Y-113346023D01*
X182177786Y-113441038D01*
X182493347Y-113597048D01*
X183805395Y-112285000D01*
X184164605Y-112285000D01*
X185476653Y-113597048D01*
X185792214Y-113441038D01*
X185983020Y-113066255D01*
X186097044Y-112661449D01*
X186129902Y-112242176D01*
X186080334Y-111824549D01*
X185950243Y-111424617D01*
X185792214Y-111128962D01*
X185476653Y-110972952D01*
X184164605Y-112285000D01*
X183805395Y-112285000D01*
X182493347Y-110972952D01*
X182177786Y-111128962D01*
X182127000Y-111228716D01*
X182127000Y-110793347D01*
X182672952Y-110793347D01*
X183985000Y-112105395D01*
X185297048Y-110793347D01*
X185141038Y-110477786D01*
X184766255Y-110286980D01*
X184361449Y-110172956D01*
X183942176Y-110140098D01*
X183524549Y-110189666D01*
X183124617Y-110319757D01*
X182828962Y-110477786D01*
X182672952Y-110793347D01*
X182127000Y-110793347D01*
X182127000Y-110127000D01*
X189873000Y-110127000D01*
X189873000Y-116292589D01*
G36*
X175873000Y-148873000D02*
G01*
X53127000Y-148873000D01*
X53127000Y-140127000D01*
X99947394Y-140127000D01*
X103910197Y-144089803D01*
X103929443Y-144105597D01*
X103951399Y-144117333D01*
X103975224Y-144124560D01*
X104000000Y-144127000D01*
X113000000Y-144127000D01*
X113024776Y-144124560D01*
X113048601Y-144117333D01*
X113070557Y-144105597D01*
X113089803Y-144089803D01*
X113275792Y-143903814D01*
X159339073Y-143903814D01*
X159399871Y-144193483D01*
X159516013Y-144465725D01*
X159683035Y-144710077D01*
X159894518Y-144917150D01*
X160142336Y-145078986D01*
X160416965Y-145189365D01*
X160479969Y-145201302D01*
X160713000Y-145080246D01*
X160713000Y-143667000D01*
X160967000Y-143667000D01*
X160967000Y-145080246D01*
X161200031Y-145201302D01*
X161263035Y-145189365D01*
X161537664Y-145078986D01*
X161785482Y-144917150D01*
X161996965Y-144710077D01*
X162110000Y-144544708D01*
X162223035Y-144710077D01*
X162434518Y-144917150D01*
X162682336Y-145078986D01*
X162956965Y-145189365D01*
X163019969Y-145201302D01*
X163253000Y-145080246D01*
X163253000Y-143667000D01*
X163507000Y-143667000D01*
X163507000Y-145080246D01*
X163740031Y-145201302D01*
X163803035Y-145189365D01*
X164077664Y-145078986D01*
X164325482Y-144917150D01*
X164536965Y-144710077D01*
X164650000Y-144544708D01*
X164763035Y-144710077D01*
X164974518Y-144917150D01*
X165222336Y-145078986D01*
X165496965Y-145189365D01*
X165559969Y-145201302D01*
X165793000Y-145080246D01*
X165793000Y-143667000D01*
X166047000Y-143667000D01*
X166047000Y-145080246D01*
X166280031Y-145201302D01*
X166343035Y-145189365D01*
X166617664Y-145078986D01*
X166865482Y-144917150D01*
X167076965Y-144710077D01*
X167190000Y-144544708D01*
X167303035Y-144710077D01*
X167514518Y-144917150D01*
X167762336Y-145078986D01*
X168036965Y-145189365D01*
X168099969Y-145201302D01*
X168333000Y-145080246D01*
X168333000Y-143667000D01*
X168587000Y-143667000D01*
X168587000Y-145080246D01*
X168820031Y-145201302D01*
X168883035Y-145189365D01*
X169157664Y-145078986D01*
X169405482Y-144917150D01*
X169616965Y-144710077D01*
X169730000Y-144544708D01*
X169843035Y-144710077D01*
X170054518Y-144917150D01*
X170302336Y-145078986D01*
X170576965Y-145189365D01*
X170639969Y-145201302D01*
X170873000Y-145080246D01*
X170873000Y-143667000D01*
X171127000Y-143667000D01*
X171127000Y-145080246D01*
X171360031Y-145201302D01*
X171423035Y-145189365D01*
X171697664Y-145078986D01*
X171945482Y-144917150D01*
X172156965Y-144710077D01*
X172323987Y-144465725D01*
X172440129Y-144193483D01*
X172500927Y-143903814D01*
X172349324Y-143667000D01*
X171127000Y-143667000D01*
X170873000Y-143667000D01*
X168587000Y-143667000D01*
X168333000Y-143667000D01*
X166047000Y-143667000D01*
X165793000Y-143667000D01*
X163507000Y-143667000D01*
X163253000Y-143667000D01*
X160967000Y-143667000D01*
X160713000Y-143667000D01*
X159490676Y-143667000D01*
X159339073Y-143903814D01*
X113275792Y-143903814D01*
X116453542Y-140726064D01*
X159335000Y-140726064D01*
X159335000Y-141273935D01*
X159356776Y-141495031D01*
X159442834Y-141778724D01*
X159582583Y-142040178D01*
X159770655Y-142269345D01*
X159778870Y-142276087D01*
X159683035Y-142369923D01*
X159516013Y-142614275D01*
X159399871Y-142886517D01*
X159339073Y-143176186D01*
X159490676Y-143413000D01*
X160713000Y-143413000D01*
X160713000Y-143393000D01*
X160967000Y-143393000D01*
X160967000Y-143413000D01*
X163253000Y-143413000D01*
X163253000Y-143393000D01*
X163507000Y-143393000D01*
X163507000Y-143413000D01*
X165793000Y-143413000D01*
X165793000Y-143393000D01*
X166047000Y-143393000D01*
X166047000Y-143413000D01*
X168333000Y-143413000D01*
X168333000Y-143393000D01*
X168587000Y-143393000D01*
X168587000Y-143413000D01*
X170873000Y-143413000D01*
X170873000Y-143393000D01*
X171127000Y-143393000D01*
X171127000Y-143413000D01*
X172349324Y-143413000D01*
X172500927Y-143176186D01*
X172440129Y-142886517D01*
X172323987Y-142614275D01*
X172180639Y-142404558D01*
X172193776Y-142393776D01*
X172327227Y-142231167D01*
X172426389Y-142045647D01*
X172487453Y-141844346D01*
X172508072Y-141635000D01*
X172508072Y-140365000D01*
X172487453Y-140155654D01*
X172426389Y-139954353D01*
X172327227Y-139768833D01*
X172193776Y-139606224D01*
X172031167Y-139472773D01*
X171845647Y-139373611D01*
X171644346Y-139312547D01*
X171435000Y-139291928D01*
X170565000Y-139291928D01*
X170355654Y-139312547D01*
X170154353Y-139373611D01*
X169968833Y-139472773D01*
X169806224Y-139606224D01*
X169672773Y-139768833D01*
X169628560Y-139851549D01*
X169529345Y-139730655D01*
X169300179Y-139542583D01*
X169038725Y-139402834D01*
X168755032Y-139316776D01*
X168460000Y-139287718D01*
X168164969Y-139316776D01*
X167881276Y-139402834D01*
X167619822Y-139542583D01*
X167390655Y-139730655D01*
X167202583Y-139959821D01*
X167190000Y-139983362D01*
X167177417Y-139959821D01*
X166989345Y-139730655D01*
X166760179Y-139542583D01*
X166498725Y-139402834D01*
X166215032Y-139316776D01*
X165920000Y-139287718D01*
X165624969Y-139316776D01*
X165341276Y-139402834D01*
X165079822Y-139542583D01*
X164850655Y-139730655D01*
X164662583Y-139959821D01*
X164650000Y-139983362D01*
X164637417Y-139959821D01*
X164449345Y-139730655D01*
X164220179Y-139542583D01*
X163958725Y-139402834D01*
X163675032Y-139316776D01*
X163380000Y-139287718D01*
X163084969Y-139316776D01*
X162801276Y-139402834D01*
X162539822Y-139542583D01*
X162310655Y-139730655D01*
X162122583Y-139959821D01*
X162110000Y-139983362D01*
X162097417Y-139959821D01*
X161909345Y-139730655D01*
X161680179Y-139542583D01*
X161418725Y-139402834D01*
X161135032Y-139316776D01*
X160840000Y-139287718D01*
X160544969Y-139316776D01*
X160261276Y-139402834D01*
X159999822Y-139542583D01*
X159770655Y-139730655D01*
X159582583Y-139959821D01*
X159442834Y-140221275D01*
X159356776Y-140504968D01*
X159335000Y-140726064D01*
X116453542Y-140726064D01*
X118052606Y-139127000D01*
X154000000Y-139127000D01*
X154024776Y-139124560D01*
X154048601Y-139117333D01*
X154070557Y-139105597D01*
X154089803Y-139089803D01*
X167552606Y-125627000D01*
X175873000Y-125627000D01*
X175873000Y-148873000D01*
G37*
X175873000Y-148873000D02*
X53127000Y-148873000D01*
X53127000Y-140127000D01*
X99947394Y-140127000D01*
X103910197Y-144089803D01*
X103929443Y-144105597D01*
X103951399Y-144117333D01*
X103975224Y-144124560D01*
X104000000Y-144127000D01*
X113000000Y-144127000D01*
X113024776Y-144124560D01*
X113048601Y-144117333D01*
X113070557Y-144105597D01*
X113089803Y-144089803D01*
X113275792Y-143903814D01*
X159339073Y-143903814D01*
X159399871Y-144193483D01*
X159516013Y-144465725D01*
X159683035Y-144710077D01*
X159894518Y-144917150D01*
X160142336Y-145078986D01*
X160416965Y-145189365D01*
X160479969Y-145201302D01*
X160713000Y-145080246D01*
X160713000Y-143667000D01*
X160967000Y-143667000D01*
X160967000Y-145080246D01*
X161200031Y-145201302D01*
X161263035Y-145189365D01*
X161537664Y-145078986D01*
X161785482Y-144917150D01*
X161996965Y-144710077D01*
X162110000Y-144544708D01*
X162223035Y-144710077D01*
X162434518Y-144917150D01*
X162682336Y-145078986D01*
X162956965Y-145189365D01*
X163019969Y-145201302D01*
X163253000Y-145080246D01*
X163253000Y-143667000D01*
X163507000Y-143667000D01*
X163507000Y-145080246D01*
X163740031Y-145201302D01*
X163803035Y-145189365D01*
X164077664Y-145078986D01*
X164325482Y-144917150D01*
X164536965Y-144710077D01*
X164650000Y-144544708D01*
X164763035Y-144710077D01*
X164974518Y-144917150D01*
X165222336Y-145078986D01*
X165496965Y-145189365D01*
X165559969Y-145201302D01*
X165793000Y-145080246D01*
X165793000Y-143667000D01*
X166047000Y-143667000D01*
X166047000Y-145080246D01*
X166280031Y-145201302D01*
X166343035Y-145189365D01*
X166617664Y-145078986D01*
X166865482Y-144917150D01*
X167076965Y-144710077D01*
X167190000Y-144544708D01*
X167303035Y-144710077D01*
X167514518Y-144917150D01*
X167762336Y-145078986D01*
X168036965Y-145189365D01*
X168099969Y-145201302D01*
X168333000Y-145080246D01*
X168333000Y-143667000D01*
X168587000Y-143667000D01*
X168587000Y-145080246D01*
X168820031Y-145201302D01*
X168883035Y-145189365D01*
X169157664Y-145078986D01*
X169405482Y-144917150D01*
X169616965Y-144710077D01*
X169730000Y-144544708D01*
X169843035Y-144710077D01*
X170054518Y-144917150D01*
X170302336Y-145078986D01*
X170576965Y-145189365D01*
X170639969Y-145201302D01*
X170873000Y-145080246D01*
X170873000Y-143667000D01*
X171127000Y-143667000D01*
X171127000Y-145080246D01*
X171360031Y-145201302D01*
X171423035Y-145189365D01*
X171697664Y-145078986D01*
X171945482Y-144917150D01*
X172156965Y-144710077D01*
X172323987Y-144465725D01*
X172440129Y-144193483D01*
X172500927Y-143903814D01*
X172349324Y-143667000D01*
X171127000Y-143667000D01*
X170873000Y-143667000D01*
X168587000Y-143667000D01*
X168333000Y-143667000D01*
X166047000Y-143667000D01*
X165793000Y-143667000D01*
X163507000Y-143667000D01*
X163253000Y-143667000D01*
X160967000Y-143667000D01*
X160713000Y-143667000D01*
X159490676Y-143667000D01*
X159339073Y-143903814D01*
X113275792Y-143903814D01*
X116453542Y-140726064D01*
X159335000Y-140726064D01*
X159335000Y-141273935D01*
X159356776Y-141495031D01*
X159442834Y-141778724D01*
X159582583Y-142040178D01*
X159770655Y-142269345D01*
X159778870Y-142276087D01*
X159683035Y-142369923D01*
X159516013Y-142614275D01*
X159399871Y-142886517D01*
X159339073Y-143176186D01*
X159490676Y-143413000D01*
X160713000Y-143413000D01*
X160713000Y-143393000D01*
X160967000Y-143393000D01*
X160967000Y-143413000D01*
X163253000Y-143413000D01*
X163253000Y-143393000D01*
X163507000Y-143393000D01*
X163507000Y-143413000D01*
X165793000Y-143413000D01*
X165793000Y-143393000D01*
X166047000Y-143393000D01*
X166047000Y-143413000D01*
X168333000Y-143413000D01*
X168333000Y-143393000D01*
X168587000Y-143393000D01*
X168587000Y-143413000D01*
X170873000Y-143413000D01*
X170873000Y-143393000D01*
X171127000Y-143393000D01*
X171127000Y-143413000D01*
X172349324Y-143413000D01*
X172500927Y-143176186D01*
X172440129Y-142886517D01*
X172323987Y-142614275D01*
X172180639Y-142404558D01*
X172193776Y-142393776D01*
X172327227Y-142231167D01*
X172426389Y-142045647D01*
X172487453Y-141844346D01*
X172508072Y-141635000D01*
X172508072Y-140365000D01*
X172487453Y-140155654D01*
X172426389Y-139954353D01*
X172327227Y-139768833D01*
X172193776Y-139606224D01*
X172031167Y-139472773D01*
X171845647Y-139373611D01*
X171644346Y-139312547D01*
X171435000Y-139291928D01*
X170565000Y-139291928D01*
X170355654Y-139312547D01*
X170154353Y-139373611D01*
X169968833Y-139472773D01*
X169806224Y-139606224D01*
X169672773Y-139768833D01*
X169628560Y-139851549D01*
X169529345Y-139730655D01*
X169300179Y-139542583D01*
X169038725Y-139402834D01*
X168755032Y-139316776D01*
X168460000Y-139287718D01*
X168164969Y-139316776D01*
X167881276Y-139402834D01*
X167619822Y-139542583D01*
X167390655Y-139730655D01*
X167202583Y-139959821D01*
X167190000Y-139983362D01*
X167177417Y-139959821D01*
X166989345Y-139730655D01*
X166760179Y-139542583D01*
X166498725Y-139402834D01*
X166215032Y-139316776D01*
X165920000Y-139287718D01*
X165624969Y-139316776D01*
X165341276Y-139402834D01*
X165079822Y-139542583D01*
X164850655Y-139730655D01*
X164662583Y-139959821D01*
X164650000Y-139983362D01*
X164637417Y-139959821D01*
X164449345Y-139730655D01*
X164220179Y-139542583D01*
X163958725Y-139402834D01*
X163675032Y-139316776D01*
X163380000Y-139287718D01*
X163084969Y-139316776D01*
X162801276Y-139402834D01*
X162539822Y-139542583D01*
X162310655Y-139730655D01*
X162122583Y-139959821D01*
X162110000Y-139983362D01*
X162097417Y-139959821D01*
X161909345Y-139730655D01*
X161680179Y-139542583D01*
X161418725Y-139402834D01*
X161135032Y-139316776D01*
X160840000Y-139287718D01*
X160544969Y-139316776D01*
X160261276Y-139402834D01*
X159999822Y-139542583D01*
X159770655Y-139730655D01*
X159582583Y-139959821D01*
X159442834Y-140221275D01*
X159356776Y-140504968D01*
X159335000Y-140726064D01*
X116453542Y-140726064D01*
X118052606Y-139127000D01*
X154000000Y-139127000D01*
X154024776Y-139124560D01*
X154048601Y-139117333D01*
X154070557Y-139105597D01*
X154089803Y-139089803D01*
X167552606Y-125627000D01*
X175873000Y-125627000D01*
X175873000Y-148873000D01*
M02*
