M48
; DRILL file {KiCad 5.1.5} date Sun 15 Dec 2019 08:35:21 PM EST
; FORMAT={-:-/ absolute / inch / decimal}
; #@! TF.CreationDate,2019-12-15T20:35:21-05:00
; #@! TF.GenerationSoftware,Kicad,Pcbnew,5.1.5
; #@! TF.FileFunction,Plated,1,2,PTH
FMAT,2
INCH
T1C0.0157
T2C0.0449
T3C0.0472
T4C0.0630
%
G90
G05
T1
X2.3425Y-5.7677
X3.5236Y-5.7677
X4.7047Y-5.7677
X5.6496Y-5.8071
X6.85Y-5.05
T2
X6.3323Y-5.5512
X6.3323Y-5.6512
X6.4323Y-5.5512
X6.4323Y-5.6512
X6.5323Y-5.5512
X6.5323Y-5.6512
X6.6323Y-5.5512
X6.6323Y-5.6512
X6.7323Y-5.5512
X6.7323Y-5.6512
T3
X7.6165Y-5.5118
X7.7165Y-5.5118
X7.2228Y-5.5118
X7.3228Y-5.5118
X4.6063Y-4.6457
X4.7688Y-4.8207
X4.8813Y-4.8457
X4.9938Y-4.8207
X5.1563Y-4.6707
X2.2441Y-4.6457
X2.4066Y-4.8207
X2.5191Y-4.8457
X2.6316Y-4.8207
X2.7941Y-4.6707
X4.2307Y-5.5118
X4.3307Y-5.5118
X7.2435Y-4.4207
X7.2435Y-4.6207
X3.4252Y-4.6457
X3.5877Y-4.8207
X3.7002Y-4.8457
X3.8127Y-4.8207
X3.9752Y-4.6707
X5.7874Y-4.6457
X5.9499Y-4.8207
X6.0624Y-4.8457
X6.1749Y-4.8207
X6.3374Y-4.6707
T4
X3.3752Y-4.1957
X3.5252Y-4.5457
X3.8752Y-4.5457
X5.7374Y-4.1957
X5.8874Y-4.5457
X6.2374Y-4.5457
X4.5563Y-4.1957
X4.7063Y-4.5457
X5.0563Y-4.5457
X2.1941Y-4.1957
X2.3441Y-4.5457
X2.6941Y-4.5457
X7.0935Y-4.6207
X7.3935Y-4.6207
T0
M30
