G04 #@! TF.GenerationSoftware,KiCad,Pcbnew,5.1.5*
G04 #@! TF.CreationDate,2019-12-15T20:35:18-05:00*
G04 #@! TF.ProjectId,input_output_board,696e7075-745f-46f7-9574-7075745f626f,1*
G04 #@! TF.SameCoordinates,Original*
G04 #@! TF.FileFunction,Soldermask,Bot*
G04 #@! TF.FilePolarity,Negative*
%FSLAX46Y46*%
G04 Gerber Fmt 4.6, Leading zero omitted, Abs format (unit mm)*
G04 Created by KiCad (PCBNEW 5.1.5) date 2019-12-15 20:35:18*
%MOMM*%
%LPD*%
G04 APERTURE LIST*
%ADD10C,0.010000*%
%ADD11C,0.100000*%
G04 APERTURE END LIST*
D10*
G36*
X143964017Y-141444870D02*
G01*
X143897373Y-141451962D01*
X143834466Y-141465651D01*
X143777671Y-141485938D01*
X143735964Y-141508374D01*
X143696564Y-141538597D01*
X143660272Y-141574962D01*
X143631130Y-141613313D01*
X143626351Y-141621135D01*
X143604223Y-141668132D01*
X143586752Y-141723908D01*
X143574503Y-141785536D01*
X143568041Y-141850087D01*
X143567931Y-141914633D01*
X143568346Y-141921836D01*
X143577809Y-142001600D01*
X143595488Y-142072109D01*
X143621524Y-142133524D01*
X143656057Y-142186004D01*
X143699226Y-142229707D01*
X143751172Y-142264792D01*
X143812036Y-142291419D01*
X143881956Y-142309745D01*
X143915183Y-142315160D01*
X143974486Y-142320173D01*
X144037065Y-142320147D01*
X144095646Y-142315086D01*
X144096118Y-142315020D01*
X144169360Y-142299793D01*
X144233678Y-142275973D01*
X144289151Y-142243480D01*
X144335855Y-142202235D01*
X144373868Y-142152161D01*
X144403269Y-142093178D01*
X144424135Y-142025206D01*
X144433667Y-141972512D01*
X144438995Y-141906408D01*
X144437624Y-141839109D01*
X144429966Y-141773218D01*
X144416437Y-141711339D01*
X144397451Y-141656077D01*
X144376842Y-141615451D01*
X144352450Y-141582353D01*
X144320709Y-141548897D01*
X144285801Y-141519285D01*
X144270237Y-141508374D01*
X144220504Y-141482478D01*
X144162642Y-141463180D01*
X144099025Y-141450479D01*
X144032025Y-141444376D01*
X143964017Y-141444870D01*
G37*
X143964017Y-141444870D02*
X143897373Y-141451962D01*
X143834466Y-141465651D01*
X143777671Y-141485938D01*
X143735964Y-141508374D01*
X143696564Y-141538597D01*
X143660272Y-141574962D01*
X143631130Y-141613313D01*
X143626351Y-141621135D01*
X143604223Y-141668132D01*
X143586752Y-141723908D01*
X143574503Y-141785536D01*
X143568041Y-141850087D01*
X143567931Y-141914633D01*
X143568346Y-141921836D01*
X143577809Y-142001600D01*
X143595488Y-142072109D01*
X143621524Y-142133524D01*
X143656057Y-142186004D01*
X143699226Y-142229707D01*
X143751172Y-142264792D01*
X143812036Y-142291419D01*
X143881956Y-142309745D01*
X143915183Y-142315160D01*
X143974486Y-142320173D01*
X144037065Y-142320147D01*
X144095646Y-142315086D01*
X144096118Y-142315020D01*
X144169360Y-142299793D01*
X144233678Y-142275973D01*
X144289151Y-142243480D01*
X144335855Y-142202235D01*
X144373868Y-142152161D01*
X144403269Y-142093178D01*
X144424135Y-142025206D01*
X144433667Y-141972512D01*
X144438995Y-141906408D01*
X144437624Y-141839109D01*
X144429966Y-141773218D01*
X144416437Y-141711339D01*
X144397451Y-141656077D01*
X144376842Y-141615451D01*
X144352450Y-141582353D01*
X144320709Y-141548897D01*
X144285801Y-141519285D01*
X144270237Y-141508374D01*
X144220504Y-141482478D01*
X144162642Y-141463180D01*
X144099025Y-141450479D01*
X144032025Y-141444376D01*
X143964017Y-141444870D01*
G36*
X143273586Y-142515690D02*
G01*
X143236087Y-142540026D01*
X143202162Y-142573278D01*
X143175330Y-142611959D01*
X143174135Y-142614166D01*
X143159741Y-142641137D01*
X143156425Y-143983691D01*
X143516309Y-143983691D01*
X143516309Y-145515380D01*
X144489893Y-145515380D01*
X144489893Y-143983691D01*
X144849777Y-143983691D01*
X144848119Y-143312414D01*
X144846460Y-142641137D01*
X144832303Y-142612698D01*
X144808253Y-142576148D01*
X144775699Y-142543348D01*
X144738541Y-142518099D01*
X144731739Y-142514684D01*
X144697632Y-142498510D01*
X143308570Y-142498510D01*
X143273586Y-142515690D01*
G37*
X143273586Y-142515690D02*
X143236087Y-142540026D01*
X143202162Y-142573278D01*
X143175330Y-142611959D01*
X143174135Y-142614166D01*
X143159741Y-142641137D01*
X143156425Y-143983691D01*
X143516309Y-143983691D01*
X143516309Y-145515380D01*
X144489893Y-145515380D01*
X144489893Y-143983691D01*
X144849777Y-143983691D01*
X144848119Y-143312414D01*
X144846460Y-142641137D01*
X144832303Y-142612698D01*
X144808253Y-142576148D01*
X144775699Y-142543348D01*
X144738541Y-142518099D01*
X144731739Y-142514684D01*
X144697632Y-142498510D01*
X143308570Y-142498510D01*
X143273586Y-142515690D01*
G36*
X149598713Y-142506995D02*
G01*
X149540283Y-142511648D01*
X149489403Y-142518648D01*
X149487351Y-142519017D01*
X149381756Y-142543454D01*
X149284507Y-142576952D01*
X149195241Y-142619743D01*
X149113592Y-142672058D01*
X149039198Y-142734129D01*
X148971695Y-142806189D01*
X148913177Y-142884768D01*
X148898460Y-142907657D01*
X148886721Y-142927510D01*
X148879529Y-142941587D01*
X148878044Y-142946165D01*
X148881732Y-142951119D01*
X148893647Y-142959878D01*
X148914293Y-142972733D01*
X148944172Y-142989976D01*
X148983786Y-143011900D01*
X149033637Y-143038795D01*
X149078760Y-143062783D01*
X149280298Y-143169398D01*
X149295973Y-143140912D01*
X149335521Y-143079022D01*
X149380734Y-143027641D01*
X149432919Y-142985667D01*
X149493383Y-142951997D01*
X149543848Y-142931909D01*
X149564428Y-142926136D01*
X149587613Y-142922603D01*
X149616809Y-142920951D01*
X149649268Y-142920759D01*
X149719567Y-142925279D01*
X149781432Y-142937965D01*
X149836165Y-142959302D01*
X149885071Y-142989775D01*
X149922119Y-143022303D01*
X149961343Y-143067743D01*
X149993555Y-143118625D01*
X150019060Y-143175946D01*
X150038166Y-143240704D01*
X150051178Y-143313894D01*
X150058403Y-143396515D01*
X150060223Y-143472094D01*
X150057155Y-143565320D01*
X150047673Y-143648724D01*
X150031475Y-143723280D01*
X150008256Y-143789959D01*
X149977712Y-143849735D01*
X149939540Y-143903579D01*
X149917555Y-143928520D01*
X149871341Y-143968782D01*
X149818294Y-144000008D01*
X149760074Y-144022199D01*
X149698343Y-144035356D01*
X149634763Y-144039478D01*
X149570995Y-144034566D01*
X149508701Y-144020620D01*
X149449543Y-143997640D01*
X149395182Y-143965628D01*
X149351060Y-143928423D01*
X149333189Y-143908710D01*
X149313871Y-143884396D01*
X149294735Y-143857921D01*
X149277409Y-143831721D01*
X149263522Y-143808237D01*
X149254704Y-143789906D01*
X149252393Y-143780732D01*
X149248506Y-143773437D01*
X149246152Y-143772851D01*
X149239714Y-143775501D01*
X149223762Y-143782934D01*
X149199869Y-143794371D01*
X149169607Y-143809037D01*
X149134548Y-143826154D01*
X149096265Y-143844946D01*
X149056330Y-143864634D01*
X149016316Y-143884443D01*
X148977796Y-143903595D01*
X148942341Y-143921314D01*
X148911525Y-143936821D01*
X148886919Y-143949341D01*
X148870097Y-143958096D01*
X148862631Y-143962309D01*
X148862477Y-143962434D01*
X148864104Y-143968779D01*
X148871769Y-143983029D01*
X148884118Y-144003128D01*
X148899794Y-144027024D01*
X148917442Y-144052663D01*
X148935707Y-144077991D01*
X148953233Y-144100956D01*
X148957139Y-144105839D01*
X149028457Y-144184398D01*
X149107814Y-144254145D01*
X149194150Y-144314487D01*
X149286404Y-144364834D01*
X149383517Y-144404596D01*
X149484428Y-144433183D01*
X149571753Y-144448175D01*
X149615191Y-144451867D01*
X149666303Y-144453705D01*
X149720497Y-144453683D01*
X149773185Y-144451799D01*
X149816699Y-144448384D01*
X149925085Y-144431217D01*
X150027094Y-144403462D01*
X150122662Y-144365148D01*
X150211724Y-144316306D01*
X150294216Y-144256966D01*
X150359526Y-144197888D01*
X150424569Y-144124886D01*
X150479856Y-144045594D01*
X150525647Y-143959453D01*
X150562201Y-143865901D01*
X150589778Y-143764378D01*
X150607628Y-143662076D01*
X150611696Y-143620980D01*
X150614448Y-143570983D01*
X150615886Y-143515514D01*
X150616007Y-143458002D01*
X150614814Y-143401879D01*
X150612305Y-143350574D01*
X150608481Y-143307518D01*
X150607612Y-143300599D01*
X150587442Y-143190986D01*
X150557065Y-143087844D01*
X150516659Y-142991495D01*
X150466400Y-142902260D01*
X150406465Y-142820459D01*
X150337030Y-142746415D01*
X150272486Y-142691213D01*
X150199638Y-142639548D01*
X150126307Y-142597495D01*
X150049634Y-142563772D01*
X149966764Y-142537095D01*
X149889037Y-142518945D01*
X149842176Y-142511857D01*
X149786425Y-142507119D01*
X149725072Y-142504730D01*
X149661405Y-142504689D01*
X149598713Y-142506995D01*
G37*
X149598713Y-142506995D02*
X149540283Y-142511648D01*
X149489403Y-142518648D01*
X149487351Y-142519017D01*
X149381756Y-142543454D01*
X149284507Y-142576952D01*
X149195241Y-142619743D01*
X149113592Y-142672058D01*
X149039198Y-142734129D01*
X148971695Y-142806189D01*
X148913177Y-142884768D01*
X148898460Y-142907657D01*
X148886721Y-142927510D01*
X148879529Y-142941587D01*
X148878044Y-142946165D01*
X148881732Y-142951119D01*
X148893647Y-142959878D01*
X148914293Y-142972733D01*
X148944172Y-142989976D01*
X148983786Y-143011900D01*
X149033637Y-143038795D01*
X149078760Y-143062783D01*
X149280298Y-143169398D01*
X149295973Y-143140912D01*
X149335521Y-143079022D01*
X149380734Y-143027641D01*
X149432919Y-142985667D01*
X149493383Y-142951997D01*
X149543848Y-142931909D01*
X149564428Y-142926136D01*
X149587613Y-142922603D01*
X149616809Y-142920951D01*
X149649268Y-142920759D01*
X149719567Y-142925279D01*
X149781432Y-142937965D01*
X149836165Y-142959302D01*
X149885071Y-142989775D01*
X149922119Y-143022303D01*
X149961343Y-143067743D01*
X149993555Y-143118625D01*
X150019060Y-143175946D01*
X150038166Y-143240704D01*
X150051178Y-143313894D01*
X150058403Y-143396515D01*
X150060223Y-143472094D01*
X150057155Y-143565320D01*
X150047673Y-143648724D01*
X150031475Y-143723280D01*
X150008256Y-143789959D01*
X149977712Y-143849735D01*
X149939540Y-143903579D01*
X149917555Y-143928520D01*
X149871341Y-143968782D01*
X149818294Y-144000008D01*
X149760074Y-144022199D01*
X149698343Y-144035356D01*
X149634763Y-144039478D01*
X149570995Y-144034566D01*
X149508701Y-144020620D01*
X149449543Y-143997640D01*
X149395182Y-143965628D01*
X149351060Y-143928423D01*
X149333189Y-143908710D01*
X149313871Y-143884396D01*
X149294735Y-143857921D01*
X149277409Y-143831721D01*
X149263522Y-143808237D01*
X149254704Y-143789906D01*
X149252393Y-143780732D01*
X149248506Y-143773437D01*
X149246152Y-143772851D01*
X149239714Y-143775501D01*
X149223762Y-143782934D01*
X149199869Y-143794371D01*
X149169607Y-143809037D01*
X149134548Y-143826154D01*
X149096265Y-143844946D01*
X149056330Y-143864634D01*
X149016316Y-143884443D01*
X148977796Y-143903595D01*
X148942341Y-143921314D01*
X148911525Y-143936821D01*
X148886919Y-143949341D01*
X148870097Y-143958096D01*
X148862631Y-143962309D01*
X148862477Y-143962434D01*
X148864104Y-143968779D01*
X148871769Y-143983029D01*
X148884118Y-144003128D01*
X148899794Y-144027024D01*
X148917442Y-144052663D01*
X148935707Y-144077991D01*
X148953233Y-144100956D01*
X148957139Y-144105839D01*
X149028457Y-144184398D01*
X149107814Y-144254145D01*
X149194150Y-144314487D01*
X149286404Y-144364834D01*
X149383517Y-144404596D01*
X149484428Y-144433183D01*
X149571753Y-144448175D01*
X149615191Y-144451867D01*
X149666303Y-144453705D01*
X149720497Y-144453683D01*
X149773185Y-144451799D01*
X149816699Y-144448384D01*
X149925085Y-144431217D01*
X150027094Y-144403462D01*
X150122662Y-144365148D01*
X150211724Y-144316306D01*
X150294216Y-144256966D01*
X150359526Y-144197888D01*
X150424569Y-144124886D01*
X150479856Y-144045594D01*
X150525647Y-143959453D01*
X150562201Y-143865901D01*
X150589778Y-143764378D01*
X150607628Y-143662076D01*
X150611696Y-143620980D01*
X150614448Y-143570983D01*
X150615886Y-143515514D01*
X150616007Y-143458002D01*
X150614814Y-143401879D01*
X150612305Y-143350574D01*
X150608481Y-143307518D01*
X150607612Y-143300599D01*
X150587442Y-143190986D01*
X150557065Y-143087844D01*
X150516659Y-142991495D01*
X150466400Y-142902260D01*
X150406465Y-142820459D01*
X150337030Y-142746415D01*
X150272486Y-142691213D01*
X150199638Y-142639548D01*
X150126307Y-142597495D01*
X150049634Y-142563772D01*
X149966764Y-142537095D01*
X149889037Y-142518945D01*
X149842176Y-142511857D01*
X149786425Y-142507119D01*
X149725072Y-142504730D01*
X149661405Y-142504689D01*
X149598713Y-142506995D01*
G36*
X151446514Y-142506461D02*
G01*
X151392187Y-142509564D01*
X151343560Y-142514237D01*
X151311056Y-142519037D01*
X151208533Y-142542447D01*
X151114234Y-142574385D01*
X151026962Y-142615315D01*
X150962625Y-142654028D01*
X150897270Y-142703159D01*
X150834298Y-142761337D01*
X150776572Y-142825531D01*
X150726957Y-142892707D01*
X150707322Y-142924332D01*
X150690483Y-142953279D01*
X150791543Y-143006020D01*
X150833094Y-143027687D01*
X150880970Y-143052624D01*
X150930485Y-143078392D01*
X150976955Y-143102553D01*
X150998666Y-143113830D01*
X151104729Y-143168900D01*
X151128891Y-143125289D01*
X151154881Y-143085855D01*
X151188155Y-143046541D01*
X151225574Y-143010466D01*
X151264001Y-142980751D01*
X151289478Y-142965579D01*
X151327961Y-142946898D01*
X151360148Y-142934072D01*
X151390089Y-142926115D01*
X151421830Y-142922038D01*
X151459418Y-142920852D01*
X151472412Y-142920913D01*
X151545804Y-142926784D01*
X151612091Y-142942801D01*
X151671220Y-142968905D01*
X151723137Y-143005036D01*
X151767786Y-143051134D01*
X151805113Y-143107143D01*
X151835064Y-143173001D01*
X151857583Y-143248650D01*
X151872617Y-143334032D01*
X151875157Y-143356479D01*
X151881310Y-143458253D01*
X151878666Y-143554590D01*
X151867386Y-143644769D01*
X151847629Y-143728071D01*
X151819557Y-143803777D01*
X151783329Y-143871166D01*
X151750415Y-143916409D01*
X151719824Y-143946735D01*
X151680577Y-143975640D01*
X151636380Y-144000710D01*
X151593335Y-144018723D01*
X151571286Y-144025819D01*
X151551970Y-144030627D01*
X151531958Y-144033587D01*
X151507822Y-144035137D01*
X151476135Y-144035714D01*
X151460010Y-144035771D01*
X151408319Y-144034583D01*
X151365472Y-144030427D01*
X151328127Y-144022635D01*
X151292941Y-144010541D01*
X151262068Y-143996298D01*
X151206982Y-143961594D01*
X151157551Y-143916487D01*
X151114853Y-143862102D01*
X151086532Y-143813200D01*
X151076846Y-143794096D01*
X151069463Y-143779953D01*
X151066006Y-143773873D01*
X151060271Y-143776038D01*
X151045070Y-143783080D01*
X151021969Y-143794210D01*
X150992537Y-143808639D01*
X150958338Y-143825579D01*
X150920941Y-143844242D01*
X150881912Y-143863839D01*
X150842818Y-143883581D01*
X150805226Y-143902680D01*
X150770702Y-143920347D01*
X150740813Y-143935794D01*
X150717127Y-143948232D01*
X150701209Y-143956872D01*
X150695079Y-143960552D01*
X150691113Y-143964629D01*
X150690379Y-143970342D01*
X150693704Y-143979551D01*
X150701913Y-143994118D01*
X150715833Y-144015906D01*
X150727414Y-144033438D01*
X150776620Y-144102628D01*
X150826649Y-144162389D01*
X150880241Y-144215545D01*
X150940138Y-144264919D01*
X150980497Y-144294078D01*
X151045914Y-144334299D01*
X151119532Y-144370903D01*
X151197303Y-144402217D01*
X151275180Y-144426571D01*
X151332886Y-144439568D01*
X151364707Y-144443964D01*
X151405564Y-144447563D01*
X151452110Y-144450261D01*
X151500998Y-144451955D01*
X151548881Y-144452539D01*
X151592413Y-144451911D01*
X151628246Y-144449965D01*
X151637662Y-144449034D01*
X151746000Y-144431041D01*
X151848229Y-144402783D01*
X151943890Y-144364617D01*
X152032525Y-144316900D01*
X152113674Y-144259991D01*
X152186879Y-144194247D01*
X152251680Y-144120027D01*
X152307619Y-144037686D01*
X152354237Y-143947585D01*
X152386018Y-143865680D01*
X152413868Y-143764847D01*
X152432646Y-143657957D01*
X152442352Y-143547378D01*
X152442985Y-143435477D01*
X152434543Y-143324623D01*
X152417025Y-143217182D01*
X152390431Y-143115522D01*
X152386397Y-143103125D01*
X152350638Y-143011570D01*
X152306562Y-142927825D01*
X152252817Y-142849649D01*
X152189003Y-142775800D01*
X152113145Y-142704840D01*
X152030958Y-142644401D01*
X151942198Y-142594355D01*
X151846624Y-142554571D01*
X151743993Y-142524922D01*
X151698755Y-142515466D01*
X151660881Y-142510304D01*
X151613723Y-142506850D01*
X151560278Y-142505076D01*
X151503543Y-142504956D01*
X151446514Y-142506461D01*
G37*
X151446514Y-142506461D02*
X151392187Y-142509564D01*
X151343560Y-142514237D01*
X151311056Y-142519037D01*
X151208533Y-142542447D01*
X151114234Y-142574385D01*
X151026962Y-142615315D01*
X150962625Y-142654028D01*
X150897270Y-142703159D01*
X150834298Y-142761337D01*
X150776572Y-142825531D01*
X150726957Y-142892707D01*
X150707322Y-142924332D01*
X150690483Y-142953279D01*
X150791543Y-143006020D01*
X150833094Y-143027687D01*
X150880970Y-143052624D01*
X150930485Y-143078392D01*
X150976955Y-143102553D01*
X150998666Y-143113830D01*
X151104729Y-143168900D01*
X151128891Y-143125289D01*
X151154881Y-143085855D01*
X151188155Y-143046541D01*
X151225574Y-143010466D01*
X151264001Y-142980751D01*
X151289478Y-142965579D01*
X151327961Y-142946898D01*
X151360148Y-142934072D01*
X151390089Y-142926115D01*
X151421830Y-142922038D01*
X151459418Y-142920852D01*
X151472412Y-142920913D01*
X151545804Y-142926784D01*
X151612091Y-142942801D01*
X151671220Y-142968905D01*
X151723137Y-143005036D01*
X151767786Y-143051134D01*
X151805113Y-143107143D01*
X151835064Y-143173001D01*
X151857583Y-143248650D01*
X151872617Y-143334032D01*
X151875157Y-143356479D01*
X151881310Y-143458253D01*
X151878666Y-143554590D01*
X151867386Y-143644769D01*
X151847629Y-143728071D01*
X151819557Y-143803777D01*
X151783329Y-143871166D01*
X151750415Y-143916409D01*
X151719824Y-143946735D01*
X151680577Y-143975640D01*
X151636380Y-144000710D01*
X151593335Y-144018723D01*
X151571286Y-144025819D01*
X151551970Y-144030627D01*
X151531958Y-144033587D01*
X151507822Y-144035137D01*
X151476135Y-144035714D01*
X151460010Y-144035771D01*
X151408319Y-144034583D01*
X151365472Y-144030427D01*
X151328127Y-144022635D01*
X151292941Y-144010541D01*
X151262068Y-143996298D01*
X151206982Y-143961594D01*
X151157551Y-143916487D01*
X151114853Y-143862102D01*
X151086532Y-143813200D01*
X151076846Y-143794096D01*
X151069463Y-143779953D01*
X151066006Y-143773873D01*
X151060271Y-143776038D01*
X151045070Y-143783080D01*
X151021969Y-143794210D01*
X150992537Y-143808639D01*
X150958338Y-143825579D01*
X150920941Y-143844242D01*
X150881912Y-143863839D01*
X150842818Y-143883581D01*
X150805226Y-143902680D01*
X150770702Y-143920347D01*
X150740813Y-143935794D01*
X150717127Y-143948232D01*
X150701209Y-143956872D01*
X150695079Y-143960552D01*
X150691113Y-143964629D01*
X150690379Y-143970342D01*
X150693704Y-143979551D01*
X150701913Y-143994118D01*
X150715833Y-144015906D01*
X150727414Y-144033438D01*
X150776620Y-144102628D01*
X150826649Y-144162389D01*
X150880241Y-144215545D01*
X150940138Y-144264919D01*
X150980497Y-144294078D01*
X151045914Y-144334299D01*
X151119532Y-144370903D01*
X151197303Y-144402217D01*
X151275180Y-144426571D01*
X151332886Y-144439568D01*
X151364707Y-144443964D01*
X151405564Y-144447563D01*
X151452110Y-144450261D01*
X151500998Y-144451955D01*
X151548881Y-144452539D01*
X151592413Y-144451911D01*
X151628246Y-144449965D01*
X151637662Y-144449034D01*
X151746000Y-144431041D01*
X151848229Y-144402783D01*
X151943890Y-144364617D01*
X152032525Y-144316900D01*
X152113674Y-144259991D01*
X152186879Y-144194247D01*
X152251680Y-144120027D01*
X152307619Y-144037686D01*
X152354237Y-143947585D01*
X152386018Y-143865680D01*
X152413868Y-143764847D01*
X152432646Y-143657957D01*
X152442352Y-143547378D01*
X152442985Y-143435477D01*
X152434543Y-143324623D01*
X152417025Y-143217182D01*
X152390431Y-143115522D01*
X152386397Y-143103125D01*
X152350638Y-143011570D01*
X152306562Y-142927825D01*
X152252817Y-142849649D01*
X152189003Y-142775800D01*
X152113145Y-142704840D01*
X152030958Y-142644401D01*
X151942198Y-142594355D01*
X151846624Y-142554571D01*
X151743993Y-142524922D01*
X151698755Y-142515466D01*
X151660881Y-142510304D01*
X151613723Y-142506850D01*
X151560278Y-142505076D01*
X151503543Y-142504956D01*
X151446514Y-142506461D01*
G36*
X137253629Y-141847228D02*
G01*
X137107942Y-141858972D01*
X136968141Y-141881382D01*
X136834377Y-141914392D01*
X136706799Y-141957939D01*
X136585555Y-142011959D01*
X136470797Y-142076388D01*
X136362672Y-142151163D01*
X136261331Y-142236220D01*
X136166923Y-142331494D01*
X136108050Y-142400482D01*
X136024425Y-142514266D01*
X135951279Y-142634597D01*
X135888662Y-142761302D01*
X135836630Y-142894209D01*
X135795233Y-143033146D01*
X135764527Y-143177939D01*
X135744562Y-143328417D01*
X135735394Y-143484406D01*
X135735824Y-143611621D01*
X135745558Y-143764367D01*
X135765516Y-143910268D01*
X135795790Y-144049629D01*
X135836471Y-144182756D01*
X135887650Y-144309952D01*
X135949418Y-144431523D01*
X136009469Y-144529394D01*
X136094154Y-144646545D01*
X136185605Y-144753302D01*
X136283788Y-144849646D01*
X136388670Y-144935554D01*
X136500216Y-145011006D01*
X136618392Y-145075980D01*
X136743163Y-145130454D01*
X136874495Y-145174407D01*
X137012355Y-145207819D01*
X137129102Y-145227182D01*
X137164415Y-145230919D01*
X137208582Y-145234087D01*
X137258820Y-145236623D01*
X137312349Y-145238463D01*
X137366388Y-145239545D01*
X137418155Y-145239805D01*
X137464869Y-145239180D01*
X137503750Y-145237608D01*
X137522876Y-145236112D01*
X137657275Y-145217088D01*
X137785023Y-145187771D01*
X137906653Y-145147977D01*
X138022699Y-145097524D01*
X138133692Y-145036228D01*
X138167798Y-145014577D01*
X138272247Y-144939160D01*
X138366891Y-144856202D01*
X138451751Y-144765667D01*
X138526852Y-144667521D01*
X138592213Y-144561729D01*
X138647858Y-144448256D01*
X138693808Y-144327068D01*
X138730085Y-144198130D01*
X138750592Y-144098413D01*
X138755321Y-144071863D01*
X138759567Y-144048641D01*
X138762651Y-144032431D01*
X138763426Y-144028649D01*
X138766447Y-144014697D01*
X137972461Y-144014697D01*
X137972461Y-144043178D01*
X137970399Y-144071464D01*
X137964750Y-144107682D01*
X137956319Y-144148167D01*
X137945913Y-144189254D01*
X137934338Y-144227277D01*
X137928230Y-144244344D01*
X137895460Y-144313199D01*
X137852571Y-144375168D01*
X137800037Y-144429814D01*
X137738335Y-144476699D01*
X137667938Y-144515388D01*
X137607572Y-144539500D01*
X137565489Y-144552987D01*
X137526148Y-144563402D01*
X137486945Y-144571096D01*
X137445275Y-144576419D01*
X137398534Y-144579719D01*
X137344118Y-144581348D01*
X137293433Y-144581681D01*
X137238056Y-144581251D01*
X137192578Y-144579711D01*
X137154512Y-144576589D01*
X137121372Y-144571413D01*
X137090671Y-144563713D01*
X137059923Y-144553018D01*
X137026640Y-144538855D01*
X136998877Y-144525845D01*
X136925330Y-144483747D01*
X136856773Y-144430778D01*
X136793678Y-144367619D01*
X136736516Y-144294949D01*
X136685760Y-144213449D01*
X136641880Y-144123797D01*
X136605350Y-144026675D01*
X136576639Y-143922761D01*
X136574824Y-143914754D01*
X136554222Y-143801473D01*
X136541020Y-143681199D01*
X136535184Y-143556793D01*
X136536684Y-143431118D01*
X136545488Y-143307036D01*
X136561565Y-143187406D01*
X136584079Y-143078320D01*
X136614340Y-142975755D01*
X136651968Y-142882765D01*
X136696852Y-142799480D01*
X136748877Y-142726030D01*
X136807931Y-142662545D01*
X136873900Y-142609154D01*
X136946671Y-142565988D01*
X137026132Y-142533176D01*
X137070643Y-142520099D01*
X137136212Y-142507518D01*
X137209611Y-142500691D01*
X137287762Y-142499471D01*
X137367588Y-142503711D01*
X137446009Y-142513265D01*
X137519947Y-142527986D01*
X137576096Y-142544156D01*
X137656734Y-142577066D01*
X137728107Y-142618179D01*
X137790398Y-142667662D01*
X137843790Y-142725686D01*
X137888467Y-142792419D01*
X137922595Y-142863028D01*
X137934478Y-142894835D01*
X137946042Y-142930529D01*
X137956454Y-142966999D01*
X137964882Y-143001132D01*
X137970494Y-143029819D01*
X137972461Y-143049489D01*
X137972461Y-143065631D01*
X137863907Y-143067325D01*
X137755353Y-143069018D01*
X138060818Y-143374426D01*
X138366282Y-143679834D01*
X138673193Y-143372876D01*
X138980105Y-143065917D01*
X138743108Y-143065917D01*
X138735484Y-143017858D01*
X138731112Y-142994114D01*
X138724370Y-142962075D01*
X138716075Y-142925436D01*
X138707045Y-142887887D01*
X138704158Y-142876378D01*
X138665543Y-142746936D01*
X138617319Y-142624780D01*
X138559702Y-142510199D01*
X138492904Y-142403485D01*
X138417140Y-142304929D01*
X138332625Y-142214823D01*
X138239571Y-142133457D01*
X138138195Y-142061122D01*
X138077549Y-142024487D01*
X137973893Y-141971012D01*
X137868521Y-141927585D01*
X137759865Y-141893790D01*
X137646353Y-141869211D01*
X137526415Y-141853432D01*
X137405054Y-141846212D01*
X137253629Y-141847228D01*
G37*
X137253629Y-141847228D02*
X137107942Y-141858972D01*
X136968141Y-141881382D01*
X136834377Y-141914392D01*
X136706799Y-141957939D01*
X136585555Y-142011959D01*
X136470797Y-142076388D01*
X136362672Y-142151163D01*
X136261331Y-142236220D01*
X136166923Y-142331494D01*
X136108050Y-142400482D01*
X136024425Y-142514266D01*
X135951279Y-142634597D01*
X135888662Y-142761302D01*
X135836630Y-142894209D01*
X135795233Y-143033146D01*
X135764527Y-143177939D01*
X135744562Y-143328417D01*
X135735394Y-143484406D01*
X135735824Y-143611621D01*
X135745558Y-143764367D01*
X135765516Y-143910268D01*
X135795790Y-144049629D01*
X135836471Y-144182756D01*
X135887650Y-144309952D01*
X135949418Y-144431523D01*
X136009469Y-144529394D01*
X136094154Y-144646545D01*
X136185605Y-144753302D01*
X136283788Y-144849646D01*
X136388670Y-144935554D01*
X136500216Y-145011006D01*
X136618392Y-145075980D01*
X136743163Y-145130454D01*
X136874495Y-145174407D01*
X137012355Y-145207819D01*
X137129102Y-145227182D01*
X137164415Y-145230919D01*
X137208582Y-145234087D01*
X137258820Y-145236623D01*
X137312349Y-145238463D01*
X137366388Y-145239545D01*
X137418155Y-145239805D01*
X137464869Y-145239180D01*
X137503750Y-145237608D01*
X137522876Y-145236112D01*
X137657275Y-145217088D01*
X137785023Y-145187771D01*
X137906653Y-145147977D01*
X138022699Y-145097524D01*
X138133692Y-145036228D01*
X138167798Y-145014577D01*
X138272247Y-144939160D01*
X138366891Y-144856202D01*
X138451751Y-144765667D01*
X138526852Y-144667521D01*
X138592213Y-144561729D01*
X138647858Y-144448256D01*
X138693808Y-144327068D01*
X138730085Y-144198130D01*
X138750592Y-144098413D01*
X138755321Y-144071863D01*
X138759567Y-144048641D01*
X138762651Y-144032431D01*
X138763426Y-144028649D01*
X138766447Y-144014697D01*
X137972461Y-144014697D01*
X137972461Y-144043178D01*
X137970399Y-144071464D01*
X137964750Y-144107682D01*
X137956319Y-144148167D01*
X137945913Y-144189254D01*
X137934338Y-144227277D01*
X137928230Y-144244344D01*
X137895460Y-144313199D01*
X137852571Y-144375168D01*
X137800037Y-144429814D01*
X137738335Y-144476699D01*
X137667938Y-144515388D01*
X137607572Y-144539500D01*
X137565489Y-144552987D01*
X137526148Y-144563402D01*
X137486945Y-144571096D01*
X137445275Y-144576419D01*
X137398534Y-144579719D01*
X137344118Y-144581348D01*
X137293433Y-144581681D01*
X137238056Y-144581251D01*
X137192578Y-144579711D01*
X137154512Y-144576589D01*
X137121372Y-144571413D01*
X137090671Y-144563713D01*
X137059923Y-144553018D01*
X137026640Y-144538855D01*
X136998877Y-144525845D01*
X136925330Y-144483747D01*
X136856773Y-144430778D01*
X136793678Y-144367619D01*
X136736516Y-144294949D01*
X136685760Y-144213449D01*
X136641880Y-144123797D01*
X136605350Y-144026675D01*
X136576639Y-143922761D01*
X136574824Y-143914754D01*
X136554222Y-143801473D01*
X136541020Y-143681199D01*
X136535184Y-143556793D01*
X136536684Y-143431118D01*
X136545488Y-143307036D01*
X136561565Y-143187406D01*
X136584079Y-143078320D01*
X136614340Y-142975755D01*
X136651968Y-142882765D01*
X136696852Y-142799480D01*
X136748877Y-142726030D01*
X136807931Y-142662545D01*
X136873900Y-142609154D01*
X136946671Y-142565988D01*
X137026132Y-142533176D01*
X137070643Y-142520099D01*
X137136212Y-142507518D01*
X137209611Y-142500691D01*
X137287762Y-142499471D01*
X137367588Y-142503711D01*
X137446009Y-142513265D01*
X137519947Y-142527986D01*
X137576096Y-142544156D01*
X137656734Y-142577066D01*
X137728107Y-142618179D01*
X137790398Y-142667662D01*
X137843790Y-142725686D01*
X137888467Y-142792419D01*
X137922595Y-142863028D01*
X137934478Y-142894835D01*
X137946042Y-142930529D01*
X137956454Y-142966999D01*
X137964882Y-143001132D01*
X137970494Y-143029819D01*
X137972461Y-143049489D01*
X137972461Y-143065631D01*
X137863907Y-143067325D01*
X137755353Y-143069018D01*
X138060818Y-143374426D01*
X138366282Y-143679834D01*
X138673193Y-143372876D01*
X138980105Y-143065917D01*
X138743108Y-143065917D01*
X138735484Y-143017858D01*
X138731112Y-142994114D01*
X138724370Y-142962075D01*
X138716075Y-142925436D01*
X138707045Y-142887887D01*
X138704158Y-142876378D01*
X138665543Y-142746936D01*
X138617319Y-142624780D01*
X138559702Y-142510199D01*
X138492904Y-142403485D01*
X138417140Y-142304929D01*
X138332625Y-142214823D01*
X138239571Y-142133457D01*
X138138195Y-142061122D01*
X138077549Y-142024487D01*
X137973893Y-141971012D01*
X137868521Y-141927585D01*
X137759865Y-141893790D01*
X137646353Y-141869211D01*
X137526415Y-141853432D01*
X137405054Y-141846212D01*
X137253629Y-141847228D01*
G36*
X143891344Y-140331147D02*
G01*
X143811194Y-140333671D01*
X143746966Y-140337481D01*
X143545721Y-140358534D01*
X143350287Y-140390529D01*
X143160553Y-140433513D01*
X142976408Y-140487532D01*
X142797738Y-140552634D01*
X142624432Y-140628864D01*
X142456378Y-140716269D01*
X142293464Y-140814896D01*
X142135577Y-140924791D01*
X141982606Y-141046001D01*
X141928809Y-141092335D01*
X141886775Y-141130514D01*
X141839386Y-141175579D01*
X141788802Y-141225322D01*
X141737186Y-141277531D01*
X141686699Y-141329996D01*
X141639505Y-141380506D01*
X141597763Y-141426852D01*
X141569680Y-141459527D01*
X141447963Y-141614213D01*
X141337818Y-141773039D01*
X141239155Y-141936234D01*
X141151881Y-142104021D01*
X141075908Y-142276629D01*
X141011143Y-142454282D01*
X140957496Y-142637208D01*
X140914876Y-142825632D01*
X140883192Y-143019780D01*
X140862354Y-143219878D01*
X140862273Y-143220947D01*
X140859982Y-143260431D01*
X140858217Y-143309707D01*
X140856980Y-143366224D01*
X140856270Y-143427430D01*
X140856088Y-143490774D01*
X140856433Y-143553704D01*
X140857305Y-143613670D01*
X140858704Y-143668120D01*
X140860630Y-143714503D01*
X140862279Y-143740631D01*
X140883117Y-143940949D01*
X140914623Y-144134976D01*
X140956861Y-144322852D01*
X141009893Y-144504718D01*
X141073783Y-144680714D01*
X141148595Y-144850980D01*
X141234390Y-145015656D01*
X141331234Y-145174883D01*
X141439188Y-145328799D01*
X141558316Y-145477547D01*
X141688682Y-145621265D01*
X141730053Y-145663482D01*
X141880662Y-145806564D01*
X142035715Y-145938239D01*
X142195119Y-146058443D01*
X142358779Y-146167114D01*
X142526603Y-146264189D01*
X142698498Y-146349605D01*
X142842726Y-146411022D01*
X143012562Y-146472646D01*
X143183304Y-146523638D01*
X143356098Y-146564186D01*
X143532089Y-146594482D01*
X143712423Y-146614713D01*
X143898246Y-146625070D01*
X144090702Y-146625742D01*
X144133325Y-146624632D01*
X144328090Y-146612550D01*
X144519430Y-146588571D01*
X144707207Y-146552755D01*
X144891278Y-146505167D01*
X145071503Y-146445867D01*
X145247741Y-146374918D01*
X145419851Y-146292382D01*
X145587693Y-146198322D01*
X145751126Y-146092798D01*
X145910009Y-145975875D01*
X146064200Y-145847613D01*
X146213560Y-145708075D01*
X146217157Y-145704516D01*
X146357874Y-145557178D01*
X146486996Y-145405471D01*
X146604573Y-145249293D01*
X146710656Y-145088541D01*
X146805296Y-144923111D01*
X146888543Y-144752902D01*
X146960448Y-144577809D01*
X147021061Y-144397730D01*
X147070434Y-144212563D01*
X147108615Y-144022203D01*
X147134401Y-143837963D01*
X147142685Y-143745192D01*
X147148056Y-143643515D01*
X147150559Y-143535943D01*
X147150507Y-143517789D01*
X146590314Y-143517789D01*
X146582405Y-143687917D01*
X146563615Y-143856775D01*
X146533963Y-144023415D01*
X146493464Y-144186891D01*
X146442136Y-144346258D01*
X146379996Y-144500568D01*
X146372260Y-144517722D01*
X146298408Y-144665441D01*
X146213361Y-144809973D01*
X146118001Y-144950432D01*
X146013208Y-145085936D01*
X145899863Y-145215599D01*
X145778846Y-145338538D01*
X145651036Y-145453868D01*
X145517316Y-145560706D01*
X145378565Y-145658168D01*
X145235663Y-145745369D01*
X145089491Y-145821426D01*
X145060401Y-145835012D01*
X144901689Y-145900932D01*
X144737784Y-145955658D01*
X144568988Y-145999116D01*
X144395605Y-146031229D01*
X144217937Y-146051921D01*
X144179834Y-146054828D01*
X144136065Y-146056948D01*
X144082864Y-146058063D01*
X144023158Y-146058232D01*
X143959873Y-146057515D01*
X143895933Y-146055969D01*
X143834266Y-146053654D01*
X143777796Y-146050627D01*
X143729450Y-146046949D01*
X143714746Y-146045493D01*
X143539192Y-146020913D01*
X143368773Y-145985221D01*
X143203190Y-145938292D01*
X143042145Y-145879998D01*
X142885341Y-145810214D01*
X142732480Y-145728812D01*
X142583264Y-145635668D01*
X142437394Y-145530655D01*
X142365991Y-145473960D01*
X142226170Y-145352678D01*
X142097979Y-145227335D01*
X141981254Y-145097703D01*
X141875830Y-144963554D01*
X141781541Y-144824660D01*
X141698223Y-144680794D01*
X141625712Y-144531727D01*
X141563842Y-144377232D01*
X141555123Y-144352579D01*
X141509144Y-144203208D01*
X141472325Y-144046999D01*
X141444727Y-143885546D01*
X141426414Y-143720441D01*
X141417449Y-143553279D01*
X141417894Y-143385651D01*
X141427813Y-143219151D01*
X141447267Y-143055373D01*
X141476320Y-142895909D01*
X141494627Y-142817653D01*
X141542591Y-142651527D01*
X141601295Y-142491023D01*
X141670892Y-142335880D01*
X141751533Y-142185837D01*
X141843373Y-142040631D01*
X141946564Y-141900001D01*
X142061259Y-141763685D01*
X142186784Y-141632237D01*
X142313762Y-141513725D01*
X142442838Y-141406855D01*
X142575124Y-141310906D01*
X142711735Y-141225155D01*
X142853783Y-141148881D01*
X143002385Y-141081362D01*
X143091529Y-141046111D01*
X143235919Y-140997874D01*
X143387591Y-140958509D01*
X143545044Y-140928134D01*
X143706774Y-140906864D01*
X143871281Y-140894817D01*
X144037062Y-140892110D01*
X144202616Y-140898858D01*
X144366441Y-140915178D01*
X144502295Y-140936496D01*
X144672595Y-140974022D01*
X144837736Y-141022824D01*
X144997775Y-141082927D01*
X145152768Y-141154355D01*
X145302771Y-141237132D01*
X145447841Y-141331281D01*
X145477376Y-141352277D01*
X145608712Y-141453851D01*
X145735190Y-141565137D01*
X145855872Y-141684955D01*
X145969820Y-141812127D01*
X146076097Y-141945472D01*
X146173765Y-142083810D01*
X146261887Y-142225963D01*
X146339524Y-142370750D01*
X146405739Y-142516993D01*
X146408324Y-142523315D01*
X146466056Y-142681198D01*
X146512805Y-142843488D01*
X146548588Y-143009239D01*
X146573423Y-143177503D01*
X146587326Y-143347335D01*
X146590314Y-143517789D01*
X147150507Y-143517789D01*
X147150239Y-143425488D01*
X147147144Y-143315160D01*
X147141320Y-143207970D01*
X147132811Y-143106931D01*
X147121845Y-143016308D01*
X147088039Y-142822432D01*
X147042972Y-142633577D01*
X146986582Y-142449611D01*
X146918808Y-142270398D01*
X146839588Y-142095806D01*
X146748861Y-141925700D01*
X146646565Y-141759946D01*
X146532638Y-141598412D01*
X146407020Y-141440962D01*
X146386061Y-141416406D01*
X146250668Y-141268170D01*
X146108788Y-141130227D01*
X145960695Y-141002724D01*
X145806659Y-140885808D01*
X145646955Y-140779624D01*
X145481853Y-140684320D01*
X145311627Y-140600042D01*
X145136549Y-140526936D01*
X144956891Y-140465149D01*
X144772927Y-140414827D01*
X144584927Y-140376116D01*
X144403076Y-140350257D01*
X144329243Y-140343289D01*
X144246794Y-140337756D01*
X144158755Y-140333716D01*
X144068150Y-140331229D01*
X143978005Y-140330353D01*
X143891344Y-140331147D01*
G37*
X143891344Y-140331147D02*
X143811194Y-140333671D01*
X143746966Y-140337481D01*
X143545721Y-140358534D01*
X143350287Y-140390529D01*
X143160553Y-140433513D01*
X142976408Y-140487532D01*
X142797738Y-140552634D01*
X142624432Y-140628864D01*
X142456378Y-140716269D01*
X142293464Y-140814896D01*
X142135577Y-140924791D01*
X141982606Y-141046001D01*
X141928809Y-141092335D01*
X141886775Y-141130514D01*
X141839386Y-141175579D01*
X141788802Y-141225322D01*
X141737186Y-141277531D01*
X141686699Y-141329996D01*
X141639505Y-141380506D01*
X141597763Y-141426852D01*
X141569680Y-141459527D01*
X141447963Y-141614213D01*
X141337818Y-141773039D01*
X141239155Y-141936234D01*
X141151881Y-142104021D01*
X141075908Y-142276629D01*
X141011143Y-142454282D01*
X140957496Y-142637208D01*
X140914876Y-142825632D01*
X140883192Y-143019780D01*
X140862354Y-143219878D01*
X140862273Y-143220947D01*
X140859982Y-143260431D01*
X140858217Y-143309707D01*
X140856980Y-143366224D01*
X140856270Y-143427430D01*
X140856088Y-143490774D01*
X140856433Y-143553704D01*
X140857305Y-143613670D01*
X140858704Y-143668120D01*
X140860630Y-143714503D01*
X140862279Y-143740631D01*
X140883117Y-143940949D01*
X140914623Y-144134976D01*
X140956861Y-144322852D01*
X141009893Y-144504718D01*
X141073783Y-144680714D01*
X141148595Y-144850980D01*
X141234390Y-145015656D01*
X141331234Y-145174883D01*
X141439188Y-145328799D01*
X141558316Y-145477547D01*
X141688682Y-145621265D01*
X141730053Y-145663482D01*
X141880662Y-145806564D01*
X142035715Y-145938239D01*
X142195119Y-146058443D01*
X142358779Y-146167114D01*
X142526603Y-146264189D01*
X142698498Y-146349605D01*
X142842726Y-146411022D01*
X143012562Y-146472646D01*
X143183304Y-146523638D01*
X143356098Y-146564186D01*
X143532089Y-146594482D01*
X143712423Y-146614713D01*
X143898246Y-146625070D01*
X144090702Y-146625742D01*
X144133325Y-146624632D01*
X144328090Y-146612550D01*
X144519430Y-146588571D01*
X144707207Y-146552755D01*
X144891278Y-146505167D01*
X145071503Y-146445867D01*
X145247741Y-146374918D01*
X145419851Y-146292382D01*
X145587693Y-146198322D01*
X145751126Y-146092798D01*
X145910009Y-145975875D01*
X146064200Y-145847613D01*
X146213560Y-145708075D01*
X146217157Y-145704516D01*
X146357874Y-145557178D01*
X146486996Y-145405471D01*
X146604573Y-145249293D01*
X146710656Y-145088541D01*
X146805296Y-144923111D01*
X146888543Y-144752902D01*
X146960448Y-144577809D01*
X147021061Y-144397730D01*
X147070434Y-144212563D01*
X147108615Y-144022203D01*
X147134401Y-143837963D01*
X147142685Y-143745192D01*
X147148056Y-143643515D01*
X147150559Y-143535943D01*
X147150507Y-143517789D01*
X146590314Y-143517789D01*
X146582405Y-143687917D01*
X146563615Y-143856775D01*
X146533963Y-144023415D01*
X146493464Y-144186891D01*
X146442136Y-144346258D01*
X146379996Y-144500568D01*
X146372260Y-144517722D01*
X146298408Y-144665441D01*
X146213361Y-144809973D01*
X146118001Y-144950432D01*
X146013208Y-145085936D01*
X145899863Y-145215599D01*
X145778846Y-145338538D01*
X145651036Y-145453868D01*
X145517316Y-145560706D01*
X145378565Y-145658168D01*
X145235663Y-145745369D01*
X145089491Y-145821426D01*
X145060401Y-145835012D01*
X144901689Y-145900932D01*
X144737784Y-145955658D01*
X144568988Y-145999116D01*
X144395605Y-146031229D01*
X144217937Y-146051921D01*
X144179834Y-146054828D01*
X144136065Y-146056948D01*
X144082864Y-146058063D01*
X144023158Y-146058232D01*
X143959873Y-146057515D01*
X143895933Y-146055969D01*
X143834266Y-146053654D01*
X143777796Y-146050627D01*
X143729450Y-146046949D01*
X143714746Y-146045493D01*
X143539192Y-146020913D01*
X143368773Y-145985221D01*
X143203190Y-145938292D01*
X143042145Y-145879998D01*
X142885341Y-145810214D01*
X142732480Y-145728812D01*
X142583264Y-145635668D01*
X142437394Y-145530655D01*
X142365991Y-145473960D01*
X142226170Y-145352678D01*
X142097979Y-145227335D01*
X141981254Y-145097703D01*
X141875830Y-144963554D01*
X141781541Y-144824660D01*
X141698223Y-144680794D01*
X141625712Y-144531727D01*
X141563842Y-144377232D01*
X141555123Y-144352579D01*
X141509144Y-144203208D01*
X141472325Y-144046999D01*
X141444727Y-143885546D01*
X141426414Y-143720441D01*
X141417449Y-143553279D01*
X141417894Y-143385651D01*
X141427813Y-143219151D01*
X141447267Y-143055373D01*
X141476320Y-142895909D01*
X141494627Y-142817653D01*
X141542591Y-142651527D01*
X141601295Y-142491023D01*
X141670892Y-142335880D01*
X141751533Y-142185837D01*
X141843373Y-142040631D01*
X141946564Y-141900001D01*
X142061259Y-141763685D01*
X142186784Y-141632237D01*
X142313762Y-141513725D01*
X142442838Y-141406855D01*
X142575124Y-141310906D01*
X142711735Y-141225155D01*
X142853783Y-141148881D01*
X143002385Y-141081362D01*
X143091529Y-141046111D01*
X143235919Y-140997874D01*
X143387591Y-140958509D01*
X143545044Y-140928134D01*
X143706774Y-140906864D01*
X143871281Y-140894817D01*
X144037062Y-140892110D01*
X144202616Y-140898858D01*
X144366441Y-140915178D01*
X144502295Y-140936496D01*
X144672595Y-140974022D01*
X144837736Y-141022824D01*
X144997775Y-141082927D01*
X145152768Y-141154355D01*
X145302771Y-141237132D01*
X145447841Y-141331281D01*
X145477376Y-141352277D01*
X145608712Y-141453851D01*
X145735190Y-141565137D01*
X145855872Y-141684955D01*
X145969820Y-141812127D01*
X146076097Y-141945472D01*
X146173765Y-142083810D01*
X146261887Y-142225963D01*
X146339524Y-142370750D01*
X146405739Y-142516993D01*
X146408324Y-142523315D01*
X146466056Y-142681198D01*
X146512805Y-142843488D01*
X146548588Y-143009239D01*
X146573423Y-143177503D01*
X146587326Y-143347335D01*
X146590314Y-143517789D01*
X147150507Y-143517789D01*
X147150239Y-143425488D01*
X147147144Y-143315160D01*
X147141320Y-143207970D01*
X147132811Y-143106931D01*
X147121845Y-143016308D01*
X147088039Y-142822432D01*
X147042972Y-142633577D01*
X146986582Y-142449611D01*
X146918808Y-142270398D01*
X146839588Y-142095806D01*
X146748861Y-141925700D01*
X146646565Y-141759946D01*
X146532638Y-141598412D01*
X146407020Y-141440962D01*
X146386061Y-141416406D01*
X146250668Y-141268170D01*
X146108788Y-141130227D01*
X145960695Y-141002724D01*
X145806659Y-140885808D01*
X145646955Y-140779624D01*
X145481853Y-140684320D01*
X145311627Y-140600042D01*
X145136549Y-140526936D01*
X144956891Y-140465149D01*
X144772927Y-140414827D01*
X144584927Y-140376116D01*
X144403076Y-140350257D01*
X144329243Y-140343289D01*
X144246794Y-140337756D01*
X144158755Y-140333716D01*
X144068150Y-140331229D01*
X143978005Y-140330353D01*
X143891344Y-140331147D01*
G36*
X150544140Y-140332438D02*
G01*
X150486535Y-140333528D01*
X150436871Y-140335365D01*
X150410948Y-140336902D01*
X150210990Y-140356813D01*
X150016713Y-140387709D01*
X149827917Y-140429657D01*
X149644403Y-140482724D01*
X149465970Y-140546975D01*
X149292418Y-140622478D01*
X149123546Y-140709298D01*
X148959156Y-140807502D01*
X148923731Y-140830536D01*
X148837245Y-140889214D01*
X148757283Y-140947070D01*
X148681398Y-141006117D01*
X148607146Y-141068370D01*
X148532078Y-141135844D01*
X148453749Y-141210551D01*
X148411921Y-141251923D01*
X148340088Y-141325123D01*
X148276278Y-141393319D01*
X148218501Y-141458825D01*
X148164767Y-141523956D01*
X148113087Y-141591028D01*
X148071982Y-141647501D01*
X147964519Y-141809155D01*
X147868018Y-141976539D01*
X147782554Y-142149442D01*
X147708201Y-142327655D01*
X147645034Y-142510969D01*
X147593128Y-142699175D01*
X147552556Y-142892062D01*
X147523394Y-143089422D01*
X147509929Y-143228548D01*
X147507580Y-143268546D01*
X147505782Y-143318095D01*
X147504537Y-143374609D01*
X147503845Y-143435501D01*
X147503705Y-143498185D01*
X147504118Y-143560075D01*
X147505084Y-143618584D01*
X147506604Y-143671126D01*
X147508678Y-143715114D01*
X147509879Y-143732543D01*
X147531573Y-143934793D01*
X147564279Y-144131367D01*
X147608021Y-144322342D01*
X147662822Y-144507794D01*
X147728707Y-144687799D01*
X147805699Y-144862432D01*
X147893822Y-145031770D01*
X147941790Y-145114022D01*
X148030931Y-145251106D01*
X148131383Y-145386642D01*
X148242059Y-145519456D01*
X148361873Y-145648378D01*
X148489740Y-145772234D01*
X148624573Y-145889853D01*
X148757143Y-145994012D01*
X148913941Y-146103406D01*
X149078598Y-146203946D01*
X149249820Y-146295035D01*
X149426312Y-146376078D01*
X149606782Y-146446476D01*
X149789934Y-146505634D01*
X149964378Y-146550685D01*
X150144677Y-146585825D01*
X150327751Y-146610054D01*
X150514702Y-146623470D01*
X150706631Y-146626173D01*
X150777881Y-146624519D01*
X150969240Y-146612242D01*
X151157819Y-146588033D01*
X151343904Y-146551819D01*
X151527785Y-146503527D01*
X151709749Y-146443083D01*
X151890084Y-146370414D01*
X152021216Y-146309433D01*
X152193098Y-146218261D01*
X152358608Y-146117014D01*
X152517318Y-146006205D01*
X152668801Y-145886346D01*
X152812626Y-145757952D01*
X152948367Y-145621533D01*
X153075594Y-145477603D01*
X153193880Y-145326676D01*
X153302795Y-145169262D01*
X153401911Y-145005876D01*
X153490800Y-144837030D01*
X153569033Y-144663237D01*
X153636182Y-144485009D01*
X153688904Y-144313560D01*
X153724565Y-144171917D01*
X153752729Y-144033152D01*
X153773768Y-143894394D01*
X153788056Y-143752771D01*
X153795966Y-143605410D01*
X153797956Y-143475195D01*
X153796084Y-143392007D01*
X153236984Y-143392007D01*
X153236827Y-143566786D01*
X153224429Y-143742295D01*
X153217572Y-143800756D01*
X153189450Y-143970607D01*
X153149328Y-144138398D01*
X153097530Y-144303450D01*
X153034382Y-144465084D01*
X152960208Y-144622620D01*
X152875334Y-144775379D01*
X152780084Y-144922681D01*
X152674782Y-145063847D01*
X152559755Y-145198197D01*
X152538171Y-145221468D01*
X152418546Y-145342243D01*
X152296704Y-145451777D01*
X152171101Y-145551211D01*
X152040196Y-145641686D01*
X151902444Y-145724345D01*
X151756302Y-145800330D01*
X151755517Y-145800710D01*
X151594577Y-145872232D01*
X151432198Y-145931667D01*
X151267662Y-145979179D01*
X151100255Y-146014935D01*
X150929261Y-146039100D01*
X150753966Y-146051841D01*
X150663159Y-146053990D01*
X150619061Y-146053895D01*
X150571610Y-146053062D01*
X150525306Y-146051615D01*
X150484648Y-146049680D01*
X150467823Y-146048567D01*
X150289291Y-146029020D01*
X150113506Y-145997560D01*
X149940980Y-145954472D01*
X149772226Y-145900043D01*
X149607756Y-145834559D01*
X149448085Y-145758305D01*
X149293725Y-145671568D01*
X149145188Y-145574635D01*
X149002989Y-145467790D01*
X148867639Y-145351321D01*
X148739652Y-145225513D01*
X148619542Y-145090653D01*
X148518262Y-144961315D01*
X148430940Y-144832648D01*
X148351745Y-144695414D01*
X148281234Y-144550868D01*
X148219962Y-144400264D01*
X148168484Y-144244858D01*
X148127356Y-144085904D01*
X148123973Y-144070507D01*
X148097754Y-143927927D01*
X148079044Y-143778939D01*
X148067898Y-143626170D01*
X148064368Y-143472246D01*
X148068509Y-143319796D01*
X148080374Y-143171444D01*
X148100018Y-143029819D01*
X148102380Y-143016308D01*
X148139956Y-142839838D01*
X148188804Y-142668476D01*
X148248808Y-142502415D01*
X148319855Y-142341850D01*
X148401827Y-142186973D01*
X148494611Y-142037978D01*
X148598090Y-141895059D01*
X148712150Y-141758409D01*
X148836676Y-141628223D01*
X148971551Y-141504692D01*
X149032251Y-141454034D01*
X149174607Y-141346059D01*
X149321412Y-141249654D01*
X149472738Y-141164790D01*
X149628652Y-141091435D01*
X149789224Y-141029558D01*
X149954523Y-140979127D01*
X150124619Y-140940111D01*
X150198072Y-140927028D01*
X150360297Y-140905892D01*
X150527512Y-140894324D01*
X150696860Y-140892317D01*
X150865484Y-140899862D01*
X151030529Y-140916950D01*
X151114855Y-140929751D01*
X151286330Y-140964865D01*
X151452530Y-141011203D01*
X151613503Y-141068785D01*
X151769296Y-141137633D01*
X151919958Y-141217769D01*
X152065539Y-141309215D01*
X152206085Y-141411992D01*
X152222754Y-141425199D01*
X152328895Y-141515196D01*
X152434390Y-141614625D01*
X152536526Y-141720690D01*
X152632590Y-141830594D01*
X152707415Y-141924902D01*
X152812009Y-142073186D01*
X152905446Y-142226186D01*
X152987605Y-142383457D01*
X153058366Y-142544558D01*
X153117609Y-142709046D01*
X153165212Y-142876477D01*
X153201056Y-143046410D01*
X153225020Y-143218400D01*
X153236984Y-143392007D01*
X153796084Y-143392007D01*
X153794175Y-143307253D01*
X153782678Y-143146707D01*
X153763038Y-142990921D01*
X153734826Y-142837255D01*
X153697614Y-142683070D01*
X153650973Y-142525728D01*
X153636924Y-142483007D01*
X153573486Y-142309881D01*
X153501349Y-142143458D01*
X153419854Y-141982582D01*
X153328342Y-141826096D01*
X153226155Y-141672841D01*
X153112634Y-141521662D01*
X153036558Y-141428808D01*
X153001117Y-141388449D01*
X152958179Y-141342099D01*
X152909751Y-141291739D01*
X152857836Y-141239349D01*
X152804441Y-141186909D01*
X152751570Y-141136399D01*
X152701230Y-141089800D01*
X152655424Y-141049091D01*
X152631334Y-141028635D01*
X152479480Y-140909423D01*
X152324960Y-140802007D01*
X152167164Y-140706129D01*
X152005483Y-140621532D01*
X151839305Y-140547957D01*
X151668022Y-140485146D01*
X151491024Y-140432841D01*
X151307700Y-140390783D01*
X151117441Y-140358715D01*
X151019727Y-140346369D01*
X150979935Y-140342753D01*
X150930007Y-140339603D01*
X150872204Y-140336952D01*
X150808785Y-140334838D01*
X150742010Y-140333294D01*
X150674137Y-140332356D01*
X150607428Y-140332059D01*
X150544140Y-140332438D01*
G37*
X150544140Y-140332438D02*
X150486535Y-140333528D01*
X150436871Y-140335365D01*
X150410948Y-140336902D01*
X150210990Y-140356813D01*
X150016713Y-140387709D01*
X149827917Y-140429657D01*
X149644403Y-140482724D01*
X149465970Y-140546975D01*
X149292418Y-140622478D01*
X149123546Y-140709298D01*
X148959156Y-140807502D01*
X148923731Y-140830536D01*
X148837245Y-140889214D01*
X148757283Y-140947070D01*
X148681398Y-141006117D01*
X148607146Y-141068370D01*
X148532078Y-141135844D01*
X148453749Y-141210551D01*
X148411921Y-141251923D01*
X148340088Y-141325123D01*
X148276278Y-141393319D01*
X148218501Y-141458825D01*
X148164767Y-141523956D01*
X148113087Y-141591028D01*
X148071982Y-141647501D01*
X147964519Y-141809155D01*
X147868018Y-141976539D01*
X147782554Y-142149442D01*
X147708201Y-142327655D01*
X147645034Y-142510969D01*
X147593128Y-142699175D01*
X147552556Y-142892062D01*
X147523394Y-143089422D01*
X147509929Y-143228548D01*
X147507580Y-143268546D01*
X147505782Y-143318095D01*
X147504537Y-143374609D01*
X147503845Y-143435501D01*
X147503705Y-143498185D01*
X147504118Y-143560075D01*
X147505084Y-143618584D01*
X147506604Y-143671126D01*
X147508678Y-143715114D01*
X147509879Y-143732543D01*
X147531573Y-143934793D01*
X147564279Y-144131367D01*
X147608021Y-144322342D01*
X147662822Y-144507794D01*
X147728707Y-144687799D01*
X147805699Y-144862432D01*
X147893822Y-145031770D01*
X147941790Y-145114022D01*
X148030931Y-145251106D01*
X148131383Y-145386642D01*
X148242059Y-145519456D01*
X148361873Y-145648378D01*
X148489740Y-145772234D01*
X148624573Y-145889853D01*
X148757143Y-145994012D01*
X148913941Y-146103406D01*
X149078598Y-146203946D01*
X149249820Y-146295035D01*
X149426312Y-146376078D01*
X149606782Y-146446476D01*
X149789934Y-146505634D01*
X149964378Y-146550685D01*
X150144677Y-146585825D01*
X150327751Y-146610054D01*
X150514702Y-146623470D01*
X150706631Y-146626173D01*
X150777881Y-146624519D01*
X150969240Y-146612242D01*
X151157819Y-146588033D01*
X151343904Y-146551819D01*
X151527785Y-146503527D01*
X151709749Y-146443083D01*
X151890084Y-146370414D01*
X152021216Y-146309433D01*
X152193098Y-146218261D01*
X152358608Y-146117014D01*
X152517318Y-146006205D01*
X152668801Y-145886346D01*
X152812626Y-145757952D01*
X152948367Y-145621533D01*
X153075594Y-145477603D01*
X153193880Y-145326676D01*
X153302795Y-145169262D01*
X153401911Y-145005876D01*
X153490800Y-144837030D01*
X153569033Y-144663237D01*
X153636182Y-144485009D01*
X153688904Y-144313560D01*
X153724565Y-144171917D01*
X153752729Y-144033152D01*
X153773768Y-143894394D01*
X153788056Y-143752771D01*
X153795966Y-143605410D01*
X153797956Y-143475195D01*
X153796084Y-143392007D01*
X153236984Y-143392007D01*
X153236827Y-143566786D01*
X153224429Y-143742295D01*
X153217572Y-143800756D01*
X153189450Y-143970607D01*
X153149328Y-144138398D01*
X153097530Y-144303450D01*
X153034382Y-144465084D01*
X152960208Y-144622620D01*
X152875334Y-144775379D01*
X152780084Y-144922681D01*
X152674782Y-145063847D01*
X152559755Y-145198197D01*
X152538171Y-145221468D01*
X152418546Y-145342243D01*
X152296704Y-145451777D01*
X152171101Y-145551211D01*
X152040196Y-145641686D01*
X151902444Y-145724345D01*
X151756302Y-145800330D01*
X151755517Y-145800710D01*
X151594577Y-145872232D01*
X151432198Y-145931667D01*
X151267662Y-145979179D01*
X151100255Y-146014935D01*
X150929261Y-146039100D01*
X150753966Y-146051841D01*
X150663159Y-146053990D01*
X150619061Y-146053895D01*
X150571610Y-146053062D01*
X150525306Y-146051615D01*
X150484648Y-146049680D01*
X150467823Y-146048567D01*
X150289291Y-146029020D01*
X150113506Y-145997560D01*
X149940980Y-145954472D01*
X149772226Y-145900043D01*
X149607756Y-145834559D01*
X149448085Y-145758305D01*
X149293725Y-145671568D01*
X149145188Y-145574635D01*
X149002989Y-145467790D01*
X148867639Y-145351321D01*
X148739652Y-145225513D01*
X148619542Y-145090653D01*
X148518262Y-144961315D01*
X148430940Y-144832648D01*
X148351745Y-144695414D01*
X148281234Y-144550868D01*
X148219962Y-144400264D01*
X148168484Y-144244858D01*
X148127356Y-144085904D01*
X148123973Y-144070507D01*
X148097754Y-143927927D01*
X148079044Y-143778939D01*
X148067898Y-143626170D01*
X148064368Y-143472246D01*
X148068509Y-143319796D01*
X148080374Y-143171444D01*
X148100018Y-143029819D01*
X148102380Y-143016308D01*
X148139956Y-142839838D01*
X148188804Y-142668476D01*
X148248808Y-142502415D01*
X148319855Y-142341850D01*
X148401827Y-142186973D01*
X148494611Y-142037978D01*
X148598090Y-141895059D01*
X148712150Y-141758409D01*
X148836676Y-141628223D01*
X148971551Y-141504692D01*
X149032251Y-141454034D01*
X149174607Y-141346059D01*
X149321412Y-141249654D01*
X149472738Y-141164790D01*
X149628652Y-141091435D01*
X149789224Y-141029558D01*
X149954523Y-140979127D01*
X150124619Y-140940111D01*
X150198072Y-140927028D01*
X150360297Y-140905892D01*
X150527512Y-140894324D01*
X150696860Y-140892317D01*
X150865484Y-140899862D01*
X151030529Y-140916950D01*
X151114855Y-140929751D01*
X151286330Y-140964865D01*
X151452530Y-141011203D01*
X151613503Y-141068785D01*
X151769296Y-141137633D01*
X151919958Y-141217769D01*
X152065539Y-141309215D01*
X152206085Y-141411992D01*
X152222754Y-141425199D01*
X152328895Y-141515196D01*
X152434390Y-141614625D01*
X152536526Y-141720690D01*
X152632590Y-141830594D01*
X152707415Y-141924902D01*
X152812009Y-142073186D01*
X152905446Y-142226186D01*
X152987605Y-142383457D01*
X153058366Y-142544558D01*
X153117609Y-142709046D01*
X153165212Y-142876477D01*
X153201056Y-143046410D01*
X153225020Y-143218400D01*
X153236984Y-143392007D01*
X153796084Y-143392007D01*
X153794175Y-143307253D01*
X153782678Y-143146707D01*
X153763038Y-142990921D01*
X153734826Y-142837255D01*
X153697614Y-142683070D01*
X153650973Y-142525728D01*
X153636924Y-142483007D01*
X153573486Y-142309881D01*
X153501349Y-142143458D01*
X153419854Y-141982582D01*
X153328342Y-141826096D01*
X153226155Y-141672841D01*
X153112634Y-141521662D01*
X153036558Y-141428808D01*
X153001117Y-141388449D01*
X152958179Y-141342099D01*
X152909751Y-141291739D01*
X152857836Y-141239349D01*
X152804441Y-141186909D01*
X152751570Y-141136399D01*
X152701230Y-141089800D01*
X152655424Y-141049091D01*
X152631334Y-141028635D01*
X152479480Y-140909423D01*
X152324960Y-140802007D01*
X152167164Y-140706129D01*
X152005483Y-140621532D01*
X151839305Y-140547957D01*
X151668022Y-140485146D01*
X151491024Y-140432841D01*
X151307700Y-140390783D01*
X151117441Y-140358715D01*
X151019727Y-140346369D01*
X150979935Y-140342753D01*
X150930007Y-140339603D01*
X150872204Y-140336952D01*
X150808785Y-140334838D01*
X150742010Y-140333294D01*
X150674137Y-140332356D01*
X150607428Y-140332059D01*
X150544140Y-140332438D01*
G36*
X137229126Y-140351058D02*
G01*
X137171625Y-140352179D01*
X137122152Y-140354052D01*
X137096424Y-140355612D01*
X136895660Y-140375865D01*
X136700799Y-140406998D01*
X136511652Y-140449083D01*
X136328034Y-140502197D01*
X136149758Y-140566414D01*
X135976635Y-140641807D01*
X135808480Y-140728452D01*
X135645105Y-140826424D01*
X135486323Y-140935796D01*
X135331947Y-141056643D01*
X135327459Y-141060382D01*
X135188453Y-141183010D01*
X135055696Y-141313390D01*
X134930637Y-141449922D01*
X134814725Y-141591006D01*
X134709410Y-141735040D01*
X134687935Y-141766772D01*
X134587117Y-141928584D01*
X134497635Y-142094788D01*
X134419404Y-142265638D01*
X134352339Y-142441388D01*
X134296356Y-142622291D01*
X134251369Y-142808602D01*
X134217294Y-143000573D01*
X134194045Y-143198459D01*
X134189330Y-143256798D01*
X134187065Y-143298483D01*
X134185521Y-143349692D01*
X134184663Y-143408226D01*
X134184460Y-143471886D01*
X134184879Y-143538471D01*
X134185888Y-143605783D01*
X134187453Y-143671623D01*
X134189542Y-143733790D01*
X134192122Y-143790085D01*
X134195162Y-143838308D01*
X134198504Y-143875170D01*
X134226460Y-144074747D01*
X134264745Y-144267526D01*
X134313469Y-144453739D01*
X134372741Y-144633618D01*
X134442673Y-144807395D01*
X134523375Y-144975302D01*
X134614956Y-145137569D01*
X134717528Y-145294429D01*
X134831199Y-145446114D01*
X134956082Y-145592854D01*
X135076002Y-145718741D01*
X135225797Y-145860141D01*
X135380263Y-145990056D01*
X135539469Y-146108523D01*
X135703488Y-146215575D01*
X135872390Y-146311248D01*
X136046247Y-146395575D01*
X136225130Y-146468592D01*
X136409111Y-146530333D01*
X136598260Y-146580833D01*
X136792648Y-146620126D01*
X136986475Y-146647588D01*
X137023795Y-146650923D01*
X137071344Y-146653792D01*
X137127005Y-146656175D01*
X137188662Y-146658052D01*
X137254199Y-146659405D01*
X137321498Y-146660213D01*
X137388443Y-146660457D01*
X137452916Y-146660119D01*
X137512803Y-146659177D01*
X137565985Y-146657615D01*
X137610346Y-146655410D01*
X137634497Y-146653525D01*
X137828506Y-146629650D01*
X138015819Y-146595615D01*
X138197171Y-146551193D01*
X138373298Y-146496154D01*
X138544935Y-146430271D01*
X138712815Y-146353315D01*
X138871375Y-146268665D01*
X139030227Y-146171241D01*
X139185021Y-146063131D01*
X139334813Y-145945289D01*
X139478660Y-145818671D01*
X139615620Y-145684232D01*
X139744749Y-145542927D01*
X139865104Y-145395711D01*
X139975743Y-145243540D01*
X140075723Y-145087368D01*
X140128498Y-144995253D01*
X140209020Y-144838195D01*
X140279027Y-144679488D01*
X140338954Y-144517750D01*
X140389239Y-144351596D01*
X140430316Y-144179644D01*
X140462622Y-144000509D01*
X140478425Y-143885342D01*
X140482915Y-143840372D01*
X140486815Y-143785395D01*
X140490077Y-143722796D01*
X140492654Y-143654957D01*
X140494499Y-143584263D01*
X140495141Y-143541433D01*
X139932130Y-143541433D01*
X139931482Y-143604172D01*
X139929964Y-143661771D01*
X139927556Y-143711349D01*
X139925986Y-143732543D01*
X139905162Y-143909014D01*
X139873400Y-144080030D01*
X139830591Y-144245821D01*
X139776625Y-144406618D01*
X139711394Y-144562650D01*
X139634788Y-144714147D01*
X139546700Y-144861340D01*
X139447019Y-145004460D01*
X139335637Y-145143735D01*
X139212444Y-145279396D01*
X139175489Y-145317096D01*
X139097093Y-145393680D01*
X139022366Y-145462159D01*
X138948497Y-145525006D01*
X138872676Y-145584692D01*
X138862687Y-145592229D01*
X138716494Y-145694635D01*
X138566117Y-145785378D01*
X138411538Y-145864464D01*
X138252742Y-145931897D01*
X138089714Y-145987681D01*
X137922438Y-146031821D01*
X137750899Y-146064320D01*
X137575080Y-146085184D01*
X137394966Y-146094417D01*
X137210542Y-146092022D01*
X137101197Y-146085276D01*
X136928438Y-146065420D01*
X136758117Y-146033484D01*
X136590706Y-145989634D01*
X136426681Y-145934036D01*
X136266514Y-145866856D01*
X136110679Y-145788260D01*
X135959650Y-145698414D01*
X135916793Y-145670261D01*
X135829997Y-145609904D01*
X135748592Y-145548706D01*
X135670078Y-145484564D01*
X135591954Y-145415378D01*
X135511720Y-145339047D01*
X135454639Y-145281947D01*
X135361172Y-145183105D01*
X135277764Y-145086730D01*
X135202935Y-144990745D01*
X135135205Y-144893071D01*
X135073094Y-144791630D01*
X135015122Y-144684344D01*
X134983970Y-144621054D01*
X134931327Y-144503047D01*
X134886043Y-144384700D01*
X134847507Y-144263840D01*
X134815109Y-144138295D01*
X134788238Y-144005894D01*
X134766283Y-143864465D01*
X134762032Y-143831762D01*
X134758333Y-143793834D01*
X134755332Y-143745817D01*
X134753028Y-143689816D01*
X134751420Y-143627940D01*
X134750508Y-143562293D01*
X134750292Y-143494983D01*
X134750770Y-143428115D01*
X134751943Y-143363797D01*
X134753810Y-143304133D01*
X134756370Y-143251231D01*
X134759623Y-143207197D01*
X134762185Y-143183740D01*
X134782029Y-143049866D01*
X134805566Y-142925308D01*
X134833464Y-142807354D01*
X134866392Y-142693293D01*
X134905019Y-142580413D01*
X134921888Y-142535825D01*
X134938069Y-142496876D01*
X134959222Y-142450043D01*
X134983954Y-142398088D01*
X135010872Y-142343773D01*
X135038583Y-142289858D01*
X135065693Y-142239105D01*
X135090811Y-142194275D01*
X135111963Y-142159046D01*
X135172902Y-142066427D01*
X135235549Y-141979343D01*
X135302048Y-141895113D01*
X135374542Y-141811056D01*
X135455176Y-141724492D01*
X135479590Y-141699351D01*
X135578364Y-141601816D01*
X135674197Y-141514320D01*
X135768965Y-141435473D01*
X135864543Y-141363885D01*
X135962805Y-141298165D01*
X136065627Y-141236924D01*
X136174884Y-141178770D01*
X136195825Y-141168302D01*
X136314428Y-141112903D01*
X136431206Y-141065414D01*
X136548686Y-141025078D01*
X136669391Y-140991139D01*
X136795849Y-140962838D01*
X136930583Y-140939420D01*
X136986475Y-140931372D01*
X137014069Y-140927752D01*
X137039610Y-140924811D01*
X137064813Y-140922480D01*
X137091392Y-140920689D01*
X137121064Y-140919370D01*
X137155543Y-140918454D01*
X137196545Y-140917872D01*
X137245785Y-140917555D01*
X137304979Y-140917434D01*
X137333740Y-140917425D01*
X137397565Y-140917486D01*
X137450718Y-140917708D01*
X137494928Y-140918164D01*
X137531924Y-140918923D01*
X137563437Y-140920057D01*
X137591196Y-140921635D01*
X137616931Y-140923729D01*
X137642370Y-140926409D01*
X137669245Y-140929746D01*
X137684107Y-140931729D01*
X137860334Y-140960974D01*
X138029329Y-141000060D01*
X138191616Y-141049249D01*
X138347719Y-141108801D01*
X138498163Y-141178978D01*
X138643473Y-141260041D01*
X138784174Y-141352251D01*
X138920790Y-141455869D01*
X139053847Y-141571156D01*
X139144483Y-141658273D01*
X139274764Y-141796492D01*
X139393288Y-141938643D01*
X139500066Y-142084755D01*
X139595114Y-142234854D01*
X139678443Y-142388968D01*
X139750069Y-142547125D01*
X139810003Y-142709351D01*
X139858260Y-142875675D01*
X139894852Y-143046124D01*
X139919794Y-143220725D01*
X139922943Y-143251514D01*
X139926376Y-143296721D01*
X139929030Y-143351198D01*
X139930886Y-143412064D01*
X139931925Y-143476436D01*
X139932130Y-143541433D01*
X140495141Y-143541433D01*
X140495567Y-143513098D01*
X140495809Y-143443845D01*
X140495180Y-143378887D01*
X140493633Y-143320610D01*
X140491120Y-143271396D01*
X140490609Y-143264305D01*
X140469878Y-143065939D01*
X140438098Y-142873114D01*
X140395165Y-142685531D01*
X140340973Y-142502892D01*
X140275416Y-142324901D01*
X140198388Y-142151258D01*
X140109785Y-141981666D01*
X140009500Y-141815828D01*
X139940919Y-141714062D01*
X139819992Y-141552019D01*
X139690071Y-141397885D01*
X139551733Y-141252221D01*
X139405556Y-141115591D01*
X139252116Y-140988554D01*
X139091991Y-140871674D01*
X139040830Y-140837425D01*
X138882197Y-140740007D01*
X138720494Y-140653837D01*
X138554990Y-140578658D01*
X138384960Y-140514211D01*
X138209673Y-140460239D01*
X138028402Y-140416483D01*
X137840419Y-140382688D01*
X137705811Y-140364973D01*
X137665781Y-140361334D01*
X137615626Y-140358168D01*
X137557614Y-140355510D01*
X137494015Y-140353395D01*
X137427098Y-140351857D01*
X137359131Y-140350932D01*
X137292384Y-140350654D01*
X137229126Y-140351058D01*
G37*
X137229126Y-140351058D02*
X137171625Y-140352179D01*
X137122152Y-140354052D01*
X137096424Y-140355612D01*
X136895660Y-140375865D01*
X136700799Y-140406998D01*
X136511652Y-140449083D01*
X136328034Y-140502197D01*
X136149758Y-140566414D01*
X135976635Y-140641807D01*
X135808480Y-140728452D01*
X135645105Y-140826424D01*
X135486323Y-140935796D01*
X135331947Y-141056643D01*
X135327459Y-141060382D01*
X135188453Y-141183010D01*
X135055696Y-141313390D01*
X134930637Y-141449922D01*
X134814725Y-141591006D01*
X134709410Y-141735040D01*
X134687935Y-141766772D01*
X134587117Y-141928584D01*
X134497635Y-142094788D01*
X134419404Y-142265638D01*
X134352339Y-142441388D01*
X134296356Y-142622291D01*
X134251369Y-142808602D01*
X134217294Y-143000573D01*
X134194045Y-143198459D01*
X134189330Y-143256798D01*
X134187065Y-143298483D01*
X134185521Y-143349692D01*
X134184663Y-143408226D01*
X134184460Y-143471886D01*
X134184879Y-143538471D01*
X134185888Y-143605783D01*
X134187453Y-143671623D01*
X134189542Y-143733790D01*
X134192122Y-143790085D01*
X134195162Y-143838308D01*
X134198504Y-143875170D01*
X134226460Y-144074747D01*
X134264745Y-144267526D01*
X134313469Y-144453739D01*
X134372741Y-144633618D01*
X134442673Y-144807395D01*
X134523375Y-144975302D01*
X134614956Y-145137569D01*
X134717528Y-145294429D01*
X134831199Y-145446114D01*
X134956082Y-145592854D01*
X135076002Y-145718741D01*
X135225797Y-145860141D01*
X135380263Y-145990056D01*
X135539469Y-146108523D01*
X135703488Y-146215575D01*
X135872390Y-146311248D01*
X136046247Y-146395575D01*
X136225130Y-146468592D01*
X136409111Y-146530333D01*
X136598260Y-146580833D01*
X136792648Y-146620126D01*
X136986475Y-146647588D01*
X137023795Y-146650923D01*
X137071344Y-146653792D01*
X137127005Y-146656175D01*
X137188662Y-146658052D01*
X137254199Y-146659405D01*
X137321498Y-146660213D01*
X137388443Y-146660457D01*
X137452916Y-146660119D01*
X137512803Y-146659177D01*
X137565985Y-146657615D01*
X137610346Y-146655410D01*
X137634497Y-146653525D01*
X137828506Y-146629650D01*
X138015819Y-146595615D01*
X138197171Y-146551193D01*
X138373298Y-146496154D01*
X138544935Y-146430271D01*
X138712815Y-146353315D01*
X138871375Y-146268665D01*
X139030227Y-146171241D01*
X139185021Y-146063131D01*
X139334813Y-145945289D01*
X139478660Y-145818671D01*
X139615620Y-145684232D01*
X139744749Y-145542927D01*
X139865104Y-145395711D01*
X139975743Y-145243540D01*
X140075723Y-145087368D01*
X140128498Y-144995253D01*
X140209020Y-144838195D01*
X140279027Y-144679488D01*
X140338954Y-144517750D01*
X140389239Y-144351596D01*
X140430316Y-144179644D01*
X140462622Y-144000509D01*
X140478425Y-143885342D01*
X140482915Y-143840372D01*
X140486815Y-143785395D01*
X140490077Y-143722796D01*
X140492654Y-143654957D01*
X140494499Y-143584263D01*
X140495141Y-143541433D01*
X139932130Y-143541433D01*
X139931482Y-143604172D01*
X139929964Y-143661771D01*
X139927556Y-143711349D01*
X139925986Y-143732543D01*
X139905162Y-143909014D01*
X139873400Y-144080030D01*
X139830591Y-144245821D01*
X139776625Y-144406618D01*
X139711394Y-144562650D01*
X139634788Y-144714147D01*
X139546700Y-144861340D01*
X139447019Y-145004460D01*
X139335637Y-145143735D01*
X139212444Y-145279396D01*
X139175489Y-145317096D01*
X139097093Y-145393680D01*
X139022366Y-145462159D01*
X138948497Y-145525006D01*
X138872676Y-145584692D01*
X138862687Y-145592229D01*
X138716494Y-145694635D01*
X138566117Y-145785378D01*
X138411538Y-145864464D01*
X138252742Y-145931897D01*
X138089714Y-145987681D01*
X137922438Y-146031821D01*
X137750899Y-146064320D01*
X137575080Y-146085184D01*
X137394966Y-146094417D01*
X137210542Y-146092022D01*
X137101197Y-146085276D01*
X136928438Y-146065420D01*
X136758117Y-146033484D01*
X136590706Y-145989634D01*
X136426681Y-145934036D01*
X136266514Y-145866856D01*
X136110679Y-145788260D01*
X135959650Y-145698414D01*
X135916793Y-145670261D01*
X135829997Y-145609904D01*
X135748592Y-145548706D01*
X135670078Y-145484564D01*
X135591954Y-145415378D01*
X135511720Y-145339047D01*
X135454639Y-145281947D01*
X135361172Y-145183105D01*
X135277764Y-145086730D01*
X135202935Y-144990745D01*
X135135205Y-144893071D01*
X135073094Y-144791630D01*
X135015122Y-144684344D01*
X134983970Y-144621054D01*
X134931327Y-144503047D01*
X134886043Y-144384700D01*
X134847507Y-144263840D01*
X134815109Y-144138295D01*
X134788238Y-144005894D01*
X134766283Y-143864465D01*
X134762032Y-143831762D01*
X134758333Y-143793834D01*
X134755332Y-143745817D01*
X134753028Y-143689816D01*
X134751420Y-143627940D01*
X134750508Y-143562293D01*
X134750292Y-143494983D01*
X134750770Y-143428115D01*
X134751943Y-143363797D01*
X134753810Y-143304133D01*
X134756370Y-143251231D01*
X134759623Y-143207197D01*
X134762185Y-143183740D01*
X134782029Y-143049866D01*
X134805566Y-142925308D01*
X134833464Y-142807354D01*
X134866392Y-142693293D01*
X134905019Y-142580413D01*
X134921888Y-142535825D01*
X134938069Y-142496876D01*
X134959222Y-142450043D01*
X134983954Y-142398088D01*
X135010872Y-142343773D01*
X135038583Y-142289858D01*
X135065693Y-142239105D01*
X135090811Y-142194275D01*
X135111963Y-142159046D01*
X135172902Y-142066427D01*
X135235549Y-141979343D01*
X135302048Y-141895113D01*
X135374542Y-141811056D01*
X135455176Y-141724492D01*
X135479590Y-141699351D01*
X135578364Y-141601816D01*
X135674197Y-141514320D01*
X135768965Y-141435473D01*
X135864543Y-141363885D01*
X135962805Y-141298165D01*
X136065627Y-141236924D01*
X136174884Y-141178770D01*
X136195825Y-141168302D01*
X136314428Y-141112903D01*
X136431206Y-141065414D01*
X136548686Y-141025078D01*
X136669391Y-140991139D01*
X136795849Y-140962838D01*
X136930583Y-140939420D01*
X136986475Y-140931372D01*
X137014069Y-140927752D01*
X137039610Y-140924811D01*
X137064813Y-140922480D01*
X137091392Y-140920689D01*
X137121064Y-140919370D01*
X137155543Y-140918454D01*
X137196545Y-140917872D01*
X137245785Y-140917555D01*
X137304979Y-140917434D01*
X137333740Y-140917425D01*
X137397565Y-140917486D01*
X137450718Y-140917708D01*
X137494928Y-140918164D01*
X137531924Y-140918923D01*
X137563437Y-140920057D01*
X137591196Y-140921635D01*
X137616931Y-140923729D01*
X137642370Y-140926409D01*
X137669245Y-140929746D01*
X137684107Y-140931729D01*
X137860334Y-140960974D01*
X138029329Y-141000060D01*
X138191616Y-141049249D01*
X138347719Y-141108801D01*
X138498163Y-141178978D01*
X138643473Y-141260041D01*
X138784174Y-141352251D01*
X138920790Y-141455869D01*
X139053847Y-141571156D01*
X139144483Y-141658273D01*
X139274764Y-141796492D01*
X139393288Y-141938643D01*
X139500066Y-142084755D01*
X139595114Y-142234854D01*
X139678443Y-142388968D01*
X139750069Y-142547125D01*
X139810003Y-142709351D01*
X139858260Y-142875675D01*
X139894852Y-143046124D01*
X139919794Y-143220725D01*
X139922943Y-143251514D01*
X139926376Y-143296721D01*
X139929030Y-143351198D01*
X139930886Y-143412064D01*
X139931925Y-143476436D01*
X139932130Y-143541433D01*
X140495141Y-143541433D01*
X140495567Y-143513098D01*
X140495809Y-143443845D01*
X140495180Y-143378887D01*
X140493633Y-143320610D01*
X140491120Y-143271396D01*
X140490609Y-143264305D01*
X140469878Y-143065939D01*
X140438098Y-142873114D01*
X140395165Y-142685531D01*
X140340973Y-142502892D01*
X140275416Y-142324901D01*
X140198388Y-142151258D01*
X140109785Y-141981666D01*
X140009500Y-141815828D01*
X139940919Y-141714062D01*
X139819992Y-141552019D01*
X139690071Y-141397885D01*
X139551733Y-141252221D01*
X139405556Y-141115591D01*
X139252116Y-140988554D01*
X139091991Y-140871674D01*
X139040830Y-140837425D01*
X138882197Y-140740007D01*
X138720494Y-140653837D01*
X138554990Y-140578658D01*
X138384960Y-140514211D01*
X138209673Y-140460239D01*
X138028402Y-140416483D01*
X137840419Y-140382688D01*
X137705811Y-140364973D01*
X137665781Y-140361334D01*
X137615626Y-140358168D01*
X137557614Y-140355510D01*
X137494015Y-140353395D01*
X137427098Y-140351857D01*
X137359131Y-140350932D01*
X137292384Y-140350654D01*
X137229126Y-140351058D01*
D11*
G36*
X161020548Y-142432326D02*
G01*
X161194157Y-142484990D01*
X161354156Y-142570511D01*
X161397729Y-142606271D01*
X161494397Y-142685603D01*
X161573729Y-142782271D01*
X161609489Y-142825844D01*
X161695010Y-142985843D01*
X161747674Y-143159452D01*
X161761000Y-143294757D01*
X161761000Y-143785244D01*
X161747674Y-143920548D01*
X161695010Y-144094157D01*
X161609489Y-144254156D01*
X161573729Y-144297729D01*
X161494397Y-144394397D01*
X161354155Y-144509489D01*
X161194156Y-144595010D01*
X161020547Y-144647674D01*
X160840000Y-144665456D01*
X160659452Y-144647674D01*
X160485843Y-144595010D01*
X160325844Y-144509489D01*
X160282271Y-144473729D01*
X160185603Y-144394397D01*
X160070511Y-144254155D01*
X159984991Y-144094158D01*
X159984990Y-144094156D01*
X159932326Y-143920547D01*
X159919000Y-143785243D01*
X159919000Y-143294756D01*
X159932326Y-143159452D01*
X159984990Y-142985843D01*
X160070511Y-142825844D01*
X160115756Y-142770714D01*
X160185604Y-142685603D01*
X160282272Y-142606271D01*
X160325845Y-142570511D01*
X160485844Y-142484990D01*
X160659453Y-142432326D01*
X160840000Y-142414544D01*
X161020548Y-142432326D01*
G37*
G36*
X166100548Y-142432326D02*
G01*
X166274157Y-142484990D01*
X166434156Y-142570511D01*
X166477729Y-142606271D01*
X166574397Y-142685603D01*
X166653729Y-142782271D01*
X166689489Y-142825844D01*
X166775010Y-142985843D01*
X166827674Y-143159452D01*
X166841000Y-143294757D01*
X166841000Y-143785244D01*
X166827674Y-143920548D01*
X166775010Y-144094157D01*
X166689489Y-144254156D01*
X166653729Y-144297729D01*
X166574397Y-144394397D01*
X166434155Y-144509489D01*
X166274156Y-144595010D01*
X166100547Y-144647674D01*
X165920000Y-144665456D01*
X165739452Y-144647674D01*
X165565843Y-144595010D01*
X165405844Y-144509489D01*
X165362271Y-144473729D01*
X165265603Y-144394397D01*
X165150511Y-144254155D01*
X165064991Y-144094158D01*
X165064990Y-144094156D01*
X165012326Y-143920547D01*
X164999000Y-143785243D01*
X164999000Y-143294756D01*
X165012326Y-143159452D01*
X165064990Y-142985843D01*
X165150511Y-142825844D01*
X165195756Y-142770714D01*
X165265604Y-142685603D01*
X165362272Y-142606271D01*
X165405845Y-142570511D01*
X165565844Y-142484990D01*
X165739453Y-142432326D01*
X165920000Y-142414544D01*
X166100548Y-142432326D01*
G37*
G36*
X168640548Y-142432326D02*
G01*
X168814157Y-142484990D01*
X168974156Y-142570511D01*
X169017729Y-142606271D01*
X169114397Y-142685603D01*
X169193729Y-142782271D01*
X169229489Y-142825844D01*
X169315010Y-142985843D01*
X169367674Y-143159452D01*
X169381000Y-143294757D01*
X169381000Y-143785244D01*
X169367674Y-143920548D01*
X169315010Y-144094157D01*
X169229489Y-144254156D01*
X169193729Y-144297729D01*
X169114397Y-144394397D01*
X168974155Y-144509489D01*
X168814156Y-144595010D01*
X168640547Y-144647674D01*
X168460000Y-144665456D01*
X168279452Y-144647674D01*
X168105843Y-144595010D01*
X167945844Y-144509489D01*
X167902271Y-144473729D01*
X167805603Y-144394397D01*
X167690511Y-144254155D01*
X167604991Y-144094158D01*
X167604990Y-144094156D01*
X167552326Y-143920547D01*
X167539000Y-143785243D01*
X167539000Y-143294756D01*
X167552326Y-143159452D01*
X167604990Y-142985843D01*
X167690511Y-142825844D01*
X167735756Y-142770714D01*
X167805604Y-142685603D01*
X167902272Y-142606271D01*
X167945845Y-142570511D01*
X168105844Y-142484990D01*
X168279453Y-142432326D01*
X168460000Y-142414544D01*
X168640548Y-142432326D01*
G37*
G36*
X171180548Y-142432326D02*
G01*
X171354157Y-142484990D01*
X171514156Y-142570511D01*
X171557729Y-142606271D01*
X171654397Y-142685603D01*
X171733729Y-142782271D01*
X171769489Y-142825844D01*
X171855010Y-142985843D01*
X171907674Y-143159452D01*
X171921000Y-143294757D01*
X171921000Y-143785244D01*
X171907674Y-143920548D01*
X171855010Y-144094157D01*
X171769489Y-144254156D01*
X171733729Y-144297729D01*
X171654397Y-144394397D01*
X171514155Y-144509489D01*
X171354156Y-144595010D01*
X171180547Y-144647674D01*
X171000000Y-144665456D01*
X170819452Y-144647674D01*
X170645843Y-144595010D01*
X170485844Y-144509489D01*
X170442271Y-144473729D01*
X170345603Y-144394397D01*
X170230511Y-144254155D01*
X170144991Y-144094158D01*
X170144990Y-144094156D01*
X170092326Y-143920547D01*
X170079000Y-143785243D01*
X170079000Y-143294756D01*
X170092326Y-143159452D01*
X170144990Y-142985843D01*
X170230511Y-142825844D01*
X170275756Y-142770714D01*
X170345604Y-142685603D01*
X170442272Y-142606271D01*
X170485845Y-142570511D01*
X170645844Y-142484990D01*
X170819453Y-142432326D01*
X171000000Y-142414544D01*
X171180548Y-142432326D01*
G37*
G36*
X163560548Y-142432326D02*
G01*
X163734157Y-142484990D01*
X163894156Y-142570511D01*
X163937729Y-142606271D01*
X164034397Y-142685603D01*
X164113729Y-142782271D01*
X164149489Y-142825844D01*
X164235010Y-142985843D01*
X164287674Y-143159452D01*
X164301000Y-143294757D01*
X164301000Y-143785244D01*
X164287674Y-143920548D01*
X164235010Y-144094157D01*
X164149489Y-144254156D01*
X164113729Y-144297729D01*
X164034397Y-144394397D01*
X163894155Y-144509489D01*
X163734156Y-144595010D01*
X163560547Y-144647674D01*
X163380000Y-144665456D01*
X163199452Y-144647674D01*
X163025843Y-144595010D01*
X162865844Y-144509489D01*
X162822271Y-144473729D01*
X162725603Y-144394397D01*
X162610511Y-144254155D01*
X162524991Y-144094158D01*
X162524990Y-144094156D01*
X162472326Y-143920547D01*
X162459000Y-143785243D01*
X162459000Y-143294756D01*
X162472326Y-143159452D01*
X162524990Y-142985843D01*
X162610511Y-142825844D01*
X162655756Y-142770714D01*
X162725604Y-142685603D01*
X162822272Y-142606271D01*
X162865845Y-142570511D01*
X163025844Y-142484990D01*
X163199453Y-142432326D01*
X163380000Y-142414544D01*
X163560548Y-142432326D01*
G37*
G36*
X166100548Y-139892326D02*
G01*
X166274157Y-139944990D01*
X166434156Y-140030511D01*
X166465477Y-140056216D01*
X166574397Y-140145603D01*
X166653729Y-140242271D01*
X166689489Y-140285844D01*
X166775010Y-140445843D01*
X166827674Y-140619452D01*
X166841000Y-140754757D01*
X166841000Y-141245244D01*
X166827674Y-141380548D01*
X166775010Y-141554157D01*
X166689489Y-141714156D01*
X166659794Y-141750339D01*
X166574397Y-141854397D01*
X166465477Y-141943784D01*
X166434155Y-141969489D01*
X166274156Y-142055010D01*
X166100547Y-142107674D01*
X165920000Y-142125456D01*
X165739452Y-142107674D01*
X165565843Y-142055010D01*
X165405844Y-141969489D01*
X165341082Y-141916340D01*
X165265603Y-141854397D01*
X165150511Y-141714155D01*
X165064991Y-141554158D01*
X165064990Y-141554156D01*
X165012326Y-141380547D01*
X164999000Y-141245243D01*
X164999000Y-140754756D01*
X165012326Y-140619452D01*
X165064990Y-140445843D01*
X165150511Y-140285844D01*
X165195756Y-140230714D01*
X165265604Y-140145603D01*
X165374524Y-140056216D01*
X165405845Y-140030511D01*
X165565844Y-139944990D01*
X165739453Y-139892326D01*
X165920000Y-139874544D01*
X166100548Y-139892326D01*
G37*
G36*
X168640548Y-139892326D02*
G01*
X168814157Y-139944990D01*
X168974156Y-140030511D01*
X169005477Y-140056216D01*
X169114397Y-140145603D01*
X169193729Y-140242271D01*
X169229489Y-140285844D01*
X169315010Y-140445843D01*
X169367674Y-140619452D01*
X169381000Y-140754757D01*
X169381000Y-141245244D01*
X169367674Y-141380548D01*
X169315010Y-141554157D01*
X169229489Y-141714156D01*
X169199794Y-141750339D01*
X169114397Y-141854397D01*
X169005477Y-141943784D01*
X168974155Y-141969489D01*
X168814156Y-142055010D01*
X168640547Y-142107674D01*
X168460000Y-142125456D01*
X168279452Y-142107674D01*
X168105843Y-142055010D01*
X167945844Y-141969489D01*
X167881082Y-141916340D01*
X167805603Y-141854397D01*
X167690511Y-141714155D01*
X167604991Y-141554158D01*
X167604990Y-141554156D01*
X167552326Y-141380547D01*
X167539000Y-141245243D01*
X167539000Y-140754756D01*
X167552326Y-140619452D01*
X167604990Y-140445843D01*
X167690511Y-140285844D01*
X167735756Y-140230714D01*
X167805604Y-140145603D01*
X167914524Y-140056216D01*
X167945845Y-140030511D01*
X168105844Y-139944990D01*
X168279453Y-139892326D01*
X168460000Y-139874544D01*
X168640548Y-139892326D01*
G37*
G36*
X163560548Y-139892326D02*
G01*
X163734157Y-139944990D01*
X163894156Y-140030511D01*
X163925477Y-140056216D01*
X164034397Y-140145603D01*
X164113729Y-140242271D01*
X164149489Y-140285844D01*
X164235010Y-140445843D01*
X164287674Y-140619452D01*
X164301000Y-140754757D01*
X164301000Y-141245244D01*
X164287674Y-141380548D01*
X164235010Y-141554157D01*
X164149489Y-141714156D01*
X164119794Y-141750339D01*
X164034397Y-141854397D01*
X163925477Y-141943784D01*
X163894155Y-141969489D01*
X163734156Y-142055010D01*
X163560547Y-142107674D01*
X163380000Y-142125456D01*
X163199452Y-142107674D01*
X163025843Y-142055010D01*
X162865844Y-141969489D01*
X162801082Y-141916340D01*
X162725603Y-141854397D01*
X162610511Y-141714155D01*
X162524991Y-141554158D01*
X162524990Y-141554156D01*
X162472326Y-141380547D01*
X162459000Y-141245243D01*
X162459000Y-140754756D01*
X162472326Y-140619452D01*
X162524990Y-140445843D01*
X162610511Y-140285844D01*
X162655756Y-140230714D01*
X162725604Y-140145603D01*
X162834524Y-140056216D01*
X162865845Y-140030511D01*
X163025844Y-139944990D01*
X163199453Y-139892326D01*
X163380000Y-139874544D01*
X163560548Y-139892326D01*
G37*
G36*
X161020548Y-139892326D02*
G01*
X161194157Y-139944990D01*
X161354156Y-140030511D01*
X161385477Y-140056216D01*
X161494397Y-140145603D01*
X161573729Y-140242271D01*
X161609489Y-140285844D01*
X161695010Y-140445843D01*
X161747674Y-140619452D01*
X161761000Y-140754757D01*
X161761000Y-141245244D01*
X161747674Y-141380548D01*
X161695010Y-141554157D01*
X161609489Y-141714156D01*
X161579794Y-141750339D01*
X161494397Y-141854397D01*
X161385477Y-141943784D01*
X161354155Y-141969489D01*
X161194156Y-142055010D01*
X161020547Y-142107674D01*
X160840000Y-142125456D01*
X160659452Y-142107674D01*
X160485843Y-142055010D01*
X160325844Y-141969489D01*
X160261082Y-141916340D01*
X160185603Y-141854397D01*
X160070511Y-141714155D01*
X159984991Y-141554158D01*
X159984990Y-141554156D01*
X159932326Y-141380547D01*
X159919000Y-141245243D01*
X159919000Y-140754756D01*
X159932326Y-140619452D01*
X159984990Y-140445843D01*
X160070511Y-140285844D01*
X160115756Y-140230714D01*
X160185604Y-140145603D01*
X160294524Y-140056216D01*
X160325845Y-140030511D01*
X160485844Y-139944990D01*
X160659453Y-139892326D01*
X160840000Y-139874544D01*
X161020548Y-139892326D01*
G37*
G36*
X171600529Y-139887240D02*
G01*
X171675072Y-139909853D01*
X171743784Y-139946580D01*
X171804001Y-139995999D01*
X171853420Y-140056216D01*
X171890147Y-140124928D01*
X171912760Y-140199471D01*
X171921000Y-140283140D01*
X171921000Y-141716860D01*
X171912760Y-141800529D01*
X171890147Y-141875072D01*
X171853420Y-141943784D01*
X171804001Y-142004001D01*
X171743784Y-142053420D01*
X171675072Y-142090147D01*
X171600529Y-142112760D01*
X171516860Y-142121000D01*
X170483140Y-142121000D01*
X170399471Y-142112760D01*
X170324928Y-142090147D01*
X170256216Y-142053420D01*
X170195999Y-142004001D01*
X170146580Y-141943784D01*
X170109853Y-141875072D01*
X170087240Y-141800529D01*
X170079000Y-141716860D01*
X170079000Y-140283140D01*
X170087240Y-140199471D01*
X170109853Y-140124928D01*
X170146580Y-140056216D01*
X170195999Y-139995999D01*
X170256216Y-139946580D01*
X170324928Y-139909853D01*
X170399471Y-139887240D01*
X170483140Y-139879000D01*
X171516860Y-139879000D01*
X171600529Y-139887240D01*
G37*
G36*
X183640548Y-138862326D02*
G01*
X183814157Y-138914990D01*
X183974156Y-139000511D01*
X183988612Y-139012375D01*
X184114397Y-139115603D01*
X184193729Y-139212271D01*
X184229489Y-139255844D01*
X184315010Y-139415843D01*
X184367674Y-139589452D01*
X184381000Y-139724757D01*
X184381000Y-140275244D01*
X184367674Y-140410548D01*
X184315010Y-140584157D01*
X184229489Y-140744156D01*
X184193729Y-140787729D01*
X184114397Y-140884397D01*
X183974155Y-140999489D01*
X183814156Y-141085010D01*
X183640547Y-141137674D01*
X183460000Y-141155456D01*
X183279452Y-141137674D01*
X183105843Y-141085010D01*
X182945844Y-140999489D01*
X182902271Y-140963729D01*
X182805603Y-140884397D01*
X182690511Y-140744155D01*
X182604991Y-140584158D01*
X182604990Y-140584156D01*
X182552326Y-140410547D01*
X182539000Y-140275243D01*
X182539000Y-139724756D01*
X182552326Y-139589452D01*
X182604990Y-139415843D01*
X182690512Y-139255844D01*
X182700832Y-139243270D01*
X182805604Y-139115603D01*
X182931389Y-139012375D01*
X182945845Y-139000511D01*
X183105844Y-138914990D01*
X183279453Y-138862326D01*
X183460000Y-138844544D01*
X183640548Y-138862326D01*
G37*
G36*
X193640548Y-138862326D02*
G01*
X193814157Y-138914990D01*
X193974156Y-139000511D01*
X193988612Y-139012375D01*
X194114397Y-139115603D01*
X194193729Y-139212271D01*
X194229489Y-139255844D01*
X194315010Y-139415843D01*
X194367674Y-139589452D01*
X194381000Y-139724757D01*
X194381000Y-140275244D01*
X194367674Y-140410548D01*
X194315010Y-140584157D01*
X194229489Y-140744156D01*
X194193729Y-140787729D01*
X194114397Y-140884397D01*
X193974155Y-140999489D01*
X193814156Y-141085010D01*
X193640547Y-141137674D01*
X193460000Y-141155456D01*
X193279452Y-141137674D01*
X193105843Y-141085010D01*
X192945844Y-140999489D01*
X192902271Y-140963729D01*
X192805603Y-140884397D01*
X192690511Y-140744155D01*
X192604991Y-140584158D01*
X192604990Y-140584156D01*
X192552326Y-140410547D01*
X192539000Y-140275243D01*
X192539000Y-139724756D01*
X192552326Y-139589452D01*
X192604990Y-139415843D01*
X192690512Y-139255844D01*
X192700832Y-139243270D01*
X192805604Y-139115603D01*
X192931389Y-139012375D01*
X192945845Y-139000511D01*
X193105844Y-138914990D01*
X193279453Y-138862326D01*
X193460000Y-138844544D01*
X193640548Y-138862326D01*
G37*
G36*
X107640548Y-138862326D02*
G01*
X107814157Y-138914990D01*
X107974156Y-139000511D01*
X107988612Y-139012375D01*
X108114397Y-139115603D01*
X108193729Y-139212271D01*
X108229489Y-139255844D01*
X108315010Y-139415843D01*
X108367674Y-139589452D01*
X108381000Y-139724757D01*
X108381000Y-140275244D01*
X108367674Y-140410548D01*
X108315010Y-140584157D01*
X108229489Y-140744156D01*
X108193729Y-140787729D01*
X108114397Y-140884397D01*
X107974155Y-140999489D01*
X107814156Y-141085010D01*
X107640547Y-141137674D01*
X107460000Y-141155456D01*
X107279452Y-141137674D01*
X107105843Y-141085010D01*
X106945844Y-140999489D01*
X106902271Y-140963729D01*
X106805603Y-140884397D01*
X106690511Y-140744155D01*
X106604991Y-140584158D01*
X106604990Y-140584156D01*
X106552326Y-140410547D01*
X106539000Y-140275243D01*
X106539000Y-139724756D01*
X106552326Y-139589452D01*
X106604990Y-139415843D01*
X106690512Y-139255844D01*
X106700832Y-139243270D01*
X106805604Y-139115603D01*
X106931389Y-139012375D01*
X106945845Y-139000511D01*
X107105844Y-138914990D01*
X107279453Y-138862326D01*
X107460000Y-138844544D01*
X107640548Y-138862326D01*
G37*
G36*
X110779561Y-138852966D02*
G01*
X110812383Y-138862923D01*
X110842632Y-138879092D01*
X110869148Y-138900852D01*
X110890908Y-138927368D01*
X110907077Y-138957617D01*
X110917034Y-138990439D01*
X110921000Y-139030713D01*
X110921000Y-140969287D01*
X110917034Y-141009561D01*
X110907077Y-141042383D01*
X110890908Y-141072632D01*
X110869148Y-141099148D01*
X110842632Y-141120908D01*
X110812383Y-141137077D01*
X110779561Y-141147034D01*
X110739287Y-141151000D01*
X109260713Y-141151000D01*
X109220439Y-141147034D01*
X109187617Y-141137077D01*
X109157368Y-141120908D01*
X109130852Y-141099148D01*
X109109092Y-141072632D01*
X109092923Y-141042383D01*
X109082966Y-141009561D01*
X109079000Y-140969287D01*
X109079000Y-139030713D01*
X109082966Y-138990439D01*
X109092923Y-138957617D01*
X109109092Y-138927368D01*
X109130852Y-138900852D01*
X109157368Y-138879092D01*
X109187617Y-138862923D01*
X109220439Y-138852966D01*
X109260713Y-138849000D01*
X110739287Y-138849000D01*
X110779561Y-138852966D01*
G37*
G36*
X196779561Y-138852966D02*
G01*
X196812383Y-138862923D01*
X196842632Y-138879092D01*
X196869148Y-138900852D01*
X196890908Y-138927368D01*
X196907077Y-138957617D01*
X196917034Y-138990439D01*
X196921000Y-139030713D01*
X196921000Y-140969287D01*
X196917034Y-141009561D01*
X196907077Y-141042383D01*
X196890908Y-141072632D01*
X196869148Y-141099148D01*
X196842632Y-141120908D01*
X196812383Y-141137077D01*
X196779561Y-141147034D01*
X196739287Y-141151000D01*
X195260713Y-141151000D01*
X195220439Y-141147034D01*
X195187617Y-141137077D01*
X195157368Y-141120908D01*
X195130852Y-141099148D01*
X195109092Y-141072632D01*
X195092923Y-141042383D01*
X195082966Y-141009561D01*
X195079000Y-140969287D01*
X195079000Y-139030713D01*
X195082966Y-138990439D01*
X195092923Y-138957617D01*
X195109092Y-138927368D01*
X195130852Y-138900852D01*
X195157368Y-138879092D01*
X195187617Y-138862923D01*
X195220439Y-138852966D01*
X195260713Y-138849000D01*
X196739287Y-138849000D01*
X196779561Y-138852966D01*
G37*
G36*
X186779561Y-138852966D02*
G01*
X186812383Y-138862923D01*
X186842632Y-138879092D01*
X186869148Y-138900852D01*
X186890908Y-138927368D01*
X186907077Y-138957617D01*
X186917034Y-138990439D01*
X186921000Y-139030713D01*
X186921000Y-140969287D01*
X186917034Y-141009561D01*
X186907077Y-141042383D01*
X186890908Y-141072632D01*
X186869148Y-141099148D01*
X186842632Y-141120908D01*
X186812383Y-141137077D01*
X186779561Y-141147034D01*
X186739287Y-141151000D01*
X185260713Y-141151000D01*
X185220439Y-141147034D01*
X185187617Y-141137077D01*
X185157368Y-141120908D01*
X185130852Y-141099148D01*
X185109092Y-141072632D01*
X185092923Y-141042383D01*
X185082966Y-141009561D01*
X185079000Y-140969287D01*
X185079000Y-139030713D01*
X185082966Y-138990439D01*
X185092923Y-138957617D01*
X185109092Y-138927368D01*
X185130852Y-138900852D01*
X185157368Y-138879092D01*
X185187617Y-138862923D01*
X185220439Y-138852966D01*
X185260713Y-138849000D01*
X186739287Y-138849000D01*
X186779561Y-138852966D01*
G37*
G36*
X157160933Y-121079893D02*
G01*
X157251157Y-121097839D01*
X157356767Y-121141585D01*
X157506121Y-121203449D01*
X157506122Y-121203450D01*
X157735586Y-121356772D01*
X157930728Y-121551914D01*
X157973322Y-121615661D01*
X158084051Y-121781379D01*
X158145915Y-121930733D01*
X158189661Y-122036343D01*
X158243500Y-122307014D01*
X158243500Y-122582986D01*
X158189821Y-122852855D01*
X158189661Y-122853656D01*
X158084051Y-123108621D01*
X158070068Y-123129548D01*
X157930728Y-123338086D01*
X157735586Y-123533228D01*
X157638749Y-123597932D01*
X157506121Y-123686551D01*
X157368342Y-123743621D01*
X157251157Y-123792161D01*
X157160933Y-123810107D01*
X156980488Y-123846000D01*
X156704512Y-123846000D01*
X156524067Y-123810107D01*
X156433843Y-123792161D01*
X156316658Y-123743621D01*
X156178879Y-123686551D01*
X156046251Y-123597932D01*
X155949414Y-123533228D01*
X155754272Y-123338086D01*
X155614932Y-123129548D01*
X155599387Y-123110606D01*
X155580445Y-123095061D01*
X155558834Y-123083510D01*
X155535385Y-123076397D01*
X155510999Y-123073995D01*
X155486613Y-123076397D01*
X155463164Y-123083510D01*
X155441553Y-123095061D01*
X155422611Y-123110606D01*
X155407066Y-123129548D01*
X155395515Y-123151159D01*
X155388402Y-123174608D01*
X155386000Y-123198994D01*
X155386000Y-123217988D01*
X155332161Y-123488656D01*
X155226551Y-123743621D01*
X155175675Y-123819763D01*
X155073228Y-123973086D01*
X154878086Y-124168228D01*
X154724763Y-124270675D01*
X154648621Y-124321551D01*
X154499267Y-124383415D01*
X154393657Y-124427161D01*
X154303433Y-124445107D01*
X154122988Y-124481000D01*
X153847012Y-124481000D01*
X153666567Y-124445107D01*
X153576343Y-124427161D01*
X153470733Y-124383415D01*
X153321379Y-124321551D01*
X153245237Y-124270675D01*
X153091914Y-124168228D01*
X152896772Y-123973086D01*
X152794325Y-123819763D01*
X152743449Y-123743621D01*
X152637839Y-123488656D01*
X152584000Y-123217988D01*
X152584000Y-122956788D01*
X152581598Y-122932402D01*
X152574485Y-122908953D01*
X152562934Y-122887342D01*
X152547389Y-122868400D01*
X152528447Y-122852855D01*
X152506836Y-122841304D01*
X152483387Y-122834191D01*
X152459001Y-122831789D01*
X152434615Y-122834191D01*
X152411166Y-122841304D01*
X152389555Y-122852855D01*
X152370613Y-122868400D01*
X152355068Y-122887342D01*
X152343517Y-122908953D01*
X152323703Y-122956788D01*
X152280431Y-123061255D01*
X152138053Y-123274339D01*
X151956839Y-123455553D01*
X151743755Y-123597931D01*
X151743754Y-123597932D01*
X151743753Y-123597932D01*
X151506987Y-123696004D01*
X151255639Y-123746000D01*
X150999361Y-123746000D01*
X150748013Y-123696004D01*
X150511247Y-123597932D01*
X150511246Y-123597932D01*
X150511245Y-123597931D01*
X150298161Y-123455553D01*
X150116947Y-123274339D01*
X149974569Y-123061255D01*
X149931297Y-122956788D01*
X149876496Y-122824487D01*
X149826500Y-122573139D01*
X149826500Y-122316861D01*
X149876496Y-122065513D01*
X149974568Y-121828747D01*
X150116947Y-121615661D01*
X150298161Y-121434447D01*
X150414410Y-121356772D01*
X150511245Y-121292069D01*
X150511247Y-121292068D01*
X150748013Y-121193996D01*
X150999361Y-121144000D01*
X151255639Y-121144000D01*
X151506987Y-121193996D01*
X151743753Y-121292068D01*
X151743755Y-121292069D01*
X151840590Y-121356772D01*
X151956839Y-121434447D01*
X152138053Y-121615661D01*
X152280432Y-121828747D01*
X152378504Y-122065513D01*
X152428500Y-122316861D01*
X152428500Y-122548320D01*
X152430902Y-122572706D01*
X152438015Y-122596155D01*
X152449566Y-122617766D01*
X152465111Y-122636708D01*
X152484053Y-122652253D01*
X152505664Y-122663804D01*
X152529113Y-122670917D01*
X152553499Y-122673319D01*
X152577885Y-122670917D01*
X152601334Y-122663804D01*
X152622945Y-122652253D01*
X152641887Y-122636708D01*
X152657432Y-122617766D01*
X152668983Y-122596155D01*
X152743449Y-122416379D01*
X152816526Y-122307012D01*
X152896772Y-122186914D01*
X153091914Y-121991772D01*
X153321378Y-121838450D01*
X153321379Y-121838449D01*
X153470733Y-121776585D01*
X153576343Y-121732839D01*
X153666567Y-121714893D01*
X153847012Y-121679000D01*
X154122988Y-121679000D01*
X154303433Y-121714893D01*
X154393657Y-121732839D01*
X154499267Y-121776585D01*
X154648621Y-121838449D01*
X154648622Y-121838450D01*
X154878086Y-121991772D01*
X155073228Y-122186914D01*
X155166166Y-122326006D01*
X155212568Y-122395452D01*
X155228113Y-122414394D01*
X155247055Y-122429939D01*
X155268666Y-122441490D01*
X155292115Y-122448603D01*
X155316501Y-122451005D01*
X155340887Y-122448603D01*
X155364336Y-122441490D01*
X155385947Y-122429939D01*
X155404889Y-122414394D01*
X155420434Y-122395452D01*
X155431985Y-122373841D01*
X155439098Y-122350392D01*
X155441500Y-122326006D01*
X155441500Y-122307012D01*
X155495339Y-122036344D01*
X155600949Y-121781379D01*
X155711678Y-121615661D01*
X155754272Y-121551914D01*
X155949414Y-121356772D01*
X156178878Y-121203450D01*
X156178879Y-121203449D01*
X156328233Y-121141585D01*
X156433843Y-121097839D01*
X156524067Y-121079893D01*
X156704512Y-121044000D01*
X156980488Y-121044000D01*
X157160933Y-121079893D01*
G37*
G36*
X127160933Y-121079893D02*
G01*
X127251157Y-121097839D01*
X127356767Y-121141585D01*
X127506121Y-121203449D01*
X127506122Y-121203450D01*
X127735586Y-121356772D01*
X127930728Y-121551914D01*
X127973322Y-121615661D01*
X128084051Y-121781379D01*
X128145915Y-121930733D01*
X128189661Y-122036343D01*
X128243500Y-122307014D01*
X128243500Y-122582986D01*
X128189821Y-122852855D01*
X128189661Y-122853656D01*
X128084051Y-123108621D01*
X128070068Y-123129548D01*
X127930728Y-123338086D01*
X127735586Y-123533228D01*
X127638749Y-123597932D01*
X127506121Y-123686551D01*
X127368342Y-123743621D01*
X127251157Y-123792161D01*
X127160933Y-123810107D01*
X126980488Y-123846000D01*
X126704512Y-123846000D01*
X126524067Y-123810107D01*
X126433843Y-123792161D01*
X126316658Y-123743621D01*
X126178879Y-123686551D01*
X126046251Y-123597932D01*
X125949414Y-123533228D01*
X125754272Y-123338086D01*
X125614932Y-123129548D01*
X125599387Y-123110606D01*
X125580445Y-123095061D01*
X125558834Y-123083510D01*
X125535385Y-123076397D01*
X125510999Y-123073995D01*
X125486613Y-123076397D01*
X125463164Y-123083510D01*
X125441553Y-123095061D01*
X125422611Y-123110606D01*
X125407066Y-123129548D01*
X125395515Y-123151159D01*
X125388402Y-123174608D01*
X125386000Y-123198994D01*
X125386000Y-123217988D01*
X125332161Y-123488656D01*
X125226551Y-123743621D01*
X125175675Y-123819763D01*
X125073228Y-123973086D01*
X124878086Y-124168228D01*
X124724763Y-124270675D01*
X124648621Y-124321551D01*
X124499267Y-124383415D01*
X124393657Y-124427161D01*
X124303433Y-124445107D01*
X124122988Y-124481000D01*
X123847012Y-124481000D01*
X123666567Y-124445107D01*
X123576343Y-124427161D01*
X123470733Y-124383415D01*
X123321379Y-124321551D01*
X123245237Y-124270675D01*
X123091914Y-124168228D01*
X122896772Y-123973086D01*
X122794325Y-123819763D01*
X122743449Y-123743621D01*
X122637839Y-123488656D01*
X122584000Y-123217988D01*
X122584000Y-122956788D01*
X122581598Y-122932402D01*
X122574485Y-122908953D01*
X122562934Y-122887342D01*
X122547389Y-122868400D01*
X122528447Y-122852855D01*
X122506836Y-122841304D01*
X122483387Y-122834191D01*
X122459001Y-122831789D01*
X122434615Y-122834191D01*
X122411166Y-122841304D01*
X122389555Y-122852855D01*
X122370613Y-122868400D01*
X122355068Y-122887342D01*
X122343517Y-122908953D01*
X122323703Y-122956788D01*
X122280431Y-123061255D01*
X122138053Y-123274339D01*
X121956839Y-123455553D01*
X121743755Y-123597931D01*
X121743754Y-123597932D01*
X121743753Y-123597932D01*
X121506987Y-123696004D01*
X121255639Y-123746000D01*
X120999361Y-123746000D01*
X120748013Y-123696004D01*
X120511247Y-123597932D01*
X120511246Y-123597932D01*
X120511245Y-123597931D01*
X120298161Y-123455553D01*
X120116947Y-123274339D01*
X119974569Y-123061255D01*
X119931297Y-122956788D01*
X119876496Y-122824487D01*
X119826500Y-122573139D01*
X119826500Y-122316861D01*
X119876496Y-122065513D01*
X119974568Y-121828747D01*
X120116947Y-121615661D01*
X120298161Y-121434447D01*
X120414410Y-121356772D01*
X120511245Y-121292069D01*
X120511247Y-121292068D01*
X120748013Y-121193996D01*
X120999361Y-121144000D01*
X121255639Y-121144000D01*
X121506987Y-121193996D01*
X121743753Y-121292068D01*
X121743755Y-121292069D01*
X121840590Y-121356772D01*
X121956839Y-121434447D01*
X122138053Y-121615661D01*
X122280432Y-121828747D01*
X122378504Y-122065513D01*
X122428500Y-122316861D01*
X122428500Y-122548320D01*
X122430902Y-122572706D01*
X122438015Y-122596155D01*
X122449566Y-122617766D01*
X122465111Y-122636708D01*
X122484053Y-122652253D01*
X122505664Y-122663804D01*
X122529113Y-122670917D01*
X122553499Y-122673319D01*
X122577885Y-122670917D01*
X122601334Y-122663804D01*
X122622945Y-122652253D01*
X122641887Y-122636708D01*
X122657432Y-122617766D01*
X122668983Y-122596155D01*
X122743449Y-122416379D01*
X122816526Y-122307012D01*
X122896772Y-122186914D01*
X123091914Y-121991772D01*
X123321378Y-121838450D01*
X123321379Y-121838449D01*
X123470733Y-121776585D01*
X123576343Y-121732839D01*
X123666567Y-121714893D01*
X123847012Y-121679000D01*
X124122988Y-121679000D01*
X124303433Y-121714893D01*
X124393657Y-121732839D01*
X124499267Y-121776585D01*
X124648621Y-121838449D01*
X124648622Y-121838450D01*
X124878086Y-121991772D01*
X125073228Y-122186914D01*
X125166166Y-122326006D01*
X125212568Y-122395452D01*
X125228113Y-122414394D01*
X125247055Y-122429939D01*
X125268666Y-122441490D01*
X125292115Y-122448603D01*
X125316501Y-122451005D01*
X125340887Y-122448603D01*
X125364336Y-122441490D01*
X125385947Y-122429939D01*
X125404889Y-122414394D01*
X125420434Y-122395452D01*
X125431985Y-122373841D01*
X125439098Y-122350392D01*
X125441500Y-122326006D01*
X125441500Y-122307012D01*
X125495339Y-122036344D01*
X125600949Y-121781379D01*
X125711678Y-121615661D01*
X125754272Y-121551914D01*
X125949414Y-121356772D01*
X126178878Y-121203450D01*
X126178879Y-121203449D01*
X126328233Y-121141585D01*
X126433843Y-121097839D01*
X126524067Y-121079893D01*
X126704512Y-121044000D01*
X126980488Y-121044000D01*
X127160933Y-121079893D01*
G37*
G36*
X67160933Y-121079893D02*
G01*
X67251157Y-121097839D01*
X67356767Y-121141585D01*
X67506121Y-121203449D01*
X67506122Y-121203450D01*
X67735586Y-121356772D01*
X67930728Y-121551914D01*
X67973322Y-121615661D01*
X68084051Y-121781379D01*
X68145915Y-121930733D01*
X68189661Y-122036343D01*
X68243500Y-122307014D01*
X68243500Y-122582986D01*
X68189821Y-122852855D01*
X68189661Y-122853656D01*
X68084051Y-123108621D01*
X68070068Y-123129548D01*
X67930728Y-123338086D01*
X67735586Y-123533228D01*
X67638749Y-123597932D01*
X67506121Y-123686551D01*
X67368342Y-123743621D01*
X67251157Y-123792161D01*
X67160933Y-123810107D01*
X66980488Y-123846000D01*
X66704512Y-123846000D01*
X66524067Y-123810107D01*
X66433843Y-123792161D01*
X66316658Y-123743621D01*
X66178879Y-123686551D01*
X66046251Y-123597932D01*
X65949414Y-123533228D01*
X65754272Y-123338086D01*
X65614932Y-123129548D01*
X65599387Y-123110606D01*
X65580445Y-123095061D01*
X65558834Y-123083510D01*
X65535385Y-123076397D01*
X65510999Y-123073995D01*
X65486613Y-123076397D01*
X65463164Y-123083510D01*
X65441553Y-123095061D01*
X65422611Y-123110606D01*
X65407066Y-123129548D01*
X65395515Y-123151159D01*
X65388402Y-123174608D01*
X65386000Y-123198994D01*
X65386000Y-123217988D01*
X65332161Y-123488656D01*
X65226551Y-123743621D01*
X65175675Y-123819763D01*
X65073228Y-123973086D01*
X64878086Y-124168228D01*
X64724763Y-124270675D01*
X64648621Y-124321551D01*
X64499267Y-124383415D01*
X64393657Y-124427161D01*
X64303433Y-124445107D01*
X64122988Y-124481000D01*
X63847012Y-124481000D01*
X63666567Y-124445107D01*
X63576343Y-124427161D01*
X63470733Y-124383415D01*
X63321379Y-124321551D01*
X63245237Y-124270675D01*
X63091914Y-124168228D01*
X62896772Y-123973086D01*
X62794325Y-123819763D01*
X62743449Y-123743621D01*
X62637839Y-123488656D01*
X62584000Y-123217988D01*
X62584000Y-122956788D01*
X62581598Y-122932402D01*
X62574485Y-122908953D01*
X62562934Y-122887342D01*
X62547389Y-122868400D01*
X62528447Y-122852855D01*
X62506836Y-122841304D01*
X62483387Y-122834191D01*
X62459001Y-122831789D01*
X62434615Y-122834191D01*
X62411166Y-122841304D01*
X62389555Y-122852855D01*
X62370613Y-122868400D01*
X62355068Y-122887342D01*
X62343517Y-122908953D01*
X62323703Y-122956788D01*
X62280431Y-123061255D01*
X62138053Y-123274339D01*
X61956839Y-123455553D01*
X61743755Y-123597931D01*
X61743754Y-123597932D01*
X61743753Y-123597932D01*
X61506987Y-123696004D01*
X61255639Y-123746000D01*
X60999361Y-123746000D01*
X60748013Y-123696004D01*
X60511247Y-123597932D01*
X60511246Y-123597932D01*
X60511245Y-123597931D01*
X60298161Y-123455553D01*
X60116947Y-123274339D01*
X59974569Y-123061255D01*
X59931297Y-122956788D01*
X59876496Y-122824487D01*
X59826500Y-122573139D01*
X59826500Y-122316861D01*
X59876496Y-122065513D01*
X59974568Y-121828747D01*
X60116947Y-121615661D01*
X60298161Y-121434447D01*
X60414410Y-121356772D01*
X60511245Y-121292069D01*
X60511247Y-121292068D01*
X60748013Y-121193996D01*
X60999361Y-121144000D01*
X61255639Y-121144000D01*
X61506987Y-121193996D01*
X61743753Y-121292068D01*
X61743755Y-121292069D01*
X61840590Y-121356772D01*
X61956839Y-121434447D01*
X62138053Y-121615661D01*
X62280432Y-121828747D01*
X62378504Y-122065513D01*
X62428500Y-122316861D01*
X62428500Y-122548320D01*
X62430902Y-122572706D01*
X62438015Y-122596155D01*
X62449566Y-122617766D01*
X62465111Y-122636708D01*
X62484053Y-122652253D01*
X62505664Y-122663804D01*
X62529113Y-122670917D01*
X62553499Y-122673319D01*
X62577885Y-122670917D01*
X62601334Y-122663804D01*
X62622945Y-122652253D01*
X62641887Y-122636708D01*
X62657432Y-122617766D01*
X62668983Y-122596155D01*
X62743449Y-122416379D01*
X62816526Y-122307012D01*
X62896772Y-122186914D01*
X63091914Y-121991772D01*
X63321378Y-121838450D01*
X63321379Y-121838449D01*
X63470733Y-121776585D01*
X63576343Y-121732839D01*
X63666567Y-121714893D01*
X63847012Y-121679000D01*
X64122988Y-121679000D01*
X64303433Y-121714893D01*
X64393657Y-121732839D01*
X64499267Y-121776585D01*
X64648621Y-121838449D01*
X64648622Y-121838450D01*
X64878086Y-121991772D01*
X65073228Y-122186914D01*
X65166166Y-122326006D01*
X65212568Y-122395452D01*
X65228113Y-122414394D01*
X65247055Y-122429939D01*
X65268666Y-122441490D01*
X65292115Y-122448603D01*
X65316501Y-122451005D01*
X65340887Y-122448603D01*
X65364336Y-122441490D01*
X65385947Y-122429939D01*
X65404889Y-122414394D01*
X65420434Y-122395452D01*
X65431985Y-122373841D01*
X65439098Y-122350392D01*
X65441500Y-122326006D01*
X65441500Y-122307012D01*
X65495339Y-122036344D01*
X65600949Y-121781379D01*
X65711678Y-121615661D01*
X65754272Y-121551914D01*
X65949414Y-121356772D01*
X66178878Y-121203450D01*
X66178879Y-121203449D01*
X66328233Y-121141585D01*
X66433843Y-121097839D01*
X66524067Y-121079893D01*
X66704512Y-121044000D01*
X66980488Y-121044000D01*
X67160933Y-121079893D01*
G37*
G36*
X97160933Y-121079893D02*
G01*
X97251157Y-121097839D01*
X97356767Y-121141585D01*
X97506121Y-121203449D01*
X97506122Y-121203450D01*
X97735586Y-121356772D01*
X97930728Y-121551914D01*
X97973322Y-121615661D01*
X98084051Y-121781379D01*
X98145915Y-121930733D01*
X98189661Y-122036343D01*
X98243500Y-122307014D01*
X98243500Y-122582986D01*
X98189821Y-122852855D01*
X98189661Y-122853656D01*
X98084051Y-123108621D01*
X98070068Y-123129548D01*
X97930728Y-123338086D01*
X97735586Y-123533228D01*
X97638749Y-123597932D01*
X97506121Y-123686551D01*
X97368342Y-123743621D01*
X97251157Y-123792161D01*
X97160933Y-123810107D01*
X96980488Y-123846000D01*
X96704512Y-123846000D01*
X96524067Y-123810107D01*
X96433843Y-123792161D01*
X96316658Y-123743621D01*
X96178879Y-123686551D01*
X96046251Y-123597932D01*
X95949414Y-123533228D01*
X95754272Y-123338086D01*
X95614932Y-123129548D01*
X95599387Y-123110606D01*
X95580445Y-123095061D01*
X95558834Y-123083510D01*
X95535385Y-123076397D01*
X95510999Y-123073995D01*
X95486613Y-123076397D01*
X95463164Y-123083510D01*
X95441553Y-123095061D01*
X95422611Y-123110606D01*
X95407066Y-123129548D01*
X95395515Y-123151159D01*
X95388402Y-123174608D01*
X95386000Y-123198994D01*
X95386000Y-123217988D01*
X95332161Y-123488656D01*
X95226551Y-123743621D01*
X95175675Y-123819763D01*
X95073228Y-123973086D01*
X94878086Y-124168228D01*
X94724763Y-124270675D01*
X94648621Y-124321551D01*
X94499267Y-124383415D01*
X94393657Y-124427161D01*
X94303433Y-124445107D01*
X94122988Y-124481000D01*
X93847012Y-124481000D01*
X93666567Y-124445107D01*
X93576343Y-124427161D01*
X93470733Y-124383415D01*
X93321379Y-124321551D01*
X93245237Y-124270675D01*
X93091914Y-124168228D01*
X92896772Y-123973086D01*
X92794325Y-123819763D01*
X92743449Y-123743621D01*
X92637839Y-123488656D01*
X92584000Y-123217988D01*
X92584000Y-122956788D01*
X92581598Y-122932402D01*
X92574485Y-122908953D01*
X92562934Y-122887342D01*
X92547389Y-122868400D01*
X92528447Y-122852855D01*
X92506836Y-122841304D01*
X92483387Y-122834191D01*
X92459001Y-122831789D01*
X92434615Y-122834191D01*
X92411166Y-122841304D01*
X92389555Y-122852855D01*
X92370613Y-122868400D01*
X92355068Y-122887342D01*
X92343517Y-122908953D01*
X92323703Y-122956788D01*
X92280431Y-123061255D01*
X92138053Y-123274339D01*
X91956839Y-123455553D01*
X91743755Y-123597931D01*
X91743754Y-123597932D01*
X91743753Y-123597932D01*
X91506987Y-123696004D01*
X91255639Y-123746000D01*
X90999361Y-123746000D01*
X90748013Y-123696004D01*
X90511247Y-123597932D01*
X90511246Y-123597932D01*
X90511245Y-123597931D01*
X90298161Y-123455553D01*
X90116947Y-123274339D01*
X89974569Y-123061255D01*
X89931297Y-122956788D01*
X89876496Y-122824487D01*
X89826500Y-122573139D01*
X89826500Y-122316861D01*
X89876496Y-122065513D01*
X89974568Y-121828747D01*
X90116947Y-121615661D01*
X90298161Y-121434447D01*
X90414410Y-121356772D01*
X90511245Y-121292069D01*
X90511247Y-121292068D01*
X90748013Y-121193996D01*
X90999361Y-121144000D01*
X91255639Y-121144000D01*
X91506987Y-121193996D01*
X91743753Y-121292068D01*
X91743755Y-121292069D01*
X91840590Y-121356772D01*
X91956839Y-121434447D01*
X92138053Y-121615661D01*
X92280432Y-121828747D01*
X92378504Y-122065513D01*
X92428500Y-122316861D01*
X92428500Y-122548320D01*
X92430902Y-122572706D01*
X92438015Y-122596155D01*
X92449566Y-122617766D01*
X92465111Y-122636708D01*
X92484053Y-122652253D01*
X92505664Y-122663804D01*
X92529113Y-122670917D01*
X92553499Y-122673319D01*
X92577885Y-122670917D01*
X92601334Y-122663804D01*
X92622945Y-122652253D01*
X92641887Y-122636708D01*
X92657432Y-122617766D01*
X92668983Y-122596155D01*
X92743449Y-122416379D01*
X92816526Y-122307012D01*
X92896772Y-122186914D01*
X93091914Y-121991772D01*
X93321378Y-121838450D01*
X93321379Y-121838449D01*
X93470733Y-121776585D01*
X93576343Y-121732839D01*
X93666567Y-121714893D01*
X93847012Y-121679000D01*
X94122988Y-121679000D01*
X94303433Y-121714893D01*
X94393657Y-121732839D01*
X94499267Y-121776585D01*
X94648621Y-121838449D01*
X94648622Y-121838450D01*
X94878086Y-121991772D01*
X95073228Y-122186914D01*
X95166166Y-122326006D01*
X95212568Y-122395452D01*
X95228113Y-122414394D01*
X95247055Y-122429939D01*
X95268666Y-122441490D01*
X95292115Y-122448603D01*
X95316501Y-122451005D01*
X95340887Y-122448603D01*
X95364336Y-122441490D01*
X95385947Y-122429939D01*
X95404889Y-122414394D01*
X95420434Y-122395452D01*
X95431985Y-122373841D01*
X95439098Y-122350392D01*
X95441500Y-122326006D01*
X95441500Y-122307012D01*
X95495339Y-122036344D01*
X95600949Y-121781379D01*
X95711678Y-121615661D01*
X95754272Y-121551914D01*
X95949414Y-121356772D01*
X96178878Y-121203450D01*
X96178879Y-121203449D01*
X96328233Y-121141585D01*
X96433843Y-121097839D01*
X96524067Y-121079893D01*
X96704512Y-121044000D01*
X96980488Y-121044000D01*
X97160933Y-121079893D01*
G37*
G36*
X71272585Y-117113802D02*
G01*
X71422410Y-117143604D01*
X71704674Y-117260521D01*
X71958705Y-117430259D01*
X72174741Y-117646295D01*
X72344479Y-117900326D01*
X72427050Y-118099672D01*
X72461396Y-118182591D01*
X72521000Y-118482239D01*
X72521000Y-118787761D01*
X72495492Y-118916000D01*
X72461396Y-119087410D01*
X72344479Y-119369674D01*
X72174741Y-119623705D01*
X71958705Y-119839741D01*
X71704674Y-120009479D01*
X71422410Y-120126396D01*
X71272585Y-120156198D01*
X71122761Y-120186000D01*
X70817239Y-120186000D01*
X70667415Y-120156198D01*
X70517590Y-120126396D01*
X70235326Y-120009479D01*
X69981295Y-119839741D01*
X69765259Y-119623705D01*
X69595521Y-119369674D01*
X69478604Y-119087410D01*
X69444508Y-118916000D01*
X69419000Y-118787761D01*
X69419000Y-118482239D01*
X69478604Y-118182591D01*
X69512950Y-118099672D01*
X69595521Y-117900326D01*
X69765259Y-117646295D01*
X69981295Y-117430259D01*
X70235326Y-117260521D01*
X70517590Y-117143604D01*
X70667415Y-117113802D01*
X70817239Y-117084000D01*
X71122761Y-117084000D01*
X71272585Y-117113802D01*
G37*
G36*
X101272585Y-117113802D02*
G01*
X101422410Y-117143604D01*
X101704674Y-117260521D01*
X101958705Y-117430259D01*
X102174741Y-117646295D01*
X102344479Y-117900326D01*
X102427050Y-118099672D01*
X102461396Y-118182591D01*
X102521000Y-118482239D01*
X102521000Y-118787761D01*
X102495492Y-118916000D01*
X102461396Y-119087410D01*
X102344479Y-119369674D01*
X102174741Y-119623705D01*
X101958705Y-119839741D01*
X101704674Y-120009479D01*
X101422410Y-120126396D01*
X101272585Y-120156198D01*
X101122761Y-120186000D01*
X100817239Y-120186000D01*
X100667415Y-120156198D01*
X100517590Y-120126396D01*
X100235326Y-120009479D01*
X99981295Y-119839741D01*
X99765259Y-119623705D01*
X99595521Y-119369674D01*
X99478604Y-119087410D01*
X99444508Y-118916000D01*
X99419000Y-118787761D01*
X99419000Y-118482239D01*
X99478604Y-118182591D01*
X99512950Y-118099672D01*
X99595521Y-117900326D01*
X99765259Y-117646295D01*
X99981295Y-117430259D01*
X100235326Y-117260521D01*
X100517590Y-117143604D01*
X100667415Y-117113802D01*
X100817239Y-117084000D01*
X101122761Y-117084000D01*
X101272585Y-117113802D01*
G37*
G36*
X161272585Y-117113802D02*
G01*
X161422410Y-117143604D01*
X161704674Y-117260521D01*
X161958705Y-117430259D01*
X162174741Y-117646295D01*
X162344479Y-117900326D01*
X162427050Y-118099672D01*
X162461396Y-118182591D01*
X162521000Y-118482239D01*
X162521000Y-118787761D01*
X162495492Y-118916000D01*
X162461396Y-119087410D01*
X162344479Y-119369674D01*
X162174741Y-119623705D01*
X161958705Y-119839741D01*
X161704674Y-120009479D01*
X161422410Y-120126396D01*
X161272585Y-120156198D01*
X161122761Y-120186000D01*
X160817239Y-120186000D01*
X160667415Y-120156198D01*
X160517590Y-120126396D01*
X160235326Y-120009479D01*
X159981295Y-119839741D01*
X159765259Y-119623705D01*
X159595521Y-119369674D01*
X159478604Y-119087410D01*
X159444508Y-118916000D01*
X159419000Y-118787761D01*
X159419000Y-118482239D01*
X159478604Y-118182591D01*
X159512950Y-118099672D01*
X159595521Y-117900326D01*
X159765259Y-117646295D01*
X159981295Y-117430259D01*
X160235326Y-117260521D01*
X160517590Y-117143604D01*
X160667415Y-117113802D01*
X160817239Y-117084000D01*
X161122761Y-117084000D01*
X161272585Y-117113802D01*
G37*
G36*
X131272585Y-117113802D02*
G01*
X131422410Y-117143604D01*
X131704674Y-117260521D01*
X131958705Y-117430259D01*
X132174741Y-117646295D01*
X132344479Y-117900326D01*
X132427050Y-118099672D01*
X132461396Y-118182591D01*
X132521000Y-118482239D01*
X132521000Y-118787761D01*
X132495492Y-118916000D01*
X132461396Y-119087410D01*
X132344479Y-119369674D01*
X132174741Y-119623705D01*
X131958705Y-119839741D01*
X131704674Y-120009479D01*
X131422410Y-120126396D01*
X131272585Y-120156198D01*
X131122761Y-120186000D01*
X130817239Y-120186000D01*
X130667415Y-120156198D01*
X130517590Y-120126396D01*
X130235326Y-120009479D01*
X129981295Y-119839741D01*
X129765259Y-119623705D01*
X129595521Y-119369674D01*
X129478604Y-119087410D01*
X129444508Y-118916000D01*
X129419000Y-118787761D01*
X129419000Y-118482239D01*
X129478604Y-118182591D01*
X129512950Y-118099672D01*
X129595521Y-117900326D01*
X129765259Y-117646295D01*
X129981295Y-117430259D01*
X130235326Y-117260521D01*
X130517590Y-117143604D01*
X130667415Y-117113802D01*
X130817239Y-117084000D01*
X131122761Y-117084000D01*
X131272585Y-117113802D01*
G37*
G36*
X87302585Y-116478802D02*
G01*
X87452410Y-116508604D01*
X87734674Y-116625521D01*
X87988705Y-116795259D01*
X88204741Y-117011295D01*
X88374479Y-117265326D01*
X88479040Y-117517760D01*
X88491396Y-117547591D01*
X88551000Y-117847239D01*
X88551000Y-118152761D01*
X88545066Y-118182591D01*
X88491396Y-118452410D01*
X88374479Y-118734674D01*
X88204741Y-118988705D01*
X87988705Y-119204741D01*
X87734674Y-119374479D01*
X87452410Y-119491396D01*
X87302585Y-119521198D01*
X87152761Y-119551000D01*
X86847239Y-119551000D01*
X86697415Y-119521198D01*
X86547590Y-119491396D01*
X86265326Y-119374479D01*
X86011295Y-119204741D01*
X85795259Y-118988705D01*
X85625521Y-118734674D01*
X85508604Y-118452410D01*
X85454934Y-118182591D01*
X85449000Y-118152761D01*
X85449000Y-117847239D01*
X85508604Y-117547591D01*
X85520960Y-117517760D01*
X85625521Y-117265326D01*
X85795259Y-117011295D01*
X86011295Y-116795259D01*
X86265326Y-116625521D01*
X86547590Y-116508604D01*
X86697415Y-116478802D01*
X86847239Y-116449000D01*
X87152761Y-116449000D01*
X87302585Y-116478802D01*
G37*
G36*
X117302585Y-116478802D02*
G01*
X117452410Y-116508604D01*
X117734674Y-116625521D01*
X117988705Y-116795259D01*
X118204741Y-117011295D01*
X118374479Y-117265326D01*
X118479040Y-117517760D01*
X118491396Y-117547591D01*
X118551000Y-117847239D01*
X118551000Y-118152761D01*
X118545066Y-118182591D01*
X118491396Y-118452410D01*
X118374479Y-118734674D01*
X118204741Y-118988705D01*
X117988705Y-119204741D01*
X117734674Y-119374479D01*
X117452410Y-119491396D01*
X117302585Y-119521198D01*
X117152761Y-119551000D01*
X116847239Y-119551000D01*
X116697415Y-119521198D01*
X116547590Y-119491396D01*
X116265326Y-119374479D01*
X116011295Y-119204741D01*
X115795259Y-118988705D01*
X115625521Y-118734674D01*
X115508604Y-118452410D01*
X115454934Y-118182591D01*
X115449000Y-118152761D01*
X115449000Y-117847239D01*
X115508604Y-117547591D01*
X115520960Y-117517760D01*
X115625521Y-117265326D01*
X115795259Y-117011295D01*
X116011295Y-116795259D01*
X116265326Y-116625521D01*
X116547590Y-116508604D01*
X116697415Y-116478802D01*
X116847239Y-116449000D01*
X117152761Y-116449000D01*
X117302585Y-116478802D01*
G37*
G36*
X57302585Y-116478802D02*
G01*
X57452410Y-116508604D01*
X57734674Y-116625521D01*
X57988705Y-116795259D01*
X58204741Y-117011295D01*
X58374479Y-117265326D01*
X58479040Y-117517760D01*
X58491396Y-117547591D01*
X58551000Y-117847239D01*
X58551000Y-118152761D01*
X58545066Y-118182591D01*
X58491396Y-118452410D01*
X58374479Y-118734674D01*
X58204741Y-118988705D01*
X57988705Y-119204741D01*
X57734674Y-119374479D01*
X57452410Y-119491396D01*
X57302585Y-119521198D01*
X57152761Y-119551000D01*
X56847239Y-119551000D01*
X56697415Y-119521198D01*
X56547590Y-119491396D01*
X56265326Y-119374479D01*
X56011295Y-119204741D01*
X55795259Y-118988705D01*
X55625521Y-118734674D01*
X55508604Y-118452410D01*
X55454934Y-118182591D01*
X55449000Y-118152761D01*
X55449000Y-117847239D01*
X55508604Y-117547591D01*
X55520960Y-117517760D01*
X55625521Y-117265326D01*
X55795259Y-117011295D01*
X56011295Y-116795259D01*
X56265326Y-116625521D01*
X56547590Y-116508604D01*
X56697415Y-116478802D01*
X56847239Y-116449000D01*
X57152761Y-116449000D01*
X57302585Y-116478802D01*
G37*
G36*
X147302585Y-116478802D02*
G01*
X147452410Y-116508604D01*
X147734674Y-116625521D01*
X147988705Y-116795259D01*
X148204741Y-117011295D01*
X148374479Y-117265326D01*
X148479040Y-117517760D01*
X148491396Y-117547591D01*
X148551000Y-117847239D01*
X148551000Y-118152761D01*
X148545066Y-118182591D01*
X148491396Y-118452410D01*
X148374479Y-118734674D01*
X148204741Y-118988705D01*
X147988705Y-119204741D01*
X147734674Y-119374479D01*
X147452410Y-119491396D01*
X147302585Y-119521198D01*
X147152761Y-119551000D01*
X146847239Y-119551000D01*
X146697415Y-119521198D01*
X146547590Y-119491396D01*
X146265326Y-119374479D01*
X146011295Y-119204741D01*
X145795259Y-118988705D01*
X145625521Y-118734674D01*
X145508604Y-118452410D01*
X145454934Y-118182591D01*
X145449000Y-118152761D01*
X145449000Y-117847239D01*
X145508604Y-117547591D01*
X145520960Y-117517760D01*
X145625521Y-117265326D01*
X145795259Y-117011295D01*
X146011295Y-116795259D01*
X146265326Y-116625521D01*
X146547590Y-116508604D01*
X146697415Y-116478802D01*
X146847239Y-116449000D01*
X147152761Y-116449000D01*
X147302585Y-116478802D01*
G37*
G36*
X188192985Y-115658860D02*
G01*
X188305748Y-115681290D01*
X188437741Y-115735963D01*
X188624408Y-115813283D01*
X188911196Y-116004909D01*
X189155091Y-116248804D01*
X189346717Y-116535592D01*
X189424037Y-116722259D01*
X189464560Y-116820090D01*
X189478710Y-116854253D01*
X189546000Y-117192540D01*
X189546000Y-117537460D01*
X189524351Y-117646295D01*
X189478710Y-117875748D01*
X189424037Y-118007741D01*
X189346717Y-118194408D01*
X189155091Y-118481196D01*
X188911196Y-118725091D01*
X188624408Y-118916717D01*
X188450615Y-118988704D01*
X188305748Y-119048710D01*
X188192985Y-119071140D01*
X187967460Y-119116000D01*
X187622540Y-119116000D01*
X187397015Y-119071140D01*
X187284252Y-119048710D01*
X187139385Y-118988704D01*
X186965592Y-118916717D01*
X186678804Y-118725091D01*
X186434909Y-118481196D01*
X186243283Y-118194408D01*
X186165963Y-118007741D01*
X186111290Y-117875748D01*
X186065649Y-117646295D01*
X186044000Y-117537460D01*
X186044000Y-117192540D01*
X186111290Y-116854253D01*
X186125441Y-116820090D01*
X186165963Y-116722259D01*
X186243283Y-116535592D01*
X186434909Y-116248804D01*
X186678804Y-116004909D01*
X186965592Y-115813283D01*
X187152259Y-115735963D01*
X187284252Y-115681290D01*
X187397015Y-115658860D01*
X187622540Y-115614000D01*
X187967460Y-115614000D01*
X188192985Y-115658860D01*
G37*
G36*
X180572985Y-115658860D02*
G01*
X180685748Y-115681290D01*
X180817741Y-115735963D01*
X181004408Y-115813283D01*
X181291196Y-116004909D01*
X181535091Y-116248804D01*
X181726717Y-116535592D01*
X181804037Y-116722259D01*
X181844560Y-116820090D01*
X181858710Y-116854253D01*
X181926000Y-117192540D01*
X181926000Y-117537460D01*
X181904351Y-117646295D01*
X181858710Y-117875748D01*
X181804037Y-118007741D01*
X181726717Y-118194408D01*
X181535091Y-118481196D01*
X181291196Y-118725091D01*
X181004408Y-118916717D01*
X180830615Y-118988704D01*
X180685748Y-119048710D01*
X180572985Y-119071140D01*
X180347460Y-119116000D01*
X180002540Y-119116000D01*
X179777015Y-119071140D01*
X179664252Y-119048710D01*
X179519385Y-118988704D01*
X179345592Y-118916717D01*
X179058804Y-118725091D01*
X178814909Y-118481196D01*
X178623283Y-118194408D01*
X178545963Y-118007741D01*
X178491290Y-117875748D01*
X178445649Y-117646295D01*
X178424000Y-117537460D01*
X178424000Y-117192540D01*
X178491290Y-116854253D01*
X178505441Y-116820090D01*
X178545963Y-116722259D01*
X178623283Y-116535592D01*
X178814909Y-116248804D01*
X179058804Y-116004909D01*
X179345592Y-115813283D01*
X179532259Y-115735963D01*
X179664252Y-115681290D01*
X179777015Y-115658860D01*
X180002540Y-115614000D01*
X180347460Y-115614000D01*
X180572985Y-115658860D01*
G37*
G36*
X184287585Y-115843802D02*
G01*
X184437410Y-115873604D01*
X184719674Y-115990521D01*
X184973705Y-116160259D01*
X185189741Y-116376295D01*
X185359479Y-116630326D01*
X185476396Y-116912590D01*
X185506198Y-117062415D01*
X185536000Y-117212239D01*
X185536000Y-117517761D01*
X185530066Y-117547591D01*
X185476396Y-117817410D01*
X185359479Y-118099674D01*
X185189741Y-118353705D01*
X184973705Y-118569741D01*
X184719674Y-118739479D01*
X184437410Y-118856396D01*
X184287585Y-118886198D01*
X184137761Y-118916000D01*
X183832239Y-118916000D01*
X183682415Y-118886198D01*
X183532590Y-118856396D01*
X183250326Y-118739479D01*
X182996295Y-118569741D01*
X182780259Y-118353705D01*
X182610521Y-118099674D01*
X182493604Y-117817410D01*
X182439934Y-117547591D01*
X182434000Y-117517761D01*
X182434000Y-117212239D01*
X182463802Y-117062415D01*
X182493604Y-116912590D01*
X182610521Y-116630326D01*
X182780259Y-116376295D01*
X182996295Y-116160259D01*
X183250326Y-115990521D01*
X183532590Y-115873604D01*
X183682415Y-115843802D01*
X183832239Y-115814000D01*
X184137761Y-115814000D01*
X184287585Y-115843802D01*
G37*
G36*
X158827985Y-113753860D02*
G01*
X158940748Y-113776290D01*
X159072741Y-113830963D01*
X159259408Y-113908283D01*
X159546196Y-114099909D01*
X159790091Y-114343804D01*
X159981717Y-114630592D01*
X160059037Y-114817259D01*
X160113710Y-114949252D01*
X160181000Y-115287542D01*
X160181000Y-115632458D01*
X160113710Y-115970748D01*
X160059037Y-116102741D01*
X159981717Y-116289408D01*
X159790091Y-116576196D01*
X159546196Y-116820091D01*
X159259408Y-117011717D01*
X159084900Y-117084000D01*
X158940748Y-117143710D01*
X158827985Y-117166140D01*
X158602460Y-117211000D01*
X158257540Y-117211000D01*
X158032015Y-117166140D01*
X157919252Y-117143710D01*
X157775100Y-117084000D01*
X157600592Y-117011717D01*
X157313804Y-116820091D01*
X157069909Y-116576196D01*
X156878283Y-116289408D01*
X156800963Y-116102741D01*
X156746290Y-115970748D01*
X156679000Y-115632458D01*
X156679000Y-115287542D01*
X156746290Y-114949252D01*
X156800963Y-114817259D01*
X156878283Y-114630592D01*
X157069909Y-114343804D01*
X157313804Y-114099909D01*
X157600592Y-113908283D01*
X157787259Y-113830963D01*
X157919252Y-113776290D01*
X158032015Y-113753860D01*
X158257540Y-113709000D01*
X158602460Y-113709000D01*
X158827985Y-113753860D01*
G37*
G36*
X68827985Y-113753860D02*
G01*
X68940748Y-113776290D01*
X69072741Y-113830963D01*
X69259408Y-113908283D01*
X69546196Y-114099909D01*
X69790091Y-114343804D01*
X69981717Y-114630592D01*
X70059037Y-114817259D01*
X70113710Y-114949252D01*
X70181000Y-115287542D01*
X70181000Y-115632458D01*
X70113710Y-115970748D01*
X70059037Y-116102741D01*
X69981717Y-116289408D01*
X69790091Y-116576196D01*
X69546196Y-116820091D01*
X69259408Y-117011717D01*
X69084900Y-117084000D01*
X68940748Y-117143710D01*
X68827985Y-117166140D01*
X68602460Y-117211000D01*
X68257540Y-117211000D01*
X68032015Y-117166140D01*
X67919252Y-117143710D01*
X67775100Y-117084000D01*
X67600592Y-117011717D01*
X67313804Y-116820091D01*
X67069909Y-116576196D01*
X66878283Y-116289408D01*
X66800963Y-116102741D01*
X66746290Y-115970748D01*
X66679000Y-115632458D01*
X66679000Y-115287542D01*
X66746290Y-114949252D01*
X66800963Y-114817259D01*
X66878283Y-114630592D01*
X67069909Y-114343804D01*
X67313804Y-114099909D01*
X67600592Y-113908283D01*
X67787259Y-113830963D01*
X67919252Y-113776290D01*
X68032015Y-113753860D01*
X68257540Y-113709000D01*
X68602460Y-113709000D01*
X68827985Y-113753860D01*
G37*
G36*
X59937985Y-113753860D02*
G01*
X60050748Y-113776290D01*
X60182741Y-113830963D01*
X60369408Y-113908283D01*
X60656196Y-114099909D01*
X60900091Y-114343804D01*
X61091717Y-114630592D01*
X61169037Y-114817259D01*
X61223710Y-114949252D01*
X61291000Y-115287542D01*
X61291000Y-115632458D01*
X61223710Y-115970748D01*
X61169037Y-116102741D01*
X61091717Y-116289408D01*
X60900091Y-116576196D01*
X60656196Y-116820091D01*
X60369408Y-117011717D01*
X60194900Y-117084000D01*
X60050748Y-117143710D01*
X59937985Y-117166140D01*
X59712460Y-117211000D01*
X59367540Y-117211000D01*
X59142015Y-117166140D01*
X59029252Y-117143710D01*
X58885100Y-117084000D01*
X58710592Y-117011717D01*
X58423804Y-116820091D01*
X58179909Y-116576196D01*
X57988283Y-116289408D01*
X57910963Y-116102741D01*
X57856290Y-115970748D01*
X57789000Y-115632458D01*
X57789000Y-115287542D01*
X57856290Y-114949252D01*
X57910963Y-114817259D01*
X57988283Y-114630592D01*
X58179909Y-114343804D01*
X58423804Y-114099909D01*
X58710592Y-113908283D01*
X58897259Y-113830963D01*
X59029252Y-113776290D01*
X59142015Y-113753860D01*
X59367540Y-113709000D01*
X59712460Y-113709000D01*
X59937985Y-113753860D01*
G37*
G36*
X128827985Y-113753860D02*
G01*
X128940748Y-113776290D01*
X129072741Y-113830963D01*
X129259408Y-113908283D01*
X129546196Y-114099909D01*
X129790091Y-114343804D01*
X129981717Y-114630592D01*
X130059037Y-114817259D01*
X130113710Y-114949252D01*
X130181000Y-115287542D01*
X130181000Y-115632458D01*
X130113710Y-115970748D01*
X130059037Y-116102741D01*
X129981717Y-116289408D01*
X129790091Y-116576196D01*
X129546196Y-116820091D01*
X129259408Y-117011717D01*
X129084900Y-117084000D01*
X128940748Y-117143710D01*
X128827985Y-117166140D01*
X128602460Y-117211000D01*
X128257540Y-117211000D01*
X128032015Y-117166140D01*
X127919252Y-117143710D01*
X127775100Y-117084000D01*
X127600592Y-117011717D01*
X127313804Y-116820091D01*
X127069909Y-116576196D01*
X126878283Y-116289408D01*
X126800963Y-116102741D01*
X126746290Y-115970748D01*
X126679000Y-115632458D01*
X126679000Y-115287542D01*
X126746290Y-114949252D01*
X126800963Y-114817259D01*
X126878283Y-114630592D01*
X127069909Y-114343804D01*
X127313804Y-114099909D01*
X127600592Y-113908283D01*
X127787259Y-113830963D01*
X127919252Y-113776290D01*
X128032015Y-113753860D01*
X128257540Y-113709000D01*
X128602460Y-113709000D01*
X128827985Y-113753860D01*
G37*
G36*
X98827985Y-113753860D02*
G01*
X98940748Y-113776290D01*
X99072741Y-113830963D01*
X99259408Y-113908283D01*
X99546196Y-114099909D01*
X99790091Y-114343804D01*
X99981717Y-114630592D01*
X100059037Y-114817259D01*
X100113710Y-114949252D01*
X100181000Y-115287542D01*
X100181000Y-115632458D01*
X100113710Y-115970748D01*
X100059037Y-116102741D01*
X99981717Y-116289408D01*
X99790091Y-116576196D01*
X99546196Y-116820091D01*
X99259408Y-117011717D01*
X99084900Y-117084000D01*
X98940748Y-117143710D01*
X98827985Y-117166140D01*
X98602460Y-117211000D01*
X98257540Y-117211000D01*
X98032015Y-117166140D01*
X97919252Y-117143710D01*
X97775100Y-117084000D01*
X97600592Y-117011717D01*
X97313804Y-116820091D01*
X97069909Y-116576196D01*
X96878283Y-116289408D01*
X96800963Y-116102741D01*
X96746290Y-115970748D01*
X96679000Y-115632458D01*
X96679000Y-115287542D01*
X96746290Y-114949252D01*
X96800963Y-114817259D01*
X96878283Y-114630592D01*
X97069909Y-114343804D01*
X97313804Y-114099909D01*
X97600592Y-113908283D01*
X97787259Y-113830963D01*
X97919252Y-113776290D01*
X98032015Y-113753860D01*
X98257540Y-113709000D01*
X98602460Y-113709000D01*
X98827985Y-113753860D01*
G37*
G36*
X89937985Y-113753860D02*
G01*
X90050748Y-113776290D01*
X90182741Y-113830963D01*
X90369408Y-113908283D01*
X90656196Y-114099909D01*
X90900091Y-114343804D01*
X91091717Y-114630592D01*
X91169037Y-114817259D01*
X91223710Y-114949252D01*
X91291000Y-115287542D01*
X91291000Y-115632458D01*
X91223710Y-115970748D01*
X91169037Y-116102741D01*
X91091717Y-116289408D01*
X90900091Y-116576196D01*
X90656196Y-116820091D01*
X90369408Y-117011717D01*
X90194900Y-117084000D01*
X90050748Y-117143710D01*
X89937985Y-117166140D01*
X89712460Y-117211000D01*
X89367540Y-117211000D01*
X89142015Y-117166140D01*
X89029252Y-117143710D01*
X88885100Y-117084000D01*
X88710592Y-117011717D01*
X88423804Y-116820091D01*
X88179909Y-116576196D01*
X87988283Y-116289408D01*
X87910963Y-116102741D01*
X87856290Y-115970748D01*
X87789000Y-115632458D01*
X87789000Y-115287542D01*
X87856290Y-114949252D01*
X87910963Y-114817259D01*
X87988283Y-114630592D01*
X88179909Y-114343804D01*
X88423804Y-114099909D01*
X88710592Y-113908283D01*
X88897259Y-113830963D01*
X89029252Y-113776290D01*
X89142015Y-113753860D01*
X89367540Y-113709000D01*
X89712460Y-113709000D01*
X89937985Y-113753860D01*
G37*
G36*
X149937985Y-113753860D02*
G01*
X150050748Y-113776290D01*
X150182741Y-113830963D01*
X150369408Y-113908283D01*
X150656196Y-114099909D01*
X150900091Y-114343804D01*
X151091717Y-114630592D01*
X151169037Y-114817259D01*
X151223710Y-114949252D01*
X151291000Y-115287542D01*
X151291000Y-115632458D01*
X151223710Y-115970748D01*
X151169037Y-116102741D01*
X151091717Y-116289408D01*
X150900091Y-116576196D01*
X150656196Y-116820091D01*
X150369408Y-117011717D01*
X150194900Y-117084000D01*
X150050748Y-117143710D01*
X149937985Y-117166140D01*
X149712460Y-117211000D01*
X149367540Y-117211000D01*
X149142015Y-117166140D01*
X149029252Y-117143710D01*
X148885100Y-117084000D01*
X148710592Y-117011717D01*
X148423804Y-116820091D01*
X148179909Y-116576196D01*
X147988283Y-116289408D01*
X147910963Y-116102741D01*
X147856290Y-115970748D01*
X147789000Y-115632458D01*
X147789000Y-115287542D01*
X147856290Y-114949252D01*
X147910963Y-114817259D01*
X147988283Y-114630592D01*
X148179909Y-114343804D01*
X148423804Y-114099909D01*
X148710592Y-113908283D01*
X148897259Y-113830963D01*
X149029252Y-113776290D01*
X149142015Y-113753860D01*
X149367540Y-113709000D01*
X149712460Y-113709000D01*
X149937985Y-113753860D01*
G37*
G36*
X119937985Y-113753860D02*
G01*
X120050748Y-113776290D01*
X120182741Y-113830963D01*
X120369408Y-113908283D01*
X120656196Y-114099909D01*
X120900091Y-114343804D01*
X121091717Y-114630592D01*
X121169037Y-114817259D01*
X121223710Y-114949252D01*
X121291000Y-115287542D01*
X121291000Y-115632458D01*
X121223710Y-115970748D01*
X121169037Y-116102741D01*
X121091717Y-116289408D01*
X120900091Y-116576196D01*
X120656196Y-116820091D01*
X120369408Y-117011717D01*
X120194900Y-117084000D01*
X120050748Y-117143710D01*
X119937985Y-117166140D01*
X119712460Y-117211000D01*
X119367540Y-117211000D01*
X119142015Y-117166140D01*
X119029252Y-117143710D01*
X118885100Y-117084000D01*
X118710592Y-117011717D01*
X118423804Y-116820091D01*
X118179909Y-116576196D01*
X117988283Y-116289408D01*
X117910963Y-116102741D01*
X117856290Y-115970748D01*
X117789000Y-115632458D01*
X117789000Y-115287542D01*
X117856290Y-114949252D01*
X117910963Y-114817259D01*
X117988283Y-114630592D01*
X118179909Y-114343804D01*
X118423804Y-114099909D01*
X118710592Y-113908283D01*
X118897259Y-113830963D01*
X119029252Y-113776290D01*
X119142015Y-113753860D01*
X119367540Y-113709000D01*
X119712460Y-113709000D01*
X119937985Y-113753860D01*
G37*
G36*
X184287585Y-110763802D02*
G01*
X184437410Y-110793604D01*
X184719674Y-110910521D01*
X184973705Y-111080259D01*
X185189741Y-111296295D01*
X185359479Y-111550326D01*
X185476396Y-111832590D01*
X185536000Y-112132240D01*
X185536000Y-112437760D01*
X185476396Y-112737410D01*
X185359479Y-113019674D01*
X185189741Y-113273705D01*
X184973705Y-113489741D01*
X184719674Y-113659479D01*
X184437410Y-113776396D01*
X184287585Y-113806198D01*
X184137761Y-113836000D01*
X183832239Y-113836000D01*
X183682415Y-113806198D01*
X183532590Y-113776396D01*
X183250326Y-113659479D01*
X182996295Y-113489741D01*
X182780259Y-113273705D01*
X182610521Y-113019674D01*
X182493604Y-112737410D01*
X182434000Y-112437760D01*
X182434000Y-112132240D01*
X182493604Y-111832590D01*
X182610521Y-111550326D01*
X182780259Y-111296295D01*
X182996295Y-111080259D01*
X183250326Y-110910521D01*
X183532590Y-110793604D01*
X183682415Y-110763802D01*
X183832239Y-110734000D01*
X184137761Y-110734000D01*
X184287585Y-110763802D01*
G37*
G36*
X154233228Y-108291703D02*
G01*
X154388100Y-108355853D01*
X154527481Y-108448985D01*
X154646015Y-108567519D01*
X154739147Y-108706900D01*
X154803297Y-108861772D01*
X154836000Y-109026184D01*
X154836000Y-109193816D01*
X154803297Y-109358228D01*
X154739147Y-109513100D01*
X154646015Y-109652481D01*
X154527481Y-109771015D01*
X154388100Y-109864147D01*
X154233228Y-109928297D01*
X154068816Y-109961000D01*
X153901184Y-109961000D01*
X153736772Y-109928297D01*
X153581900Y-109864147D01*
X153442519Y-109771015D01*
X153323985Y-109652481D01*
X153230853Y-109513100D01*
X153166703Y-109358228D01*
X153134000Y-109193816D01*
X153134000Y-109026184D01*
X153166703Y-108861772D01*
X153230853Y-108706900D01*
X153323985Y-108567519D01*
X153442519Y-108448985D01*
X153581900Y-108355853D01*
X153736772Y-108291703D01*
X153901184Y-108259000D01*
X154068816Y-108259000D01*
X154233228Y-108291703D01*
G37*
G36*
X64233228Y-108291703D02*
G01*
X64388100Y-108355853D01*
X64527481Y-108448985D01*
X64646015Y-108567519D01*
X64739147Y-108706900D01*
X64803297Y-108861772D01*
X64836000Y-109026184D01*
X64836000Y-109193816D01*
X64803297Y-109358228D01*
X64739147Y-109513100D01*
X64646015Y-109652481D01*
X64527481Y-109771015D01*
X64388100Y-109864147D01*
X64233228Y-109928297D01*
X64068816Y-109961000D01*
X63901184Y-109961000D01*
X63736772Y-109928297D01*
X63581900Y-109864147D01*
X63442519Y-109771015D01*
X63323985Y-109652481D01*
X63230853Y-109513100D01*
X63166703Y-109358228D01*
X63134000Y-109193816D01*
X63134000Y-109026184D01*
X63166703Y-108861772D01*
X63230853Y-108706900D01*
X63323985Y-108567519D01*
X63442519Y-108448985D01*
X63581900Y-108355853D01*
X63736772Y-108291703D01*
X63901184Y-108259000D01*
X64068816Y-108259000D01*
X64233228Y-108291703D01*
G37*
G36*
X124233228Y-108291703D02*
G01*
X124388100Y-108355853D01*
X124527481Y-108448985D01*
X124646015Y-108567519D01*
X124739147Y-108706900D01*
X124803297Y-108861772D01*
X124836000Y-109026184D01*
X124836000Y-109193816D01*
X124803297Y-109358228D01*
X124739147Y-109513100D01*
X124646015Y-109652481D01*
X124527481Y-109771015D01*
X124388100Y-109864147D01*
X124233228Y-109928297D01*
X124068816Y-109961000D01*
X123901184Y-109961000D01*
X123736772Y-109928297D01*
X123581900Y-109864147D01*
X123442519Y-109771015D01*
X123323985Y-109652481D01*
X123230853Y-109513100D01*
X123166703Y-109358228D01*
X123134000Y-109193816D01*
X123134000Y-109026184D01*
X123166703Y-108861772D01*
X123230853Y-108706900D01*
X123323985Y-108567519D01*
X123442519Y-108448985D01*
X123581900Y-108355853D01*
X123736772Y-108291703D01*
X123901184Y-108259000D01*
X124068816Y-108259000D01*
X124233228Y-108291703D01*
G37*
G36*
X94233228Y-108291703D02*
G01*
X94388100Y-108355853D01*
X94527481Y-108448985D01*
X94646015Y-108567519D01*
X94739147Y-108706900D01*
X94803297Y-108861772D01*
X94836000Y-109026184D01*
X94836000Y-109193816D01*
X94803297Y-109358228D01*
X94739147Y-109513100D01*
X94646015Y-109652481D01*
X94527481Y-109771015D01*
X94388100Y-109864147D01*
X94233228Y-109928297D01*
X94068816Y-109961000D01*
X93901184Y-109961000D01*
X93736772Y-109928297D01*
X93581900Y-109864147D01*
X93442519Y-109771015D01*
X93323985Y-109652481D01*
X93230853Y-109513100D01*
X93166703Y-109358228D01*
X93134000Y-109193816D01*
X93134000Y-109026184D01*
X93166703Y-108861772D01*
X93230853Y-108706900D01*
X93323985Y-108567519D01*
X93442519Y-108448985D01*
X93581900Y-108355853D01*
X93736772Y-108291703D01*
X93901184Y-108259000D01*
X94068816Y-108259000D01*
X94233228Y-108291703D01*
G37*
G36*
X188043228Y-107656703D02*
G01*
X188198100Y-107720853D01*
X188337481Y-107813985D01*
X188456015Y-107932519D01*
X188549147Y-108071900D01*
X188613297Y-108226772D01*
X188646000Y-108391184D01*
X188646000Y-108558816D01*
X188613297Y-108723228D01*
X188549147Y-108878100D01*
X188456015Y-109017481D01*
X188337481Y-109136015D01*
X188198100Y-109229147D01*
X188043228Y-109293297D01*
X187878816Y-109326000D01*
X187711184Y-109326000D01*
X187546772Y-109293297D01*
X187391900Y-109229147D01*
X187252519Y-109136015D01*
X187133985Y-109017481D01*
X187040853Y-108878100D01*
X186976703Y-108723228D01*
X186944000Y-108558816D01*
X186944000Y-108391184D01*
X186976703Y-108226772D01*
X187040853Y-108071900D01*
X187133985Y-107932519D01*
X187252519Y-107813985D01*
X187391900Y-107720853D01*
X187546772Y-107656703D01*
X187711184Y-107624000D01*
X187878816Y-107624000D01*
X188043228Y-107656703D01*
G37*
G36*
X86032585Y-105048802D02*
G01*
X86182410Y-105078604D01*
X86464674Y-105195521D01*
X86718705Y-105365259D01*
X86934741Y-105581295D01*
X87104479Y-105835326D01*
X87158703Y-105966236D01*
X87178517Y-106014071D01*
X87190068Y-106035682D01*
X87205613Y-106054624D01*
X87224555Y-106070169D01*
X87246166Y-106081720D01*
X87269615Y-106088833D01*
X87294001Y-106091235D01*
X87318387Y-106088833D01*
X87341836Y-106081720D01*
X87363447Y-106070169D01*
X87382389Y-106054624D01*
X87397934Y-106035682D01*
X87409485Y-106014071D01*
X87416598Y-105990622D01*
X87419000Y-105966236D01*
X87419000Y-105851185D01*
X87422154Y-105835328D01*
X87451703Y-105686772D01*
X87515853Y-105531900D01*
X87608985Y-105392519D01*
X87727519Y-105273985D01*
X87866900Y-105180853D01*
X88021772Y-105116703D01*
X88186184Y-105084000D01*
X88353816Y-105084000D01*
X88518228Y-105116703D01*
X88673100Y-105180853D01*
X88812481Y-105273985D01*
X88931015Y-105392519D01*
X89024147Y-105531900D01*
X89088297Y-105686772D01*
X89121000Y-105851184D01*
X89121000Y-106018816D01*
X89088297Y-106183228D01*
X89024147Y-106338100D01*
X88931015Y-106477481D01*
X88812481Y-106596015D01*
X88673100Y-106689147D01*
X88518228Y-106753297D01*
X88353816Y-106786000D01*
X88186184Y-106786000D01*
X88021772Y-106753297D01*
X87866900Y-106689147D01*
X87727519Y-106596015D01*
X87608985Y-106477481D01*
X87515853Y-106338100D01*
X87515851Y-106338095D01*
X87510680Y-106330356D01*
X87507861Y-106325083D01*
X87492315Y-106306141D01*
X87473372Y-106290597D01*
X87451761Y-106279047D01*
X87428312Y-106271935D01*
X87403925Y-106269534D01*
X87379540Y-106271937D01*
X87356091Y-106279051D01*
X87334481Y-106290603D01*
X87315539Y-106306149D01*
X87299995Y-106325092D01*
X87288445Y-106346703D01*
X87281333Y-106370152D01*
X87278932Y-106394539D01*
X87281000Y-106415530D01*
X87281000Y-106722760D01*
X87221396Y-107022410D01*
X87104479Y-107304674D01*
X86934741Y-107558705D01*
X86718705Y-107774741D01*
X86464674Y-107944479D01*
X86182410Y-108061396D01*
X86032585Y-108091198D01*
X85882761Y-108121000D01*
X85577239Y-108121000D01*
X85427415Y-108091198D01*
X85277590Y-108061396D01*
X84995326Y-107944479D01*
X84741295Y-107774741D01*
X84525259Y-107558705D01*
X84355521Y-107304674D01*
X84238604Y-107022410D01*
X84179000Y-106722760D01*
X84179000Y-106417240D01*
X84183516Y-106394539D01*
X84238604Y-106117591D01*
X84249521Y-106091235D01*
X84355521Y-105835326D01*
X84525259Y-105581295D01*
X84741295Y-105365259D01*
X84995326Y-105195521D01*
X85277590Y-105078604D01*
X85427415Y-105048802D01*
X85577239Y-105019000D01*
X85882761Y-105019000D01*
X86032585Y-105048802D01*
G37*
G36*
X56032585Y-105048802D02*
G01*
X56182410Y-105078604D01*
X56464674Y-105195521D01*
X56718705Y-105365259D01*
X56934741Y-105581295D01*
X57104479Y-105835326D01*
X57158703Y-105966236D01*
X57178517Y-106014071D01*
X57190068Y-106035682D01*
X57205613Y-106054624D01*
X57224555Y-106070169D01*
X57246166Y-106081720D01*
X57269615Y-106088833D01*
X57294001Y-106091235D01*
X57318387Y-106088833D01*
X57341836Y-106081720D01*
X57363447Y-106070169D01*
X57382389Y-106054624D01*
X57397934Y-106035682D01*
X57409485Y-106014071D01*
X57416598Y-105990622D01*
X57419000Y-105966236D01*
X57419000Y-105851185D01*
X57422154Y-105835328D01*
X57451703Y-105686772D01*
X57515853Y-105531900D01*
X57608985Y-105392519D01*
X57727519Y-105273985D01*
X57866900Y-105180853D01*
X58021772Y-105116703D01*
X58186184Y-105084000D01*
X58353816Y-105084000D01*
X58518228Y-105116703D01*
X58673100Y-105180853D01*
X58812481Y-105273985D01*
X58931015Y-105392519D01*
X59024147Y-105531900D01*
X59088297Y-105686772D01*
X59121000Y-105851184D01*
X59121000Y-106018816D01*
X59088297Y-106183228D01*
X59024147Y-106338100D01*
X58931015Y-106477481D01*
X58812481Y-106596015D01*
X58673100Y-106689147D01*
X58518228Y-106753297D01*
X58353816Y-106786000D01*
X58186184Y-106786000D01*
X58021772Y-106753297D01*
X57866900Y-106689147D01*
X57727519Y-106596015D01*
X57608985Y-106477481D01*
X57515853Y-106338100D01*
X57515851Y-106338095D01*
X57510680Y-106330356D01*
X57507861Y-106325083D01*
X57492315Y-106306141D01*
X57473372Y-106290597D01*
X57451761Y-106279047D01*
X57428312Y-106271935D01*
X57403925Y-106269534D01*
X57379540Y-106271937D01*
X57356091Y-106279051D01*
X57334481Y-106290603D01*
X57315539Y-106306149D01*
X57299995Y-106325092D01*
X57288445Y-106346703D01*
X57281333Y-106370152D01*
X57278932Y-106394539D01*
X57281000Y-106415530D01*
X57281000Y-106722760D01*
X57221396Y-107022410D01*
X57104479Y-107304674D01*
X56934741Y-107558705D01*
X56718705Y-107774741D01*
X56464674Y-107944479D01*
X56182410Y-108061396D01*
X56032585Y-108091198D01*
X55882761Y-108121000D01*
X55577239Y-108121000D01*
X55427415Y-108091198D01*
X55277590Y-108061396D01*
X54995326Y-107944479D01*
X54741295Y-107774741D01*
X54525259Y-107558705D01*
X54355521Y-107304674D01*
X54238604Y-107022410D01*
X54179000Y-106722760D01*
X54179000Y-106417240D01*
X54183516Y-106394539D01*
X54238604Y-106117591D01*
X54249521Y-106091235D01*
X54355521Y-105835326D01*
X54525259Y-105581295D01*
X54741295Y-105365259D01*
X54995326Y-105195521D01*
X55277590Y-105078604D01*
X55427415Y-105048802D01*
X55577239Y-105019000D01*
X55882761Y-105019000D01*
X56032585Y-105048802D01*
G37*
G36*
X116032585Y-105048802D02*
G01*
X116182410Y-105078604D01*
X116464674Y-105195521D01*
X116718705Y-105365259D01*
X116934741Y-105581295D01*
X117104479Y-105835326D01*
X117158703Y-105966236D01*
X117178517Y-106014071D01*
X117190068Y-106035682D01*
X117205613Y-106054624D01*
X117224555Y-106070169D01*
X117246166Y-106081720D01*
X117269615Y-106088833D01*
X117294001Y-106091235D01*
X117318387Y-106088833D01*
X117341836Y-106081720D01*
X117363447Y-106070169D01*
X117382389Y-106054624D01*
X117397934Y-106035682D01*
X117409485Y-106014071D01*
X117416598Y-105990622D01*
X117419000Y-105966236D01*
X117419000Y-105851185D01*
X117422154Y-105835328D01*
X117451703Y-105686772D01*
X117515853Y-105531900D01*
X117608985Y-105392519D01*
X117727519Y-105273985D01*
X117866900Y-105180853D01*
X118021772Y-105116703D01*
X118186184Y-105084000D01*
X118353816Y-105084000D01*
X118518228Y-105116703D01*
X118673100Y-105180853D01*
X118812481Y-105273985D01*
X118931015Y-105392519D01*
X119024147Y-105531900D01*
X119088297Y-105686772D01*
X119121000Y-105851184D01*
X119121000Y-106018816D01*
X119088297Y-106183228D01*
X119024147Y-106338100D01*
X118931015Y-106477481D01*
X118812481Y-106596015D01*
X118673100Y-106689147D01*
X118518228Y-106753297D01*
X118353816Y-106786000D01*
X118186184Y-106786000D01*
X118021772Y-106753297D01*
X117866900Y-106689147D01*
X117727519Y-106596015D01*
X117608985Y-106477481D01*
X117515853Y-106338100D01*
X117515851Y-106338095D01*
X117510680Y-106330356D01*
X117507861Y-106325083D01*
X117492315Y-106306141D01*
X117473372Y-106290597D01*
X117451761Y-106279047D01*
X117428312Y-106271935D01*
X117403925Y-106269534D01*
X117379540Y-106271937D01*
X117356091Y-106279051D01*
X117334481Y-106290603D01*
X117315539Y-106306149D01*
X117299995Y-106325092D01*
X117288445Y-106346703D01*
X117281333Y-106370152D01*
X117278932Y-106394539D01*
X117281000Y-106415530D01*
X117281000Y-106722760D01*
X117221396Y-107022410D01*
X117104479Y-107304674D01*
X116934741Y-107558705D01*
X116718705Y-107774741D01*
X116464674Y-107944479D01*
X116182410Y-108061396D01*
X116032585Y-108091198D01*
X115882761Y-108121000D01*
X115577239Y-108121000D01*
X115427415Y-108091198D01*
X115277590Y-108061396D01*
X114995326Y-107944479D01*
X114741295Y-107774741D01*
X114525259Y-107558705D01*
X114355521Y-107304674D01*
X114238604Y-107022410D01*
X114179000Y-106722760D01*
X114179000Y-106417240D01*
X114183516Y-106394539D01*
X114238604Y-106117591D01*
X114249521Y-106091235D01*
X114355521Y-105835326D01*
X114525259Y-105581295D01*
X114741295Y-105365259D01*
X114995326Y-105195521D01*
X115277590Y-105078604D01*
X115427415Y-105048802D01*
X115577239Y-105019000D01*
X115882761Y-105019000D01*
X116032585Y-105048802D01*
G37*
G36*
X146032585Y-105048802D02*
G01*
X146182410Y-105078604D01*
X146464674Y-105195521D01*
X146718705Y-105365259D01*
X146934741Y-105581295D01*
X147104479Y-105835326D01*
X147158703Y-105966236D01*
X147178517Y-106014071D01*
X147190068Y-106035682D01*
X147205613Y-106054624D01*
X147224555Y-106070169D01*
X147246166Y-106081720D01*
X147269615Y-106088833D01*
X147294001Y-106091235D01*
X147318387Y-106088833D01*
X147341836Y-106081720D01*
X147363447Y-106070169D01*
X147382389Y-106054624D01*
X147397934Y-106035682D01*
X147409485Y-106014071D01*
X147416598Y-105990622D01*
X147419000Y-105966236D01*
X147419000Y-105851185D01*
X147422154Y-105835328D01*
X147451703Y-105686772D01*
X147515853Y-105531900D01*
X147608985Y-105392519D01*
X147727519Y-105273985D01*
X147866900Y-105180853D01*
X148021772Y-105116703D01*
X148186184Y-105084000D01*
X148353816Y-105084000D01*
X148518228Y-105116703D01*
X148673100Y-105180853D01*
X148812481Y-105273985D01*
X148931015Y-105392519D01*
X149024147Y-105531900D01*
X149088297Y-105686772D01*
X149121000Y-105851184D01*
X149121000Y-106018816D01*
X149088297Y-106183228D01*
X149024147Y-106338100D01*
X148931015Y-106477481D01*
X148812481Y-106596015D01*
X148673100Y-106689147D01*
X148518228Y-106753297D01*
X148353816Y-106786000D01*
X148186184Y-106786000D01*
X148021772Y-106753297D01*
X147866900Y-106689147D01*
X147727519Y-106596015D01*
X147608985Y-106477481D01*
X147515853Y-106338100D01*
X147515851Y-106338095D01*
X147510680Y-106330356D01*
X147507861Y-106325083D01*
X147492315Y-106306141D01*
X147473372Y-106290597D01*
X147451761Y-106279047D01*
X147428312Y-106271935D01*
X147403925Y-106269534D01*
X147379540Y-106271937D01*
X147356091Y-106279051D01*
X147334481Y-106290603D01*
X147315539Y-106306149D01*
X147299995Y-106325092D01*
X147288445Y-106346703D01*
X147281333Y-106370152D01*
X147278932Y-106394539D01*
X147281000Y-106415530D01*
X147281000Y-106722760D01*
X147221396Y-107022410D01*
X147104479Y-107304674D01*
X146934741Y-107558705D01*
X146718705Y-107774741D01*
X146464674Y-107944479D01*
X146182410Y-108061396D01*
X146032585Y-108091198D01*
X145882761Y-108121000D01*
X145577239Y-108121000D01*
X145427415Y-108091198D01*
X145277590Y-108061396D01*
X144995326Y-107944479D01*
X144741295Y-107774741D01*
X144525259Y-107558705D01*
X144355521Y-107304674D01*
X144238604Y-107022410D01*
X144179000Y-106722760D01*
X144179000Y-106417240D01*
X144183516Y-106394539D01*
X144238604Y-106117591D01*
X144249521Y-106091235D01*
X144355521Y-105835326D01*
X144525259Y-105581295D01*
X144741295Y-105365259D01*
X144995326Y-105195521D01*
X145277590Y-105078604D01*
X145427415Y-105048802D01*
X145577239Y-105019000D01*
X145882761Y-105019000D01*
X146032585Y-105048802D01*
G37*
G36*
X69948228Y-105116703D02*
G01*
X70103100Y-105180853D01*
X70242481Y-105273985D01*
X70361015Y-105392519D01*
X70454147Y-105531900D01*
X70518297Y-105686772D01*
X70551000Y-105851184D01*
X70551000Y-106018816D01*
X70518297Y-106183228D01*
X70454147Y-106338100D01*
X70361015Y-106477481D01*
X70242481Y-106596015D01*
X70103100Y-106689147D01*
X69948228Y-106753297D01*
X69783816Y-106786000D01*
X69616184Y-106786000D01*
X69451772Y-106753297D01*
X69296900Y-106689147D01*
X69157519Y-106596015D01*
X69038985Y-106477481D01*
X68945853Y-106338100D01*
X68881703Y-106183228D01*
X68849000Y-106018816D01*
X68849000Y-105851184D01*
X68881703Y-105686772D01*
X68945853Y-105531900D01*
X69038985Y-105392519D01*
X69157519Y-105273985D01*
X69296900Y-105180853D01*
X69451772Y-105116703D01*
X69616184Y-105084000D01*
X69783816Y-105084000D01*
X69948228Y-105116703D01*
G37*
G36*
X129948228Y-105116703D02*
G01*
X130103100Y-105180853D01*
X130242481Y-105273985D01*
X130361015Y-105392519D01*
X130454147Y-105531900D01*
X130518297Y-105686772D01*
X130551000Y-105851184D01*
X130551000Y-106018816D01*
X130518297Y-106183228D01*
X130454147Y-106338100D01*
X130361015Y-106477481D01*
X130242481Y-106596015D01*
X130103100Y-106689147D01*
X129948228Y-106753297D01*
X129783816Y-106786000D01*
X129616184Y-106786000D01*
X129451772Y-106753297D01*
X129296900Y-106689147D01*
X129157519Y-106596015D01*
X129038985Y-106477481D01*
X128945853Y-106338100D01*
X128881703Y-106183228D01*
X128849000Y-106018816D01*
X128849000Y-105851184D01*
X128881703Y-105686772D01*
X128945853Y-105531900D01*
X129038985Y-105392519D01*
X129157519Y-105273985D01*
X129296900Y-105180853D01*
X129451772Y-105116703D01*
X129616184Y-105084000D01*
X129783816Y-105084000D01*
X129948228Y-105116703D01*
G37*
G36*
X159948228Y-105116703D02*
G01*
X160103100Y-105180853D01*
X160242481Y-105273985D01*
X160361015Y-105392519D01*
X160454147Y-105531900D01*
X160518297Y-105686772D01*
X160551000Y-105851184D01*
X160551000Y-106018816D01*
X160518297Y-106183228D01*
X160454147Y-106338100D01*
X160361015Y-106477481D01*
X160242481Y-106596015D01*
X160103100Y-106689147D01*
X159948228Y-106753297D01*
X159783816Y-106786000D01*
X159616184Y-106786000D01*
X159451772Y-106753297D01*
X159296900Y-106689147D01*
X159157519Y-106596015D01*
X159038985Y-106477481D01*
X158945853Y-106338100D01*
X158881703Y-106183228D01*
X158849000Y-106018816D01*
X158849000Y-105851184D01*
X158881703Y-105686772D01*
X158945853Y-105531900D01*
X159038985Y-105392519D01*
X159157519Y-105273985D01*
X159296900Y-105180853D01*
X159451772Y-105116703D01*
X159616184Y-105084000D01*
X159783816Y-105084000D01*
X159948228Y-105116703D01*
G37*
G36*
X99948228Y-105116703D02*
G01*
X100103100Y-105180853D01*
X100242481Y-105273985D01*
X100361015Y-105392519D01*
X100454147Y-105531900D01*
X100518297Y-105686772D01*
X100551000Y-105851184D01*
X100551000Y-106018816D01*
X100518297Y-106183228D01*
X100454147Y-106338100D01*
X100361015Y-106477481D01*
X100242481Y-106596015D01*
X100103100Y-106689147D01*
X99948228Y-106753297D01*
X99783816Y-106786000D01*
X99616184Y-106786000D01*
X99451772Y-106753297D01*
X99296900Y-106689147D01*
X99157519Y-106596015D01*
X99038985Y-106477481D01*
X98945853Y-106338100D01*
X98881703Y-106183228D01*
X98849000Y-106018816D01*
X98849000Y-105851184D01*
X98881703Y-105686772D01*
X98945853Y-105531900D01*
X99038985Y-105392519D01*
X99157519Y-105273985D01*
X99296900Y-105180853D01*
X99451772Y-105116703D01*
X99616184Y-105084000D01*
X99783816Y-105084000D01*
X99948228Y-105116703D01*
G37*
G36*
X180423228Y-102576703D02*
G01*
X180578100Y-102640853D01*
X180717481Y-102733985D01*
X180836015Y-102852519D01*
X180929147Y-102991900D01*
X180993297Y-103146772D01*
X181026000Y-103311184D01*
X181026000Y-103478816D01*
X180993297Y-103643228D01*
X180929147Y-103798100D01*
X180836015Y-103937481D01*
X180717481Y-104056015D01*
X180578100Y-104149147D01*
X180423228Y-104213297D01*
X180258816Y-104246000D01*
X180091184Y-104246000D01*
X179926772Y-104213297D01*
X179771900Y-104149147D01*
X179632519Y-104056015D01*
X179513985Y-103937481D01*
X179420853Y-103798100D01*
X179356703Y-103643228D01*
X179324000Y-103478816D01*
X179324000Y-103311184D01*
X179356703Y-103146772D01*
X179420853Y-102991900D01*
X179513985Y-102852519D01*
X179632519Y-102733985D01*
X179771900Y-102640853D01*
X179926772Y-102576703D01*
X180091184Y-102544000D01*
X180258816Y-102544000D01*
X180423228Y-102576703D01*
G37*
M02*
