G04 #@! TF.GenerationSoftware,KiCad,Pcbnew,5.1.4*
G04 #@! TF.CreationDate,2019-09-29T22:18:50-04:00*
G04 #@! TF.ProjectId,input_output_board,696e7075-745f-46f7-9574-7075745f626f,0*
G04 #@! TF.SameCoordinates,Original*
G04 #@! TF.FileFunction,Copper,L2,Bot*
G04 #@! TF.FilePolarity,Positive*
%FSLAX46Y46*%
G04 Gerber Fmt 4.6, Leading zero omitted, Abs format (unit mm)*
G04 Created by KiCad (PCBNEW 5.1.4) date 2019-09-29 22:18:50*
%MOMM*%
%LPD*%
G04 APERTURE LIST*
%ADD10C,0.381000*%
%ADD11C,3.000000*%
%ADD12C,3.400000*%
%ADD13C,2.700000*%
%ADD14C,2.500000*%
%ADD15O,1.740000X2.200000*%
%ADD16C,0.100000*%
%ADD17C,1.740000*%
%ADD18O,2.140000X1.740000*%
%ADD19C,0.800000*%
%ADD20C,0.406400*%
%ADD21C,0.254000*%
G04 APERTURE END LIST*
D10*
X84900560Y-132599700D02*
X85500000Y-132500640D01*
X84499240Y-132698760D02*
X84900560Y-132599700D01*
X83998860Y-133001020D02*
X84499240Y-132698760D01*
X83501020Y-133498860D02*
X83998860Y-133001020D01*
X83198760Y-133999240D02*
X83501020Y-133498860D01*
X83000640Y-134601220D02*
X83198760Y-133999240D01*
X83000640Y-135200660D02*
X83000640Y-134601220D01*
X83099700Y-135800100D02*
X83000640Y-135200660D01*
X83501020Y-136501140D02*
X83099700Y-135800100D01*
X83998860Y-136998980D02*
X83501020Y-136501140D01*
X84600840Y-137301240D02*
X83998860Y-136998980D01*
X85200280Y-137499360D02*
X84600840Y-137301240D01*
X86000380Y-137499360D02*
X85200280Y-137499360D01*
X86698880Y-137199640D02*
X86000380Y-137499360D01*
X87199260Y-136800860D02*
X86698880Y-137199640D01*
X87801240Y-136099820D02*
X87199260Y-136800860D01*
X87999360Y-135299720D02*
X87801240Y-136099820D01*
X87999360Y-134700280D02*
X87999360Y-135299720D01*
X87900300Y-134199900D02*
X87999360Y-134700280D01*
X87699640Y-133801120D02*
X87900300Y-134199900D01*
X87199260Y-133199140D02*
X87699640Y-133801120D01*
X86698880Y-132800360D02*
X87199260Y-133199140D01*
X86201040Y-132599700D02*
X86698880Y-132800360D01*
X85599060Y-132500640D02*
X86201040Y-132599700D01*
X85500000Y-132500640D02*
X85599060Y-132500640D01*
X85815666Y-133300740D02*
G75*
G03X85815666Y-133300740I-315666J0D01*
G01*
X86300100Y-135200660D02*
X86300100Y-133999240D01*
X84798960Y-135200660D02*
X86300100Y-135200660D01*
X84798960Y-133999240D02*
X84798960Y-135200660D01*
X86300100Y-133999240D02*
X84798960Y-133999240D01*
X85799720Y-136800860D02*
X85299340Y-136800860D01*
X85799720Y-135299720D02*
X85799720Y-136800860D01*
X85200280Y-136800860D02*
X85200280Y-135200660D01*
X85400940Y-136800860D02*
X85200280Y-136800860D01*
X85500000Y-135299720D02*
X85500000Y-136600200D01*
X86300100Y-134900940D02*
X84999620Y-134900940D01*
X84999620Y-134601220D02*
X86201040Y-134601220D01*
X86201040Y-134298960D02*
X84900560Y-134298960D01*
X85500000Y-133100080D02*
X85500000Y-133498860D01*
X77400560Y-132599700D02*
X78000000Y-132500640D01*
X76999240Y-132698760D02*
X77400560Y-132599700D01*
X76498860Y-133001020D02*
X76999240Y-132698760D01*
X76001020Y-133498860D02*
X76498860Y-133001020D01*
X75698760Y-133999240D02*
X76001020Y-133498860D01*
X75500640Y-134601220D02*
X75698760Y-133999240D01*
X75500640Y-135200660D02*
X75500640Y-134601220D01*
X75599700Y-135800100D02*
X75500640Y-135200660D01*
X76001020Y-136501140D02*
X75599700Y-135800100D01*
X76498860Y-136998980D02*
X76001020Y-136501140D01*
X77100840Y-137301240D02*
X76498860Y-136998980D01*
X77700280Y-137499360D02*
X77100840Y-137301240D01*
X78500380Y-137499360D02*
X77700280Y-137499360D01*
X79198880Y-137199640D02*
X78500380Y-137499360D01*
X79699260Y-136800860D02*
X79198880Y-137199640D01*
X80301240Y-136099820D02*
X79699260Y-136800860D01*
X80499360Y-135299720D02*
X80301240Y-136099820D01*
X80499360Y-134700280D02*
X80499360Y-135299720D01*
X80400300Y-134199900D02*
X80499360Y-134700280D01*
X80199640Y-133801120D02*
X80400300Y-134199900D01*
X79699260Y-133199140D02*
X80199640Y-133801120D01*
X79198880Y-132800360D02*
X79699260Y-133199140D01*
X78701040Y-132599700D02*
X79198880Y-132800360D01*
X78099060Y-132500640D02*
X78701040Y-132599700D01*
X78000000Y-132500640D02*
X78099060Y-132500640D01*
X78500380Y-133498860D02*
X79000760Y-133699520D01*
X78099060Y-133399800D02*
X78500380Y-133498860D01*
X77700280Y-133399800D02*
X78099060Y-133399800D01*
X77100840Y-133699520D02*
X77700280Y-133399800D01*
X76801120Y-133999240D02*
X77100840Y-133699520D01*
X76498860Y-134499620D02*
X76801120Y-133999240D01*
X76399800Y-135000000D02*
X76498860Y-134499620D01*
X76399800Y-135398780D02*
X76399800Y-135000000D01*
X76699520Y-135899160D02*
X76399800Y-135398780D01*
X77100840Y-136300480D02*
X76699520Y-135899160D01*
X77601220Y-136501140D02*
X77100840Y-136300480D01*
X78099060Y-136600200D02*
X77601220Y-136501140D01*
X78599440Y-136501140D02*
X78099060Y-136600200D01*
X79099820Y-136198880D02*
X78599440Y-136501140D01*
X92250560Y-132499700D02*
X92850000Y-132400640D01*
X91849240Y-132598760D02*
X92250560Y-132499700D01*
X91348860Y-132901020D02*
X91849240Y-132598760D01*
X90851020Y-133398860D02*
X91348860Y-132901020D01*
X90548760Y-133899240D02*
X90851020Y-133398860D01*
X90350640Y-134501220D02*
X90548760Y-133899240D01*
X90350640Y-135100660D02*
X90350640Y-134501220D01*
X90449700Y-135700100D02*
X90350640Y-135100660D01*
X90851020Y-136401140D02*
X90449700Y-135700100D01*
X91348860Y-136898980D02*
X90851020Y-136401140D01*
X91950840Y-137201240D02*
X91348860Y-136898980D01*
X92550280Y-137399360D02*
X91950840Y-137201240D01*
X93350380Y-137399360D02*
X92550280Y-137399360D01*
X94048880Y-137099640D02*
X93350380Y-137399360D01*
X94549260Y-136700860D02*
X94048880Y-137099640D01*
X95151240Y-135999820D02*
X94549260Y-136700860D01*
X95349360Y-135199720D02*
X95151240Y-135999820D01*
X95349360Y-134600280D02*
X95349360Y-135199720D01*
X95250300Y-134099900D02*
X95349360Y-134600280D01*
X95049640Y-133701120D02*
X95250300Y-134099900D01*
X94549260Y-133099140D02*
X95049640Y-133701120D01*
X94048880Y-132700360D02*
X94549260Y-133099140D01*
X93551040Y-132499700D02*
X94048880Y-132700360D01*
X92949060Y-132400640D02*
X93551040Y-132499700D01*
X92850000Y-132400640D02*
X92949060Y-132400640D01*
X93449440Y-135900760D02*
X93248780Y-135700100D01*
X93850760Y-135900760D02*
X93449440Y-135900760D01*
X94150480Y-135799160D02*
X93850760Y-135900760D01*
X94351140Y-135499440D02*
X94150480Y-135799160D01*
X94450200Y-134999060D02*
X94351140Y-135499440D01*
X94450200Y-134600280D02*
X94450200Y-134999060D01*
X94351140Y-134198960D02*
X94450200Y-134600280D01*
X94048880Y-134000840D02*
X94351140Y-134198960D01*
X93650100Y-133899240D02*
X94048880Y-134000840D01*
X93350380Y-134000840D02*
X93650100Y-133899240D01*
X93248780Y-134099900D02*
X93350380Y-134000840D01*
X91348860Y-135900760D02*
X91249800Y-135700100D01*
X91651120Y-135900760D02*
X91348860Y-135900760D01*
X91849240Y-135900760D02*
X91651120Y-135900760D01*
X92250560Y-135700100D02*
X91849240Y-135900760D01*
X92451220Y-135298780D02*
X92250560Y-135700100D01*
X92451220Y-134900000D02*
X92451220Y-135298780D01*
X92349620Y-134399620D02*
X92451220Y-134900000D01*
X92148960Y-134000840D02*
X92349620Y-134399620D01*
X91849240Y-133899240D02*
X92148960Y-134000840D01*
X91549520Y-133899240D02*
X91849240Y-133899240D01*
X91348860Y-134000840D02*
X91549520Y-133899240D01*
X91249800Y-134099900D02*
X91348860Y-134000840D01*
D11*
X183985000Y-112285000D03*
X183985000Y-117365000D03*
D12*
X187795000Y-117365000D03*
X180175000Y-117365000D03*
D11*
X145730000Y-106570000D03*
D12*
X149540000Y-115460000D03*
X158430000Y-115460000D03*
D13*
X156842500Y-122445000D03*
D14*
X151127500Y-122445000D03*
D13*
X153985000Y-123080000D03*
D11*
X160970000Y-118635000D03*
X147000000Y-118000000D03*
X115730000Y-106570000D03*
D12*
X119540000Y-115460000D03*
X128430000Y-115460000D03*
D13*
X126842500Y-122445000D03*
D14*
X121127500Y-122445000D03*
D13*
X123985000Y-123080000D03*
D11*
X130970000Y-118635000D03*
X117000000Y-118000000D03*
X85730000Y-106570000D03*
D12*
X89540000Y-115460000D03*
X98430000Y-115460000D03*
D13*
X96842500Y-122445000D03*
D14*
X91127500Y-122445000D03*
D13*
X93985000Y-123080000D03*
D11*
X100970000Y-118635000D03*
X87000000Y-118000000D03*
X55730000Y-106570000D03*
D12*
X59540000Y-115460000D03*
X68430000Y-115460000D03*
D13*
X66842500Y-122445000D03*
D14*
X61127500Y-122445000D03*
D13*
X63985000Y-123080000D03*
D11*
X70970000Y-118635000D03*
X57000000Y-118000000D03*
D15*
X193460000Y-140000000D03*
D16*
G36*
X196644505Y-138901204D02*
G01*
X196668773Y-138904804D01*
X196692572Y-138910765D01*
X196715671Y-138919030D01*
X196737850Y-138929520D01*
X196758893Y-138942132D01*
X196778599Y-138956747D01*
X196796777Y-138973223D01*
X196813253Y-138991401D01*
X196827868Y-139011107D01*
X196840480Y-139032150D01*
X196850970Y-139054329D01*
X196859235Y-139077428D01*
X196865196Y-139101227D01*
X196868796Y-139125495D01*
X196870000Y-139149999D01*
X196870000Y-140850001D01*
X196868796Y-140874505D01*
X196865196Y-140898773D01*
X196859235Y-140922572D01*
X196850970Y-140945671D01*
X196840480Y-140967850D01*
X196827868Y-140988893D01*
X196813253Y-141008599D01*
X196796777Y-141026777D01*
X196778599Y-141043253D01*
X196758893Y-141057868D01*
X196737850Y-141070480D01*
X196715671Y-141080970D01*
X196692572Y-141089235D01*
X196668773Y-141095196D01*
X196644505Y-141098796D01*
X196620001Y-141100000D01*
X195379999Y-141100000D01*
X195355495Y-141098796D01*
X195331227Y-141095196D01*
X195307428Y-141089235D01*
X195284329Y-141080970D01*
X195262150Y-141070480D01*
X195241107Y-141057868D01*
X195221401Y-141043253D01*
X195203223Y-141026777D01*
X195186747Y-141008599D01*
X195172132Y-140988893D01*
X195159520Y-140967850D01*
X195149030Y-140945671D01*
X195140765Y-140922572D01*
X195134804Y-140898773D01*
X195131204Y-140874505D01*
X195130000Y-140850001D01*
X195130000Y-139149999D01*
X195131204Y-139125495D01*
X195134804Y-139101227D01*
X195140765Y-139077428D01*
X195149030Y-139054329D01*
X195159520Y-139032150D01*
X195172132Y-139011107D01*
X195186747Y-138991401D01*
X195203223Y-138973223D01*
X195221401Y-138956747D01*
X195241107Y-138942132D01*
X195262150Y-138929520D01*
X195284329Y-138919030D01*
X195307428Y-138910765D01*
X195331227Y-138904804D01*
X195355495Y-138901204D01*
X195379999Y-138900000D01*
X196620001Y-138900000D01*
X196644505Y-138901204D01*
X196644505Y-138901204D01*
G37*
D17*
X196000000Y-140000000D03*
D15*
X183460000Y-140000000D03*
D16*
G36*
X186644505Y-138901204D02*
G01*
X186668773Y-138904804D01*
X186692572Y-138910765D01*
X186715671Y-138919030D01*
X186737850Y-138929520D01*
X186758893Y-138942132D01*
X186778599Y-138956747D01*
X186796777Y-138973223D01*
X186813253Y-138991401D01*
X186827868Y-139011107D01*
X186840480Y-139032150D01*
X186850970Y-139054329D01*
X186859235Y-139077428D01*
X186865196Y-139101227D01*
X186868796Y-139125495D01*
X186870000Y-139149999D01*
X186870000Y-140850001D01*
X186868796Y-140874505D01*
X186865196Y-140898773D01*
X186859235Y-140922572D01*
X186850970Y-140945671D01*
X186840480Y-140967850D01*
X186827868Y-140988893D01*
X186813253Y-141008599D01*
X186796777Y-141026777D01*
X186778599Y-141043253D01*
X186758893Y-141057868D01*
X186737850Y-141070480D01*
X186715671Y-141080970D01*
X186692572Y-141089235D01*
X186668773Y-141095196D01*
X186644505Y-141098796D01*
X186620001Y-141100000D01*
X185379999Y-141100000D01*
X185355495Y-141098796D01*
X185331227Y-141095196D01*
X185307428Y-141089235D01*
X185284329Y-141080970D01*
X185262150Y-141070480D01*
X185241107Y-141057868D01*
X185221401Y-141043253D01*
X185203223Y-141026777D01*
X185186747Y-141008599D01*
X185172132Y-140988893D01*
X185159520Y-140967850D01*
X185149030Y-140945671D01*
X185140765Y-140922572D01*
X185134804Y-140898773D01*
X185131204Y-140874505D01*
X185130000Y-140850001D01*
X185130000Y-139149999D01*
X185131204Y-139125495D01*
X185134804Y-139101227D01*
X185140765Y-139077428D01*
X185149030Y-139054329D01*
X185159520Y-139032150D01*
X185172132Y-139011107D01*
X185186747Y-138991401D01*
X185203223Y-138973223D01*
X185221401Y-138956747D01*
X185241107Y-138942132D01*
X185262150Y-138929520D01*
X185284329Y-138919030D01*
X185307428Y-138910765D01*
X185331227Y-138904804D01*
X185355495Y-138901204D01*
X185379999Y-138900000D01*
X186620001Y-138900000D01*
X186644505Y-138901204D01*
X186644505Y-138901204D01*
G37*
D17*
X186000000Y-140000000D03*
D16*
G36*
X110644505Y-138901204D02*
G01*
X110668773Y-138904804D01*
X110692572Y-138910765D01*
X110715671Y-138919030D01*
X110737850Y-138929520D01*
X110758893Y-138942132D01*
X110778599Y-138956747D01*
X110796777Y-138973223D01*
X110813253Y-138991401D01*
X110827868Y-139011107D01*
X110840480Y-139032150D01*
X110850970Y-139054329D01*
X110859235Y-139077428D01*
X110865196Y-139101227D01*
X110868796Y-139125495D01*
X110870000Y-139149999D01*
X110870000Y-140850001D01*
X110868796Y-140874505D01*
X110865196Y-140898773D01*
X110859235Y-140922572D01*
X110850970Y-140945671D01*
X110840480Y-140967850D01*
X110827868Y-140988893D01*
X110813253Y-141008599D01*
X110796777Y-141026777D01*
X110778599Y-141043253D01*
X110758893Y-141057868D01*
X110737850Y-141070480D01*
X110715671Y-141080970D01*
X110692572Y-141089235D01*
X110668773Y-141095196D01*
X110644505Y-141098796D01*
X110620001Y-141100000D01*
X109379999Y-141100000D01*
X109355495Y-141098796D01*
X109331227Y-141095196D01*
X109307428Y-141089235D01*
X109284329Y-141080970D01*
X109262150Y-141070480D01*
X109241107Y-141057868D01*
X109221401Y-141043253D01*
X109203223Y-141026777D01*
X109186747Y-141008599D01*
X109172132Y-140988893D01*
X109159520Y-140967850D01*
X109149030Y-140945671D01*
X109140765Y-140922572D01*
X109134804Y-140898773D01*
X109131204Y-140874505D01*
X109130000Y-140850001D01*
X109130000Y-139149999D01*
X109131204Y-139125495D01*
X109134804Y-139101227D01*
X109140765Y-139077428D01*
X109149030Y-139054329D01*
X109159520Y-139032150D01*
X109172132Y-139011107D01*
X109186747Y-138991401D01*
X109203223Y-138973223D01*
X109221401Y-138956747D01*
X109241107Y-138942132D01*
X109262150Y-138929520D01*
X109284329Y-138919030D01*
X109307428Y-138910765D01*
X109331227Y-138904804D01*
X109355495Y-138901204D01*
X109379999Y-138900000D01*
X110620001Y-138900000D01*
X110644505Y-138901204D01*
X110644505Y-138901204D01*
G37*
D17*
X110000000Y-140000000D03*
D15*
X107460000Y-140000000D03*
D18*
X166460000Y-131840000D03*
X166460000Y-134380000D03*
X166460000Y-136920000D03*
X166460000Y-139460000D03*
X166460000Y-142000000D03*
X169000000Y-131840000D03*
X169000000Y-134380000D03*
X169000000Y-136920000D03*
X169000000Y-139460000D03*
D16*
G36*
X169844505Y-141131204D02*
G01*
X169868773Y-141134804D01*
X169892572Y-141140765D01*
X169915671Y-141149030D01*
X169937850Y-141159520D01*
X169958893Y-141172132D01*
X169978599Y-141186747D01*
X169996777Y-141203223D01*
X170013253Y-141221401D01*
X170027868Y-141241107D01*
X170040480Y-141262150D01*
X170050970Y-141284329D01*
X170059235Y-141307428D01*
X170065196Y-141331227D01*
X170068796Y-141355495D01*
X170070000Y-141379999D01*
X170070000Y-142620001D01*
X170068796Y-142644505D01*
X170065196Y-142668773D01*
X170059235Y-142692572D01*
X170050970Y-142715671D01*
X170040480Y-142737850D01*
X170027868Y-142758893D01*
X170013253Y-142778599D01*
X169996777Y-142796777D01*
X169978599Y-142813253D01*
X169958893Y-142827868D01*
X169937850Y-142840480D01*
X169915671Y-142850970D01*
X169892572Y-142859235D01*
X169868773Y-142865196D01*
X169844505Y-142868796D01*
X169820001Y-142870000D01*
X168179999Y-142870000D01*
X168155495Y-142868796D01*
X168131227Y-142865196D01*
X168107428Y-142859235D01*
X168084329Y-142850970D01*
X168062150Y-142840480D01*
X168041107Y-142827868D01*
X168021401Y-142813253D01*
X168003223Y-142796777D01*
X167986747Y-142778599D01*
X167972132Y-142758893D01*
X167959520Y-142737850D01*
X167949030Y-142715671D01*
X167940765Y-142692572D01*
X167934804Y-142668773D01*
X167931204Y-142644505D01*
X167930000Y-142620001D01*
X167930000Y-141379999D01*
X167931204Y-141355495D01*
X167934804Y-141331227D01*
X167940765Y-141307428D01*
X167949030Y-141284329D01*
X167959520Y-141262150D01*
X167972132Y-141241107D01*
X167986747Y-141221401D01*
X168003223Y-141203223D01*
X168021401Y-141186747D01*
X168041107Y-141172132D01*
X168062150Y-141159520D01*
X168084329Y-141149030D01*
X168107428Y-141140765D01*
X168131227Y-141134804D01*
X168155495Y-141131204D01*
X168179999Y-141130000D01*
X169820001Y-141130000D01*
X169844505Y-141131204D01*
X169844505Y-141131204D01*
G37*
D17*
X169000000Y-142000000D03*
D19*
X162023070Y-140695367D03*
X160908010Y-141637692D03*
X160000000Y-143000000D03*
X59500000Y-146500000D03*
X89500000Y-146500000D03*
X119500000Y-146500000D03*
X149500000Y-146500000D03*
X174500000Y-130500000D03*
D20*
X162024633Y-140695367D02*
X162023070Y-140695367D01*
X165224633Y-140695367D02*
X166460000Y-139460000D01*
X162023070Y-140695367D02*
X165224633Y-140695367D01*
X166460000Y-136460000D02*
X166260000Y-136460000D01*
X164454595Y-136920000D02*
X166460000Y-136920000D01*
X160908010Y-141637692D02*
X160908010Y-140466585D01*
X160908010Y-140466585D02*
X164454595Y-136920000D01*
X166460000Y-133920000D02*
X166260000Y-133920000D01*
X160000000Y-139363600D02*
X164983600Y-134380000D01*
X164983600Y-134380000D02*
X166460000Y-134380000D01*
X160000000Y-143000000D02*
X160000000Y-139363600D01*
X169460000Y-136460000D02*
X169260000Y-136460000D01*
X169460000Y-133920000D02*
X169260000Y-133920000D01*
X169460000Y-131380000D02*
X169260000Y-131380000D01*
X166460000Y-131380000D02*
X166260000Y-131380000D01*
D21*
G36*
X175873000Y-148873000D02*
G01*
X53127000Y-148873000D01*
X53127000Y-140127000D01*
X99947394Y-140127000D01*
X103910197Y-144089803D01*
X103929443Y-144105597D01*
X103951399Y-144117333D01*
X103975224Y-144124560D01*
X104000000Y-144127000D01*
X113000000Y-144127000D01*
X113024776Y-144124560D01*
X113048601Y-144117333D01*
X113070557Y-144105597D01*
X113089803Y-144089803D01*
X118052606Y-139127000D01*
X159195856Y-139127000D01*
X159173929Y-139199285D01*
X159157746Y-139363600D01*
X159161801Y-139404772D01*
X159161800Y-142391504D01*
X159082795Y-142509744D01*
X159004774Y-142698102D01*
X158965000Y-142898061D01*
X158965000Y-143101939D01*
X159004774Y-143301898D01*
X159082795Y-143490256D01*
X159196063Y-143659774D01*
X159340226Y-143803937D01*
X159509744Y-143917205D01*
X159698102Y-143995226D01*
X159898061Y-144035000D01*
X160101939Y-144035000D01*
X160301898Y-143995226D01*
X160490256Y-143917205D01*
X160659774Y-143803937D01*
X160803937Y-143659774D01*
X160917205Y-143490256D01*
X160995226Y-143301898D01*
X161035000Y-143101939D01*
X161035000Y-142898061D01*
X160995226Y-142698102D01*
X160984701Y-142672692D01*
X161009949Y-142672692D01*
X161209908Y-142632918D01*
X161398266Y-142554897D01*
X161567784Y-142441629D01*
X161711947Y-142297466D01*
X161825215Y-142127948D01*
X161903236Y-141939590D01*
X161943010Y-141739631D01*
X161943010Y-141730367D01*
X162125009Y-141730367D01*
X162324968Y-141690593D01*
X162513326Y-141612572D01*
X162631566Y-141533567D01*
X164828770Y-141533567D01*
X164776776Y-141704968D01*
X164747718Y-142000000D01*
X164776776Y-142295032D01*
X164862834Y-142578725D01*
X165002583Y-142840179D01*
X165190655Y-143069345D01*
X165419821Y-143257417D01*
X165681275Y-143397166D01*
X165964968Y-143483224D01*
X166186064Y-143505000D01*
X166733936Y-143505000D01*
X166955032Y-143483224D01*
X167238725Y-143397166D01*
X167448953Y-143284798D01*
X167478815Y-143321185D01*
X167575506Y-143400537D01*
X167685820Y-143459502D01*
X167805518Y-143495812D01*
X167930000Y-143508072D01*
X168714250Y-143505000D01*
X168873000Y-143346250D01*
X168873000Y-142127000D01*
X169127000Y-142127000D01*
X169127000Y-143346250D01*
X169285750Y-143505000D01*
X170070000Y-143508072D01*
X170194482Y-143495812D01*
X170314180Y-143459502D01*
X170424494Y-143400537D01*
X170521185Y-143321185D01*
X170600537Y-143224494D01*
X170659502Y-143114180D01*
X170695812Y-142994482D01*
X170708072Y-142870000D01*
X170705000Y-142285750D01*
X170546250Y-142127000D01*
X169127000Y-142127000D01*
X168873000Y-142127000D01*
X168853000Y-142127000D01*
X168853000Y-141873000D01*
X168873000Y-141873000D01*
X168873000Y-139587000D01*
X169127000Y-139587000D01*
X169127000Y-141873000D01*
X170546250Y-141873000D01*
X170705000Y-141714250D01*
X170708072Y-141130000D01*
X170695812Y-141005518D01*
X170659502Y-140885820D01*
X170600537Y-140775506D01*
X170521185Y-140678815D01*
X170424494Y-140599463D01*
X170314180Y-140540498D01*
X170260803Y-140524306D01*
X170377150Y-140405482D01*
X170538986Y-140157664D01*
X170649365Y-139883035D01*
X170661302Y-139820031D01*
X170540246Y-139587000D01*
X169127000Y-139587000D01*
X168873000Y-139587000D01*
X168853000Y-139587000D01*
X168853000Y-139333000D01*
X168873000Y-139333000D01*
X168873000Y-137047000D01*
X169127000Y-137047000D01*
X169127000Y-139333000D01*
X170540246Y-139333000D01*
X170661302Y-139099969D01*
X170649365Y-139036965D01*
X170538986Y-138762336D01*
X170377150Y-138514518D01*
X170170077Y-138303035D01*
X170004708Y-138190000D01*
X170170077Y-138076965D01*
X170377150Y-137865482D01*
X170538986Y-137617664D01*
X170649365Y-137343035D01*
X170661302Y-137280031D01*
X170540246Y-137047000D01*
X169127000Y-137047000D01*
X168873000Y-137047000D01*
X168853000Y-137047000D01*
X168853000Y-136793000D01*
X168873000Y-136793000D01*
X168873000Y-134507000D01*
X169127000Y-134507000D01*
X169127000Y-136793000D01*
X170540246Y-136793000D01*
X170661302Y-136559969D01*
X170649365Y-136496965D01*
X170538986Y-136222336D01*
X170377150Y-135974518D01*
X170170077Y-135763035D01*
X170004708Y-135650000D01*
X170170077Y-135536965D01*
X170377150Y-135325482D01*
X170538986Y-135077664D01*
X170649365Y-134803035D01*
X170661302Y-134740031D01*
X170540246Y-134507000D01*
X169127000Y-134507000D01*
X168873000Y-134507000D01*
X168853000Y-134507000D01*
X168853000Y-134253000D01*
X168873000Y-134253000D01*
X168873000Y-131967000D01*
X169127000Y-131967000D01*
X169127000Y-134253000D01*
X170540246Y-134253000D01*
X170661302Y-134019969D01*
X170649365Y-133956965D01*
X170538986Y-133682336D01*
X170377150Y-133434518D01*
X170170077Y-133223035D01*
X170004708Y-133110000D01*
X170170077Y-132996965D01*
X170377150Y-132785482D01*
X170538986Y-132537664D01*
X170649365Y-132263035D01*
X170661302Y-132200031D01*
X170540246Y-131967000D01*
X169127000Y-131967000D01*
X168873000Y-131967000D01*
X168853000Y-131967000D01*
X168853000Y-131713000D01*
X168873000Y-131713000D01*
X168873000Y-130490676D01*
X169127000Y-130490676D01*
X169127000Y-131713000D01*
X170540246Y-131713000D01*
X170661302Y-131479969D01*
X170649365Y-131416965D01*
X170538986Y-131142336D01*
X170377150Y-130894518D01*
X170170077Y-130683035D01*
X169925725Y-130516013D01*
X169653483Y-130399871D01*
X169363814Y-130339073D01*
X169127000Y-130490676D01*
X168873000Y-130490676D01*
X168636186Y-130339073D01*
X168346517Y-130399871D01*
X168074275Y-130516013D01*
X167829923Y-130683035D01*
X167736087Y-130778870D01*
X167729345Y-130770655D01*
X167627000Y-130686662D01*
X167627000Y-125627000D01*
X175873000Y-125627000D01*
X175873000Y-148873000D01*
X175873000Y-148873000D01*
G37*
X175873000Y-148873000D02*
X53127000Y-148873000D01*
X53127000Y-140127000D01*
X99947394Y-140127000D01*
X103910197Y-144089803D01*
X103929443Y-144105597D01*
X103951399Y-144117333D01*
X103975224Y-144124560D01*
X104000000Y-144127000D01*
X113000000Y-144127000D01*
X113024776Y-144124560D01*
X113048601Y-144117333D01*
X113070557Y-144105597D01*
X113089803Y-144089803D01*
X118052606Y-139127000D01*
X159195856Y-139127000D01*
X159173929Y-139199285D01*
X159157746Y-139363600D01*
X159161801Y-139404772D01*
X159161800Y-142391504D01*
X159082795Y-142509744D01*
X159004774Y-142698102D01*
X158965000Y-142898061D01*
X158965000Y-143101939D01*
X159004774Y-143301898D01*
X159082795Y-143490256D01*
X159196063Y-143659774D01*
X159340226Y-143803937D01*
X159509744Y-143917205D01*
X159698102Y-143995226D01*
X159898061Y-144035000D01*
X160101939Y-144035000D01*
X160301898Y-143995226D01*
X160490256Y-143917205D01*
X160659774Y-143803937D01*
X160803937Y-143659774D01*
X160917205Y-143490256D01*
X160995226Y-143301898D01*
X161035000Y-143101939D01*
X161035000Y-142898061D01*
X160995226Y-142698102D01*
X160984701Y-142672692D01*
X161009949Y-142672692D01*
X161209908Y-142632918D01*
X161398266Y-142554897D01*
X161567784Y-142441629D01*
X161711947Y-142297466D01*
X161825215Y-142127948D01*
X161903236Y-141939590D01*
X161943010Y-141739631D01*
X161943010Y-141730367D01*
X162125009Y-141730367D01*
X162324968Y-141690593D01*
X162513326Y-141612572D01*
X162631566Y-141533567D01*
X164828770Y-141533567D01*
X164776776Y-141704968D01*
X164747718Y-142000000D01*
X164776776Y-142295032D01*
X164862834Y-142578725D01*
X165002583Y-142840179D01*
X165190655Y-143069345D01*
X165419821Y-143257417D01*
X165681275Y-143397166D01*
X165964968Y-143483224D01*
X166186064Y-143505000D01*
X166733936Y-143505000D01*
X166955032Y-143483224D01*
X167238725Y-143397166D01*
X167448953Y-143284798D01*
X167478815Y-143321185D01*
X167575506Y-143400537D01*
X167685820Y-143459502D01*
X167805518Y-143495812D01*
X167930000Y-143508072D01*
X168714250Y-143505000D01*
X168873000Y-143346250D01*
X168873000Y-142127000D01*
X169127000Y-142127000D01*
X169127000Y-143346250D01*
X169285750Y-143505000D01*
X170070000Y-143508072D01*
X170194482Y-143495812D01*
X170314180Y-143459502D01*
X170424494Y-143400537D01*
X170521185Y-143321185D01*
X170600537Y-143224494D01*
X170659502Y-143114180D01*
X170695812Y-142994482D01*
X170708072Y-142870000D01*
X170705000Y-142285750D01*
X170546250Y-142127000D01*
X169127000Y-142127000D01*
X168873000Y-142127000D01*
X168853000Y-142127000D01*
X168853000Y-141873000D01*
X168873000Y-141873000D01*
X168873000Y-139587000D01*
X169127000Y-139587000D01*
X169127000Y-141873000D01*
X170546250Y-141873000D01*
X170705000Y-141714250D01*
X170708072Y-141130000D01*
X170695812Y-141005518D01*
X170659502Y-140885820D01*
X170600537Y-140775506D01*
X170521185Y-140678815D01*
X170424494Y-140599463D01*
X170314180Y-140540498D01*
X170260803Y-140524306D01*
X170377150Y-140405482D01*
X170538986Y-140157664D01*
X170649365Y-139883035D01*
X170661302Y-139820031D01*
X170540246Y-139587000D01*
X169127000Y-139587000D01*
X168873000Y-139587000D01*
X168853000Y-139587000D01*
X168853000Y-139333000D01*
X168873000Y-139333000D01*
X168873000Y-137047000D01*
X169127000Y-137047000D01*
X169127000Y-139333000D01*
X170540246Y-139333000D01*
X170661302Y-139099969D01*
X170649365Y-139036965D01*
X170538986Y-138762336D01*
X170377150Y-138514518D01*
X170170077Y-138303035D01*
X170004708Y-138190000D01*
X170170077Y-138076965D01*
X170377150Y-137865482D01*
X170538986Y-137617664D01*
X170649365Y-137343035D01*
X170661302Y-137280031D01*
X170540246Y-137047000D01*
X169127000Y-137047000D01*
X168873000Y-137047000D01*
X168853000Y-137047000D01*
X168853000Y-136793000D01*
X168873000Y-136793000D01*
X168873000Y-134507000D01*
X169127000Y-134507000D01*
X169127000Y-136793000D01*
X170540246Y-136793000D01*
X170661302Y-136559969D01*
X170649365Y-136496965D01*
X170538986Y-136222336D01*
X170377150Y-135974518D01*
X170170077Y-135763035D01*
X170004708Y-135650000D01*
X170170077Y-135536965D01*
X170377150Y-135325482D01*
X170538986Y-135077664D01*
X170649365Y-134803035D01*
X170661302Y-134740031D01*
X170540246Y-134507000D01*
X169127000Y-134507000D01*
X168873000Y-134507000D01*
X168853000Y-134507000D01*
X168853000Y-134253000D01*
X168873000Y-134253000D01*
X168873000Y-131967000D01*
X169127000Y-131967000D01*
X169127000Y-134253000D01*
X170540246Y-134253000D01*
X170661302Y-134019969D01*
X170649365Y-133956965D01*
X170538986Y-133682336D01*
X170377150Y-133434518D01*
X170170077Y-133223035D01*
X170004708Y-133110000D01*
X170170077Y-132996965D01*
X170377150Y-132785482D01*
X170538986Y-132537664D01*
X170649365Y-132263035D01*
X170661302Y-132200031D01*
X170540246Y-131967000D01*
X169127000Y-131967000D01*
X168873000Y-131967000D01*
X168853000Y-131967000D01*
X168853000Y-131713000D01*
X168873000Y-131713000D01*
X168873000Y-130490676D01*
X169127000Y-130490676D01*
X169127000Y-131713000D01*
X170540246Y-131713000D01*
X170661302Y-131479969D01*
X170649365Y-131416965D01*
X170538986Y-131142336D01*
X170377150Y-130894518D01*
X170170077Y-130683035D01*
X169925725Y-130516013D01*
X169653483Y-130399871D01*
X169363814Y-130339073D01*
X169127000Y-130490676D01*
X168873000Y-130490676D01*
X168636186Y-130339073D01*
X168346517Y-130399871D01*
X168074275Y-130516013D01*
X167829923Y-130683035D01*
X167736087Y-130778870D01*
X167729345Y-130770655D01*
X167627000Y-130686662D01*
X167627000Y-125627000D01*
X175873000Y-125627000D01*
X175873000Y-148873000D01*
G36*
X54123653Y-105143261D02*
G01*
X54238345Y-105257953D01*
X53922786Y-105413962D01*
X53731980Y-105788745D01*
X53617956Y-106193551D01*
X53585098Y-106612824D01*
X53634666Y-107030451D01*
X53764757Y-107430383D01*
X53922786Y-107726038D01*
X54238347Y-107882048D01*
X55550395Y-106570000D01*
X55536253Y-106555858D01*
X55715858Y-106376253D01*
X55730000Y-106390395D01*
X55744143Y-106376253D01*
X55923748Y-106555858D01*
X55909605Y-106570000D01*
X57221653Y-107882048D01*
X57537214Y-107726038D01*
X57728020Y-107351255D01*
X57750096Y-107272881D01*
X57851426Y-107314853D01*
X57873000Y-107319144D01*
X57873000Y-113824811D01*
X57726287Y-113971524D01*
X57470750Y-114353963D01*
X57294733Y-114778906D01*
X57205000Y-115230023D01*
X57205000Y-115689977D01*
X57242289Y-115877442D01*
X56957176Y-115855098D01*
X56539549Y-115904666D01*
X56139617Y-116034757D01*
X55843962Y-116192786D01*
X55687952Y-116508347D01*
X57000000Y-117820395D01*
X57014143Y-117806253D01*
X57193748Y-117985858D01*
X57179605Y-118000000D01*
X58491653Y-119312048D01*
X58807214Y-119156038D01*
X58998020Y-118781255D01*
X59112044Y-118376449D01*
X59144902Y-117957176D01*
X59121195Y-117757440D01*
X59310023Y-117795000D01*
X59769977Y-117795000D01*
X60221094Y-117705267D01*
X60410047Y-117627000D01*
X62373000Y-117627000D01*
X62373000Y-121019892D01*
X62261499Y-121131393D01*
X62135586Y-120841423D01*
X61803374Y-120675567D01*
X61445188Y-120577710D01*
X61074794Y-120551611D01*
X60706425Y-120598275D01*
X60354238Y-120715906D01*
X60119414Y-120841423D01*
X59993500Y-121131395D01*
X61127500Y-122265395D01*
X61141643Y-122251253D01*
X61321248Y-122430858D01*
X61307105Y-122445000D01*
X61321248Y-122459143D01*
X61141643Y-122638748D01*
X61127500Y-122624605D01*
X59993500Y-123758605D01*
X60043174Y-123873000D01*
X53127000Y-123873000D01*
X53127000Y-122497706D01*
X59234111Y-122497706D01*
X59280775Y-122866075D01*
X59398406Y-123218262D01*
X59523923Y-123453086D01*
X59813895Y-123579000D01*
X60947895Y-122445000D01*
X59813895Y-121311000D01*
X59523923Y-121436914D01*
X59358067Y-121769126D01*
X59260210Y-122127312D01*
X59234111Y-122497706D01*
X53127000Y-122497706D01*
X53127000Y-119491653D01*
X55687952Y-119491653D01*
X55843962Y-119807214D01*
X56218745Y-119998020D01*
X56623551Y-120112044D01*
X57042824Y-120144902D01*
X57460451Y-120095334D01*
X57860383Y-119965243D01*
X58156038Y-119807214D01*
X58312048Y-119491653D01*
X57000000Y-118179605D01*
X55687952Y-119491653D01*
X53127000Y-119491653D01*
X53127000Y-118042824D01*
X54855098Y-118042824D01*
X54904666Y-118460451D01*
X55034757Y-118860383D01*
X55192786Y-119156038D01*
X55508347Y-119312048D01*
X56820395Y-118000000D01*
X55508347Y-116687952D01*
X55192786Y-116843962D01*
X55001980Y-117218745D01*
X54887956Y-117623551D01*
X54855098Y-118042824D01*
X53127000Y-118042824D01*
X53127000Y-108061653D01*
X54417952Y-108061653D01*
X54573962Y-108377214D01*
X54948745Y-108568020D01*
X55353551Y-108682044D01*
X55772824Y-108714902D01*
X56190451Y-108665334D01*
X56590383Y-108535243D01*
X56886038Y-108377214D01*
X57042048Y-108061653D01*
X55730000Y-106749605D01*
X54417952Y-108061653D01*
X53127000Y-108061653D01*
X53127000Y-105127000D01*
X54139914Y-105127000D01*
X54123653Y-105143261D01*
X54123653Y-105143261D01*
G37*
X54123653Y-105143261D02*
X54238345Y-105257953D01*
X53922786Y-105413962D01*
X53731980Y-105788745D01*
X53617956Y-106193551D01*
X53585098Y-106612824D01*
X53634666Y-107030451D01*
X53764757Y-107430383D01*
X53922786Y-107726038D01*
X54238347Y-107882048D01*
X55550395Y-106570000D01*
X55536253Y-106555858D01*
X55715858Y-106376253D01*
X55730000Y-106390395D01*
X55744143Y-106376253D01*
X55923748Y-106555858D01*
X55909605Y-106570000D01*
X57221653Y-107882048D01*
X57537214Y-107726038D01*
X57728020Y-107351255D01*
X57750096Y-107272881D01*
X57851426Y-107314853D01*
X57873000Y-107319144D01*
X57873000Y-113824811D01*
X57726287Y-113971524D01*
X57470750Y-114353963D01*
X57294733Y-114778906D01*
X57205000Y-115230023D01*
X57205000Y-115689977D01*
X57242289Y-115877442D01*
X56957176Y-115855098D01*
X56539549Y-115904666D01*
X56139617Y-116034757D01*
X55843962Y-116192786D01*
X55687952Y-116508347D01*
X57000000Y-117820395D01*
X57014143Y-117806253D01*
X57193748Y-117985858D01*
X57179605Y-118000000D01*
X58491653Y-119312048D01*
X58807214Y-119156038D01*
X58998020Y-118781255D01*
X59112044Y-118376449D01*
X59144902Y-117957176D01*
X59121195Y-117757440D01*
X59310023Y-117795000D01*
X59769977Y-117795000D01*
X60221094Y-117705267D01*
X60410047Y-117627000D01*
X62373000Y-117627000D01*
X62373000Y-121019892D01*
X62261499Y-121131393D01*
X62135586Y-120841423D01*
X61803374Y-120675567D01*
X61445188Y-120577710D01*
X61074794Y-120551611D01*
X60706425Y-120598275D01*
X60354238Y-120715906D01*
X60119414Y-120841423D01*
X59993500Y-121131395D01*
X61127500Y-122265395D01*
X61141643Y-122251253D01*
X61321248Y-122430858D01*
X61307105Y-122445000D01*
X61321248Y-122459143D01*
X61141643Y-122638748D01*
X61127500Y-122624605D01*
X59993500Y-123758605D01*
X60043174Y-123873000D01*
X53127000Y-123873000D01*
X53127000Y-122497706D01*
X59234111Y-122497706D01*
X59280775Y-122866075D01*
X59398406Y-123218262D01*
X59523923Y-123453086D01*
X59813895Y-123579000D01*
X60947895Y-122445000D01*
X59813895Y-121311000D01*
X59523923Y-121436914D01*
X59358067Y-121769126D01*
X59260210Y-122127312D01*
X59234111Y-122497706D01*
X53127000Y-122497706D01*
X53127000Y-119491653D01*
X55687952Y-119491653D01*
X55843962Y-119807214D01*
X56218745Y-119998020D01*
X56623551Y-120112044D01*
X57042824Y-120144902D01*
X57460451Y-120095334D01*
X57860383Y-119965243D01*
X58156038Y-119807214D01*
X58312048Y-119491653D01*
X57000000Y-118179605D01*
X55687952Y-119491653D01*
X53127000Y-119491653D01*
X53127000Y-118042824D01*
X54855098Y-118042824D01*
X54904666Y-118460451D01*
X55034757Y-118860383D01*
X55192786Y-119156038D01*
X55508347Y-119312048D01*
X56820395Y-118000000D01*
X55508347Y-116687952D01*
X55192786Y-116843962D01*
X55001980Y-117218745D01*
X54887956Y-117623551D01*
X54855098Y-118042824D01*
X53127000Y-118042824D01*
X53127000Y-108061653D01*
X54417952Y-108061653D01*
X54573962Y-108377214D01*
X54948745Y-108568020D01*
X55353551Y-108682044D01*
X55772824Y-108714902D01*
X56190451Y-108665334D01*
X56590383Y-108535243D01*
X56886038Y-108377214D01*
X57042048Y-108061653D01*
X55730000Y-106749605D01*
X54417952Y-108061653D01*
X53127000Y-108061653D01*
X53127000Y-105127000D01*
X54139914Y-105127000D01*
X54123653Y-105143261D01*
G36*
X84123653Y-105143261D02*
G01*
X84238345Y-105257953D01*
X83922786Y-105413962D01*
X83731980Y-105788745D01*
X83617956Y-106193551D01*
X83585098Y-106612824D01*
X83634666Y-107030451D01*
X83764757Y-107430383D01*
X83922786Y-107726038D01*
X84238347Y-107882048D01*
X85550395Y-106570000D01*
X85536253Y-106555858D01*
X85715858Y-106376253D01*
X85730000Y-106390395D01*
X85744143Y-106376253D01*
X85923748Y-106555858D01*
X85909605Y-106570000D01*
X87221653Y-107882048D01*
X87537214Y-107726038D01*
X87728020Y-107351255D01*
X87750096Y-107272881D01*
X87851426Y-107314853D01*
X87873000Y-107319144D01*
X87873000Y-113824811D01*
X87726287Y-113971524D01*
X87470750Y-114353963D01*
X87294733Y-114778906D01*
X87205000Y-115230023D01*
X87205000Y-115689977D01*
X87242289Y-115877442D01*
X86957176Y-115855098D01*
X86539549Y-115904666D01*
X86139617Y-116034757D01*
X85843962Y-116192786D01*
X85687952Y-116508347D01*
X87000000Y-117820395D01*
X87014143Y-117806253D01*
X87193748Y-117985858D01*
X87179605Y-118000000D01*
X88491653Y-119312048D01*
X88807214Y-119156038D01*
X88998020Y-118781255D01*
X89112044Y-118376449D01*
X89144902Y-117957176D01*
X89121195Y-117757440D01*
X89310023Y-117795000D01*
X89769977Y-117795000D01*
X90221094Y-117705267D01*
X90410047Y-117627000D01*
X92373000Y-117627000D01*
X92373000Y-121019892D01*
X92261499Y-121131393D01*
X92135586Y-120841423D01*
X91803374Y-120675567D01*
X91445188Y-120577710D01*
X91074794Y-120551611D01*
X90706425Y-120598275D01*
X90354238Y-120715906D01*
X90119414Y-120841423D01*
X89993500Y-121131395D01*
X91127500Y-122265395D01*
X91141643Y-122251253D01*
X91321248Y-122430858D01*
X91307105Y-122445000D01*
X91321248Y-122459143D01*
X91141643Y-122638748D01*
X91127500Y-122624605D01*
X89993500Y-123758605D01*
X90043174Y-123873000D01*
X83127000Y-123873000D01*
X83127000Y-122497706D01*
X89234111Y-122497706D01*
X89280775Y-122866075D01*
X89398406Y-123218262D01*
X89523923Y-123453086D01*
X89813895Y-123579000D01*
X90947895Y-122445000D01*
X89813895Y-121311000D01*
X89523923Y-121436914D01*
X89358067Y-121769126D01*
X89260210Y-122127312D01*
X89234111Y-122497706D01*
X83127000Y-122497706D01*
X83127000Y-119491653D01*
X85687952Y-119491653D01*
X85843962Y-119807214D01*
X86218745Y-119998020D01*
X86623551Y-120112044D01*
X87042824Y-120144902D01*
X87460451Y-120095334D01*
X87860383Y-119965243D01*
X88156038Y-119807214D01*
X88312048Y-119491653D01*
X87000000Y-118179605D01*
X85687952Y-119491653D01*
X83127000Y-119491653D01*
X83127000Y-118042824D01*
X84855098Y-118042824D01*
X84904666Y-118460451D01*
X85034757Y-118860383D01*
X85192786Y-119156038D01*
X85508347Y-119312048D01*
X86820395Y-118000000D01*
X85508347Y-116687952D01*
X85192786Y-116843962D01*
X85001980Y-117218745D01*
X84887956Y-117623551D01*
X84855098Y-118042824D01*
X83127000Y-118042824D01*
X83127000Y-108061653D01*
X84417952Y-108061653D01*
X84573962Y-108377214D01*
X84948745Y-108568020D01*
X85353551Y-108682044D01*
X85772824Y-108714902D01*
X86190451Y-108665334D01*
X86590383Y-108535243D01*
X86886038Y-108377214D01*
X87042048Y-108061653D01*
X85730000Y-106749605D01*
X84417952Y-108061653D01*
X83127000Y-108061653D01*
X83127000Y-105127000D01*
X84139914Y-105127000D01*
X84123653Y-105143261D01*
X84123653Y-105143261D01*
G37*
X84123653Y-105143261D02*
X84238345Y-105257953D01*
X83922786Y-105413962D01*
X83731980Y-105788745D01*
X83617956Y-106193551D01*
X83585098Y-106612824D01*
X83634666Y-107030451D01*
X83764757Y-107430383D01*
X83922786Y-107726038D01*
X84238347Y-107882048D01*
X85550395Y-106570000D01*
X85536253Y-106555858D01*
X85715858Y-106376253D01*
X85730000Y-106390395D01*
X85744143Y-106376253D01*
X85923748Y-106555858D01*
X85909605Y-106570000D01*
X87221653Y-107882048D01*
X87537214Y-107726038D01*
X87728020Y-107351255D01*
X87750096Y-107272881D01*
X87851426Y-107314853D01*
X87873000Y-107319144D01*
X87873000Y-113824811D01*
X87726287Y-113971524D01*
X87470750Y-114353963D01*
X87294733Y-114778906D01*
X87205000Y-115230023D01*
X87205000Y-115689977D01*
X87242289Y-115877442D01*
X86957176Y-115855098D01*
X86539549Y-115904666D01*
X86139617Y-116034757D01*
X85843962Y-116192786D01*
X85687952Y-116508347D01*
X87000000Y-117820395D01*
X87014143Y-117806253D01*
X87193748Y-117985858D01*
X87179605Y-118000000D01*
X88491653Y-119312048D01*
X88807214Y-119156038D01*
X88998020Y-118781255D01*
X89112044Y-118376449D01*
X89144902Y-117957176D01*
X89121195Y-117757440D01*
X89310023Y-117795000D01*
X89769977Y-117795000D01*
X90221094Y-117705267D01*
X90410047Y-117627000D01*
X92373000Y-117627000D01*
X92373000Y-121019892D01*
X92261499Y-121131393D01*
X92135586Y-120841423D01*
X91803374Y-120675567D01*
X91445188Y-120577710D01*
X91074794Y-120551611D01*
X90706425Y-120598275D01*
X90354238Y-120715906D01*
X90119414Y-120841423D01*
X89993500Y-121131395D01*
X91127500Y-122265395D01*
X91141643Y-122251253D01*
X91321248Y-122430858D01*
X91307105Y-122445000D01*
X91321248Y-122459143D01*
X91141643Y-122638748D01*
X91127500Y-122624605D01*
X89993500Y-123758605D01*
X90043174Y-123873000D01*
X83127000Y-123873000D01*
X83127000Y-122497706D01*
X89234111Y-122497706D01*
X89280775Y-122866075D01*
X89398406Y-123218262D01*
X89523923Y-123453086D01*
X89813895Y-123579000D01*
X90947895Y-122445000D01*
X89813895Y-121311000D01*
X89523923Y-121436914D01*
X89358067Y-121769126D01*
X89260210Y-122127312D01*
X89234111Y-122497706D01*
X83127000Y-122497706D01*
X83127000Y-119491653D01*
X85687952Y-119491653D01*
X85843962Y-119807214D01*
X86218745Y-119998020D01*
X86623551Y-120112044D01*
X87042824Y-120144902D01*
X87460451Y-120095334D01*
X87860383Y-119965243D01*
X88156038Y-119807214D01*
X88312048Y-119491653D01*
X87000000Y-118179605D01*
X85687952Y-119491653D01*
X83127000Y-119491653D01*
X83127000Y-118042824D01*
X84855098Y-118042824D01*
X84904666Y-118460451D01*
X85034757Y-118860383D01*
X85192786Y-119156038D01*
X85508347Y-119312048D01*
X86820395Y-118000000D01*
X85508347Y-116687952D01*
X85192786Y-116843962D01*
X85001980Y-117218745D01*
X84887956Y-117623551D01*
X84855098Y-118042824D01*
X83127000Y-118042824D01*
X83127000Y-108061653D01*
X84417952Y-108061653D01*
X84573962Y-108377214D01*
X84948745Y-108568020D01*
X85353551Y-108682044D01*
X85772824Y-108714902D01*
X86190451Y-108665334D01*
X86590383Y-108535243D01*
X86886038Y-108377214D01*
X87042048Y-108061653D01*
X85730000Y-106749605D01*
X84417952Y-108061653D01*
X83127000Y-108061653D01*
X83127000Y-105127000D01*
X84139914Y-105127000D01*
X84123653Y-105143261D01*
G36*
X114123653Y-105143261D02*
G01*
X114238345Y-105257953D01*
X113922786Y-105413962D01*
X113731980Y-105788745D01*
X113617956Y-106193551D01*
X113585098Y-106612824D01*
X113634666Y-107030451D01*
X113764757Y-107430383D01*
X113922786Y-107726038D01*
X114238347Y-107882048D01*
X115550395Y-106570000D01*
X115536253Y-106555858D01*
X115715858Y-106376253D01*
X115730000Y-106390395D01*
X115744143Y-106376253D01*
X115923748Y-106555858D01*
X115909605Y-106570000D01*
X117221653Y-107882048D01*
X117537214Y-107726038D01*
X117728020Y-107351255D01*
X117750096Y-107272881D01*
X117851426Y-107314853D01*
X117873000Y-107319144D01*
X117873000Y-113824811D01*
X117726287Y-113971524D01*
X117470750Y-114353963D01*
X117294733Y-114778906D01*
X117205000Y-115230023D01*
X117205000Y-115689977D01*
X117242289Y-115877442D01*
X116957176Y-115855098D01*
X116539549Y-115904666D01*
X116139617Y-116034757D01*
X115843962Y-116192786D01*
X115687952Y-116508347D01*
X117000000Y-117820395D01*
X117014143Y-117806253D01*
X117193748Y-117985858D01*
X117179605Y-118000000D01*
X118491653Y-119312048D01*
X118807214Y-119156038D01*
X118998020Y-118781255D01*
X119112044Y-118376449D01*
X119144902Y-117957176D01*
X119121195Y-117757440D01*
X119310023Y-117795000D01*
X119769977Y-117795000D01*
X120221094Y-117705267D01*
X120410047Y-117627000D01*
X122373000Y-117627000D01*
X122373000Y-121019892D01*
X122261499Y-121131393D01*
X122135586Y-120841423D01*
X121803374Y-120675567D01*
X121445188Y-120577710D01*
X121074794Y-120551611D01*
X120706425Y-120598275D01*
X120354238Y-120715906D01*
X120119414Y-120841423D01*
X119993500Y-121131395D01*
X121127500Y-122265395D01*
X121141643Y-122251253D01*
X121321248Y-122430858D01*
X121307105Y-122445000D01*
X121321248Y-122459143D01*
X121141643Y-122638748D01*
X121127500Y-122624605D01*
X119993500Y-123758605D01*
X120043174Y-123873000D01*
X113127000Y-123873000D01*
X113127000Y-122497706D01*
X119234111Y-122497706D01*
X119280775Y-122866075D01*
X119398406Y-123218262D01*
X119523923Y-123453086D01*
X119813895Y-123579000D01*
X120947895Y-122445000D01*
X119813895Y-121311000D01*
X119523923Y-121436914D01*
X119358067Y-121769126D01*
X119260210Y-122127312D01*
X119234111Y-122497706D01*
X113127000Y-122497706D01*
X113127000Y-119491653D01*
X115687952Y-119491653D01*
X115843962Y-119807214D01*
X116218745Y-119998020D01*
X116623551Y-120112044D01*
X117042824Y-120144902D01*
X117460451Y-120095334D01*
X117860383Y-119965243D01*
X118156038Y-119807214D01*
X118312048Y-119491653D01*
X117000000Y-118179605D01*
X115687952Y-119491653D01*
X113127000Y-119491653D01*
X113127000Y-118042824D01*
X114855098Y-118042824D01*
X114904666Y-118460451D01*
X115034757Y-118860383D01*
X115192786Y-119156038D01*
X115508347Y-119312048D01*
X116820395Y-118000000D01*
X115508347Y-116687952D01*
X115192786Y-116843962D01*
X115001980Y-117218745D01*
X114887956Y-117623551D01*
X114855098Y-118042824D01*
X113127000Y-118042824D01*
X113127000Y-108061653D01*
X114417952Y-108061653D01*
X114573962Y-108377214D01*
X114948745Y-108568020D01*
X115353551Y-108682044D01*
X115772824Y-108714902D01*
X116190451Y-108665334D01*
X116590383Y-108535243D01*
X116886038Y-108377214D01*
X117042048Y-108061653D01*
X115730000Y-106749605D01*
X114417952Y-108061653D01*
X113127000Y-108061653D01*
X113127000Y-105127000D01*
X114139914Y-105127000D01*
X114123653Y-105143261D01*
X114123653Y-105143261D01*
G37*
X114123653Y-105143261D02*
X114238345Y-105257953D01*
X113922786Y-105413962D01*
X113731980Y-105788745D01*
X113617956Y-106193551D01*
X113585098Y-106612824D01*
X113634666Y-107030451D01*
X113764757Y-107430383D01*
X113922786Y-107726038D01*
X114238347Y-107882048D01*
X115550395Y-106570000D01*
X115536253Y-106555858D01*
X115715858Y-106376253D01*
X115730000Y-106390395D01*
X115744143Y-106376253D01*
X115923748Y-106555858D01*
X115909605Y-106570000D01*
X117221653Y-107882048D01*
X117537214Y-107726038D01*
X117728020Y-107351255D01*
X117750096Y-107272881D01*
X117851426Y-107314853D01*
X117873000Y-107319144D01*
X117873000Y-113824811D01*
X117726287Y-113971524D01*
X117470750Y-114353963D01*
X117294733Y-114778906D01*
X117205000Y-115230023D01*
X117205000Y-115689977D01*
X117242289Y-115877442D01*
X116957176Y-115855098D01*
X116539549Y-115904666D01*
X116139617Y-116034757D01*
X115843962Y-116192786D01*
X115687952Y-116508347D01*
X117000000Y-117820395D01*
X117014143Y-117806253D01*
X117193748Y-117985858D01*
X117179605Y-118000000D01*
X118491653Y-119312048D01*
X118807214Y-119156038D01*
X118998020Y-118781255D01*
X119112044Y-118376449D01*
X119144902Y-117957176D01*
X119121195Y-117757440D01*
X119310023Y-117795000D01*
X119769977Y-117795000D01*
X120221094Y-117705267D01*
X120410047Y-117627000D01*
X122373000Y-117627000D01*
X122373000Y-121019892D01*
X122261499Y-121131393D01*
X122135586Y-120841423D01*
X121803374Y-120675567D01*
X121445188Y-120577710D01*
X121074794Y-120551611D01*
X120706425Y-120598275D01*
X120354238Y-120715906D01*
X120119414Y-120841423D01*
X119993500Y-121131395D01*
X121127500Y-122265395D01*
X121141643Y-122251253D01*
X121321248Y-122430858D01*
X121307105Y-122445000D01*
X121321248Y-122459143D01*
X121141643Y-122638748D01*
X121127500Y-122624605D01*
X119993500Y-123758605D01*
X120043174Y-123873000D01*
X113127000Y-123873000D01*
X113127000Y-122497706D01*
X119234111Y-122497706D01*
X119280775Y-122866075D01*
X119398406Y-123218262D01*
X119523923Y-123453086D01*
X119813895Y-123579000D01*
X120947895Y-122445000D01*
X119813895Y-121311000D01*
X119523923Y-121436914D01*
X119358067Y-121769126D01*
X119260210Y-122127312D01*
X119234111Y-122497706D01*
X113127000Y-122497706D01*
X113127000Y-119491653D01*
X115687952Y-119491653D01*
X115843962Y-119807214D01*
X116218745Y-119998020D01*
X116623551Y-120112044D01*
X117042824Y-120144902D01*
X117460451Y-120095334D01*
X117860383Y-119965243D01*
X118156038Y-119807214D01*
X118312048Y-119491653D01*
X117000000Y-118179605D01*
X115687952Y-119491653D01*
X113127000Y-119491653D01*
X113127000Y-118042824D01*
X114855098Y-118042824D01*
X114904666Y-118460451D01*
X115034757Y-118860383D01*
X115192786Y-119156038D01*
X115508347Y-119312048D01*
X116820395Y-118000000D01*
X115508347Y-116687952D01*
X115192786Y-116843962D01*
X115001980Y-117218745D01*
X114887956Y-117623551D01*
X114855098Y-118042824D01*
X113127000Y-118042824D01*
X113127000Y-108061653D01*
X114417952Y-108061653D01*
X114573962Y-108377214D01*
X114948745Y-108568020D01*
X115353551Y-108682044D01*
X115772824Y-108714902D01*
X116190451Y-108665334D01*
X116590383Y-108535243D01*
X116886038Y-108377214D01*
X117042048Y-108061653D01*
X115730000Y-106749605D01*
X114417952Y-108061653D01*
X113127000Y-108061653D01*
X113127000Y-105127000D01*
X114139914Y-105127000D01*
X114123653Y-105143261D01*
G36*
X144123653Y-105143261D02*
G01*
X144238345Y-105257953D01*
X143922786Y-105413962D01*
X143731980Y-105788745D01*
X143617956Y-106193551D01*
X143585098Y-106612824D01*
X143634666Y-107030451D01*
X143764757Y-107430383D01*
X143922786Y-107726038D01*
X144238347Y-107882048D01*
X145550395Y-106570000D01*
X145536253Y-106555858D01*
X145715858Y-106376253D01*
X145730000Y-106390395D01*
X145744143Y-106376253D01*
X145923748Y-106555858D01*
X145909605Y-106570000D01*
X147221653Y-107882048D01*
X147537214Y-107726038D01*
X147728020Y-107351255D01*
X147750096Y-107272881D01*
X147851426Y-107314853D01*
X147873000Y-107319144D01*
X147873000Y-113824811D01*
X147726287Y-113971524D01*
X147470750Y-114353963D01*
X147294733Y-114778906D01*
X147205000Y-115230023D01*
X147205000Y-115689977D01*
X147242289Y-115877442D01*
X146957176Y-115855098D01*
X146539549Y-115904666D01*
X146139617Y-116034757D01*
X145843962Y-116192786D01*
X145687952Y-116508347D01*
X147000000Y-117820395D01*
X147014143Y-117806253D01*
X147193748Y-117985858D01*
X147179605Y-118000000D01*
X148491653Y-119312048D01*
X148807214Y-119156038D01*
X148998020Y-118781255D01*
X149112044Y-118376449D01*
X149144902Y-117957176D01*
X149121195Y-117757440D01*
X149310023Y-117795000D01*
X149769977Y-117795000D01*
X150221094Y-117705267D01*
X150410047Y-117627000D01*
X152373000Y-117627000D01*
X152373000Y-121019892D01*
X152261499Y-121131393D01*
X152135586Y-120841423D01*
X151803374Y-120675567D01*
X151445188Y-120577710D01*
X151074794Y-120551611D01*
X150706425Y-120598275D01*
X150354238Y-120715906D01*
X150119414Y-120841423D01*
X149993500Y-121131395D01*
X151127500Y-122265395D01*
X151141643Y-122251253D01*
X151321248Y-122430858D01*
X151307105Y-122445000D01*
X151321248Y-122459143D01*
X151141643Y-122638748D01*
X151127500Y-122624605D01*
X149993500Y-123758605D01*
X150043174Y-123873000D01*
X143127000Y-123873000D01*
X143127000Y-122497706D01*
X149234111Y-122497706D01*
X149280775Y-122866075D01*
X149398406Y-123218262D01*
X149523923Y-123453086D01*
X149813895Y-123579000D01*
X150947895Y-122445000D01*
X149813895Y-121311000D01*
X149523923Y-121436914D01*
X149358067Y-121769126D01*
X149260210Y-122127312D01*
X149234111Y-122497706D01*
X143127000Y-122497706D01*
X143127000Y-119491653D01*
X145687952Y-119491653D01*
X145843962Y-119807214D01*
X146218745Y-119998020D01*
X146623551Y-120112044D01*
X147042824Y-120144902D01*
X147460451Y-120095334D01*
X147860383Y-119965243D01*
X148156038Y-119807214D01*
X148312048Y-119491653D01*
X147000000Y-118179605D01*
X145687952Y-119491653D01*
X143127000Y-119491653D01*
X143127000Y-118042824D01*
X144855098Y-118042824D01*
X144904666Y-118460451D01*
X145034757Y-118860383D01*
X145192786Y-119156038D01*
X145508347Y-119312048D01*
X146820395Y-118000000D01*
X145508347Y-116687952D01*
X145192786Y-116843962D01*
X145001980Y-117218745D01*
X144887956Y-117623551D01*
X144855098Y-118042824D01*
X143127000Y-118042824D01*
X143127000Y-108061653D01*
X144417952Y-108061653D01*
X144573962Y-108377214D01*
X144948745Y-108568020D01*
X145353551Y-108682044D01*
X145772824Y-108714902D01*
X146190451Y-108665334D01*
X146590383Y-108535243D01*
X146886038Y-108377214D01*
X147042048Y-108061653D01*
X145730000Y-106749605D01*
X144417952Y-108061653D01*
X143127000Y-108061653D01*
X143127000Y-105127000D01*
X144139914Y-105127000D01*
X144123653Y-105143261D01*
X144123653Y-105143261D01*
G37*
X144123653Y-105143261D02*
X144238345Y-105257953D01*
X143922786Y-105413962D01*
X143731980Y-105788745D01*
X143617956Y-106193551D01*
X143585098Y-106612824D01*
X143634666Y-107030451D01*
X143764757Y-107430383D01*
X143922786Y-107726038D01*
X144238347Y-107882048D01*
X145550395Y-106570000D01*
X145536253Y-106555858D01*
X145715858Y-106376253D01*
X145730000Y-106390395D01*
X145744143Y-106376253D01*
X145923748Y-106555858D01*
X145909605Y-106570000D01*
X147221653Y-107882048D01*
X147537214Y-107726038D01*
X147728020Y-107351255D01*
X147750096Y-107272881D01*
X147851426Y-107314853D01*
X147873000Y-107319144D01*
X147873000Y-113824811D01*
X147726287Y-113971524D01*
X147470750Y-114353963D01*
X147294733Y-114778906D01*
X147205000Y-115230023D01*
X147205000Y-115689977D01*
X147242289Y-115877442D01*
X146957176Y-115855098D01*
X146539549Y-115904666D01*
X146139617Y-116034757D01*
X145843962Y-116192786D01*
X145687952Y-116508347D01*
X147000000Y-117820395D01*
X147014143Y-117806253D01*
X147193748Y-117985858D01*
X147179605Y-118000000D01*
X148491653Y-119312048D01*
X148807214Y-119156038D01*
X148998020Y-118781255D01*
X149112044Y-118376449D01*
X149144902Y-117957176D01*
X149121195Y-117757440D01*
X149310023Y-117795000D01*
X149769977Y-117795000D01*
X150221094Y-117705267D01*
X150410047Y-117627000D01*
X152373000Y-117627000D01*
X152373000Y-121019892D01*
X152261499Y-121131393D01*
X152135586Y-120841423D01*
X151803374Y-120675567D01*
X151445188Y-120577710D01*
X151074794Y-120551611D01*
X150706425Y-120598275D01*
X150354238Y-120715906D01*
X150119414Y-120841423D01*
X149993500Y-121131395D01*
X151127500Y-122265395D01*
X151141643Y-122251253D01*
X151321248Y-122430858D01*
X151307105Y-122445000D01*
X151321248Y-122459143D01*
X151141643Y-122638748D01*
X151127500Y-122624605D01*
X149993500Y-123758605D01*
X150043174Y-123873000D01*
X143127000Y-123873000D01*
X143127000Y-122497706D01*
X149234111Y-122497706D01*
X149280775Y-122866075D01*
X149398406Y-123218262D01*
X149523923Y-123453086D01*
X149813895Y-123579000D01*
X150947895Y-122445000D01*
X149813895Y-121311000D01*
X149523923Y-121436914D01*
X149358067Y-121769126D01*
X149260210Y-122127312D01*
X149234111Y-122497706D01*
X143127000Y-122497706D01*
X143127000Y-119491653D01*
X145687952Y-119491653D01*
X145843962Y-119807214D01*
X146218745Y-119998020D01*
X146623551Y-120112044D01*
X147042824Y-120144902D01*
X147460451Y-120095334D01*
X147860383Y-119965243D01*
X148156038Y-119807214D01*
X148312048Y-119491653D01*
X147000000Y-118179605D01*
X145687952Y-119491653D01*
X143127000Y-119491653D01*
X143127000Y-118042824D01*
X144855098Y-118042824D01*
X144904666Y-118460451D01*
X145034757Y-118860383D01*
X145192786Y-119156038D01*
X145508347Y-119312048D01*
X146820395Y-118000000D01*
X145508347Y-116687952D01*
X145192786Y-116843962D01*
X145001980Y-117218745D01*
X144887956Y-117623551D01*
X144855098Y-118042824D01*
X143127000Y-118042824D01*
X143127000Y-108061653D01*
X144417952Y-108061653D01*
X144573962Y-108377214D01*
X144948745Y-108568020D01*
X145353551Y-108682044D01*
X145772824Y-108714902D01*
X146190451Y-108665334D01*
X146590383Y-108535243D01*
X146886038Y-108377214D01*
X147042048Y-108061653D01*
X145730000Y-106749605D01*
X144417952Y-108061653D01*
X143127000Y-108061653D01*
X143127000Y-105127000D01*
X144139914Y-105127000D01*
X144123653Y-105143261D01*
G36*
X189873000Y-116292589D02*
G01*
X189765060Y-116090648D01*
X189429023Y-115910582D01*
X187974605Y-117365000D01*
X187988748Y-117379143D01*
X187809143Y-117558748D01*
X187795000Y-117544605D01*
X187780858Y-117558748D01*
X187601253Y-117379143D01*
X187615395Y-117365000D01*
X186160977Y-115910582D01*
X186127000Y-115928789D01*
X186127000Y-115730977D01*
X186340582Y-115730977D01*
X187795000Y-117185395D01*
X189249418Y-115730977D01*
X189069352Y-115394940D01*
X188660526Y-115184180D01*
X188218438Y-115057228D01*
X187760078Y-115018963D01*
X187303060Y-115070854D01*
X186864947Y-115210908D01*
X186520648Y-115394940D01*
X186340582Y-115730977D01*
X186127000Y-115730977D01*
X186127000Y-114500000D01*
X186124560Y-114475224D01*
X186117333Y-114451399D01*
X186105597Y-114429443D01*
X186089803Y-114410197D01*
X186070557Y-114394403D01*
X186048601Y-114382667D01*
X186024776Y-114375440D01*
X186000000Y-114373000D01*
X184467998Y-114373000D01*
X184845383Y-114250243D01*
X185141038Y-114092214D01*
X185297048Y-113776653D01*
X183985000Y-112464605D01*
X182672952Y-113776653D01*
X182828962Y-114092214D01*
X183203745Y-114283020D01*
X183523190Y-114373000D01*
X182127000Y-114373000D01*
X182127000Y-113346023D01*
X182177786Y-113441038D01*
X182493347Y-113597048D01*
X183805395Y-112285000D01*
X184164605Y-112285000D01*
X185476653Y-113597048D01*
X185792214Y-113441038D01*
X185983020Y-113066255D01*
X186097044Y-112661449D01*
X186129902Y-112242176D01*
X186080334Y-111824549D01*
X185950243Y-111424617D01*
X185792214Y-111128962D01*
X185476653Y-110972952D01*
X184164605Y-112285000D01*
X183805395Y-112285000D01*
X182493347Y-110972952D01*
X182177786Y-111128962D01*
X182127000Y-111228716D01*
X182127000Y-110793347D01*
X182672952Y-110793347D01*
X183985000Y-112105395D01*
X185297048Y-110793347D01*
X185141038Y-110477786D01*
X184766255Y-110286980D01*
X184361449Y-110172956D01*
X183942176Y-110140098D01*
X183524549Y-110189666D01*
X183124617Y-110319757D01*
X182828962Y-110477786D01*
X182672952Y-110793347D01*
X182127000Y-110793347D01*
X182127000Y-110127000D01*
X189873000Y-110127000D01*
X189873000Y-116292589D01*
X189873000Y-116292589D01*
G37*
X189873000Y-116292589D02*
X189765060Y-116090648D01*
X189429023Y-115910582D01*
X187974605Y-117365000D01*
X187988748Y-117379143D01*
X187809143Y-117558748D01*
X187795000Y-117544605D01*
X187780858Y-117558748D01*
X187601253Y-117379143D01*
X187615395Y-117365000D01*
X186160977Y-115910582D01*
X186127000Y-115928789D01*
X186127000Y-115730977D01*
X186340582Y-115730977D01*
X187795000Y-117185395D01*
X189249418Y-115730977D01*
X189069352Y-115394940D01*
X188660526Y-115184180D01*
X188218438Y-115057228D01*
X187760078Y-115018963D01*
X187303060Y-115070854D01*
X186864947Y-115210908D01*
X186520648Y-115394940D01*
X186340582Y-115730977D01*
X186127000Y-115730977D01*
X186127000Y-114500000D01*
X186124560Y-114475224D01*
X186117333Y-114451399D01*
X186105597Y-114429443D01*
X186089803Y-114410197D01*
X186070557Y-114394403D01*
X186048601Y-114382667D01*
X186024776Y-114375440D01*
X186000000Y-114373000D01*
X184467998Y-114373000D01*
X184845383Y-114250243D01*
X185141038Y-114092214D01*
X185297048Y-113776653D01*
X183985000Y-112464605D01*
X182672952Y-113776653D01*
X182828962Y-114092214D01*
X183203745Y-114283020D01*
X183523190Y-114373000D01*
X182127000Y-114373000D01*
X182127000Y-113346023D01*
X182177786Y-113441038D01*
X182493347Y-113597048D01*
X183805395Y-112285000D01*
X184164605Y-112285000D01*
X185476653Y-113597048D01*
X185792214Y-113441038D01*
X185983020Y-113066255D01*
X186097044Y-112661449D01*
X186129902Y-112242176D01*
X186080334Y-111824549D01*
X185950243Y-111424617D01*
X185792214Y-111128962D01*
X185476653Y-110972952D01*
X184164605Y-112285000D01*
X183805395Y-112285000D01*
X182493347Y-110972952D01*
X182177786Y-111128962D01*
X182127000Y-111228716D01*
X182127000Y-110793347D01*
X182672952Y-110793347D01*
X183985000Y-112105395D01*
X185297048Y-110793347D01*
X185141038Y-110477786D01*
X184766255Y-110286980D01*
X184361449Y-110172956D01*
X183942176Y-110140098D01*
X183524549Y-110189666D01*
X183124617Y-110319757D01*
X182828962Y-110477786D01*
X182672952Y-110793347D01*
X182127000Y-110793347D01*
X182127000Y-110127000D01*
X189873000Y-110127000D01*
X189873000Y-116292589D01*
M02*
