G04 #@! TF.GenerationSoftware,KiCad,Pcbnew,5.1.5*
G04 #@! TF.CreationDate,2019-12-15T20:35:18-05:00*
G04 #@! TF.ProjectId,input_output_board,696e7075-745f-46f7-9574-7075745f626f,1*
G04 #@! TF.SameCoordinates,Original*
G04 #@! TF.FileFunction,Legend,Bot*
G04 #@! TF.FilePolarity,Positive*
%FSLAX46Y46*%
G04 Gerber Fmt 4.6, Leading zero omitted, Abs format (unit mm)*
G04 Created by KiCad (PCBNEW 5.1.5) date 2019-12-15 20:35:18*
%MOMM*%
%LPD*%
G04 APERTURE LIST*
%ADD10C,0.150000*%
%ADD11C,0.010000*%
G04 APERTURE END LIST*
D10*
X73664404Y-141977380D02*
X73664404Y-140977380D01*
X73188214Y-141310714D02*
X73188214Y-141977380D01*
X73188214Y-141405952D02*
X73140595Y-141358333D01*
X73045357Y-141310714D01*
X72902500Y-141310714D01*
X72807261Y-141358333D01*
X72759642Y-141453571D01*
X72759642Y-141977380D01*
X72283452Y-141310714D02*
X72283452Y-142310714D01*
X72283452Y-141358333D02*
X72188214Y-141310714D01*
X71997738Y-141310714D01*
X71902500Y-141358333D01*
X71854880Y-141405952D01*
X71807261Y-141501190D01*
X71807261Y-141786904D01*
X71854880Y-141882142D01*
X71902500Y-141929761D01*
X71997738Y-141977380D01*
X72188214Y-141977380D01*
X72283452Y-141929761D01*
X70950119Y-141310714D02*
X70950119Y-141977380D01*
X71378690Y-141310714D02*
X71378690Y-141834523D01*
X71331071Y-141929761D01*
X71235833Y-141977380D01*
X71092976Y-141977380D01*
X70997738Y-141929761D01*
X70950119Y-141882142D01*
X70616785Y-141310714D02*
X70235833Y-141310714D01*
X70473928Y-140977380D02*
X70473928Y-141834523D01*
X70426309Y-141929761D01*
X70331071Y-141977380D01*
X70235833Y-141977380D01*
X69188214Y-140929761D02*
X70045357Y-142215476D01*
X68664404Y-140977380D02*
X68473928Y-140977380D01*
X68378690Y-141025000D01*
X68283452Y-141120238D01*
X68235833Y-141310714D01*
X68235833Y-141644047D01*
X68283452Y-141834523D01*
X68378690Y-141929761D01*
X68473928Y-141977380D01*
X68664404Y-141977380D01*
X68759642Y-141929761D01*
X68854880Y-141834523D01*
X68902500Y-141644047D01*
X68902500Y-141310714D01*
X68854880Y-141120238D01*
X68759642Y-141025000D01*
X68664404Y-140977380D01*
X67378690Y-141310714D02*
X67378690Y-141977380D01*
X67807261Y-141310714D02*
X67807261Y-141834523D01*
X67759642Y-141929761D01*
X67664404Y-141977380D01*
X67521547Y-141977380D01*
X67426309Y-141929761D01*
X67378690Y-141882142D01*
X67045357Y-141310714D02*
X66664404Y-141310714D01*
X66902500Y-140977380D02*
X66902500Y-141834523D01*
X66854880Y-141929761D01*
X66759642Y-141977380D01*
X66664404Y-141977380D01*
X66331071Y-141310714D02*
X66331071Y-142310714D01*
X66331071Y-141358333D02*
X66235833Y-141310714D01*
X66045357Y-141310714D01*
X65950119Y-141358333D01*
X65902500Y-141405952D01*
X65854880Y-141501190D01*
X65854880Y-141786904D01*
X65902500Y-141882142D01*
X65950119Y-141929761D01*
X66045357Y-141977380D01*
X66235833Y-141977380D01*
X66331071Y-141929761D01*
X64997738Y-141310714D02*
X64997738Y-141977380D01*
X65426309Y-141310714D02*
X65426309Y-141834523D01*
X65378690Y-141929761D01*
X65283452Y-141977380D01*
X65140595Y-141977380D01*
X65045357Y-141929761D01*
X64997738Y-141882142D01*
X64664404Y-141310714D02*
X64283452Y-141310714D01*
X64521547Y-140977380D02*
X64521547Y-141834523D01*
X64473928Y-141929761D01*
X64378690Y-141977380D01*
X64283452Y-141977380D01*
X62854880Y-141453571D02*
X62712023Y-141501190D01*
X62664404Y-141548809D01*
X62616785Y-141644047D01*
X62616785Y-141786904D01*
X62664404Y-141882142D01*
X62712023Y-141929761D01*
X62807261Y-141977380D01*
X63188214Y-141977380D01*
X63188214Y-140977380D01*
X62854880Y-140977380D01*
X62759642Y-141025000D01*
X62712023Y-141072619D01*
X62664404Y-141167857D01*
X62664404Y-141263095D01*
X62712023Y-141358333D01*
X62759642Y-141405952D01*
X62854880Y-141453571D01*
X63188214Y-141453571D01*
X62045357Y-141977380D02*
X62140595Y-141929761D01*
X62188214Y-141882142D01*
X62235833Y-141786904D01*
X62235833Y-141501190D01*
X62188214Y-141405952D01*
X62140595Y-141358333D01*
X62045357Y-141310714D01*
X61902500Y-141310714D01*
X61807261Y-141358333D01*
X61759642Y-141405952D01*
X61712023Y-141501190D01*
X61712023Y-141786904D01*
X61759642Y-141882142D01*
X61807261Y-141929761D01*
X61902500Y-141977380D01*
X62045357Y-141977380D01*
X60854880Y-141977380D02*
X60854880Y-141453571D01*
X60902500Y-141358333D01*
X60997738Y-141310714D01*
X61188214Y-141310714D01*
X61283452Y-141358333D01*
X60854880Y-141929761D02*
X60950119Y-141977380D01*
X61188214Y-141977380D01*
X61283452Y-141929761D01*
X61331071Y-141834523D01*
X61331071Y-141739285D01*
X61283452Y-141644047D01*
X61188214Y-141596428D01*
X60950119Y-141596428D01*
X60854880Y-141548809D01*
X60378690Y-141977380D02*
X60378690Y-141310714D01*
X60378690Y-141501190D02*
X60331071Y-141405952D01*
X60283452Y-141358333D01*
X60188214Y-141310714D01*
X60092976Y-141310714D01*
X59331071Y-141977380D02*
X59331071Y-140977380D01*
X59331071Y-141929761D02*
X59426309Y-141977380D01*
X59616785Y-141977380D01*
X59712023Y-141929761D01*
X59759642Y-141882142D01*
X59807261Y-141786904D01*
X59807261Y-141501190D01*
X59759642Y-141405952D01*
X59712023Y-141358333D01*
X59616785Y-141310714D01*
X59426309Y-141310714D01*
X59331071Y-141358333D01*
X58092976Y-141977380D02*
X58092976Y-141310714D01*
X58092976Y-141501190D02*
X58045357Y-141405952D01*
X57997738Y-141358333D01*
X57902500Y-141310714D01*
X57807261Y-141310714D01*
X57092976Y-141929761D02*
X57188214Y-141977380D01*
X57378690Y-141977380D01*
X57473928Y-141929761D01*
X57521547Y-141834523D01*
X57521547Y-141453571D01*
X57473928Y-141358333D01*
X57378690Y-141310714D01*
X57188214Y-141310714D01*
X57092976Y-141358333D01*
X57045357Y-141453571D01*
X57045357Y-141548809D01*
X57521547Y-141644047D01*
X56712023Y-141310714D02*
X56473928Y-141977380D01*
X56235833Y-141310714D01*
X55902500Y-141072619D02*
X55854880Y-141025000D01*
X55759642Y-140977380D01*
X55521547Y-140977380D01*
X55426309Y-141025000D01*
X55378690Y-141072619D01*
X55331071Y-141167857D01*
X55331071Y-141263095D01*
X55378690Y-141405952D01*
X55950119Y-141977380D01*
X55331071Y-141977380D01*
X73664404Y-143627380D02*
X73664404Y-142627380D01*
X73283452Y-142627380D01*
X73188214Y-142675000D01*
X73140595Y-142722619D01*
X73092976Y-142817857D01*
X73092976Y-142960714D01*
X73140595Y-143055952D01*
X73188214Y-143103571D01*
X73283452Y-143151190D01*
X73664404Y-143151190D01*
X72664404Y-143627380D02*
X72664404Y-142960714D01*
X72664404Y-143151190D02*
X72616785Y-143055952D01*
X72569166Y-143008333D01*
X72473928Y-142960714D01*
X72378690Y-142960714D01*
X71664404Y-143579761D02*
X71759642Y-143627380D01*
X71950119Y-143627380D01*
X72045357Y-143579761D01*
X72092976Y-143484523D01*
X72092976Y-143103571D01*
X72045357Y-143008333D01*
X71950119Y-142960714D01*
X71759642Y-142960714D01*
X71664404Y-143008333D01*
X71616785Y-143103571D01*
X71616785Y-143198809D01*
X72092976Y-143294047D01*
X70759642Y-143627380D02*
X70759642Y-143103571D01*
X70807261Y-143008333D01*
X70902500Y-142960714D01*
X71092976Y-142960714D01*
X71188214Y-143008333D01*
X70759642Y-143579761D02*
X70854880Y-143627380D01*
X71092976Y-143627380D01*
X71188214Y-143579761D01*
X71235833Y-143484523D01*
X71235833Y-143389285D01*
X71188214Y-143294047D01*
X71092976Y-143246428D01*
X70854880Y-143246428D01*
X70759642Y-143198809D01*
X70283452Y-143627380D02*
X70283452Y-142960714D01*
X70283452Y-143055952D02*
X70235833Y-143008333D01*
X70140595Y-142960714D01*
X69997738Y-142960714D01*
X69902500Y-143008333D01*
X69854880Y-143103571D01*
X69854880Y-143627380D01*
X69854880Y-143103571D02*
X69807261Y-143008333D01*
X69712023Y-142960714D01*
X69569166Y-142960714D01*
X69473928Y-143008333D01*
X69426309Y-143103571D01*
X69426309Y-143627380D01*
X68950119Y-142960714D02*
X68950119Y-143960714D01*
X68950119Y-143008333D02*
X68854880Y-142960714D01*
X68664404Y-142960714D01*
X68569166Y-143008333D01*
X68521547Y-143055952D01*
X68473928Y-143151190D01*
X68473928Y-143436904D01*
X68521547Y-143532142D01*
X68569166Y-143579761D01*
X68664404Y-143627380D01*
X68854880Y-143627380D01*
X68950119Y-143579761D01*
X67331071Y-142722619D02*
X67283452Y-142675000D01*
X67188214Y-142627380D01*
X66950119Y-142627380D01*
X66854880Y-142675000D01*
X66807261Y-142722619D01*
X66759642Y-142817857D01*
X66759642Y-142913095D01*
X66807261Y-143055952D01*
X67378690Y-143627380D01*
X66759642Y-143627380D01*
X66140595Y-142627380D02*
X66045357Y-142627380D01*
X65950119Y-142675000D01*
X65902499Y-142722619D01*
X65854880Y-142817857D01*
X65807261Y-143008333D01*
X65807261Y-143246428D01*
X65854880Y-143436904D01*
X65902499Y-143532142D01*
X65950119Y-143579761D01*
X66045357Y-143627380D01*
X66140595Y-143627380D01*
X66235833Y-143579761D01*
X66283452Y-143532142D01*
X66331071Y-143436904D01*
X66378690Y-143246428D01*
X66378690Y-143008333D01*
X66331071Y-142817857D01*
X66283452Y-142722619D01*
X66235833Y-142675000D01*
X66140595Y-142627380D01*
X64854880Y-143627380D02*
X65426309Y-143627380D01*
X65140595Y-143627380D02*
X65140595Y-142627380D01*
X65235833Y-142770238D01*
X65331071Y-142865476D01*
X65426309Y-142913095D01*
X64378690Y-143627380D02*
X64188214Y-143627380D01*
X64092976Y-143579761D01*
X64045357Y-143532142D01*
X63950119Y-143389285D01*
X63902499Y-143198809D01*
X63902499Y-142817857D01*
X63950119Y-142722619D01*
X63997738Y-142675000D01*
X64092976Y-142627380D01*
X64283452Y-142627380D01*
X64378690Y-142675000D01*
X64426309Y-142722619D01*
X64473928Y-142817857D01*
X64473928Y-143055952D01*
X64426309Y-143151190D01*
X64378690Y-143198809D01*
X64283452Y-143246428D01*
X64092976Y-143246428D01*
X63997738Y-143198809D01*
X63950119Y-143151190D01*
X63902499Y-143055952D01*
X73140595Y-144325000D02*
X73235833Y-144277380D01*
X73378690Y-144277380D01*
X73521547Y-144325000D01*
X73616785Y-144420238D01*
X73664404Y-144515476D01*
X73712023Y-144705952D01*
X73712023Y-144848809D01*
X73664404Y-145039285D01*
X73616785Y-145134523D01*
X73521547Y-145229761D01*
X73378690Y-145277380D01*
X73283452Y-145277380D01*
X73140595Y-145229761D01*
X73092976Y-145182142D01*
X73092976Y-144848809D01*
X73283452Y-144848809D01*
X72664404Y-145182142D02*
X72616785Y-145229761D01*
X72664404Y-145277380D01*
X72712023Y-145229761D01*
X72664404Y-145182142D01*
X72664404Y-145277380D01*
X71426309Y-145277380D02*
X71426309Y-144277380D01*
X70854880Y-145277380D02*
X71283452Y-144705952D01*
X70854880Y-144277380D02*
X71426309Y-144848809D01*
X70045357Y-145229761D02*
X70140595Y-145277380D01*
X70331071Y-145277380D01*
X70426309Y-145229761D01*
X70473928Y-145134523D01*
X70473928Y-144753571D01*
X70426309Y-144658333D01*
X70331071Y-144610714D01*
X70140595Y-144610714D01*
X70045357Y-144658333D01*
X69997738Y-144753571D01*
X69997738Y-144848809D01*
X70473928Y-144944047D01*
X69188214Y-145229761D02*
X69283452Y-145277380D01*
X69473928Y-145277380D01*
X69569166Y-145229761D01*
X69616785Y-145134523D01*
X69616785Y-144753571D01*
X69569166Y-144658333D01*
X69473928Y-144610714D01*
X69283452Y-144610714D01*
X69188214Y-144658333D01*
X69140595Y-144753571D01*
X69140595Y-144848809D01*
X69616785Y-144944047D01*
X68854880Y-144610714D02*
X68473928Y-144610714D01*
X68712023Y-144277380D02*
X68712023Y-145134523D01*
X68664404Y-145229761D01*
X68569166Y-145277380D01*
X68473928Y-145277380D01*
X68140595Y-145277380D02*
X68140595Y-144277380D01*
X67712023Y-145277380D02*
X67712023Y-144753571D01*
X67759642Y-144658333D01*
X67854880Y-144610714D01*
X67997738Y-144610714D01*
X68092976Y-144658333D01*
X68140595Y-144705952D01*
X73712023Y-146022619D02*
X73664404Y-145975000D01*
X73569166Y-145927380D01*
X73331071Y-145927380D01*
X73235833Y-145975000D01*
X73188214Y-146022619D01*
X73140595Y-146117857D01*
X73140595Y-146213095D01*
X73188214Y-146355952D01*
X73759642Y-146927380D01*
X73140595Y-146927380D01*
X72521547Y-145927380D02*
X72426309Y-145927380D01*
X72331071Y-145975000D01*
X72283452Y-146022619D01*
X72235833Y-146117857D01*
X72188214Y-146308333D01*
X72188214Y-146546428D01*
X72235833Y-146736904D01*
X72283452Y-146832142D01*
X72331071Y-146879761D01*
X72426309Y-146927380D01*
X72521547Y-146927380D01*
X72616785Y-146879761D01*
X72664404Y-146832142D01*
X72712023Y-146736904D01*
X72759642Y-146546428D01*
X72759642Y-146308333D01*
X72712023Y-146117857D01*
X72664404Y-146022619D01*
X72616785Y-145975000D01*
X72521547Y-145927380D01*
X71235833Y-146927380D02*
X71807261Y-146927380D01*
X71521547Y-146927380D02*
X71521547Y-145927380D01*
X71616785Y-146070238D01*
X71712023Y-146165476D01*
X71807261Y-146213095D01*
X70759642Y-146927380D02*
X70569166Y-146927380D01*
X70473928Y-146879761D01*
X70426309Y-146832142D01*
X70331071Y-146689285D01*
X70283452Y-146498809D01*
X70283452Y-146117857D01*
X70331071Y-146022619D01*
X70378690Y-145975000D01*
X70473928Y-145927380D01*
X70664404Y-145927380D01*
X70759642Y-145975000D01*
X70807261Y-146022619D01*
X70854880Y-146117857D01*
X70854880Y-146355952D01*
X70807261Y-146451190D01*
X70759642Y-146498809D01*
X70664404Y-146546428D01*
X70473928Y-146546428D01*
X70378690Y-146498809D01*
X70331071Y-146451190D01*
X70283452Y-146355952D01*
X69854880Y-146546428D02*
X69092976Y-146546428D01*
X68092976Y-146927380D02*
X68664404Y-146927380D01*
X68378690Y-146927380D02*
X68378690Y-145927380D01*
X68473928Y-146070238D01*
X68569166Y-146165476D01*
X68664404Y-146213095D01*
X67712023Y-146022619D02*
X67664404Y-145975000D01*
X67569166Y-145927380D01*
X67331071Y-145927380D01*
X67235833Y-145975000D01*
X67188214Y-146022619D01*
X67140595Y-146117857D01*
X67140595Y-146213095D01*
X67188214Y-146355952D01*
X67759642Y-146927380D01*
X67140595Y-146927380D01*
X66712023Y-146546428D02*
X65950119Y-146546428D01*
X64950119Y-146927380D02*
X65521547Y-146927380D01*
X65235833Y-146927380D02*
X65235833Y-145927380D01*
X65331071Y-146070238D01*
X65426309Y-146165476D01*
X65521547Y-146213095D01*
X64045357Y-145927380D02*
X64521547Y-145927380D01*
X64569166Y-146403571D01*
X64521547Y-146355952D01*
X64426309Y-146308333D01*
X64188214Y-146308333D01*
X64092976Y-146355952D01*
X64045357Y-146403571D01*
X63997738Y-146498809D01*
X63997738Y-146736904D01*
X64045357Y-146832142D01*
X64092976Y-146879761D01*
X64188214Y-146927380D01*
X64426309Y-146927380D01*
X64521547Y-146879761D01*
X64569166Y-146832142D01*
D11*
G36*
X125360122Y-140787776D02*
G01*
X125254388Y-140788355D01*
X125177868Y-140789922D01*
X125125628Y-140792972D01*
X125092737Y-140797996D01*
X125074263Y-140805489D01*
X125065273Y-140815944D01*
X125060837Y-140829853D01*
X125060406Y-140831654D01*
X125053667Y-140864145D01*
X125041192Y-140928252D01*
X125024281Y-141017151D01*
X125004229Y-141124019D01*
X124982336Y-141242033D01*
X124981571Y-141246178D01*
X124959641Y-141361831D01*
X124939123Y-141464014D01*
X124921341Y-141546598D01*
X124907619Y-141603456D01*
X124899282Y-141628458D01*
X124898884Y-141628901D01*
X124874323Y-141641110D01*
X124823685Y-141661456D01*
X124757905Y-141685545D01*
X124757539Y-141685674D01*
X124674683Y-141716818D01*
X124577000Y-141756491D01*
X124484923Y-141796381D01*
X124480566Y-141798353D01*
X124330593Y-141866420D01*
X123998502Y-141639639D01*
X123896626Y-141570504D01*
X123804343Y-141508697D01*
X123726997Y-141457733D01*
X123669936Y-141421127D01*
X123638505Y-141402394D01*
X123635521Y-141401004D01*
X123612679Y-141407190D01*
X123570018Y-141437035D01*
X123505872Y-141491947D01*
X123418579Y-141573334D01*
X123329465Y-141659922D01*
X123243559Y-141745247D01*
X123166673Y-141823108D01*
X123103436Y-141888697D01*
X123058477Y-141937205D01*
X123036424Y-141963825D01*
X123035604Y-141965195D01*
X123033166Y-141983463D01*
X123042350Y-142013295D01*
X123065426Y-142058721D01*
X123104663Y-142123770D01*
X123162330Y-142212470D01*
X123239205Y-142326657D01*
X123307430Y-142427162D01*
X123368418Y-142517303D01*
X123418644Y-142591849D01*
X123454584Y-142645565D01*
X123472713Y-142673218D01*
X123473854Y-142675095D01*
X123471641Y-142701590D01*
X123454862Y-142753086D01*
X123426858Y-142819851D01*
X123416878Y-142841172D01*
X123373328Y-142936159D01*
X123326866Y-143043937D01*
X123289123Y-143137192D01*
X123261927Y-143206406D01*
X123240325Y-143259006D01*
X123227842Y-143286497D01*
X123226291Y-143288616D01*
X123203332Y-143292124D01*
X123149214Y-143301738D01*
X123071132Y-143316089D01*
X122976281Y-143333807D01*
X122871857Y-143353525D01*
X122765056Y-143373874D01*
X122663074Y-143393486D01*
X122573106Y-143410991D01*
X122502347Y-143425022D01*
X122457994Y-143434209D01*
X122447115Y-143436807D01*
X122435878Y-143443218D01*
X122427395Y-143457697D01*
X122421286Y-143485133D01*
X122417168Y-143530411D01*
X122414659Y-143598420D01*
X122413379Y-143694047D01*
X122412946Y-143822180D01*
X122412923Y-143874701D01*
X122412923Y-144301845D01*
X122515500Y-144322091D01*
X122572569Y-144333070D01*
X122657731Y-144349095D01*
X122760628Y-144368233D01*
X122870904Y-144388551D01*
X122901385Y-144394132D01*
X123003145Y-144413917D01*
X123091795Y-144433373D01*
X123159892Y-144450697D01*
X123199996Y-144464088D01*
X123206677Y-144468079D01*
X123223081Y-144496342D01*
X123246601Y-144551109D01*
X123272684Y-144621588D01*
X123277858Y-144636769D01*
X123312044Y-144730896D01*
X123354477Y-144837101D01*
X123396003Y-144932473D01*
X123396208Y-144932916D01*
X123465360Y-145082525D01*
X123010488Y-145751617D01*
X123302500Y-146044116D01*
X123390820Y-146131170D01*
X123471375Y-146207909D01*
X123539640Y-146270237D01*
X123591092Y-146314056D01*
X123621206Y-146335270D01*
X123625526Y-146336616D01*
X123650889Y-146326016D01*
X123702642Y-146296547D01*
X123775132Y-146251705D01*
X123862706Y-146194984D01*
X123957388Y-146131462D01*
X124053484Y-146066668D01*
X124139163Y-146010287D01*
X124208984Y-145965788D01*
X124257506Y-145936639D01*
X124279218Y-145926308D01*
X124305707Y-145935050D01*
X124355938Y-145958087D01*
X124419549Y-145990631D01*
X124426292Y-145994249D01*
X124511954Y-146037210D01*
X124570694Y-146058279D01*
X124607228Y-146058503D01*
X124626269Y-146038928D01*
X124626380Y-146038654D01*
X124635898Y-146015472D01*
X124658597Y-145960441D01*
X124692718Y-145877822D01*
X124736500Y-145771872D01*
X124788184Y-145646852D01*
X124846008Y-145507020D01*
X124902009Y-145371637D01*
X124963553Y-145222234D01*
X125020061Y-145083832D01*
X125069839Y-144960673D01*
X125111194Y-144857002D01*
X125142432Y-144777059D01*
X125161859Y-144725088D01*
X125167846Y-144705692D01*
X125152832Y-144683443D01*
X125113561Y-144647982D01*
X125061193Y-144608887D01*
X124912059Y-144485245D01*
X124795489Y-144343522D01*
X124712882Y-144186704D01*
X124665634Y-144017775D01*
X124655143Y-143839722D01*
X124662769Y-143757539D01*
X124704318Y-143587031D01*
X124775877Y-143436459D01*
X124873005Y-143307309D01*
X124991266Y-143201064D01*
X125126220Y-143119210D01*
X125273429Y-143063232D01*
X125428456Y-143034615D01*
X125586861Y-143034844D01*
X125744206Y-143065405D01*
X125896054Y-143127782D01*
X126037965Y-143223460D01*
X126097197Y-143277572D01*
X126210797Y-143416520D01*
X126289894Y-143568361D01*
X126335014Y-143728667D01*
X126346684Y-143893012D01*
X126325431Y-144056971D01*
X126271780Y-144216118D01*
X126186260Y-144366025D01*
X126069395Y-144502267D01*
X125938807Y-144608887D01*
X125884412Y-144649642D01*
X125845986Y-144684718D01*
X125832154Y-144705726D01*
X125839397Y-144728635D01*
X125859995Y-144783365D01*
X125892254Y-144865672D01*
X125934479Y-144971315D01*
X125984977Y-145096050D01*
X126042052Y-145235636D01*
X126098146Y-145371670D01*
X126160033Y-145521201D01*
X126217356Y-145659767D01*
X126268356Y-145783107D01*
X126311273Y-145886964D01*
X126344347Y-145967080D01*
X126365819Y-146019195D01*
X126373775Y-146038654D01*
X126392571Y-146058423D01*
X126428926Y-146058365D01*
X126487521Y-146037441D01*
X126573032Y-145994613D01*
X126573708Y-145994249D01*
X126638093Y-145961012D01*
X126690139Y-145936802D01*
X126719488Y-145926404D01*
X126720783Y-145926308D01*
X126742876Y-145936855D01*
X126791652Y-145966184D01*
X126861669Y-146010827D01*
X126947486Y-146067314D01*
X127042612Y-146131462D01*
X127139460Y-146196411D01*
X127226747Y-146252896D01*
X127298819Y-146297421D01*
X127350023Y-146326490D01*
X127374474Y-146336616D01*
X127396990Y-146323307D01*
X127442258Y-146286112D01*
X127505756Y-146229128D01*
X127582961Y-146156449D01*
X127669349Y-146072171D01*
X127697601Y-146044016D01*
X127989713Y-145751416D01*
X127767369Y-145425104D01*
X127699798Y-145324897D01*
X127640493Y-145234963D01*
X127592783Y-145160510D01*
X127559993Y-145106751D01*
X127545452Y-145078894D01*
X127545026Y-145076912D01*
X127552692Y-145050655D01*
X127573311Y-144997837D01*
X127603315Y-144927310D01*
X127624375Y-144880093D01*
X127663752Y-144789694D01*
X127700835Y-144698366D01*
X127729585Y-144621200D01*
X127737395Y-144597692D01*
X127759583Y-144534916D01*
X127781273Y-144486411D01*
X127793187Y-144468079D01*
X127819477Y-144456859D01*
X127876858Y-144440954D01*
X127957882Y-144422167D01*
X128055105Y-144402299D01*
X128098615Y-144394132D01*
X128209104Y-144373829D01*
X128315084Y-144354170D01*
X128406199Y-144337088D01*
X128472092Y-144324518D01*
X128484500Y-144322091D01*
X128587077Y-144301845D01*
X128587077Y-143874701D01*
X128586847Y-143734246D01*
X128585901Y-143627979D01*
X128583859Y-143551013D01*
X128580338Y-143498460D01*
X128574957Y-143465433D01*
X128567334Y-143447045D01*
X128557088Y-143438408D01*
X128552885Y-143436807D01*
X128527530Y-143431127D01*
X128471516Y-143419795D01*
X128392036Y-143404179D01*
X128296288Y-143385647D01*
X128191467Y-143365569D01*
X128084768Y-143345312D01*
X127983387Y-143326246D01*
X127894521Y-143309739D01*
X127825363Y-143297159D01*
X127783111Y-143289875D01*
X127773710Y-143288616D01*
X127765193Y-143271763D01*
X127746340Y-143226870D01*
X127720676Y-143162430D01*
X127710877Y-143137192D01*
X127671352Y-143039686D01*
X127624808Y-142931959D01*
X127583123Y-142841172D01*
X127552450Y-142771753D01*
X127532044Y-142714710D01*
X127525232Y-142679777D01*
X127526318Y-142675095D01*
X127540715Y-142652991D01*
X127573588Y-142603831D01*
X127621410Y-142532848D01*
X127680652Y-142445278D01*
X127747785Y-142346357D01*
X127761059Y-142326830D01*
X127838954Y-142211140D01*
X127896213Y-142123044D01*
X127935119Y-142058486D01*
X127957956Y-142013411D01*
X127967006Y-141983763D01*
X127964552Y-141965485D01*
X127964489Y-141965369D01*
X127945173Y-141941361D01*
X127902449Y-141894947D01*
X127840949Y-141830937D01*
X127765302Y-141754145D01*
X127680139Y-141669382D01*
X127670535Y-141659922D01*
X127563210Y-141555989D01*
X127480385Y-141479675D01*
X127420395Y-141429571D01*
X127381577Y-141404270D01*
X127364480Y-141401004D01*
X127339527Y-141415250D01*
X127287745Y-141448156D01*
X127214480Y-141496208D01*
X127125080Y-141555890D01*
X127024889Y-141623688D01*
X127001499Y-141639639D01*
X126669407Y-141866420D01*
X126519435Y-141798353D01*
X126428230Y-141758685D01*
X126330331Y-141718791D01*
X126246169Y-141686983D01*
X126242462Y-141685674D01*
X126176631Y-141661576D01*
X126125884Y-141641200D01*
X126101158Y-141628936D01*
X126101116Y-141628901D01*
X126093271Y-141606734D01*
X126079934Y-141552217D01*
X126062430Y-141471480D01*
X126042083Y-141370650D01*
X126020218Y-141255856D01*
X126018429Y-141246178D01*
X125996496Y-141127904D01*
X125976360Y-141020542D01*
X125959320Y-140930917D01*
X125946672Y-140865851D01*
X125939716Y-140832168D01*
X125939594Y-140831654D01*
X125935361Y-140817325D01*
X125927129Y-140806507D01*
X125909967Y-140798706D01*
X125878942Y-140793429D01*
X125829122Y-140790182D01*
X125755576Y-140788472D01*
X125653371Y-140787807D01*
X125517575Y-140787693D01*
X125500000Y-140787692D01*
X125360122Y-140787776D01*
G37*
X125360122Y-140787776D02*
X125254388Y-140788355D01*
X125177868Y-140789922D01*
X125125628Y-140792972D01*
X125092737Y-140797996D01*
X125074263Y-140805489D01*
X125065273Y-140815944D01*
X125060837Y-140829853D01*
X125060406Y-140831654D01*
X125053667Y-140864145D01*
X125041192Y-140928252D01*
X125024281Y-141017151D01*
X125004229Y-141124019D01*
X124982336Y-141242033D01*
X124981571Y-141246178D01*
X124959641Y-141361831D01*
X124939123Y-141464014D01*
X124921341Y-141546598D01*
X124907619Y-141603456D01*
X124899282Y-141628458D01*
X124898884Y-141628901D01*
X124874323Y-141641110D01*
X124823685Y-141661456D01*
X124757905Y-141685545D01*
X124757539Y-141685674D01*
X124674683Y-141716818D01*
X124577000Y-141756491D01*
X124484923Y-141796381D01*
X124480566Y-141798353D01*
X124330593Y-141866420D01*
X123998502Y-141639639D01*
X123896626Y-141570504D01*
X123804343Y-141508697D01*
X123726997Y-141457733D01*
X123669936Y-141421127D01*
X123638505Y-141402394D01*
X123635521Y-141401004D01*
X123612679Y-141407190D01*
X123570018Y-141437035D01*
X123505872Y-141491947D01*
X123418579Y-141573334D01*
X123329465Y-141659922D01*
X123243559Y-141745247D01*
X123166673Y-141823108D01*
X123103436Y-141888697D01*
X123058477Y-141937205D01*
X123036424Y-141963825D01*
X123035604Y-141965195D01*
X123033166Y-141983463D01*
X123042350Y-142013295D01*
X123065426Y-142058721D01*
X123104663Y-142123770D01*
X123162330Y-142212470D01*
X123239205Y-142326657D01*
X123307430Y-142427162D01*
X123368418Y-142517303D01*
X123418644Y-142591849D01*
X123454584Y-142645565D01*
X123472713Y-142673218D01*
X123473854Y-142675095D01*
X123471641Y-142701590D01*
X123454862Y-142753086D01*
X123426858Y-142819851D01*
X123416878Y-142841172D01*
X123373328Y-142936159D01*
X123326866Y-143043937D01*
X123289123Y-143137192D01*
X123261927Y-143206406D01*
X123240325Y-143259006D01*
X123227842Y-143286497D01*
X123226291Y-143288616D01*
X123203332Y-143292124D01*
X123149214Y-143301738D01*
X123071132Y-143316089D01*
X122976281Y-143333807D01*
X122871857Y-143353525D01*
X122765056Y-143373874D01*
X122663074Y-143393486D01*
X122573106Y-143410991D01*
X122502347Y-143425022D01*
X122457994Y-143434209D01*
X122447115Y-143436807D01*
X122435878Y-143443218D01*
X122427395Y-143457697D01*
X122421286Y-143485133D01*
X122417168Y-143530411D01*
X122414659Y-143598420D01*
X122413379Y-143694047D01*
X122412946Y-143822180D01*
X122412923Y-143874701D01*
X122412923Y-144301845D01*
X122515500Y-144322091D01*
X122572569Y-144333070D01*
X122657731Y-144349095D01*
X122760628Y-144368233D01*
X122870904Y-144388551D01*
X122901385Y-144394132D01*
X123003145Y-144413917D01*
X123091795Y-144433373D01*
X123159892Y-144450697D01*
X123199996Y-144464088D01*
X123206677Y-144468079D01*
X123223081Y-144496342D01*
X123246601Y-144551109D01*
X123272684Y-144621588D01*
X123277858Y-144636769D01*
X123312044Y-144730896D01*
X123354477Y-144837101D01*
X123396003Y-144932473D01*
X123396208Y-144932916D01*
X123465360Y-145082525D01*
X123010488Y-145751617D01*
X123302500Y-146044116D01*
X123390820Y-146131170D01*
X123471375Y-146207909D01*
X123539640Y-146270237D01*
X123591092Y-146314056D01*
X123621206Y-146335270D01*
X123625526Y-146336616D01*
X123650889Y-146326016D01*
X123702642Y-146296547D01*
X123775132Y-146251705D01*
X123862706Y-146194984D01*
X123957388Y-146131462D01*
X124053484Y-146066668D01*
X124139163Y-146010287D01*
X124208984Y-145965788D01*
X124257506Y-145936639D01*
X124279218Y-145926308D01*
X124305707Y-145935050D01*
X124355938Y-145958087D01*
X124419549Y-145990631D01*
X124426292Y-145994249D01*
X124511954Y-146037210D01*
X124570694Y-146058279D01*
X124607228Y-146058503D01*
X124626269Y-146038928D01*
X124626380Y-146038654D01*
X124635898Y-146015472D01*
X124658597Y-145960441D01*
X124692718Y-145877822D01*
X124736500Y-145771872D01*
X124788184Y-145646852D01*
X124846008Y-145507020D01*
X124902009Y-145371637D01*
X124963553Y-145222234D01*
X125020061Y-145083832D01*
X125069839Y-144960673D01*
X125111194Y-144857002D01*
X125142432Y-144777059D01*
X125161859Y-144725088D01*
X125167846Y-144705692D01*
X125152832Y-144683443D01*
X125113561Y-144647982D01*
X125061193Y-144608887D01*
X124912059Y-144485245D01*
X124795489Y-144343522D01*
X124712882Y-144186704D01*
X124665634Y-144017775D01*
X124655143Y-143839722D01*
X124662769Y-143757539D01*
X124704318Y-143587031D01*
X124775877Y-143436459D01*
X124873005Y-143307309D01*
X124991266Y-143201064D01*
X125126220Y-143119210D01*
X125273429Y-143063232D01*
X125428456Y-143034615D01*
X125586861Y-143034844D01*
X125744206Y-143065405D01*
X125896054Y-143127782D01*
X126037965Y-143223460D01*
X126097197Y-143277572D01*
X126210797Y-143416520D01*
X126289894Y-143568361D01*
X126335014Y-143728667D01*
X126346684Y-143893012D01*
X126325431Y-144056971D01*
X126271780Y-144216118D01*
X126186260Y-144366025D01*
X126069395Y-144502267D01*
X125938807Y-144608887D01*
X125884412Y-144649642D01*
X125845986Y-144684718D01*
X125832154Y-144705726D01*
X125839397Y-144728635D01*
X125859995Y-144783365D01*
X125892254Y-144865672D01*
X125934479Y-144971315D01*
X125984977Y-145096050D01*
X126042052Y-145235636D01*
X126098146Y-145371670D01*
X126160033Y-145521201D01*
X126217356Y-145659767D01*
X126268356Y-145783107D01*
X126311273Y-145886964D01*
X126344347Y-145967080D01*
X126365819Y-146019195D01*
X126373775Y-146038654D01*
X126392571Y-146058423D01*
X126428926Y-146058365D01*
X126487521Y-146037441D01*
X126573032Y-145994613D01*
X126573708Y-145994249D01*
X126638093Y-145961012D01*
X126690139Y-145936802D01*
X126719488Y-145926404D01*
X126720783Y-145926308D01*
X126742876Y-145936855D01*
X126791652Y-145966184D01*
X126861669Y-146010827D01*
X126947486Y-146067314D01*
X127042612Y-146131462D01*
X127139460Y-146196411D01*
X127226747Y-146252896D01*
X127298819Y-146297421D01*
X127350023Y-146326490D01*
X127374474Y-146336616D01*
X127396990Y-146323307D01*
X127442258Y-146286112D01*
X127505756Y-146229128D01*
X127582961Y-146156449D01*
X127669349Y-146072171D01*
X127697601Y-146044016D01*
X127989713Y-145751416D01*
X127767369Y-145425104D01*
X127699798Y-145324897D01*
X127640493Y-145234963D01*
X127592783Y-145160510D01*
X127559993Y-145106751D01*
X127545452Y-145078894D01*
X127545026Y-145076912D01*
X127552692Y-145050655D01*
X127573311Y-144997837D01*
X127603315Y-144927310D01*
X127624375Y-144880093D01*
X127663752Y-144789694D01*
X127700835Y-144698366D01*
X127729585Y-144621200D01*
X127737395Y-144597692D01*
X127759583Y-144534916D01*
X127781273Y-144486411D01*
X127793187Y-144468079D01*
X127819477Y-144456859D01*
X127876858Y-144440954D01*
X127957882Y-144422167D01*
X128055105Y-144402299D01*
X128098615Y-144394132D01*
X128209104Y-144373829D01*
X128315084Y-144354170D01*
X128406199Y-144337088D01*
X128472092Y-144324518D01*
X128484500Y-144322091D01*
X128587077Y-144301845D01*
X128587077Y-143874701D01*
X128586847Y-143734246D01*
X128585901Y-143627979D01*
X128583859Y-143551013D01*
X128580338Y-143498460D01*
X128574957Y-143465433D01*
X128567334Y-143447045D01*
X128557088Y-143438408D01*
X128552885Y-143436807D01*
X128527530Y-143431127D01*
X128471516Y-143419795D01*
X128392036Y-143404179D01*
X128296288Y-143385647D01*
X128191467Y-143365569D01*
X128084768Y-143345312D01*
X127983387Y-143326246D01*
X127894521Y-143309739D01*
X127825363Y-143297159D01*
X127783111Y-143289875D01*
X127773710Y-143288616D01*
X127765193Y-143271763D01*
X127746340Y-143226870D01*
X127720676Y-143162430D01*
X127710877Y-143137192D01*
X127671352Y-143039686D01*
X127624808Y-142931959D01*
X127583123Y-142841172D01*
X127552450Y-142771753D01*
X127532044Y-142714710D01*
X127525232Y-142679777D01*
X127526318Y-142675095D01*
X127540715Y-142652991D01*
X127573588Y-142603831D01*
X127621410Y-142532848D01*
X127680652Y-142445278D01*
X127747785Y-142346357D01*
X127761059Y-142326830D01*
X127838954Y-142211140D01*
X127896213Y-142123044D01*
X127935119Y-142058486D01*
X127957956Y-142013411D01*
X127967006Y-141983763D01*
X127964552Y-141965485D01*
X127964489Y-141965369D01*
X127945173Y-141941361D01*
X127902449Y-141894947D01*
X127840949Y-141830937D01*
X127765302Y-141754145D01*
X127680139Y-141669382D01*
X127670535Y-141659922D01*
X127563210Y-141555989D01*
X127480385Y-141479675D01*
X127420395Y-141429571D01*
X127381577Y-141404270D01*
X127364480Y-141401004D01*
X127339527Y-141415250D01*
X127287745Y-141448156D01*
X127214480Y-141496208D01*
X127125080Y-141555890D01*
X127024889Y-141623688D01*
X127001499Y-141639639D01*
X126669407Y-141866420D01*
X126519435Y-141798353D01*
X126428230Y-141758685D01*
X126330331Y-141718791D01*
X126246169Y-141686983D01*
X126242462Y-141685674D01*
X126176631Y-141661576D01*
X126125884Y-141641200D01*
X126101158Y-141628936D01*
X126101116Y-141628901D01*
X126093271Y-141606734D01*
X126079934Y-141552217D01*
X126062430Y-141471480D01*
X126042083Y-141370650D01*
X126020218Y-141255856D01*
X126018429Y-141246178D01*
X125996496Y-141127904D01*
X125976360Y-141020542D01*
X125959320Y-140930917D01*
X125946672Y-140865851D01*
X125939716Y-140832168D01*
X125939594Y-140831654D01*
X125935361Y-140817325D01*
X125927129Y-140806507D01*
X125909967Y-140798706D01*
X125878942Y-140793429D01*
X125829122Y-140790182D01*
X125755576Y-140788472D01*
X125653371Y-140787807D01*
X125517575Y-140787693D01*
X125500000Y-140787692D01*
X125360122Y-140787776D01*
G36*
X121254776Y-147147838D02*
G01*
X121177472Y-147198361D01*
X121140186Y-147243590D01*
X121110647Y-147325663D01*
X121108301Y-147390607D01*
X121113615Y-147477445D01*
X121313885Y-147565103D01*
X121411261Y-147609887D01*
X121474887Y-147645913D01*
X121507971Y-147677117D01*
X121513720Y-147707436D01*
X121495342Y-147740805D01*
X121475077Y-147762923D01*
X121416111Y-147798393D01*
X121351976Y-147800879D01*
X121293074Y-147773235D01*
X121249803Y-147718320D01*
X121242064Y-147698928D01*
X121204994Y-147638364D01*
X121162346Y-147612552D01*
X121103846Y-147590471D01*
X121103846Y-147674184D01*
X121109018Y-147731150D01*
X121129277Y-147779189D01*
X121171738Y-147834346D01*
X121178049Y-147841514D01*
X121225280Y-147890585D01*
X121265879Y-147916920D01*
X121316672Y-147929035D01*
X121358780Y-147933003D01*
X121434098Y-147933991D01*
X121487714Y-147921466D01*
X121521162Y-147902869D01*
X121573732Y-147861975D01*
X121610121Y-147817748D01*
X121633150Y-147762126D01*
X121645641Y-147687047D01*
X121650413Y-147584449D01*
X121650794Y-147532376D01*
X121649499Y-147469948D01*
X121531529Y-147469948D01*
X121530161Y-147503438D01*
X121526751Y-147508923D01*
X121504247Y-147501472D01*
X121455818Y-147481753D01*
X121391092Y-147453718D01*
X121377557Y-147447692D01*
X121295756Y-147406096D01*
X121250688Y-147369538D01*
X121240783Y-147335296D01*
X121264474Y-147300648D01*
X121284040Y-147285339D01*
X121354640Y-147254721D01*
X121420720Y-147259780D01*
X121476041Y-147297151D01*
X121514364Y-147363473D01*
X121526651Y-147416116D01*
X121531529Y-147469948D01*
X121649499Y-147469948D01*
X121648270Y-147410720D01*
X121638968Y-147320710D01*
X121620540Y-147255167D01*
X121590640Y-147206912D01*
X121546920Y-147168767D01*
X121527859Y-147156440D01*
X121441274Y-147124336D01*
X121346478Y-147122316D01*
X121254776Y-147147838D01*
G37*
X121254776Y-147147838D02*
X121177472Y-147198361D01*
X121140186Y-147243590D01*
X121110647Y-147325663D01*
X121108301Y-147390607D01*
X121113615Y-147477445D01*
X121313885Y-147565103D01*
X121411261Y-147609887D01*
X121474887Y-147645913D01*
X121507971Y-147677117D01*
X121513720Y-147707436D01*
X121495342Y-147740805D01*
X121475077Y-147762923D01*
X121416111Y-147798393D01*
X121351976Y-147800879D01*
X121293074Y-147773235D01*
X121249803Y-147718320D01*
X121242064Y-147698928D01*
X121204994Y-147638364D01*
X121162346Y-147612552D01*
X121103846Y-147590471D01*
X121103846Y-147674184D01*
X121109018Y-147731150D01*
X121129277Y-147779189D01*
X121171738Y-147834346D01*
X121178049Y-147841514D01*
X121225280Y-147890585D01*
X121265879Y-147916920D01*
X121316672Y-147929035D01*
X121358780Y-147933003D01*
X121434098Y-147933991D01*
X121487714Y-147921466D01*
X121521162Y-147902869D01*
X121573732Y-147861975D01*
X121610121Y-147817748D01*
X121633150Y-147762126D01*
X121645641Y-147687047D01*
X121650413Y-147584449D01*
X121650794Y-147532376D01*
X121649499Y-147469948D01*
X121531529Y-147469948D01*
X121530161Y-147503438D01*
X121526751Y-147508923D01*
X121504247Y-147501472D01*
X121455818Y-147481753D01*
X121391092Y-147453718D01*
X121377557Y-147447692D01*
X121295756Y-147406096D01*
X121250688Y-147369538D01*
X121240783Y-147335296D01*
X121264474Y-147300648D01*
X121284040Y-147285339D01*
X121354640Y-147254721D01*
X121420720Y-147259780D01*
X121476041Y-147297151D01*
X121514364Y-147363473D01*
X121526651Y-147416116D01*
X121531529Y-147469948D01*
X121649499Y-147469948D01*
X121648270Y-147410720D01*
X121638968Y-147320710D01*
X121620540Y-147255167D01*
X121590640Y-147206912D01*
X121546920Y-147168767D01*
X121527859Y-147156440D01*
X121441274Y-147124336D01*
X121346478Y-147122316D01*
X121254776Y-147147838D01*
G36*
X121929193Y-147136782D02*
G01*
X121905839Y-147146988D01*
X121850098Y-147191134D01*
X121802431Y-147254967D01*
X121772952Y-147323087D01*
X121768154Y-147356670D01*
X121784240Y-147403556D01*
X121819525Y-147428365D01*
X121857356Y-147443387D01*
X121874679Y-147446155D01*
X121883114Y-147426066D01*
X121899770Y-147382351D01*
X121907077Y-147362598D01*
X121948052Y-147294271D01*
X122007378Y-147260191D01*
X122083448Y-147261239D01*
X122089082Y-147262581D01*
X122129695Y-147281836D01*
X122159552Y-147319375D01*
X122179945Y-147379809D01*
X122192164Y-147467751D01*
X122197500Y-147587813D01*
X122198000Y-147651698D01*
X122198248Y-147752403D01*
X122199874Y-147821054D01*
X122204199Y-147864673D01*
X122212546Y-147890282D01*
X122226235Y-147904903D01*
X122246589Y-147915558D01*
X122247766Y-147916095D01*
X122286962Y-147932667D01*
X122306381Y-147938769D01*
X122309365Y-147920319D01*
X122311919Y-147869323D01*
X122313860Y-147792308D01*
X122315003Y-147695805D01*
X122315231Y-147625184D01*
X122314068Y-147488525D01*
X122309521Y-147384851D01*
X122300001Y-147308108D01*
X122283919Y-147252246D01*
X122259687Y-147211212D01*
X122225714Y-147178954D01*
X122192167Y-147156440D01*
X122111501Y-147126476D01*
X122017619Y-147119718D01*
X121929193Y-147136782D01*
G37*
X121929193Y-147136782D02*
X121905839Y-147146988D01*
X121850098Y-147191134D01*
X121802431Y-147254967D01*
X121772952Y-147323087D01*
X121768154Y-147356670D01*
X121784240Y-147403556D01*
X121819525Y-147428365D01*
X121857356Y-147443387D01*
X121874679Y-147446155D01*
X121883114Y-147426066D01*
X121899770Y-147382351D01*
X121907077Y-147362598D01*
X121948052Y-147294271D01*
X122007378Y-147260191D01*
X122083448Y-147261239D01*
X122089082Y-147262581D01*
X122129695Y-147281836D01*
X122159552Y-147319375D01*
X122179945Y-147379809D01*
X122192164Y-147467751D01*
X122197500Y-147587813D01*
X122198000Y-147651698D01*
X122198248Y-147752403D01*
X122199874Y-147821054D01*
X122204199Y-147864673D01*
X122212546Y-147890282D01*
X122226235Y-147904903D01*
X122246589Y-147915558D01*
X122247766Y-147916095D01*
X122286962Y-147932667D01*
X122306381Y-147938769D01*
X122309365Y-147920319D01*
X122311919Y-147869323D01*
X122313860Y-147792308D01*
X122315003Y-147695805D01*
X122315231Y-147625184D01*
X122314068Y-147488525D01*
X122309521Y-147384851D01*
X122300001Y-147308108D01*
X122283919Y-147252246D01*
X122259687Y-147211212D01*
X122225714Y-147178954D01*
X122192167Y-147156440D01*
X122111501Y-147126476D01*
X122017619Y-147119718D01*
X121929193Y-147136782D01*
G36*
X122612667Y-147133528D02*
G01*
X122556410Y-147159117D01*
X122512253Y-147190124D01*
X122479899Y-147224795D01*
X122457562Y-147269520D01*
X122443454Y-147330692D01*
X122435789Y-147414701D01*
X122432780Y-147527940D01*
X122432462Y-147602509D01*
X122432462Y-147893420D01*
X122482227Y-147916095D01*
X122521424Y-147932667D01*
X122540843Y-147938769D01*
X122544558Y-147920610D01*
X122547505Y-147871648D01*
X122549309Y-147800153D01*
X122549692Y-147743385D01*
X122551339Y-147661371D01*
X122555778Y-147596309D01*
X122562260Y-147556467D01*
X122567410Y-147548000D01*
X122602023Y-147556646D01*
X122656360Y-147578823D01*
X122719278Y-147608886D01*
X122779632Y-147641192D01*
X122826279Y-147670098D01*
X122848074Y-147689961D01*
X122848161Y-147690175D01*
X122846286Y-147726935D01*
X122829475Y-147762026D01*
X122799961Y-147790528D01*
X122756884Y-147800061D01*
X122720068Y-147798950D01*
X122667926Y-147798133D01*
X122640556Y-147810349D01*
X122624118Y-147842624D01*
X122622045Y-147848710D01*
X122614919Y-147894739D01*
X122633976Y-147922687D01*
X122683647Y-147936007D01*
X122737303Y-147938470D01*
X122833858Y-147920210D01*
X122883841Y-147894131D01*
X122945571Y-147832868D01*
X122978310Y-147757670D01*
X122981247Y-147678211D01*
X122953576Y-147604167D01*
X122911953Y-147557769D01*
X122870396Y-147531793D01*
X122805078Y-147498907D01*
X122728962Y-147465557D01*
X122716274Y-147460461D01*
X122632667Y-147423565D01*
X122584470Y-147391046D01*
X122568970Y-147358718D01*
X122583450Y-147322394D01*
X122608308Y-147294000D01*
X122667061Y-147259039D01*
X122731707Y-147256417D01*
X122790992Y-147283358D01*
X122833661Y-147337088D01*
X122839261Y-147350950D01*
X122871867Y-147401936D01*
X122919470Y-147439787D01*
X122979539Y-147470850D01*
X122979539Y-147382768D01*
X122976003Y-147328951D01*
X122960844Y-147286534D01*
X122927232Y-147241279D01*
X122894965Y-147206420D01*
X122844791Y-147157062D01*
X122805807Y-147130547D01*
X122763936Y-147119911D01*
X122716540Y-147118154D01*
X122612667Y-147133528D01*
G37*
X122612667Y-147133528D02*
X122556410Y-147159117D01*
X122512253Y-147190124D01*
X122479899Y-147224795D01*
X122457562Y-147269520D01*
X122443454Y-147330692D01*
X122435789Y-147414701D01*
X122432780Y-147527940D01*
X122432462Y-147602509D01*
X122432462Y-147893420D01*
X122482227Y-147916095D01*
X122521424Y-147932667D01*
X122540843Y-147938769D01*
X122544558Y-147920610D01*
X122547505Y-147871648D01*
X122549309Y-147800153D01*
X122549692Y-147743385D01*
X122551339Y-147661371D01*
X122555778Y-147596309D01*
X122562260Y-147556467D01*
X122567410Y-147548000D01*
X122602023Y-147556646D01*
X122656360Y-147578823D01*
X122719278Y-147608886D01*
X122779632Y-147641192D01*
X122826279Y-147670098D01*
X122848074Y-147689961D01*
X122848161Y-147690175D01*
X122846286Y-147726935D01*
X122829475Y-147762026D01*
X122799961Y-147790528D01*
X122756884Y-147800061D01*
X122720068Y-147798950D01*
X122667926Y-147798133D01*
X122640556Y-147810349D01*
X122624118Y-147842624D01*
X122622045Y-147848710D01*
X122614919Y-147894739D01*
X122633976Y-147922687D01*
X122683647Y-147936007D01*
X122737303Y-147938470D01*
X122833858Y-147920210D01*
X122883841Y-147894131D01*
X122945571Y-147832868D01*
X122978310Y-147757670D01*
X122981247Y-147678211D01*
X122953576Y-147604167D01*
X122911953Y-147557769D01*
X122870396Y-147531793D01*
X122805078Y-147498907D01*
X122728962Y-147465557D01*
X122716274Y-147460461D01*
X122632667Y-147423565D01*
X122584470Y-147391046D01*
X122568970Y-147358718D01*
X122583450Y-147322394D01*
X122608308Y-147294000D01*
X122667061Y-147259039D01*
X122731707Y-147256417D01*
X122790992Y-147283358D01*
X122833661Y-147337088D01*
X122839261Y-147350950D01*
X122871867Y-147401936D01*
X122919470Y-147439787D01*
X122979539Y-147470850D01*
X122979539Y-147382768D01*
X122976003Y-147328951D01*
X122960844Y-147286534D01*
X122927232Y-147241279D01*
X122894965Y-147206420D01*
X122844791Y-147157062D01*
X122805807Y-147130547D01*
X122763936Y-147119911D01*
X122716540Y-147118154D01*
X122612667Y-147133528D01*
G36*
X123104071Y-147136662D02*
G01*
X123101089Y-147188068D01*
X123098753Y-147266192D01*
X123097251Y-147364857D01*
X123096769Y-147468343D01*
X123096769Y-147818533D01*
X123158599Y-147880363D01*
X123201207Y-147918462D01*
X123238610Y-147933895D01*
X123289730Y-147932918D01*
X123310022Y-147930433D01*
X123373446Y-147923200D01*
X123425905Y-147919055D01*
X123438692Y-147918672D01*
X123481801Y-147921176D01*
X123543456Y-147927462D01*
X123567362Y-147930433D01*
X123626078Y-147935028D01*
X123665536Y-147925046D01*
X123704662Y-147894228D01*
X123718785Y-147880363D01*
X123780615Y-147818533D01*
X123780615Y-147163503D01*
X123730850Y-147140829D01*
X123687998Y-147124034D01*
X123662927Y-147118154D01*
X123656499Y-147136736D01*
X123650491Y-147188655D01*
X123645303Y-147268172D01*
X123641336Y-147369546D01*
X123639423Y-147455192D01*
X123634077Y-147792231D01*
X123587440Y-147798825D01*
X123545024Y-147794214D01*
X123524240Y-147779287D01*
X123518430Y-147751377D01*
X123513470Y-147691925D01*
X123509754Y-147608466D01*
X123507676Y-147508532D01*
X123507376Y-147457104D01*
X123507077Y-147161054D01*
X123445546Y-147139604D01*
X123401996Y-147125020D01*
X123378306Y-147118219D01*
X123377623Y-147118154D01*
X123375246Y-147136642D01*
X123372634Y-147187906D01*
X123370005Y-147265649D01*
X123367579Y-147363574D01*
X123365885Y-147455192D01*
X123360539Y-147792231D01*
X123243308Y-147792231D01*
X123237928Y-147484746D01*
X123232549Y-147177261D01*
X123175399Y-147147707D01*
X123133203Y-147127413D01*
X123108230Y-147118204D01*
X123107509Y-147118154D01*
X123104071Y-147136662D01*
G37*
X123104071Y-147136662D02*
X123101089Y-147188068D01*
X123098753Y-147266192D01*
X123097251Y-147364857D01*
X123096769Y-147468343D01*
X123096769Y-147818533D01*
X123158599Y-147880363D01*
X123201207Y-147918462D01*
X123238610Y-147933895D01*
X123289730Y-147932918D01*
X123310022Y-147930433D01*
X123373446Y-147923200D01*
X123425905Y-147919055D01*
X123438692Y-147918672D01*
X123481801Y-147921176D01*
X123543456Y-147927462D01*
X123567362Y-147930433D01*
X123626078Y-147935028D01*
X123665536Y-147925046D01*
X123704662Y-147894228D01*
X123718785Y-147880363D01*
X123780615Y-147818533D01*
X123780615Y-147163503D01*
X123730850Y-147140829D01*
X123687998Y-147124034D01*
X123662927Y-147118154D01*
X123656499Y-147136736D01*
X123650491Y-147188655D01*
X123645303Y-147268172D01*
X123641336Y-147369546D01*
X123639423Y-147455192D01*
X123634077Y-147792231D01*
X123587440Y-147798825D01*
X123545024Y-147794214D01*
X123524240Y-147779287D01*
X123518430Y-147751377D01*
X123513470Y-147691925D01*
X123509754Y-147608466D01*
X123507676Y-147508532D01*
X123507376Y-147457104D01*
X123507077Y-147161054D01*
X123445546Y-147139604D01*
X123401996Y-147125020D01*
X123378306Y-147118219D01*
X123377623Y-147118154D01*
X123375246Y-147136642D01*
X123372634Y-147187906D01*
X123370005Y-147265649D01*
X123367579Y-147363574D01*
X123365885Y-147455192D01*
X123360539Y-147792231D01*
X123243308Y-147792231D01*
X123237928Y-147484746D01*
X123232549Y-147177261D01*
X123175399Y-147147707D01*
X123133203Y-147127413D01*
X123108230Y-147118204D01*
X123107509Y-147118154D01*
X123104071Y-147136662D01*
G36*
X123897919Y-147280289D02*
G01*
X123898167Y-147426320D01*
X123899128Y-147538655D01*
X123901206Y-147622678D01*
X123904807Y-147683769D01*
X123910335Y-147727309D01*
X123918196Y-147758679D01*
X123928793Y-147783262D01*
X123936818Y-147797294D01*
X124003272Y-147873388D01*
X124087530Y-147921084D01*
X124180751Y-147938199D01*
X124274100Y-147922546D01*
X124329688Y-147894418D01*
X124388043Y-147845760D01*
X124427814Y-147786333D01*
X124451810Y-147708507D01*
X124462839Y-147604652D01*
X124464401Y-147528462D01*
X124464191Y-147522986D01*
X124327692Y-147522986D01*
X124326859Y-147610355D01*
X124323039Y-147668192D01*
X124314254Y-147706029D01*
X124298526Y-147733398D01*
X124279734Y-147754042D01*
X124216625Y-147793890D01*
X124148863Y-147797295D01*
X124084821Y-147764025D01*
X124079836Y-147759517D01*
X124058561Y-147736067D01*
X124045221Y-147708166D01*
X124037999Y-147666641D01*
X124035077Y-147602316D01*
X124034615Y-147531200D01*
X124035617Y-147441858D01*
X124039762Y-147382258D01*
X124048764Y-147343089D01*
X124064333Y-147315040D01*
X124077098Y-147300144D01*
X124136400Y-147262575D01*
X124204699Y-147258057D01*
X124269890Y-147286753D01*
X124282472Y-147297406D01*
X124303889Y-147321063D01*
X124317256Y-147349251D01*
X124324434Y-147391245D01*
X124327281Y-147456319D01*
X124327692Y-147522986D01*
X124464191Y-147522986D01*
X124459678Y-147405765D01*
X124443638Y-147313577D01*
X124413472Y-147244269D01*
X124366371Y-147190211D01*
X124329688Y-147162505D01*
X124263010Y-147132572D01*
X124185728Y-147118678D01*
X124113890Y-147122397D01*
X124073692Y-147137400D01*
X124057918Y-147141670D01*
X124047450Y-147125750D01*
X124040144Y-147083089D01*
X124034615Y-147018106D01*
X124028563Y-146945732D01*
X124020156Y-146902187D01*
X124004859Y-146877287D01*
X123978136Y-146860845D01*
X123961346Y-146853564D01*
X123897846Y-146826963D01*
X123897919Y-147280289D01*
G37*
X123897919Y-147280289D02*
X123898167Y-147426320D01*
X123899128Y-147538655D01*
X123901206Y-147622678D01*
X123904807Y-147683769D01*
X123910335Y-147727309D01*
X123918196Y-147758679D01*
X123928793Y-147783262D01*
X123936818Y-147797294D01*
X124003272Y-147873388D01*
X124087530Y-147921084D01*
X124180751Y-147938199D01*
X124274100Y-147922546D01*
X124329688Y-147894418D01*
X124388043Y-147845760D01*
X124427814Y-147786333D01*
X124451810Y-147708507D01*
X124462839Y-147604652D01*
X124464401Y-147528462D01*
X124464191Y-147522986D01*
X124327692Y-147522986D01*
X124326859Y-147610355D01*
X124323039Y-147668192D01*
X124314254Y-147706029D01*
X124298526Y-147733398D01*
X124279734Y-147754042D01*
X124216625Y-147793890D01*
X124148863Y-147797295D01*
X124084821Y-147764025D01*
X124079836Y-147759517D01*
X124058561Y-147736067D01*
X124045221Y-147708166D01*
X124037999Y-147666641D01*
X124035077Y-147602316D01*
X124034615Y-147531200D01*
X124035617Y-147441858D01*
X124039762Y-147382258D01*
X124048764Y-147343089D01*
X124064333Y-147315040D01*
X124077098Y-147300144D01*
X124136400Y-147262575D01*
X124204699Y-147258057D01*
X124269890Y-147286753D01*
X124282472Y-147297406D01*
X124303889Y-147321063D01*
X124317256Y-147349251D01*
X124324434Y-147391245D01*
X124327281Y-147456319D01*
X124327692Y-147522986D01*
X124464191Y-147522986D01*
X124459678Y-147405765D01*
X124443638Y-147313577D01*
X124413472Y-147244269D01*
X124366371Y-147190211D01*
X124329688Y-147162505D01*
X124263010Y-147132572D01*
X124185728Y-147118678D01*
X124113890Y-147122397D01*
X124073692Y-147137400D01*
X124057918Y-147141670D01*
X124047450Y-147125750D01*
X124040144Y-147083089D01*
X124034615Y-147018106D01*
X124028563Y-146945732D01*
X124020156Y-146902187D01*
X124004859Y-146877287D01*
X123978136Y-146860845D01*
X123961346Y-146853564D01*
X123897846Y-146826963D01*
X123897919Y-147280289D01*
G36*
X124786638Y-147124670D02*
G01*
X124697883Y-147157421D01*
X124625978Y-147215350D01*
X124597856Y-147256128D01*
X124567198Y-147330954D01*
X124567835Y-147385058D01*
X124600013Y-147421446D01*
X124611919Y-147427633D01*
X124663325Y-147446925D01*
X124689578Y-147441982D01*
X124698470Y-147409587D01*
X124698923Y-147391692D01*
X124715203Y-147325859D01*
X124757635Y-147279807D01*
X124816612Y-147257564D01*
X124882525Y-147263161D01*
X124936105Y-147292229D01*
X124954202Y-147308810D01*
X124967029Y-147328925D01*
X124975694Y-147359332D01*
X124981304Y-147406788D01*
X124984965Y-147478050D01*
X124987785Y-147579875D01*
X124988516Y-147612115D01*
X124991180Y-147722410D01*
X124994208Y-147800036D01*
X124998750Y-147851396D01*
X125005954Y-147882890D01*
X125016967Y-147900920D01*
X125032940Y-147911888D01*
X125043166Y-147916733D01*
X125086594Y-147933301D01*
X125112158Y-147938769D01*
X125120605Y-147920507D01*
X125125761Y-147865296D01*
X125127654Y-147772499D01*
X125126311Y-147641478D01*
X125125893Y-147621269D01*
X125122942Y-147501733D01*
X125119452Y-147414449D01*
X125114486Y-147352591D01*
X125107107Y-147309336D01*
X125096376Y-147277860D01*
X125081355Y-147251339D01*
X125073498Y-147239975D01*
X125028447Y-147189692D01*
X124978060Y-147150581D01*
X124971892Y-147147167D01*
X124881542Y-147120212D01*
X124786638Y-147124670D01*
G37*
X124786638Y-147124670D02*
X124697883Y-147157421D01*
X124625978Y-147215350D01*
X124597856Y-147256128D01*
X124567198Y-147330954D01*
X124567835Y-147385058D01*
X124600013Y-147421446D01*
X124611919Y-147427633D01*
X124663325Y-147446925D01*
X124689578Y-147441982D01*
X124698470Y-147409587D01*
X124698923Y-147391692D01*
X124715203Y-147325859D01*
X124757635Y-147279807D01*
X124816612Y-147257564D01*
X124882525Y-147263161D01*
X124936105Y-147292229D01*
X124954202Y-147308810D01*
X124967029Y-147328925D01*
X124975694Y-147359332D01*
X124981304Y-147406788D01*
X124984965Y-147478050D01*
X124987785Y-147579875D01*
X124988516Y-147612115D01*
X124991180Y-147722410D01*
X124994208Y-147800036D01*
X124998750Y-147851396D01*
X125005954Y-147882890D01*
X125016967Y-147900920D01*
X125032940Y-147911888D01*
X125043166Y-147916733D01*
X125086594Y-147933301D01*
X125112158Y-147938769D01*
X125120605Y-147920507D01*
X125125761Y-147865296D01*
X125127654Y-147772499D01*
X125126311Y-147641478D01*
X125125893Y-147621269D01*
X125122942Y-147501733D01*
X125119452Y-147414449D01*
X125114486Y-147352591D01*
X125107107Y-147309336D01*
X125096376Y-147277860D01*
X125081355Y-147251339D01*
X125073498Y-147239975D01*
X125028447Y-147189692D01*
X124978060Y-147150581D01*
X124971892Y-147147167D01*
X124881542Y-147120212D01*
X124786638Y-147124670D01*
G36*
X125446499Y-147126303D02*
G01*
X125369940Y-147154733D01*
X125369064Y-147155279D01*
X125321715Y-147190127D01*
X125286759Y-147230852D01*
X125262175Y-147283925D01*
X125245938Y-147355814D01*
X125236025Y-147452992D01*
X125230414Y-147581928D01*
X125229923Y-147600298D01*
X125222859Y-147877287D01*
X125282305Y-147908028D01*
X125325319Y-147928802D01*
X125351290Y-147938646D01*
X125352491Y-147938769D01*
X125356986Y-147920606D01*
X125360556Y-147871612D01*
X125362752Y-147800031D01*
X125363231Y-147742068D01*
X125363242Y-147648170D01*
X125367534Y-147589203D01*
X125382497Y-147561079D01*
X125414518Y-147559706D01*
X125469986Y-147580998D01*
X125553731Y-147620136D01*
X125615311Y-147652643D01*
X125646983Y-147680845D01*
X125656294Y-147711582D01*
X125656308Y-147713104D01*
X125640943Y-147766054D01*
X125595453Y-147794660D01*
X125525834Y-147798803D01*
X125475687Y-147798084D01*
X125449246Y-147812527D01*
X125432757Y-147847218D01*
X125423267Y-147891416D01*
X125436943Y-147916493D01*
X125442093Y-147920082D01*
X125490575Y-147934496D01*
X125558469Y-147936537D01*
X125628388Y-147926983D01*
X125677932Y-147909522D01*
X125746430Y-147851364D01*
X125785366Y-147770408D01*
X125793077Y-147707160D01*
X125787193Y-147650111D01*
X125765899Y-147603542D01*
X125723735Y-147562181D01*
X125655241Y-147520755D01*
X125554956Y-147473993D01*
X125548846Y-147471350D01*
X125458510Y-147429617D01*
X125402765Y-147395391D01*
X125378871Y-147364635D01*
X125384087Y-147333311D01*
X125415672Y-147297383D01*
X125425117Y-147289116D01*
X125488383Y-147257058D01*
X125553936Y-147258407D01*
X125611028Y-147289838D01*
X125648907Y-147348024D01*
X125652426Y-147359446D01*
X125686700Y-147414837D01*
X125730191Y-147441518D01*
X125793077Y-147467960D01*
X125793077Y-147399548D01*
X125773948Y-147300110D01*
X125717169Y-147208902D01*
X125687622Y-147178389D01*
X125620458Y-147139228D01*
X125535044Y-147121500D01*
X125446499Y-147126303D01*
G37*
X125446499Y-147126303D02*
X125369940Y-147154733D01*
X125369064Y-147155279D01*
X125321715Y-147190127D01*
X125286759Y-147230852D01*
X125262175Y-147283925D01*
X125245938Y-147355814D01*
X125236025Y-147452992D01*
X125230414Y-147581928D01*
X125229923Y-147600298D01*
X125222859Y-147877287D01*
X125282305Y-147908028D01*
X125325319Y-147928802D01*
X125351290Y-147938646D01*
X125352491Y-147938769D01*
X125356986Y-147920606D01*
X125360556Y-147871612D01*
X125362752Y-147800031D01*
X125363231Y-147742068D01*
X125363242Y-147648170D01*
X125367534Y-147589203D01*
X125382497Y-147561079D01*
X125414518Y-147559706D01*
X125469986Y-147580998D01*
X125553731Y-147620136D01*
X125615311Y-147652643D01*
X125646983Y-147680845D01*
X125656294Y-147711582D01*
X125656308Y-147713104D01*
X125640943Y-147766054D01*
X125595453Y-147794660D01*
X125525834Y-147798803D01*
X125475687Y-147798084D01*
X125449246Y-147812527D01*
X125432757Y-147847218D01*
X125423267Y-147891416D01*
X125436943Y-147916493D01*
X125442093Y-147920082D01*
X125490575Y-147934496D01*
X125558469Y-147936537D01*
X125628388Y-147926983D01*
X125677932Y-147909522D01*
X125746430Y-147851364D01*
X125785366Y-147770408D01*
X125793077Y-147707160D01*
X125787193Y-147650111D01*
X125765899Y-147603542D01*
X125723735Y-147562181D01*
X125655241Y-147520755D01*
X125554956Y-147473993D01*
X125548846Y-147471350D01*
X125458510Y-147429617D01*
X125402765Y-147395391D01*
X125378871Y-147364635D01*
X125384087Y-147333311D01*
X125415672Y-147297383D01*
X125425117Y-147289116D01*
X125488383Y-147257058D01*
X125553936Y-147258407D01*
X125611028Y-147289838D01*
X125648907Y-147348024D01*
X125652426Y-147359446D01*
X125686700Y-147414837D01*
X125730191Y-147441518D01*
X125793077Y-147467960D01*
X125793077Y-147399548D01*
X125773948Y-147300110D01*
X125717169Y-147208902D01*
X125687622Y-147178389D01*
X125620458Y-147139228D01*
X125535044Y-147121500D01*
X125446499Y-147126303D01*
G36*
X126340154Y-146992120D02*
G01*
X126334428Y-147071980D01*
X126327851Y-147119039D01*
X126318738Y-147139566D01*
X126305402Y-147139829D01*
X126301077Y-147137378D01*
X126243556Y-147119636D01*
X126168732Y-147120672D01*
X126092661Y-147138910D01*
X126045082Y-147162505D01*
X125996298Y-147200198D01*
X125960636Y-147242855D01*
X125936155Y-147297057D01*
X125920913Y-147369384D01*
X125912970Y-147466419D01*
X125910384Y-147594742D01*
X125910338Y-147619358D01*
X125910308Y-147895870D01*
X125971839Y-147917320D01*
X126015541Y-147931912D01*
X126039518Y-147938706D01*
X126040223Y-147938769D01*
X126042585Y-147920345D01*
X126044594Y-147869526D01*
X126046099Y-147792993D01*
X126046947Y-147697430D01*
X126047077Y-147639329D01*
X126047349Y-147524771D01*
X126048748Y-147442667D01*
X126052151Y-147386393D01*
X126058433Y-147349326D01*
X126068471Y-147324844D01*
X126083139Y-147306325D01*
X126092298Y-147297406D01*
X126155211Y-147261466D01*
X126223864Y-147258775D01*
X126286152Y-147289170D01*
X126297671Y-147300144D01*
X126314567Y-147320779D01*
X126326286Y-147345256D01*
X126333767Y-147380647D01*
X126337946Y-147434026D01*
X126339763Y-147512466D01*
X126340154Y-147620617D01*
X126340154Y-147895870D01*
X126401685Y-147917320D01*
X126445387Y-147931912D01*
X126469364Y-147938706D01*
X126470070Y-147938769D01*
X126471874Y-147920069D01*
X126473500Y-147867322D01*
X126474883Y-147785557D01*
X126475958Y-147679805D01*
X126476660Y-147555094D01*
X126476923Y-147416455D01*
X126476923Y-146881806D01*
X126349923Y-146828236D01*
X126340154Y-146992120D01*
G37*
X126340154Y-146992120D02*
X126334428Y-147071980D01*
X126327851Y-147119039D01*
X126318738Y-147139566D01*
X126305402Y-147139829D01*
X126301077Y-147137378D01*
X126243556Y-147119636D01*
X126168732Y-147120672D01*
X126092661Y-147138910D01*
X126045082Y-147162505D01*
X125996298Y-147200198D01*
X125960636Y-147242855D01*
X125936155Y-147297057D01*
X125920913Y-147369384D01*
X125912970Y-147466419D01*
X125910384Y-147594742D01*
X125910338Y-147619358D01*
X125910308Y-147895870D01*
X125971839Y-147917320D01*
X126015541Y-147931912D01*
X126039518Y-147938706D01*
X126040223Y-147938769D01*
X126042585Y-147920345D01*
X126044594Y-147869526D01*
X126046099Y-147792993D01*
X126046947Y-147697430D01*
X126047077Y-147639329D01*
X126047349Y-147524771D01*
X126048748Y-147442667D01*
X126052151Y-147386393D01*
X126058433Y-147349326D01*
X126068471Y-147324844D01*
X126083139Y-147306325D01*
X126092298Y-147297406D01*
X126155211Y-147261466D01*
X126223864Y-147258775D01*
X126286152Y-147289170D01*
X126297671Y-147300144D01*
X126314567Y-147320779D01*
X126326286Y-147345256D01*
X126333767Y-147380647D01*
X126337946Y-147434026D01*
X126339763Y-147512466D01*
X126340154Y-147620617D01*
X126340154Y-147895870D01*
X126401685Y-147917320D01*
X126445387Y-147931912D01*
X126469364Y-147938706D01*
X126470070Y-147938769D01*
X126471874Y-147920069D01*
X126473500Y-147867322D01*
X126474883Y-147785557D01*
X126475958Y-147679805D01*
X126476660Y-147555094D01*
X126476923Y-147416455D01*
X126476923Y-146881806D01*
X126349923Y-146828236D01*
X126340154Y-146992120D01*
G36*
X127965746Y-147099745D02*
G01*
X127888714Y-147151567D01*
X127829184Y-147226412D01*
X127793622Y-147321654D01*
X127786429Y-147391756D01*
X127787246Y-147421009D01*
X127794086Y-147443407D01*
X127812888Y-147463474D01*
X127849592Y-147485733D01*
X127910138Y-147514709D01*
X128000466Y-147554927D01*
X128000923Y-147555129D01*
X128084067Y-147593210D01*
X128152247Y-147627025D01*
X128198495Y-147652933D01*
X128215842Y-147667295D01*
X128215846Y-147667411D01*
X128200557Y-147698685D01*
X128164804Y-147733157D01*
X128123758Y-147757990D01*
X128102963Y-147762923D01*
X128046230Y-147745862D01*
X127997373Y-147703133D01*
X127973535Y-147656155D01*
X127950603Y-147621522D01*
X127905682Y-147582081D01*
X127852877Y-147548009D01*
X127806290Y-147529480D01*
X127796548Y-147528462D01*
X127785582Y-147545215D01*
X127784921Y-147588039D01*
X127792980Y-147645781D01*
X127808173Y-147707289D01*
X127828914Y-147761409D01*
X127829962Y-147763510D01*
X127892379Y-147850660D01*
X127973274Y-147909939D01*
X128065144Y-147939034D01*
X128160487Y-147935634D01*
X128251802Y-147897428D01*
X128255862Y-147894741D01*
X128327694Y-147829642D01*
X128374927Y-147744705D01*
X128401066Y-147633021D01*
X128404574Y-147601643D01*
X128410787Y-147453536D01*
X128403339Y-147384468D01*
X128215846Y-147384468D01*
X128213410Y-147427552D01*
X128200086Y-147440126D01*
X128166868Y-147430719D01*
X128114506Y-147408483D01*
X128055976Y-147380610D01*
X128054521Y-147379872D01*
X128004911Y-147353777D01*
X127985000Y-147336363D01*
X127989910Y-147318107D01*
X128010584Y-147294120D01*
X128063181Y-147259406D01*
X128119823Y-147256856D01*
X128170631Y-147282119D01*
X128205724Y-147330847D01*
X128215846Y-147384468D01*
X128403339Y-147384468D01*
X128398008Y-147335036D01*
X128365222Y-147241055D01*
X128319579Y-147175215D01*
X128237198Y-147108681D01*
X128146454Y-147075676D01*
X128053815Y-147073573D01*
X127965746Y-147099745D01*
G37*
X127965746Y-147099745D02*
X127888714Y-147151567D01*
X127829184Y-147226412D01*
X127793622Y-147321654D01*
X127786429Y-147391756D01*
X127787246Y-147421009D01*
X127794086Y-147443407D01*
X127812888Y-147463474D01*
X127849592Y-147485733D01*
X127910138Y-147514709D01*
X128000466Y-147554927D01*
X128000923Y-147555129D01*
X128084067Y-147593210D01*
X128152247Y-147627025D01*
X128198495Y-147652933D01*
X128215842Y-147667295D01*
X128215846Y-147667411D01*
X128200557Y-147698685D01*
X128164804Y-147733157D01*
X128123758Y-147757990D01*
X128102963Y-147762923D01*
X128046230Y-147745862D01*
X127997373Y-147703133D01*
X127973535Y-147656155D01*
X127950603Y-147621522D01*
X127905682Y-147582081D01*
X127852877Y-147548009D01*
X127806290Y-147529480D01*
X127796548Y-147528462D01*
X127785582Y-147545215D01*
X127784921Y-147588039D01*
X127792980Y-147645781D01*
X127808173Y-147707289D01*
X127828914Y-147761409D01*
X127829962Y-147763510D01*
X127892379Y-147850660D01*
X127973274Y-147909939D01*
X128065144Y-147939034D01*
X128160487Y-147935634D01*
X128251802Y-147897428D01*
X128255862Y-147894741D01*
X128327694Y-147829642D01*
X128374927Y-147744705D01*
X128401066Y-147633021D01*
X128404574Y-147601643D01*
X128410787Y-147453536D01*
X128403339Y-147384468D01*
X128215846Y-147384468D01*
X128213410Y-147427552D01*
X128200086Y-147440126D01*
X128166868Y-147430719D01*
X128114506Y-147408483D01*
X128055976Y-147380610D01*
X128054521Y-147379872D01*
X128004911Y-147353777D01*
X127985000Y-147336363D01*
X127989910Y-147318107D01*
X128010584Y-147294120D01*
X128063181Y-147259406D01*
X128119823Y-147256856D01*
X128170631Y-147282119D01*
X128205724Y-147330847D01*
X128215846Y-147384468D01*
X128403339Y-147384468D01*
X128398008Y-147335036D01*
X128365222Y-147241055D01*
X128319579Y-147175215D01*
X128237198Y-147108681D01*
X128146454Y-147075676D01*
X128053815Y-147073573D01*
X127965746Y-147099745D01*
G36*
X129483114Y-147087256D02*
G01*
X129391536Y-147135409D01*
X129323951Y-147212905D01*
X129299943Y-147262727D01*
X129281262Y-147337533D01*
X129271699Y-147432052D01*
X129270792Y-147535210D01*
X129278079Y-147635935D01*
X129293097Y-147723153D01*
X129315385Y-147785791D01*
X129322235Y-147796579D01*
X129403368Y-147877105D01*
X129499734Y-147925336D01*
X129604299Y-147939450D01*
X129710032Y-147917629D01*
X129739457Y-147904547D01*
X129796759Y-147864231D01*
X129847050Y-147810775D01*
X129851803Y-147803995D01*
X129871122Y-147771321D01*
X129883892Y-147736394D01*
X129891436Y-147690414D01*
X129895076Y-147624584D01*
X129896135Y-147530105D01*
X129896154Y-147508923D01*
X129896106Y-147502182D01*
X129700769Y-147502182D01*
X129699632Y-147591349D01*
X129695159Y-147650520D01*
X129685754Y-147688741D01*
X129669824Y-147715053D01*
X129661692Y-147723846D01*
X129614942Y-147757261D01*
X129569553Y-147755737D01*
X129523660Y-147726752D01*
X129496288Y-147695809D01*
X129480077Y-147650643D01*
X129470974Y-147579420D01*
X129470349Y-147571114D01*
X129468796Y-147442037D01*
X129485035Y-147346172D01*
X129518848Y-147284107D01*
X129570016Y-147256432D01*
X129588280Y-147254923D01*
X129636240Y-147262513D01*
X129669047Y-147288808D01*
X129689105Y-147339095D01*
X129698822Y-147418664D01*
X129700769Y-147502182D01*
X129896106Y-147502182D01*
X129895426Y-147408249D01*
X129892371Y-147337906D01*
X129885678Y-147289163D01*
X129874040Y-147253288D01*
X129856147Y-147221548D01*
X129852192Y-147215648D01*
X129785733Y-147136104D01*
X129713315Y-147089929D01*
X129625151Y-147071599D01*
X129595213Y-147070703D01*
X129483114Y-147087256D01*
G37*
X129483114Y-147087256D02*
X129391536Y-147135409D01*
X129323951Y-147212905D01*
X129299943Y-147262727D01*
X129281262Y-147337533D01*
X129271699Y-147432052D01*
X129270792Y-147535210D01*
X129278079Y-147635935D01*
X129293097Y-147723153D01*
X129315385Y-147785791D01*
X129322235Y-147796579D01*
X129403368Y-147877105D01*
X129499734Y-147925336D01*
X129604299Y-147939450D01*
X129710032Y-147917629D01*
X129739457Y-147904547D01*
X129796759Y-147864231D01*
X129847050Y-147810775D01*
X129851803Y-147803995D01*
X129871122Y-147771321D01*
X129883892Y-147736394D01*
X129891436Y-147690414D01*
X129895076Y-147624584D01*
X129896135Y-147530105D01*
X129896154Y-147508923D01*
X129896106Y-147502182D01*
X129700769Y-147502182D01*
X129699632Y-147591349D01*
X129695159Y-147650520D01*
X129685754Y-147688741D01*
X129669824Y-147715053D01*
X129661692Y-147723846D01*
X129614942Y-147757261D01*
X129569553Y-147755737D01*
X129523660Y-147726752D01*
X129496288Y-147695809D01*
X129480077Y-147650643D01*
X129470974Y-147579420D01*
X129470349Y-147571114D01*
X129468796Y-147442037D01*
X129485035Y-147346172D01*
X129518848Y-147284107D01*
X129570016Y-147256432D01*
X129588280Y-147254923D01*
X129636240Y-147262513D01*
X129669047Y-147288808D01*
X129689105Y-147339095D01*
X129698822Y-147418664D01*
X129700769Y-147502182D01*
X129896106Y-147502182D01*
X129895426Y-147408249D01*
X129892371Y-147337906D01*
X129885678Y-147289163D01*
X129874040Y-147253288D01*
X129856147Y-147221548D01*
X129852192Y-147215648D01*
X129785733Y-147136104D01*
X129713315Y-147089929D01*
X129625151Y-147071599D01*
X129595213Y-147070703D01*
X129483114Y-147087256D01*
G36*
X127228336Y-147095089D02*
G01*
X127165633Y-147131358D01*
X127122039Y-147167358D01*
X127090155Y-147205075D01*
X127068190Y-147251199D01*
X127054351Y-147312421D01*
X127046847Y-147395431D01*
X127043883Y-147506919D01*
X127043539Y-147587062D01*
X127043539Y-147882065D01*
X127209615Y-147956515D01*
X127219385Y-147633402D01*
X127223421Y-147512729D01*
X127227656Y-147425141D01*
X127232903Y-147364650D01*
X127239975Y-147325268D01*
X127249689Y-147301007D01*
X127262856Y-147285880D01*
X127267081Y-147282606D01*
X127331091Y-147257034D01*
X127395792Y-147267153D01*
X127434308Y-147294000D01*
X127449975Y-147313024D01*
X127460820Y-147337988D01*
X127467712Y-147375834D01*
X127471521Y-147433502D01*
X127473117Y-147517935D01*
X127473385Y-147605928D01*
X127473437Y-147716323D01*
X127475328Y-147794463D01*
X127481655Y-147847165D01*
X127495017Y-147881242D01*
X127518015Y-147903511D01*
X127553246Y-147920787D01*
X127600303Y-147938738D01*
X127651697Y-147958278D01*
X127645579Y-147611485D01*
X127643116Y-147486468D01*
X127640233Y-147394082D01*
X127636102Y-147327881D01*
X127629893Y-147281420D01*
X127620774Y-147248256D01*
X127607917Y-147221944D01*
X127592416Y-147198729D01*
X127517629Y-147124569D01*
X127426372Y-147081684D01*
X127327117Y-147071412D01*
X127228336Y-147095089D01*
G37*
X127228336Y-147095089D02*
X127165633Y-147131358D01*
X127122039Y-147167358D01*
X127090155Y-147205075D01*
X127068190Y-147251199D01*
X127054351Y-147312421D01*
X127046847Y-147395431D01*
X127043883Y-147506919D01*
X127043539Y-147587062D01*
X127043539Y-147882065D01*
X127209615Y-147956515D01*
X127219385Y-147633402D01*
X127223421Y-147512729D01*
X127227656Y-147425141D01*
X127232903Y-147364650D01*
X127239975Y-147325268D01*
X127249689Y-147301007D01*
X127262856Y-147285880D01*
X127267081Y-147282606D01*
X127331091Y-147257034D01*
X127395792Y-147267153D01*
X127434308Y-147294000D01*
X127449975Y-147313024D01*
X127460820Y-147337988D01*
X127467712Y-147375834D01*
X127471521Y-147433502D01*
X127473117Y-147517935D01*
X127473385Y-147605928D01*
X127473437Y-147716323D01*
X127475328Y-147794463D01*
X127481655Y-147847165D01*
X127495017Y-147881242D01*
X127518015Y-147903511D01*
X127553246Y-147920787D01*
X127600303Y-147938738D01*
X127651697Y-147958278D01*
X127645579Y-147611485D01*
X127643116Y-147486468D01*
X127640233Y-147394082D01*
X127636102Y-147327881D01*
X127629893Y-147281420D01*
X127620774Y-147248256D01*
X127607917Y-147221944D01*
X127592416Y-147198729D01*
X127517629Y-147124569D01*
X127426372Y-147081684D01*
X127327117Y-147071412D01*
X127228336Y-147095089D01*
G36*
X128731114Y-147084505D02*
G01*
X128656461Y-147121727D01*
X128590569Y-147190261D01*
X128572423Y-147215648D01*
X128552655Y-147248866D01*
X128539828Y-147284945D01*
X128532490Y-147333098D01*
X128529187Y-147402536D01*
X128528462Y-147494206D01*
X128531737Y-147619830D01*
X128543123Y-147714154D01*
X128564959Y-147784523D01*
X128599581Y-147838286D01*
X128649330Y-147882788D01*
X128652986Y-147885423D01*
X128702015Y-147912377D01*
X128761055Y-147925712D01*
X128836141Y-147929000D01*
X128958205Y-147929000D01*
X128958256Y-148047497D01*
X128959392Y-148113492D01*
X128966314Y-148152202D01*
X128984402Y-148175419D01*
X129019038Y-148194933D01*
X129027355Y-148198920D01*
X129066280Y-148217603D01*
X129096417Y-148229403D01*
X129118826Y-148230422D01*
X129134567Y-148216761D01*
X129144698Y-148184522D01*
X129150277Y-148129804D01*
X129152365Y-148048711D01*
X129152019Y-147937344D01*
X129150300Y-147791802D01*
X129149763Y-147748269D01*
X129147828Y-147598205D01*
X129146096Y-147500042D01*
X128958308Y-147500042D01*
X128957252Y-147583364D01*
X128952562Y-147637880D01*
X128941949Y-147673837D01*
X128923128Y-147701482D01*
X128910350Y-147714965D01*
X128858110Y-147754417D01*
X128811858Y-147757628D01*
X128764133Y-147725049D01*
X128762923Y-147723846D01*
X128743506Y-147698668D01*
X128731693Y-147664447D01*
X128725735Y-147611748D01*
X128723880Y-147531131D01*
X128723846Y-147513271D01*
X128728330Y-147402175D01*
X128742926Y-147325161D01*
X128769350Y-147278147D01*
X128809317Y-147257050D01*
X128832416Y-147254923D01*
X128887238Y-147264900D01*
X128924842Y-147297752D01*
X128947477Y-147357857D01*
X128957394Y-147449598D01*
X128958308Y-147500042D01*
X129146096Y-147500042D01*
X129145778Y-147482060D01*
X129143127Y-147394679D01*
X129139394Y-147330905D01*
X129134093Y-147285582D01*
X129126742Y-147253555D01*
X129116857Y-147229668D01*
X129103954Y-147208764D01*
X129098421Y-147200898D01*
X129025031Y-147126595D01*
X128932240Y-147084467D01*
X128824904Y-147072722D01*
X128731114Y-147084505D01*
G37*
X128731114Y-147084505D02*
X128656461Y-147121727D01*
X128590569Y-147190261D01*
X128572423Y-147215648D01*
X128552655Y-147248866D01*
X128539828Y-147284945D01*
X128532490Y-147333098D01*
X128529187Y-147402536D01*
X128528462Y-147494206D01*
X128531737Y-147619830D01*
X128543123Y-147714154D01*
X128564959Y-147784523D01*
X128599581Y-147838286D01*
X128649330Y-147882788D01*
X128652986Y-147885423D01*
X128702015Y-147912377D01*
X128761055Y-147925712D01*
X128836141Y-147929000D01*
X128958205Y-147929000D01*
X128958256Y-148047497D01*
X128959392Y-148113492D01*
X128966314Y-148152202D01*
X128984402Y-148175419D01*
X129019038Y-148194933D01*
X129027355Y-148198920D01*
X129066280Y-148217603D01*
X129096417Y-148229403D01*
X129118826Y-148230422D01*
X129134567Y-148216761D01*
X129144698Y-148184522D01*
X129150277Y-148129804D01*
X129152365Y-148048711D01*
X129152019Y-147937344D01*
X129150300Y-147791802D01*
X129149763Y-147748269D01*
X129147828Y-147598205D01*
X129146096Y-147500042D01*
X128958308Y-147500042D01*
X128957252Y-147583364D01*
X128952562Y-147637880D01*
X128941949Y-147673837D01*
X128923128Y-147701482D01*
X128910350Y-147714965D01*
X128858110Y-147754417D01*
X128811858Y-147757628D01*
X128764133Y-147725049D01*
X128762923Y-147723846D01*
X128743506Y-147698668D01*
X128731693Y-147664447D01*
X128725735Y-147611748D01*
X128723880Y-147531131D01*
X128723846Y-147513271D01*
X128728330Y-147402175D01*
X128742926Y-147325161D01*
X128769350Y-147278147D01*
X128809317Y-147257050D01*
X128832416Y-147254923D01*
X128887238Y-147264900D01*
X128924842Y-147297752D01*
X128947477Y-147357857D01*
X128957394Y-147449598D01*
X128958308Y-147500042D01*
X129146096Y-147500042D01*
X129145778Y-147482060D01*
X129143127Y-147394679D01*
X129139394Y-147330905D01*
X129134093Y-147285582D01*
X129126742Y-147253555D01*
X129116857Y-147229668D01*
X129103954Y-147208764D01*
X129098421Y-147200898D01*
X129025031Y-147126595D01*
X128932240Y-147084467D01*
X128824904Y-147072722D01*
X128731114Y-147084505D01*
G36*
X95974708Y-147606409D02*
G01*
X95922143Y-147606944D01*
X95768119Y-147610660D01*
X95639125Y-147621699D01*
X95530763Y-147641246D01*
X95438638Y-147670483D01*
X95358353Y-147710597D01*
X95285512Y-147762769D01*
X95259495Y-147785433D01*
X95216337Y-147838462D01*
X95177421Y-147910421D01*
X95147427Y-147990184D01*
X95131035Y-148066625D01*
X95129332Y-148094872D01*
X95140005Y-148173174D01*
X95168607Y-148258705D01*
X95210011Y-148339663D01*
X95259095Y-148404246D01*
X95267067Y-148412038D01*
X95334600Y-148466808D01*
X95408552Y-148509563D01*
X95493188Y-148541423D01*
X95592771Y-148563508D01*
X95711566Y-148576938D01*
X95853834Y-148582834D01*
X95919000Y-148583334D01*
X96001855Y-148582935D01*
X96060123Y-148581266D01*
X96099270Y-148577622D01*
X96124763Y-148571293D01*
X96142068Y-148561574D01*
X96151344Y-148553274D01*
X96160106Y-148543192D01*
X96166979Y-148530185D01*
X96172192Y-148510769D01*
X96175973Y-148481460D01*
X96178551Y-148438773D01*
X96180154Y-148379225D01*
X96181011Y-148299330D01*
X96181351Y-148195605D01*
X96181403Y-148094872D01*
X96181734Y-147960519D01*
X96181662Y-147853192D01*
X96180384Y-147801795D01*
X95986019Y-147801795D01*
X95986019Y-148387949D01*
X95862025Y-148387835D01*
X95787415Y-148385696D01*
X95709272Y-148380183D01*
X95644074Y-148372472D01*
X95642090Y-148372155D01*
X95536717Y-148346678D01*
X95454986Y-148307000D01*
X95392816Y-148250538D01*
X95353314Y-148189406D01*
X95328974Y-148121593D01*
X95330861Y-148057919D01*
X95359109Y-147989665D01*
X95414362Y-147919056D01*
X95490927Y-147866735D01*
X95590449Y-147831763D01*
X95656961Y-147819386D01*
X95732461Y-147810694D01*
X95812479Y-147804404D01*
X95880538Y-147801788D01*
X95884569Y-147801776D01*
X95986019Y-147801795D01*
X96180384Y-147801795D01*
X96179590Y-147769881D01*
X96173915Y-147707579D01*
X96163041Y-147663275D01*
X96145368Y-147633960D01*
X96119297Y-147616625D01*
X96083229Y-147608261D01*
X96035566Y-147605859D01*
X95974708Y-147606409D01*
G37*
X95974708Y-147606409D02*
X95922143Y-147606944D01*
X95768119Y-147610660D01*
X95639125Y-147621699D01*
X95530763Y-147641246D01*
X95438638Y-147670483D01*
X95358353Y-147710597D01*
X95285512Y-147762769D01*
X95259495Y-147785433D01*
X95216337Y-147838462D01*
X95177421Y-147910421D01*
X95147427Y-147990184D01*
X95131035Y-148066625D01*
X95129332Y-148094872D01*
X95140005Y-148173174D01*
X95168607Y-148258705D01*
X95210011Y-148339663D01*
X95259095Y-148404246D01*
X95267067Y-148412038D01*
X95334600Y-148466808D01*
X95408552Y-148509563D01*
X95493188Y-148541423D01*
X95592771Y-148563508D01*
X95711566Y-148576938D01*
X95853834Y-148582834D01*
X95919000Y-148583334D01*
X96001855Y-148582935D01*
X96060123Y-148581266D01*
X96099270Y-148577622D01*
X96124763Y-148571293D01*
X96142068Y-148561574D01*
X96151344Y-148553274D01*
X96160106Y-148543192D01*
X96166979Y-148530185D01*
X96172192Y-148510769D01*
X96175973Y-148481460D01*
X96178551Y-148438773D01*
X96180154Y-148379225D01*
X96181011Y-148299330D01*
X96181351Y-148195605D01*
X96181403Y-148094872D01*
X96181734Y-147960519D01*
X96181662Y-147853192D01*
X96180384Y-147801795D01*
X95986019Y-147801795D01*
X95986019Y-148387949D01*
X95862025Y-148387835D01*
X95787415Y-148385696D01*
X95709272Y-148380183D01*
X95644074Y-148372472D01*
X95642090Y-148372155D01*
X95536717Y-148346678D01*
X95454986Y-148307000D01*
X95392816Y-148250538D01*
X95353314Y-148189406D01*
X95328974Y-148121593D01*
X95330861Y-148057919D01*
X95359109Y-147989665D01*
X95414362Y-147919056D01*
X95490927Y-147866735D01*
X95590449Y-147831763D01*
X95656961Y-147819386D01*
X95732461Y-147810694D01*
X95812479Y-147804404D01*
X95880538Y-147801788D01*
X95884569Y-147801776D01*
X95986019Y-147801795D01*
X96180384Y-147801795D01*
X96179590Y-147769881D01*
X96173915Y-147707579D01*
X96163041Y-147663275D01*
X96145368Y-147633960D01*
X96119297Y-147616625D01*
X96083229Y-147608261D01*
X96035566Y-147605859D01*
X95974708Y-147606409D01*
G36*
X94099384Y-147606516D02*
G01*
X94006976Y-147607012D01*
X93937227Y-147608165D01*
X93886437Y-147610244D01*
X93850905Y-147613515D01*
X93826932Y-147618247D01*
X93810818Y-147624707D01*
X93798863Y-147633163D01*
X93794533Y-147637055D01*
X93768205Y-147678404D01*
X93763465Y-147725916D01*
X93780784Y-147768095D01*
X93788793Y-147776620D01*
X93801746Y-147784885D01*
X93822602Y-147791261D01*
X93855230Y-147796059D01*
X93903496Y-147799588D01*
X93971268Y-147802158D01*
X94062414Y-147804081D01*
X94145745Y-147805251D01*
X94475546Y-147809310D01*
X94484560Y-147982150D01*
X94260696Y-147982150D01*
X94163508Y-147982989D01*
X94092357Y-147986496D01*
X94043245Y-147994159D01*
X94012171Y-148007467D01*
X93995138Y-148027905D01*
X93988146Y-148056963D01*
X93987084Y-148083931D01*
X93990384Y-148117021D01*
X94002837Y-148141404D01*
X94028274Y-148158353D01*
X94070525Y-148169143D01*
X94133420Y-148175048D01*
X94220789Y-148177341D01*
X94268475Y-148177535D01*
X94483060Y-148177535D01*
X94483060Y-148387949D01*
X94152409Y-148387949D01*
X94044024Y-148388100D01*
X93961651Y-148388778D01*
X93901243Y-148390320D01*
X93858753Y-148393063D01*
X93830135Y-148397345D01*
X93811342Y-148403503D01*
X93798328Y-148411873D01*
X93791699Y-148418008D01*
X93768961Y-148453813D01*
X93761640Y-148485641D01*
X93772093Y-148524518D01*
X93791699Y-148553274D01*
X93802159Y-148562327D01*
X93815662Y-148569357D01*
X93835840Y-148574618D01*
X93866325Y-148578365D01*
X93910749Y-148580854D01*
X93972745Y-148582339D01*
X94055945Y-148583075D01*
X94163981Y-148583318D01*
X94220043Y-148583334D01*
X94340098Y-148583227D01*
X94433728Y-148582739D01*
X94504563Y-148581613D01*
X94556235Y-148579595D01*
X94592377Y-148576430D01*
X94616622Y-148571863D01*
X94632601Y-148565640D01*
X94643947Y-148557504D01*
X94648386Y-148553274D01*
X94657171Y-148543160D01*
X94664058Y-148530112D01*
X94669275Y-148510634D01*
X94673053Y-148481228D01*
X94675624Y-148438398D01*
X94677218Y-148378648D01*
X94678065Y-148298481D01*
X94678396Y-148194401D01*
X94678445Y-148097492D01*
X94678400Y-147973387D01*
X94678088Y-147875830D01*
X94677242Y-147801310D01*
X94675596Y-147746315D01*
X94672883Y-147707334D01*
X94668837Y-147680857D01*
X94663191Y-147663370D01*
X94655680Y-147651364D01*
X94646036Y-147641327D01*
X94643660Y-147639090D01*
X94632129Y-147629183D01*
X94618732Y-147621512D01*
X94599750Y-147615790D01*
X94571469Y-147611732D01*
X94530172Y-147609052D01*
X94472142Y-147607466D01*
X94393663Y-147606688D01*
X94291020Y-147606432D01*
X94218150Y-147606410D01*
X94099384Y-147606516D01*
G37*
X94099384Y-147606516D02*
X94006976Y-147607012D01*
X93937227Y-147608165D01*
X93886437Y-147610244D01*
X93850905Y-147613515D01*
X93826932Y-147618247D01*
X93810818Y-147624707D01*
X93798863Y-147633163D01*
X93794533Y-147637055D01*
X93768205Y-147678404D01*
X93763465Y-147725916D01*
X93780784Y-147768095D01*
X93788793Y-147776620D01*
X93801746Y-147784885D01*
X93822602Y-147791261D01*
X93855230Y-147796059D01*
X93903496Y-147799588D01*
X93971268Y-147802158D01*
X94062414Y-147804081D01*
X94145745Y-147805251D01*
X94475546Y-147809310D01*
X94484560Y-147982150D01*
X94260696Y-147982150D01*
X94163508Y-147982989D01*
X94092357Y-147986496D01*
X94043245Y-147994159D01*
X94012171Y-148007467D01*
X93995138Y-148027905D01*
X93988146Y-148056963D01*
X93987084Y-148083931D01*
X93990384Y-148117021D01*
X94002837Y-148141404D01*
X94028274Y-148158353D01*
X94070525Y-148169143D01*
X94133420Y-148175048D01*
X94220789Y-148177341D01*
X94268475Y-148177535D01*
X94483060Y-148177535D01*
X94483060Y-148387949D01*
X94152409Y-148387949D01*
X94044024Y-148388100D01*
X93961651Y-148388778D01*
X93901243Y-148390320D01*
X93858753Y-148393063D01*
X93830135Y-148397345D01*
X93811342Y-148403503D01*
X93798328Y-148411873D01*
X93791699Y-148418008D01*
X93768961Y-148453813D01*
X93761640Y-148485641D01*
X93772093Y-148524518D01*
X93791699Y-148553274D01*
X93802159Y-148562327D01*
X93815662Y-148569357D01*
X93835840Y-148574618D01*
X93866325Y-148578365D01*
X93910749Y-148580854D01*
X93972745Y-148582339D01*
X94055945Y-148583075D01*
X94163981Y-148583318D01*
X94220043Y-148583334D01*
X94340098Y-148583227D01*
X94433728Y-148582739D01*
X94504563Y-148581613D01*
X94556235Y-148579595D01*
X94592377Y-148576430D01*
X94616622Y-148571863D01*
X94632601Y-148565640D01*
X94643947Y-148557504D01*
X94648386Y-148553274D01*
X94657171Y-148543160D01*
X94664058Y-148530112D01*
X94669275Y-148510634D01*
X94673053Y-148481228D01*
X94675624Y-148438398D01*
X94677218Y-148378648D01*
X94678065Y-148298481D01*
X94678396Y-148194401D01*
X94678445Y-148097492D01*
X94678400Y-147973387D01*
X94678088Y-147875830D01*
X94677242Y-147801310D01*
X94675596Y-147746315D01*
X94672883Y-147707334D01*
X94668837Y-147680857D01*
X94663191Y-147663370D01*
X94655680Y-147651364D01*
X94646036Y-147641327D01*
X94643660Y-147639090D01*
X94632129Y-147629183D01*
X94618732Y-147621512D01*
X94599750Y-147615790D01*
X94571469Y-147611732D01*
X94530172Y-147609052D01*
X94472142Y-147607466D01*
X94393663Y-147606688D01*
X94291020Y-147606432D01*
X94218150Y-147606410D01*
X94099384Y-147606516D01*
G36*
X92739942Y-147608121D02*
G01*
X92640337Y-147615084D01*
X92547698Y-147625959D01*
X92467412Y-147640338D01*
X92404862Y-147657810D01*
X92365435Y-147677966D01*
X92359383Y-147683899D01*
X92338338Y-147729939D01*
X92344720Y-147777204D01*
X92377361Y-147817642D01*
X92378918Y-147818801D01*
X92398117Y-147831261D01*
X92418159Y-147837813D01*
X92446114Y-147838608D01*
X92489053Y-147833800D01*
X92554045Y-147823539D01*
X92559273Y-147822675D01*
X92656115Y-147810778D01*
X92760598Y-147804909D01*
X92865389Y-147804852D01*
X92963156Y-147810391D01*
X93046566Y-147821309D01*
X93108287Y-147837389D01*
X93112342Y-147839005D01*
X93157118Y-147864093D01*
X93172850Y-147889482D01*
X93160534Y-147914451D01*
X93121169Y-147938280D01*
X93055752Y-147960246D01*
X92965280Y-147979630D01*
X92904954Y-147988962D01*
X92779554Y-148006913D01*
X92679819Y-148023323D01*
X92601500Y-148039612D01*
X92540347Y-148057202D01*
X92492113Y-148077513D01*
X92452549Y-148101967D01*
X92417406Y-148131984D01*
X92389165Y-148161460D01*
X92355662Y-148202531D01*
X92339173Y-148237846D01*
X92334017Y-148281357D01*
X92333830Y-148297292D01*
X92337702Y-148350169D01*
X92353181Y-148389507D01*
X92379969Y-148424424D01*
X92434413Y-148477798D01*
X92495124Y-148518502D01*
X92566612Y-148547864D01*
X92653390Y-148567211D01*
X92759968Y-148577870D01*
X92890857Y-148581169D01*
X92912469Y-148581113D01*
X92999752Y-148579304D01*
X93086313Y-148575193D01*
X93162716Y-148569370D01*
X93219524Y-148562425D01*
X93224118Y-148561628D01*
X93280599Y-148548248D01*
X93328506Y-148531346D01*
X93355627Y-148515895D01*
X93380865Y-148475130D01*
X93382623Y-148427662D01*
X93360866Y-148385359D01*
X93355998Y-148380576D01*
X93335876Y-148366363D01*
X93310712Y-148360240D01*
X93271767Y-148361282D01*
X93224489Y-148366698D01*
X93171659Y-148371537D01*
X93097602Y-148375619D01*
X93011145Y-148378582D01*
X92921117Y-148380061D01*
X92897439Y-148380158D01*
X92807076Y-148379794D01*
X92740943Y-148378040D01*
X92693221Y-148374287D01*
X92658092Y-148367927D01*
X92629736Y-148358351D01*
X92612695Y-148350375D01*
X92575250Y-148328229D01*
X92551375Y-148308172D01*
X92547886Y-148302487D01*
X92555247Y-148279009D01*
X92590241Y-148256281D01*
X92650442Y-148235334D01*
X92733425Y-148217200D01*
X92757874Y-148213161D01*
X92885576Y-148193103D01*
X92987494Y-148176338D01*
X93067560Y-148161647D01*
X93129708Y-148147812D01*
X93177872Y-148133615D01*
X93215986Y-148117837D01*
X93247984Y-148099260D01*
X93277798Y-148076666D01*
X93309364Y-148048837D01*
X93319986Y-148039080D01*
X93357227Y-148002666D01*
X93376941Y-147973816D01*
X93384653Y-147940802D01*
X93385901Y-147899199D01*
X93372169Y-147817615D01*
X93331132Y-147748298D01*
X93263024Y-147691472D01*
X93168081Y-147647361D01*
X93100338Y-147627576D01*
X93026713Y-147614797D01*
X92938515Y-147607568D01*
X92841130Y-147605479D01*
X92739942Y-147608121D01*
G37*
X92739942Y-147608121D02*
X92640337Y-147615084D01*
X92547698Y-147625959D01*
X92467412Y-147640338D01*
X92404862Y-147657810D01*
X92365435Y-147677966D01*
X92359383Y-147683899D01*
X92338338Y-147729939D01*
X92344720Y-147777204D01*
X92377361Y-147817642D01*
X92378918Y-147818801D01*
X92398117Y-147831261D01*
X92418159Y-147837813D01*
X92446114Y-147838608D01*
X92489053Y-147833800D01*
X92554045Y-147823539D01*
X92559273Y-147822675D01*
X92656115Y-147810778D01*
X92760598Y-147804909D01*
X92865389Y-147804852D01*
X92963156Y-147810391D01*
X93046566Y-147821309D01*
X93108287Y-147837389D01*
X93112342Y-147839005D01*
X93157118Y-147864093D01*
X93172850Y-147889482D01*
X93160534Y-147914451D01*
X93121169Y-147938280D01*
X93055752Y-147960246D01*
X92965280Y-147979630D01*
X92904954Y-147988962D01*
X92779554Y-148006913D01*
X92679819Y-148023323D01*
X92601500Y-148039612D01*
X92540347Y-148057202D01*
X92492113Y-148077513D01*
X92452549Y-148101967D01*
X92417406Y-148131984D01*
X92389165Y-148161460D01*
X92355662Y-148202531D01*
X92339173Y-148237846D01*
X92334017Y-148281357D01*
X92333830Y-148297292D01*
X92337702Y-148350169D01*
X92353181Y-148389507D01*
X92379969Y-148424424D01*
X92434413Y-148477798D01*
X92495124Y-148518502D01*
X92566612Y-148547864D01*
X92653390Y-148567211D01*
X92759968Y-148577870D01*
X92890857Y-148581169D01*
X92912469Y-148581113D01*
X92999752Y-148579304D01*
X93086313Y-148575193D01*
X93162716Y-148569370D01*
X93219524Y-148562425D01*
X93224118Y-148561628D01*
X93280599Y-148548248D01*
X93328506Y-148531346D01*
X93355627Y-148515895D01*
X93380865Y-148475130D01*
X93382623Y-148427662D01*
X93360866Y-148385359D01*
X93355998Y-148380576D01*
X93335876Y-148366363D01*
X93310712Y-148360240D01*
X93271767Y-148361282D01*
X93224489Y-148366698D01*
X93171659Y-148371537D01*
X93097602Y-148375619D01*
X93011145Y-148378582D01*
X92921117Y-148380061D01*
X92897439Y-148380158D01*
X92807076Y-148379794D01*
X92740943Y-148378040D01*
X92693221Y-148374287D01*
X92658092Y-148367927D01*
X92629736Y-148358351D01*
X92612695Y-148350375D01*
X92575250Y-148328229D01*
X92551375Y-148308172D01*
X92547886Y-148302487D01*
X92555247Y-148279009D01*
X92590241Y-148256281D01*
X92650442Y-148235334D01*
X92733425Y-148217200D01*
X92757874Y-148213161D01*
X92885576Y-148193103D01*
X92987494Y-148176338D01*
X93067560Y-148161647D01*
X93129708Y-148147812D01*
X93177872Y-148133615D01*
X93215986Y-148117837D01*
X93247984Y-148099260D01*
X93277798Y-148076666D01*
X93309364Y-148048837D01*
X93319986Y-148039080D01*
X93357227Y-148002666D01*
X93376941Y-147973816D01*
X93384653Y-147940802D01*
X93385901Y-147899199D01*
X93372169Y-147817615D01*
X93331132Y-147748298D01*
X93263024Y-147691472D01*
X93168081Y-147647361D01*
X93100338Y-147627576D01*
X93026713Y-147614797D01*
X92938515Y-147607568D01*
X92841130Y-147605479D01*
X92739942Y-147608121D01*
G36*
X91717617Y-147636470D02*
G01*
X91708855Y-147646552D01*
X91701982Y-147659559D01*
X91696769Y-147678975D01*
X91692988Y-147708284D01*
X91690410Y-147750971D01*
X91688807Y-147810519D01*
X91687949Y-147890414D01*
X91687610Y-147994140D01*
X91687557Y-148094872D01*
X91687650Y-148219816D01*
X91688081Y-148318185D01*
X91689077Y-148393465D01*
X91690869Y-148449138D01*
X91693683Y-148488690D01*
X91697750Y-148515605D01*
X91703296Y-148533367D01*
X91710551Y-148545461D01*
X91717617Y-148553274D01*
X91761556Y-148579476D01*
X91808374Y-148577125D01*
X91850263Y-148548548D01*
X91859888Y-148537391D01*
X91867409Y-148524447D01*
X91873088Y-148506136D01*
X91877181Y-148478882D01*
X91879949Y-148439104D01*
X91881650Y-148383226D01*
X91882543Y-148307668D01*
X91882887Y-148208852D01*
X91882942Y-148096978D01*
X91882942Y-147680192D01*
X91846051Y-147643301D01*
X91800579Y-147612264D01*
X91756470Y-147611145D01*
X91717617Y-147636470D01*
G37*
X91717617Y-147636470D02*
X91708855Y-147646552D01*
X91701982Y-147659559D01*
X91696769Y-147678975D01*
X91692988Y-147708284D01*
X91690410Y-147750971D01*
X91688807Y-147810519D01*
X91687949Y-147890414D01*
X91687610Y-147994140D01*
X91687557Y-148094872D01*
X91687650Y-148219816D01*
X91688081Y-148318185D01*
X91689077Y-148393465D01*
X91690869Y-148449138D01*
X91693683Y-148488690D01*
X91697750Y-148515605D01*
X91703296Y-148533367D01*
X91710551Y-148545461D01*
X91717617Y-148553274D01*
X91761556Y-148579476D01*
X91808374Y-148577125D01*
X91850263Y-148548548D01*
X91859888Y-148537391D01*
X91867409Y-148524447D01*
X91873088Y-148506136D01*
X91877181Y-148478882D01*
X91879949Y-148439104D01*
X91881650Y-148383226D01*
X91882543Y-148307668D01*
X91882887Y-148208852D01*
X91882942Y-148096978D01*
X91882942Y-147680192D01*
X91846051Y-147643301D01*
X91800579Y-147612264D01*
X91756470Y-147611145D01*
X91717617Y-147636470D01*
G36*
X90421216Y-147613776D02*
G01*
X90329995Y-147629082D01*
X90259936Y-147652875D01*
X90214358Y-147684204D01*
X90201938Y-147702078D01*
X90189308Y-147743649D01*
X90197807Y-147781256D01*
X90224639Y-147816919D01*
X90266330Y-147833603D01*
X90326824Y-147832248D01*
X90373613Y-147823209D01*
X90477582Y-147805987D01*
X90583834Y-147804351D01*
X90702763Y-147818329D01*
X90735614Y-147824252D01*
X90846199Y-147855431D01*
X90932713Y-147901810D01*
X90994207Y-147962599D01*
X91029732Y-148037008D01*
X91037079Y-148075478D01*
X91032270Y-148153527D01*
X91001220Y-148222581D01*
X90946760Y-148281293D01*
X90871718Y-148328317D01*
X90778924Y-148362307D01*
X90671206Y-148381918D01*
X90551395Y-148385805D01*
X90422319Y-148372620D01*
X90415031Y-148371376D01*
X90363692Y-148361814D01*
X90335226Y-148352578D01*
X90322888Y-148338873D01*
X90319932Y-148315906D01*
X90319865Y-148303743D01*
X90319865Y-148252683D01*
X90411031Y-148252683D01*
X90491536Y-148247168D01*
X90546475Y-148229594D01*
X90578440Y-148198417D01*
X90590026Y-148152094D01*
X90590167Y-148146048D01*
X90583389Y-148106453D01*
X90560145Y-148078181D01*
X90516884Y-148059471D01*
X90450055Y-148048564D01*
X90385324Y-148044554D01*
X90291241Y-148042253D01*
X90222998Y-148045764D01*
X90176455Y-148058719D01*
X90147472Y-148084750D01*
X90131909Y-148127491D01*
X90125625Y-148190574D01*
X90124480Y-148273428D01*
X90126356Y-148365910D01*
X90132000Y-148428818D01*
X90141436Y-148462403D01*
X90143267Y-148465033D01*
X90195079Y-148506998D01*
X90271044Y-148540232D01*
X90366346Y-148564023D01*
X90476170Y-148577663D01*
X90595700Y-148580442D01*
X90720120Y-148571649D01*
X90793297Y-148560849D01*
X90908074Y-148528362D01*
X91014750Y-148475250D01*
X91104065Y-148406319D01*
X91117640Y-148392542D01*
X91161746Y-148334622D01*
X91201543Y-148262840D01*
X91232381Y-148187583D01*
X91249611Y-148119241D01*
X91251688Y-148092993D01*
X91242847Y-148038241D01*
X91219349Y-147970119D01*
X91185703Y-147898414D01*
X91146418Y-147832913D01*
X91111709Y-147789162D01*
X91030557Y-147724083D01*
X90925652Y-147672285D01*
X90800754Y-147634938D01*
X90659621Y-147613217D01*
X90530279Y-147607909D01*
X90421216Y-147613776D01*
G37*
X90421216Y-147613776D02*
X90329995Y-147629082D01*
X90259936Y-147652875D01*
X90214358Y-147684204D01*
X90201938Y-147702078D01*
X90189308Y-147743649D01*
X90197807Y-147781256D01*
X90224639Y-147816919D01*
X90266330Y-147833603D01*
X90326824Y-147832248D01*
X90373613Y-147823209D01*
X90477582Y-147805987D01*
X90583834Y-147804351D01*
X90702763Y-147818329D01*
X90735614Y-147824252D01*
X90846199Y-147855431D01*
X90932713Y-147901810D01*
X90994207Y-147962599D01*
X91029732Y-148037008D01*
X91037079Y-148075478D01*
X91032270Y-148153527D01*
X91001220Y-148222581D01*
X90946760Y-148281293D01*
X90871718Y-148328317D01*
X90778924Y-148362307D01*
X90671206Y-148381918D01*
X90551395Y-148385805D01*
X90422319Y-148372620D01*
X90415031Y-148371376D01*
X90363692Y-148361814D01*
X90335226Y-148352578D01*
X90322888Y-148338873D01*
X90319932Y-148315906D01*
X90319865Y-148303743D01*
X90319865Y-148252683D01*
X90411031Y-148252683D01*
X90491536Y-148247168D01*
X90546475Y-148229594D01*
X90578440Y-148198417D01*
X90590026Y-148152094D01*
X90590167Y-148146048D01*
X90583389Y-148106453D01*
X90560145Y-148078181D01*
X90516884Y-148059471D01*
X90450055Y-148048564D01*
X90385324Y-148044554D01*
X90291241Y-148042253D01*
X90222998Y-148045764D01*
X90176455Y-148058719D01*
X90147472Y-148084750D01*
X90131909Y-148127491D01*
X90125625Y-148190574D01*
X90124480Y-148273428D01*
X90126356Y-148365910D01*
X90132000Y-148428818D01*
X90141436Y-148462403D01*
X90143267Y-148465033D01*
X90195079Y-148506998D01*
X90271044Y-148540232D01*
X90366346Y-148564023D01*
X90476170Y-148577663D01*
X90595700Y-148580442D01*
X90720120Y-148571649D01*
X90793297Y-148560849D01*
X90908074Y-148528362D01*
X91014750Y-148475250D01*
X91104065Y-148406319D01*
X91117640Y-148392542D01*
X91161746Y-148334622D01*
X91201543Y-148262840D01*
X91232381Y-148187583D01*
X91249611Y-148119241D01*
X91251688Y-148092993D01*
X91242847Y-148038241D01*
X91219349Y-147970119D01*
X91185703Y-147898414D01*
X91146418Y-147832913D01*
X91111709Y-147789162D01*
X91030557Y-147724083D01*
X90925652Y-147672285D01*
X90800754Y-147634938D01*
X90659621Y-147613217D01*
X90530279Y-147607909D01*
X90421216Y-147613776D01*
G36*
X89555874Y-147612244D02*
G01*
X89524499Y-147630649D01*
X89483476Y-147660749D01*
X89430678Y-147703960D01*
X89363979Y-147761702D01*
X89281253Y-147835392D01*
X89180374Y-147926448D01*
X89064895Y-148031138D01*
X88824421Y-148249207D01*
X88816906Y-147956508D01*
X88814193Y-147855754D01*
X88811576Y-147780722D01*
X88808474Y-147727084D01*
X88804310Y-147690510D01*
X88798505Y-147666671D01*
X88790478Y-147651238D01*
X88779651Y-147639882D01*
X88773910Y-147635110D01*
X88727937Y-147609877D01*
X88684191Y-147613566D01*
X88649489Y-147635123D01*
X88614007Y-147663835D01*
X88609594Y-148083150D01*
X88608373Y-148206471D01*
X88607751Y-148303348D01*
X88607944Y-148377394D01*
X88609168Y-148432221D01*
X88611638Y-148471443D01*
X88615568Y-148498673D01*
X88621174Y-148517523D01*
X88628672Y-148531605D01*
X88636987Y-148542899D01*
X88654976Y-148563846D01*
X88672875Y-148577731D01*
X88693166Y-148583060D01*
X88718332Y-148578340D01*
X88750854Y-148562077D01*
X88793217Y-148532777D01*
X88847902Y-148488946D01*
X88917391Y-148429091D01*
X89004169Y-148351718D01*
X89102469Y-148262814D01*
X89455664Y-147942435D01*
X89463179Y-148234177D01*
X89465897Y-148334747D01*
X89468521Y-148409604D01*
X89471633Y-148463084D01*
X89475816Y-148499526D01*
X89481651Y-148523268D01*
X89489720Y-148538646D01*
X89500605Y-148550000D01*
X89506175Y-148554626D01*
X89555410Y-148580042D01*
X89601931Y-148576209D01*
X89642443Y-148543733D01*
X89651710Y-148530667D01*
X89658933Y-148515409D01*
X89664366Y-148494296D01*
X89668262Y-148463669D01*
X89670875Y-148419866D01*
X89672461Y-148359227D01*
X89673272Y-148278091D01*
X89673562Y-148172797D01*
X89673593Y-148094872D01*
X89673495Y-147972988D01*
X89673033Y-147877503D01*
X89671951Y-147804755D01*
X89669997Y-147751083D01*
X89666916Y-147712827D01*
X89662454Y-147686327D01*
X89656357Y-147667920D01*
X89648371Y-147653948D01*
X89642443Y-147646011D01*
X89627416Y-147627212D01*
X89613372Y-147613017D01*
X89598184Y-147604846D01*
X89579727Y-147604116D01*
X89555874Y-147612244D01*
G37*
X89555874Y-147612244D02*
X89524499Y-147630649D01*
X89483476Y-147660749D01*
X89430678Y-147703960D01*
X89363979Y-147761702D01*
X89281253Y-147835392D01*
X89180374Y-147926448D01*
X89064895Y-148031138D01*
X88824421Y-148249207D01*
X88816906Y-147956508D01*
X88814193Y-147855754D01*
X88811576Y-147780722D01*
X88808474Y-147727084D01*
X88804310Y-147690510D01*
X88798505Y-147666671D01*
X88790478Y-147651238D01*
X88779651Y-147639882D01*
X88773910Y-147635110D01*
X88727937Y-147609877D01*
X88684191Y-147613566D01*
X88649489Y-147635123D01*
X88614007Y-147663835D01*
X88609594Y-148083150D01*
X88608373Y-148206471D01*
X88607751Y-148303348D01*
X88607944Y-148377394D01*
X88609168Y-148432221D01*
X88611638Y-148471443D01*
X88615568Y-148498673D01*
X88621174Y-148517523D01*
X88628672Y-148531605D01*
X88636987Y-148542899D01*
X88654976Y-148563846D01*
X88672875Y-148577731D01*
X88693166Y-148583060D01*
X88718332Y-148578340D01*
X88750854Y-148562077D01*
X88793217Y-148532777D01*
X88847902Y-148488946D01*
X88917391Y-148429091D01*
X89004169Y-148351718D01*
X89102469Y-148262814D01*
X89455664Y-147942435D01*
X89463179Y-148234177D01*
X89465897Y-148334747D01*
X89468521Y-148409604D01*
X89471633Y-148463084D01*
X89475816Y-148499526D01*
X89481651Y-148523268D01*
X89489720Y-148538646D01*
X89500605Y-148550000D01*
X89506175Y-148554626D01*
X89555410Y-148580042D01*
X89601931Y-148576209D01*
X89642443Y-148543733D01*
X89651710Y-148530667D01*
X89658933Y-148515409D01*
X89664366Y-148494296D01*
X89668262Y-148463669D01*
X89670875Y-148419866D01*
X89672461Y-148359227D01*
X89673272Y-148278091D01*
X89673562Y-148172797D01*
X89673593Y-148094872D01*
X89673495Y-147972988D01*
X89673033Y-147877503D01*
X89671951Y-147804755D01*
X89669997Y-147751083D01*
X89666916Y-147712827D01*
X89662454Y-147686327D01*
X89656357Y-147667920D01*
X89648371Y-147653948D01*
X89642443Y-147646011D01*
X89627416Y-147627212D01*
X89613372Y-147613017D01*
X89598184Y-147604846D01*
X89579727Y-147604116D01*
X89555874Y-147612244D01*
G36*
X87518284Y-147606667D02*
G01*
X87416623Y-147607884D01*
X87338718Y-147610730D01*
X87281419Y-147615874D01*
X87241573Y-147623984D01*
X87216032Y-147635731D01*
X87201643Y-147651782D01*
X87195255Y-147672808D01*
X87193719Y-147699476D01*
X87193711Y-147702626D01*
X87195045Y-147732790D01*
X87201349Y-147756103D01*
X87216078Y-147773506D01*
X87242685Y-147785940D01*
X87284626Y-147794345D01*
X87345354Y-147799665D01*
X87428324Y-147802839D01*
X87536989Y-147804809D01*
X87570295Y-147805245D01*
X87892587Y-147809310D01*
X87897094Y-147895730D01*
X87901602Y-147982150D01*
X87677737Y-147982150D01*
X87590279Y-147982473D01*
X87527831Y-147983837D01*
X87485346Y-147986839D01*
X87457777Y-147992073D01*
X87440078Y-148000135D01*
X87427203Y-148011620D01*
X87427120Y-148011711D01*
X87403770Y-148056471D01*
X87404614Y-148104847D01*
X87429121Y-148146086D01*
X87433971Y-148150325D01*
X87451185Y-148161249D01*
X87474774Y-148168849D01*
X87509993Y-148173697D01*
X87562100Y-148176366D01*
X87636350Y-148177428D01*
X87683838Y-148177535D01*
X87900102Y-148177535D01*
X87900102Y-148387949D01*
X87571780Y-148387949D01*
X87463382Y-148388139D01*
X87381065Y-148388914D01*
X87320851Y-148390584D01*
X87278765Y-148393458D01*
X87250829Y-148397847D01*
X87233066Y-148404059D01*
X87221500Y-148412404D01*
X87218585Y-148415434D01*
X87197064Y-148457434D01*
X87195490Y-148505214D01*
X87213145Y-148546642D01*
X87227115Y-148559937D01*
X87241646Y-148567256D01*
X87264162Y-148572919D01*
X87298224Y-148577123D01*
X87347393Y-148580068D01*
X87415232Y-148581951D01*
X87505302Y-148582970D01*
X87621163Y-148583325D01*
X87647357Y-148583334D01*
X87765161Y-148583256D01*
X87856604Y-148582831D01*
X87925386Y-148581766D01*
X87975204Y-148579769D01*
X88009760Y-148576550D01*
X88032750Y-148571816D01*
X88047874Y-148565277D01*
X88058831Y-148556641D01*
X88064842Y-148550440D01*
X88073890Y-148539457D01*
X88080958Y-148525852D01*
X88086291Y-148506056D01*
X88090132Y-148476502D01*
X88092725Y-148433621D01*
X88094313Y-148373845D01*
X88095139Y-148293607D01*
X88095448Y-148189339D01*
X88095486Y-148101580D01*
X88095392Y-147978608D01*
X88094943Y-147882069D01*
X88093892Y-147808339D01*
X88091990Y-147753790D01*
X88088991Y-147714799D01*
X88084645Y-147687739D01*
X88078706Y-147668984D01*
X88070925Y-147654910D01*
X88064336Y-147646011D01*
X88033186Y-147606410D01*
X87646852Y-147606410D01*
X87518284Y-147606667D01*
G37*
X87518284Y-147606667D02*
X87416623Y-147607884D01*
X87338718Y-147610730D01*
X87281419Y-147615874D01*
X87241573Y-147623984D01*
X87216032Y-147635731D01*
X87201643Y-147651782D01*
X87195255Y-147672808D01*
X87193719Y-147699476D01*
X87193711Y-147702626D01*
X87195045Y-147732790D01*
X87201349Y-147756103D01*
X87216078Y-147773506D01*
X87242685Y-147785940D01*
X87284626Y-147794345D01*
X87345354Y-147799665D01*
X87428324Y-147802839D01*
X87536989Y-147804809D01*
X87570295Y-147805245D01*
X87892587Y-147809310D01*
X87897094Y-147895730D01*
X87901602Y-147982150D01*
X87677737Y-147982150D01*
X87590279Y-147982473D01*
X87527831Y-147983837D01*
X87485346Y-147986839D01*
X87457777Y-147992073D01*
X87440078Y-148000135D01*
X87427203Y-148011620D01*
X87427120Y-148011711D01*
X87403770Y-148056471D01*
X87404614Y-148104847D01*
X87429121Y-148146086D01*
X87433971Y-148150325D01*
X87451185Y-148161249D01*
X87474774Y-148168849D01*
X87509993Y-148173697D01*
X87562100Y-148176366D01*
X87636350Y-148177428D01*
X87683838Y-148177535D01*
X87900102Y-148177535D01*
X87900102Y-148387949D01*
X87571780Y-148387949D01*
X87463382Y-148388139D01*
X87381065Y-148388914D01*
X87320851Y-148390584D01*
X87278765Y-148393458D01*
X87250829Y-148397847D01*
X87233066Y-148404059D01*
X87221500Y-148412404D01*
X87218585Y-148415434D01*
X87197064Y-148457434D01*
X87195490Y-148505214D01*
X87213145Y-148546642D01*
X87227115Y-148559937D01*
X87241646Y-148567256D01*
X87264162Y-148572919D01*
X87298224Y-148577123D01*
X87347393Y-148580068D01*
X87415232Y-148581951D01*
X87505302Y-148582970D01*
X87621163Y-148583325D01*
X87647357Y-148583334D01*
X87765161Y-148583256D01*
X87856604Y-148582831D01*
X87925386Y-148581766D01*
X87975204Y-148579769D01*
X88009760Y-148576550D01*
X88032750Y-148571816D01*
X88047874Y-148565277D01*
X88058831Y-148556641D01*
X88064842Y-148550440D01*
X88073890Y-148539457D01*
X88080958Y-148525852D01*
X88086291Y-148506056D01*
X88090132Y-148476502D01*
X88092725Y-148433621D01*
X88094313Y-148373845D01*
X88095139Y-148293607D01*
X88095448Y-148189339D01*
X88095486Y-148101580D01*
X88095392Y-147978608D01*
X88094943Y-147882069D01*
X88093892Y-147808339D01*
X88091990Y-147753790D01*
X88088991Y-147714799D01*
X88084645Y-147687739D01*
X88078706Y-147668984D01*
X88070925Y-147654910D01*
X88064336Y-147646011D01*
X88033186Y-147606410D01*
X87646852Y-147606410D01*
X87518284Y-147606667D01*
G36*
X86469217Y-147606687D02*
G01*
X86297499Y-147612493D01*
X86151445Y-147630101D01*
X86028647Y-147660563D01*
X85926697Y-147704935D01*
X85843186Y-147764271D01*
X85775707Y-147839624D01*
X85721851Y-147932050D01*
X85720792Y-147934304D01*
X85688651Y-148017024D01*
X85677199Y-148090284D01*
X85686480Y-148164012D01*
X85716539Y-148248135D01*
X85722239Y-148260937D01*
X85761115Y-148335862D01*
X85804805Y-148393757D01*
X85861194Y-148442972D01*
X85938162Y-148491857D01*
X85942634Y-148494409D01*
X86009637Y-148526595D01*
X86085369Y-148550632D01*
X86174696Y-148567351D01*
X86282485Y-148577579D01*
X86413602Y-148582146D01*
X86459928Y-148582543D01*
X86680524Y-148583334D01*
X86711674Y-148543733D01*
X86720914Y-148530711D01*
X86728122Y-148515504D01*
X86733550Y-148494466D01*
X86737449Y-148463950D01*
X86740071Y-148420311D01*
X86740926Y-148387949D01*
X86532409Y-148387949D01*
X86407418Y-148387949D01*
X86334277Y-148385810D01*
X86259193Y-148380181D01*
X86197570Y-148372243D01*
X86193851Y-148371575D01*
X86084401Y-148342212D01*
X85999506Y-148298097D01*
X85936482Y-148237183D01*
X85892640Y-148157424D01*
X85885017Y-148136284D01*
X85877544Y-148103362D01*
X85880779Y-148070836D01*
X85896521Y-148027564D01*
X85906010Y-148006307D01*
X85937083Y-147949820D01*
X85974521Y-147910191D01*
X86015713Y-147882594D01*
X86098224Y-147846682D01*
X86203821Y-147820668D01*
X86326836Y-147805688D01*
X86415930Y-147802392D01*
X86532409Y-147801795D01*
X86532409Y-148387949D01*
X86740926Y-148387949D01*
X86741668Y-148359900D01*
X86742490Y-148279072D01*
X86742790Y-148174181D01*
X86742824Y-148092162D01*
X86742824Y-147680192D01*
X86705933Y-147643301D01*
X86689560Y-147628348D01*
X86671857Y-147618108D01*
X86647135Y-147611701D01*
X86609706Y-147608247D01*
X86553881Y-147606867D01*
X86473972Y-147606681D01*
X86469217Y-147606687D01*
G37*
X86469217Y-147606687D02*
X86297499Y-147612493D01*
X86151445Y-147630101D01*
X86028647Y-147660563D01*
X85926697Y-147704935D01*
X85843186Y-147764271D01*
X85775707Y-147839624D01*
X85721851Y-147932050D01*
X85720792Y-147934304D01*
X85688651Y-148017024D01*
X85677199Y-148090284D01*
X85686480Y-148164012D01*
X85716539Y-148248135D01*
X85722239Y-148260937D01*
X85761115Y-148335862D01*
X85804805Y-148393757D01*
X85861194Y-148442972D01*
X85938162Y-148491857D01*
X85942634Y-148494409D01*
X86009637Y-148526595D01*
X86085369Y-148550632D01*
X86174696Y-148567351D01*
X86282485Y-148577579D01*
X86413602Y-148582146D01*
X86459928Y-148582543D01*
X86680524Y-148583334D01*
X86711674Y-148543733D01*
X86720914Y-148530711D01*
X86728122Y-148515504D01*
X86733550Y-148494466D01*
X86737449Y-148463950D01*
X86740071Y-148420311D01*
X86740926Y-148387949D01*
X86532409Y-148387949D01*
X86407418Y-148387949D01*
X86334277Y-148385810D01*
X86259193Y-148380181D01*
X86197570Y-148372243D01*
X86193851Y-148371575D01*
X86084401Y-148342212D01*
X85999506Y-148298097D01*
X85936482Y-148237183D01*
X85892640Y-148157424D01*
X85885017Y-148136284D01*
X85877544Y-148103362D01*
X85880779Y-148070836D01*
X85896521Y-148027564D01*
X85906010Y-148006307D01*
X85937083Y-147949820D01*
X85974521Y-147910191D01*
X86015713Y-147882594D01*
X86098224Y-147846682D01*
X86203821Y-147820668D01*
X86326836Y-147805688D01*
X86415930Y-147802392D01*
X86532409Y-147801795D01*
X86532409Y-148387949D01*
X86740926Y-148387949D01*
X86741668Y-148359900D01*
X86742490Y-148279072D01*
X86742790Y-148174181D01*
X86742824Y-148092162D01*
X86742824Y-147680192D01*
X86705933Y-147643301D01*
X86689560Y-147628348D01*
X86671857Y-147618108D01*
X86647135Y-147611701D01*
X86609706Y-147608247D01*
X86553881Y-147606867D01*
X86473972Y-147606681D01*
X86469217Y-147606687D01*
G36*
X82839453Y-147609030D02*
G01*
X82813372Y-147618350D01*
X82812366Y-147618806D01*
X82776948Y-147645834D01*
X82757434Y-147673636D01*
X82753616Y-147686672D01*
X82753805Y-147703992D01*
X82759178Y-147728667D01*
X82770912Y-147763764D01*
X82790187Y-147812353D01*
X82818178Y-147877502D01*
X82856064Y-147962281D01*
X82905022Y-148069759D01*
X82931969Y-148128503D01*
X82980630Y-148233373D01*
X83026310Y-148329814D01*
X83067266Y-148414298D01*
X83101754Y-148483300D01*
X83128031Y-148533294D01*
X83144354Y-148560754D01*
X83147584Y-148564547D01*
X83188911Y-148581280D01*
X83235591Y-148579039D01*
X83273030Y-148558687D01*
X83274556Y-148557032D01*
X83289449Y-148534486D01*
X83314431Y-148490571D01*
X83346421Y-148430940D01*
X83382340Y-148361246D01*
X83395248Y-148335563D01*
X83492686Y-148140397D01*
X83598894Y-148352407D01*
X83636803Y-148425661D01*
X83671973Y-148489190D01*
X83701532Y-148538131D01*
X83722606Y-148567622D01*
X83729748Y-148573876D01*
X83785262Y-148582345D01*
X83831071Y-148564547D01*
X83844546Y-148545525D01*
X83867864Y-148503249D01*
X83899123Y-148441880D01*
X83936420Y-148365576D01*
X83977854Y-148278499D01*
X84021522Y-148184807D01*
X84065522Y-148088661D01*
X84107952Y-147994221D01*
X84146910Y-147905645D01*
X84180493Y-147827096D01*
X84206799Y-147762731D01*
X84223926Y-147716711D01*
X84229971Y-147693197D01*
X84229909Y-147692345D01*
X84215200Y-147662756D01*
X84185798Y-147632620D01*
X84184067Y-147631308D01*
X84147930Y-147610882D01*
X84114506Y-147611080D01*
X84101978Y-147614931D01*
X84086713Y-147623253D01*
X84070502Y-147639625D01*
X84051401Y-147667442D01*
X84027465Y-147710100D01*
X83996749Y-147770995D01*
X83957309Y-147853525D01*
X83921742Y-147929707D01*
X83880823Y-148018014D01*
X83844156Y-148097426D01*
X83813646Y-148163796D01*
X83791198Y-148212975D01*
X83778717Y-148240813D01*
X83776897Y-148245168D01*
X83768710Y-148238049D01*
X83749895Y-148208241D01*
X83722954Y-148160096D01*
X83690392Y-148097963D01*
X83677434Y-148072328D01*
X83633540Y-147985765D01*
X83599689Y-147922725D01*
X83573103Y-147879542D01*
X83551005Y-147852552D01*
X83530616Y-147838088D01*
X83509160Y-147832487D01*
X83495177Y-147831854D01*
X83470512Y-147834040D01*
X83448898Y-147843079D01*
X83427422Y-147862697D01*
X83403170Y-147896617D01*
X83373230Y-147948562D01*
X83334687Y-148022258D01*
X83313422Y-148064180D01*
X83278928Y-148130994D01*
X83248844Y-148186401D01*
X83225823Y-148225727D01*
X83212520Y-148244296D01*
X83210711Y-148245069D01*
X83202120Y-148230455D01*
X83182886Y-148192507D01*
X83154935Y-148135196D01*
X83120193Y-148062496D01*
X83080587Y-147978376D01*
X83061104Y-147936594D01*
X83010420Y-147828763D01*
X82969607Y-147745790D01*
X82936546Y-147684966D01*
X82909119Y-147643585D01*
X82885208Y-147618940D01*
X82862692Y-147608324D01*
X82839453Y-147609030D01*
G37*
X82839453Y-147609030D02*
X82813372Y-147618350D01*
X82812366Y-147618806D01*
X82776948Y-147645834D01*
X82757434Y-147673636D01*
X82753616Y-147686672D01*
X82753805Y-147703992D01*
X82759178Y-147728667D01*
X82770912Y-147763764D01*
X82790187Y-147812353D01*
X82818178Y-147877502D01*
X82856064Y-147962281D01*
X82905022Y-148069759D01*
X82931969Y-148128503D01*
X82980630Y-148233373D01*
X83026310Y-148329814D01*
X83067266Y-148414298D01*
X83101754Y-148483300D01*
X83128031Y-148533294D01*
X83144354Y-148560754D01*
X83147584Y-148564547D01*
X83188911Y-148581280D01*
X83235591Y-148579039D01*
X83273030Y-148558687D01*
X83274556Y-148557032D01*
X83289449Y-148534486D01*
X83314431Y-148490571D01*
X83346421Y-148430940D01*
X83382340Y-148361246D01*
X83395248Y-148335563D01*
X83492686Y-148140397D01*
X83598894Y-148352407D01*
X83636803Y-148425661D01*
X83671973Y-148489190D01*
X83701532Y-148538131D01*
X83722606Y-148567622D01*
X83729748Y-148573876D01*
X83785262Y-148582345D01*
X83831071Y-148564547D01*
X83844546Y-148545525D01*
X83867864Y-148503249D01*
X83899123Y-148441880D01*
X83936420Y-148365576D01*
X83977854Y-148278499D01*
X84021522Y-148184807D01*
X84065522Y-148088661D01*
X84107952Y-147994221D01*
X84146910Y-147905645D01*
X84180493Y-147827096D01*
X84206799Y-147762731D01*
X84223926Y-147716711D01*
X84229971Y-147693197D01*
X84229909Y-147692345D01*
X84215200Y-147662756D01*
X84185798Y-147632620D01*
X84184067Y-147631308D01*
X84147930Y-147610882D01*
X84114506Y-147611080D01*
X84101978Y-147614931D01*
X84086713Y-147623253D01*
X84070502Y-147639625D01*
X84051401Y-147667442D01*
X84027465Y-147710100D01*
X83996749Y-147770995D01*
X83957309Y-147853525D01*
X83921742Y-147929707D01*
X83880823Y-148018014D01*
X83844156Y-148097426D01*
X83813646Y-148163796D01*
X83791198Y-148212975D01*
X83778717Y-148240813D01*
X83776897Y-148245168D01*
X83768710Y-148238049D01*
X83749895Y-148208241D01*
X83722954Y-148160096D01*
X83690392Y-148097963D01*
X83677434Y-148072328D01*
X83633540Y-147985765D01*
X83599689Y-147922725D01*
X83573103Y-147879542D01*
X83551005Y-147852552D01*
X83530616Y-147838088D01*
X83509160Y-147832487D01*
X83495177Y-147831854D01*
X83470512Y-147834040D01*
X83448898Y-147843079D01*
X83427422Y-147862697D01*
X83403170Y-147896617D01*
X83373230Y-147948562D01*
X83334687Y-148022258D01*
X83313422Y-148064180D01*
X83278928Y-148130994D01*
X83248844Y-148186401D01*
X83225823Y-148225727D01*
X83212520Y-148244296D01*
X83210711Y-148245069D01*
X83202120Y-148230455D01*
X83182886Y-148192507D01*
X83154935Y-148135196D01*
X83120193Y-148062496D01*
X83080587Y-147978376D01*
X83061104Y-147936594D01*
X83010420Y-147828763D01*
X82969607Y-147745790D01*
X82936546Y-147684966D01*
X82909119Y-147643585D01*
X82885208Y-147618940D01*
X82862692Y-147608324D01*
X82839453Y-147609030D01*
G36*
X82248396Y-147615477D02*
G01*
X82216826Y-147635142D01*
X82181344Y-147663873D01*
X82181344Y-148091966D01*
X82181457Y-148217190D01*
X82181941Y-148315847D01*
X82183014Y-148391430D01*
X82184892Y-148447433D01*
X82187794Y-148487347D01*
X82191937Y-148514666D01*
X82197538Y-148532881D01*
X82204815Y-148545486D01*
X82209976Y-148551696D01*
X82251832Y-148578980D01*
X82299495Y-148577867D01*
X82341247Y-148554602D01*
X82376729Y-148525871D01*
X82376729Y-147663873D01*
X82341247Y-147635142D01*
X82307002Y-147614242D01*
X82279037Y-147606410D01*
X82248396Y-147615477D01*
G37*
X82248396Y-147615477D02*
X82216826Y-147635142D01*
X82181344Y-147663873D01*
X82181344Y-148091966D01*
X82181457Y-148217190D01*
X82181941Y-148315847D01*
X82183014Y-148391430D01*
X82184892Y-148447433D01*
X82187794Y-148487347D01*
X82191937Y-148514666D01*
X82197538Y-148532881D01*
X82204815Y-148545486D01*
X82209976Y-148551696D01*
X82251832Y-148578980D01*
X82299495Y-148577867D01*
X82341247Y-148554602D01*
X82376729Y-148525871D01*
X82376729Y-147663873D01*
X82341247Y-147635142D01*
X82307002Y-147614242D01*
X82279037Y-147606410D01*
X82248396Y-147615477D01*
G36*
X81217323Y-147606539D02*
G01*
X81112535Y-147607043D01*
X81031201Y-147608096D01*
X80970020Y-147609876D01*
X80925689Y-147612557D01*
X80894906Y-147616314D01*
X80874369Y-147621325D01*
X80860775Y-147627763D01*
X80854197Y-147632712D01*
X80820056Y-147676029D01*
X80815926Y-147721003D01*
X80837024Y-147761860D01*
X80850821Y-147778186D01*
X80865668Y-147789318D01*
X80887185Y-147796250D01*
X80920992Y-147799977D01*
X80972708Y-147801494D01*
X81047953Y-147801794D01*
X81062731Y-147801795D01*
X81257025Y-147801795D01*
X81257025Y-148162505D01*
X81257153Y-148276201D01*
X81257734Y-148363685D01*
X81259064Y-148428802D01*
X81261440Y-148475398D01*
X81265156Y-148507319D01*
X81270508Y-148528412D01*
X81277793Y-148542523D01*
X81287084Y-148553274D01*
X81330929Y-148579696D01*
X81376700Y-148577614D01*
X81418210Y-148547469D01*
X81421259Y-148543733D01*
X81431188Y-148529610D01*
X81438752Y-148513086D01*
X81444271Y-148490146D01*
X81448067Y-148456773D01*
X81450458Y-148408955D01*
X81451766Y-148342674D01*
X81452309Y-148253918D01*
X81452409Y-148152963D01*
X81452409Y-147801795D01*
X81637950Y-147801795D01*
X81717573Y-147801256D01*
X81772696Y-147799157D01*
X81808868Y-147794771D01*
X81831638Y-147787376D01*
X81846553Y-147776245D01*
X81848364Y-147774310D01*
X81870142Y-147730057D01*
X81868216Y-147680029D01*
X81843179Y-147636470D01*
X81833496Y-147628020D01*
X81821012Y-147621321D01*
X81802397Y-147616169D01*
X81774323Y-147612361D01*
X81733459Y-147609697D01*
X81676478Y-147607972D01*
X81600048Y-147606984D01*
X81500843Y-147606532D01*
X81375531Y-147606412D01*
X81348867Y-147606410D01*
X81217323Y-147606539D01*
G37*
X81217323Y-147606539D02*
X81112535Y-147607043D01*
X81031201Y-147608096D01*
X80970020Y-147609876D01*
X80925689Y-147612557D01*
X80894906Y-147616314D01*
X80874369Y-147621325D01*
X80860775Y-147627763D01*
X80854197Y-147632712D01*
X80820056Y-147676029D01*
X80815926Y-147721003D01*
X80837024Y-147761860D01*
X80850821Y-147778186D01*
X80865668Y-147789318D01*
X80887185Y-147796250D01*
X80920992Y-147799977D01*
X80972708Y-147801494D01*
X81047953Y-147801794D01*
X81062731Y-147801795D01*
X81257025Y-147801795D01*
X81257025Y-148162505D01*
X81257153Y-148276201D01*
X81257734Y-148363685D01*
X81259064Y-148428802D01*
X81261440Y-148475398D01*
X81265156Y-148507319D01*
X81270508Y-148528412D01*
X81277793Y-148542523D01*
X81287084Y-148553274D01*
X81330929Y-148579696D01*
X81376700Y-148577614D01*
X81418210Y-148547469D01*
X81421259Y-148543733D01*
X81431188Y-148529610D01*
X81438752Y-148513086D01*
X81444271Y-148490146D01*
X81448067Y-148456773D01*
X81450458Y-148408955D01*
X81451766Y-148342674D01*
X81452309Y-148253918D01*
X81452409Y-148152963D01*
X81452409Y-147801795D01*
X81637950Y-147801795D01*
X81717573Y-147801256D01*
X81772696Y-147799157D01*
X81808868Y-147794771D01*
X81831638Y-147787376D01*
X81846553Y-147776245D01*
X81848364Y-147774310D01*
X81870142Y-147730057D01*
X81868216Y-147680029D01*
X81843179Y-147636470D01*
X81833496Y-147628020D01*
X81821012Y-147621321D01*
X81802397Y-147616169D01*
X81774323Y-147612361D01*
X81733459Y-147609697D01*
X81676478Y-147607972D01*
X81600048Y-147606984D01*
X81500843Y-147606532D01*
X81375531Y-147606412D01*
X81348867Y-147606410D01*
X81217323Y-147606539D01*
G36*
X79532141Y-147613688D02*
G01*
X79490365Y-147643301D01*
X79453475Y-147680192D01*
X79453475Y-148092162D01*
X79453571Y-148214486D01*
X79454028Y-148310398D01*
X79455097Y-148383544D01*
X79457029Y-148437570D01*
X79460077Y-148476123D01*
X79464491Y-148502848D01*
X79470524Y-148521394D01*
X79478426Y-148535405D01*
X79484625Y-148543733D01*
X79525539Y-148576449D01*
X79572518Y-148580000D01*
X79615456Y-148559937D01*
X79629644Y-148548092D01*
X79639128Y-148532358D01*
X79644849Y-148507022D01*
X79647747Y-148466370D01*
X79648762Y-148404688D01*
X79648859Y-148357038D01*
X79648859Y-148177535D01*
X80310161Y-148177535D01*
X80310161Y-148340833D01*
X80310845Y-148415505D01*
X80313581Y-148466824D01*
X80319396Y-148501477D01*
X80329316Y-148526155D01*
X80341311Y-148543733D01*
X80382454Y-148576357D01*
X80428983Y-148580220D01*
X80473527Y-148557032D01*
X80485688Y-148544876D01*
X80494277Y-148528761D01*
X80499942Y-148503660D01*
X80503331Y-148464544D01*
X80505092Y-148406386D01*
X80505872Y-148324158D01*
X80505964Y-148305286D01*
X80506608Y-148150357D01*
X80506940Y-148022674D01*
X80506832Y-147919427D01*
X80506155Y-147837803D01*
X80504782Y-147774992D01*
X80502584Y-147728181D01*
X80499434Y-147694559D01*
X80495202Y-147671315D01*
X80489762Y-147655636D01*
X80482985Y-147644711D01*
X80475486Y-147636470D01*
X80433067Y-147610107D01*
X80388828Y-147613688D01*
X80347052Y-147643301D01*
X80330147Y-147662407D01*
X80319371Y-147683511D01*
X80313359Y-147713568D01*
X80310744Y-147759533D01*
X80310161Y-147828360D01*
X80310161Y-147982150D01*
X79648859Y-147982150D01*
X79648859Y-147824339D01*
X79648184Y-147751636D01*
X79645474Y-147702545D01*
X79639699Y-147670636D01*
X79629831Y-147649478D01*
X79618800Y-147636470D01*
X79576381Y-147610107D01*
X79532141Y-147613688D01*
G37*
X79532141Y-147613688D02*
X79490365Y-147643301D01*
X79453475Y-147680192D01*
X79453475Y-148092162D01*
X79453571Y-148214486D01*
X79454028Y-148310398D01*
X79455097Y-148383544D01*
X79457029Y-148437570D01*
X79460077Y-148476123D01*
X79464491Y-148502848D01*
X79470524Y-148521394D01*
X79478426Y-148535405D01*
X79484625Y-148543733D01*
X79525539Y-148576449D01*
X79572518Y-148580000D01*
X79615456Y-148559937D01*
X79629644Y-148548092D01*
X79639128Y-148532358D01*
X79644849Y-148507022D01*
X79647747Y-148466370D01*
X79648762Y-148404688D01*
X79648859Y-148357038D01*
X79648859Y-148177535D01*
X80310161Y-148177535D01*
X80310161Y-148340833D01*
X80310845Y-148415505D01*
X80313581Y-148466824D01*
X80319396Y-148501477D01*
X80329316Y-148526155D01*
X80341311Y-148543733D01*
X80382454Y-148576357D01*
X80428983Y-148580220D01*
X80473527Y-148557032D01*
X80485688Y-148544876D01*
X80494277Y-148528761D01*
X80499942Y-148503660D01*
X80503331Y-148464544D01*
X80505092Y-148406386D01*
X80505872Y-148324158D01*
X80505964Y-148305286D01*
X80506608Y-148150357D01*
X80506940Y-148022674D01*
X80506832Y-147919427D01*
X80506155Y-147837803D01*
X80504782Y-147774992D01*
X80502584Y-147728181D01*
X80499434Y-147694559D01*
X80495202Y-147671315D01*
X80489762Y-147655636D01*
X80482985Y-147644711D01*
X80475486Y-147636470D01*
X80433067Y-147610107D01*
X80388828Y-147613688D01*
X80347052Y-147643301D01*
X80330147Y-147662407D01*
X80319371Y-147683511D01*
X80313359Y-147713568D01*
X80310744Y-147759533D01*
X80310161Y-147828360D01*
X80310161Y-147982150D01*
X79648859Y-147982150D01*
X79648859Y-147824339D01*
X79648184Y-147751636D01*
X79645474Y-147702545D01*
X79639699Y-147670636D01*
X79629831Y-147649478D01*
X79618800Y-147636470D01*
X79576381Y-147610107D01*
X79532141Y-147613688D01*
G36*
X91602318Y-139083933D02*
G01*
X91466071Y-139131172D01*
X91339221Y-139205527D01*
X91225933Y-139306987D01*
X91130372Y-139435543D01*
X91087446Y-139516572D01*
X91050295Y-139629908D01*
X91032288Y-139760751D01*
X91034283Y-139895265D01*
X91056423Y-140017158D01*
X91116936Y-140166107D01*
X91204686Y-140295309D01*
X91315212Y-140402223D01*
X91444054Y-140484306D01*
X91586753Y-140539016D01*
X91738849Y-140563810D01*
X91895881Y-140556147D01*
X91973286Y-140539772D01*
X92124141Y-140481089D01*
X92258125Y-140391543D01*
X92372006Y-140273893D01*
X92462552Y-140130902D01*
X92470212Y-140115286D01*
X92496694Y-140056686D01*
X92513322Y-140007334D01*
X92522350Y-139955270D01*
X92526032Y-139888539D01*
X92526643Y-139815929D01*
X92525633Y-139728691D01*
X92521072Y-139665624D01*
X92510666Y-139614636D01*
X92492121Y-139563633D01*
X92469230Y-139513313D01*
X92383846Y-139370470D01*
X92278699Y-139254810D01*
X92157955Y-139166325D01*
X92025779Y-139105005D01*
X91886337Y-139070839D01*
X91743795Y-139063818D01*
X91602318Y-139083933D01*
G37*
X91602318Y-139083933D02*
X91466071Y-139131172D01*
X91339221Y-139205527D01*
X91225933Y-139306987D01*
X91130372Y-139435543D01*
X91087446Y-139516572D01*
X91050295Y-139629908D01*
X91032288Y-139760751D01*
X91034283Y-139895265D01*
X91056423Y-140017158D01*
X91116936Y-140166107D01*
X91204686Y-140295309D01*
X91315212Y-140402223D01*
X91444054Y-140484306D01*
X91586753Y-140539016D01*
X91738849Y-140563810D01*
X91895881Y-140556147D01*
X91973286Y-140539772D01*
X92124141Y-140481089D01*
X92258125Y-140391543D01*
X92372006Y-140273893D01*
X92462552Y-140130902D01*
X92470212Y-140115286D01*
X92496694Y-140056686D01*
X92513322Y-140007334D01*
X92522350Y-139955270D01*
X92526032Y-139888539D01*
X92526643Y-139815929D01*
X92525633Y-139728691D01*
X92521072Y-139665624D01*
X92510666Y-139614636D01*
X92492121Y-139563633D01*
X92469230Y-139513313D01*
X92383846Y-139370470D01*
X92278699Y-139254810D01*
X92157955Y-139166325D01*
X92025779Y-139105005D01*
X91886337Y-139070839D01*
X91743795Y-139063818D01*
X91602318Y-139083933D01*
G36*
X78958429Y-140300089D02*
G01*
X78804124Y-140300723D01*
X78751679Y-140301042D01*
X78030500Y-140305786D01*
X78021429Y-143072572D01*
X78020231Y-143447756D01*
X78019168Y-143788417D01*
X78018173Y-144096318D01*
X78017177Y-144373221D01*
X78016112Y-144620888D01*
X78014909Y-144841081D01*
X78013501Y-145035562D01*
X78011818Y-145206094D01*
X78009794Y-145354440D01*
X78007359Y-145482361D01*
X78004446Y-145591620D01*
X78000985Y-145683979D01*
X77996910Y-145761200D01*
X77992151Y-145825046D01*
X77986640Y-145877278D01*
X77980309Y-145919660D01*
X77973090Y-145953953D01*
X77964915Y-145981920D01*
X77955715Y-146005324D01*
X77945423Y-146025925D01*
X77933969Y-146045487D01*
X77921285Y-146065772D01*
X77907305Y-146088543D01*
X77904439Y-146093393D01*
X77856360Y-146175433D01*
X79246072Y-146165929D01*
X79255143Y-146013295D01*
X79260082Y-145940045D01*
X79265229Y-145897696D01*
X79272214Y-145880892D01*
X79282663Y-145884277D01*
X79291429Y-145893960D01*
X79329612Y-145929229D01*
X79391845Y-145974563D01*
X79469359Y-146024546D01*
X79553387Y-146073761D01*
X79635161Y-146116791D01*
X79697948Y-146145101D01*
X79845046Y-146191624D01*
X80013820Y-146224579D01*
X80191809Y-146242707D01*
X80366553Y-146244750D01*
X80525593Y-146229447D01*
X80528212Y-146229009D01*
X80745832Y-146174402D01*
X80949545Y-146087401D01*
X81137387Y-145969876D01*
X81307393Y-145823697D01*
X81457598Y-145650734D01*
X81586036Y-145452857D01*
X81690743Y-145231936D01*
X81747754Y-145068286D01*
X81785349Y-144931375D01*
X81813229Y-144798798D01*
X81832247Y-144662502D01*
X81843255Y-144514433D01*
X81847105Y-144346537D01*
X81845400Y-144209440D01*
X80506641Y-144209440D01*
X80500306Y-144439329D01*
X80480321Y-144637111D01*
X80446073Y-144804539D01*
X80396945Y-144943369D01*
X80332324Y-145055358D01*
X80251595Y-145142259D01*
X80158409Y-145203692D01*
X80109920Y-145226626D01*
X80067866Y-145240375D01*
X80020980Y-145246666D01*
X79957996Y-145247222D01*
X79890143Y-145244773D01*
X79756705Y-145233004D01*
X79651168Y-145209955D01*
X79618000Y-145198410D01*
X79542265Y-145164311D01*
X79462386Y-145121491D01*
X79427500Y-145100057D01*
X79336786Y-145040556D01*
X79336786Y-143154584D01*
X79436572Y-143094771D01*
X79575733Y-143027185D01*
X79717913Y-142987214D01*
X79857910Y-142974622D01*
X79990526Y-142989173D01*
X80110560Y-143030632D01*
X80212812Y-143098763D01*
X80245805Y-143131466D01*
X80325333Y-143238619D01*
X80389701Y-143368327D01*
X80439447Y-143522814D01*
X80475109Y-143704302D01*
X80497225Y-143915015D01*
X80506333Y-144157175D01*
X80506641Y-144209440D01*
X81845400Y-144209440D01*
X81844690Y-144152374D01*
X81829395Y-143853713D01*
X81798642Y-143584325D01*
X81751619Y-143340285D01*
X81687518Y-143117670D01*
X81605528Y-142912556D01*
X81576270Y-142851746D01*
X81458419Y-142653440D01*
X81316004Y-142477212D01*
X81152371Y-142325908D01*
X80970869Y-142202371D01*
X80774847Y-142109447D01*
X80657345Y-142071115D01*
X80541946Y-142048359D01*
X80403093Y-142034820D01*
X80252426Y-142030492D01*
X80101587Y-142035368D01*
X79962215Y-142049444D01*
X79850309Y-142071525D01*
X79717116Y-142114828D01*
X79588021Y-142170511D01*
X79475072Y-142232936D01*
X79414957Y-142275303D01*
X79373490Y-142306807D01*
X79344455Y-142325990D01*
X79337850Y-142328714D01*
X79335802Y-142311163D01*
X79333893Y-142260875D01*
X79332164Y-142181400D01*
X79330659Y-142076286D01*
X79329419Y-141949083D01*
X79328487Y-141803339D01*
X79327905Y-141642603D01*
X79327714Y-141478884D01*
X79327821Y-141269188D01*
X79328342Y-141092396D01*
X79329584Y-140945126D01*
X79331852Y-140823997D01*
X79335450Y-140725627D01*
X79340683Y-140646634D01*
X79347856Y-140583638D01*
X79357274Y-140533255D01*
X79369242Y-140492105D01*
X79384065Y-140456806D01*
X79402048Y-140423977D01*
X79423495Y-140390235D01*
X79426255Y-140386057D01*
X79453917Y-140342356D01*
X79470618Y-140312305D01*
X79472857Y-140305967D01*
X79455357Y-140303967D01*
X79405426Y-140302340D01*
X79326915Y-140301112D01*
X79223677Y-140300311D01*
X79099564Y-140299961D01*
X78958429Y-140300089D01*
G37*
X78958429Y-140300089D02*
X78804124Y-140300723D01*
X78751679Y-140301042D01*
X78030500Y-140305786D01*
X78021429Y-143072572D01*
X78020231Y-143447756D01*
X78019168Y-143788417D01*
X78018173Y-144096318D01*
X78017177Y-144373221D01*
X78016112Y-144620888D01*
X78014909Y-144841081D01*
X78013501Y-145035562D01*
X78011818Y-145206094D01*
X78009794Y-145354440D01*
X78007359Y-145482361D01*
X78004446Y-145591620D01*
X78000985Y-145683979D01*
X77996910Y-145761200D01*
X77992151Y-145825046D01*
X77986640Y-145877278D01*
X77980309Y-145919660D01*
X77973090Y-145953953D01*
X77964915Y-145981920D01*
X77955715Y-146005324D01*
X77945423Y-146025925D01*
X77933969Y-146045487D01*
X77921285Y-146065772D01*
X77907305Y-146088543D01*
X77904439Y-146093393D01*
X77856360Y-146175433D01*
X79246072Y-146165929D01*
X79255143Y-146013295D01*
X79260082Y-145940045D01*
X79265229Y-145897696D01*
X79272214Y-145880892D01*
X79282663Y-145884277D01*
X79291429Y-145893960D01*
X79329612Y-145929229D01*
X79391845Y-145974563D01*
X79469359Y-146024546D01*
X79553387Y-146073761D01*
X79635161Y-146116791D01*
X79697948Y-146145101D01*
X79845046Y-146191624D01*
X80013820Y-146224579D01*
X80191809Y-146242707D01*
X80366553Y-146244750D01*
X80525593Y-146229447D01*
X80528212Y-146229009D01*
X80745832Y-146174402D01*
X80949545Y-146087401D01*
X81137387Y-145969876D01*
X81307393Y-145823697D01*
X81457598Y-145650734D01*
X81586036Y-145452857D01*
X81690743Y-145231936D01*
X81747754Y-145068286D01*
X81785349Y-144931375D01*
X81813229Y-144798798D01*
X81832247Y-144662502D01*
X81843255Y-144514433D01*
X81847105Y-144346537D01*
X81845400Y-144209440D01*
X80506641Y-144209440D01*
X80500306Y-144439329D01*
X80480321Y-144637111D01*
X80446073Y-144804539D01*
X80396945Y-144943369D01*
X80332324Y-145055358D01*
X80251595Y-145142259D01*
X80158409Y-145203692D01*
X80109920Y-145226626D01*
X80067866Y-145240375D01*
X80020980Y-145246666D01*
X79957996Y-145247222D01*
X79890143Y-145244773D01*
X79756705Y-145233004D01*
X79651168Y-145209955D01*
X79618000Y-145198410D01*
X79542265Y-145164311D01*
X79462386Y-145121491D01*
X79427500Y-145100057D01*
X79336786Y-145040556D01*
X79336786Y-143154584D01*
X79436572Y-143094771D01*
X79575733Y-143027185D01*
X79717913Y-142987214D01*
X79857910Y-142974622D01*
X79990526Y-142989173D01*
X80110560Y-143030632D01*
X80212812Y-143098763D01*
X80245805Y-143131466D01*
X80325333Y-143238619D01*
X80389701Y-143368327D01*
X80439447Y-143522814D01*
X80475109Y-143704302D01*
X80497225Y-143915015D01*
X80506333Y-144157175D01*
X80506641Y-144209440D01*
X81845400Y-144209440D01*
X81844690Y-144152374D01*
X81829395Y-143853713D01*
X81798642Y-143584325D01*
X81751619Y-143340285D01*
X81687518Y-143117670D01*
X81605528Y-142912556D01*
X81576270Y-142851746D01*
X81458419Y-142653440D01*
X81316004Y-142477212D01*
X81152371Y-142325908D01*
X80970869Y-142202371D01*
X80774847Y-142109447D01*
X80657345Y-142071115D01*
X80541946Y-142048359D01*
X80403093Y-142034820D01*
X80252426Y-142030492D01*
X80101587Y-142035368D01*
X79962215Y-142049444D01*
X79850309Y-142071525D01*
X79717116Y-142114828D01*
X79588021Y-142170511D01*
X79475072Y-142232936D01*
X79414957Y-142275303D01*
X79373490Y-142306807D01*
X79344455Y-142325990D01*
X79337850Y-142328714D01*
X79335802Y-142311163D01*
X79333893Y-142260875D01*
X79332164Y-142181400D01*
X79330659Y-142076286D01*
X79329419Y-141949083D01*
X79328487Y-141803339D01*
X79327905Y-141642603D01*
X79327714Y-141478884D01*
X79327821Y-141269188D01*
X79328342Y-141092396D01*
X79329584Y-140945126D01*
X79331852Y-140823997D01*
X79335450Y-140725627D01*
X79340683Y-140646634D01*
X79347856Y-140583638D01*
X79357274Y-140533255D01*
X79369242Y-140492105D01*
X79384065Y-140456806D01*
X79402048Y-140423977D01*
X79423495Y-140390235D01*
X79426255Y-140386057D01*
X79453917Y-140342356D01*
X79470618Y-140312305D01*
X79472857Y-140305967D01*
X79455357Y-140303967D01*
X79405426Y-140302340D01*
X79326915Y-140301112D01*
X79223677Y-140300311D01*
X79099564Y-140299961D01*
X78958429Y-140300089D01*
G36*
X83814368Y-142027730D02*
G01*
X83724477Y-142034535D01*
X83467285Y-142068753D01*
X83239515Y-142123331D01*
X83040057Y-142199020D01*
X82867803Y-142296570D01*
X82721641Y-142416732D01*
X82600464Y-142560258D01*
X82503161Y-142727898D01*
X82432109Y-142909286D01*
X82414073Y-142967146D01*
X82398368Y-143021329D01*
X82384808Y-143074752D01*
X82373208Y-143130333D01*
X82363383Y-143190988D01*
X82355147Y-143259635D01*
X82348316Y-143339190D01*
X82342705Y-143432572D01*
X82338128Y-143542696D01*
X82334400Y-143672481D01*
X82331335Y-143824842D01*
X82328750Y-144002698D01*
X82326458Y-144208965D01*
X82324275Y-144446561D01*
X82322714Y-144632857D01*
X82312215Y-145911929D01*
X82244179Y-146035018D01*
X82211962Y-146094317D01*
X82187988Y-146140377D01*
X82176550Y-146164893D01*
X82176143Y-146166553D01*
X82193625Y-146168454D01*
X82243426Y-146170205D01*
X82321579Y-146171758D01*
X82424118Y-146173062D01*
X82547078Y-146174070D01*
X82686490Y-146174731D01*
X82838389Y-146174997D01*
X82856500Y-146175000D01*
X83536857Y-146175000D01*
X83536857Y-146020786D01*
X83538018Y-145951094D01*
X83541113Y-145897794D01*
X83545568Y-145869217D01*
X83547537Y-145866572D01*
X83565545Y-145877653D01*
X83602607Y-145906736D01*
X83650778Y-145947579D01*
X83651859Y-145948524D01*
X83739765Y-146013971D01*
X83850783Y-146079688D01*
X83972369Y-146139219D01*
X84091979Y-146186109D01*
X84144643Y-146202133D01*
X84249449Y-146222485D01*
X84378050Y-146235472D01*
X84518675Y-146240909D01*
X84659552Y-146238611D01*
X84788907Y-146228392D01*
X84879429Y-146213689D01*
X85101420Y-146148499D01*
X85301271Y-146055594D01*
X85477681Y-145936126D01*
X85629350Y-145791247D01*
X85754976Y-145622110D01*
X85853259Y-145429867D01*
X85895659Y-145313214D01*
X85922232Y-145199833D01*
X85939842Y-145063722D01*
X85947990Y-144917437D01*
X85947722Y-144896151D01*
X84720679Y-144896151D01*
X84710504Y-145004850D01*
X84676622Y-145095185D01*
X84614000Y-145178995D01*
X84589948Y-145203571D01*
X84504449Y-145270011D01*
X84405627Y-145312574D01*
X84287232Y-145333177D01*
X84162555Y-145334694D01*
X84044302Y-145324677D01*
X83953761Y-145305085D01*
X83914440Y-145290370D01*
X83843568Y-145250265D01*
X83768475Y-145193863D01*
X83699962Y-145130561D01*
X83648828Y-145069755D01*
X83635250Y-145047449D01*
X83624695Y-145016212D01*
X83617190Y-144966507D01*
X83612387Y-144893587D01*
X83609935Y-144792703D01*
X83609429Y-144696689D01*
X83609772Y-144584750D01*
X83611157Y-144503809D01*
X83614119Y-144448585D01*
X83619192Y-144413794D01*
X83626910Y-144394154D01*
X83637808Y-144384380D01*
X83641179Y-144382824D01*
X83670471Y-144378029D01*
X83728244Y-144374108D01*
X83806696Y-144371414D01*
X83898026Y-144370299D01*
X83917857Y-144370298D01*
X84039937Y-144372246D01*
X84134251Y-144378041D01*
X84209193Y-144388475D01*
X84271097Y-144403714D01*
X84424651Y-144461784D01*
X84545068Y-144533179D01*
X84633390Y-144619039D01*
X84690661Y-144720507D01*
X84717922Y-144838725D01*
X84720679Y-144896151D01*
X85947722Y-144896151D01*
X85946177Y-144773533D01*
X85933904Y-144644565D01*
X85924330Y-144592460D01*
X85863199Y-144398997D01*
X85770243Y-144220993D01*
X85647217Y-144060155D01*
X85495876Y-143918190D01*
X85317975Y-143796806D01*
X85115268Y-143697709D01*
X84942929Y-143637533D01*
X84827747Y-143605919D01*
X84717577Y-143581354D01*
X84605281Y-143563039D01*
X84483725Y-143550178D01*
X84345771Y-143541972D01*
X84184285Y-143537624D01*
X84038285Y-143536400D01*
X83605355Y-143535215D01*
X83613649Y-143405080D01*
X83637199Y-143263883D01*
X83687297Y-143142518D01*
X83761809Y-143044017D01*
X83858601Y-142971409D01*
X83943829Y-142935979D01*
X84065944Y-142913650D01*
X84211317Y-142910443D01*
X84373133Y-142925177D01*
X84544578Y-142956670D01*
X84718837Y-143003740D01*
X84889096Y-143065203D01*
X85012824Y-143121417D01*
X85072353Y-143150283D01*
X85117758Y-143170443D01*
X85140850Y-143178310D01*
X85142103Y-143178058D01*
X85150071Y-143160437D01*
X85169969Y-143113733D01*
X85199923Y-143042418D01*
X85238061Y-142950969D01*
X85282512Y-142843859D01*
X85327695Y-142734549D01*
X85508333Y-142296740D01*
X85379845Y-142275636D01*
X85324154Y-142265047D01*
X85240436Y-142247263D01*
X85135861Y-142223898D01*
X85017601Y-142196565D01*
X84892828Y-142166881D01*
X84843143Y-142154818D01*
X84628193Y-142104962D01*
X84440005Y-142067584D01*
X84271554Y-142041927D01*
X84115814Y-142027235D01*
X83965760Y-142022755D01*
X83814368Y-142027730D01*
G37*
X83814368Y-142027730D02*
X83724477Y-142034535D01*
X83467285Y-142068753D01*
X83239515Y-142123331D01*
X83040057Y-142199020D01*
X82867803Y-142296570D01*
X82721641Y-142416732D01*
X82600464Y-142560258D01*
X82503161Y-142727898D01*
X82432109Y-142909286D01*
X82414073Y-142967146D01*
X82398368Y-143021329D01*
X82384808Y-143074752D01*
X82373208Y-143130333D01*
X82363383Y-143190988D01*
X82355147Y-143259635D01*
X82348316Y-143339190D01*
X82342705Y-143432572D01*
X82338128Y-143542696D01*
X82334400Y-143672481D01*
X82331335Y-143824842D01*
X82328750Y-144002698D01*
X82326458Y-144208965D01*
X82324275Y-144446561D01*
X82322714Y-144632857D01*
X82312215Y-145911929D01*
X82244179Y-146035018D01*
X82211962Y-146094317D01*
X82187988Y-146140377D01*
X82176550Y-146164893D01*
X82176143Y-146166553D01*
X82193625Y-146168454D01*
X82243426Y-146170205D01*
X82321579Y-146171758D01*
X82424118Y-146173062D01*
X82547078Y-146174070D01*
X82686490Y-146174731D01*
X82838389Y-146174997D01*
X82856500Y-146175000D01*
X83536857Y-146175000D01*
X83536857Y-146020786D01*
X83538018Y-145951094D01*
X83541113Y-145897794D01*
X83545568Y-145869217D01*
X83547537Y-145866572D01*
X83565545Y-145877653D01*
X83602607Y-145906736D01*
X83650778Y-145947579D01*
X83651859Y-145948524D01*
X83739765Y-146013971D01*
X83850783Y-146079688D01*
X83972369Y-146139219D01*
X84091979Y-146186109D01*
X84144643Y-146202133D01*
X84249449Y-146222485D01*
X84378050Y-146235472D01*
X84518675Y-146240909D01*
X84659552Y-146238611D01*
X84788907Y-146228392D01*
X84879429Y-146213689D01*
X85101420Y-146148499D01*
X85301271Y-146055594D01*
X85477681Y-145936126D01*
X85629350Y-145791247D01*
X85754976Y-145622110D01*
X85853259Y-145429867D01*
X85895659Y-145313214D01*
X85922232Y-145199833D01*
X85939842Y-145063722D01*
X85947990Y-144917437D01*
X85947722Y-144896151D01*
X84720679Y-144896151D01*
X84710504Y-145004850D01*
X84676622Y-145095185D01*
X84614000Y-145178995D01*
X84589948Y-145203571D01*
X84504449Y-145270011D01*
X84405627Y-145312574D01*
X84287232Y-145333177D01*
X84162555Y-145334694D01*
X84044302Y-145324677D01*
X83953761Y-145305085D01*
X83914440Y-145290370D01*
X83843568Y-145250265D01*
X83768475Y-145193863D01*
X83699962Y-145130561D01*
X83648828Y-145069755D01*
X83635250Y-145047449D01*
X83624695Y-145016212D01*
X83617190Y-144966507D01*
X83612387Y-144893587D01*
X83609935Y-144792703D01*
X83609429Y-144696689D01*
X83609772Y-144584750D01*
X83611157Y-144503809D01*
X83614119Y-144448585D01*
X83619192Y-144413794D01*
X83626910Y-144394154D01*
X83637808Y-144384380D01*
X83641179Y-144382824D01*
X83670471Y-144378029D01*
X83728244Y-144374108D01*
X83806696Y-144371414D01*
X83898026Y-144370299D01*
X83917857Y-144370298D01*
X84039937Y-144372246D01*
X84134251Y-144378041D01*
X84209193Y-144388475D01*
X84271097Y-144403714D01*
X84424651Y-144461784D01*
X84545068Y-144533179D01*
X84633390Y-144619039D01*
X84690661Y-144720507D01*
X84717922Y-144838725D01*
X84720679Y-144896151D01*
X85947722Y-144896151D01*
X85946177Y-144773533D01*
X85933904Y-144644565D01*
X85924330Y-144592460D01*
X85863199Y-144398997D01*
X85770243Y-144220993D01*
X85647217Y-144060155D01*
X85495876Y-143918190D01*
X85317975Y-143796806D01*
X85115268Y-143697709D01*
X84942929Y-143637533D01*
X84827747Y-143605919D01*
X84717577Y-143581354D01*
X84605281Y-143563039D01*
X84483725Y-143550178D01*
X84345771Y-143541972D01*
X84184285Y-143537624D01*
X84038285Y-143536400D01*
X83605355Y-143535215D01*
X83613649Y-143405080D01*
X83637199Y-143263883D01*
X83687297Y-143142518D01*
X83761809Y-143044017D01*
X83858601Y-142971409D01*
X83943829Y-142935979D01*
X84065944Y-142913650D01*
X84211317Y-142910443D01*
X84373133Y-142925177D01*
X84544578Y-142956670D01*
X84718837Y-143003740D01*
X84889096Y-143065203D01*
X85012824Y-143121417D01*
X85072353Y-143150283D01*
X85117758Y-143170443D01*
X85140850Y-143178310D01*
X85142103Y-143178058D01*
X85150071Y-143160437D01*
X85169969Y-143113733D01*
X85199923Y-143042418D01*
X85238061Y-142950969D01*
X85282512Y-142843859D01*
X85327695Y-142734549D01*
X85508333Y-142296740D01*
X85379845Y-142275636D01*
X85324154Y-142265047D01*
X85240436Y-142247263D01*
X85135861Y-142223898D01*
X85017601Y-142196565D01*
X84892828Y-142166881D01*
X84843143Y-142154818D01*
X84628193Y-142104962D01*
X84440005Y-142067584D01*
X84271554Y-142041927D01*
X84115814Y-142027235D01*
X83965760Y-142022755D01*
X83814368Y-142027730D01*
G36*
X87418622Y-140569231D02*
G01*
X87222981Y-140590649D01*
X87033438Y-140628985D01*
X86842283Y-140686238D01*
X86641804Y-140764409D01*
X86424292Y-140865496D01*
X86385120Y-140885076D01*
X86295228Y-140929362D01*
X86210447Y-140969239D01*
X86139145Y-141000898D01*
X86089690Y-141020532D01*
X86082092Y-141023004D01*
X86009286Y-141044817D01*
X86335197Y-141518944D01*
X86414877Y-141634823D01*
X86487728Y-141740694D01*
X86551270Y-141832962D01*
X86603028Y-141908033D01*
X86640523Y-141962313D01*
X86661277Y-141992207D01*
X86664649Y-141996941D01*
X86678345Y-141987042D01*
X86712057Y-141957285D01*
X86759756Y-141913073D01*
X86786080Y-141888084D01*
X86935228Y-141769456D01*
X87102732Y-141679313D01*
X87247072Y-141629936D01*
X87333717Y-141614429D01*
X87442204Y-141604979D01*
X87559773Y-141601761D01*
X87673666Y-141604951D01*
X87771121Y-141614724D01*
X87810010Y-141622209D01*
X87985288Y-141682512D01*
X88143235Y-141774590D01*
X88283732Y-141898273D01*
X88406665Y-142053393D01*
X88511915Y-142239781D01*
X88599365Y-142457270D01*
X88668900Y-142705692D01*
X88710225Y-142918357D01*
X88721006Y-143012241D01*
X88728352Y-143133524D01*
X88732333Y-143273493D01*
X88733021Y-143423431D01*
X88730486Y-143574622D01*
X88724800Y-143718351D01*
X88716033Y-143845903D01*
X88704256Y-143948562D01*
X88701707Y-143964401D01*
X88645519Y-144219536D01*
X88568964Y-144445342D01*
X88471574Y-144642831D01*
X88352886Y-144813014D01*
X88268637Y-144905022D01*
X88117230Y-145029943D01*
X87951183Y-145122540D01*
X87773299Y-145182309D01*
X87586378Y-145208746D01*
X87393222Y-145201348D01*
X87196631Y-145159611D01*
X87080403Y-145118771D01*
X86919562Y-145036990D01*
X86753787Y-144919678D01*
X86660927Y-144840345D01*
X86608786Y-144794429D01*
X86567820Y-144760742D01*
X86544502Y-144744510D01*
X86541607Y-144744015D01*
X86531200Y-144760601D01*
X86504233Y-144804432D01*
X86463004Y-144871748D01*
X86409811Y-144958794D01*
X86346950Y-145061810D01*
X86276719Y-145177041D01*
X86237628Y-145241231D01*
X85939036Y-145731677D01*
X86311839Y-145915915D01*
X86446631Y-145982093D01*
X86555825Y-146034278D01*
X86646093Y-146075060D01*
X86724112Y-146107033D01*
X86796556Y-146132787D01*
X86870099Y-146154914D01*
X86951416Y-146176007D01*
X87029357Y-146194530D01*
X87098634Y-146208863D01*
X87171083Y-146219694D01*
X87253958Y-146227626D01*
X87354512Y-146233258D01*
X87479997Y-146237192D01*
X87564572Y-146238891D01*
X87685246Y-146240050D01*
X87800958Y-146239465D01*
X87904049Y-146237304D01*
X87986862Y-146233732D01*
X88041740Y-146228917D01*
X88044992Y-146228437D01*
X88329957Y-146166786D01*
X88597558Y-146073285D01*
X88847703Y-145947993D01*
X89080296Y-145790974D01*
X89295243Y-145602289D01*
X89492450Y-145382000D01*
X89635273Y-145186214D01*
X89787320Y-144929949D01*
X89910227Y-144659317D01*
X90004590Y-144372149D01*
X90071001Y-144066276D01*
X90110056Y-143739528D01*
X90122360Y-143407739D01*
X90112241Y-143086779D01*
X90080439Y-142790646D01*
X90025946Y-142514345D01*
X89947750Y-142252881D01*
X89844841Y-142001258D01*
X89832553Y-141975190D01*
X89697180Y-141731507D01*
X89530911Y-141499618D01*
X89338459Y-141284323D01*
X89124534Y-141090422D01*
X88893845Y-140922715D01*
X88678891Y-140799696D01*
X88461742Y-140703345D01*
X88244132Y-140633551D01*
X88017638Y-140588413D01*
X87773834Y-140566031D01*
X87628072Y-140562731D01*
X87418622Y-140569231D01*
G37*
X87418622Y-140569231D02*
X87222981Y-140590649D01*
X87033438Y-140628985D01*
X86842283Y-140686238D01*
X86641804Y-140764409D01*
X86424292Y-140865496D01*
X86385120Y-140885076D01*
X86295228Y-140929362D01*
X86210447Y-140969239D01*
X86139145Y-141000898D01*
X86089690Y-141020532D01*
X86082092Y-141023004D01*
X86009286Y-141044817D01*
X86335197Y-141518944D01*
X86414877Y-141634823D01*
X86487728Y-141740694D01*
X86551270Y-141832962D01*
X86603028Y-141908033D01*
X86640523Y-141962313D01*
X86661277Y-141992207D01*
X86664649Y-141996941D01*
X86678345Y-141987042D01*
X86712057Y-141957285D01*
X86759756Y-141913073D01*
X86786080Y-141888084D01*
X86935228Y-141769456D01*
X87102732Y-141679313D01*
X87247072Y-141629936D01*
X87333717Y-141614429D01*
X87442204Y-141604979D01*
X87559773Y-141601761D01*
X87673666Y-141604951D01*
X87771121Y-141614724D01*
X87810010Y-141622209D01*
X87985288Y-141682512D01*
X88143235Y-141774590D01*
X88283732Y-141898273D01*
X88406665Y-142053393D01*
X88511915Y-142239781D01*
X88599365Y-142457270D01*
X88668900Y-142705692D01*
X88710225Y-142918357D01*
X88721006Y-143012241D01*
X88728352Y-143133524D01*
X88732333Y-143273493D01*
X88733021Y-143423431D01*
X88730486Y-143574622D01*
X88724800Y-143718351D01*
X88716033Y-143845903D01*
X88704256Y-143948562D01*
X88701707Y-143964401D01*
X88645519Y-144219536D01*
X88568964Y-144445342D01*
X88471574Y-144642831D01*
X88352886Y-144813014D01*
X88268637Y-144905022D01*
X88117230Y-145029943D01*
X87951183Y-145122540D01*
X87773299Y-145182309D01*
X87586378Y-145208746D01*
X87393222Y-145201348D01*
X87196631Y-145159611D01*
X87080403Y-145118771D01*
X86919562Y-145036990D01*
X86753787Y-144919678D01*
X86660927Y-144840345D01*
X86608786Y-144794429D01*
X86567820Y-144760742D01*
X86544502Y-144744510D01*
X86541607Y-144744015D01*
X86531200Y-144760601D01*
X86504233Y-144804432D01*
X86463004Y-144871748D01*
X86409811Y-144958794D01*
X86346950Y-145061810D01*
X86276719Y-145177041D01*
X86237628Y-145241231D01*
X85939036Y-145731677D01*
X86311839Y-145915915D01*
X86446631Y-145982093D01*
X86555825Y-146034278D01*
X86646093Y-146075060D01*
X86724112Y-146107033D01*
X86796556Y-146132787D01*
X86870099Y-146154914D01*
X86951416Y-146176007D01*
X87029357Y-146194530D01*
X87098634Y-146208863D01*
X87171083Y-146219694D01*
X87253958Y-146227626D01*
X87354512Y-146233258D01*
X87479997Y-146237192D01*
X87564572Y-146238891D01*
X87685246Y-146240050D01*
X87800958Y-146239465D01*
X87904049Y-146237304D01*
X87986862Y-146233732D01*
X88041740Y-146228917D01*
X88044992Y-146228437D01*
X88329957Y-146166786D01*
X88597558Y-146073285D01*
X88847703Y-145947993D01*
X89080296Y-145790974D01*
X89295243Y-145602289D01*
X89492450Y-145382000D01*
X89635273Y-145186214D01*
X89787320Y-144929949D01*
X89910227Y-144659317D01*
X90004590Y-144372149D01*
X90071001Y-144066276D01*
X90110056Y-143739528D01*
X90122360Y-143407739D01*
X90112241Y-143086779D01*
X90080439Y-142790646D01*
X90025946Y-142514345D01*
X89947750Y-142252881D01*
X89844841Y-142001258D01*
X89832553Y-141975190D01*
X89697180Y-141731507D01*
X89530911Y-141499618D01*
X89338459Y-141284323D01*
X89124534Y-141090422D01*
X88893845Y-140922715D01*
X88678891Y-140799696D01*
X88461742Y-140703345D01*
X88244132Y-140633551D01*
X88017638Y-140588413D01*
X87773834Y-140566031D01*
X87628072Y-140562731D01*
X87418622Y-140569231D01*
G36*
X95870089Y-139661660D02*
G01*
X95520540Y-139661707D01*
X95357830Y-139661714D01*
X92753429Y-139661715D01*
X92753429Y-139815238D01*
X92737043Y-140002063D01*
X92687588Y-140174367D01*
X92604620Y-140333175D01*
X92487695Y-140479510D01*
X92448136Y-140519032D01*
X92305830Y-140631138D01*
X92148922Y-140712899D01*
X91982072Y-140764353D01*
X91809939Y-140785537D01*
X91637185Y-140776487D01*
X91468470Y-140737242D01*
X91308454Y-140667838D01*
X91161798Y-140568311D01*
X91095932Y-140508265D01*
X90973192Y-140361043D01*
X90883188Y-140199147D01*
X90826706Y-140024427D01*
X90804529Y-139838735D01*
X90804234Y-139820467D01*
X90803072Y-139661720D01*
X90733300Y-139661717D01*
X90671405Y-139670118D01*
X90614865Y-139690556D01*
X90611128Y-139692667D01*
X90598358Y-139699293D01*
X90586632Y-139704454D01*
X90575906Y-139709651D01*
X90566139Y-139716390D01*
X90557288Y-139726171D01*
X90549311Y-139740500D01*
X90542165Y-139760878D01*
X90535808Y-139788808D01*
X90530198Y-139825795D01*
X90525293Y-139873340D01*
X90521049Y-139932947D01*
X90517424Y-140006119D01*
X90514377Y-140094359D01*
X90511864Y-140199170D01*
X90509844Y-140322055D01*
X90508274Y-140464517D01*
X90507112Y-140628060D01*
X90506314Y-140814186D01*
X90505840Y-141024398D01*
X90505646Y-141260200D01*
X90505690Y-141523094D01*
X90505930Y-141814584D01*
X90506323Y-142136172D01*
X90506827Y-142489362D01*
X90507400Y-142875657D01*
X90507999Y-143296560D01*
X90508068Y-143347840D01*
X90508605Y-143771426D01*
X90509061Y-144160230D01*
X90509484Y-144515753D01*
X90509921Y-144839498D01*
X90510422Y-145132966D01*
X90511035Y-145397661D01*
X90511808Y-145635085D01*
X90512789Y-145846740D01*
X90514026Y-146034129D01*
X90515568Y-146198754D01*
X90517463Y-146342117D01*
X90519759Y-146465720D01*
X90522504Y-146571067D01*
X90525747Y-146659659D01*
X90529536Y-146733000D01*
X90533919Y-146792590D01*
X90538945Y-146839933D01*
X90544661Y-146876531D01*
X90551116Y-146903886D01*
X90558359Y-146923502D01*
X90566437Y-146936879D01*
X90575398Y-146945521D01*
X90585292Y-146950930D01*
X90596165Y-146954608D01*
X90608067Y-146958058D01*
X90621046Y-146962782D01*
X90624217Y-146964220D01*
X90634181Y-146967451D01*
X90650859Y-146970420D01*
X90675707Y-146973137D01*
X90710180Y-146975613D01*
X90755736Y-146977858D01*
X90813830Y-146979883D01*
X90885919Y-146981698D01*
X90973458Y-146983315D01*
X91077905Y-146984743D01*
X91200715Y-146985993D01*
X91343345Y-146987076D01*
X91507251Y-146988002D01*
X91693890Y-146988782D01*
X91904716Y-146989426D01*
X92141188Y-146989946D01*
X92404761Y-146990351D01*
X92696890Y-146990652D01*
X93019034Y-146990860D01*
X93372647Y-146990985D01*
X93759186Y-146991038D01*
X94180108Y-146991029D01*
X94316456Y-146991016D01*
X94746716Y-146990947D01*
X95142164Y-146990834D01*
X95504273Y-146990665D01*
X95834517Y-146990430D01*
X96134371Y-146990116D01*
X96405308Y-146989713D01*
X96648800Y-146989207D01*
X96866323Y-146988589D01*
X97059350Y-146987846D01*
X97229354Y-146986968D01*
X97377810Y-146985941D01*
X97506190Y-146984756D01*
X97615969Y-146983400D01*
X97708620Y-146981862D01*
X97785617Y-146980130D01*
X97848434Y-146978194D01*
X97898544Y-146976040D01*
X97937421Y-146973659D01*
X97966538Y-146971037D01*
X97987371Y-146968165D01*
X98001391Y-146965030D01*
X98009034Y-146962159D01*
X98022618Y-146956430D01*
X98035090Y-146952206D01*
X98046498Y-146947985D01*
X98056889Y-146942268D01*
X98066309Y-146933555D01*
X98074808Y-146920345D01*
X98082430Y-146901137D01*
X98089225Y-146874433D01*
X98095238Y-146838730D01*
X98100517Y-146792530D01*
X98105110Y-146734332D01*
X98109064Y-146662635D01*
X98112425Y-146575940D01*
X98115241Y-146472746D01*
X98117560Y-146351553D01*
X98119428Y-146210860D01*
X98119916Y-146156857D01*
X97635704Y-146156857D01*
X95924256Y-146156857D01*
X95957187Y-146106964D01*
X95989947Y-146055693D01*
X96017689Y-146006869D01*
X96040807Y-145957076D01*
X96059697Y-145902898D01*
X96074751Y-145840916D01*
X96086367Y-145767715D01*
X96094936Y-145679878D01*
X96100856Y-145573988D01*
X96104519Y-145446628D01*
X96106321Y-145294381D01*
X96106656Y-145113832D01*
X96105919Y-144901562D01*
X96105501Y-144822755D01*
X96100786Y-143977911D01*
X95565572Y-144706557D01*
X95413946Y-144913265D01*
X95282581Y-145093260D01*
X95170057Y-145248925D01*
X95074957Y-145382647D01*
X94995862Y-145496809D01*
X94931353Y-145593797D01*
X94880012Y-145675994D01*
X94840420Y-145745786D01*
X94811160Y-145805558D01*
X94790812Y-145857693D01*
X94777958Y-145904576D01*
X94771181Y-145948593D01*
X94769060Y-145992127D01*
X94770179Y-146037564D01*
X94770464Y-146043275D01*
X94776357Y-146156933D01*
X92900771Y-146156857D01*
X93040278Y-146016189D01*
X93078135Y-145977715D01*
X93114047Y-145940279D01*
X93149593Y-145901814D01*
X93186347Y-145860258D01*
X93225886Y-145813545D01*
X93269786Y-145759610D01*
X93319623Y-145696390D01*
X93376972Y-145621818D01*
X93443411Y-145533832D01*
X93520515Y-145430365D01*
X93609861Y-145309354D01*
X93713024Y-145168734D01*
X93831580Y-145006440D01*
X93967105Y-144820407D01*
X94121177Y-144608571D01*
X94247462Y-144434804D01*
X94405954Y-144216501D01*
X94544216Y-144025629D01*
X94663499Y-143860374D01*
X94765057Y-143718926D01*
X94850141Y-143599471D01*
X94920005Y-143500198D01*
X94975900Y-143419295D01*
X95019080Y-143354949D01*
X95050797Y-143305347D01*
X95072302Y-143268679D01*
X95084850Y-143243132D01*
X95089692Y-143226893D01*
X95088237Y-143218355D01*
X95070599Y-143195635D01*
X95032466Y-143147543D01*
X94976138Y-143076938D01*
X94903916Y-142986678D01*
X94818101Y-142879621D01*
X94720994Y-142758627D01*
X94614896Y-142626554D01*
X94502109Y-142486260D01*
X94384932Y-142340603D01*
X94265667Y-142192444D01*
X94200067Y-142111000D01*
X92571314Y-142111000D01*
X92503621Y-142233465D01*
X92435929Y-142355929D01*
X92435929Y-145911929D01*
X92503621Y-146034393D01*
X92571314Y-146156857D01*
X91770559Y-146156857D01*
X91579398Y-146156802D01*
X91421501Y-146156551D01*
X91293848Y-146155979D01*
X91193419Y-146154959D01*
X91117193Y-146153365D01*
X91062148Y-146151070D01*
X91025264Y-146147950D01*
X91003521Y-146143877D01*
X90993898Y-146138725D01*
X90993373Y-146132367D01*
X90998926Y-146124679D01*
X90998984Y-146124615D01*
X91021860Y-146091524D01*
X91052151Y-146037719D01*
X91078903Y-145984008D01*
X91129643Y-145875643D01*
X91134818Y-143993322D01*
X91139993Y-142111000D01*
X92571314Y-142111000D01*
X94200067Y-142111000D01*
X94146615Y-142044639D01*
X94030077Y-141900047D01*
X93918354Y-141761528D01*
X93813746Y-141631939D01*
X93718556Y-141514140D01*
X93635083Y-141410988D01*
X93565629Y-141325343D01*
X93512494Y-141260062D01*
X93481285Y-141222000D01*
X93360097Y-141079670D01*
X93243507Y-140951230D01*
X93135603Y-140840886D01*
X93040470Y-140752841D01*
X92972957Y-140698862D01*
X92893127Y-140641429D01*
X94729108Y-140641429D01*
X94728592Y-140749165D01*
X94733724Y-140828372D01*
X94753015Y-140901805D01*
X94782877Y-140971415D01*
X94802288Y-141010741D01*
X94823159Y-141049707D01*
X94847396Y-141090901D01*
X94876906Y-141136908D01*
X94913594Y-141190317D01*
X94959368Y-141253714D01*
X95016135Y-141329685D01*
X95085800Y-141420817D01*
X95170270Y-141529698D01*
X95271453Y-141658914D01*
X95391253Y-141811052D01*
X95531579Y-141988698D01*
X95547429Y-142008742D01*
X96100786Y-142708508D01*
X96106143Y-141933504D01*
X96107221Y-141701368D01*
X96106992Y-141504846D01*
X96105443Y-141343292D01*
X96102563Y-141216056D01*
X96098341Y-141122492D01*
X96092766Y-141061952D01*
X96090893Y-141050468D01*
X96061495Y-140929499D01*
X96022978Y-140820446D01*
X95979026Y-140732763D01*
X95952621Y-140695574D01*
X95907060Y-140641429D01*
X96771530Y-140641429D01*
X96977745Y-140641605D01*
X97150188Y-140642179D01*
X97291373Y-140643217D01*
X97403812Y-140644787D01*
X97490017Y-140646954D01*
X97552502Y-140649788D01*
X97593779Y-140653353D01*
X97616360Y-140657718D01*
X97622759Y-140662949D01*
X97622317Y-140664107D01*
X97603991Y-140691769D01*
X97573396Y-140735615D01*
X97557567Y-140757791D01*
X97541202Y-140779920D01*
X97526492Y-140799709D01*
X97513344Y-140819106D01*
X97501667Y-140840058D01*
X97491368Y-140864512D01*
X97482354Y-140894416D01*
X97474532Y-140931717D01*
X97467809Y-140978363D01*
X97462094Y-141036301D01*
X97457293Y-141107479D01*
X97453315Y-141193844D01*
X97450065Y-141297344D01*
X97447452Y-141419925D01*
X97445383Y-141563537D01*
X97443766Y-141730125D01*
X97442507Y-141921637D01*
X97441515Y-142140022D01*
X97440696Y-142387226D01*
X97439958Y-142665196D01*
X97439209Y-142975881D01*
X97438508Y-143261300D01*
X97437847Y-143579492D01*
X97437503Y-143883077D01*
X97437468Y-144170115D01*
X97437732Y-144438669D01*
X97438285Y-144686798D01*
X97439120Y-144912563D01*
X97440227Y-145114026D01*
X97441596Y-145289246D01*
X97443219Y-145436286D01*
X97445087Y-145553206D01*
X97447189Y-145638067D01*
X97449518Y-145688929D01*
X97449959Y-145694304D01*
X97466008Y-145817613D01*
X97491064Y-145916644D01*
X97529221Y-146003070D01*
X97584572Y-146088565D01*
X97591496Y-146097893D01*
X97635704Y-146156857D01*
X98119916Y-146156857D01*
X98120892Y-146049168D01*
X98122001Y-145864976D01*
X98122801Y-145656784D01*
X98123339Y-145423091D01*
X98123662Y-145162398D01*
X98123817Y-144873204D01*
X98123854Y-144554009D01*
X98123817Y-144203313D01*
X98123755Y-143819614D01*
X98123715Y-143401414D01*
X98123714Y-143318393D01*
X98123691Y-142895789D01*
X98123612Y-142507981D01*
X98123467Y-142153480D01*
X98123244Y-141830797D01*
X98122931Y-141538442D01*
X98122517Y-141274927D01*
X98121991Y-141038762D01*
X98121340Y-140828458D01*
X98120553Y-140642526D01*
X98119619Y-140479475D01*
X98118526Y-140337818D01*
X98117263Y-140216064D01*
X98115817Y-140112725D01*
X98114179Y-140026311D01*
X98112334Y-139955333D01*
X98110274Y-139898301D01*
X98107985Y-139853727D01*
X98105456Y-139820121D01*
X98102676Y-139795993D01*
X98099633Y-139779856D01*
X98096316Y-139770218D01*
X98096193Y-139769978D01*
X98089360Y-139755255D01*
X98083670Y-139741926D01*
X98077374Y-139729922D01*
X98068728Y-139719173D01*
X98055986Y-139709611D01*
X98037400Y-139701167D01*
X98011226Y-139693771D01*
X97975716Y-139687354D01*
X97929125Y-139681848D01*
X97869707Y-139677183D01*
X97795715Y-139673291D01*
X97705403Y-139670102D01*
X97597025Y-139667547D01*
X97468835Y-139665558D01*
X97319087Y-139664065D01*
X97146034Y-139662998D01*
X96947931Y-139662291D01*
X96723031Y-139661872D01*
X96469588Y-139661673D01*
X96185856Y-139661626D01*
X95870089Y-139661660D01*
G37*
X95870089Y-139661660D02*
X95520540Y-139661707D01*
X95357830Y-139661714D01*
X92753429Y-139661715D01*
X92753429Y-139815238D01*
X92737043Y-140002063D01*
X92687588Y-140174367D01*
X92604620Y-140333175D01*
X92487695Y-140479510D01*
X92448136Y-140519032D01*
X92305830Y-140631138D01*
X92148922Y-140712899D01*
X91982072Y-140764353D01*
X91809939Y-140785537D01*
X91637185Y-140776487D01*
X91468470Y-140737242D01*
X91308454Y-140667838D01*
X91161798Y-140568311D01*
X91095932Y-140508265D01*
X90973192Y-140361043D01*
X90883188Y-140199147D01*
X90826706Y-140024427D01*
X90804529Y-139838735D01*
X90804234Y-139820467D01*
X90803072Y-139661720D01*
X90733300Y-139661717D01*
X90671405Y-139670118D01*
X90614865Y-139690556D01*
X90611128Y-139692667D01*
X90598358Y-139699293D01*
X90586632Y-139704454D01*
X90575906Y-139709651D01*
X90566139Y-139716390D01*
X90557288Y-139726171D01*
X90549311Y-139740500D01*
X90542165Y-139760878D01*
X90535808Y-139788808D01*
X90530198Y-139825795D01*
X90525293Y-139873340D01*
X90521049Y-139932947D01*
X90517424Y-140006119D01*
X90514377Y-140094359D01*
X90511864Y-140199170D01*
X90509844Y-140322055D01*
X90508274Y-140464517D01*
X90507112Y-140628060D01*
X90506314Y-140814186D01*
X90505840Y-141024398D01*
X90505646Y-141260200D01*
X90505690Y-141523094D01*
X90505930Y-141814584D01*
X90506323Y-142136172D01*
X90506827Y-142489362D01*
X90507400Y-142875657D01*
X90507999Y-143296560D01*
X90508068Y-143347840D01*
X90508605Y-143771426D01*
X90509061Y-144160230D01*
X90509484Y-144515753D01*
X90509921Y-144839498D01*
X90510422Y-145132966D01*
X90511035Y-145397661D01*
X90511808Y-145635085D01*
X90512789Y-145846740D01*
X90514026Y-146034129D01*
X90515568Y-146198754D01*
X90517463Y-146342117D01*
X90519759Y-146465720D01*
X90522504Y-146571067D01*
X90525747Y-146659659D01*
X90529536Y-146733000D01*
X90533919Y-146792590D01*
X90538945Y-146839933D01*
X90544661Y-146876531D01*
X90551116Y-146903886D01*
X90558359Y-146923502D01*
X90566437Y-146936879D01*
X90575398Y-146945521D01*
X90585292Y-146950930D01*
X90596165Y-146954608D01*
X90608067Y-146958058D01*
X90621046Y-146962782D01*
X90624217Y-146964220D01*
X90634181Y-146967451D01*
X90650859Y-146970420D01*
X90675707Y-146973137D01*
X90710180Y-146975613D01*
X90755736Y-146977858D01*
X90813830Y-146979883D01*
X90885919Y-146981698D01*
X90973458Y-146983315D01*
X91077905Y-146984743D01*
X91200715Y-146985993D01*
X91343345Y-146987076D01*
X91507251Y-146988002D01*
X91693890Y-146988782D01*
X91904716Y-146989426D01*
X92141188Y-146989946D01*
X92404761Y-146990351D01*
X92696890Y-146990652D01*
X93019034Y-146990860D01*
X93372647Y-146990985D01*
X93759186Y-146991038D01*
X94180108Y-146991029D01*
X94316456Y-146991016D01*
X94746716Y-146990947D01*
X95142164Y-146990834D01*
X95504273Y-146990665D01*
X95834517Y-146990430D01*
X96134371Y-146990116D01*
X96405308Y-146989713D01*
X96648800Y-146989207D01*
X96866323Y-146988589D01*
X97059350Y-146987846D01*
X97229354Y-146986968D01*
X97377810Y-146985941D01*
X97506190Y-146984756D01*
X97615969Y-146983400D01*
X97708620Y-146981862D01*
X97785617Y-146980130D01*
X97848434Y-146978194D01*
X97898544Y-146976040D01*
X97937421Y-146973659D01*
X97966538Y-146971037D01*
X97987371Y-146968165D01*
X98001391Y-146965030D01*
X98009034Y-146962159D01*
X98022618Y-146956430D01*
X98035090Y-146952206D01*
X98046498Y-146947985D01*
X98056889Y-146942268D01*
X98066309Y-146933555D01*
X98074808Y-146920345D01*
X98082430Y-146901137D01*
X98089225Y-146874433D01*
X98095238Y-146838730D01*
X98100517Y-146792530D01*
X98105110Y-146734332D01*
X98109064Y-146662635D01*
X98112425Y-146575940D01*
X98115241Y-146472746D01*
X98117560Y-146351553D01*
X98119428Y-146210860D01*
X98119916Y-146156857D01*
X97635704Y-146156857D01*
X95924256Y-146156857D01*
X95957187Y-146106964D01*
X95989947Y-146055693D01*
X96017689Y-146006869D01*
X96040807Y-145957076D01*
X96059697Y-145902898D01*
X96074751Y-145840916D01*
X96086367Y-145767715D01*
X96094936Y-145679878D01*
X96100856Y-145573988D01*
X96104519Y-145446628D01*
X96106321Y-145294381D01*
X96106656Y-145113832D01*
X96105919Y-144901562D01*
X96105501Y-144822755D01*
X96100786Y-143977911D01*
X95565572Y-144706557D01*
X95413946Y-144913265D01*
X95282581Y-145093260D01*
X95170057Y-145248925D01*
X95074957Y-145382647D01*
X94995862Y-145496809D01*
X94931353Y-145593797D01*
X94880012Y-145675994D01*
X94840420Y-145745786D01*
X94811160Y-145805558D01*
X94790812Y-145857693D01*
X94777958Y-145904576D01*
X94771181Y-145948593D01*
X94769060Y-145992127D01*
X94770179Y-146037564D01*
X94770464Y-146043275D01*
X94776357Y-146156933D01*
X92900771Y-146156857D01*
X93040278Y-146016189D01*
X93078135Y-145977715D01*
X93114047Y-145940279D01*
X93149593Y-145901814D01*
X93186347Y-145860258D01*
X93225886Y-145813545D01*
X93269786Y-145759610D01*
X93319623Y-145696390D01*
X93376972Y-145621818D01*
X93443411Y-145533832D01*
X93520515Y-145430365D01*
X93609861Y-145309354D01*
X93713024Y-145168734D01*
X93831580Y-145006440D01*
X93967105Y-144820407D01*
X94121177Y-144608571D01*
X94247462Y-144434804D01*
X94405954Y-144216501D01*
X94544216Y-144025629D01*
X94663499Y-143860374D01*
X94765057Y-143718926D01*
X94850141Y-143599471D01*
X94920005Y-143500198D01*
X94975900Y-143419295D01*
X95019080Y-143354949D01*
X95050797Y-143305347D01*
X95072302Y-143268679D01*
X95084850Y-143243132D01*
X95089692Y-143226893D01*
X95088237Y-143218355D01*
X95070599Y-143195635D01*
X95032466Y-143147543D01*
X94976138Y-143076938D01*
X94903916Y-142986678D01*
X94818101Y-142879621D01*
X94720994Y-142758627D01*
X94614896Y-142626554D01*
X94502109Y-142486260D01*
X94384932Y-142340603D01*
X94265667Y-142192444D01*
X94200067Y-142111000D01*
X92571314Y-142111000D01*
X92503621Y-142233465D01*
X92435929Y-142355929D01*
X92435929Y-145911929D01*
X92503621Y-146034393D01*
X92571314Y-146156857D01*
X91770559Y-146156857D01*
X91579398Y-146156802D01*
X91421501Y-146156551D01*
X91293848Y-146155979D01*
X91193419Y-146154959D01*
X91117193Y-146153365D01*
X91062148Y-146151070D01*
X91025264Y-146147950D01*
X91003521Y-146143877D01*
X90993898Y-146138725D01*
X90993373Y-146132367D01*
X90998926Y-146124679D01*
X90998984Y-146124615D01*
X91021860Y-146091524D01*
X91052151Y-146037719D01*
X91078903Y-145984008D01*
X91129643Y-145875643D01*
X91134818Y-143993322D01*
X91139993Y-142111000D01*
X92571314Y-142111000D01*
X94200067Y-142111000D01*
X94146615Y-142044639D01*
X94030077Y-141900047D01*
X93918354Y-141761528D01*
X93813746Y-141631939D01*
X93718556Y-141514140D01*
X93635083Y-141410988D01*
X93565629Y-141325343D01*
X93512494Y-141260062D01*
X93481285Y-141222000D01*
X93360097Y-141079670D01*
X93243507Y-140951230D01*
X93135603Y-140840886D01*
X93040470Y-140752841D01*
X92972957Y-140698862D01*
X92893127Y-140641429D01*
X94729108Y-140641429D01*
X94728592Y-140749165D01*
X94733724Y-140828372D01*
X94753015Y-140901805D01*
X94782877Y-140971415D01*
X94802288Y-141010741D01*
X94823159Y-141049707D01*
X94847396Y-141090901D01*
X94876906Y-141136908D01*
X94913594Y-141190317D01*
X94959368Y-141253714D01*
X95016135Y-141329685D01*
X95085800Y-141420817D01*
X95170270Y-141529698D01*
X95271453Y-141658914D01*
X95391253Y-141811052D01*
X95531579Y-141988698D01*
X95547429Y-142008742D01*
X96100786Y-142708508D01*
X96106143Y-141933504D01*
X96107221Y-141701368D01*
X96106992Y-141504846D01*
X96105443Y-141343292D01*
X96102563Y-141216056D01*
X96098341Y-141122492D01*
X96092766Y-141061952D01*
X96090893Y-141050468D01*
X96061495Y-140929499D01*
X96022978Y-140820446D01*
X95979026Y-140732763D01*
X95952621Y-140695574D01*
X95907060Y-140641429D01*
X96771530Y-140641429D01*
X96977745Y-140641605D01*
X97150188Y-140642179D01*
X97291373Y-140643217D01*
X97403812Y-140644787D01*
X97490017Y-140646954D01*
X97552502Y-140649788D01*
X97593779Y-140653353D01*
X97616360Y-140657718D01*
X97622759Y-140662949D01*
X97622317Y-140664107D01*
X97603991Y-140691769D01*
X97573396Y-140735615D01*
X97557567Y-140757791D01*
X97541202Y-140779920D01*
X97526492Y-140799709D01*
X97513344Y-140819106D01*
X97501667Y-140840058D01*
X97491368Y-140864512D01*
X97482354Y-140894416D01*
X97474532Y-140931717D01*
X97467809Y-140978363D01*
X97462094Y-141036301D01*
X97457293Y-141107479D01*
X97453315Y-141193844D01*
X97450065Y-141297344D01*
X97447452Y-141419925D01*
X97445383Y-141563537D01*
X97443766Y-141730125D01*
X97442507Y-141921637D01*
X97441515Y-142140022D01*
X97440696Y-142387226D01*
X97439958Y-142665196D01*
X97439209Y-142975881D01*
X97438508Y-143261300D01*
X97437847Y-143579492D01*
X97437503Y-143883077D01*
X97437468Y-144170115D01*
X97437732Y-144438669D01*
X97438285Y-144686798D01*
X97439120Y-144912563D01*
X97440227Y-145114026D01*
X97441596Y-145289246D01*
X97443219Y-145436286D01*
X97445087Y-145553206D01*
X97447189Y-145638067D01*
X97449518Y-145688929D01*
X97449959Y-145694304D01*
X97466008Y-145817613D01*
X97491064Y-145916644D01*
X97529221Y-146003070D01*
X97584572Y-146088565D01*
X97591496Y-146097893D01*
X97635704Y-146156857D01*
X98119916Y-146156857D01*
X98120892Y-146049168D01*
X98122001Y-145864976D01*
X98122801Y-145656784D01*
X98123339Y-145423091D01*
X98123662Y-145162398D01*
X98123817Y-144873204D01*
X98123854Y-144554009D01*
X98123817Y-144203313D01*
X98123755Y-143819614D01*
X98123715Y-143401414D01*
X98123714Y-143318393D01*
X98123691Y-142895789D01*
X98123612Y-142507981D01*
X98123467Y-142153480D01*
X98123244Y-141830797D01*
X98122931Y-141538442D01*
X98122517Y-141274927D01*
X98121991Y-141038762D01*
X98121340Y-140828458D01*
X98120553Y-140642526D01*
X98119619Y-140479475D01*
X98118526Y-140337818D01*
X98117263Y-140216064D01*
X98115817Y-140112725D01*
X98114179Y-140026311D01*
X98112334Y-139955333D01*
X98110274Y-139898301D01*
X98107985Y-139853727D01*
X98105456Y-139820121D01*
X98102676Y-139795993D01*
X98099633Y-139779856D01*
X98096316Y-139770218D01*
X98096193Y-139769978D01*
X98089360Y-139755255D01*
X98083670Y-139741926D01*
X98077374Y-139729922D01*
X98068728Y-139719173D01*
X98055986Y-139709611D01*
X98037400Y-139701167D01*
X98011226Y-139693771D01*
X97975716Y-139687354D01*
X97929125Y-139681848D01*
X97869707Y-139677183D01*
X97795715Y-139673291D01*
X97705403Y-139670102D01*
X97597025Y-139667547D01*
X97468835Y-139665558D01*
X97319087Y-139664065D01*
X97146034Y-139662998D01*
X96947931Y-139662291D01*
X96723031Y-139661872D01*
X96469588Y-139661673D01*
X96185856Y-139661626D01*
X95870089Y-139661660D01*
M02*
