M48
; DRILL file {KiCad 5.1.4} date Sun 13 Oct 2019 07:20:17 PM EDT
; FORMAT={-:-/ absolute / inch / decimal}
; #@! TF.CreationDate,2019-10-13T19:20:17-04:00
; #@! TF.GenerationSoftware,Kicad,Pcbnew,5.1.4
; #@! TF.FileFunction,Plated,1,2,PTH
FMAT,2
INCH
T1C0.0157
T2C0.0449
T3C0.0472
T4C0.0630
%
G90
G05
T1
X2.3425Y-5.7677
X3.5236Y-5.7677
X4.7047Y-5.7677
X5.8858Y-5.7677
X6.2992Y-5.6299
X6.335Y-5.5763
X6.3789Y-5.5392
X6.85Y-5.05
T2
X6.5535Y-5.1906
X6.5535Y-5.2906
X6.5535Y-5.3906
X6.5535Y-5.4906
X6.5535Y-5.5906
X6.6535Y-5.1906
X6.6535Y-5.2906
X6.6535Y-5.3906
X6.6535Y-5.4906
X6.6535Y-5.5906
T3
X7.2228Y-5.5118
X7.3228Y-5.5118
X4.6063Y-4.6457
X4.7688Y-4.8207
X4.8813Y-4.8457
X4.9938Y-4.8207
X5.1563Y-4.6707
X7.6165Y-5.5118
X7.7165Y-5.5118
X5.7874Y-4.6457
X5.9499Y-4.8207
X6.0624Y-4.8457
X6.1749Y-4.8207
X6.3374Y-4.6707
X2.2441Y-4.6457
X2.4066Y-4.8207
X2.5191Y-4.8457
X2.6316Y-4.8207
X2.7941Y-4.6707
X4.2307Y-5.5118
X4.3307Y-5.5118
X3.4252Y-4.6457
X3.5877Y-4.8207
X3.7002Y-4.8457
X3.8127Y-4.8207
X3.9752Y-4.6707
X7.2435Y-4.4207
X7.2435Y-4.6207
T4
X4.5563Y-4.1957
X4.7063Y-4.5457
X5.0563Y-4.5457
X5.7374Y-4.1957
X5.8874Y-4.5457
X6.2374Y-4.5457
X2.1941Y-4.1957
X2.3441Y-4.5457
X2.6941Y-4.5457
X3.3752Y-4.1957
X3.5252Y-4.5457
X3.8752Y-4.5457
X7.0935Y-4.6207
X7.3935Y-4.6207
T0
M30
