M48
; DRILL file {KiCad 5.1.2} date Sun 09 Jun 2019 09:53:15 PM EDT
; FORMAT={-:-/ absolute / inch / decimal}
; #@! TF.CreationDate,2019-06-09T21:53:15-04:00
; #@! TF.GenerationSoftware,Kicad,Pcbnew,5.1.2
; #@! TF.FileFunction,Plated,1,2,PTH
FMAT,2
INCH
T1C0.0157
T2C0.0236
T3C0.0315
T4C0.0394
T5C0.0433
T6C0.0472
T7C0.0512
T8C0.0669
T9C0.0728
T10C0.1772
%
G90
G05
T1
X3.05Y-3.275
X3.2446Y-4.215
X3.97Y-5.29
T2
X5.215Y-4.1259
X5.215Y-4.185
T3
X4.48Y-4.0763
X4.48Y-4.155
X3.05Y-4.4031
X3.05Y-4.6
X3.44Y-5.17
X3.5384Y-5.17
X3.3Y-4.4
X3.3Y-4.5969
X5.28Y-3.6666
X5.28Y-3.765
X5.2166Y-5.39
X5.315Y-5.39
T4
X3.58Y-3.59
X3.68Y-3.59
X3.58Y-4.4
X3.58Y-4.5
X4.245Y-5.01
X4.245Y-5.11
X2.75Y-4.7
X2.85Y-4.7
X2.75Y-4.3
X2.85Y-4.3
X3.3Y-4.87
X3.4Y-4.87
T5
X4.8697Y-5.0921
X4.8697Y-5.1921
X4.8697Y-5.2921
X4.8697Y-3.8421
X4.8697Y-3.9421
X4.8697Y-4.0421
X3.8079Y-5.5197
X3.9079Y-5.5197
X4.0079Y-5.5197
T6
X3.95Y-3.9531
X3.95Y-4.15
X5.6815Y-3.8797
X5.6815Y-3.9797
X5.6815Y-4.0797
X3.05Y-5.7
X3.15Y-5.7
X2.6Y-5.7
X2.7Y-5.7
X3.95Y-4.5031
X3.95Y-4.7
X5.6815Y-4.9754
X5.6815Y-5.0754
X5.6815Y-5.1754
X5.6815Y-4.4276
X5.6815Y-4.5276
X5.6815Y-4.6276
T7
X2.2685Y-5.1555
X3.1543Y-5.1555
X2.2685Y-3.9055
X3.1543Y-3.9055
T8
X2.2213Y-4.2937
X2.2213Y-4.4496
X2.2213Y-4.6055
X2.2213Y-4.7614
T9
X5.1Y-3.4343
X5.1Y-4.45
X3.4Y-5.75
X4.4157Y-5.75
X5.1Y-4.6843
X5.1Y-5.7
T10
X2.2835Y-5.5906
X5.5906Y-5.5906
X2.2835Y-3.4646
X5.5906Y-3.4646
T0
M30
