G04 #@! TF.GenerationSoftware,KiCad,Pcbnew,5.1.2*
G04 #@! TF.CreationDate,2019-06-09T21:53:02-04:00*
G04 #@! TF.ProjectId,power_supply,706f7765-725f-4737-9570-706c792e6b69,0*
G04 #@! TF.SameCoordinates,Original*
G04 #@! TF.FileFunction,Soldermask,Top*
G04 #@! TF.FilePolarity,Negative*
%FSLAX46Y46*%
G04 Gerber Fmt 4.6, Leading zero omitted, Abs format (unit mm)*
G04 Created by KiCad (PCBNEW 5.1.2) date 2019-06-09 21:53:02*
%MOMM*%
%LPD*%
G04 APERTURE LIST*
%ADD10C,0.100000*%
%ADD11C,0.150000*%
%ADD12C,0.300000*%
%ADD13C,0.400000*%
G04 APERTURE END LIST*
D10*
D11*
X159400000Y-171900000D02*
X159400000Y-203900000D01*
X267400000Y-203900000D01*
X267400000Y-171900000D01*
X159400000Y-171900000D01*
D10*
D11*
X10000000Y-10000000D02*
X10000000Y-205900000D01*
X269400000Y-205900000D01*
X269400000Y-10000000D01*
X10000000Y-10000000D01*
D10*
D11*
X12000000Y-12000000D02*
X12000000Y-203900000D01*
X267400000Y-203900000D01*
X267400000Y-12000000D01*
X12000000Y-12000000D01*
D10*
D11*
X60000000Y-12000000D02*
X60000000Y-10000000D01*
D10*
D11*
X110000000Y-12000000D02*
X110000000Y-10000000D01*
D10*
D11*
X160000000Y-12000000D02*
X160000000Y-10000000D01*
D10*
D11*
X210000000Y-12000000D02*
X210000000Y-10000000D01*
D10*
D11*
X260000000Y-12000000D02*
X260000000Y-10000000D01*
D10*
D11*
X36065476Y-11588095D02*
X35322619Y-11588095D01*
X35694047Y-11588095D02*
X35694047Y-10288095D01*
X35570238Y-10473809D01*
X35446428Y-10597619D01*
X35322619Y-10659523D01*
D10*
D11*
X85322619Y-10411904D02*
X85384523Y-10350000D01*
X85508333Y-10288095D01*
X85817857Y-10288095D01*
X85941666Y-10350000D01*
X86003571Y-10411904D01*
X86065476Y-10535714D01*
X86065476Y-10659523D01*
X86003571Y-10845238D01*
X85260714Y-11588095D01*
X86065476Y-11588095D01*
D10*
D11*
X135260714Y-10288095D02*
X136065476Y-10288095D01*
X135632142Y-10783333D01*
X135817857Y-10783333D01*
X135941666Y-10845238D01*
X136003571Y-10907142D01*
X136065476Y-11030952D01*
X136065476Y-11340476D01*
X136003571Y-11464285D01*
X135941666Y-11526190D01*
X135817857Y-11588095D01*
X135446428Y-11588095D01*
X135322619Y-11526190D01*
X135260714Y-11464285D01*
D10*
D11*
X185941666Y-10721428D02*
X185941666Y-11588095D01*
X185632142Y-10226190D02*
X185322619Y-11154761D01*
X186127380Y-11154761D01*
D10*
D11*
X236003571Y-10288095D02*
X235384523Y-10288095D01*
X235322619Y-10907142D01*
X235384523Y-10845238D01*
X235508333Y-10783333D01*
X235817857Y-10783333D01*
X235941666Y-10845238D01*
X236003571Y-10907142D01*
X236065476Y-11030952D01*
X236065476Y-11340476D01*
X236003571Y-11464285D01*
X235941666Y-11526190D01*
X235817857Y-11588095D01*
X235508333Y-11588095D01*
X235384523Y-11526190D01*
X235322619Y-11464285D01*
D10*
D11*
X60000000Y-203900000D02*
X60000000Y-205900000D01*
D10*
D11*
X110000000Y-203900000D02*
X110000000Y-205900000D01*
D10*
D11*
X160000000Y-203900000D02*
X160000000Y-205900000D01*
D10*
D11*
X210000000Y-203900000D02*
X210000000Y-205900000D01*
D10*
D11*
X260000000Y-203900000D02*
X260000000Y-205900000D01*
D10*
D11*
X36065476Y-205488095D02*
X35322619Y-205488095D01*
X35694047Y-205488095D02*
X35694047Y-204188095D01*
X35570238Y-204373809D01*
X35446428Y-204497619D01*
X35322619Y-204559523D01*
D10*
D11*
X85322619Y-204311904D02*
X85384523Y-204250000D01*
X85508333Y-204188095D01*
X85817857Y-204188095D01*
X85941666Y-204250000D01*
X86003571Y-204311904D01*
X86065476Y-204435714D01*
X86065476Y-204559523D01*
X86003571Y-204745238D01*
X85260714Y-205488095D01*
X86065476Y-205488095D01*
D10*
D11*
X135260714Y-204188095D02*
X136065476Y-204188095D01*
X135632142Y-204683333D01*
X135817857Y-204683333D01*
X135941666Y-204745238D01*
X136003571Y-204807142D01*
X136065476Y-204930952D01*
X136065476Y-205240476D01*
X136003571Y-205364285D01*
X135941666Y-205426190D01*
X135817857Y-205488095D01*
X135446428Y-205488095D01*
X135322619Y-205426190D01*
X135260714Y-205364285D01*
D10*
D11*
X185941666Y-204621428D02*
X185941666Y-205488095D01*
X185632142Y-204126190D02*
X185322619Y-205054761D01*
X186127380Y-205054761D01*
D10*
D11*
X236003571Y-204188095D02*
X235384523Y-204188095D01*
X235322619Y-204807142D01*
X235384523Y-204745238D01*
X235508333Y-204683333D01*
X235817857Y-204683333D01*
X235941666Y-204745238D01*
X236003571Y-204807142D01*
X236065476Y-204930952D01*
X236065476Y-205240476D01*
X236003571Y-205364285D01*
X235941666Y-205426190D01*
X235817857Y-205488095D01*
X235508333Y-205488095D01*
X235384523Y-205426190D01*
X235322619Y-205364285D01*
D10*
D11*
X10000000Y-60000000D02*
X12000000Y-60000000D01*
D10*
D11*
X10000000Y-110000000D02*
X12000000Y-110000000D01*
D10*
D11*
X10000000Y-160000000D02*
X12000000Y-160000000D01*
D10*
D11*
X10690476Y-35216666D02*
X11309523Y-35216666D01*
X10566666Y-35588095D02*
X11000000Y-34288095D01*
X11433333Y-35588095D01*
D10*
D11*
X11092857Y-84907142D02*
X11278571Y-84969047D01*
X11340476Y-85030952D01*
X11402380Y-85154761D01*
X11402380Y-85340476D01*
X11340476Y-85464285D01*
X11278571Y-85526190D01*
X11154761Y-85588095D01*
X10659523Y-85588095D01*
X10659523Y-84288095D01*
X11092857Y-84288095D01*
X11216666Y-84350000D01*
X11278571Y-84411904D01*
X11340476Y-84535714D01*
X11340476Y-84659523D01*
X11278571Y-84783333D01*
X11216666Y-84845238D01*
X11092857Y-84907142D01*
X10659523Y-84907142D01*
D10*
D11*
X11402380Y-135464285D02*
X11340476Y-135526190D01*
X11154761Y-135588095D01*
X11030952Y-135588095D01*
X10845238Y-135526190D01*
X10721428Y-135402380D01*
X10659523Y-135278571D01*
X10597619Y-135030952D01*
X10597619Y-134845238D01*
X10659523Y-134597619D01*
X10721428Y-134473809D01*
X10845238Y-134350000D01*
X11030952Y-134288095D01*
X11154761Y-134288095D01*
X11340476Y-134350000D01*
X11402380Y-134411904D01*
D10*
D11*
X10659523Y-185588095D02*
X10659523Y-184288095D01*
X10969047Y-184288095D01*
X11154761Y-184350000D01*
X11278571Y-184473809D01*
X11340476Y-184597619D01*
X11402380Y-184845238D01*
X11402380Y-185030952D01*
X11340476Y-185278571D01*
X11278571Y-185402380D01*
X11154761Y-185526190D01*
X10969047Y-185588095D01*
X10659523Y-185588095D01*
D10*
D11*
X269400000Y-60000000D02*
X267400000Y-60000000D01*
D10*
D11*
X269400000Y-110000000D02*
X267400000Y-110000000D01*
D10*
D11*
X269400000Y-160000000D02*
X267400000Y-160000000D01*
D10*
D11*
X268090476Y-35216666D02*
X268709523Y-35216666D01*
X267966666Y-35588095D02*
X268400000Y-34288095D01*
X268833333Y-35588095D01*
D10*
D11*
X268492857Y-84907142D02*
X268678571Y-84969047D01*
X268740476Y-85030952D01*
X268802380Y-85154761D01*
X268802380Y-85340476D01*
X268740476Y-85464285D01*
X268678571Y-85526190D01*
X268554761Y-85588095D01*
X268059523Y-85588095D01*
X268059523Y-84288095D01*
X268492857Y-84288095D01*
X268616666Y-84350000D01*
X268678571Y-84411904D01*
X268740476Y-84535714D01*
X268740476Y-84659523D01*
X268678571Y-84783333D01*
X268616666Y-84845238D01*
X268492857Y-84907142D01*
X268059523Y-84907142D01*
D10*
D11*
X268802380Y-135464285D02*
X268740476Y-135526190D01*
X268554761Y-135588095D01*
X268430952Y-135588095D01*
X268245238Y-135526190D01*
X268121428Y-135402380D01*
X268059523Y-135278571D01*
X267997619Y-135030952D01*
X267997619Y-134845238D01*
X268059523Y-134597619D01*
X268121428Y-134473809D01*
X268245238Y-134350000D01*
X268430952Y-134288095D01*
X268554761Y-134288095D01*
X268740476Y-134350000D01*
X268802380Y-134411904D01*
D10*
D11*
X268059523Y-185588095D02*
X268059523Y-184288095D01*
X268369047Y-184288095D01*
X268554761Y-184350000D01*
X268678571Y-184473809D01*
X268740476Y-184597619D01*
X268802380Y-184845238D01*
X268802380Y-185030952D01*
X268740476Y-185278571D01*
X268678571Y-185402380D01*
X268554761Y-185526190D01*
X268369047Y-185588095D01*
X268059523Y-185588095D01*
D10*
D11*
X182832142Y-199678571D02*
X182832142Y-198178571D01*
X183189285Y-198178571D01*
X183403571Y-198250000D01*
X183546428Y-198392857D01*
X183617857Y-198535714D01*
X183689285Y-198821428D01*
X183689285Y-199035714D01*
X183617857Y-199321428D01*
X183546428Y-199464285D01*
X183403571Y-199607142D01*
X183189285Y-199678571D01*
X182832142Y-199678571D01*
X184975000Y-199678571D02*
X184975000Y-198892857D01*
X184903571Y-198750000D01*
X184760714Y-198678571D01*
X184475000Y-198678571D01*
X184332142Y-198750000D01*
X184975000Y-199607142D02*
X184832142Y-199678571D01*
X184475000Y-199678571D01*
X184332142Y-199607142D01*
X184260714Y-199464285D01*
X184260714Y-199321428D01*
X184332142Y-199178571D01*
X184475000Y-199107142D01*
X184832142Y-199107142D01*
X184975000Y-199035714D01*
X185475000Y-198678571D02*
X186046428Y-198678571D01*
X185689285Y-198178571D02*
X185689285Y-199464285D01*
X185760714Y-199607142D01*
X185903571Y-199678571D01*
X186046428Y-199678571D01*
X187117857Y-199607142D02*
X186975000Y-199678571D01*
X186689285Y-199678571D01*
X186546428Y-199607142D01*
X186475000Y-199464285D01*
X186475000Y-198892857D01*
X186546428Y-198750000D01*
X186689285Y-198678571D01*
X186975000Y-198678571D01*
X187117857Y-198750000D01*
X187189285Y-198892857D01*
X187189285Y-199035714D01*
X186475000Y-199178571D01*
X187832142Y-199535714D02*
X187903571Y-199607142D01*
X187832142Y-199678571D01*
X187760714Y-199607142D01*
X187832142Y-199535714D01*
X187832142Y-199678571D01*
X187832142Y-198750000D02*
X187903571Y-198821428D01*
X187832142Y-198892857D01*
X187760714Y-198821428D01*
X187832142Y-198750000D01*
X187832142Y-198892857D01*
X189617857Y-198321428D02*
X189689285Y-198250000D01*
X189832142Y-198178571D01*
X190189285Y-198178571D01*
X190332142Y-198250000D01*
X190403571Y-198321428D01*
X190475000Y-198464285D01*
X190475000Y-198607142D01*
X190403571Y-198821428D01*
X189546428Y-199678571D01*
X190475000Y-199678571D01*
X191403571Y-198178571D02*
X191546428Y-198178571D01*
X191689285Y-198250000D01*
X191760714Y-198321428D01*
X191832142Y-198464285D01*
X191903571Y-198750000D01*
X191903571Y-199107142D01*
X191832142Y-199392857D01*
X191760714Y-199535714D01*
X191689285Y-199607142D01*
X191546428Y-199678571D01*
X191403571Y-199678571D01*
X191260714Y-199607142D01*
X191189285Y-199535714D01*
X191117857Y-199392857D01*
X191046428Y-199107142D01*
X191046428Y-198750000D01*
X191117857Y-198464285D01*
X191189285Y-198321428D01*
X191260714Y-198250000D01*
X191403571Y-198178571D01*
X193332142Y-199678571D02*
X192475000Y-199678571D01*
X192903571Y-199678571D02*
X192903571Y-198178571D01*
X192760714Y-198392857D01*
X192617857Y-198535714D01*
X192475000Y-198607142D01*
X194046428Y-199678571D02*
X194332142Y-199678571D01*
X194475000Y-199607142D01*
X194546428Y-199535714D01*
X194689285Y-199321428D01*
X194760714Y-199035714D01*
X194760714Y-198464285D01*
X194689285Y-198321428D01*
X194617857Y-198250000D01*
X194475000Y-198178571D01*
X194189285Y-198178571D01*
X194046428Y-198250000D01*
X193975000Y-198321428D01*
X193903571Y-198464285D01*
X193903571Y-198821428D01*
X193975000Y-198964285D01*
X194046428Y-199035714D01*
X194189285Y-199107142D01*
X194475000Y-199107142D01*
X194617857Y-199035714D01*
X194689285Y-198964285D01*
X194760714Y-198821428D01*
X195403571Y-199107142D02*
X196546428Y-199107142D01*
X197546428Y-198178571D02*
X197689285Y-198178571D01*
X197832142Y-198250000D01*
X197903571Y-198321428D01*
X197975000Y-198464285D01*
X198046428Y-198750000D01*
X198046428Y-199107142D01*
X197975000Y-199392857D01*
X197903571Y-199535714D01*
X197832142Y-199607142D01*
X197689285Y-199678571D01*
X197546428Y-199678571D01*
X197403571Y-199607142D01*
X197332142Y-199535714D01*
X197260714Y-199392857D01*
X197189285Y-199107142D01*
X197189285Y-198750000D01*
X197260714Y-198464285D01*
X197332142Y-198321428D01*
X197403571Y-198250000D01*
X197546428Y-198178571D01*
X199332142Y-198178571D02*
X199046428Y-198178571D01*
X198903571Y-198250000D01*
X198832142Y-198321428D01*
X198689285Y-198535714D01*
X198617857Y-198821428D01*
X198617857Y-199392857D01*
X198689285Y-199535714D01*
X198760714Y-199607142D01*
X198903571Y-199678571D01*
X199189285Y-199678571D01*
X199332142Y-199607142D01*
X199403571Y-199535714D01*
X199475000Y-199392857D01*
X199475000Y-199035714D01*
X199403571Y-198892857D01*
X199332142Y-198821428D01*
X199189285Y-198750000D01*
X198903571Y-198750000D01*
X198760714Y-198821428D01*
X198689285Y-198892857D01*
X198617857Y-199035714D01*
X200117857Y-199107142D02*
X201260714Y-199107142D01*
X202260714Y-198178571D02*
X202403571Y-198178571D01*
X202546428Y-198250000D01*
X202617857Y-198321428D01*
X202689285Y-198464285D01*
X202760714Y-198750000D01*
X202760714Y-199107142D01*
X202689285Y-199392857D01*
X202617857Y-199535714D01*
X202546428Y-199607142D01*
X202403571Y-199678571D01*
X202260714Y-199678571D01*
X202117857Y-199607142D01*
X202046428Y-199535714D01*
X201975000Y-199392857D01*
X201903571Y-199107142D01*
X201903571Y-198750000D01*
X201975000Y-198464285D01*
X202046428Y-198321428D01*
X202117857Y-198250000D01*
X202260714Y-198178571D01*
X203475000Y-199678571D02*
X203760714Y-199678571D01*
X203903571Y-199607142D01*
X203975000Y-199535714D01*
X204117857Y-199321428D01*
X204189285Y-199035714D01*
X204189285Y-198464285D01*
X204117857Y-198321428D01*
X204046428Y-198250000D01*
X203903571Y-198178571D01*
X203617857Y-198178571D01*
X203475000Y-198250000D01*
X203403571Y-198321428D01*
X203332142Y-198464285D01*
X203332142Y-198821428D01*
X203403571Y-198964285D01*
X203475000Y-199035714D01*
X203617857Y-199107142D01*
X203903571Y-199107142D01*
X204046428Y-199035714D01*
X204117857Y-198964285D01*
X204189285Y-198821428D01*
D10*
D11*
X159400000Y-200400000D02*
X267400000Y-200400000D01*
D10*
D11*
X160832142Y-202478571D02*
X160832142Y-200978571D01*
X161689285Y-202478571D02*
X161046428Y-201621428D01*
X161689285Y-200978571D02*
X160832142Y-201835714D01*
X162332142Y-202478571D02*
X162332142Y-201478571D01*
X162332142Y-200978571D02*
X162260714Y-201050000D01*
X162332142Y-201121428D01*
X162403571Y-201050000D01*
X162332142Y-200978571D01*
X162332142Y-201121428D01*
X163903571Y-202335714D02*
X163832142Y-202407142D01*
X163617857Y-202478571D01*
X163475000Y-202478571D01*
X163260714Y-202407142D01*
X163117857Y-202264285D01*
X163046428Y-202121428D01*
X162975000Y-201835714D01*
X162975000Y-201621428D01*
X163046428Y-201335714D01*
X163117857Y-201192857D01*
X163260714Y-201050000D01*
X163475000Y-200978571D01*
X163617857Y-200978571D01*
X163832142Y-201050000D01*
X163903571Y-201121428D01*
X165189285Y-202478571D02*
X165189285Y-201692857D01*
X165117857Y-201550000D01*
X164975000Y-201478571D01*
X164689285Y-201478571D01*
X164546428Y-201550000D01*
X165189285Y-202407142D02*
X165046428Y-202478571D01*
X164689285Y-202478571D01*
X164546428Y-202407142D01*
X164475000Y-202264285D01*
X164475000Y-202121428D01*
X164546428Y-201978571D01*
X164689285Y-201907142D01*
X165046428Y-201907142D01*
X165189285Y-201835714D01*
X166546428Y-202478571D02*
X166546428Y-200978571D01*
X166546428Y-202407142D02*
X166403571Y-202478571D01*
X166117857Y-202478571D01*
X165975000Y-202407142D01*
X165903571Y-202335714D01*
X165832142Y-202192857D01*
X165832142Y-201764285D01*
X165903571Y-201621428D01*
X165975000Y-201550000D01*
X166117857Y-201478571D01*
X166403571Y-201478571D01*
X166546428Y-201550000D01*
X168403571Y-201692857D02*
X168903571Y-201692857D01*
X169117857Y-202478571D02*
X168403571Y-202478571D01*
X168403571Y-200978571D01*
X169117857Y-200978571D01*
X169760714Y-202335714D02*
X169832142Y-202407142D01*
X169760714Y-202478571D01*
X169689285Y-202407142D01*
X169760714Y-202335714D01*
X169760714Y-202478571D01*
X170475000Y-202478571D02*
X170475000Y-200978571D01*
X170832142Y-200978571D01*
X171046428Y-201050000D01*
X171189285Y-201192857D01*
X171260714Y-201335714D01*
X171332142Y-201621428D01*
X171332142Y-201835714D01*
X171260714Y-202121428D01*
X171189285Y-202264285D01*
X171046428Y-202407142D01*
X170832142Y-202478571D01*
X170475000Y-202478571D01*
X171975000Y-202335714D02*
X172046428Y-202407142D01*
X171975000Y-202478571D01*
X171903571Y-202407142D01*
X171975000Y-202335714D01*
X171975000Y-202478571D01*
X172617857Y-202050000D02*
X173332142Y-202050000D01*
X172475000Y-202478571D02*
X172975000Y-200978571D01*
X173475000Y-202478571D01*
X173975000Y-202335714D02*
X174046428Y-202407142D01*
X173975000Y-202478571D01*
X173903571Y-202407142D01*
X173975000Y-202335714D01*
X173975000Y-202478571D01*
X176975000Y-202478571D02*
X176975000Y-200978571D01*
X177117857Y-201907142D02*
X177546428Y-202478571D01*
X177546428Y-201478571D02*
X176975000Y-202050000D01*
X178189285Y-202478571D02*
X178189285Y-201478571D01*
X178189285Y-200978571D02*
X178117857Y-201050000D01*
X178189285Y-201121428D01*
X178260714Y-201050000D01*
X178189285Y-200978571D01*
X178189285Y-201121428D01*
X179546428Y-202407142D02*
X179403571Y-202478571D01*
X179117857Y-202478571D01*
X178975000Y-202407142D01*
X178903571Y-202335714D01*
X178832142Y-202192857D01*
X178832142Y-201764285D01*
X178903571Y-201621428D01*
X178975000Y-201550000D01*
X179117857Y-201478571D01*
X179403571Y-201478571D01*
X179546428Y-201550000D01*
X180832142Y-202478571D02*
X180832142Y-201692857D01*
X180760714Y-201550000D01*
X180617857Y-201478571D01*
X180332142Y-201478571D01*
X180189285Y-201550000D01*
X180832142Y-202407142D02*
X180689285Y-202478571D01*
X180332142Y-202478571D01*
X180189285Y-202407142D01*
X180117857Y-202264285D01*
X180117857Y-202121428D01*
X180189285Y-201978571D01*
X180332142Y-201907142D01*
X180689285Y-201907142D01*
X180832142Y-201835714D01*
X182189285Y-202478571D02*
X182189285Y-200978571D01*
X182189285Y-202407142D02*
X182046428Y-202478571D01*
X181760714Y-202478571D01*
X181617857Y-202407142D01*
X181546428Y-202335714D01*
X181475000Y-202192857D01*
X181475000Y-201764285D01*
X181546428Y-201621428D01*
X181617857Y-201550000D01*
X181760714Y-201478571D01*
X182046428Y-201478571D01*
X182189285Y-201550000D01*
X184760714Y-200978571D02*
X184046428Y-200978571D01*
X183975000Y-201692857D01*
X184046428Y-201621428D01*
X184189285Y-201550000D01*
X184546428Y-201550000D01*
X184689285Y-201621428D01*
X184760714Y-201692857D01*
X184832142Y-201835714D01*
X184832142Y-202192857D01*
X184760714Y-202335714D01*
X184689285Y-202407142D01*
X184546428Y-202478571D01*
X184189285Y-202478571D01*
X184046428Y-202407142D01*
X183975000Y-202335714D01*
X185475000Y-202335714D02*
X185546428Y-202407142D01*
X185475000Y-202478571D01*
X185403571Y-202407142D01*
X185475000Y-202335714D01*
X185475000Y-202478571D01*
X186975000Y-202478571D02*
X186117857Y-202478571D01*
X186546428Y-202478571D02*
X186546428Y-200978571D01*
X186403571Y-201192857D01*
X186260714Y-201335714D01*
X186117857Y-201407142D01*
X187617857Y-202335714D02*
X187689285Y-202407142D01*
X187617857Y-202478571D01*
X187546428Y-202407142D01*
X187617857Y-202335714D01*
X187617857Y-202478571D01*
X188260714Y-201121428D02*
X188332142Y-201050000D01*
X188475000Y-200978571D01*
X188832142Y-200978571D01*
X188975000Y-201050000D01*
X189046428Y-201121428D01*
X189117857Y-201264285D01*
X189117857Y-201407142D01*
X189046428Y-201621428D01*
X188189285Y-202478571D01*
X189117857Y-202478571D01*
D10*
D11*
X159400000Y-197400000D02*
X267400000Y-197400000D01*
D10*
D12*
X246809285Y-199678571D02*
X246309285Y-198964285D01*
X245952142Y-199678571D02*
X245952142Y-198178571D01*
X246523571Y-198178571D01*
X246666428Y-198250000D01*
X246737857Y-198321428D01*
X246809285Y-198464285D01*
X246809285Y-198678571D01*
X246737857Y-198821428D01*
X246666428Y-198892857D01*
X246523571Y-198964285D01*
X245952142Y-198964285D01*
X248023571Y-199607142D02*
X247880714Y-199678571D01*
X247595000Y-199678571D01*
X247452142Y-199607142D01*
X247380714Y-199464285D01*
X247380714Y-198892857D01*
X247452142Y-198750000D01*
X247595000Y-198678571D01*
X247880714Y-198678571D01*
X248023571Y-198750000D01*
X248095000Y-198892857D01*
X248095000Y-199035714D01*
X247380714Y-199178571D01*
X248595000Y-198678571D02*
X248952142Y-199678571D01*
X249309285Y-198678571D01*
X249880714Y-199535714D02*
X249952142Y-199607142D01*
X249880714Y-199678571D01*
X249809285Y-199607142D01*
X249880714Y-199535714D01*
X249880714Y-199678571D01*
X249880714Y-198750000D02*
X249952142Y-198821428D01*
X249880714Y-198892857D01*
X249809285Y-198821428D01*
X249880714Y-198750000D01*
X249880714Y-198892857D01*
X252023571Y-198178571D02*
X252166428Y-198178571D01*
X252309285Y-198250000D01*
X252380714Y-198321428D01*
X252452142Y-198464285D01*
X252523571Y-198750000D01*
X252523571Y-199107142D01*
X252452142Y-199392857D01*
X252380714Y-199535714D01*
X252309285Y-199607142D01*
X252166428Y-199678571D01*
X252023571Y-199678571D01*
X251880714Y-199607142D01*
X251809285Y-199535714D01*
X251737857Y-199392857D01*
X251666428Y-199107142D01*
X251666428Y-198750000D01*
X251737857Y-198464285D01*
X251809285Y-198321428D01*
X251880714Y-198250000D01*
X252023571Y-198178571D01*
D10*
D11*
X160760714Y-199607142D02*
X160975000Y-199678571D01*
X161332142Y-199678571D01*
X161475000Y-199607142D01*
X161546428Y-199535714D01*
X161617857Y-199392857D01*
X161617857Y-199250000D01*
X161546428Y-199107142D01*
X161475000Y-199035714D01*
X161332142Y-198964285D01*
X161046428Y-198892857D01*
X160903571Y-198821428D01*
X160832142Y-198750000D01*
X160760714Y-198607142D01*
X160760714Y-198464285D01*
X160832142Y-198321428D01*
X160903571Y-198250000D01*
X161046428Y-198178571D01*
X161403571Y-198178571D01*
X161617857Y-198250000D01*
X162260714Y-199678571D02*
X162260714Y-198678571D01*
X162260714Y-198178571D02*
X162189285Y-198250000D01*
X162260714Y-198321428D01*
X162332142Y-198250000D01*
X162260714Y-198178571D01*
X162260714Y-198321428D01*
X162832142Y-198678571D02*
X163617857Y-198678571D01*
X162832142Y-199678571D01*
X163617857Y-199678571D01*
X164760714Y-199607142D02*
X164617857Y-199678571D01*
X164332142Y-199678571D01*
X164189285Y-199607142D01*
X164117857Y-199464285D01*
X164117857Y-198892857D01*
X164189285Y-198750000D01*
X164332142Y-198678571D01*
X164617857Y-198678571D01*
X164760714Y-198750000D01*
X164832142Y-198892857D01*
X164832142Y-199035714D01*
X164117857Y-199178571D01*
X165475000Y-199535714D02*
X165546428Y-199607142D01*
X165475000Y-199678571D01*
X165403571Y-199607142D01*
X165475000Y-199535714D01*
X165475000Y-199678571D01*
X165475000Y-198750000D02*
X165546428Y-198821428D01*
X165475000Y-198892857D01*
X165403571Y-198821428D01*
X165475000Y-198750000D01*
X165475000Y-198892857D01*
X167260714Y-199250000D02*
X167975000Y-199250000D01*
X167117857Y-199678571D02*
X167617857Y-198178571D01*
X168117857Y-199678571D01*
D10*
D11*
X245832142Y-202478571D02*
X245832142Y-200978571D01*
X247189285Y-202478571D02*
X247189285Y-200978571D01*
X247189285Y-202407142D02*
X247046428Y-202478571D01*
X246760714Y-202478571D01*
X246617857Y-202407142D01*
X246546428Y-202335714D01*
X246475000Y-202192857D01*
X246475000Y-201764285D01*
X246546428Y-201621428D01*
X246617857Y-201550000D01*
X246760714Y-201478571D01*
X247046428Y-201478571D01*
X247189285Y-201550000D01*
X247903571Y-202335714D02*
X247975000Y-202407142D01*
X247903571Y-202478571D01*
X247832142Y-202407142D01*
X247903571Y-202335714D01*
X247903571Y-202478571D01*
X247903571Y-201550000D02*
X247975000Y-201621428D01*
X247903571Y-201692857D01*
X247832142Y-201621428D01*
X247903571Y-201550000D01*
X247903571Y-201692857D01*
X250546428Y-202478571D02*
X249689285Y-202478571D01*
X250117857Y-202478571D02*
X250117857Y-200978571D01*
X249975000Y-201192857D01*
X249832142Y-201335714D01*
X249689285Y-201407142D01*
X252260714Y-200907142D02*
X250975000Y-202835714D01*
X253546428Y-202478571D02*
X252689285Y-202478571D01*
X253117857Y-202478571D02*
X253117857Y-200978571D01*
X252975000Y-201192857D01*
X252832142Y-201335714D01*
X252689285Y-201407142D01*
D10*
D11*
X159400000Y-193400000D02*
X267400000Y-193400000D01*
D10*
D13*
X161112380Y-194104761D02*
X162255238Y-194104761D01*
X161433809Y-196104761D02*
X161683809Y-194104761D01*
X162671904Y-196104761D02*
X162838571Y-194771428D01*
X162921904Y-194104761D02*
X162814761Y-194200000D01*
X162898095Y-194295238D01*
X163005238Y-194200000D01*
X162921904Y-194104761D01*
X162898095Y-194295238D01*
X163505238Y-194771428D02*
X164267142Y-194771428D01*
X163874285Y-194104761D02*
X163660000Y-195819047D01*
X163731428Y-196009523D01*
X163910000Y-196104761D01*
X164100476Y-196104761D01*
X165052857Y-196104761D02*
X164874285Y-196009523D01*
X164802857Y-195819047D01*
X165017142Y-194104761D01*
X166588571Y-196009523D02*
X166386190Y-196104761D01*
X166005238Y-196104761D01*
X165826666Y-196009523D01*
X165755238Y-195819047D01*
X165850476Y-195057142D01*
X165969523Y-194866666D01*
X166171904Y-194771428D01*
X166552857Y-194771428D01*
X166731428Y-194866666D01*
X166802857Y-195057142D01*
X166779047Y-195247619D01*
X165802857Y-195438095D01*
X167552857Y-195914285D02*
X167636190Y-196009523D01*
X167529047Y-196104761D01*
X167445714Y-196009523D01*
X167552857Y-195914285D01*
X167529047Y-196104761D01*
X167683809Y-194866666D02*
X167767142Y-194961904D01*
X167660000Y-195057142D01*
X167576666Y-194961904D01*
X167683809Y-194866666D01*
X167660000Y-195057142D01*
X170005238Y-196104761D02*
X170255238Y-194104761D01*
X171017142Y-194104761D01*
X171195714Y-194200000D01*
X171279047Y-194295238D01*
X171350476Y-194485714D01*
X171314761Y-194771428D01*
X171195714Y-194961904D01*
X171088571Y-195057142D01*
X170886190Y-195152380D01*
X170124285Y-195152380D01*
X172290952Y-196104761D02*
X172112380Y-196009523D01*
X172029047Y-195914285D01*
X171957619Y-195723809D01*
X172029047Y-195152380D01*
X172148095Y-194961904D01*
X172255238Y-194866666D01*
X172457619Y-194771428D01*
X172743333Y-194771428D01*
X172921904Y-194866666D01*
X173005238Y-194961904D01*
X173076666Y-195152380D01*
X173005238Y-195723809D01*
X172886190Y-195914285D01*
X172779047Y-196009523D01*
X172576666Y-196104761D01*
X172290952Y-196104761D01*
X173790952Y-194771428D02*
X174005238Y-196104761D01*
X174505238Y-195152380D01*
X174767142Y-196104761D01*
X175314761Y-194771428D01*
X176683809Y-196009523D02*
X176481428Y-196104761D01*
X176100476Y-196104761D01*
X175921904Y-196009523D01*
X175850476Y-195819047D01*
X175945714Y-195057142D01*
X176064761Y-194866666D01*
X176267142Y-194771428D01*
X176648095Y-194771428D01*
X176826666Y-194866666D01*
X176898095Y-195057142D01*
X176874285Y-195247619D01*
X175898095Y-195438095D01*
X177624285Y-196104761D02*
X177790952Y-194771428D01*
X177743333Y-195152380D02*
X177862380Y-194961904D01*
X177969523Y-194866666D01*
X178171904Y-194771428D01*
X178362380Y-194771428D01*
X180302857Y-196009523D02*
X180576666Y-196104761D01*
X181052857Y-196104761D01*
X181255238Y-196009523D01*
X181362380Y-195914285D01*
X181481428Y-195723809D01*
X181505238Y-195533333D01*
X181433809Y-195342857D01*
X181350476Y-195247619D01*
X181171904Y-195152380D01*
X180802857Y-195057142D01*
X180624285Y-194961904D01*
X180540952Y-194866666D01*
X180469523Y-194676190D01*
X180493333Y-194485714D01*
X180612380Y-194295238D01*
X180719523Y-194200000D01*
X180921904Y-194104761D01*
X181398095Y-194104761D01*
X181671904Y-194200000D01*
X183314761Y-194771428D02*
X183148095Y-196104761D01*
X182457619Y-194771428D02*
X182326666Y-195819047D01*
X182398095Y-196009523D01*
X182576666Y-196104761D01*
X182862380Y-196104761D01*
X183064761Y-196009523D01*
X183171904Y-195914285D01*
X184267142Y-194771428D02*
X184017142Y-196771428D01*
X184255238Y-194866666D02*
X184457619Y-194771428D01*
X184838571Y-194771428D01*
X185017142Y-194866666D01*
X185100476Y-194961904D01*
X185171904Y-195152380D01*
X185100476Y-195723809D01*
X184981428Y-195914285D01*
X184874285Y-196009523D01*
X184671904Y-196104761D01*
X184290952Y-196104761D01*
X184112380Y-196009523D01*
X186076666Y-194771428D02*
X185826666Y-196771428D01*
X186064761Y-194866666D02*
X186267142Y-194771428D01*
X186648095Y-194771428D01*
X186826666Y-194866666D01*
X186910000Y-194961904D01*
X186981428Y-195152380D01*
X186910000Y-195723809D01*
X186790952Y-195914285D01*
X186683809Y-196009523D01*
X186481428Y-196104761D01*
X186100476Y-196104761D01*
X185921904Y-196009523D01*
X188005238Y-196104761D02*
X187826666Y-196009523D01*
X187755238Y-195819047D01*
X187969523Y-194104761D01*
X188743333Y-194771428D02*
X189052857Y-196104761D01*
X189695714Y-194771428D02*
X189052857Y-196104761D01*
X188802857Y-196580952D01*
X188695714Y-196676190D01*
X188493333Y-196771428D01*
X192612380Y-195057142D02*
X192886190Y-195152380D01*
X192969523Y-195247619D01*
X193040952Y-195438095D01*
X193005238Y-195723809D01*
X192886190Y-195914285D01*
X192779047Y-196009523D01*
X192576666Y-196104761D01*
X191814761Y-196104761D01*
X192064761Y-194104761D01*
X192731428Y-194104761D01*
X192910000Y-194200000D01*
X192993333Y-194295238D01*
X193064761Y-194485714D01*
X193040952Y-194676190D01*
X192921904Y-194866666D01*
X192814761Y-194961904D01*
X192612380Y-195057142D01*
X191945714Y-195057142D01*
X194100476Y-196104761D02*
X193921904Y-196009523D01*
X193838571Y-195914285D01*
X193767142Y-195723809D01*
X193838571Y-195152380D01*
X193957619Y-194961904D01*
X194064761Y-194866666D01*
X194267142Y-194771428D01*
X194552857Y-194771428D01*
X194731428Y-194866666D01*
X194814761Y-194961904D01*
X194886190Y-195152380D01*
X194814761Y-195723809D01*
X194695714Y-195914285D01*
X194588571Y-196009523D01*
X194386190Y-196104761D01*
X194100476Y-196104761D01*
X196481428Y-196104761D02*
X196612380Y-195057142D01*
X196540952Y-194866666D01*
X196362380Y-194771428D01*
X195981428Y-194771428D01*
X195779047Y-194866666D01*
X196493333Y-196009523D02*
X196290952Y-196104761D01*
X195814761Y-196104761D01*
X195636190Y-196009523D01*
X195564761Y-195819047D01*
X195588571Y-195628571D01*
X195707619Y-195438095D01*
X195910000Y-195342857D01*
X196386190Y-195342857D01*
X196588571Y-195247619D01*
X197433809Y-196104761D02*
X197600476Y-194771428D01*
X197552857Y-195152380D02*
X197671904Y-194961904D01*
X197779047Y-194866666D01*
X197981428Y-194771428D01*
X198171904Y-194771428D01*
X199529047Y-196104761D02*
X199779047Y-194104761D01*
X199540952Y-196009523D02*
X199338571Y-196104761D01*
X198957619Y-196104761D01*
X198779047Y-196009523D01*
X198695714Y-195914285D01*
X198624285Y-195723809D01*
X198695714Y-195152380D01*
X198814761Y-194961904D01*
X198921904Y-194866666D01*
X199124285Y-194771428D01*
X199505238Y-194771428D01*
X199683809Y-194866666D01*
D10*
D11*
X161332142Y-191492857D02*
X160832142Y-191492857D01*
X160832142Y-192278571D02*
X160832142Y-190778571D01*
X161546428Y-190778571D01*
X162117857Y-192278571D02*
X162117857Y-191278571D01*
X162117857Y-190778571D02*
X162046428Y-190850000D01*
X162117857Y-190921428D01*
X162189285Y-190850000D01*
X162117857Y-190778571D01*
X162117857Y-190921428D01*
X163046428Y-192278571D02*
X162903571Y-192207142D01*
X162832142Y-192064285D01*
X162832142Y-190778571D01*
X164189285Y-192207142D02*
X164046428Y-192278571D01*
X163760714Y-192278571D01*
X163617857Y-192207142D01*
X163546428Y-192064285D01*
X163546428Y-191492857D01*
X163617857Y-191350000D01*
X163760714Y-191278571D01*
X164046428Y-191278571D01*
X164189285Y-191350000D01*
X164260714Y-191492857D01*
X164260714Y-191635714D01*
X163546428Y-191778571D01*
X164903571Y-192135714D02*
X164975000Y-192207142D01*
X164903571Y-192278571D01*
X164832142Y-192207142D01*
X164903571Y-192135714D01*
X164903571Y-192278571D01*
X164903571Y-191350000D02*
X164975000Y-191421428D01*
X164903571Y-191492857D01*
X164832142Y-191421428D01*
X164903571Y-191350000D01*
X164903571Y-191492857D01*
X166760714Y-191278571D02*
X166760714Y-192778571D01*
X166760714Y-191350000D02*
X166903571Y-191278571D01*
X167189285Y-191278571D01*
X167332142Y-191350000D01*
X167403571Y-191421428D01*
X167475000Y-191564285D01*
X167475000Y-191992857D01*
X167403571Y-192135714D01*
X167332142Y-192207142D01*
X167189285Y-192278571D01*
X166903571Y-192278571D01*
X166760714Y-192207142D01*
X168332142Y-192278571D02*
X168189285Y-192207142D01*
X168117857Y-192135714D01*
X168046428Y-191992857D01*
X168046428Y-191564285D01*
X168117857Y-191421428D01*
X168189285Y-191350000D01*
X168332142Y-191278571D01*
X168546428Y-191278571D01*
X168689285Y-191350000D01*
X168760714Y-191421428D01*
X168832142Y-191564285D01*
X168832142Y-191992857D01*
X168760714Y-192135714D01*
X168689285Y-192207142D01*
X168546428Y-192278571D01*
X168332142Y-192278571D01*
X169332142Y-191278571D02*
X169617857Y-192278571D01*
X169903571Y-191564285D01*
X170189285Y-192278571D01*
X170475000Y-191278571D01*
X171617857Y-192207142D02*
X171475000Y-192278571D01*
X171189285Y-192278571D01*
X171046428Y-192207142D01*
X170975000Y-192064285D01*
X170975000Y-191492857D01*
X171046428Y-191350000D01*
X171189285Y-191278571D01*
X171475000Y-191278571D01*
X171617857Y-191350000D01*
X171689285Y-191492857D01*
X171689285Y-191635714D01*
X170975000Y-191778571D01*
X172332142Y-192278571D02*
X172332142Y-191278571D01*
X172332142Y-191564285D02*
X172403571Y-191421428D01*
X172475000Y-191350000D01*
X172617857Y-191278571D01*
X172760714Y-191278571D01*
X172903571Y-192421428D02*
X174046428Y-192421428D01*
X174332142Y-192207142D02*
X174475000Y-192278571D01*
X174760714Y-192278571D01*
X174903571Y-192207142D01*
X174975000Y-192064285D01*
X174975000Y-191992857D01*
X174903571Y-191850000D01*
X174760714Y-191778571D01*
X174546428Y-191778571D01*
X174403571Y-191707142D01*
X174332142Y-191564285D01*
X174332142Y-191492857D01*
X174403571Y-191350000D01*
X174546428Y-191278571D01*
X174760714Y-191278571D01*
X174903571Y-191350000D01*
X176260714Y-191278571D02*
X176260714Y-192278571D01*
X175617857Y-191278571D02*
X175617857Y-192064285D01*
X175689285Y-192207142D01*
X175832142Y-192278571D01*
X176046428Y-192278571D01*
X176189285Y-192207142D01*
X176260714Y-192135714D01*
X176975000Y-191278571D02*
X176975000Y-192778571D01*
X176975000Y-191350000D02*
X177117857Y-191278571D01*
X177403571Y-191278571D01*
X177546428Y-191350000D01*
X177617857Y-191421428D01*
X177689285Y-191564285D01*
X177689285Y-191992857D01*
X177617857Y-192135714D01*
X177546428Y-192207142D01*
X177403571Y-192278571D01*
X177117857Y-192278571D01*
X176975000Y-192207142D01*
X178332142Y-191278571D02*
X178332142Y-192778571D01*
X178332142Y-191350000D02*
X178475000Y-191278571D01*
X178760714Y-191278571D01*
X178903571Y-191350000D01*
X178975000Y-191421428D01*
X179046428Y-191564285D01*
X179046428Y-191992857D01*
X178975000Y-192135714D01*
X178903571Y-192207142D01*
X178760714Y-192278571D01*
X178475000Y-192278571D01*
X178332142Y-192207142D01*
X179903571Y-192278571D02*
X179760714Y-192207142D01*
X179689285Y-192064285D01*
X179689285Y-190778571D01*
X180332142Y-191278571D02*
X180689285Y-192278571D01*
X181046428Y-191278571D02*
X180689285Y-192278571D01*
X180546428Y-192635714D01*
X180475000Y-192707142D01*
X180332142Y-192778571D01*
X181617857Y-192135714D02*
X181689285Y-192207142D01*
X181617857Y-192278571D01*
X181546428Y-192207142D01*
X181617857Y-192135714D01*
X181617857Y-192278571D01*
X182332142Y-192278571D02*
X182332142Y-190778571D01*
X182475000Y-191707142D02*
X182903571Y-192278571D01*
X182903571Y-191278571D02*
X182332142Y-191850000D01*
X183546428Y-192278571D02*
X183546428Y-191278571D01*
X183546428Y-190778571D02*
X183475000Y-190850000D01*
X183546428Y-190921428D01*
X183617857Y-190850000D01*
X183546428Y-190778571D01*
X183546428Y-190921428D01*
X184903571Y-192207142D02*
X184760714Y-192278571D01*
X184475000Y-192278571D01*
X184332142Y-192207142D01*
X184260714Y-192135714D01*
X184189285Y-191992857D01*
X184189285Y-191564285D01*
X184260714Y-191421428D01*
X184332142Y-191350000D01*
X184475000Y-191278571D01*
X184760714Y-191278571D01*
X184903571Y-191350000D01*
X186189285Y-192278571D02*
X186189285Y-191492857D01*
X186117857Y-191350000D01*
X185975000Y-191278571D01*
X185689285Y-191278571D01*
X185546428Y-191350000D01*
X186189285Y-192207142D02*
X186046428Y-192278571D01*
X185689285Y-192278571D01*
X185546428Y-192207142D01*
X185475000Y-192064285D01*
X185475000Y-191921428D01*
X185546428Y-191778571D01*
X185689285Y-191707142D01*
X186046428Y-191707142D01*
X186189285Y-191635714D01*
X187546428Y-192278571D02*
X187546428Y-190778571D01*
X187546428Y-192207142D02*
X187403571Y-192278571D01*
X187117857Y-192278571D01*
X186975000Y-192207142D01*
X186903571Y-192135714D01*
X186832142Y-191992857D01*
X186832142Y-191564285D01*
X186903571Y-191421428D01*
X186975000Y-191350000D01*
X187117857Y-191278571D01*
X187403571Y-191278571D01*
X187546428Y-191350000D01*
X187903571Y-192421428D02*
X189046428Y-192421428D01*
X189403571Y-191278571D02*
X189403571Y-192778571D01*
X189403571Y-191350000D02*
X189546428Y-191278571D01*
X189832142Y-191278571D01*
X189975000Y-191350000D01*
X190046428Y-191421428D01*
X190117857Y-191564285D01*
X190117857Y-191992857D01*
X190046428Y-192135714D01*
X189975000Y-192207142D01*
X189832142Y-192278571D01*
X189546428Y-192278571D01*
X189403571Y-192207142D01*
X191403571Y-192207142D02*
X191260714Y-192278571D01*
X190975000Y-192278571D01*
X190832142Y-192207142D01*
X190760714Y-192135714D01*
X190689285Y-191992857D01*
X190689285Y-191564285D01*
X190760714Y-191421428D01*
X190832142Y-191350000D01*
X190975000Y-191278571D01*
X191260714Y-191278571D01*
X191403571Y-191350000D01*
X192046428Y-192278571D02*
X192046428Y-190778571D01*
X192046428Y-191350000D02*
X192189285Y-191278571D01*
X192475000Y-191278571D01*
X192617857Y-191350000D01*
X192689285Y-191421428D01*
X192760714Y-191564285D01*
X192760714Y-191992857D01*
X192689285Y-192135714D01*
X192617857Y-192207142D01*
X192475000Y-192278571D01*
X192189285Y-192278571D01*
X192046428Y-192207142D01*
D10*
D11*
X159400000Y-187400000D02*
X267400000Y-187400000D01*
D10*
D11*
X160760714Y-189507142D02*
X160975000Y-189578571D01*
X161332142Y-189578571D01*
X161475000Y-189507142D01*
X161546428Y-189435714D01*
X161617857Y-189292857D01*
X161617857Y-189150000D01*
X161546428Y-189007142D01*
X161475000Y-188935714D01*
X161332142Y-188864285D01*
X161046428Y-188792857D01*
X160903571Y-188721428D01*
X160832142Y-188650000D01*
X160760714Y-188507142D01*
X160760714Y-188364285D01*
X160832142Y-188221428D01*
X160903571Y-188150000D01*
X161046428Y-188078571D01*
X161403571Y-188078571D01*
X161617857Y-188150000D01*
X162260714Y-189578571D02*
X162260714Y-188078571D01*
X162903571Y-189578571D02*
X162903571Y-188792857D01*
X162832142Y-188650000D01*
X162689285Y-188578571D01*
X162475000Y-188578571D01*
X162332142Y-188650000D01*
X162260714Y-188721428D01*
X164189285Y-189507142D02*
X164046428Y-189578571D01*
X163760714Y-189578571D01*
X163617857Y-189507142D01*
X163546428Y-189364285D01*
X163546428Y-188792857D01*
X163617857Y-188650000D01*
X163760714Y-188578571D01*
X164046428Y-188578571D01*
X164189285Y-188650000D01*
X164260714Y-188792857D01*
X164260714Y-188935714D01*
X163546428Y-189078571D01*
X165475000Y-189507142D02*
X165332142Y-189578571D01*
X165046428Y-189578571D01*
X164903571Y-189507142D01*
X164832142Y-189364285D01*
X164832142Y-188792857D01*
X164903571Y-188650000D01*
X165046428Y-188578571D01*
X165332142Y-188578571D01*
X165475000Y-188650000D01*
X165546428Y-188792857D01*
X165546428Y-188935714D01*
X164832142Y-189078571D01*
X165975000Y-188578571D02*
X166546428Y-188578571D01*
X166189285Y-188078571D02*
X166189285Y-189364285D01*
X166260714Y-189507142D01*
X166403571Y-189578571D01*
X166546428Y-189578571D01*
X167046428Y-189435714D02*
X167117857Y-189507142D01*
X167046428Y-189578571D01*
X166975000Y-189507142D01*
X167046428Y-189435714D01*
X167046428Y-189578571D01*
X167046428Y-188650000D02*
X167117857Y-188721428D01*
X167046428Y-188792857D01*
X166975000Y-188721428D01*
X167046428Y-188650000D01*
X167046428Y-188792857D01*
D10*
D12*
X161737857Y-185150000D02*
X161595000Y-185078571D01*
X161380714Y-185078571D01*
X161166428Y-185150000D01*
X161023571Y-185292857D01*
X160952142Y-185435714D01*
X160880714Y-185721428D01*
X160880714Y-185935714D01*
X160952142Y-186221428D01*
X161023571Y-186364285D01*
X161166428Y-186507142D01*
X161380714Y-186578571D01*
X161523571Y-186578571D01*
X161737857Y-186507142D01*
X161809285Y-186435714D01*
X161809285Y-185935714D01*
X161523571Y-185935714D01*
X162452142Y-186435714D02*
X162523571Y-186507142D01*
X162452142Y-186578571D01*
X162380714Y-186507142D01*
X162452142Y-186435714D01*
X162452142Y-186578571D01*
X164309285Y-186578571D02*
X164309285Y-185078571D01*
X165166428Y-186578571D02*
X164523571Y-185721428D01*
X165166428Y-185078571D02*
X164309285Y-185935714D01*
X166380714Y-186507142D02*
X166237857Y-186578571D01*
X165952142Y-186578571D01*
X165809285Y-186507142D01*
X165737857Y-186364285D01*
X165737857Y-185792857D01*
X165809285Y-185650000D01*
X165952142Y-185578571D01*
X166237857Y-185578571D01*
X166380714Y-185650000D01*
X166452142Y-185792857D01*
X166452142Y-185935714D01*
X165737857Y-186078571D01*
X167666428Y-186507142D02*
X167523571Y-186578571D01*
X167237857Y-186578571D01*
X167095000Y-186507142D01*
X167023571Y-186364285D01*
X167023571Y-185792857D01*
X167095000Y-185650000D01*
X167237857Y-185578571D01*
X167523571Y-185578571D01*
X167666428Y-185650000D01*
X167737857Y-185792857D01*
X167737857Y-185935714D01*
X167023571Y-186078571D01*
X168166428Y-185578571D02*
X168737857Y-185578571D01*
X168380714Y-185078571D02*
X168380714Y-186364285D01*
X168452142Y-186507142D01*
X168595000Y-186578571D01*
X168737857Y-186578571D01*
X169237857Y-186578571D02*
X169237857Y-185078571D01*
X169880714Y-186578571D02*
X169880714Y-185792857D01*
X169809285Y-185650000D01*
X169666428Y-185578571D01*
X169452142Y-185578571D01*
X169309285Y-185650000D01*
X169237857Y-185721428D01*
D10*
D11*
X160832142Y-183578571D02*
X160832142Y-182078571D01*
X161403571Y-182078571D01*
X161546428Y-182150000D01*
X161617857Y-182221428D01*
X161689285Y-182364285D01*
X161689285Y-182578571D01*
X161617857Y-182721428D01*
X161546428Y-182792857D01*
X161403571Y-182864285D01*
X160832142Y-182864285D01*
X162332142Y-183578571D02*
X162332142Y-182578571D01*
X162332142Y-182864285D02*
X162403571Y-182721428D01*
X162475000Y-182650000D01*
X162617857Y-182578571D01*
X162760714Y-182578571D01*
X163832142Y-183507142D02*
X163689285Y-183578571D01*
X163403571Y-183578571D01*
X163260714Y-183507142D01*
X163189285Y-183364285D01*
X163189285Y-182792857D01*
X163260714Y-182650000D01*
X163403571Y-182578571D01*
X163689285Y-182578571D01*
X163832142Y-182650000D01*
X163903571Y-182792857D01*
X163903571Y-182935714D01*
X163189285Y-183078571D01*
X165189285Y-183578571D02*
X165189285Y-182792857D01*
X165117857Y-182650000D01*
X164975000Y-182578571D01*
X164689285Y-182578571D01*
X164546428Y-182650000D01*
X165189285Y-183507142D02*
X165046428Y-183578571D01*
X164689285Y-183578571D01*
X164546428Y-183507142D01*
X164475000Y-183364285D01*
X164475000Y-183221428D01*
X164546428Y-183078571D01*
X164689285Y-183007142D01*
X165046428Y-183007142D01*
X165189285Y-182935714D01*
X165903571Y-183578571D02*
X165903571Y-182578571D01*
X165903571Y-182721428D02*
X165975000Y-182650000D01*
X166117857Y-182578571D01*
X166332142Y-182578571D01*
X166475000Y-182650000D01*
X166546428Y-182792857D01*
X166546428Y-183578571D01*
X166546428Y-182792857D02*
X166617857Y-182650000D01*
X166760714Y-182578571D01*
X166975000Y-182578571D01*
X167117857Y-182650000D01*
X167189285Y-182792857D01*
X167189285Y-183578571D01*
X167903571Y-182578571D02*
X167903571Y-184078571D01*
X167903571Y-182650000D02*
X168046428Y-182578571D01*
X168332142Y-182578571D01*
X168475000Y-182650000D01*
X168546428Y-182721428D01*
X168617857Y-182864285D01*
X168617857Y-183292857D01*
X168546428Y-183435714D01*
X168475000Y-183507142D01*
X168332142Y-183578571D01*
X168046428Y-183578571D01*
X167903571Y-183507142D01*
X170332142Y-182221428D02*
X170403571Y-182150000D01*
X170546428Y-182078571D01*
X170903571Y-182078571D01*
X171046428Y-182150000D01*
X171117857Y-182221428D01*
X171189285Y-182364285D01*
X171189285Y-182507142D01*
X171117857Y-182721428D01*
X170260714Y-183578571D01*
X171189285Y-183578571D01*
X172117857Y-182078571D02*
X172260714Y-182078571D01*
X172403571Y-182150000D01*
X172475000Y-182221428D01*
X172546428Y-182364285D01*
X172617857Y-182650000D01*
X172617857Y-183007142D01*
X172546428Y-183292857D01*
X172475000Y-183435714D01*
X172403571Y-183507142D01*
X172260714Y-183578571D01*
X172117857Y-183578571D01*
X171975000Y-183507142D01*
X171903571Y-183435714D01*
X171832142Y-183292857D01*
X171760714Y-183007142D01*
X171760714Y-182650000D01*
X171832142Y-182364285D01*
X171903571Y-182221428D01*
X171975000Y-182150000D01*
X172117857Y-182078571D01*
X174046428Y-183578571D02*
X173189285Y-183578571D01*
X173617857Y-183578571D02*
X173617857Y-182078571D01*
X173475000Y-182292857D01*
X173332142Y-182435714D01*
X173189285Y-182507142D01*
X174760714Y-183578571D02*
X175046428Y-183578571D01*
X175189285Y-183507142D01*
X175260714Y-183435714D01*
X175403571Y-183221428D01*
X175475000Y-182935714D01*
X175475000Y-182364285D01*
X175403571Y-182221428D01*
X175332142Y-182150000D01*
X175189285Y-182078571D01*
X174903571Y-182078571D01*
X174760714Y-182150000D01*
X174689285Y-182221428D01*
X174617857Y-182364285D01*
X174617857Y-182721428D01*
X174689285Y-182864285D01*
X174760714Y-182935714D01*
X174903571Y-183007142D01*
X175189285Y-183007142D01*
X175332142Y-182935714D01*
X175403571Y-182864285D01*
X175475000Y-182721428D01*
D10*
D11*
X179400000Y-197400000D02*
X179400000Y-200400000D01*
D10*
D11*
X243400000Y-197400000D02*
X243400000Y-203900000D01*
D10*
G36*
X86649345Y-143595357D02*
G01*
X86812680Y-143644904D01*
X86927576Y-143679757D01*
X87183988Y-143816812D01*
X87408739Y-144001261D01*
X87593188Y-144226012D01*
X87730243Y-144482423D01*
X87814643Y-144760655D01*
X87836000Y-144977494D01*
X87836000Y-147122506D01*
X87814643Y-147339345D01*
X87730243Y-147617577D01*
X87593188Y-147873988D01*
X87408739Y-148098739D01*
X87183988Y-148283188D01*
X86927577Y-148420243D01*
X86812681Y-148455096D01*
X86649346Y-148504643D01*
X86360000Y-148533141D01*
X86070655Y-148504643D01*
X85907320Y-148455096D01*
X85792424Y-148420243D01*
X85536013Y-148283188D01*
X85311262Y-148098739D01*
X85126813Y-147873988D01*
X84989758Y-147617577D01*
X84905358Y-147339345D01*
X84884001Y-147122506D01*
X84884000Y-144977495D01*
X84905357Y-144760656D01*
X84905358Y-144760654D01*
X84954904Y-144597320D01*
X84989757Y-144482424D01*
X85126812Y-144226012D01*
X85311261Y-144001261D01*
X85536012Y-143816812D01*
X85792423Y-143679757D01*
X85907319Y-143644904D01*
X86070654Y-143595357D01*
X86360000Y-143566859D01*
X86649345Y-143595357D01*
X86649345Y-143595357D01*
G37*
G36*
X112449345Y-143595357D02*
G01*
X112612680Y-143644904D01*
X112727576Y-143679757D01*
X112983988Y-143816812D01*
X113208739Y-144001261D01*
X113393188Y-144226012D01*
X113530243Y-144482423D01*
X113614643Y-144760655D01*
X113636000Y-144977494D01*
X113636000Y-147122506D01*
X113614643Y-147339345D01*
X113530243Y-147617577D01*
X113393188Y-147873988D01*
X113208739Y-148098739D01*
X112983988Y-148283188D01*
X112727577Y-148420243D01*
X112612681Y-148455096D01*
X112449346Y-148504643D01*
X112160000Y-148533141D01*
X111870655Y-148504643D01*
X111707320Y-148455096D01*
X111592424Y-148420243D01*
X111336013Y-148283188D01*
X111111262Y-148098739D01*
X110926813Y-147873988D01*
X110789758Y-147617577D01*
X110705358Y-147339345D01*
X110684001Y-147122506D01*
X110684000Y-144977495D01*
X110705357Y-144760656D01*
X110705358Y-144760654D01*
X110754904Y-144597320D01*
X110789757Y-144482424D01*
X110926812Y-144226012D01*
X111111261Y-144001261D01*
X111336012Y-143816812D01*
X111592423Y-143679757D01*
X111707319Y-143644904D01*
X111870654Y-143595357D01*
X112160000Y-143566859D01*
X112449345Y-143595357D01*
X112449345Y-143595357D01*
G37*
G36*
X100774000Y-146747000D02*
G01*
X98172000Y-146747000D01*
X98172000Y-144845000D01*
X100774000Y-144845000D01*
X100774000Y-146747000D01*
X100774000Y-146747000D01*
G37*
G36*
X104774000Y-146747000D02*
G01*
X102172000Y-146747000D01*
X102172000Y-144845000D01*
X104774000Y-144845000D01*
X104774000Y-146747000D01*
X104774000Y-146747000D01*
G37*
G36*
X143327477Y-137623892D02*
G01*
X143648827Y-137757000D01*
X144155707Y-137966956D01*
X144901093Y-138465008D01*
X145534992Y-139098907D01*
X146033044Y-139844293D01*
X146220475Y-140296793D01*
X146376108Y-140672523D01*
X146551000Y-141551764D01*
X146551000Y-142448236D01*
X146376108Y-143327477D01*
X146245693Y-143642326D01*
X146033044Y-144155707D01*
X145534992Y-144901093D01*
X144901093Y-145534992D01*
X144155707Y-146033044D01*
X143670541Y-146234006D01*
X143327477Y-146376108D01*
X142448236Y-146551000D01*
X141551764Y-146551000D01*
X140672523Y-146376108D01*
X140329459Y-146234006D01*
X139844293Y-146033044D01*
X139098907Y-145534992D01*
X138465008Y-144901093D01*
X137966956Y-144155707D01*
X137754307Y-143642326D01*
X137623892Y-143327477D01*
X137449000Y-142448236D01*
X137449000Y-141551764D01*
X137623892Y-140672523D01*
X137779525Y-140296793D01*
X137966956Y-139844293D01*
X138465008Y-139098907D01*
X139098907Y-138465008D01*
X139844293Y-137966956D01*
X140351173Y-137757000D01*
X140672523Y-137623892D01*
X141551764Y-137449000D01*
X142448236Y-137449000D01*
X143327477Y-137623892D01*
X143327477Y-137623892D01*
G37*
G36*
X59327477Y-137623892D02*
G01*
X59648827Y-137757000D01*
X60155707Y-137966956D01*
X60901093Y-138465008D01*
X61534992Y-139098907D01*
X62033044Y-139844293D01*
X62220475Y-140296793D01*
X62376108Y-140672523D01*
X62551000Y-141551764D01*
X62551000Y-142448236D01*
X62376108Y-143327477D01*
X62245693Y-143642326D01*
X62033044Y-144155707D01*
X61534992Y-144901093D01*
X60901093Y-145534992D01*
X60155707Y-146033044D01*
X59670541Y-146234006D01*
X59327477Y-146376108D01*
X58448236Y-146551000D01*
X57551764Y-146551000D01*
X56672523Y-146376108D01*
X56329459Y-146234006D01*
X55844293Y-146033044D01*
X55098907Y-145534992D01*
X54465008Y-144901093D01*
X53966956Y-144155707D01*
X53754307Y-143642326D01*
X53623892Y-143327477D01*
X53449000Y-142448236D01*
X53449000Y-141551764D01*
X53623892Y-140672523D01*
X53779525Y-140296793D01*
X53966956Y-139844293D01*
X54465008Y-139098907D01*
X55098907Y-138465008D01*
X55844293Y-137966956D01*
X56351173Y-137757000D01*
X56672523Y-137623892D01*
X57551764Y-137449000D01*
X58448236Y-137449000D01*
X59327477Y-137623892D01*
X59327477Y-137623892D01*
G37*
G36*
X130757065Y-143318238D02*
G01*
X130829346Y-143325357D01*
X130923199Y-143353827D01*
X131107577Y-143409757D01*
X131363988Y-143546812D01*
X131588739Y-143731261D01*
X131773188Y-143956012D01*
X131910243Y-144212423D01*
X131910244Y-144212427D01*
X131994643Y-144490654D01*
X132023141Y-144780000D01*
X132003690Y-144977495D01*
X131994643Y-145069345D01*
X131910243Y-145347577D01*
X131773188Y-145603988D01*
X131588739Y-145828739D01*
X131363988Y-146013188D01*
X131107577Y-146150243D01*
X130992681Y-146185096D01*
X130829346Y-146234643D01*
X130757065Y-146241762D01*
X130612506Y-146256000D01*
X128467494Y-146256000D01*
X128322935Y-146241762D01*
X128250654Y-146234643D01*
X128087319Y-146185096D01*
X127972423Y-146150243D01*
X127716012Y-146013188D01*
X127491261Y-145828739D01*
X127306812Y-145603988D01*
X127169757Y-145347577D01*
X127085357Y-145069345D01*
X127076311Y-144977495D01*
X127056859Y-144780000D01*
X127085357Y-144490654D01*
X127169756Y-144212427D01*
X127169757Y-144212423D01*
X127306812Y-143956012D01*
X127491261Y-143731261D01*
X127716012Y-143546812D01*
X127972423Y-143409757D01*
X128156801Y-143353827D01*
X128250654Y-143325357D01*
X128322935Y-143318238D01*
X128467494Y-143304000D01*
X130612506Y-143304000D01*
X130757065Y-143318238D01*
X130757065Y-143318238D01*
G37*
G36*
X80190547Y-143642326D02*
G01*
X80364156Y-143694990D01*
X80364158Y-143694991D01*
X80524155Y-143780511D01*
X80664397Y-143895603D01*
X80743729Y-143992271D01*
X80779489Y-144035844D01*
X80865010Y-144195843D01*
X80917674Y-144369452D01*
X80931000Y-144504756D01*
X80931000Y-145055243D01*
X80917674Y-145190548D01*
X80865010Y-145364157D01*
X80779489Y-145524156D01*
X80743729Y-145567729D01*
X80664397Y-145664397D01*
X80567729Y-145743729D01*
X80524156Y-145779489D01*
X80364157Y-145865010D01*
X80190548Y-145917674D01*
X80010000Y-145935456D01*
X79829453Y-145917674D01*
X79655844Y-145865010D01*
X79495845Y-145779489D01*
X79452272Y-145743729D01*
X79355604Y-145664397D01*
X79240513Y-145524157D01*
X79240512Y-145524155D01*
X79154990Y-145364157D01*
X79102326Y-145190548D01*
X79089000Y-145055244D01*
X79089000Y-144504757D01*
X79102326Y-144369453D01*
X79154990Y-144195844D01*
X79240511Y-144035845D01*
X79268893Y-144001261D01*
X79355603Y-143895603D01*
X79481388Y-143792375D01*
X79495844Y-143780511D01*
X79655843Y-143694990D01*
X79829452Y-143642326D01*
X80010000Y-143624544D01*
X80190547Y-143642326D01*
X80190547Y-143642326D01*
G37*
G36*
X68760547Y-143642326D02*
G01*
X68934156Y-143694990D01*
X68934158Y-143694991D01*
X69094155Y-143780511D01*
X69234397Y-143895603D01*
X69313729Y-143992271D01*
X69349489Y-144035844D01*
X69435010Y-144195843D01*
X69487674Y-144369452D01*
X69501000Y-144504756D01*
X69501000Y-145055243D01*
X69487674Y-145190548D01*
X69435010Y-145364157D01*
X69349489Y-145524156D01*
X69313729Y-145567729D01*
X69234397Y-145664397D01*
X69137729Y-145743729D01*
X69094156Y-145779489D01*
X68934157Y-145865010D01*
X68760548Y-145917674D01*
X68580000Y-145935456D01*
X68399453Y-145917674D01*
X68225844Y-145865010D01*
X68065845Y-145779489D01*
X68022272Y-145743729D01*
X67925604Y-145664397D01*
X67810513Y-145524157D01*
X67810512Y-145524155D01*
X67724990Y-145364157D01*
X67672326Y-145190548D01*
X67659000Y-145055244D01*
X67659000Y-144504757D01*
X67672326Y-144369453D01*
X67724990Y-144195844D01*
X67810511Y-144035845D01*
X67838893Y-144001261D01*
X67925603Y-143895603D01*
X68051388Y-143792375D01*
X68065844Y-143780511D01*
X68225843Y-143694990D01*
X68399452Y-143642326D01*
X68580000Y-143624544D01*
X68760547Y-143642326D01*
X68760547Y-143642326D01*
G37*
G36*
X78249561Y-143632966D02*
G01*
X78282383Y-143642923D01*
X78312632Y-143659092D01*
X78339148Y-143680852D01*
X78360908Y-143707368D01*
X78377077Y-143737617D01*
X78387034Y-143770439D01*
X78391000Y-143810713D01*
X78391000Y-145749287D01*
X78387034Y-145789561D01*
X78377077Y-145822383D01*
X78360908Y-145852632D01*
X78339148Y-145879148D01*
X78312632Y-145900908D01*
X78282383Y-145917077D01*
X78249561Y-145927034D01*
X78209287Y-145931000D01*
X76730713Y-145931000D01*
X76690439Y-145927034D01*
X76657617Y-145917077D01*
X76627368Y-145900908D01*
X76600852Y-145879148D01*
X76579092Y-145852632D01*
X76562923Y-145822383D01*
X76552966Y-145789561D01*
X76549000Y-145749287D01*
X76549000Y-143810713D01*
X76552966Y-143770439D01*
X76562923Y-143737617D01*
X76579092Y-143707368D01*
X76600852Y-143680852D01*
X76627368Y-143659092D01*
X76657617Y-143642923D01*
X76690439Y-143632966D01*
X76730713Y-143629000D01*
X78209287Y-143629000D01*
X78249561Y-143632966D01*
X78249561Y-143632966D01*
G37*
G36*
X66819561Y-143632966D02*
G01*
X66852383Y-143642923D01*
X66882632Y-143659092D01*
X66909148Y-143680852D01*
X66930908Y-143707368D01*
X66947077Y-143737617D01*
X66957034Y-143770439D01*
X66961000Y-143810713D01*
X66961000Y-145749287D01*
X66957034Y-145789561D01*
X66947077Y-145822383D01*
X66930908Y-145852632D01*
X66909148Y-145879148D01*
X66882632Y-145900908D01*
X66852383Y-145917077D01*
X66819561Y-145927034D01*
X66779287Y-145931000D01*
X65300713Y-145931000D01*
X65260439Y-145927034D01*
X65227617Y-145917077D01*
X65197368Y-145900908D01*
X65170852Y-145879148D01*
X65149092Y-145852632D01*
X65132923Y-145822383D01*
X65122966Y-145789561D01*
X65119000Y-145749287D01*
X65119000Y-143810713D01*
X65122966Y-143770439D01*
X65132923Y-143737617D01*
X65149092Y-143707368D01*
X65170852Y-143680852D01*
X65197368Y-143659092D01*
X65227617Y-143642923D01*
X65260439Y-143632966D01*
X65300713Y-143629000D01*
X66779287Y-143629000D01*
X66819561Y-143632966D01*
X66819561Y-143632966D01*
G37*
G36*
X100022674Y-142128465D02*
G01*
X100060367Y-142139899D01*
X100095103Y-142158466D01*
X100125548Y-142183452D01*
X100150534Y-142213897D01*
X100169101Y-142248633D01*
X100180535Y-142286326D01*
X100185000Y-142331661D01*
X100185000Y-143418339D01*
X100180535Y-143463674D01*
X100169101Y-143501367D01*
X100150534Y-143536103D01*
X100125548Y-143566548D01*
X100095103Y-143591534D01*
X100060367Y-143610101D01*
X100022674Y-143621535D01*
X99977339Y-143626000D01*
X99140661Y-143626000D01*
X99095326Y-143621535D01*
X99057633Y-143610101D01*
X99022897Y-143591534D01*
X98992452Y-143566548D01*
X98967466Y-143536103D01*
X98948899Y-143501367D01*
X98937465Y-143463674D01*
X98933000Y-143418339D01*
X98933000Y-142331661D01*
X98937465Y-142286326D01*
X98948899Y-142248633D01*
X98967466Y-142213897D01*
X98992452Y-142183452D01*
X99022897Y-142158466D01*
X99057633Y-142139899D01*
X99095326Y-142128465D01*
X99140661Y-142124000D01*
X99977339Y-142124000D01*
X100022674Y-142128465D01*
X100022674Y-142128465D01*
G37*
G36*
X102072674Y-142128465D02*
G01*
X102110367Y-142139899D01*
X102145103Y-142158466D01*
X102175548Y-142183452D01*
X102200534Y-142213897D01*
X102219101Y-142248633D01*
X102230535Y-142286326D01*
X102235000Y-142331661D01*
X102235000Y-143418339D01*
X102230535Y-143463674D01*
X102219101Y-143501367D01*
X102200534Y-143536103D01*
X102175548Y-143566548D01*
X102145103Y-143591534D01*
X102110367Y-143610101D01*
X102072674Y-143621535D01*
X102027339Y-143626000D01*
X101190661Y-143626000D01*
X101145326Y-143621535D01*
X101107633Y-143610101D01*
X101072897Y-143591534D01*
X101042452Y-143566548D01*
X101017466Y-143536103D01*
X100998899Y-143501367D01*
X100987465Y-143463674D01*
X100983000Y-143418339D01*
X100983000Y-142331661D01*
X100987465Y-142286326D01*
X100998899Y-142248633D01*
X101017466Y-142213897D01*
X101042452Y-142183452D01*
X101072897Y-142158466D01*
X101107633Y-142139899D01*
X101145326Y-142128465D01*
X101190661Y-142124000D01*
X102027339Y-142124000D01*
X102072674Y-142128465D01*
X102072674Y-142128465D01*
G37*
G36*
X99456719Y-139163520D02*
G01*
X99645880Y-139220901D01*
X99645883Y-139220902D01*
X99679079Y-139238646D01*
X99820212Y-139314083D01*
X99973015Y-139439485D01*
X100098417Y-139592288D01*
X100191599Y-139766619D01*
X100248980Y-139955780D01*
X100263500Y-140103206D01*
X100263500Y-140296793D01*
X100248980Y-140444219D01*
X100191599Y-140633380D01*
X100191598Y-140633383D01*
X100170677Y-140672523D01*
X100098417Y-140807712D01*
X99973015Y-140960515D01*
X99820212Y-141085917D01*
X99645881Y-141179099D01*
X99456720Y-141236480D01*
X99260000Y-141255855D01*
X99063281Y-141236480D01*
X98874120Y-141179099D01*
X98699788Y-141085917D01*
X98546985Y-140960515D01*
X98421583Y-140807712D01*
X98328401Y-140633381D01*
X98271020Y-140444220D01*
X98256500Y-140296794D01*
X98256500Y-140103207D01*
X98271020Y-139955781D01*
X98328401Y-139766620D01*
X98328402Y-139766617D01*
X98377818Y-139674167D01*
X98421583Y-139592288D01*
X98546985Y-139439485D01*
X98699788Y-139314083D01*
X98874119Y-139220901D01*
X99063280Y-139163520D01*
X99260000Y-139144145D01*
X99456719Y-139163520D01*
X99456719Y-139163520D01*
G37*
G36*
X101996719Y-139163520D02*
G01*
X102185880Y-139220901D01*
X102185883Y-139220902D01*
X102219079Y-139238646D01*
X102360212Y-139314083D01*
X102513015Y-139439485D01*
X102638417Y-139592288D01*
X102731599Y-139766619D01*
X102788980Y-139955780D01*
X102803500Y-140103206D01*
X102803500Y-140296793D01*
X102788980Y-140444219D01*
X102731599Y-140633380D01*
X102731598Y-140633383D01*
X102710677Y-140672523D01*
X102638417Y-140807712D01*
X102513015Y-140960515D01*
X102360212Y-141085917D01*
X102185881Y-141179099D01*
X101996720Y-141236480D01*
X101800000Y-141255855D01*
X101603281Y-141236480D01*
X101414120Y-141179099D01*
X101239788Y-141085917D01*
X101086985Y-140960515D01*
X100961583Y-140807712D01*
X100868401Y-140633381D01*
X100811020Y-140444220D01*
X100796500Y-140296794D01*
X100796500Y-140103207D01*
X100811020Y-139955781D01*
X100868401Y-139766620D01*
X100868402Y-139766617D01*
X100917818Y-139674167D01*
X100961583Y-139592288D01*
X101086985Y-139439485D01*
X101239788Y-139314083D01*
X101414119Y-139220901D01*
X101603280Y-139163520D01*
X101800000Y-139144145D01*
X101996719Y-139163520D01*
X101996719Y-139163520D01*
G37*
G36*
X97723500Y-141251000D02*
G01*
X95716500Y-141251000D01*
X95716500Y-139149000D01*
X97723500Y-139149000D01*
X97723500Y-141251000D01*
X97723500Y-141251000D01*
G37*
G36*
X128634499Y-140003445D02*
G01*
X128671995Y-140014820D01*
X128706554Y-140033292D01*
X128736847Y-140058153D01*
X128761708Y-140088446D01*
X128780180Y-140123005D01*
X128791555Y-140160501D01*
X128796000Y-140205638D01*
X128796000Y-140944362D01*
X128791555Y-140989499D01*
X128780180Y-141026995D01*
X128761708Y-141061554D01*
X128736847Y-141091847D01*
X128706554Y-141116708D01*
X128671995Y-141135180D01*
X128634499Y-141146555D01*
X128589362Y-141151000D01*
X127950638Y-141151000D01*
X127905501Y-141146555D01*
X127868005Y-141135180D01*
X127833446Y-141116708D01*
X127803153Y-141091847D01*
X127778292Y-141061554D01*
X127759820Y-141026995D01*
X127748445Y-140989499D01*
X127744000Y-140944362D01*
X127744000Y-140205638D01*
X127748445Y-140160501D01*
X127759820Y-140123005D01*
X127778292Y-140088446D01*
X127803153Y-140058153D01*
X127833446Y-140033292D01*
X127868005Y-140014820D01*
X127905501Y-140003445D01*
X127950638Y-139999000D01*
X128589362Y-139999000D01*
X128634499Y-140003445D01*
X128634499Y-140003445D01*
G37*
G36*
X128634499Y-138253445D02*
G01*
X128671995Y-138264820D01*
X128706554Y-138283292D01*
X128736847Y-138308153D01*
X128761708Y-138338446D01*
X128780180Y-138373005D01*
X128791555Y-138410501D01*
X128796000Y-138455638D01*
X128796000Y-139194362D01*
X128791555Y-139239499D01*
X128780180Y-139276995D01*
X128761708Y-139311554D01*
X128736847Y-139341847D01*
X128706554Y-139366708D01*
X128671995Y-139385180D01*
X128634499Y-139396555D01*
X128589362Y-139401000D01*
X127950638Y-139401000D01*
X127905501Y-139396555D01*
X127868005Y-139385180D01*
X127833446Y-139366708D01*
X127803153Y-139341847D01*
X127778292Y-139311554D01*
X127759820Y-139276995D01*
X127748445Y-139239499D01*
X127744000Y-139194362D01*
X127744000Y-138455638D01*
X127748445Y-138410501D01*
X127759820Y-138373005D01*
X127778292Y-138338446D01*
X127803153Y-138308153D01*
X127833446Y-138283292D01*
X127868005Y-138264820D01*
X127905501Y-138253445D01*
X127950638Y-138249000D01*
X128589362Y-138249000D01*
X128634499Y-138253445D01*
X128634499Y-138253445D01*
G37*
G36*
X132749228Y-136087703D02*
G01*
X132904100Y-136151853D01*
X133043481Y-136244985D01*
X133162015Y-136363519D01*
X133255147Y-136502900D01*
X133319297Y-136657772D01*
X133352000Y-136822184D01*
X133352000Y-136989816D01*
X133319297Y-137154228D01*
X133255147Y-137309100D01*
X133162015Y-137448481D01*
X133043481Y-137567015D01*
X132904100Y-137660147D01*
X132749228Y-137724297D01*
X132584816Y-137757000D01*
X132417184Y-137757000D01*
X132252772Y-137724297D01*
X132097900Y-137660147D01*
X131958519Y-137567015D01*
X131839985Y-137448481D01*
X131746853Y-137309100D01*
X131682703Y-137154228D01*
X131650000Y-136989816D01*
X131650000Y-136822184D01*
X131682703Y-136657772D01*
X131746853Y-136502900D01*
X131839985Y-136363519D01*
X131958519Y-136244985D01*
X132097900Y-136151853D01*
X132252772Y-136087703D01*
X132417184Y-136055000D01*
X132584816Y-136055000D01*
X132749228Y-136087703D01*
X132749228Y-136087703D01*
G37*
G36*
X135852000Y-137757000D02*
G01*
X134150000Y-137757000D01*
X134150000Y-136055000D01*
X135852000Y-136055000D01*
X135852000Y-137757000D01*
X135852000Y-137757000D01*
G37*
G36*
X84184499Y-134923445D02*
G01*
X84221995Y-134934820D01*
X84256554Y-134953292D01*
X84286847Y-134978153D01*
X84311708Y-135008446D01*
X84330180Y-135043005D01*
X84341555Y-135080501D01*
X84346000Y-135125638D01*
X84346000Y-135864362D01*
X84341555Y-135909499D01*
X84330180Y-135946995D01*
X84311708Y-135981554D01*
X84286847Y-136011847D01*
X84256554Y-136036708D01*
X84221995Y-136055180D01*
X84184499Y-136066555D01*
X84139362Y-136071000D01*
X83500638Y-136071000D01*
X83455501Y-136066555D01*
X83418005Y-136055180D01*
X83383446Y-136036708D01*
X83353153Y-136011847D01*
X83328292Y-135981554D01*
X83309820Y-135946995D01*
X83298445Y-135909499D01*
X83294000Y-135864362D01*
X83294000Y-135125638D01*
X83298445Y-135080501D01*
X83309820Y-135043005D01*
X83328292Y-135008446D01*
X83353153Y-134978153D01*
X83383446Y-134953292D01*
X83418005Y-134934820D01*
X83455501Y-134923445D01*
X83500638Y-134919000D01*
X84139362Y-134919000D01*
X84184499Y-134923445D01*
X84184499Y-134923445D01*
G37*
G36*
X124741000Y-135423500D02*
G01*
X122639000Y-135423500D01*
X122639000Y-133416500D01*
X124741000Y-133416500D01*
X124741000Y-135423500D01*
X124741000Y-135423500D01*
G37*
G36*
X118571674Y-133998465D02*
G01*
X118609367Y-134009899D01*
X118644103Y-134028466D01*
X118674548Y-134053452D01*
X118699534Y-134083897D01*
X118718101Y-134118633D01*
X118729535Y-134156326D01*
X118734000Y-134201661D01*
X118734000Y-135038339D01*
X118729535Y-135083674D01*
X118718101Y-135121367D01*
X118699534Y-135156103D01*
X118674548Y-135186548D01*
X118644103Y-135211534D01*
X118609367Y-135230101D01*
X118571674Y-135241535D01*
X118526339Y-135246000D01*
X117439661Y-135246000D01*
X117394326Y-135241535D01*
X117356633Y-135230101D01*
X117321897Y-135211534D01*
X117291452Y-135186548D01*
X117266466Y-135156103D01*
X117247899Y-135121367D01*
X117236465Y-135083674D01*
X117232000Y-135038339D01*
X117232000Y-134201661D01*
X117236465Y-134156326D01*
X117247899Y-134118633D01*
X117266466Y-134083897D01*
X117291452Y-134053452D01*
X117321897Y-134028466D01*
X117356633Y-134009899D01*
X117394326Y-133998465D01*
X117439661Y-133994000D01*
X118526339Y-133994000D01*
X118571674Y-133998465D01*
X118571674Y-133998465D01*
G37*
G36*
X116013000Y-135127000D02*
G01*
X114111000Y-135127000D01*
X114111000Y-132525000D01*
X116013000Y-132525000D01*
X116013000Y-135127000D01*
X116013000Y-135127000D01*
G37*
G36*
X97609674Y-133619465D02*
G01*
X97647367Y-133630899D01*
X97682103Y-133649466D01*
X97712548Y-133674452D01*
X97737534Y-133704897D01*
X97756101Y-133739633D01*
X97767535Y-133777326D01*
X97772000Y-133822661D01*
X97772000Y-134909339D01*
X97767535Y-134954674D01*
X97756101Y-134992367D01*
X97737534Y-135027103D01*
X97712548Y-135057548D01*
X97682103Y-135082534D01*
X97647367Y-135101101D01*
X97609674Y-135112535D01*
X97564339Y-135117000D01*
X96727661Y-135117000D01*
X96682326Y-135112535D01*
X96644633Y-135101101D01*
X96609897Y-135082534D01*
X96579452Y-135057548D01*
X96554466Y-135027103D01*
X96535899Y-134992367D01*
X96524465Y-134954674D01*
X96520000Y-134909339D01*
X96520000Y-133822661D01*
X96524465Y-133777326D01*
X96535899Y-133739633D01*
X96554466Y-133704897D01*
X96579452Y-133674452D01*
X96609897Y-133649466D01*
X96644633Y-133630899D01*
X96682326Y-133619465D01*
X96727661Y-133615000D01*
X97564339Y-133615000D01*
X97609674Y-133619465D01*
X97609674Y-133619465D01*
G37*
G36*
X99659674Y-133619465D02*
G01*
X99697367Y-133630899D01*
X99732103Y-133649466D01*
X99762548Y-133674452D01*
X99787534Y-133704897D01*
X99806101Y-133739633D01*
X99817535Y-133777326D01*
X99822000Y-133822661D01*
X99822000Y-134909339D01*
X99817535Y-134954674D01*
X99806101Y-134992367D01*
X99787534Y-135027103D01*
X99762548Y-135057548D01*
X99732103Y-135082534D01*
X99697367Y-135101101D01*
X99659674Y-135112535D01*
X99614339Y-135117000D01*
X98777661Y-135117000D01*
X98732326Y-135112535D01*
X98694633Y-135101101D01*
X98659897Y-135082534D01*
X98629452Y-135057548D01*
X98604466Y-135027103D01*
X98585899Y-134992367D01*
X98574465Y-134954674D01*
X98570000Y-134909339D01*
X98570000Y-133822661D01*
X98574465Y-133777326D01*
X98585899Y-133739633D01*
X98604466Y-133704897D01*
X98629452Y-133674452D01*
X98659897Y-133649466D01*
X98694633Y-133630899D01*
X98732326Y-133619465D01*
X98777661Y-133615000D01*
X99614339Y-133615000D01*
X99659674Y-133619465D01*
X99659674Y-133619465D01*
G37*
G36*
X84184499Y-133173445D02*
G01*
X84221995Y-133184820D01*
X84256554Y-133203292D01*
X84286847Y-133228153D01*
X84311708Y-133258446D01*
X84330180Y-133293005D01*
X84341555Y-133330501D01*
X84346000Y-133375638D01*
X84346000Y-134114362D01*
X84341555Y-134159499D01*
X84330180Y-134196995D01*
X84311708Y-134231554D01*
X84286847Y-134261847D01*
X84256554Y-134286708D01*
X84221995Y-134305180D01*
X84184499Y-134316555D01*
X84139362Y-134321000D01*
X83500638Y-134321000D01*
X83455501Y-134316555D01*
X83418005Y-134305180D01*
X83383446Y-134286708D01*
X83353153Y-134261847D01*
X83328292Y-134231554D01*
X83309820Y-134196995D01*
X83298445Y-134159499D01*
X83294000Y-134114362D01*
X83294000Y-133375638D01*
X83298445Y-133330501D01*
X83309820Y-133293005D01*
X83328292Y-133258446D01*
X83353153Y-133228153D01*
X83383446Y-133203292D01*
X83418005Y-133184820D01*
X83455501Y-133173445D01*
X83500638Y-133169000D01*
X84139362Y-133169000D01*
X84184499Y-133173445D01*
X84184499Y-133173445D01*
G37*
G36*
X118571674Y-131948465D02*
G01*
X118609367Y-131959899D01*
X118644103Y-131978466D01*
X118674548Y-132003452D01*
X118699534Y-132033897D01*
X118718101Y-132068633D01*
X118729535Y-132106326D01*
X118734000Y-132151661D01*
X118734000Y-132988339D01*
X118729535Y-133033674D01*
X118718101Y-133071367D01*
X118699534Y-133106103D01*
X118674548Y-133136548D01*
X118644103Y-133161534D01*
X118609367Y-133180101D01*
X118571674Y-133191535D01*
X118526339Y-133196000D01*
X117439661Y-133196000D01*
X117394326Y-133191535D01*
X117356633Y-133180101D01*
X117321897Y-133161534D01*
X117291452Y-133136548D01*
X117266466Y-133106103D01*
X117247899Y-133071367D01*
X117236465Y-133033674D01*
X117232000Y-132988339D01*
X117232000Y-132151661D01*
X117236465Y-132106326D01*
X117247899Y-132068633D01*
X117266466Y-132033897D01*
X117291452Y-132003452D01*
X117321897Y-131978466D01*
X117356633Y-131959899D01*
X117394326Y-131948465D01*
X117439661Y-131944000D01*
X118526339Y-131944000D01*
X118571674Y-131948465D01*
X118571674Y-131948465D01*
G37*
G36*
X123835936Y-130881340D02*
G01*
X123934220Y-130891020D01*
X124123381Y-130948401D01*
X124297712Y-131041583D01*
X124450515Y-131166985D01*
X124575917Y-131319788D01*
X124669099Y-131494119D01*
X124726480Y-131683280D01*
X124745855Y-131880000D01*
X124726480Y-132076720D01*
X124669099Y-132265881D01*
X124575917Y-132440212D01*
X124450515Y-132593015D01*
X124297712Y-132718417D01*
X124123381Y-132811599D01*
X123934220Y-132868980D01*
X123835936Y-132878660D01*
X123786795Y-132883500D01*
X123593205Y-132883500D01*
X123544064Y-132878660D01*
X123445780Y-132868980D01*
X123256619Y-132811599D01*
X123082288Y-132718417D01*
X122929485Y-132593015D01*
X122804083Y-132440212D01*
X122710901Y-132265881D01*
X122653520Y-132076720D01*
X122634145Y-131880000D01*
X122653520Y-131683280D01*
X122710901Y-131494119D01*
X122804083Y-131319788D01*
X122929485Y-131166985D01*
X123082288Y-131041583D01*
X123256619Y-130948401D01*
X123445780Y-130891020D01*
X123544064Y-130881340D01*
X123593205Y-130876500D01*
X123786795Y-130876500D01*
X123835936Y-130881340D01*
X123835936Y-130881340D01*
G37*
G36*
X130237000Y-132587000D02*
G01*
X128335000Y-132587000D01*
X128335000Y-129985000D01*
X130237000Y-129985000D01*
X130237000Y-132587000D01*
X130237000Y-132587000D01*
G37*
G36*
X80422585Y-129428802D02*
G01*
X80572410Y-129458604D01*
X80854674Y-129575521D01*
X81108705Y-129745259D01*
X81324741Y-129961295D01*
X81494479Y-130215326D01*
X81611396Y-130497590D01*
X81624624Y-130564092D01*
X81671000Y-130797239D01*
X81671000Y-131102761D01*
X81658225Y-131166985D01*
X81611396Y-131402410D01*
X81494479Y-131684674D01*
X81324741Y-131938705D01*
X81108705Y-132154741D01*
X80854674Y-132324479D01*
X80572410Y-132441396D01*
X80422585Y-132471198D01*
X80272761Y-132501000D01*
X79967239Y-132501000D01*
X79817415Y-132471198D01*
X79667590Y-132441396D01*
X79385326Y-132324479D01*
X79131295Y-132154741D01*
X78915259Y-131938705D01*
X78745521Y-131684674D01*
X78628604Y-131402410D01*
X78581775Y-131166985D01*
X78569000Y-131102761D01*
X78569000Y-130797239D01*
X78615376Y-130564092D01*
X78628604Y-130497590D01*
X78745521Y-130215326D01*
X78915259Y-129961295D01*
X79131295Y-129745259D01*
X79385326Y-129575521D01*
X79667590Y-129458604D01*
X79817415Y-129428802D01*
X79967239Y-129399000D01*
X80272761Y-129399000D01*
X80422585Y-129428802D01*
X80422585Y-129428802D01*
G37*
G36*
X57922585Y-129428802D02*
G01*
X58072410Y-129458604D01*
X58354674Y-129575521D01*
X58608705Y-129745259D01*
X58824741Y-129961295D01*
X58994479Y-130215326D01*
X59111396Y-130497590D01*
X59124624Y-130564092D01*
X59171000Y-130797239D01*
X59171000Y-131102761D01*
X59158225Y-131166985D01*
X59111396Y-131402410D01*
X58994479Y-131684674D01*
X58824741Y-131938705D01*
X58608705Y-132154741D01*
X58354674Y-132324479D01*
X58072410Y-132441396D01*
X57922585Y-132471198D01*
X57772761Y-132501000D01*
X57467239Y-132501000D01*
X57317415Y-132471198D01*
X57167590Y-132441396D01*
X56885326Y-132324479D01*
X56631295Y-132154741D01*
X56415259Y-131938705D01*
X56245521Y-131684674D01*
X56128604Y-131402410D01*
X56081775Y-131166985D01*
X56069000Y-131102761D01*
X56069000Y-130797239D01*
X56115376Y-130564092D01*
X56128604Y-130497590D01*
X56245521Y-130215326D01*
X56415259Y-129961295D01*
X56631295Y-129745259D01*
X56885326Y-129575521D01*
X57167590Y-129458604D01*
X57317415Y-129428802D01*
X57467239Y-129399000D01*
X57772761Y-129399000D01*
X57922585Y-129428802D01*
X57922585Y-129428802D01*
G37*
G36*
X98234000Y-132396000D02*
G01*
X95632000Y-132396000D01*
X95632000Y-130494000D01*
X98234000Y-130494000D01*
X98234000Y-132396000D01*
X98234000Y-132396000D01*
G37*
G36*
X102234000Y-132396000D02*
G01*
X99632000Y-132396000D01*
X99632000Y-130494000D01*
X102234000Y-130494000D01*
X102234000Y-132396000D01*
X102234000Y-132396000D01*
G37*
G36*
X145319561Y-130537966D02*
G01*
X145352383Y-130547923D01*
X145382632Y-130564092D01*
X145409148Y-130585852D01*
X145430908Y-130612368D01*
X145447077Y-130642617D01*
X145457034Y-130675439D01*
X145461000Y-130715713D01*
X145461000Y-132194287D01*
X145457034Y-132234561D01*
X145447077Y-132267383D01*
X145430908Y-132297632D01*
X145409148Y-132324148D01*
X145382632Y-132345908D01*
X145352383Y-132362077D01*
X145319561Y-132372034D01*
X145279287Y-132376000D01*
X143340713Y-132376000D01*
X143300439Y-132372034D01*
X143267617Y-132362077D01*
X143237368Y-132345908D01*
X143210852Y-132324148D01*
X143189092Y-132297632D01*
X143172923Y-132267383D01*
X143162966Y-132234561D01*
X143159000Y-132194287D01*
X143159000Y-130715713D01*
X143162966Y-130675439D01*
X143172923Y-130642617D01*
X143189092Y-130612368D01*
X143210852Y-130585852D01*
X143237368Y-130564092D01*
X143267617Y-130547923D01*
X143300439Y-130537966D01*
X143340713Y-130534000D01*
X145279287Y-130534000D01*
X145319561Y-130537966D01*
X145319561Y-130537966D01*
G37*
G36*
X69188433Y-129584893D02*
G01*
X69278657Y-129602839D01*
X69346225Y-129630827D01*
X69533621Y-129708449D01*
X69609763Y-129759325D01*
X69763086Y-129861772D01*
X69958228Y-130056914D01*
X70039413Y-130178417D01*
X70111551Y-130286379D01*
X70135211Y-130343500D01*
X70217161Y-130541343D01*
X70234884Y-130630442D01*
X70271000Y-130812012D01*
X70271000Y-131087988D01*
X70241920Y-131234184D01*
X70217161Y-131358657D01*
X70173415Y-131464267D01*
X70111551Y-131613621D01*
X70111550Y-131613622D01*
X69958228Y-131843086D01*
X69763086Y-132038228D01*
X69652652Y-132112017D01*
X69533621Y-132191551D01*
X69384267Y-132253415D01*
X69278657Y-132297161D01*
X69188433Y-132315107D01*
X69007988Y-132351000D01*
X68732012Y-132351000D01*
X68551567Y-132315107D01*
X68461343Y-132297161D01*
X68355733Y-132253415D01*
X68206379Y-132191551D01*
X68087348Y-132112017D01*
X67976914Y-132038228D01*
X67781772Y-131843086D01*
X67628450Y-131613622D01*
X67628449Y-131613621D01*
X67566585Y-131464267D01*
X67522839Y-131358657D01*
X67498080Y-131234184D01*
X67469000Y-131087988D01*
X67469000Y-130812012D01*
X67505116Y-130630442D01*
X67522839Y-130541343D01*
X67604789Y-130343500D01*
X67628449Y-130286379D01*
X67700587Y-130178417D01*
X67781772Y-130056914D01*
X67976914Y-129861772D01*
X68130237Y-129759325D01*
X68206379Y-129708449D01*
X68393775Y-129630827D01*
X68461343Y-129602839D01*
X68551567Y-129584893D01*
X68732012Y-129549000D01*
X69007988Y-129549000D01*
X69188433Y-129584893D01*
X69188433Y-129584893D01*
G37*
G36*
X90124228Y-130499703D02*
G01*
X90279100Y-130563853D01*
X90418481Y-130656985D01*
X90537015Y-130775519D01*
X90630147Y-130914900D01*
X90694297Y-131069772D01*
X90727000Y-131234184D01*
X90727000Y-131401816D01*
X90694297Y-131566228D01*
X90630147Y-131721100D01*
X90537015Y-131860481D01*
X90418481Y-131979015D01*
X90279100Y-132072147D01*
X90124228Y-132136297D01*
X89959816Y-132169000D01*
X89792184Y-132169000D01*
X89627772Y-132136297D01*
X89472900Y-132072147D01*
X89333519Y-131979015D01*
X89214985Y-131860481D01*
X89121853Y-131721100D01*
X89057703Y-131566228D01*
X89025000Y-131401816D01*
X89025000Y-131234184D01*
X89057703Y-131069772D01*
X89121853Y-130914900D01*
X89214985Y-130775519D01*
X89333519Y-130656985D01*
X89472900Y-130563853D01*
X89627772Y-130499703D01*
X89792184Y-130467000D01*
X89959816Y-130467000D01*
X90124228Y-130499703D01*
X90124228Y-130499703D01*
G37*
G36*
X88227000Y-132169000D02*
G01*
X86525000Y-132169000D01*
X86525000Y-130467000D01*
X88227000Y-130467000D01*
X88227000Y-132169000D01*
X88227000Y-132169000D01*
G37*
G36*
X126953674Y-130705465D02*
G01*
X126991367Y-130716899D01*
X127026103Y-130735466D01*
X127056548Y-130760452D01*
X127081534Y-130790897D01*
X127100101Y-130825633D01*
X127111535Y-130863326D01*
X127116000Y-130908661D01*
X127116000Y-131745339D01*
X127111535Y-131790674D01*
X127100101Y-131828367D01*
X127081534Y-131863103D01*
X127056548Y-131893548D01*
X127026103Y-131918534D01*
X126991367Y-131937101D01*
X126953674Y-131948535D01*
X126908339Y-131953000D01*
X125821661Y-131953000D01*
X125776326Y-131948535D01*
X125738633Y-131937101D01*
X125703897Y-131918534D01*
X125673452Y-131893548D01*
X125648466Y-131863103D01*
X125629899Y-131828367D01*
X125618465Y-131790674D01*
X125614000Y-131745339D01*
X125614000Y-130908661D01*
X125618465Y-130863326D01*
X125629899Y-130825633D01*
X125648466Y-130790897D01*
X125673452Y-130760452D01*
X125703897Y-130735466D01*
X125738633Y-130716899D01*
X125776326Y-130705465D01*
X125821661Y-130701000D01*
X126908339Y-130701000D01*
X126953674Y-130705465D01*
X126953674Y-130705465D01*
G37*
G36*
X116013000Y-131127000D02*
G01*
X114111000Y-131127000D01*
X114111000Y-128525000D01*
X116013000Y-128525000D01*
X116013000Y-131127000D01*
X116013000Y-131127000D01*
G37*
G36*
X107933442Y-128899518D02*
G01*
X107999627Y-128906037D01*
X108169466Y-128957557D01*
X108169468Y-128957558D01*
X108219483Y-128984292D01*
X108325991Y-129041222D01*
X108357261Y-129066885D01*
X108463186Y-129153814D01*
X108546448Y-129255271D01*
X108575778Y-129291009D01*
X108659443Y-129447534D01*
X108710963Y-129617373D01*
X108728359Y-129794000D01*
X108710963Y-129970627D01*
X108659443Y-130140466D01*
X108575778Y-130296991D01*
X108549525Y-130328980D01*
X108463186Y-130434186D01*
X108361729Y-130517448D01*
X108325991Y-130546778D01*
X108169466Y-130630443D01*
X107999627Y-130681963D01*
X107933443Y-130688481D01*
X107867260Y-130695000D01*
X107778740Y-130695000D01*
X107712557Y-130688481D01*
X107646373Y-130681963D01*
X107476534Y-130630443D01*
X107320009Y-130546778D01*
X107284271Y-130517448D01*
X107182814Y-130434186D01*
X107096475Y-130328980D01*
X107070222Y-130296991D01*
X106986557Y-130140466D01*
X106935037Y-129970627D01*
X106917641Y-129794000D01*
X106935037Y-129617373D01*
X106986557Y-129447534D01*
X107070222Y-129291009D01*
X107099552Y-129255271D01*
X107182814Y-129153814D01*
X107288739Y-129066885D01*
X107320009Y-129041222D01*
X107426517Y-128984292D01*
X107476532Y-128957558D01*
X107476534Y-128957557D01*
X107646373Y-128906037D01*
X107712558Y-128899518D01*
X107778740Y-128893000D01*
X107867260Y-128893000D01*
X107933442Y-128899518D01*
X107933442Y-128899518D01*
G37*
G36*
X123835936Y-128341340D02*
G01*
X123934220Y-128351020D01*
X124123381Y-128408401D01*
X124297712Y-128501583D01*
X124450515Y-128626985D01*
X124575917Y-128779788D01*
X124669099Y-128954119D01*
X124726480Y-129143280D01*
X124745855Y-129340000D01*
X124726480Y-129536720D01*
X124669099Y-129725881D01*
X124575917Y-129900212D01*
X124450515Y-130053015D01*
X124297712Y-130178417D01*
X124123381Y-130271599D01*
X123934220Y-130328980D01*
X123835936Y-130338660D01*
X123786795Y-130343500D01*
X123593205Y-130343500D01*
X123544064Y-130338660D01*
X123445780Y-130328980D01*
X123256619Y-130271599D01*
X123082288Y-130178417D01*
X122929485Y-130053015D01*
X122804083Y-129900212D01*
X122710901Y-129725881D01*
X122653520Y-129536720D01*
X122634145Y-129340000D01*
X122653520Y-129143280D01*
X122710901Y-128954119D01*
X122804083Y-128779788D01*
X122929485Y-128626985D01*
X123082288Y-128501583D01*
X123256619Y-128408401D01*
X123445780Y-128351020D01*
X123544064Y-128341340D01*
X123593205Y-128336500D01*
X123786795Y-128336500D01*
X123835936Y-128341340D01*
X123835936Y-128341340D01*
G37*
G36*
X105520499Y-128954445D02*
G01*
X105557995Y-128965820D01*
X105592554Y-128984292D01*
X105622847Y-129009153D01*
X105647708Y-129039446D01*
X105666180Y-129074005D01*
X105677555Y-129111501D01*
X105682000Y-129156638D01*
X105682000Y-129895362D01*
X105677555Y-129940499D01*
X105666180Y-129977995D01*
X105647708Y-130012554D01*
X105622847Y-130042847D01*
X105592554Y-130067708D01*
X105557995Y-130086180D01*
X105520499Y-130097555D01*
X105475362Y-130102000D01*
X104836638Y-130102000D01*
X104791501Y-130097555D01*
X104754005Y-130086180D01*
X104719446Y-130067708D01*
X104689153Y-130042847D01*
X104664292Y-130012554D01*
X104645820Y-129977995D01*
X104634445Y-129940499D01*
X104630000Y-129895362D01*
X104630000Y-129156638D01*
X104634445Y-129111501D01*
X104645820Y-129074005D01*
X104664292Y-129039446D01*
X104689153Y-129009153D01*
X104719446Y-128984292D01*
X104754005Y-128965820D01*
X104791501Y-128954445D01*
X104836638Y-128950000D01*
X105475362Y-128950000D01*
X105520499Y-128954445D01*
X105520499Y-128954445D01*
G37*
G36*
X126953674Y-128655465D02*
G01*
X126991367Y-128666899D01*
X127026103Y-128685466D01*
X127056548Y-128710452D01*
X127081534Y-128740897D01*
X127100101Y-128775633D01*
X127111535Y-128813326D01*
X127116000Y-128858661D01*
X127116000Y-129695339D01*
X127111535Y-129740674D01*
X127100101Y-129778367D01*
X127081534Y-129813103D01*
X127056548Y-129843548D01*
X127026103Y-129868534D01*
X126991367Y-129887101D01*
X126953674Y-129898535D01*
X126908339Y-129903000D01*
X125821661Y-129903000D01*
X125776326Y-129898535D01*
X125738633Y-129887101D01*
X125703897Y-129868534D01*
X125673452Y-129843548D01*
X125648466Y-129813103D01*
X125629899Y-129778367D01*
X125618465Y-129740674D01*
X125614000Y-129695339D01*
X125614000Y-128858661D01*
X125618465Y-128813326D01*
X125629899Y-128775633D01*
X125648466Y-128740897D01*
X125673452Y-128710452D01*
X125703897Y-128685466D01*
X125738633Y-128666899D01*
X125776326Y-128655465D01*
X125821661Y-128651000D01*
X126908339Y-128651000D01*
X126953674Y-128655465D01*
X126953674Y-128655465D01*
G37*
G36*
X144630345Y-127998442D02*
G01*
X144720548Y-128007326D01*
X144894157Y-128059990D01*
X145054156Y-128145511D01*
X145065718Y-128155000D01*
X145194397Y-128260603D01*
X145273729Y-128357271D01*
X145309489Y-128400844D01*
X145395010Y-128560843D01*
X145447674Y-128734452D01*
X145465456Y-128915000D01*
X145447674Y-129095548D01*
X145395010Y-129269157D01*
X145309489Y-129429156D01*
X145294408Y-129447532D01*
X145194397Y-129569397D01*
X145119543Y-129630827D01*
X145054156Y-129684489D01*
X144894157Y-129770010D01*
X144720548Y-129822674D01*
X144630345Y-129831558D01*
X144585245Y-129836000D01*
X144034755Y-129836000D01*
X143989655Y-129831558D01*
X143899452Y-129822674D01*
X143725843Y-129770010D01*
X143565844Y-129684489D01*
X143500457Y-129630827D01*
X143425603Y-129569397D01*
X143325592Y-129447532D01*
X143310511Y-129429156D01*
X143224990Y-129269157D01*
X143172326Y-129095548D01*
X143154544Y-128915000D01*
X143172326Y-128734452D01*
X143224990Y-128560843D01*
X143310511Y-128400844D01*
X143346271Y-128357271D01*
X143425603Y-128260603D01*
X143554282Y-128155000D01*
X143565844Y-128145511D01*
X143725843Y-128059990D01*
X143899452Y-128007326D01*
X143989655Y-127998442D01*
X144034755Y-127994000D01*
X144585245Y-127994000D01*
X144630345Y-127998442D01*
X144630345Y-127998442D01*
G37*
G36*
X130237000Y-128587000D02*
G01*
X128335000Y-128587000D01*
X128335000Y-125985000D01*
X130237000Y-125985000D01*
X130237000Y-128587000D01*
X130237000Y-128587000D01*
G37*
G36*
X105520499Y-127204445D02*
G01*
X105557995Y-127215820D01*
X105592554Y-127234292D01*
X105622847Y-127259153D01*
X105647708Y-127289446D01*
X105666180Y-127324005D01*
X105677555Y-127361501D01*
X105682000Y-127406638D01*
X105682000Y-128145362D01*
X105677555Y-128190499D01*
X105666180Y-128227995D01*
X105647708Y-128262554D01*
X105622847Y-128292847D01*
X105592554Y-128317708D01*
X105557995Y-128336180D01*
X105520499Y-128347555D01*
X105475362Y-128352000D01*
X104836638Y-128352000D01*
X104791501Y-128347555D01*
X104754005Y-128336180D01*
X104719446Y-128317708D01*
X104689153Y-128292847D01*
X104664292Y-128262554D01*
X104645820Y-128227995D01*
X104634445Y-128190499D01*
X104630000Y-128145362D01*
X104630000Y-127406638D01*
X104634445Y-127361501D01*
X104645820Y-127324005D01*
X104664292Y-127289446D01*
X104689153Y-127259153D01*
X104719446Y-127234292D01*
X104754005Y-127215820D01*
X104791501Y-127204445D01*
X104836638Y-127200000D01*
X105475362Y-127200000D01*
X105520499Y-127204445D01*
X105520499Y-127204445D01*
G37*
G36*
X108724000Y-128155000D02*
G01*
X106922000Y-128155000D01*
X106922000Y-126353000D01*
X108724000Y-126353000D01*
X108724000Y-128155000D01*
X108724000Y-128155000D01*
G37*
G36*
X144630345Y-125458442D02*
G01*
X144720548Y-125467326D01*
X144894157Y-125519990D01*
X145054156Y-125605511D01*
X145097729Y-125641271D01*
X145194397Y-125720603D01*
X145273729Y-125817271D01*
X145309489Y-125860844D01*
X145395010Y-126020843D01*
X145447674Y-126194452D01*
X145465456Y-126375000D01*
X145447674Y-126555548D01*
X145395010Y-126729157D01*
X145309489Y-126889156D01*
X145273729Y-126932729D01*
X145194397Y-127029397D01*
X145097729Y-127108729D01*
X145054156Y-127144489D01*
X144894157Y-127230010D01*
X144720548Y-127282674D01*
X144651789Y-127289446D01*
X144585245Y-127296000D01*
X144034755Y-127296000D01*
X143968211Y-127289446D01*
X143899452Y-127282674D01*
X143725843Y-127230010D01*
X143565844Y-127144489D01*
X143522271Y-127108729D01*
X143425603Y-127029397D01*
X143346271Y-126932729D01*
X143310511Y-126889156D01*
X143224990Y-126729157D01*
X143172326Y-126555548D01*
X143154544Y-126375000D01*
X143172326Y-126194452D01*
X143224990Y-126020843D01*
X143310511Y-125860844D01*
X143346271Y-125817271D01*
X143425603Y-125720603D01*
X143522271Y-125641271D01*
X143565844Y-125605511D01*
X143725843Y-125519990D01*
X143899452Y-125467326D01*
X143989655Y-125458442D01*
X144034755Y-125454000D01*
X144585245Y-125454000D01*
X144630345Y-125458442D01*
X144630345Y-125458442D01*
G37*
G36*
X86470442Y-122803518D02*
G01*
X86536627Y-122810037D01*
X86706466Y-122861557D01*
X86862991Y-122945222D01*
X86898729Y-122974552D01*
X87000186Y-123057814D01*
X87083448Y-123159271D01*
X87112778Y-123195009D01*
X87196443Y-123351534D01*
X87247963Y-123521373D01*
X87265359Y-123698000D01*
X87247963Y-123874627D01*
X87196443Y-124044466D01*
X87112778Y-124200991D01*
X87083448Y-124236729D01*
X87000186Y-124338186D01*
X86898729Y-124421448D01*
X86862991Y-124450778D01*
X86706466Y-124534443D01*
X86536627Y-124585963D01*
X86470442Y-124592482D01*
X86404260Y-124599000D01*
X86315740Y-124599000D01*
X86249558Y-124592482D01*
X86183373Y-124585963D01*
X86013534Y-124534443D01*
X85857009Y-124450778D01*
X85821271Y-124421448D01*
X85719814Y-124338186D01*
X85636552Y-124236729D01*
X85607222Y-124200991D01*
X85523557Y-124044466D01*
X85472037Y-123874627D01*
X85454641Y-123698000D01*
X85472037Y-123521373D01*
X85523557Y-123351534D01*
X85607222Y-123195009D01*
X85636552Y-123159271D01*
X85719814Y-123057814D01*
X85821271Y-122974552D01*
X85857009Y-122945222D01*
X86013534Y-122861557D01*
X86183373Y-122810037D01*
X86249558Y-122803518D01*
X86315740Y-122797000D01*
X86404260Y-122797000D01*
X86470442Y-122803518D01*
X86470442Y-122803518D01*
G37*
G36*
X84721000Y-124599000D02*
G01*
X82919000Y-124599000D01*
X82919000Y-122797000D01*
X84721000Y-122797000D01*
X84721000Y-124599000D01*
X84721000Y-124599000D01*
G37*
G36*
X56738433Y-119574893D02*
G01*
X56828657Y-119592839D01*
X56934267Y-119636585D01*
X57083621Y-119698449D01*
X57083622Y-119698450D01*
X57313086Y-119851772D01*
X57508228Y-120046914D01*
X57565600Y-120132778D01*
X57661551Y-120276379D01*
X57663465Y-120281000D01*
X57735953Y-120456000D01*
X57767161Y-120531344D01*
X57821000Y-120802012D01*
X57821000Y-121077988D01*
X57767161Y-121348656D01*
X57661551Y-121603621D01*
X57661550Y-121603622D01*
X57508228Y-121833086D01*
X57313086Y-122028228D01*
X57159763Y-122130675D01*
X57083621Y-122181551D01*
X56934267Y-122243415D01*
X56828657Y-122287161D01*
X56738433Y-122305107D01*
X56557988Y-122341000D01*
X56282012Y-122341000D01*
X56101567Y-122305107D01*
X56011343Y-122287161D01*
X55905733Y-122243415D01*
X55756379Y-122181551D01*
X55680237Y-122130675D01*
X55526914Y-122028228D01*
X55331772Y-121833086D01*
X55178450Y-121603622D01*
X55178449Y-121603621D01*
X55072839Y-121348656D01*
X55019000Y-121077988D01*
X55019000Y-120802012D01*
X55072839Y-120531344D01*
X55104048Y-120456000D01*
X55176535Y-120281000D01*
X55178449Y-120276379D01*
X55274400Y-120132778D01*
X55331772Y-120046914D01*
X55526914Y-119851772D01*
X55756378Y-119698450D01*
X55756379Y-119698449D01*
X55905733Y-119636585D01*
X56011343Y-119592839D01*
X56101567Y-119574893D01*
X56282012Y-119539000D01*
X56557988Y-119539000D01*
X56738433Y-119574893D01*
X56738433Y-119574893D01*
G37*
G36*
X82237562Y-119093181D02*
G01*
X82272481Y-119103774D01*
X82304663Y-119120976D01*
X82332873Y-119144127D01*
X82356024Y-119172337D01*
X82373226Y-119204519D01*
X82383819Y-119239438D01*
X82388000Y-119281895D01*
X82388000Y-120748105D01*
X82383819Y-120790562D01*
X82373226Y-120825481D01*
X82356024Y-120857663D01*
X82332873Y-120885873D01*
X82304663Y-120909024D01*
X82272481Y-120926226D01*
X82237562Y-120936819D01*
X82195105Y-120941000D01*
X81053895Y-120941000D01*
X81011438Y-120936819D01*
X80976519Y-120926226D01*
X80944337Y-120909024D01*
X80916127Y-120885873D01*
X80892976Y-120857663D01*
X80875774Y-120825481D01*
X80865181Y-120790562D01*
X80861000Y-120748105D01*
X80861000Y-119281895D01*
X80865181Y-119239438D01*
X80875774Y-119204519D01*
X80892976Y-119172337D01*
X80916127Y-119144127D01*
X80944337Y-119120976D01*
X80976519Y-119103774D01*
X81011438Y-119093181D01*
X81053895Y-119089000D01*
X82195105Y-119089000D01*
X82237562Y-119093181D01*
X82237562Y-119093181D01*
G37*
G36*
X79262562Y-119093181D02*
G01*
X79297481Y-119103774D01*
X79329663Y-119120976D01*
X79357873Y-119144127D01*
X79381024Y-119172337D01*
X79398226Y-119204519D01*
X79408819Y-119239438D01*
X79413000Y-119281895D01*
X79413000Y-120748105D01*
X79408819Y-120790562D01*
X79398226Y-120825481D01*
X79381024Y-120857663D01*
X79357873Y-120885873D01*
X79329663Y-120909024D01*
X79297481Y-120926226D01*
X79262562Y-120936819D01*
X79220105Y-120941000D01*
X78078895Y-120941000D01*
X78036438Y-120936819D01*
X78001519Y-120926226D01*
X77969337Y-120909024D01*
X77941127Y-120885873D01*
X77917976Y-120857663D01*
X77900774Y-120825481D01*
X77890181Y-120790562D01*
X77886000Y-120748105D01*
X77886000Y-119281895D01*
X77890181Y-119239438D01*
X77900774Y-119204519D01*
X77917976Y-119172337D01*
X77941127Y-119144127D01*
X77969337Y-119120976D01*
X78001519Y-119103774D01*
X78036438Y-119093181D01*
X78078895Y-119089000D01*
X79220105Y-119089000D01*
X79262562Y-119093181D01*
X79262562Y-119093181D01*
G37*
G36*
X101581000Y-120631000D02*
G01*
X99079000Y-120631000D01*
X99079000Y-118129000D01*
X101581000Y-118129000D01*
X101581000Y-120631000D01*
X101581000Y-120631000D01*
G37*
G36*
X130715529Y-117514147D02*
G01*
X130829346Y-117525357D01*
X130992681Y-117574904D01*
X131107577Y-117609757D01*
X131363988Y-117746812D01*
X131588739Y-117931261D01*
X131773188Y-118156012D01*
X131910243Y-118412423D01*
X131930439Y-118479000D01*
X131994643Y-118690654D01*
X132023141Y-118980000D01*
X131994643Y-119269346D01*
X131945096Y-119432681D01*
X131910243Y-119547577D01*
X131773188Y-119803988D01*
X131588739Y-120028739D01*
X131363988Y-120213188D01*
X131107577Y-120350243D01*
X130992681Y-120385096D01*
X130829346Y-120434643D01*
X130757065Y-120441762D01*
X130612506Y-120456000D01*
X128467494Y-120456000D01*
X128322935Y-120441762D01*
X128250654Y-120434643D01*
X128087319Y-120385096D01*
X127972423Y-120350243D01*
X127716012Y-120213188D01*
X127491261Y-120028739D01*
X127306812Y-119803988D01*
X127169757Y-119547577D01*
X127134904Y-119432681D01*
X127085357Y-119269346D01*
X127056859Y-118980000D01*
X127085357Y-118690654D01*
X127149561Y-118479000D01*
X127169757Y-118412423D01*
X127306812Y-118156012D01*
X127491261Y-117931261D01*
X127716012Y-117746812D01*
X127972423Y-117609757D01*
X128087319Y-117574904D01*
X128250654Y-117525357D01*
X128364471Y-117514147D01*
X128467494Y-117504000D01*
X130612506Y-117504000D01*
X130715529Y-117514147D01*
X130715529Y-117514147D01*
G37*
G36*
X72500442Y-118485518D02*
G01*
X72566627Y-118492037D01*
X72736466Y-118543557D01*
X72892991Y-118627222D01*
X72928729Y-118656552D01*
X73030186Y-118739814D01*
X73113448Y-118841271D01*
X73142778Y-118877009D01*
X73226443Y-119033534D01*
X73277963Y-119203373D01*
X73295359Y-119380000D01*
X73277963Y-119556627D01*
X73226443Y-119726466D01*
X73142778Y-119882991D01*
X73113448Y-119918729D01*
X73030186Y-120020186D01*
X72928729Y-120103448D01*
X72892991Y-120132778D01*
X72736466Y-120216443D01*
X72566627Y-120267963D01*
X72500442Y-120274482D01*
X72434260Y-120281000D01*
X72345740Y-120281000D01*
X72279558Y-120274482D01*
X72213373Y-120267963D01*
X72043534Y-120216443D01*
X71887009Y-120132778D01*
X71851271Y-120103448D01*
X71749814Y-120020186D01*
X71666552Y-119918729D01*
X71637222Y-119882991D01*
X71553557Y-119726466D01*
X71502037Y-119556627D01*
X71484641Y-119380000D01*
X71502037Y-119203373D01*
X71553557Y-119033534D01*
X71637222Y-118877009D01*
X71666552Y-118841271D01*
X71749814Y-118739814D01*
X71851271Y-118656552D01*
X71887009Y-118627222D01*
X72043534Y-118543557D01*
X72213373Y-118492037D01*
X72279558Y-118485518D01*
X72345740Y-118479000D01*
X72434260Y-118479000D01*
X72500442Y-118485518D01*
X72500442Y-118485518D01*
G37*
G36*
X70751000Y-120281000D02*
G01*
X68949000Y-120281000D01*
X68949000Y-118479000D01*
X70751000Y-118479000D01*
X70751000Y-120281000D01*
X70751000Y-120281000D01*
G37*
G36*
X145319561Y-116622966D02*
G01*
X145352383Y-116632923D01*
X145382632Y-116649092D01*
X145409148Y-116670852D01*
X145430908Y-116697368D01*
X145447077Y-116727617D01*
X145457034Y-116760439D01*
X145461000Y-116800713D01*
X145461000Y-118279287D01*
X145457034Y-118319561D01*
X145447077Y-118352383D01*
X145430908Y-118382632D01*
X145409148Y-118409148D01*
X145382632Y-118430908D01*
X145352383Y-118447077D01*
X145319561Y-118457034D01*
X145279287Y-118461000D01*
X143340713Y-118461000D01*
X143300439Y-118457034D01*
X143267617Y-118447077D01*
X143237368Y-118430908D01*
X143210852Y-118409148D01*
X143189092Y-118382632D01*
X143172923Y-118352383D01*
X143162966Y-118319561D01*
X143159000Y-118279287D01*
X143159000Y-116800713D01*
X143162966Y-116760439D01*
X143172923Y-116727617D01*
X143189092Y-116697368D01*
X143210852Y-116670852D01*
X143237368Y-116649092D01*
X143267617Y-116632923D01*
X143300439Y-116622966D01*
X143340713Y-116619000D01*
X145279287Y-116619000D01*
X145319561Y-116622966D01*
X145319561Y-116622966D01*
G37*
G36*
X56738433Y-115614893D02*
G01*
X56828657Y-115632839D01*
X56880702Y-115654397D01*
X57083621Y-115738449D01*
X57159763Y-115789325D01*
X57313086Y-115891772D01*
X57508228Y-116086914D01*
X57569747Y-116178985D01*
X57661551Y-116316379D01*
X57711472Y-116436900D01*
X57767161Y-116571343D01*
X57776640Y-116619000D01*
X57821000Y-116842012D01*
X57821000Y-117117988D01*
X57796114Y-117243097D01*
X57767161Y-117388657D01*
X57723415Y-117494267D01*
X57661551Y-117643621D01*
X57661550Y-117643622D01*
X57508228Y-117873086D01*
X57313086Y-118068228D01*
X57181709Y-118156011D01*
X57083621Y-118221551D01*
X56944234Y-118279287D01*
X56828657Y-118327161D01*
X56747117Y-118343380D01*
X56557988Y-118381000D01*
X56282012Y-118381000D01*
X56092883Y-118343380D01*
X56011343Y-118327161D01*
X55895766Y-118279287D01*
X55756379Y-118221551D01*
X55658291Y-118156011D01*
X55526914Y-118068228D01*
X55331772Y-117873086D01*
X55178450Y-117643622D01*
X55178449Y-117643621D01*
X55116585Y-117494267D01*
X55072839Y-117388657D01*
X55043886Y-117243097D01*
X55019000Y-117117988D01*
X55019000Y-116842012D01*
X55063360Y-116619000D01*
X55072839Y-116571343D01*
X55128528Y-116436900D01*
X55178449Y-116316379D01*
X55270253Y-116178985D01*
X55331772Y-116086914D01*
X55526914Y-115891772D01*
X55680237Y-115789325D01*
X55756379Y-115738449D01*
X55959298Y-115654397D01*
X56011343Y-115632839D01*
X56101567Y-115614893D01*
X56282012Y-115579000D01*
X56557988Y-115579000D01*
X56738433Y-115614893D01*
X56738433Y-115614893D01*
G37*
G36*
X77718228Y-116021703D02*
G01*
X77873100Y-116085853D01*
X78012481Y-116178985D01*
X78131015Y-116297519D01*
X78224147Y-116436900D01*
X78288297Y-116591772D01*
X78321000Y-116756184D01*
X78321000Y-116923816D01*
X78288297Y-117088228D01*
X78224147Y-117243100D01*
X78131015Y-117382481D01*
X78012481Y-117501015D01*
X77873100Y-117594147D01*
X77718228Y-117658297D01*
X77553816Y-117691000D01*
X77386184Y-117691000D01*
X77221772Y-117658297D01*
X77066900Y-117594147D01*
X76927519Y-117501015D01*
X76808985Y-117382481D01*
X76715853Y-117243100D01*
X76651703Y-117088228D01*
X76619000Y-116923816D01*
X76619000Y-116756184D01*
X76651703Y-116591772D01*
X76715853Y-116436900D01*
X76808985Y-116297519D01*
X76927519Y-116178985D01*
X77066900Y-116085853D01*
X77221772Y-116021703D01*
X77386184Y-115989000D01*
X77553816Y-115989000D01*
X77718228Y-116021703D01*
X77718228Y-116021703D01*
G37*
G36*
X84068228Y-115941703D02*
G01*
X84223100Y-116005853D01*
X84362481Y-116098985D01*
X84481015Y-116217519D01*
X84574147Y-116356900D01*
X84638297Y-116511772D01*
X84671000Y-116676184D01*
X84671000Y-116843816D01*
X84638297Y-117008228D01*
X84574147Y-117163100D01*
X84481015Y-117302481D01*
X84362481Y-117421015D01*
X84223100Y-117514147D01*
X84068228Y-117578297D01*
X83903816Y-117611000D01*
X83736184Y-117611000D01*
X83571772Y-117578297D01*
X83416900Y-117514147D01*
X83277519Y-117421015D01*
X83158985Y-117302481D01*
X83065853Y-117163100D01*
X83001703Y-117008228D01*
X82969000Y-116843816D01*
X82969000Y-116676184D01*
X83001703Y-116511772D01*
X83065853Y-116356900D01*
X83158985Y-116217519D01*
X83277519Y-116098985D01*
X83416900Y-116005853D01*
X83571772Y-115941703D01*
X83736184Y-115909000D01*
X83903816Y-115909000D01*
X84068228Y-115941703D01*
X84068228Y-115941703D01*
G37*
G36*
X144630345Y-114083442D02*
G01*
X144720548Y-114092326D01*
X144894157Y-114144990D01*
X145054156Y-114230511D01*
X145086172Y-114256786D01*
X145194397Y-114345603D01*
X145273729Y-114442271D01*
X145309489Y-114485844D01*
X145395010Y-114645843D01*
X145447674Y-114819452D01*
X145465456Y-115000000D01*
X145447674Y-115180548D01*
X145395010Y-115354157D01*
X145309489Y-115514156D01*
X145273729Y-115557729D01*
X145194397Y-115654397D01*
X145097729Y-115733729D01*
X145054156Y-115769489D01*
X144894157Y-115855010D01*
X144720548Y-115907674D01*
X144630345Y-115916558D01*
X144585245Y-115921000D01*
X144034755Y-115921000D01*
X143989655Y-115916558D01*
X143899452Y-115907674D01*
X143725843Y-115855010D01*
X143565844Y-115769489D01*
X143522271Y-115733729D01*
X143425603Y-115654397D01*
X143346271Y-115557729D01*
X143310511Y-115514156D01*
X143224990Y-115354157D01*
X143172326Y-115180548D01*
X143154544Y-115000000D01*
X143172326Y-114819452D01*
X143224990Y-114645843D01*
X143310511Y-114485844D01*
X143346271Y-114442271D01*
X143425603Y-114345603D01*
X143533828Y-114256786D01*
X143565844Y-114230511D01*
X143725843Y-114144990D01*
X143899452Y-114092326D01*
X143989655Y-114083442D01*
X144034755Y-114079000D01*
X144585245Y-114079000D01*
X144630345Y-114083442D01*
X144630345Y-114083442D01*
G37*
G36*
X100598936Y-113157986D02*
G01*
X100694903Y-113177075D01*
X100922571Y-113271378D01*
X101127466Y-113408285D01*
X101301715Y-113582534D01*
X101369259Y-113683621D01*
X101438623Y-113787431D01*
X101532925Y-114015097D01*
X101575774Y-114230511D01*
X101581000Y-114256787D01*
X101581000Y-114503213D01*
X101532925Y-114744903D01*
X101438622Y-114972571D01*
X101301715Y-115177466D01*
X101127466Y-115351715D01*
X100922571Y-115488622D01*
X100922570Y-115488623D01*
X100922569Y-115488623D01*
X100694903Y-115582925D01*
X100453214Y-115631000D01*
X100206786Y-115631000D01*
X99965097Y-115582925D01*
X99737431Y-115488623D01*
X99737430Y-115488623D01*
X99737429Y-115488622D01*
X99532534Y-115351715D01*
X99358285Y-115177466D01*
X99221378Y-114972571D01*
X99127075Y-114744903D01*
X99079000Y-114503213D01*
X99079000Y-114256787D01*
X99084227Y-114230511D01*
X99127075Y-114015097D01*
X99221377Y-113787431D01*
X99290741Y-113683621D01*
X99358285Y-113582534D01*
X99532534Y-113408285D01*
X99737429Y-113271378D01*
X99965097Y-113177075D01*
X100061064Y-113157986D01*
X100206786Y-113129000D01*
X100453214Y-113129000D01*
X100598936Y-113157986D01*
X100598936Y-113157986D01*
G37*
G36*
X91042443Y-113405519D02*
G01*
X91108627Y-113412037D01*
X91278466Y-113463557D01*
X91434991Y-113547222D01*
X91470729Y-113576552D01*
X91572186Y-113659814D01*
X91655448Y-113761271D01*
X91684778Y-113797009D01*
X91768443Y-113953534D01*
X91819963Y-114123373D01*
X91837359Y-114300000D01*
X91819963Y-114476627D01*
X91768443Y-114646466D01*
X91684778Y-114802991D01*
X91671267Y-114819454D01*
X91572186Y-114940186D01*
X91499301Y-115000000D01*
X91434991Y-115052778D01*
X91278466Y-115136443D01*
X91108627Y-115187963D01*
X91042442Y-115194482D01*
X90976260Y-115201000D01*
X90887740Y-115201000D01*
X90821558Y-115194482D01*
X90755373Y-115187963D01*
X90585534Y-115136443D01*
X90429009Y-115052778D01*
X90364699Y-115000000D01*
X90291814Y-114940186D01*
X90192733Y-114819454D01*
X90179222Y-114802991D01*
X90095557Y-114646466D01*
X90044037Y-114476627D01*
X90026641Y-114300000D01*
X90044037Y-114123373D01*
X90095557Y-113953534D01*
X90179222Y-113797009D01*
X90208552Y-113761271D01*
X90291814Y-113659814D01*
X90393271Y-113576552D01*
X90429009Y-113547222D01*
X90585534Y-113463557D01*
X90755373Y-113412037D01*
X90821557Y-113405519D01*
X90887740Y-113399000D01*
X90976260Y-113399000D01*
X91042443Y-113405519D01*
X91042443Y-113405519D01*
G37*
G36*
X130757065Y-111568238D02*
G01*
X130829346Y-111575357D01*
X130927033Y-111604990D01*
X131107577Y-111659757D01*
X131363988Y-111796812D01*
X131588739Y-111981261D01*
X131773188Y-112206012D01*
X131910243Y-112462423D01*
X131910244Y-112462427D01*
X131994643Y-112740654D01*
X132023141Y-113030000D01*
X131994643Y-113319346D01*
X131961484Y-113428656D01*
X131910243Y-113597577D01*
X131773188Y-113853988D01*
X131588739Y-114078739D01*
X131363988Y-114263188D01*
X131107577Y-114400243D01*
X130992681Y-114435096D01*
X130829346Y-114484643D01*
X130757065Y-114491762D01*
X130612506Y-114506000D01*
X128467494Y-114506000D01*
X128322935Y-114491762D01*
X128250654Y-114484643D01*
X128087319Y-114435096D01*
X127972423Y-114400243D01*
X127716012Y-114263188D01*
X127491261Y-114078739D01*
X127306812Y-113853988D01*
X127169757Y-113597577D01*
X127118516Y-113428656D01*
X127085357Y-113319346D01*
X127056859Y-113030000D01*
X127085357Y-112740654D01*
X127169756Y-112462427D01*
X127169757Y-112462423D01*
X127306812Y-112206012D01*
X127491261Y-111981261D01*
X127716012Y-111796812D01*
X127972423Y-111659757D01*
X128152967Y-111604990D01*
X128250654Y-111575357D01*
X128322935Y-111568238D01*
X128467494Y-111554000D01*
X130612506Y-111554000D01*
X130757065Y-111568238D01*
X130757065Y-111568238D01*
G37*
G36*
X56738433Y-111654893D02*
G01*
X56828657Y-111672839D01*
X56934267Y-111716585D01*
X57083621Y-111778449D01*
X57124260Y-111805603D01*
X57313086Y-111931772D01*
X57508228Y-112126914D01*
X57610150Y-112279452D01*
X57661551Y-112356379D01*
X57721461Y-112501015D01*
X57767161Y-112611343D01*
X57777038Y-112661000D01*
X57821000Y-112882012D01*
X57821000Y-113157988D01*
X57767161Y-113428656D01*
X57661551Y-113683621D01*
X57661550Y-113683622D01*
X57508228Y-113913086D01*
X57313086Y-114108228D01*
X57159763Y-114210675D01*
X57083621Y-114261551D01*
X56934267Y-114323415D01*
X56828657Y-114367161D01*
X56738433Y-114385107D01*
X56557988Y-114421000D01*
X56282012Y-114421000D01*
X56101567Y-114385107D01*
X56011343Y-114367161D01*
X55905733Y-114323415D01*
X55756379Y-114261551D01*
X55680237Y-114210675D01*
X55526914Y-114108228D01*
X55331772Y-113913086D01*
X55178450Y-113683622D01*
X55178449Y-113683621D01*
X55072839Y-113428656D01*
X55019000Y-113157988D01*
X55019000Y-112882012D01*
X55062962Y-112661000D01*
X55072839Y-112611343D01*
X55118539Y-112501015D01*
X55178449Y-112356379D01*
X55229850Y-112279452D01*
X55331772Y-112126914D01*
X55526914Y-111931772D01*
X55715740Y-111805603D01*
X55756379Y-111778449D01*
X55905733Y-111716585D01*
X56011343Y-111672839D01*
X56101567Y-111654893D01*
X56282012Y-111619000D01*
X56557988Y-111619000D01*
X56738433Y-111654893D01*
X56738433Y-111654893D01*
G37*
G36*
X144630345Y-111543442D02*
G01*
X144720548Y-111552326D01*
X144894157Y-111604990D01*
X145054156Y-111690511D01*
X145097729Y-111726271D01*
X145194397Y-111805603D01*
X145273729Y-111902271D01*
X145309489Y-111945844D01*
X145395010Y-112105843D01*
X145447674Y-112279452D01*
X145465456Y-112460000D01*
X145447674Y-112640548D01*
X145395010Y-112814157D01*
X145309489Y-112974156D01*
X145273729Y-113017729D01*
X145194397Y-113114397D01*
X145097729Y-113193729D01*
X145054156Y-113229489D01*
X144894157Y-113315010D01*
X144720548Y-113367674D01*
X144630345Y-113376558D01*
X144585245Y-113381000D01*
X144034755Y-113381000D01*
X143989655Y-113376558D01*
X143899452Y-113367674D01*
X143725843Y-113315010D01*
X143565844Y-113229489D01*
X143522271Y-113193729D01*
X143425603Y-113114397D01*
X143346271Y-113017729D01*
X143310511Y-112974156D01*
X143224990Y-112814157D01*
X143172326Y-112640548D01*
X143154544Y-112460000D01*
X143172326Y-112279452D01*
X143224990Y-112105843D01*
X143310511Y-111945844D01*
X143346271Y-111902271D01*
X143425603Y-111805603D01*
X143522271Y-111726271D01*
X143565844Y-111690511D01*
X143725843Y-111604990D01*
X143899452Y-111552326D01*
X143989655Y-111543442D01*
X144034755Y-111539000D01*
X144585245Y-111539000D01*
X144630345Y-111543442D01*
X144630345Y-111543442D01*
G37*
G36*
X77718228Y-111021703D02*
G01*
X77873100Y-111085853D01*
X78012481Y-111178985D01*
X78131015Y-111297519D01*
X78224147Y-111436900D01*
X78288297Y-111591772D01*
X78321000Y-111756184D01*
X78321000Y-111923816D01*
X78288297Y-112088228D01*
X78224147Y-112243100D01*
X78131015Y-112382481D01*
X78012481Y-112501015D01*
X77873100Y-112594147D01*
X77718228Y-112658297D01*
X77553816Y-112691000D01*
X77386184Y-112691000D01*
X77221772Y-112658297D01*
X77066900Y-112594147D01*
X76927519Y-112501015D01*
X76808985Y-112382481D01*
X76715853Y-112243100D01*
X76651703Y-112088228D01*
X76619000Y-111923816D01*
X76619000Y-111756184D01*
X76651703Y-111591772D01*
X76715853Y-111436900D01*
X76808985Y-111297519D01*
X76927519Y-111178985D01*
X77066900Y-111085853D01*
X77221772Y-111021703D01*
X77386184Y-110989000D01*
X77553816Y-110989000D01*
X77718228Y-111021703D01*
X77718228Y-111021703D01*
G37*
G36*
X91833000Y-112661000D02*
G01*
X90031000Y-112661000D01*
X90031000Y-110859000D01*
X91833000Y-110859000D01*
X91833000Y-112661000D01*
X91833000Y-112661000D01*
G37*
G36*
X84068228Y-110941703D02*
G01*
X84223100Y-111005853D01*
X84362481Y-111098985D01*
X84481015Y-111217519D01*
X84574147Y-111356900D01*
X84638297Y-111511772D01*
X84671000Y-111676184D01*
X84671000Y-111843816D01*
X84638297Y-112008228D01*
X84574147Y-112163100D01*
X84481015Y-112302481D01*
X84362481Y-112421015D01*
X84223100Y-112514147D01*
X84068228Y-112578297D01*
X83903816Y-112611000D01*
X83736184Y-112611000D01*
X83571772Y-112578297D01*
X83416900Y-112514147D01*
X83277519Y-112421015D01*
X83158985Y-112302481D01*
X83065853Y-112163100D01*
X83001703Y-112008228D01*
X82969000Y-111843816D01*
X82969000Y-111676184D01*
X83001703Y-111511772D01*
X83065853Y-111356900D01*
X83158985Y-111217519D01*
X83277519Y-111098985D01*
X83416900Y-111005853D01*
X83571772Y-110941703D01*
X83736184Y-110909000D01*
X83903816Y-110909000D01*
X84068228Y-110941703D01*
X84068228Y-110941703D01*
G37*
G36*
X57694031Y-107662621D02*
G01*
X57723486Y-107671556D01*
X57750623Y-107686062D01*
X57774414Y-107705586D01*
X57793938Y-107729377D01*
X57808444Y-107756514D01*
X57817379Y-107785969D01*
X57821000Y-107822734D01*
X57821000Y-110297266D01*
X57817379Y-110334031D01*
X57808444Y-110363486D01*
X57793938Y-110390623D01*
X57774414Y-110414414D01*
X57750623Y-110433938D01*
X57723486Y-110448444D01*
X57694031Y-110457379D01*
X57657266Y-110461000D01*
X55182734Y-110461000D01*
X55145969Y-110457379D01*
X55116514Y-110448444D01*
X55089377Y-110433938D01*
X55065586Y-110414414D01*
X55046062Y-110390623D01*
X55031556Y-110363486D01*
X55022621Y-110334031D01*
X55019000Y-110297266D01*
X55019000Y-107822734D01*
X55022621Y-107785969D01*
X55031556Y-107756514D01*
X55046062Y-107729377D01*
X55065586Y-107705586D01*
X55089377Y-107686062D01*
X55116514Y-107671556D01*
X55145969Y-107662621D01*
X55182734Y-107659000D01*
X57657266Y-107659000D01*
X57694031Y-107662621D01*
X57694031Y-107662621D01*
G37*
G36*
X72500443Y-108325519D02*
G01*
X72566627Y-108332037D01*
X72736466Y-108383557D01*
X72892991Y-108467222D01*
X72928729Y-108496552D01*
X73030186Y-108579814D01*
X73113448Y-108681271D01*
X73142778Y-108717009D01*
X73226443Y-108873534D01*
X73277963Y-109043373D01*
X73295359Y-109220000D01*
X73277963Y-109396627D01*
X73226443Y-109566466D01*
X73142778Y-109722991D01*
X73113448Y-109758729D01*
X73030186Y-109860186D01*
X72928729Y-109943448D01*
X72892991Y-109972778D01*
X72736466Y-110056443D01*
X72566627Y-110107963D01*
X72500443Y-110114481D01*
X72434260Y-110121000D01*
X72345740Y-110121000D01*
X72279557Y-110114481D01*
X72213373Y-110107963D01*
X72043534Y-110056443D01*
X71887009Y-109972778D01*
X71851271Y-109943448D01*
X71749814Y-109860186D01*
X71666552Y-109758729D01*
X71637222Y-109722991D01*
X71553557Y-109566466D01*
X71502037Y-109396627D01*
X71484641Y-109220000D01*
X71502037Y-109043373D01*
X71553557Y-108873534D01*
X71637222Y-108717009D01*
X71666552Y-108681271D01*
X71749814Y-108579814D01*
X71851271Y-108496552D01*
X71887009Y-108467222D01*
X72043534Y-108383557D01*
X72213373Y-108332037D01*
X72279557Y-108325519D01*
X72345740Y-108319000D01*
X72434260Y-108319000D01*
X72500443Y-108325519D01*
X72500443Y-108325519D01*
G37*
G36*
X70751000Y-110121000D02*
G01*
X68949000Y-110121000D01*
X68949000Y-108319000D01*
X70751000Y-108319000D01*
X70751000Y-110121000D01*
X70751000Y-110121000D01*
G37*
G36*
X88201000Y-107631000D02*
G01*
X85599000Y-107631000D01*
X85599000Y-105729000D01*
X88201000Y-105729000D01*
X88201000Y-107631000D01*
X88201000Y-107631000D01*
G37*
G36*
X92201000Y-107631000D02*
G01*
X89599000Y-107631000D01*
X89599000Y-105729000D01*
X92201000Y-105729000D01*
X92201000Y-107631000D01*
X92201000Y-107631000D01*
G37*
G36*
X132650890Y-104173017D02*
G01*
X132769364Y-104222091D01*
X132858045Y-104281346D01*
X132875988Y-104293335D01*
X132966665Y-104384012D01*
X133037910Y-104490638D01*
X133059199Y-104542034D01*
X133086983Y-104609110D01*
X133112000Y-104734882D01*
X133112000Y-104863118D01*
X133086983Y-104988890D01*
X133037909Y-105107364D01*
X132966665Y-105213988D01*
X132875988Y-105304665D01*
X132769364Y-105375909D01*
X132769363Y-105375910D01*
X132769362Y-105375910D01*
X132693056Y-105407517D01*
X132671445Y-105419068D01*
X132652503Y-105434613D01*
X132636958Y-105453555D01*
X132625407Y-105475166D01*
X132618294Y-105498615D01*
X132615892Y-105523001D01*
X132618294Y-105547387D01*
X132625407Y-105570836D01*
X132636958Y-105592447D01*
X132652503Y-105611389D01*
X132671445Y-105626934D01*
X132693056Y-105638485D01*
X132716505Y-105645598D01*
X132740891Y-105648000D01*
X133112000Y-105648000D01*
X133112000Y-106950000D01*
X131810000Y-106950000D01*
X131810000Y-105648000D01*
X132181109Y-105648000D01*
X132205495Y-105645598D01*
X132228944Y-105638485D01*
X132250555Y-105626934D01*
X132269497Y-105611389D01*
X132285042Y-105592447D01*
X132296593Y-105570836D01*
X132303706Y-105547387D01*
X132306108Y-105523001D01*
X132303706Y-105498615D01*
X132296593Y-105475166D01*
X132285042Y-105453555D01*
X132269497Y-105434613D01*
X132250555Y-105419068D01*
X132228944Y-105407517D01*
X132152638Y-105375910D01*
X132152637Y-105375910D01*
X132152636Y-105375909D01*
X132046012Y-105304665D01*
X131955335Y-105213988D01*
X131884091Y-105107364D01*
X131835017Y-104988890D01*
X131810000Y-104863118D01*
X131810000Y-104734882D01*
X131835017Y-104609110D01*
X131862801Y-104542034D01*
X131884090Y-104490638D01*
X131955335Y-104384012D01*
X132046012Y-104293335D01*
X132063955Y-104281346D01*
X132152636Y-104222091D01*
X132271110Y-104173017D01*
X132396881Y-104148000D01*
X132525119Y-104148000D01*
X132650890Y-104173017D01*
X132650890Y-104173017D01*
G37*
G36*
X101581000Y-106661000D02*
G01*
X99079000Y-106661000D01*
X99079000Y-104159000D01*
X101581000Y-104159000D01*
X101581000Y-106661000D01*
X101581000Y-106661000D01*
G37*
G36*
X114643000Y-106388000D02*
G01*
X112941000Y-106388000D01*
X112941000Y-104686000D01*
X114643000Y-104686000D01*
X114643000Y-106388000D01*
X114643000Y-106388000D01*
G37*
G36*
X145319561Y-102707966D02*
G01*
X145352383Y-102717923D01*
X145382632Y-102734092D01*
X145409148Y-102755852D01*
X145430908Y-102782368D01*
X145447077Y-102812617D01*
X145457034Y-102845439D01*
X145461000Y-102885713D01*
X145461000Y-104364287D01*
X145457034Y-104404561D01*
X145447077Y-104437383D01*
X145430908Y-104467632D01*
X145409148Y-104494148D01*
X145382632Y-104515908D01*
X145352383Y-104532077D01*
X145319561Y-104542034D01*
X145279287Y-104546000D01*
X143340713Y-104546000D01*
X143300439Y-104542034D01*
X143267617Y-104532077D01*
X143237368Y-104515908D01*
X143210852Y-104494148D01*
X143189092Y-104467632D01*
X143172923Y-104437383D01*
X143162966Y-104404561D01*
X143159000Y-104364287D01*
X143159000Y-102885713D01*
X143162966Y-102845439D01*
X143172923Y-102812617D01*
X143189092Y-102782368D01*
X143210852Y-102755852D01*
X143237368Y-102734092D01*
X143267617Y-102717923D01*
X143300439Y-102707966D01*
X143340713Y-102704000D01*
X145279287Y-102704000D01*
X145319561Y-102707966D01*
X145319561Y-102707966D01*
G37*
G36*
X114040228Y-102718703D02*
G01*
X114195100Y-102782853D01*
X114334481Y-102875985D01*
X114453015Y-102994519D01*
X114546147Y-103133900D01*
X114610297Y-103288772D01*
X114643000Y-103453184D01*
X114643000Y-103620816D01*
X114610297Y-103785228D01*
X114546147Y-103940100D01*
X114453015Y-104079481D01*
X114334481Y-104198015D01*
X114195100Y-104291147D01*
X114040228Y-104355297D01*
X113875816Y-104388000D01*
X113708184Y-104388000D01*
X113543772Y-104355297D01*
X113388900Y-104291147D01*
X113249519Y-104198015D01*
X113130985Y-104079481D01*
X113037853Y-103940100D01*
X112973703Y-103785228D01*
X112941000Y-103620816D01*
X112941000Y-103453184D01*
X112973703Y-103288772D01*
X113037853Y-103133900D01*
X113130985Y-102994519D01*
X113249519Y-102875985D01*
X113388900Y-102782853D01*
X113543772Y-102718703D01*
X113708184Y-102686000D01*
X113875816Y-102686000D01*
X114040228Y-102718703D01*
X114040228Y-102718703D01*
G37*
G36*
X88201000Y-103821000D02*
G01*
X85599000Y-103821000D01*
X85599000Y-101919000D01*
X88201000Y-101919000D01*
X88201000Y-103821000D01*
X88201000Y-103821000D01*
G37*
G36*
X92201000Y-103821000D02*
G01*
X89599000Y-103821000D01*
X89599000Y-101919000D01*
X92201000Y-101919000D01*
X92201000Y-103821000D01*
X92201000Y-103821000D01*
G37*
G36*
X124741000Y-103673500D02*
G01*
X122639000Y-103673500D01*
X122639000Y-101666500D01*
X124741000Y-101666500D01*
X124741000Y-103673500D01*
X124741000Y-103673500D01*
G37*
G36*
X128078000Y-103250000D02*
G01*
X126176000Y-103250000D01*
X126176000Y-100648000D01*
X128078000Y-100648000D01*
X128078000Y-103250000D01*
X128078000Y-103250000D01*
G37*
G36*
X144630345Y-100168442D02*
G01*
X144720548Y-100177326D01*
X144894157Y-100229990D01*
X145054156Y-100315511D01*
X145088327Y-100343555D01*
X145194397Y-100430603D01*
X145264382Y-100515881D01*
X145309489Y-100570844D01*
X145395010Y-100730843D01*
X145447674Y-100904452D01*
X145465456Y-101085000D01*
X145447674Y-101265548D01*
X145395010Y-101439157D01*
X145309489Y-101599156D01*
X145273729Y-101642729D01*
X145194397Y-101739397D01*
X145097729Y-101818729D01*
X145054156Y-101854489D01*
X144894157Y-101940010D01*
X144720548Y-101992674D01*
X144630345Y-102001558D01*
X144585245Y-102006000D01*
X144034755Y-102006000D01*
X143989655Y-102001558D01*
X143899452Y-101992674D01*
X143725843Y-101940010D01*
X143565844Y-101854489D01*
X143522271Y-101818729D01*
X143425603Y-101739397D01*
X143346271Y-101642729D01*
X143310511Y-101599156D01*
X143224990Y-101439157D01*
X143172326Y-101265548D01*
X143154544Y-101085000D01*
X143172326Y-100904452D01*
X143224990Y-100730843D01*
X143310511Y-100570844D01*
X143355618Y-100515881D01*
X143425603Y-100430603D01*
X143531673Y-100343555D01*
X143565844Y-100315511D01*
X143725843Y-100229990D01*
X143899452Y-100177326D01*
X143989655Y-100168442D01*
X144034755Y-100164000D01*
X144585245Y-100164000D01*
X144630345Y-100168442D01*
X144630345Y-100168442D01*
G37*
G36*
X100694903Y-99207075D02*
G01*
X100921787Y-99301053D01*
X100922571Y-99301378D01*
X101127466Y-99438285D01*
X101301715Y-99612534D01*
X101438622Y-99817429D01*
X101438623Y-99817431D01*
X101532925Y-100045097D01*
X101581000Y-100286786D01*
X101581000Y-100533214D01*
X101558168Y-100648000D01*
X101532925Y-100774903D01*
X101438622Y-101002571D01*
X101301715Y-101207466D01*
X101127466Y-101381715D01*
X100922571Y-101518622D01*
X100922570Y-101518623D01*
X100922569Y-101518623D01*
X100694903Y-101612925D01*
X100453214Y-101661000D01*
X100206786Y-101661000D01*
X99965097Y-101612925D01*
X99737431Y-101518623D01*
X99737430Y-101518623D01*
X99737429Y-101518622D01*
X99532534Y-101381715D01*
X99358285Y-101207466D01*
X99221378Y-101002571D01*
X99127075Y-100774903D01*
X99101832Y-100648000D01*
X99079000Y-100533214D01*
X99079000Y-100286786D01*
X99127075Y-100045097D01*
X99221377Y-99817431D01*
X99221378Y-99817429D01*
X99358285Y-99612534D01*
X99532534Y-99438285D01*
X99737429Y-99301378D01*
X99738214Y-99301053D01*
X99965097Y-99207075D01*
X100206786Y-99159000D01*
X100453214Y-99159000D01*
X100694903Y-99207075D01*
X100694903Y-99207075D01*
G37*
G36*
X118045000Y-101599000D02*
G01*
X116143000Y-101599000D01*
X116143000Y-98997000D01*
X118045000Y-98997000D01*
X118045000Y-101599000D01*
X118045000Y-101599000D01*
G37*
G36*
X123835936Y-99131340D02*
G01*
X123934220Y-99141020D01*
X124123381Y-99198401D01*
X124297712Y-99291583D01*
X124450515Y-99416985D01*
X124575917Y-99569788D01*
X124669099Y-99744119D01*
X124726480Y-99933280D01*
X124745855Y-100130000D01*
X124726480Y-100326720D01*
X124669099Y-100515881D01*
X124575917Y-100690212D01*
X124450515Y-100843015D01*
X124297712Y-100968417D01*
X124123381Y-101061599D01*
X123934220Y-101118980D01*
X123835936Y-101128660D01*
X123786795Y-101133500D01*
X123593205Y-101133500D01*
X123544064Y-101128660D01*
X123445780Y-101118980D01*
X123256619Y-101061599D01*
X123082288Y-100968417D01*
X122929485Y-100843015D01*
X122804083Y-100690212D01*
X122710901Y-100515881D01*
X122653520Y-100326720D01*
X122634145Y-100130000D01*
X122653520Y-99933280D01*
X122710901Y-99744119D01*
X122804083Y-99569788D01*
X122929485Y-99416985D01*
X123082288Y-99291583D01*
X123256619Y-99198401D01*
X123445780Y-99141020D01*
X123544064Y-99131340D01*
X123593205Y-99126500D01*
X123786795Y-99126500D01*
X123835936Y-99131340D01*
X123835936Y-99131340D01*
G37*
G36*
X80422585Y-97678802D02*
G01*
X80572410Y-97708604D01*
X80854674Y-97825521D01*
X81108705Y-97995259D01*
X81324741Y-98211295D01*
X81494479Y-98465326D01*
X81547570Y-98593500D01*
X81611396Y-98747591D01*
X81671000Y-99047239D01*
X81671000Y-99352761D01*
X81658225Y-99416985D01*
X81611396Y-99652410D01*
X81494479Y-99934674D01*
X81324741Y-100188705D01*
X81108705Y-100404741D01*
X80854674Y-100574479D01*
X80572410Y-100691396D01*
X80422585Y-100721198D01*
X80272761Y-100751000D01*
X79967239Y-100751000D01*
X79817415Y-100721198D01*
X79667590Y-100691396D01*
X79385326Y-100574479D01*
X79131295Y-100404741D01*
X78915259Y-100188705D01*
X78745521Y-99934674D01*
X78628604Y-99652410D01*
X78581775Y-99416985D01*
X78569000Y-99352761D01*
X78569000Y-99047239D01*
X78628604Y-98747591D01*
X78692430Y-98593500D01*
X78745521Y-98465326D01*
X78915259Y-98211295D01*
X79131295Y-97995259D01*
X79385326Y-97825521D01*
X79667590Y-97708604D01*
X79817415Y-97678802D01*
X79967239Y-97649000D01*
X80272761Y-97649000D01*
X80422585Y-97678802D01*
X80422585Y-97678802D01*
G37*
G36*
X57922585Y-97678802D02*
G01*
X58072410Y-97708604D01*
X58354674Y-97825521D01*
X58608705Y-97995259D01*
X58824741Y-98211295D01*
X58994479Y-98465326D01*
X59047570Y-98593500D01*
X59111396Y-98747591D01*
X59171000Y-99047239D01*
X59171000Y-99352761D01*
X59158225Y-99416985D01*
X59111396Y-99652410D01*
X58994479Y-99934674D01*
X58824741Y-100188705D01*
X58608705Y-100404741D01*
X58354674Y-100574479D01*
X58072410Y-100691396D01*
X57922585Y-100721198D01*
X57772761Y-100751000D01*
X57467239Y-100751000D01*
X57317415Y-100721198D01*
X57167590Y-100691396D01*
X56885326Y-100574479D01*
X56631295Y-100404741D01*
X56415259Y-100188705D01*
X56245521Y-99934674D01*
X56128604Y-99652410D01*
X56081775Y-99416985D01*
X56069000Y-99352761D01*
X56069000Y-99047239D01*
X56128604Y-98747591D01*
X56192430Y-98593500D01*
X56245521Y-98465326D01*
X56415259Y-98211295D01*
X56631295Y-97995259D01*
X56885326Y-97825521D01*
X57167590Y-97708604D01*
X57317415Y-97678802D01*
X57467239Y-97649000D01*
X57772761Y-97649000D01*
X57922585Y-97678802D01*
X57922585Y-97678802D01*
G37*
G36*
X69188433Y-97834893D02*
G01*
X69278657Y-97852839D01*
X69369826Y-97890603D01*
X69533621Y-97958449D01*
X69609763Y-98009325D01*
X69763086Y-98111772D01*
X69958228Y-98306914D01*
X70039413Y-98428417D01*
X70111551Y-98536379D01*
X70135211Y-98593500D01*
X70199038Y-98747590D01*
X70217161Y-98791344D01*
X70271000Y-99062012D01*
X70271000Y-99337988D01*
X70247227Y-99457501D01*
X70217161Y-99608657D01*
X70173415Y-99714267D01*
X70111551Y-99863621D01*
X70111550Y-99863622D01*
X69958228Y-100093086D01*
X69763086Y-100288228D01*
X69673630Y-100348000D01*
X69533621Y-100441551D01*
X69384267Y-100503415D01*
X69278657Y-100547161D01*
X69188433Y-100565107D01*
X69007988Y-100601000D01*
X68732012Y-100601000D01*
X68551567Y-100565107D01*
X68461343Y-100547161D01*
X68355733Y-100503415D01*
X68206379Y-100441551D01*
X68066370Y-100348000D01*
X67976914Y-100288228D01*
X67781772Y-100093086D01*
X67628450Y-99863622D01*
X67628449Y-99863621D01*
X67566585Y-99714267D01*
X67522839Y-99608657D01*
X67492773Y-99457501D01*
X67469000Y-99337988D01*
X67469000Y-99062012D01*
X67522839Y-98791344D01*
X67540963Y-98747590D01*
X67604789Y-98593500D01*
X67628449Y-98536379D01*
X67700587Y-98428417D01*
X67781772Y-98306914D01*
X67976914Y-98111772D01*
X68130237Y-98009325D01*
X68206379Y-97958449D01*
X68370174Y-97890603D01*
X68461343Y-97852839D01*
X68551567Y-97834893D01*
X68732012Y-97799000D01*
X69007988Y-97799000D01*
X69188433Y-97834893D01*
X69188433Y-97834893D01*
G37*
G36*
X136417499Y-99300445D02*
G01*
X136454995Y-99311820D01*
X136489554Y-99330292D01*
X136519847Y-99355153D01*
X136544708Y-99385446D01*
X136563180Y-99420005D01*
X136574555Y-99457501D01*
X136579000Y-99502638D01*
X136579000Y-100141362D01*
X136574555Y-100186499D01*
X136563180Y-100223995D01*
X136544708Y-100258554D01*
X136519847Y-100288847D01*
X136489554Y-100313708D01*
X136454995Y-100332180D01*
X136417499Y-100343555D01*
X136372362Y-100348000D01*
X135633638Y-100348000D01*
X135588501Y-100343555D01*
X135551005Y-100332180D01*
X135516446Y-100313708D01*
X135486153Y-100288847D01*
X135461292Y-100258554D01*
X135442820Y-100223995D01*
X135431445Y-100186499D01*
X135427000Y-100141362D01*
X135427000Y-99502638D01*
X135431445Y-99457501D01*
X135442820Y-99420005D01*
X135461292Y-99385446D01*
X135486153Y-99355153D01*
X135516446Y-99330292D01*
X135551005Y-99311820D01*
X135588501Y-99300445D01*
X135633638Y-99296000D01*
X136372362Y-99296000D01*
X136417499Y-99300445D01*
X136417499Y-99300445D01*
G37*
G36*
X134667499Y-99300445D02*
G01*
X134704995Y-99311820D01*
X134739554Y-99330292D01*
X134769847Y-99355153D01*
X134794708Y-99385446D01*
X134813180Y-99420005D01*
X134824555Y-99457501D01*
X134829000Y-99502638D01*
X134829000Y-100141362D01*
X134824555Y-100186499D01*
X134813180Y-100223995D01*
X134794708Y-100258554D01*
X134769847Y-100288847D01*
X134739554Y-100313708D01*
X134704995Y-100332180D01*
X134667499Y-100343555D01*
X134622362Y-100348000D01*
X133883638Y-100348000D01*
X133838501Y-100343555D01*
X133801005Y-100332180D01*
X133766446Y-100313708D01*
X133736153Y-100288847D01*
X133711292Y-100258554D01*
X133692820Y-100223995D01*
X133681445Y-100186499D01*
X133677000Y-100141362D01*
X133677000Y-99502638D01*
X133681445Y-99457501D01*
X133692820Y-99420005D01*
X133711292Y-99385446D01*
X133736153Y-99355153D01*
X133766446Y-99330292D01*
X133801005Y-99311820D01*
X133838501Y-99300445D01*
X133883638Y-99296000D01*
X134622362Y-99296000D01*
X134667499Y-99300445D01*
X134667499Y-99300445D01*
G37*
G36*
X92201000Y-100011000D02*
G01*
X89599000Y-100011000D01*
X89599000Y-98109000D01*
X92201000Y-98109000D01*
X92201000Y-100011000D01*
X92201000Y-100011000D01*
G37*
G36*
X88201000Y-100011000D02*
G01*
X85599000Y-100011000D01*
X85599000Y-98109000D01*
X88201000Y-98109000D01*
X88201000Y-100011000D01*
X88201000Y-100011000D01*
G37*
G36*
X144630345Y-97628442D02*
G01*
X144720548Y-97637326D01*
X144894157Y-97689990D01*
X145054156Y-97775511D01*
X145082777Y-97799000D01*
X145194397Y-97890603D01*
X145264382Y-97975881D01*
X145309489Y-98030844D01*
X145395010Y-98190843D01*
X145447674Y-98364452D01*
X145465456Y-98545000D01*
X145447674Y-98725548D01*
X145395010Y-98899157D01*
X145309489Y-99059156D01*
X145307143Y-99062014D01*
X145194397Y-99199397D01*
X145097729Y-99278729D01*
X145054156Y-99314489D01*
X144894157Y-99400010D01*
X144720548Y-99452674D01*
X144630345Y-99461558D01*
X144585245Y-99466000D01*
X144034755Y-99466000D01*
X143989655Y-99461558D01*
X143899452Y-99452674D01*
X143725843Y-99400010D01*
X143565844Y-99314489D01*
X143522271Y-99278729D01*
X143425603Y-99199397D01*
X143312857Y-99062014D01*
X143310511Y-99059156D01*
X143224990Y-98899157D01*
X143172326Y-98725548D01*
X143154544Y-98545000D01*
X143172326Y-98364452D01*
X143224990Y-98190843D01*
X143310511Y-98030844D01*
X143355618Y-97975881D01*
X143425603Y-97890603D01*
X143537223Y-97799000D01*
X143565844Y-97775511D01*
X143725843Y-97689990D01*
X143899452Y-97637326D01*
X143989655Y-97628442D01*
X144034755Y-97624000D01*
X144585245Y-97624000D01*
X144630345Y-97628442D01*
X144630345Y-97628442D01*
G37*
G36*
X128078000Y-99250000D02*
G01*
X126176000Y-99250000D01*
X126176000Y-96648000D01*
X128078000Y-96648000D01*
X128078000Y-99250000D01*
X128078000Y-99250000D01*
G37*
G36*
X123835936Y-96591340D02*
G01*
X123934220Y-96601020D01*
X124123381Y-96658401D01*
X124297712Y-96751583D01*
X124450515Y-96876985D01*
X124575917Y-97029788D01*
X124669099Y-97204119D01*
X124726480Y-97393280D01*
X124745855Y-97590000D01*
X124726480Y-97786720D01*
X124669099Y-97975881D01*
X124575917Y-98150212D01*
X124450515Y-98303015D01*
X124297712Y-98428417D01*
X124123381Y-98521599D01*
X123934220Y-98578980D01*
X123835936Y-98588660D01*
X123786795Y-98593500D01*
X123593205Y-98593500D01*
X123544064Y-98588660D01*
X123445780Y-98578980D01*
X123256619Y-98521599D01*
X123082288Y-98428417D01*
X122929485Y-98303015D01*
X122804083Y-98150212D01*
X122710901Y-97975881D01*
X122653520Y-97786720D01*
X122634145Y-97590000D01*
X122653520Y-97393280D01*
X122710901Y-97204119D01*
X122804083Y-97029788D01*
X122929485Y-96876985D01*
X123082288Y-96751583D01*
X123256619Y-96658401D01*
X123445780Y-96601020D01*
X123544064Y-96591340D01*
X123593205Y-96586500D01*
X123786795Y-96586500D01*
X123835936Y-96591340D01*
X123835936Y-96591340D01*
G37*
G36*
X118045000Y-97599000D02*
G01*
X116143000Y-97599000D01*
X116143000Y-94997000D01*
X118045000Y-94997000D01*
X118045000Y-97599000D01*
X118045000Y-97599000D01*
G37*
G36*
X134963000Y-96482000D02*
G01*
X133261000Y-96482000D01*
X133261000Y-94780000D01*
X134963000Y-94780000D01*
X134963000Y-96482000D01*
X134963000Y-96482000D01*
G37*
G36*
X92201000Y-96201000D02*
G01*
X89599000Y-96201000D01*
X89599000Y-94299000D01*
X92201000Y-94299000D01*
X92201000Y-96201000D01*
X92201000Y-96201000D01*
G37*
G36*
X88201000Y-96201000D02*
G01*
X85599000Y-96201000D01*
X85599000Y-94299000D01*
X88201000Y-94299000D01*
X88201000Y-96201000D01*
X88201000Y-96201000D01*
G37*
G36*
X134360228Y-92312703D02*
G01*
X134515100Y-92376853D01*
X134654481Y-92469985D01*
X134773015Y-92588519D01*
X134866147Y-92727900D01*
X134930297Y-92882772D01*
X134963000Y-93047184D01*
X134963000Y-93214816D01*
X134930297Y-93379228D01*
X134866147Y-93534100D01*
X134773015Y-93673481D01*
X134654481Y-93792015D01*
X134515100Y-93885147D01*
X134360228Y-93949297D01*
X134195816Y-93982000D01*
X134028184Y-93982000D01*
X133863772Y-93949297D01*
X133708900Y-93885147D01*
X133569519Y-93792015D01*
X133450985Y-93673481D01*
X133357853Y-93534100D01*
X133293703Y-93379228D01*
X133261000Y-93214816D01*
X133261000Y-93047184D01*
X133293703Y-92882772D01*
X133357853Y-92727900D01*
X133450985Y-92588519D01*
X133569519Y-92469985D01*
X133708900Y-92376853D01*
X133863772Y-92312703D01*
X134028184Y-92280000D01*
X134195816Y-92280000D01*
X134360228Y-92312703D01*
X134360228Y-92312703D01*
G37*
G36*
X59327477Y-83623892D02*
G01*
X59670541Y-83765994D01*
X60155707Y-83966956D01*
X60901093Y-84465008D01*
X61534992Y-85098907D01*
X62033044Y-85844293D01*
X62172620Y-86181261D01*
X62376108Y-86672523D01*
X62551000Y-87551764D01*
X62551000Y-88448236D01*
X62376108Y-89327477D01*
X62234006Y-89670541D01*
X62033044Y-90155707D01*
X61534992Y-90901093D01*
X60901093Y-91534992D01*
X60155707Y-92033044D01*
X59670541Y-92234006D01*
X59327477Y-92376108D01*
X58448236Y-92551000D01*
X57551764Y-92551000D01*
X56672523Y-92376108D01*
X56329459Y-92234006D01*
X55844293Y-92033044D01*
X55098907Y-91534992D01*
X54465008Y-90901093D01*
X53966956Y-90155707D01*
X53765994Y-89670541D01*
X53623892Y-89327477D01*
X53449000Y-88448236D01*
X53449000Y-87551764D01*
X53623892Y-86672523D01*
X53827380Y-86181261D01*
X53966956Y-85844293D01*
X54465008Y-85098907D01*
X55098907Y-84465008D01*
X55844293Y-83966956D01*
X56329459Y-83765994D01*
X56672523Y-83623892D01*
X57551764Y-83449000D01*
X58448236Y-83449000D01*
X59327477Y-83623892D01*
X59327477Y-83623892D01*
G37*
G36*
X143327477Y-83623892D02*
G01*
X143670541Y-83765994D01*
X144155707Y-83966956D01*
X144901093Y-84465008D01*
X145534992Y-85098907D01*
X146033044Y-85844293D01*
X146172620Y-86181261D01*
X146376108Y-86672523D01*
X146551000Y-87551764D01*
X146551000Y-88448236D01*
X146376108Y-89327477D01*
X146234006Y-89670541D01*
X146033044Y-90155707D01*
X145534992Y-90901093D01*
X144901093Y-91534992D01*
X144155707Y-92033044D01*
X143670541Y-92234006D01*
X143327477Y-92376108D01*
X142448236Y-92551000D01*
X141551764Y-92551000D01*
X140672523Y-92376108D01*
X140329459Y-92234006D01*
X139844293Y-92033044D01*
X139098907Y-91534992D01*
X138465008Y-90901093D01*
X137966956Y-90155707D01*
X137765994Y-89670541D01*
X137623892Y-89327477D01*
X137449000Y-88448236D01*
X137449000Y-87551764D01*
X137623892Y-86672523D01*
X137827380Y-86181261D01*
X137966956Y-85844293D01*
X138465008Y-85098907D01*
X139098907Y-84465008D01*
X139844293Y-83966956D01*
X140329459Y-83765994D01*
X140672523Y-83623892D01*
X141551764Y-83449000D01*
X142448236Y-83449000D01*
X143327477Y-83623892D01*
X143327477Y-83623892D01*
G37*
G36*
X93582443Y-90291519D02*
G01*
X93648627Y-90298037D01*
X93818466Y-90349557D01*
X93974991Y-90433222D01*
X94010729Y-90462552D01*
X94112186Y-90545814D01*
X94195448Y-90647271D01*
X94224778Y-90683009D01*
X94308443Y-90839534D01*
X94359963Y-91009373D01*
X94377359Y-91186000D01*
X94359963Y-91362627D01*
X94308443Y-91532466D01*
X94224778Y-91688991D01*
X94195448Y-91724729D01*
X94112186Y-91826186D01*
X94010729Y-91909448D01*
X93974991Y-91938778D01*
X93818466Y-92022443D01*
X93648627Y-92073963D01*
X93582443Y-92080481D01*
X93516260Y-92087000D01*
X93427740Y-92087000D01*
X93361557Y-92080481D01*
X93295373Y-92073963D01*
X93125534Y-92022443D01*
X92969009Y-91938778D01*
X92933271Y-91909448D01*
X92831814Y-91826186D01*
X92748552Y-91724729D01*
X92719222Y-91688991D01*
X92635557Y-91532466D01*
X92584037Y-91362627D01*
X92566641Y-91186000D01*
X92584037Y-91009373D01*
X92635557Y-90839534D01*
X92719222Y-90683009D01*
X92748552Y-90647271D01*
X92831814Y-90545814D01*
X92933271Y-90462552D01*
X92969009Y-90433222D01*
X93125534Y-90349557D01*
X93295373Y-90298037D01*
X93361557Y-90291519D01*
X93427740Y-90285000D01*
X93516260Y-90285000D01*
X93582443Y-90291519D01*
X93582443Y-90291519D01*
G37*
G36*
X91833000Y-92087000D02*
G01*
X90031000Y-92087000D01*
X90031000Y-90285000D01*
X91833000Y-90285000D01*
X91833000Y-92087000D01*
X91833000Y-92087000D01*
G37*
G36*
X130757065Y-85768238D02*
G01*
X130829346Y-85775357D01*
X130992681Y-85824904D01*
X131107577Y-85859757D01*
X131363988Y-85996812D01*
X131588739Y-86181261D01*
X131773188Y-86406012D01*
X131910243Y-86662423D01*
X131910244Y-86662427D01*
X131994643Y-86940654D01*
X132023141Y-87230000D01*
X131994643Y-87519346D01*
X131945096Y-87682681D01*
X131910243Y-87797577D01*
X131773188Y-88053988D01*
X131588739Y-88278739D01*
X131363988Y-88463188D01*
X131107577Y-88600243D01*
X130992681Y-88635096D01*
X130829346Y-88684643D01*
X130757065Y-88691762D01*
X130612506Y-88706000D01*
X128467494Y-88706000D01*
X128322935Y-88691762D01*
X128250654Y-88684643D01*
X128087319Y-88635096D01*
X127972423Y-88600243D01*
X127716012Y-88463188D01*
X127491261Y-88278739D01*
X127306812Y-88053988D01*
X127169757Y-87797577D01*
X127134904Y-87682681D01*
X127085357Y-87519346D01*
X127056859Y-87230000D01*
X127085357Y-86940654D01*
X127169756Y-86662427D01*
X127169757Y-86662423D01*
X127306812Y-86406012D01*
X127491261Y-86181261D01*
X127716012Y-85996812D01*
X127972423Y-85859757D01*
X128087319Y-85824904D01*
X128250654Y-85775357D01*
X128322935Y-85768238D01*
X128467494Y-85754000D01*
X130612506Y-85754000D01*
X130757065Y-85768238D01*
X130757065Y-85768238D01*
G37*
G36*
X85051091Y-82663085D02*
G01*
X85085069Y-82673393D01*
X85116390Y-82690134D01*
X85143839Y-82712661D01*
X85166366Y-82740110D01*
X85183107Y-82771431D01*
X85193415Y-82805409D01*
X85197500Y-82846890D01*
X85197500Y-83523110D01*
X85193415Y-83564591D01*
X85183107Y-83598569D01*
X85166366Y-83629890D01*
X85143839Y-83657339D01*
X85116390Y-83679866D01*
X85085069Y-83696607D01*
X85051091Y-83706915D01*
X85009610Y-83711000D01*
X84408390Y-83711000D01*
X84366909Y-83706915D01*
X84332931Y-83696607D01*
X84301610Y-83679866D01*
X84274161Y-83657339D01*
X84251634Y-83629890D01*
X84234893Y-83598569D01*
X84224585Y-83564591D01*
X84220500Y-83523110D01*
X84220500Y-82846890D01*
X84224585Y-82805409D01*
X84234893Y-82771431D01*
X84251634Y-82740110D01*
X84274161Y-82712661D01*
X84301610Y-82690134D01*
X84332931Y-82673393D01*
X84366909Y-82663085D01*
X84408390Y-82659000D01*
X85009610Y-82659000D01*
X85051091Y-82663085D01*
X85051091Y-82663085D01*
G37*
G36*
X81553499Y-82663445D02*
G01*
X81590995Y-82674820D01*
X81625554Y-82693292D01*
X81655847Y-82718153D01*
X81680708Y-82748446D01*
X81699180Y-82783005D01*
X81710555Y-82820501D01*
X81715000Y-82865638D01*
X81715000Y-83504362D01*
X81710555Y-83549499D01*
X81699180Y-83586995D01*
X81680708Y-83621554D01*
X81655847Y-83651847D01*
X81625554Y-83676708D01*
X81590995Y-83695180D01*
X81553499Y-83706555D01*
X81508362Y-83711000D01*
X80769638Y-83711000D01*
X80724501Y-83706555D01*
X80687005Y-83695180D01*
X80652446Y-83676708D01*
X80622153Y-83651847D01*
X80597292Y-83621554D01*
X80578820Y-83586995D01*
X80567445Y-83549499D01*
X80563000Y-83504362D01*
X80563000Y-82865638D01*
X80567445Y-82820501D01*
X80578820Y-82783005D01*
X80597292Y-82748446D01*
X80622153Y-82718153D01*
X80652446Y-82693292D01*
X80687005Y-82674820D01*
X80724501Y-82663445D01*
X80769638Y-82659000D01*
X81508362Y-82659000D01*
X81553499Y-82663445D01*
X81553499Y-82663445D01*
G37*
G36*
X83476091Y-82663085D02*
G01*
X83510069Y-82673393D01*
X83541390Y-82690134D01*
X83568839Y-82712661D01*
X83591366Y-82740110D01*
X83608107Y-82771431D01*
X83618415Y-82805409D01*
X83622500Y-82846890D01*
X83622500Y-83523110D01*
X83618415Y-83564591D01*
X83608107Y-83598569D01*
X83591366Y-83629890D01*
X83568839Y-83657339D01*
X83541390Y-83679866D01*
X83510069Y-83696607D01*
X83476091Y-83706915D01*
X83434610Y-83711000D01*
X82833390Y-83711000D01*
X82791909Y-83706915D01*
X82757931Y-83696607D01*
X82726610Y-83679866D01*
X82699161Y-83657339D01*
X82676634Y-83629890D01*
X82659893Y-83598569D01*
X82649585Y-83564591D01*
X82645500Y-83523110D01*
X82645500Y-82846890D01*
X82649585Y-82805409D01*
X82659893Y-82771431D01*
X82676634Y-82740110D01*
X82699161Y-82712661D01*
X82726610Y-82690134D01*
X82757931Y-82673393D01*
X82791909Y-82663085D01*
X82833390Y-82659000D01*
X83434610Y-82659000D01*
X83476091Y-82663085D01*
X83476091Y-82663085D01*
G37*
G36*
X79803499Y-82663445D02*
G01*
X79840995Y-82674820D01*
X79875554Y-82693292D01*
X79905847Y-82718153D01*
X79930708Y-82748446D01*
X79949180Y-82783005D01*
X79960555Y-82820501D01*
X79965000Y-82865638D01*
X79965000Y-83504362D01*
X79960555Y-83549499D01*
X79949180Y-83586995D01*
X79930708Y-83621554D01*
X79905847Y-83651847D01*
X79875554Y-83676708D01*
X79840995Y-83695180D01*
X79803499Y-83706555D01*
X79758362Y-83711000D01*
X79019638Y-83711000D01*
X78974501Y-83706555D01*
X78937005Y-83695180D01*
X78902446Y-83676708D01*
X78872153Y-83651847D01*
X78847292Y-83621554D01*
X78828820Y-83586995D01*
X78817445Y-83549499D01*
X78813000Y-83504362D01*
X78813000Y-82865638D01*
X78817445Y-82820501D01*
X78828820Y-82783005D01*
X78847292Y-82748446D01*
X78872153Y-82718153D01*
X78902446Y-82693292D01*
X78937005Y-82674820D01*
X78974501Y-82663445D01*
X79019638Y-82659000D01*
X79758362Y-82659000D01*
X79803499Y-82663445D01*
X79803499Y-82663445D01*
G37*
G36*
X75979499Y-82663445D02*
G01*
X76016995Y-82674820D01*
X76051554Y-82693292D01*
X76081847Y-82718153D01*
X76106708Y-82748446D01*
X76125180Y-82783005D01*
X76136555Y-82820501D01*
X76141000Y-82865638D01*
X76141000Y-83504362D01*
X76136555Y-83549499D01*
X76125180Y-83586995D01*
X76106708Y-83621554D01*
X76081847Y-83651847D01*
X76051554Y-83676708D01*
X76016995Y-83695180D01*
X75979499Y-83706555D01*
X75934362Y-83711000D01*
X75195638Y-83711000D01*
X75150501Y-83706555D01*
X75113005Y-83695180D01*
X75078446Y-83676708D01*
X75048153Y-83651847D01*
X75023292Y-83621554D01*
X75004820Y-83586995D01*
X74993445Y-83549499D01*
X74989000Y-83504362D01*
X74989000Y-82865638D01*
X74993445Y-82820501D01*
X75004820Y-82783005D01*
X75023292Y-82748446D01*
X75048153Y-82718153D01*
X75078446Y-82693292D01*
X75113005Y-82674820D01*
X75150501Y-82663445D01*
X75195638Y-82659000D01*
X75934362Y-82659000D01*
X75979499Y-82663445D01*
X75979499Y-82663445D01*
G37*
G36*
X74229499Y-82663445D02*
G01*
X74266995Y-82674820D01*
X74301554Y-82693292D01*
X74331847Y-82718153D01*
X74356708Y-82748446D01*
X74375180Y-82783005D01*
X74386555Y-82820501D01*
X74391000Y-82865638D01*
X74391000Y-83504362D01*
X74386555Y-83549499D01*
X74375180Y-83586995D01*
X74356708Y-83621554D01*
X74331847Y-83651847D01*
X74301554Y-83676708D01*
X74266995Y-83695180D01*
X74229499Y-83706555D01*
X74184362Y-83711000D01*
X73445638Y-83711000D01*
X73400501Y-83706555D01*
X73363005Y-83695180D01*
X73328446Y-83676708D01*
X73298153Y-83651847D01*
X73273292Y-83621554D01*
X73254820Y-83586995D01*
X73243445Y-83549499D01*
X73239000Y-83504362D01*
X73239000Y-82865638D01*
X73243445Y-82820501D01*
X73254820Y-82783005D01*
X73273292Y-82748446D01*
X73298153Y-82718153D01*
X73328446Y-82693292D01*
X73363005Y-82674820D01*
X73400501Y-82663445D01*
X73445638Y-82659000D01*
X74184362Y-82659000D01*
X74229499Y-82663445D01*
X74229499Y-82663445D01*
G37*
G36*
X70573091Y-82663085D02*
G01*
X70607069Y-82673393D01*
X70638390Y-82690134D01*
X70665839Y-82712661D01*
X70688366Y-82740110D01*
X70705107Y-82771431D01*
X70715415Y-82805409D01*
X70719500Y-82846890D01*
X70719500Y-83523110D01*
X70715415Y-83564591D01*
X70705107Y-83598569D01*
X70688366Y-83629890D01*
X70665839Y-83657339D01*
X70638390Y-83679866D01*
X70607069Y-83696607D01*
X70573091Y-83706915D01*
X70531610Y-83711000D01*
X69930390Y-83711000D01*
X69888909Y-83706915D01*
X69854931Y-83696607D01*
X69823610Y-83679866D01*
X69796161Y-83657339D01*
X69773634Y-83629890D01*
X69756893Y-83598569D01*
X69746585Y-83564591D01*
X69742500Y-83523110D01*
X69742500Y-82846890D01*
X69746585Y-82805409D01*
X69756893Y-82771431D01*
X69773634Y-82740110D01*
X69796161Y-82712661D01*
X69823610Y-82690134D01*
X69854931Y-82673393D01*
X69888909Y-82663085D01*
X69930390Y-82659000D01*
X70531610Y-82659000D01*
X70573091Y-82663085D01*
X70573091Y-82663085D01*
G37*
G36*
X72148091Y-82663085D02*
G01*
X72182069Y-82673393D01*
X72213390Y-82690134D01*
X72240839Y-82712661D01*
X72263366Y-82740110D01*
X72280107Y-82771431D01*
X72290415Y-82805409D01*
X72294500Y-82846890D01*
X72294500Y-83523110D01*
X72290415Y-83564591D01*
X72280107Y-83598569D01*
X72263366Y-83629890D01*
X72240839Y-83657339D01*
X72213390Y-83679866D01*
X72182069Y-83696607D01*
X72148091Y-83706915D01*
X72106610Y-83711000D01*
X71505390Y-83711000D01*
X71463909Y-83706915D01*
X71429931Y-83696607D01*
X71398610Y-83679866D01*
X71371161Y-83657339D01*
X71348634Y-83629890D01*
X71331893Y-83598569D01*
X71321585Y-83564591D01*
X71317500Y-83523110D01*
X71317500Y-82846890D01*
X71321585Y-82805409D01*
X71331893Y-82771431D01*
X71348634Y-82740110D01*
X71371161Y-82712661D01*
X71398610Y-82690134D01*
X71429931Y-82673393D01*
X71463909Y-82663085D01*
X71505390Y-82659000D01*
X72106610Y-82659000D01*
X72148091Y-82663085D01*
X72148091Y-82663085D01*
G37*
M02*
