G04 #@! TF.GenerationSoftware,KiCad,Pcbnew,5.1.4*
G04 #@! TF.CreationDate,2019-09-29T22:21:46-04:00*
G04 #@! TF.ProjectId,power_supply,706f7765-725f-4737-9570-706c792e6b69,1*
G04 #@! TF.SameCoordinates,Original*
G04 #@! TF.FileFunction,Copper,L1,Top*
G04 #@! TF.FilePolarity,Positive*
%FSLAX46Y46*%
G04 Gerber Fmt 4.6, Leading zero omitted, Abs format (unit mm)*
G04 Created by KiCad (PCBNEW 5.1.4) date 2019-09-29 22:21:46*
%MOMM*%
%LPD*%
G04 APERTURE LIST*
%ADD10C,0.100000*%
%ADD11C,0.150000*%
%ADD12C,0.300000*%
%ADD13C,0.400000*%
%ADD14C,6.400000*%
%ADD15O,2.850000X4.850000*%
%ADD16O,4.850000X2.850000*%
%ADD17O,2.200000X1.740000*%
%ADD18C,1.740000*%
%ADD19C,0.950000*%
%ADD20C,1.150000*%
%ADD21C,1.200000*%
%ADD22R,1.200000X1.200000*%
%ADD23C,3.000000*%
%ADD24O,1.700000X1.700000*%
%ADD25R,1.700000X1.700000*%
%ADD26O,1.740000X2.200000*%
%ADD27O,1.905000X2.000000*%
%ADD28R,1.905000X2.000000*%
%ADD29R,2.500000X1.800000*%
%ADD30C,1.600000*%
%ADD31R,1.600000X1.600000*%
%ADD32C,2.700000*%
%ADD33O,2.000000X1.905000*%
%ADD34R,2.000000X1.905000*%
%ADD35C,1.425000*%
%ADD36C,0.875000*%
%ADD37R,1.800000X2.500000*%
%ADD38C,2.400000*%
%ADD39R,2.400000X2.400000*%
%ADD40C,1.000000*%
%ADD41C,1.625600*%
%ADD42C,0.508000*%
%ADD43C,0.406400*%
%ADD44C,1.016000*%
%ADD45C,0.250000*%
%ADD46C,0.254000*%
G04 APERTURE END LIST*
D10*
D11*
X159400000Y-171900000D02*
X159400000Y-203900000D01*
X267400000Y-203900000D01*
X267400000Y-171900000D01*
X159400000Y-171900000D01*
D10*
D11*
X10000000Y-10000000D02*
X10000000Y-205900000D01*
X269400000Y-205900000D01*
X269400000Y-10000000D01*
X10000000Y-10000000D01*
D10*
D11*
X12000000Y-12000000D02*
X12000000Y-203900000D01*
X267400000Y-203900000D01*
X267400000Y-12000000D01*
X12000000Y-12000000D01*
D10*
D11*
X60000000Y-12000000D02*
X60000000Y-10000000D01*
D10*
D11*
X110000000Y-12000000D02*
X110000000Y-10000000D01*
D10*
D11*
X160000000Y-12000000D02*
X160000000Y-10000000D01*
D10*
D11*
X210000000Y-12000000D02*
X210000000Y-10000000D01*
D10*
D11*
X260000000Y-12000000D02*
X260000000Y-10000000D01*
D10*
D11*
X36065476Y-11588095D02*
X35322619Y-11588095D01*
X35694047Y-11588095D02*
X35694047Y-10288095D01*
X35570238Y-10473809D01*
X35446428Y-10597619D01*
X35322619Y-10659523D01*
D10*
D11*
X85322619Y-10411904D02*
X85384523Y-10350000D01*
X85508333Y-10288095D01*
X85817857Y-10288095D01*
X85941666Y-10350000D01*
X86003571Y-10411904D01*
X86065476Y-10535714D01*
X86065476Y-10659523D01*
X86003571Y-10845238D01*
X85260714Y-11588095D01*
X86065476Y-11588095D01*
D10*
D11*
X135260714Y-10288095D02*
X136065476Y-10288095D01*
X135632142Y-10783333D01*
X135817857Y-10783333D01*
X135941666Y-10845238D01*
X136003571Y-10907142D01*
X136065476Y-11030952D01*
X136065476Y-11340476D01*
X136003571Y-11464285D01*
X135941666Y-11526190D01*
X135817857Y-11588095D01*
X135446428Y-11588095D01*
X135322619Y-11526190D01*
X135260714Y-11464285D01*
D10*
D11*
X185941666Y-10721428D02*
X185941666Y-11588095D01*
X185632142Y-10226190D02*
X185322619Y-11154761D01*
X186127380Y-11154761D01*
D10*
D11*
X236003571Y-10288095D02*
X235384523Y-10288095D01*
X235322619Y-10907142D01*
X235384523Y-10845238D01*
X235508333Y-10783333D01*
X235817857Y-10783333D01*
X235941666Y-10845238D01*
X236003571Y-10907142D01*
X236065476Y-11030952D01*
X236065476Y-11340476D01*
X236003571Y-11464285D01*
X235941666Y-11526190D01*
X235817857Y-11588095D01*
X235508333Y-11588095D01*
X235384523Y-11526190D01*
X235322619Y-11464285D01*
D10*
D11*
X60000000Y-203900000D02*
X60000000Y-205900000D01*
D10*
D11*
X110000000Y-203900000D02*
X110000000Y-205900000D01*
D10*
D11*
X160000000Y-203900000D02*
X160000000Y-205900000D01*
D10*
D11*
X210000000Y-203900000D02*
X210000000Y-205900000D01*
D10*
D11*
X260000000Y-203900000D02*
X260000000Y-205900000D01*
D10*
D11*
X36065476Y-205488095D02*
X35322619Y-205488095D01*
X35694047Y-205488095D02*
X35694047Y-204188095D01*
X35570238Y-204373809D01*
X35446428Y-204497619D01*
X35322619Y-204559523D01*
D10*
D11*
X85322619Y-204311904D02*
X85384523Y-204250000D01*
X85508333Y-204188095D01*
X85817857Y-204188095D01*
X85941666Y-204250000D01*
X86003571Y-204311904D01*
X86065476Y-204435714D01*
X86065476Y-204559523D01*
X86003571Y-204745238D01*
X85260714Y-205488095D01*
X86065476Y-205488095D01*
D10*
D11*
X135260714Y-204188095D02*
X136065476Y-204188095D01*
X135632142Y-204683333D01*
X135817857Y-204683333D01*
X135941666Y-204745238D01*
X136003571Y-204807142D01*
X136065476Y-204930952D01*
X136065476Y-205240476D01*
X136003571Y-205364285D01*
X135941666Y-205426190D01*
X135817857Y-205488095D01*
X135446428Y-205488095D01*
X135322619Y-205426190D01*
X135260714Y-205364285D01*
D10*
D11*
X185941666Y-204621428D02*
X185941666Y-205488095D01*
X185632142Y-204126190D02*
X185322619Y-205054761D01*
X186127380Y-205054761D01*
D10*
D11*
X236003571Y-204188095D02*
X235384523Y-204188095D01*
X235322619Y-204807142D01*
X235384523Y-204745238D01*
X235508333Y-204683333D01*
X235817857Y-204683333D01*
X235941666Y-204745238D01*
X236003571Y-204807142D01*
X236065476Y-204930952D01*
X236065476Y-205240476D01*
X236003571Y-205364285D01*
X235941666Y-205426190D01*
X235817857Y-205488095D01*
X235508333Y-205488095D01*
X235384523Y-205426190D01*
X235322619Y-205364285D01*
D10*
D11*
X10000000Y-60000000D02*
X12000000Y-60000000D01*
D10*
D11*
X10000000Y-110000000D02*
X12000000Y-110000000D01*
D10*
D11*
X10000000Y-160000000D02*
X12000000Y-160000000D01*
D10*
D11*
X10690476Y-35216666D02*
X11309523Y-35216666D01*
X10566666Y-35588095D02*
X11000000Y-34288095D01*
X11433333Y-35588095D01*
D10*
D11*
X11092857Y-84907142D02*
X11278571Y-84969047D01*
X11340476Y-85030952D01*
X11402380Y-85154761D01*
X11402380Y-85340476D01*
X11340476Y-85464285D01*
X11278571Y-85526190D01*
X11154761Y-85588095D01*
X10659523Y-85588095D01*
X10659523Y-84288095D01*
X11092857Y-84288095D01*
X11216666Y-84350000D01*
X11278571Y-84411904D01*
X11340476Y-84535714D01*
X11340476Y-84659523D01*
X11278571Y-84783333D01*
X11216666Y-84845238D01*
X11092857Y-84907142D01*
X10659523Y-84907142D01*
D10*
D11*
X11402380Y-135464285D02*
X11340476Y-135526190D01*
X11154761Y-135588095D01*
X11030952Y-135588095D01*
X10845238Y-135526190D01*
X10721428Y-135402380D01*
X10659523Y-135278571D01*
X10597619Y-135030952D01*
X10597619Y-134845238D01*
X10659523Y-134597619D01*
X10721428Y-134473809D01*
X10845238Y-134350000D01*
X11030952Y-134288095D01*
X11154761Y-134288095D01*
X11340476Y-134350000D01*
X11402380Y-134411904D01*
D10*
D11*
X10659523Y-185588095D02*
X10659523Y-184288095D01*
X10969047Y-184288095D01*
X11154761Y-184350000D01*
X11278571Y-184473809D01*
X11340476Y-184597619D01*
X11402380Y-184845238D01*
X11402380Y-185030952D01*
X11340476Y-185278571D01*
X11278571Y-185402380D01*
X11154761Y-185526190D01*
X10969047Y-185588095D01*
X10659523Y-185588095D01*
D10*
D11*
X269400000Y-60000000D02*
X267400000Y-60000000D01*
D10*
D11*
X269400000Y-110000000D02*
X267400000Y-110000000D01*
D10*
D11*
X269400000Y-160000000D02*
X267400000Y-160000000D01*
D10*
D11*
X268090476Y-35216666D02*
X268709523Y-35216666D01*
X267966666Y-35588095D02*
X268400000Y-34288095D01*
X268833333Y-35588095D01*
D10*
D11*
X268492857Y-84907142D02*
X268678571Y-84969047D01*
X268740476Y-85030952D01*
X268802380Y-85154761D01*
X268802380Y-85340476D01*
X268740476Y-85464285D01*
X268678571Y-85526190D01*
X268554761Y-85588095D01*
X268059523Y-85588095D01*
X268059523Y-84288095D01*
X268492857Y-84288095D01*
X268616666Y-84350000D01*
X268678571Y-84411904D01*
X268740476Y-84535714D01*
X268740476Y-84659523D01*
X268678571Y-84783333D01*
X268616666Y-84845238D01*
X268492857Y-84907142D01*
X268059523Y-84907142D01*
D10*
D11*
X268802380Y-135464285D02*
X268740476Y-135526190D01*
X268554761Y-135588095D01*
X268430952Y-135588095D01*
X268245238Y-135526190D01*
X268121428Y-135402380D01*
X268059523Y-135278571D01*
X267997619Y-135030952D01*
X267997619Y-134845238D01*
X268059523Y-134597619D01*
X268121428Y-134473809D01*
X268245238Y-134350000D01*
X268430952Y-134288095D01*
X268554761Y-134288095D01*
X268740476Y-134350000D01*
X268802380Y-134411904D01*
D10*
D11*
X268059523Y-185588095D02*
X268059523Y-184288095D01*
X268369047Y-184288095D01*
X268554761Y-184350000D01*
X268678571Y-184473809D01*
X268740476Y-184597619D01*
X268802380Y-184845238D01*
X268802380Y-185030952D01*
X268740476Y-185278571D01*
X268678571Y-185402380D01*
X268554761Y-185526190D01*
X268369047Y-185588095D01*
X268059523Y-185588095D01*
D10*
D11*
X182832142Y-199678571D02*
X182832142Y-198178571D01*
X183189285Y-198178571D01*
X183403571Y-198250000D01*
X183546428Y-198392857D01*
X183617857Y-198535714D01*
X183689285Y-198821428D01*
X183689285Y-199035714D01*
X183617857Y-199321428D01*
X183546428Y-199464285D01*
X183403571Y-199607142D01*
X183189285Y-199678571D01*
X182832142Y-199678571D01*
X184975000Y-199678571D02*
X184975000Y-198892857D01*
X184903571Y-198750000D01*
X184760714Y-198678571D01*
X184475000Y-198678571D01*
X184332142Y-198750000D01*
X184975000Y-199607142D02*
X184832142Y-199678571D01*
X184475000Y-199678571D01*
X184332142Y-199607142D01*
X184260714Y-199464285D01*
X184260714Y-199321428D01*
X184332142Y-199178571D01*
X184475000Y-199107142D01*
X184832142Y-199107142D01*
X184975000Y-199035714D01*
X185475000Y-198678571D02*
X186046428Y-198678571D01*
X185689285Y-198178571D02*
X185689285Y-199464285D01*
X185760714Y-199607142D01*
X185903571Y-199678571D01*
X186046428Y-199678571D01*
X187117857Y-199607142D02*
X186975000Y-199678571D01*
X186689285Y-199678571D01*
X186546428Y-199607142D01*
X186475000Y-199464285D01*
X186475000Y-198892857D01*
X186546428Y-198750000D01*
X186689285Y-198678571D01*
X186975000Y-198678571D01*
X187117857Y-198750000D01*
X187189285Y-198892857D01*
X187189285Y-199035714D01*
X186475000Y-199178571D01*
X187832142Y-199535714D02*
X187903571Y-199607142D01*
X187832142Y-199678571D01*
X187760714Y-199607142D01*
X187832142Y-199535714D01*
X187832142Y-199678571D01*
X187832142Y-198750000D02*
X187903571Y-198821428D01*
X187832142Y-198892857D01*
X187760714Y-198821428D01*
X187832142Y-198750000D01*
X187832142Y-198892857D01*
X189617857Y-198321428D02*
X189689285Y-198250000D01*
X189832142Y-198178571D01*
X190189285Y-198178571D01*
X190332142Y-198250000D01*
X190403571Y-198321428D01*
X190475000Y-198464285D01*
X190475000Y-198607142D01*
X190403571Y-198821428D01*
X189546428Y-199678571D01*
X190475000Y-199678571D01*
X191403571Y-198178571D02*
X191546428Y-198178571D01*
X191689285Y-198250000D01*
X191760714Y-198321428D01*
X191832142Y-198464285D01*
X191903571Y-198750000D01*
X191903571Y-199107142D01*
X191832142Y-199392857D01*
X191760714Y-199535714D01*
X191689285Y-199607142D01*
X191546428Y-199678571D01*
X191403571Y-199678571D01*
X191260714Y-199607142D01*
X191189285Y-199535714D01*
X191117857Y-199392857D01*
X191046428Y-199107142D01*
X191046428Y-198750000D01*
X191117857Y-198464285D01*
X191189285Y-198321428D01*
X191260714Y-198250000D01*
X191403571Y-198178571D01*
X193332142Y-199678571D02*
X192475000Y-199678571D01*
X192903571Y-199678571D02*
X192903571Y-198178571D01*
X192760714Y-198392857D01*
X192617857Y-198535714D01*
X192475000Y-198607142D01*
X194046428Y-199678571D02*
X194332142Y-199678571D01*
X194475000Y-199607142D01*
X194546428Y-199535714D01*
X194689285Y-199321428D01*
X194760714Y-199035714D01*
X194760714Y-198464285D01*
X194689285Y-198321428D01*
X194617857Y-198250000D01*
X194475000Y-198178571D01*
X194189285Y-198178571D01*
X194046428Y-198250000D01*
X193975000Y-198321428D01*
X193903571Y-198464285D01*
X193903571Y-198821428D01*
X193975000Y-198964285D01*
X194046428Y-199035714D01*
X194189285Y-199107142D01*
X194475000Y-199107142D01*
X194617857Y-199035714D01*
X194689285Y-198964285D01*
X194760714Y-198821428D01*
X195403571Y-199107142D02*
X196546428Y-199107142D01*
X197546428Y-198178571D02*
X197689285Y-198178571D01*
X197832142Y-198250000D01*
X197903571Y-198321428D01*
X197975000Y-198464285D01*
X198046428Y-198750000D01*
X198046428Y-199107142D01*
X197975000Y-199392857D01*
X197903571Y-199535714D01*
X197832142Y-199607142D01*
X197689285Y-199678571D01*
X197546428Y-199678571D01*
X197403571Y-199607142D01*
X197332142Y-199535714D01*
X197260714Y-199392857D01*
X197189285Y-199107142D01*
X197189285Y-198750000D01*
X197260714Y-198464285D01*
X197332142Y-198321428D01*
X197403571Y-198250000D01*
X197546428Y-198178571D01*
X198760714Y-199678571D02*
X199046428Y-199678571D01*
X199189285Y-199607142D01*
X199260714Y-199535714D01*
X199403571Y-199321428D01*
X199475000Y-199035714D01*
X199475000Y-198464285D01*
X199403571Y-198321428D01*
X199332142Y-198250000D01*
X199189285Y-198178571D01*
X198903571Y-198178571D01*
X198760714Y-198250000D01*
X198689285Y-198321428D01*
X198617857Y-198464285D01*
X198617857Y-198821428D01*
X198689285Y-198964285D01*
X198760714Y-199035714D01*
X198903571Y-199107142D01*
X199189285Y-199107142D01*
X199332142Y-199035714D01*
X199403571Y-198964285D01*
X199475000Y-198821428D01*
X200117857Y-199107142D02*
X201260714Y-199107142D01*
X201903571Y-198321428D02*
X201975000Y-198250000D01*
X202117857Y-198178571D01*
X202475000Y-198178571D01*
X202617857Y-198250000D01*
X202689285Y-198321428D01*
X202760714Y-198464285D01*
X202760714Y-198607142D01*
X202689285Y-198821428D01*
X201832142Y-199678571D01*
X202760714Y-199678571D01*
X203617857Y-198821428D02*
X203475000Y-198750000D01*
X203403571Y-198678571D01*
X203332142Y-198535714D01*
X203332142Y-198464285D01*
X203403571Y-198321428D01*
X203475000Y-198250000D01*
X203617857Y-198178571D01*
X203903571Y-198178571D01*
X204046428Y-198250000D01*
X204117857Y-198321428D01*
X204189285Y-198464285D01*
X204189285Y-198535714D01*
X204117857Y-198678571D01*
X204046428Y-198750000D01*
X203903571Y-198821428D01*
X203617857Y-198821428D01*
X203475000Y-198892857D01*
X203403571Y-198964285D01*
X203332142Y-199107142D01*
X203332142Y-199392857D01*
X203403571Y-199535714D01*
X203475000Y-199607142D01*
X203617857Y-199678571D01*
X203903571Y-199678571D01*
X204046428Y-199607142D01*
X204117857Y-199535714D01*
X204189285Y-199392857D01*
X204189285Y-199107142D01*
X204117857Y-198964285D01*
X204046428Y-198892857D01*
X203903571Y-198821428D01*
D10*
D11*
X159400000Y-200400000D02*
X267400000Y-200400000D01*
D10*
D11*
X160832142Y-202478571D02*
X160832142Y-200978571D01*
X161689285Y-202478571D02*
X161046428Y-201621428D01*
X161689285Y-200978571D02*
X160832142Y-201835714D01*
X162332142Y-202478571D02*
X162332142Y-201478571D01*
X162332142Y-200978571D02*
X162260714Y-201050000D01*
X162332142Y-201121428D01*
X162403571Y-201050000D01*
X162332142Y-200978571D01*
X162332142Y-201121428D01*
X163903571Y-202335714D02*
X163832142Y-202407142D01*
X163617857Y-202478571D01*
X163475000Y-202478571D01*
X163260714Y-202407142D01*
X163117857Y-202264285D01*
X163046428Y-202121428D01*
X162975000Y-201835714D01*
X162975000Y-201621428D01*
X163046428Y-201335714D01*
X163117857Y-201192857D01*
X163260714Y-201050000D01*
X163475000Y-200978571D01*
X163617857Y-200978571D01*
X163832142Y-201050000D01*
X163903571Y-201121428D01*
X165189285Y-202478571D02*
X165189285Y-201692857D01*
X165117857Y-201550000D01*
X164975000Y-201478571D01*
X164689285Y-201478571D01*
X164546428Y-201550000D01*
X165189285Y-202407142D02*
X165046428Y-202478571D01*
X164689285Y-202478571D01*
X164546428Y-202407142D01*
X164475000Y-202264285D01*
X164475000Y-202121428D01*
X164546428Y-201978571D01*
X164689285Y-201907142D01*
X165046428Y-201907142D01*
X165189285Y-201835714D01*
X166546428Y-202478571D02*
X166546428Y-200978571D01*
X166546428Y-202407142D02*
X166403571Y-202478571D01*
X166117857Y-202478571D01*
X165975000Y-202407142D01*
X165903571Y-202335714D01*
X165832142Y-202192857D01*
X165832142Y-201764285D01*
X165903571Y-201621428D01*
X165975000Y-201550000D01*
X166117857Y-201478571D01*
X166403571Y-201478571D01*
X166546428Y-201550000D01*
X168403571Y-201692857D02*
X168903571Y-201692857D01*
X169117857Y-202478571D02*
X168403571Y-202478571D01*
X168403571Y-200978571D01*
X169117857Y-200978571D01*
X169760714Y-202335714D02*
X169832142Y-202407142D01*
X169760714Y-202478571D01*
X169689285Y-202407142D01*
X169760714Y-202335714D01*
X169760714Y-202478571D01*
X170475000Y-202478571D02*
X170475000Y-200978571D01*
X170832142Y-200978571D01*
X171046428Y-201050000D01*
X171189285Y-201192857D01*
X171260714Y-201335714D01*
X171332142Y-201621428D01*
X171332142Y-201835714D01*
X171260714Y-202121428D01*
X171189285Y-202264285D01*
X171046428Y-202407142D01*
X170832142Y-202478571D01*
X170475000Y-202478571D01*
X171975000Y-202335714D02*
X172046428Y-202407142D01*
X171975000Y-202478571D01*
X171903571Y-202407142D01*
X171975000Y-202335714D01*
X171975000Y-202478571D01*
X172617857Y-202050000D02*
X173332142Y-202050000D01*
X172475000Y-202478571D02*
X172975000Y-200978571D01*
X173475000Y-202478571D01*
X173975000Y-202335714D02*
X174046428Y-202407142D01*
X173975000Y-202478571D01*
X173903571Y-202407142D01*
X173975000Y-202335714D01*
X173975000Y-202478571D01*
X176975000Y-202478571D02*
X176975000Y-200978571D01*
X177117857Y-201907142D02*
X177546428Y-202478571D01*
X177546428Y-201478571D02*
X176975000Y-202050000D01*
X178189285Y-202478571D02*
X178189285Y-201478571D01*
X178189285Y-200978571D02*
X178117857Y-201050000D01*
X178189285Y-201121428D01*
X178260714Y-201050000D01*
X178189285Y-200978571D01*
X178189285Y-201121428D01*
X179546428Y-202407142D02*
X179403571Y-202478571D01*
X179117857Y-202478571D01*
X178975000Y-202407142D01*
X178903571Y-202335714D01*
X178832142Y-202192857D01*
X178832142Y-201764285D01*
X178903571Y-201621428D01*
X178975000Y-201550000D01*
X179117857Y-201478571D01*
X179403571Y-201478571D01*
X179546428Y-201550000D01*
X180832142Y-202478571D02*
X180832142Y-201692857D01*
X180760714Y-201550000D01*
X180617857Y-201478571D01*
X180332142Y-201478571D01*
X180189285Y-201550000D01*
X180832142Y-202407142D02*
X180689285Y-202478571D01*
X180332142Y-202478571D01*
X180189285Y-202407142D01*
X180117857Y-202264285D01*
X180117857Y-202121428D01*
X180189285Y-201978571D01*
X180332142Y-201907142D01*
X180689285Y-201907142D01*
X180832142Y-201835714D01*
X182189285Y-202478571D02*
X182189285Y-200978571D01*
X182189285Y-202407142D02*
X182046428Y-202478571D01*
X181760714Y-202478571D01*
X181617857Y-202407142D01*
X181546428Y-202335714D01*
X181475000Y-202192857D01*
X181475000Y-201764285D01*
X181546428Y-201621428D01*
X181617857Y-201550000D01*
X181760714Y-201478571D01*
X182046428Y-201478571D01*
X182189285Y-201550000D01*
X184760714Y-200978571D02*
X184046428Y-200978571D01*
X183975000Y-201692857D01*
X184046428Y-201621428D01*
X184189285Y-201550000D01*
X184546428Y-201550000D01*
X184689285Y-201621428D01*
X184760714Y-201692857D01*
X184832142Y-201835714D01*
X184832142Y-202192857D01*
X184760714Y-202335714D01*
X184689285Y-202407142D01*
X184546428Y-202478571D01*
X184189285Y-202478571D01*
X184046428Y-202407142D01*
X183975000Y-202335714D01*
X185475000Y-202335714D02*
X185546428Y-202407142D01*
X185475000Y-202478571D01*
X185403571Y-202407142D01*
X185475000Y-202335714D01*
X185475000Y-202478571D01*
X186975000Y-202478571D02*
X186117857Y-202478571D01*
X186546428Y-202478571D02*
X186546428Y-200978571D01*
X186403571Y-201192857D01*
X186260714Y-201335714D01*
X186117857Y-201407142D01*
X187617857Y-202335714D02*
X187689285Y-202407142D01*
X187617857Y-202478571D01*
X187546428Y-202407142D01*
X187617857Y-202335714D01*
X187617857Y-202478571D01*
X188975000Y-201478571D02*
X188975000Y-202478571D01*
X188617857Y-200907142D02*
X188260714Y-201978571D01*
X189189285Y-201978571D01*
D10*
D11*
X159400000Y-197400000D02*
X267400000Y-197400000D01*
D10*
D12*
X246809285Y-199678571D02*
X246309285Y-198964285D01*
X245952142Y-199678571D02*
X245952142Y-198178571D01*
X246523571Y-198178571D01*
X246666428Y-198250000D01*
X246737857Y-198321428D01*
X246809285Y-198464285D01*
X246809285Y-198678571D01*
X246737857Y-198821428D01*
X246666428Y-198892857D01*
X246523571Y-198964285D01*
X245952142Y-198964285D01*
X248023571Y-199607142D02*
X247880714Y-199678571D01*
X247595000Y-199678571D01*
X247452142Y-199607142D01*
X247380714Y-199464285D01*
X247380714Y-198892857D01*
X247452142Y-198750000D01*
X247595000Y-198678571D01*
X247880714Y-198678571D01*
X248023571Y-198750000D01*
X248095000Y-198892857D01*
X248095000Y-199035714D01*
X247380714Y-199178571D01*
X248595000Y-198678571D02*
X248952142Y-199678571D01*
X249309285Y-198678571D01*
X249880714Y-199535714D02*
X249952142Y-199607142D01*
X249880714Y-199678571D01*
X249809285Y-199607142D01*
X249880714Y-199535714D01*
X249880714Y-199678571D01*
X249880714Y-198750000D02*
X249952142Y-198821428D01*
X249880714Y-198892857D01*
X249809285Y-198821428D01*
X249880714Y-198750000D01*
X249880714Y-198892857D01*
X252523571Y-199678571D02*
X251666428Y-199678571D01*
X252095000Y-199678571D02*
X252095000Y-198178571D01*
X251952142Y-198392857D01*
X251809285Y-198535714D01*
X251666428Y-198607142D01*
D10*
D11*
X160760714Y-199607142D02*
X160975000Y-199678571D01*
X161332142Y-199678571D01*
X161475000Y-199607142D01*
X161546428Y-199535714D01*
X161617857Y-199392857D01*
X161617857Y-199250000D01*
X161546428Y-199107142D01*
X161475000Y-199035714D01*
X161332142Y-198964285D01*
X161046428Y-198892857D01*
X160903571Y-198821428D01*
X160832142Y-198750000D01*
X160760714Y-198607142D01*
X160760714Y-198464285D01*
X160832142Y-198321428D01*
X160903571Y-198250000D01*
X161046428Y-198178571D01*
X161403571Y-198178571D01*
X161617857Y-198250000D01*
X162260714Y-199678571D02*
X162260714Y-198678571D01*
X162260714Y-198178571D02*
X162189285Y-198250000D01*
X162260714Y-198321428D01*
X162332142Y-198250000D01*
X162260714Y-198178571D01*
X162260714Y-198321428D01*
X162832142Y-198678571D02*
X163617857Y-198678571D01*
X162832142Y-199678571D01*
X163617857Y-199678571D01*
X164760714Y-199607142D02*
X164617857Y-199678571D01*
X164332142Y-199678571D01*
X164189285Y-199607142D01*
X164117857Y-199464285D01*
X164117857Y-198892857D01*
X164189285Y-198750000D01*
X164332142Y-198678571D01*
X164617857Y-198678571D01*
X164760714Y-198750000D01*
X164832142Y-198892857D01*
X164832142Y-199035714D01*
X164117857Y-199178571D01*
X165475000Y-199535714D02*
X165546428Y-199607142D01*
X165475000Y-199678571D01*
X165403571Y-199607142D01*
X165475000Y-199535714D01*
X165475000Y-199678571D01*
X165475000Y-198750000D02*
X165546428Y-198821428D01*
X165475000Y-198892857D01*
X165403571Y-198821428D01*
X165475000Y-198750000D01*
X165475000Y-198892857D01*
X167260714Y-199250000D02*
X167975000Y-199250000D01*
X167117857Y-199678571D02*
X167617857Y-198178571D01*
X168117857Y-199678571D01*
D10*
D11*
X245832142Y-202478571D02*
X245832142Y-200978571D01*
X247189285Y-202478571D02*
X247189285Y-200978571D01*
X247189285Y-202407142D02*
X247046428Y-202478571D01*
X246760714Y-202478571D01*
X246617857Y-202407142D01*
X246546428Y-202335714D01*
X246475000Y-202192857D01*
X246475000Y-201764285D01*
X246546428Y-201621428D01*
X246617857Y-201550000D01*
X246760714Y-201478571D01*
X247046428Y-201478571D01*
X247189285Y-201550000D01*
X247903571Y-202335714D02*
X247975000Y-202407142D01*
X247903571Y-202478571D01*
X247832142Y-202407142D01*
X247903571Y-202335714D01*
X247903571Y-202478571D01*
X247903571Y-201550000D02*
X247975000Y-201621428D01*
X247903571Y-201692857D01*
X247832142Y-201621428D01*
X247903571Y-201550000D01*
X247903571Y-201692857D01*
X250546428Y-202478571D02*
X249689285Y-202478571D01*
X250117857Y-202478571D02*
X250117857Y-200978571D01*
X249975000Y-201192857D01*
X249832142Y-201335714D01*
X249689285Y-201407142D01*
X252260714Y-200907142D02*
X250975000Y-202835714D01*
X253546428Y-202478571D02*
X252689285Y-202478571D01*
X253117857Y-202478571D02*
X253117857Y-200978571D01*
X252975000Y-201192857D01*
X252832142Y-201335714D01*
X252689285Y-201407142D01*
D10*
D11*
X159400000Y-193400000D02*
X267400000Y-193400000D01*
D10*
D13*
X161112380Y-194104761D02*
X162255238Y-194104761D01*
X161433809Y-196104761D02*
X161683809Y-194104761D01*
X162671904Y-196104761D02*
X162838571Y-194771428D01*
X162921904Y-194104761D02*
X162814761Y-194200000D01*
X162898095Y-194295238D01*
X163005238Y-194200000D01*
X162921904Y-194104761D01*
X162898095Y-194295238D01*
X163505238Y-194771428D02*
X164267142Y-194771428D01*
X163874285Y-194104761D02*
X163660000Y-195819047D01*
X163731428Y-196009523D01*
X163910000Y-196104761D01*
X164100476Y-196104761D01*
X165052857Y-196104761D02*
X164874285Y-196009523D01*
X164802857Y-195819047D01*
X165017142Y-194104761D01*
X166588571Y-196009523D02*
X166386190Y-196104761D01*
X166005238Y-196104761D01*
X165826666Y-196009523D01*
X165755238Y-195819047D01*
X165850476Y-195057142D01*
X165969523Y-194866666D01*
X166171904Y-194771428D01*
X166552857Y-194771428D01*
X166731428Y-194866666D01*
X166802857Y-195057142D01*
X166779047Y-195247619D01*
X165802857Y-195438095D01*
X167552857Y-195914285D02*
X167636190Y-196009523D01*
X167529047Y-196104761D01*
X167445714Y-196009523D01*
X167552857Y-195914285D01*
X167529047Y-196104761D01*
X167683809Y-194866666D02*
X167767142Y-194961904D01*
X167660000Y-195057142D01*
X167576666Y-194961904D01*
X167683809Y-194866666D01*
X167660000Y-195057142D01*
X170005238Y-196104761D02*
X170255238Y-194104761D01*
X171017142Y-194104761D01*
X171195714Y-194200000D01*
X171279047Y-194295238D01*
X171350476Y-194485714D01*
X171314761Y-194771428D01*
X171195714Y-194961904D01*
X171088571Y-195057142D01*
X170886190Y-195152380D01*
X170124285Y-195152380D01*
X172290952Y-196104761D02*
X172112380Y-196009523D01*
X172029047Y-195914285D01*
X171957619Y-195723809D01*
X172029047Y-195152380D01*
X172148095Y-194961904D01*
X172255238Y-194866666D01*
X172457619Y-194771428D01*
X172743333Y-194771428D01*
X172921904Y-194866666D01*
X173005238Y-194961904D01*
X173076666Y-195152380D01*
X173005238Y-195723809D01*
X172886190Y-195914285D01*
X172779047Y-196009523D01*
X172576666Y-196104761D01*
X172290952Y-196104761D01*
X173790952Y-194771428D02*
X174005238Y-196104761D01*
X174505238Y-195152380D01*
X174767142Y-196104761D01*
X175314761Y-194771428D01*
X176683809Y-196009523D02*
X176481428Y-196104761D01*
X176100476Y-196104761D01*
X175921904Y-196009523D01*
X175850476Y-195819047D01*
X175945714Y-195057142D01*
X176064761Y-194866666D01*
X176267142Y-194771428D01*
X176648095Y-194771428D01*
X176826666Y-194866666D01*
X176898095Y-195057142D01*
X176874285Y-195247619D01*
X175898095Y-195438095D01*
X177624285Y-196104761D02*
X177790952Y-194771428D01*
X177743333Y-195152380D02*
X177862380Y-194961904D01*
X177969523Y-194866666D01*
X178171904Y-194771428D01*
X178362380Y-194771428D01*
X180302857Y-196009523D02*
X180576666Y-196104761D01*
X181052857Y-196104761D01*
X181255238Y-196009523D01*
X181362380Y-195914285D01*
X181481428Y-195723809D01*
X181505238Y-195533333D01*
X181433809Y-195342857D01*
X181350476Y-195247619D01*
X181171904Y-195152380D01*
X180802857Y-195057142D01*
X180624285Y-194961904D01*
X180540952Y-194866666D01*
X180469523Y-194676190D01*
X180493333Y-194485714D01*
X180612380Y-194295238D01*
X180719523Y-194200000D01*
X180921904Y-194104761D01*
X181398095Y-194104761D01*
X181671904Y-194200000D01*
X183314761Y-194771428D02*
X183148095Y-196104761D01*
X182457619Y-194771428D02*
X182326666Y-195819047D01*
X182398095Y-196009523D01*
X182576666Y-196104761D01*
X182862380Y-196104761D01*
X183064761Y-196009523D01*
X183171904Y-195914285D01*
X184267142Y-194771428D02*
X184017142Y-196771428D01*
X184255238Y-194866666D02*
X184457619Y-194771428D01*
X184838571Y-194771428D01*
X185017142Y-194866666D01*
X185100476Y-194961904D01*
X185171904Y-195152380D01*
X185100476Y-195723809D01*
X184981428Y-195914285D01*
X184874285Y-196009523D01*
X184671904Y-196104761D01*
X184290952Y-196104761D01*
X184112380Y-196009523D01*
X186076666Y-194771428D02*
X185826666Y-196771428D01*
X186064761Y-194866666D02*
X186267142Y-194771428D01*
X186648095Y-194771428D01*
X186826666Y-194866666D01*
X186910000Y-194961904D01*
X186981428Y-195152380D01*
X186910000Y-195723809D01*
X186790952Y-195914285D01*
X186683809Y-196009523D01*
X186481428Y-196104761D01*
X186100476Y-196104761D01*
X185921904Y-196009523D01*
X188005238Y-196104761D02*
X187826666Y-196009523D01*
X187755238Y-195819047D01*
X187969523Y-194104761D01*
X188743333Y-194771428D02*
X189052857Y-196104761D01*
X189695714Y-194771428D02*
X189052857Y-196104761D01*
X188802857Y-196580952D01*
X188695714Y-196676190D01*
X188493333Y-196771428D01*
D10*
D11*
X161332142Y-191492857D02*
X160832142Y-191492857D01*
X160832142Y-192278571D02*
X160832142Y-190778571D01*
X161546428Y-190778571D01*
X162117857Y-192278571D02*
X162117857Y-191278571D01*
X162117857Y-190778571D02*
X162046428Y-190850000D01*
X162117857Y-190921428D01*
X162189285Y-190850000D01*
X162117857Y-190778571D01*
X162117857Y-190921428D01*
X163046428Y-192278571D02*
X162903571Y-192207142D01*
X162832142Y-192064285D01*
X162832142Y-190778571D01*
X164189285Y-192207142D02*
X164046428Y-192278571D01*
X163760714Y-192278571D01*
X163617857Y-192207142D01*
X163546428Y-192064285D01*
X163546428Y-191492857D01*
X163617857Y-191350000D01*
X163760714Y-191278571D01*
X164046428Y-191278571D01*
X164189285Y-191350000D01*
X164260714Y-191492857D01*
X164260714Y-191635714D01*
X163546428Y-191778571D01*
X164903571Y-192135714D02*
X164975000Y-192207142D01*
X164903571Y-192278571D01*
X164832142Y-192207142D01*
X164903571Y-192135714D01*
X164903571Y-192278571D01*
X164903571Y-191350000D02*
X164975000Y-191421428D01*
X164903571Y-191492857D01*
X164832142Y-191421428D01*
X164903571Y-191350000D01*
X164903571Y-191492857D01*
X166760714Y-191278571D02*
X166760714Y-192778571D01*
X166760714Y-191350000D02*
X166903571Y-191278571D01*
X167189285Y-191278571D01*
X167332142Y-191350000D01*
X167403571Y-191421428D01*
X167475000Y-191564285D01*
X167475000Y-191992857D01*
X167403571Y-192135714D01*
X167332142Y-192207142D01*
X167189285Y-192278571D01*
X166903571Y-192278571D01*
X166760714Y-192207142D01*
X168332142Y-192278571D02*
X168189285Y-192207142D01*
X168117857Y-192135714D01*
X168046428Y-191992857D01*
X168046428Y-191564285D01*
X168117857Y-191421428D01*
X168189285Y-191350000D01*
X168332142Y-191278571D01*
X168546428Y-191278571D01*
X168689285Y-191350000D01*
X168760714Y-191421428D01*
X168832142Y-191564285D01*
X168832142Y-191992857D01*
X168760714Y-192135714D01*
X168689285Y-192207142D01*
X168546428Y-192278571D01*
X168332142Y-192278571D01*
X169332142Y-191278571D02*
X169617857Y-192278571D01*
X169903571Y-191564285D01*
X170189285Y-192278571D01*
X170475000Y-191278571D01*
X171617857Y-192207142D02*
X171475000Y-192278571D01*
X171189285Y-192278571D01*
X171046428Y-192207142D01*
X170975000Y-192064285D01*
X170975000Y-191492857D01*
X171046428Y-191350000D01*
X171189285Y-191278571D01*
X171475000Y-191278571D01*
X171617857Y-191350000D01*
X171689285Y-191492857D01*
X171689285Y-191635714D01*
X170975000Y-191778571D01*
X172332142Y-192278571D02*
X172332142Y-191278571D01*
X172332142Y-191564285D02*
X172403571Y-191421428D01*
X172475000Y-191350000D01*
X172617857Y-191278571D01*
X172760714Y-191278571D01*
X172903571Y-192421428D02*
X174046428Y-192421428D01*
X174332142Y-192207142D02*
X174475000Y-192278571D01*
X174760714Y-192278571D01*
X174903571Y-192207142D01*
X174975000Y-192064285D01*
X174975000Y-191992857D01*
X174903571Y-191850000D01*
X174760714Y-191778571D01*
X174546428Y-191778571D01*
X174403571Y-191707142D01*
X174332142Y-191564285D01*
X174332142Y-191492857D01*
X174403571Y-191350000D01*
X174546428Y-191278571D01*
X174760714Y-191278571D01*
X174903571Y-191350000D01*
X176260714Y-191278571D02*
X176260714Y-192278571D01*
X175617857Y-191278571D02*
X175617857Y-192064285D01*
X175689285Y-192207142D01*
X175832142Y-192278571D01*
X176046428Y-192278571D01*
X176189285Y-192207142D01*
X176260714Y-192135714D01*
X176975000Y-191278571D02*
X176975000Y-192778571D01*
X176975000Y-191350000D02*
X177117857Y-191278571D01*
X177403571Y-191278571D01*
X177546428Y-191350000D01*
X177617857Y-191421428D01*
X177689285Y-191564285D01*
X177689285Y-191992857D01*
X177617857Y-192135714D01*
X177546428Y-192207142D01*
X177403571Y-192278571D01*
X177117857Y-192278571D01*
X176975000Y-192207142D01*
X178332142Y-191278571D02*
X178332142Y-192778571D01*
X178332142Y-191350000D02*
X178475000Y-191278571D01*
X178760714Y-191278571D01*
X178903571Y-191350000D01*
X178975000Y-191421428D01*
X179046428Y-191564285D01*
X179046428Y-191992857D01*
X178975000Y-192135714D01*
X178903571Y-192207142D01*
X178760714Y-192278571D01*
X178475000Y-192278571D01*
X178332142Y-192207142D01*
X179903571Y-192278571D02*
X179760714Y-192207142D01*
X179689285Y-192064285D01*
X179689285Y-190778571D01*
X180332142Y-191278571D02*
X180689285Y-192278571D01*
X181046428Y-191278571D02*
X180689285Y-192278571D01*
X180546428Y-192635714D01*
X180475000Y-192707142D01*
X180332142Y-192778571D01*
X181617857Y-192135714D02*
X181689285Y-192207142D01*
X181617857Y-192278571D01*
X181546428Y-192207142D01*
X181617857Y-192135714D01*
X181617857Y-192278571D01*
X182332142Y-192278571D02*
X182332142Y-190778571D01*
X182475000Y-191707142D02*
X182903571Y-192278571D01*
X182903571Y-191278571D02*
X182332142Y-191850000D01*
X183546428Y-192278571D02*
X183546428Y-191278571D01*
X183546428Y-190778571D02*
X183475000Y-190850000D01*
X183546428Y-190921428D01*
X183617857Y-190850000D01*
X183546428Y-190778571D01*
X183546428Y-190921428D01*
X184903571Y-192207142D02*
X184760714Y-192278571D01*
X184475000Y-192278571D01*
X184332142Y-192207142D01*
X184260714Y-192135714D01*
X184189285Y-191992857D01*
X184189285Y-191564285D01*
X184260714Y-191421428D01*
X184332142Y-191350000D01*
X184475000Y-191278571D01*
X184760714Y-191278571D01*
X184903571Y-191350000D01*
X186189285Y-192278571D02*
X186189285Y-191492857D01*
X186117857Y-191350000D01*
X185975000Y-191278571D01*
X185689285Y-191278571D01*
X185546428Y-191350000D01*
X186189285Y-192207142D02*
X186046428Y-192278571D01*
X185689285Y-192278571D01*
X185546428Y-192207142D01*
X185475000Y-192064285D01*
X185475000Y-191921428D01*
X185546428Y-191778571D01*
X185689285Y-191707142D01*
X186046428Y-191707142D01*
X186189285Y-191635714D01*
X187546428Y-192278571D02*
X187546428Y-190778571D01*
X187546428Y-192207142D02*
X187403571Y-192278571D01*
X187117857Y-192278571D01*
X186975000Y-192207142D01*
X186903571Y-192135714D01*
X186832142Y-191992857D01*
X186832142Y-191564285D01*
X186903571Y-191421428D01*
X186975000Y-191350000D01*
X187117857Y-191278571D01*
X187403571Y-191278571D01*
X187546428Y-191350000D01*
X187903571Y-192421428D02*
X189046428Y-192421428D01*
X189403571Y-191278571D02*
X189403571Y-192778571D01*
X189403571Y-191350000D02*
X189546428Y-191278571D01*
X189832142Y-191278571D01*
X189975000Y-191350000D01*
X190046428Y-191421428D01*
X190117857Y-191564285D01*
X190117857Y-191992857D01*
X190046428Y-192135714D01*
X189975000Y-192207142D01*
X189832142Y-192278571D01*
X189546428Y-192278571D01*
X189403571Y-192207142D01*
X191403571Y-192207142D02*
X191260714Y-192278571D01*
X190975000Y-192278571D01*
X190832142Y-192207142D01*
X190760714Y-192135714D01*
X190689285Y-191992857D01*
X190689285Y-191564285D01*
X190760714Y-191421428D01*
X190832142Y-191350000D01*
X190975000Y-191278571D01*
X191260714Y-191278571D01*
X191403571Y-191350000D01*
X192046428Y-192278571D02*
X192046428Y-190778571D01*
X192046428Y-191350000D02*
X192189285Y-191278571D01*
X192475000Y-191278571D01*
X192617857Y-191350000D01*
X192689285Y-191421428D01*
X192760714Y-191564285D01*
X192760714Y-191992857D01*
X192689285Y-192135714D01*
X192617857Y-192207142D01*
X192475000Y-192278571D01*
X192189285Y-192278571D01*
X192046428Y-192207142D01*
D10*
D11*
X159400000Y-187400000D02*
X267400000Y-187400000D01*
D10*
D11*
X160760714Y-189507142D02*
X160975000Y-189578571D01*
X161332142Y-189578571D01*
X161475000Y-189507142D01*
X161546428Y-189435714D01*
X161617857Y-189292857D01*
X161617857Y-189150000D01*
X161546428Y-189007142D01*
X161475000Y-188935714D01*
X161332142Y-188864285D01*
X161046428Y-188792857D01*
X160903571Y-188721428D01*
X160832142Y-188650000D01*
X160760714Y-188507142D01*
X160760714Y-188364285D01*
X160832142Y-188221428D01*
X160903571Y-188150000D01*
X161046428Y-188078571D01*
X161403571Y-188078571D01*
X161617857Y-188150000D01*
X162260714Y-189578571D02*
X162260714Y-188078571D01*
X162903571Y-189578571D02*
X162903571Y-188792857D01*
X162832142Y-188650000D01*
X162689285Y-188578571D01*
X162475000Y-188578571D01*
X162332142Y-188650000D01*
X162260714Y-188721428D01*
X164189285Y-189507142D02*
X164046428Y-189578571D01*
X163760714Y-189578571D01*
X163617857Y-189507142D01*
X163546428Y-189364285D01*
X163546428Y-188792857D01*
X163617857Y-188650000D01*
X163760714Y-188578571D01*
X164046428Y-188578571D01*
X164189285Y-188650000D01*
X164260714Y-188792857D01*
X164260714Y-188935714D01*
X163546428Y-189078571D01*
X165475000Y-189507142D02*
X165332142Y-189578571D01*
X165046428Y-189578571D01*
X164903571Y-189507142D01*
X164832142Y-189364285D01*
X164832142Y-188792857D01*
X164903571Y-188650000D01*
X165046428Y-188578571D01*
X165332142Y-188578571D01*
X165475000Y-188650000D01*
X165546428Y-188792857D01*
X165546428Y-188935714D01*
X164832142Y-189078571D01*
X165975000Y-188578571D02*
X166546428Y-188578571D01*
X166189285Y-188078571D02*
X166189285Y-189364285D01*
X166260714Y-189507142D01*
X166403571Y-189578571D01*
X166546428Y-189578571D01*
X167046428Y-189435714D02*
X167117857Y-189507142D01*
X167046428Y-189578571D01*
X166975000Y-189507142D01*
X167046428Y-189435714D01*
X167046428Y-189578571D01*
X167046428Y-188650000D02*
X167117857Y-188721428D01*
X167046428Y-188792857D01*
X166975000Y-188721428D01*
X167046428Y-188650000D01*
X167046428Y-188792857D01*
D10*
D12*
X161737857Y-185150000D02*
X161595000Y-185078571D01*
X161380714Y-185078571D01*
X161166428Y-185150000D01*
X161023571Y-185292857D01*
X160952142Y-185435714D01*
X160880714Y-185721428D01*
X160880714Y-185935714D01*
X160952142Y-186221428D01*
X161023571Y-186364285D01*
X161166428Y-186507142D01*
X161380714Y-186578571D01*
X161523571Y-186578571D01*
X161737857Y-186507142D01*
X161809285Y-186435714D01*
X161809285Y-185935714D01*
X161523571Y-185935714D01*
X162452142Y-186435714D02*
X162523571Y-186507142D01*
X162452142Y-186578571D01*
X162380714Y-186507142D01*
X162452142Y-186435714D01*
X162452142Y-186578571D01*
X164309285Y-186578571D02*
X164309285Y-185078571D01*
X165166428Y-186578571D02*
X164523571Y-185721428D01*
X165166428Y-185078571D02*
X164309285Y-185935714D01*
X166380714Y-186507142D02*
X166237857Y-186578571D01*
X165952142Y-186578571D01*
X165809285Y-186507142D01*
X165737857Y-186364285D01*
X165737857Y-185792857D01*
X165809285Y-185650000D01*
X165952142Y-185578571D01*
X166237857Y-185578571D01*
X166380714Y-185650000D01*
X166452142Y-185792857D01*
X166452142Y-185935714D01*
X165737857Y-186078571D01*
X167666428Y-186507142D02*
X167523571Y-186578571D01*
X167237857Y-186578571D01*
X167095000Y-186507142D01*
X167023571Y-186364285D01*
X167023571Y-185792857D01*
X167095000Y-185650000D01*
X167237857Y-185578571D01*
X167523571Y-185578571D01*
X167666428Y-185650000D01*
X167737857Y-185792857D01*
X167737857Y-185935714D01*
X167023571Y-186078571D01*
X168166428Y-185578571D02*
X168737857Y-185578571D01*
X168380714Y-185078571D02*
X168380714Y-186364285D01*
X168452142Y-186507142D01*
X168595000Y-186578571D01*
X168737857Y-186578571D01*
X169237857Y-186578571D02*
X169237857Y-185078571D01*
X169880714Y-186578571D02*
X169880714Y-185792857D01*
X169809285Y-185650000D01*
X169666428Y-185578571D01*
X169452142Y-185578571D01*
X169309285Y-185650000D01*
X169237857Y-185721428D01*
D10*
D11*
X160832142Y-183578571D02*
X160832142Y-182078571D01*
X161403571Y-182078571D01*
X161546428Y-182150000D01*
X161617857Y-182221428D01*
X161689285Y-182364285D01*
X161689285Y-182578571D01*
X161617857Y-182721428D01*
X161546428Y-182792857D01*
X161403571Y-182864285D01*
X160832142Y-182864285D01*
X162332142Y-183578571D02*
X162332142Y-182578571D01*
X162332142Y-182864285D02*
X162403571Y-182721428D01*
X162475000Y-182650000D01*
X162617857Y-182578571D01*
X162760714Y-182578571D01*
X163832142Y-183507142D02*
X163689285Y-183578571D01*
X163403571Y-183578571D01*
X163260714Y-183507142D01*
X163189285Y-183364285D01*
X163189285Y-182792857D01*
X163260714Y-182650000D01*
X163403571Y-182578571D01*
X163689285Y-182578571D01*
X163832142Y-182650000D01*
X163903571Y-182792857D01*
X163903571Y-182935714D01*
X163189285Y-183078571D01*
X165189285Y-183578571D02*
X165189285Y-182792857D01*
X165117857Y-182650000D01*
X164975000Y-182578571D01*
X164689285Y-182578571D01*
X164546428Y-182650000D01*
X165189285Y-183507142D02*
X165046428Y-183578571D01*
X164689285Y-183578571D01*
X164546428Y-183507142D01*
X164475000Y-183364285D01*
X164475000Y-183221428D01*
X164546428Y-183078571D01*
X164689285Y-183007142D01*
X165046428Y-183007142D01*
X165189285Y-182935714D01*
X165903571Y-183578571D02*
X165903571Y-182578571D01*
X165903571Y-182721428D02*
X165975000Y-182650000D01*
X166117857Y-182578571D01*
X166332142Y-182578571D01*
X166475000Y-182650000D01*
X166546428Y-182792857D01*
X166546428Y-183578571D01*
X166546428Y-182792857D02*
X166617857Y-182650000D01*
X166760714Y-182578571D01*
X166975000Y-182578571D01*
X167117857Y-182650000D01*
X167189285Y-182792857D01*
X167189285Y-183578571D01*
X167903571Y-182578571D02*
X167903571Y-184078571D01*
X167903571Y-182650000D02*
X168046428Y-182578571D01*
X168332142Y-182578571D01*
X168475000Y-182650000D01*
X168546428Y-182721428D01*
X168617857Y-182864285D01*
X168617857Y-183292857D01*
X168546428Y-183435714D01*
X168475000Y-183507142D01*
X168332142Y-183578571D01*
X168046428Y-183578571D01*
X167903571Y-183507142D01*
X170332142Y-182221428D02*
X170403571Y-182150000D01*
X170546428Y-182078571D01*
X170903571Y-182078571D01*
X171046428Y-182150000D01*
X171117857Y-182221428D01*
X171189285Y-182364285D01*
X171189285Y-182507142D01*
X171117857Y-182721428D01*
X170260714Y-183578571D01*
X171189285Y-183578571D01*
X172117857Y-182078571D02*
X172260714Y-182078571D01*
X172403571Y-182150000D01*
X172475000Y-182221428D01*
X172546428Y-182364285D01*
X172617857Y-182650000D01*
X172617857Y-183007142D01*
X172546428Y-183292857D01*
X172475000Y-183435714D01*
X172403571Y-183507142D01*
X172260714Y-183578571D01*
X172117857Y-183578571D01*
X171975000Y-183507142D01*
X171903571Y-183435714D01*
X171832142Y-183292857D01*
X171760714Y-183007142D01*
X171760714Y-182650000D01*
X171832142Y-182364285D01*
X171903571Y-182221428D01*
X171975000Y-182150000D01*
X172117857Y-182078571D01*
X174046428Y-183578571D02*
X173189285Y-183578571D01*
X173617857Y-183578571D02*
X173617857Y-182078571D01*
X173475000Y-182292857D01*
X173332142Y-182435714D01*
X173189285Y-182507142D01*
X174760714Y-183578571D02*
X175046428Y-183578571D01*
X175189285Y-183507142D01*
X175260714Y-183435714D01*
X175403571Y-183221428D01*
X175475000Y-182935714D01*
X175475000Y-182364285D01*
X175403571Y-182221428D01*
X175332142Y-182150000D01*
X175189285Y-182078571D01*
X174903571Y-182078571D01*
X174760714Y-182150000D01*
X174689285Y-182221428D01*
X174617857Y-182364285D01*
X174617857Y-182721428D01*
X174689285Y-182864285D01*
X174760714Y-182935714D01*
X174903571Y-183007142D01*
X175189285Y-183007142D01*
X175332142Y-182935714D01*
X175403571Y-182864285D01*
X175475000Y-182721428D01*
D10*
D11*
X179400000Y-197400000D02*
X179400000Y-200400000D01*
D10*
D11*
X243400000Y-197400000D02*
X243400000Y-203900000D01*
D14*
X56000000Y-144000000D03*
X144000000Y-144000000D03*
X144000000Y-86000000D03*
X56000000Y-86000000D03*
D15*
X112160000Y-146050000D03*
X86360000Y-146050000D03*
D16*
X129540000Y-87230000D03*
X129540000Y-113030000D03*
X129540000Y-118980000D03*
X129540000Y-144780000D03*
D17*
X144310000Y-126375000D03*
X144310000Y-128915000D03*
D10*
G36*
X145184505Y-130586204D02*
G01*
X145208773Y-130589804D01*
X145232572Y-130595765D01*
X145255671Y-130604030D01*
X145277850Y-130614520D01*
X145298893Y-130627132D01*
X145318599Y-130641747D01*
X145336777Y-130658223D01*
X145353253Y-130676401D01*
X145367868Y-130696107D01*
X145380480Y-130717150D01*
X145390970Y-130739329D01*
X145399235Y-130762428D01*
X145405196Y-130786227D01*
X145408796Y-130810495D01*
X145410000Y-130834999D01*
X145410000Y-132075001D01*
X145408796Y-132099505D01*
X145405196Y-132123773D01*
X145399235Y-132147572D01*
X145390970Y-132170671D01*
X145380480Y-132192850D01*
X145367868Y-132213893D01*
X145353253Y-132233599D01*
X145336777Y-132251777D01*
X145318599Y-132268253D01*
X145298893Y-132282868D01*
X145277850Y-132295480D01*
X145255671Y-132305970D01*
X145232572Y-132314235D01*
X145208773Y-132320196D01*
X145184505Y-132323796D01*
X145160001Y-132325000D01*
X143459999Y-132325000D01*
X143435495Y-132323796D01*
X143411227Y-132320196D01*
X143387428Y-132314235D01*
X143364329Y-132305970D01*
X143342150Y-132295480D01*
X143321107Y-132282868D01*
X143301401Y-132268253D01*
X143283223Y-132251777D01*
X143266747Y-132233599D01*
X143252132Y-132213893D01*
X143239520Y-132192850D01*
X143229030Y-132170671D01*
X143220765Y-132147572D01*
X143214804Y-132123773D01*
X143211204Y-132099505D01*
X143210000Y-132075001D01*
X143210000Y-130834999D01*
X143211204Y-130810495D01*
X143214804Y-130786227D01*
X143220765Y-130762428D01*
X143229030Y-130739329D01*
X143239520Y-130717150D01*
X143252132Y-130696107D01*
X143266747Y-130676401D01*
X143283223Y-130658223D01*
X143301401Y-130641747D01*
X143321107Y-130627132D01*
X143342150Y-130614520D01*
X143364329Y-130604030D01*
X143387428Y-130595765D01*
X143411227Y-130589804D01*
X143435495Y-130586204D01*
X143459999Y-130585000D01*
X145160001Y-130585000D01*
X145184505Y-130586204D01*
X145184505Y-130586204D01*
G37*
D18*
X144310000Y-131455000D03*
D17*
X144310000Y-112460000D03*
X144310000Y-115000000D03*
D10*
G36*
X145184505Y-116671204D02*
G01*
X145208773Y-116674804D01*
X145232572Y-116680765D01*
X145255671Y-116689030D01*
X145277850Y-116699520D01*
X145298893Y-116712132D01*
X145318599Y-116726747D01*
X145336777Y-116743223D01*
X145353253Y-116761401D01*
X145367868Y-116781107D01*
X145380480Y-116802150D01*
X145390970Y-116824329D01*
X145399235Y-116847428D01*
X145405196Y-116871227D01*
X145408796Y-116895495D01*
X145410000Y-116919999D01*
X145410000Y-118160001D01*
X145408796Y-118184505D01*
X145405196Y-118208773D01*
X145399235Y-118232572D01*
X145390970Y-118255671D01*
X145380480Y-118277850D01*
X145367868Y-118298893D01*
X145353253Y-118318599D01*
X145336777Y-118336777D01*
X145318599Y-118353253D01*
X145298893Y-118367868D01*
X145277850Y-118380480D01*
X145255671Y-118390970D01*
X145232572Y-118399235D01*
X145208773Y-118405196D01*
X145184505Y-118408796D01*
X145160001Y-118410000D01*
X143459999Y-118410000D01*
X143435495Y-118408796D01*
X143411227Y-118405196D01*
X143387428Y-118399235D01*
X143364329Y-118390970D01*
X143342150Y-118380480D01*
X143321107Y-118367868D01*
X143301401Y-118353253D01*
X143283223Y-118336777D01*
X143266747Y-118318599D01*
X143252132Y-118298893D01*
X143239520Y-118277850D01*
X143229030Y-118255671D01*
X143220765Y-118232572D01*
X143214804Y-118208773D01*
X143211204Y-118184505D01*
X143210000Y-118160001D01*
X143210000Y-116919999D01*
X143211204Y-116895495D01*
X143214804Y-116871227D01*
X143220765Y-116847428D01*
X143229030Y-116824329D01*
X143239520Y-116802150D01*
X143252132Y-116781107D01*
X143266747Y-116761401D01*
X143283223Y-116743223D01*
X143301401Y-116726747D01*
X143321107Y-116712132D01*
X143342150Y-116699520D01*
X143364329Y-116689030D01*
X143387428Y-116680765D01*
X143411227Y-116674804D01*
X143435495Y-116671204D01*
X143459999Y-116670000D01*
X145160001Y-116670000D01*
X145184505Y-116671204D01*
X145184505Y-116671204D01*
G37*
D18*
X144310000Y-117540000D03*
D17*
X144310000Y-98545000D03*
X144310000Y-101085000D03*
D10*
G36*
X145184505Y-102756204D02*
G01*
X145208773Y-102759804D01*
X145232572Y-102765765D01*
X145255671Y-102774030D01*
X145277850Y-102784520D01*
X145298893Y-102797132D01*
X145318599Y-102811747D01*
X145336777Y-102828223D01*
X145353253Y-102846401D01*
X145367868Y-102866107D01*
X145380480Y-102887150D01*
X145390970Y-102909329D01*
X145399235Y-102932428D01*
X145405196Y-102956227D01*
X145408796Y-102980495D01*
X145410000Y-103004999D01*
X145410000Y-104245001D01*
X145408796Y-104269505D01*
X145405196Y-104293773D01*
X145399235Y-104317572D01*
X145390970Y-104340671D01*
X145380480Y-104362850D01*
X145367868Y-104383893D01*
X145353253Y-104403599D01*
X145336777Y-104421777D01*
X145318599Y-104438253D01*
X145298893Y-104452868D01*
X145277850Y-104465480D01*
X145255671Y-104475970D01*
X145232572Y-104484235D01*
X145208773Y-104490196D01*
X145184505Y-104493796D01*
X145160001Y-104495000D01*
X143459999Y-104495000D01*
X143435495Y-104493796D01*
X143411227Y-104490196D01*
X143387428Y-104484235D01*
X143364329Y-104475970D01*
X143342150Y-104465480D01*
X143321107Y-104452868D01*
X143301401Y-104438253D01*
X143283223Y-104421777D01*
X143266747Y-104403599D01*
X143252132Y-104383893D01*
X143239520Y-104362850D01*
X143229030Y-104340671D01*
X143220765Y-104317572D01*
X143214804Y-104293773D01*
X143211204Y-104269505D01*
X143210000Y-104245001D01*
X143210000Y-103004999D01*
X143211204Y-102980495D01*
X143214804Y-102956227D01*
X143220765Y-102932428D01*
X143229030Y-102909329D01*
X143239520Y-102887150D01*
X143252132Y-102866107D01*
X143266747Y-102846401D01*
X143283223Y-102828223D01*
X143301401Y-102811747D01*
X143321107Y-102797132D01*
X143342150Y-102784520D01*
X143364329Y-102774030D01*
X143387428Y-102765765D01*
X143411227Y-102759804D01*
X143435495Y-102756204D01*
X143459999Y-102755000D01*
X145160001Y-102755000D01*
X145184505Y-102756204D01*
X145184505Y-102756204D01*
G37*
D18*
X144310000Y-103625000D03*
D10*
G36*
X84080779Y-134971144D02*
G01*
X84103834Y-134974563D01*
X84126443Y-134980227D01*
X84148387Y-134988079D01*
X84169457Y-134998044D01*
X84189448Y-135010026D01*
X84208168Y-135023910D01*
X84225438Y-135039562D01*
X84241090Y-135056832D01*
X84254974Y-135075552D01*
X84266956Y-135095543D01*
X84276921Y-135116613D01*
X84284773Y-135138557D01*
X84290437Y-135161166D01*
X84293856Y-135184221D01*
X84295000Y-135207500D01*
X84295000Y-135782500D01*
X84293856Y-135805779D01*
X84290437Y-135828834D01*
X84284773Y-135851443D01*
X84276921Y-135873387D01*
X84266956Y-135894457D01*
X84254974Y-135914448D01*
X84241090Y-135933168D01*
X84225438Y-135950438D01*
X84208168Y-135966090D01*
X84189448Y-135979974D01*
X84169457Y-135991956D01*
X84148387Y-136001921D01*
X84126443Y-136009773D01*
X84103834Y-136015437D01*
X84080779Y-136018856D01*
X84057500Y-136020000D01*
X83582500Y-136020000D01*
X83559221Y-136018856D01*
X83536166Y-136015437D01*
X83513557Y-136009773D01*
X83491613Y-136001921D01*
X83470543Y-135991956D01*
X83450552Y-135979974D01*
X83431832Y-135966090D01*
X83414562Y-135950438D01*
X83398910Y-135933168D01*
X83385026Y-135914448D01*
X83373044Y-135894457D01*
X83363079Y-135873387D01*
X83355227Y-135851443D01*
X83349563Y-135828834D01*
X83346144Y-135805779D01*
X83345000Y-135782500D01*
X83345000Y-135207500D01*
X83346144Y-135184221D01*
X83349563Y-135161166D01*
X83355227Y-135138557D01*
X83363079Y-135116613D01*
X83373044Y-135095543D01*
X83385026Y-135075552D01*
X83398910Y-135056832D01*
X83414562Y-135039562D01*
X83431832Y-135023910D01*
X83450552Y-135010026D01*
X83470543Y-134998044D01*
X83491613Y-134988079D01*
X83513557Y-134980227D01*
X83536166Y-134974563D01*
X83559221Y-134971144D01*
X83582500Y-134970000D01*
X84057500Y-134970000D01*
X84080779Y-134971144D01*
X84080779Y-134971144D01*
G37*
D19*
X83820000Y-135495000D03*
D10*
G36*
X84080779Y-133221144D02*
G01*
X84103834Y-133224563D01*
X84126443Y-133230227D01*
X84148387Y-133238079D01*
X84169457Y-133248044D01*
X84189448Y-133260026D01*
X84208168Y-133273910D01*
X84225438Y-133289562D01*
X84241090Y-133306832D01*
X84254974Y-133325552D01*
X84266956Y-133345543D01*
X84276921Y-133366613D01*
X84284773Y-133388557D01*
X84290437Y-133411166D01*
X84293856Y-133434221D01*
X84295000Y-133457500D01*
X84295000Y-134032500D01*
X84293856Y-134055779D01*
X84290437Y-134078834D01*
X84284773Y-134101443D01*
X84276921Y-134123387D01*
X84266956Y-134144457D01*
X84254974Y-134164448D01*
X84241090Y-134183168D01*
X84225438Y-134200438D01*
X84208168Y-134216090D01*
X84189448Y-134229974D01*
X84169457Y-134241956D01*
X84148387Y-134251921D01*
X84126443Y-134259773D01*
X84103834Y-134265437D01*
X84080779Y-134268856D01*
X84057500Y-134270000D01*
X83582500Y-134270000D01*
X83559221Y-134268856D01*
X83536166Y-134265437D01*
X83513557Y-134259773D01*
X83491613Y-134251921D01*
X83470543Y-134241956D01*
X83450552Y-134229974D01*
X83431832Y-134216090D01*
X83414562Y-134200438D01*
X83398910Y-134183168D01*
X83385026Y-134164448D01*
X83373044Y-134144457D01*
X83363079Y-134123387D01*
X83355227Y-134101443D01*
X83349563Y-134078834D01*
X83346144Y-134055779D01*
X83345000Y-134032500D01*
X83345000Y-133457500D01*
X83346144Y-133434221D01*
X83349563Y-133411166D01*
X83355227Y-133388557D01*
X83363079Y-133366613D01*
X83373044Y-133345543D01*
X83385026Y-133325552D01*
X83398910Y-133306832D01*
X83414562Y-133289562D01*
X83431832Y-133273910D01*
X83450552Y-133260026D01*
X83470543Y-133248044D01*
X83491613Y-133238079D01*
X83513557Y-133230227D01*
X83536166Y-133224563D01*
X83559221Y-133221144D01*
X83582500Y-133220000D01*
X84057500Y-133220000D01*
X84080779Y-133221144D01*
X84080779Y-133221144D01*
G37*
D19*
X83820000Y-133745000D03*
D10*
G36*
X136313779Y-99348144D02*
G01*
X136336834Y-99351563D01*
X136359443Y-99357227D01*
X136381387Y-99365079D01*
X136402457Y-99375044D01*
X136422448Y-99387026D01*
X136441168Y-99400910D01*
X136458438Y-99416562D01*
X136474090Y-99433832D01*
X136487974Y-99452552D01*
X136499956Y-99472543D01*
X136509921Y-99493613D01*
X136517773Y-99515557D01*
X136523437Y-99538166D01*
X136526856Y-99561221D01*
X136528000Y-99584500D01*
X136528000Y-100059500D01*
X136526856Y-100082779D01*
X136523437Y-100105834D01*
X136517773Y-100128443D01*
X136509921Y-100150387D01*
X136499956Y-100171457D01*
X136487974Y-100191448D01*
X136474090Y-100210168D01*
X136458438Y-100227438D01*
X136441168Y-100243090D01*
X136422448Y-100256974D01*
X136402457Y-100268956D01*
X136381387Y-100278921D01*
X136359443Y-100286773D01*
X136336834Y-100292437D01*
X136313779Y-100295856D01*
X136290500Y-100297000D01*
X135715500Y-100297000D01*
X135692221Y-100295856D01*
X135669166Y-100292437D01*
X135646557Y-100286773D01*
X135624613Y-100278921D01*
X135603543Y-100268956D01*
X135583552Y-100256974D01*
X135564832Y-100243090D01*
X135547562Y-100227438D01*
X135531910Y-100210168D01*
X135518026Y-100191448D01*
X135506044Y-100171457D01*
X135496079Y-100150387D01*
X135488227Y-100128443D01*
X135482563Y-100105834D01*
X135479144Y-100082779D01*
X135478000Y-100059500D01*
X135478000Y-99584500D01*
X135479144Y-99561221D01*
X135482563Y-99538166D01*
X135488227Y-99515557D01*
X135496079Y-99493613D01*
X135506044Y-99472543D01*
X135518026Y-99452552D01*
X135531910Y-99433832D01*
X135547562Y-99416562D01*
X135564832Y-99400910D01*
X135583552Y-99387026D01*
X135603543Y-99375044D01*
X135624613Y-99365079D01*
X135646557Y-99357227D01*
X135669166Y-99351563D01*
X135692221Y-99348144D01*
X135715500Y-99347000D01*
X136290500Y-99347000D01*
X136313779Y-99348144D01*
X136313779Y-99348144D01*
G37*
D19*
X136003000Y-99822000D03*
D10*
G36*
X134563779Y-99348144D02*
G01*
X134586834Y-99351563D01*
X134609443Y-99357227D01*
X134631387Y-99365079D01*
X134652457Y-99375044D01*
X134672448Y-99387026D01*
X134691168Y-99400910D01*
X134708438Y-99416562D01*
X134724090Y-99433832D01*
X134737974Y-99452552D01*
X134749956Y-99472543D01*
X134759921Y-99493613D01*
X134767773Y-99515557D01*
X134773437Y-99538166D01*
X134776856Y-99561221D01*
X134778000Y-99584500D01*
X134778000Y-100059500D01*
X134776856Y-100082779D01*
X134773437Y-100105834D01*
X134767773Y-100128443D01*
X134759921Y-100150387D01*
X134749956Y-100171457D01*
X134737974Y-100191448D01*
X134724090Y-100210168D01*
X134708438Y-100227438D01*
X134691168Y-100243090D01*
X134672448Y-100256974D01*
X134652457Y-100268956D01*
X134631387Y-100278921D01*
X134609443Y-100286773D01*
X134586834Y-100292437D01*
X134563779Y-100295856D01*
X134540500Y-100297000D01*
X133965500Y-100297000D01*
X133942221Y-100295856D01*
X133919166Y-100292437D01*
X133896557Y-100286773D01*
X133874613Y-100278921D01*
X133853543Y-100268956D01*
X133833552Y-100256974D01*
X133814832Y-100243090D01*
X133797562Y-100227438D01*
X133781910Y-100210168D01*
X133768026Y-100191448D01*
X133756044Y-100171457D01*
X133746079Y-100150387D01*
X133738227Y-100128443D01*
X133732563Y-100105834D01*
X133729144Y-100082779D01*
X133728000Y-100059500D01*
X133728000Y-99584500D01*
X133729144Y-99561221D01*
X133732563Y-99538166D01*
X133738227Y-99515557D01*
X133746079Y-99493613D01*
X133756044Y-99472543D01*
X133768026Y-99452552D01*
X133781910Y-99433832D01*
X133797562Y-99416562D01*
X133814832Y-99400910D01*
X133833552Y-99387026D01*
X133853543Y-99375044D01*
X133874613Y-99365079D01*
X133896557Y-99357227D01*
X133919166Y-99351563D01*
X133942221Y-99348144D01*
X133965500Y-99347000D01*
X134540500Y-99347000D01*
X134563779Y-99348144D01*
X134563779Y-99348144D01*
G37*
D19*
X134253000Y-99822000D03*
D10*
G36*
X128530779Y-138301144D02*
G01*
X128553834Y-138304563D01*
X128576443Y-138310227D01*
X128598387Y-138318079D01*
X128619457Y-138328044D01*
X128639448Y-138340026D01*
X128658168Y-138353910D01*
X128675438Y-138369562D01*
X128691090Y-138386832D01*
X128704974Y-138405552D01*
X128716956Y-138425543D01*
X128726921Y-138446613D01*
X128734773Y-138468557D01*
X128740437Y-138491166D01*
X128743856Y-138514221D01*
X128745000Y-138537500D01*
X128745000Y-139112500D01*
X128743856Y-139135779D01*
X128740437Y-139158834D01*
X128734773Y-139181443D01*
X128726921Y-139203387D01*
X128716956Y-139224457D01*
X128704974Y-139244448D01*
X128691090Y-139263168D01*
X128675438Y-139280438D01*
X128658168Y-139296090D01*
X128639448Y-139309974D01*
X128619457Y-139321956D01*
X128598387Y-139331921D01*
X128576443Y-139339773D01*
X128553834Y-139345437D01*
X128530779Y-139348856D01*
X128507500Y-139350000D01*
X128032500Y-139350000D01*
X128009221Y-139348856D01*
X127986166Y-139345437D01*
X127963557Y-139339773D01*
X127941613Y-139331921D01*
X127920543Y-139321956D01*
X127900552Y-139309974D01*
X127881832Y-139296090D01*
X127864562Y-139280438D01*
X127848910Y-139263168D01*
X127835026Y-139244448D01*
X127823044Y-139224457D01*
X127813079Y-139203387D01*
X127805227Y-139181443D01*
X127799563Y-139158834D01*
X127796144Y-139135779D01*
X127795000Y-139112500D01*
X127795000Y-138537500D01*
X127796144Y-138514221D01*
X127799563Y-138491166D01*
X127805227Y-138468557D01*
X127813079Y-138446613D01*
X127823044Y-138425543D01*
X127835026Y-138405552D01*
X127848910Y-138386832D01*
X127864562Y-138369562D01*
X127881832Y-138353910D01*
X127900552Y-138340026D01*
X127920543Y-138328044D01*
X127941613Y-138318079D01*
X127963557Y-138310227D01*
X127986166Y-138304563D01*
X128009221Y-138301144D01*
X128032500Y-138300000D01*
X128507500Y-138300000D01*
X128530779Y-138301144D01*
X128530779Y-138301144D01*
G37*
D19*
X128270000Y-138825000D03*
D10*
G36*
X128530779Y-140051144D02*
G01*
X128553834Y-140054563D01*
X128576443Y-140060227D01*
X128598387Y-140068079D01*
X128619457Y-140078044D01*
X128639448Y-140090026D01*
X128658168Y-140103910D01*
X128675438Y-140119562D01*
X128691090Y-140136832D01*
X128704974Y-140155552D01*
X128716956Y-140175543D01*
X128726921Y-140196613D01*
X128734773Y-140218557D01*
X128740437Y-140241166D01*
X128743856Y-140264221D01*
X128745000Y-140287500D01*
X128745000Y-140862500D01*
X128743856Y-140885779D01*
X128740437Y-140908834D01*
X128734773Y-140931443D01*
X128726921Y-140953387D01*
X128716956Y-140974457D01*
X128704974Y-140994448D01*
X128691090Y-141013168D01*
X128675438Y-141030438D01*
X128658168Y-141046090D01*
X128639448Y-141059974D01*
X128619457Y-141071956D01*
X128598387Y-141081921D01*
X128576443Y-141089773D01*
X128553834Y-141095437D01*
X128530779Y-141098856D01*
X128507500Y-141100000D01*
X128032500Y-141100000D01*
X128009221Y-141098856D01*
X127986166Y-141095437D01*
X127963557Y-141089773D01*
X127941613Y-141081921D01*
X127920543Y-141071956D01*
X127900552Y-141059974D01*
X127881832Y-141046090D01*
X127864562Y-141030438D01*
X127848910Y-141013168D01*
X127835026Y-140994448D01*
X127823044Y-140974457D01*
X127813079Y-140953387D01*
X127805227Y-140931443D01*
X127799563Y-140908834D01*
X127796144Y-140885779D01*
X127795000Y-140862500D01*
X127795000Y-140287500D01*
X127796144Y-140264221D01*
X127799563Y-140241166D01*
X127805227Y-140218557D01*
X127813079Y-140196613D01*
X127823044Y-140175543D01*
X127835026Y-140155552D01*
X127848910Y-140136832D01*
X127864562Y-140119562D01*
X127881832Y-140103910D01*
X127900552Y-140090026D01*
X127920543Y-140078044D01*
X127941613Y-140068079D01*
X127963557Y-140060227D01*
X127986166Y-140054563D01*
X128009221Y-140051144D01*
X128032500Y-140050000D01*
X128507500Y-140050000D01*
X128530779Y-140051144D01*
X128530779Y-140051144D01*
G37*
D19*
X128270000Y-140575000D03*
D10*
G36*
X99908505Y-142176204D02*
G01*
X99932773Y-142179804D01*
X99956572Y-142185765D01*
X99979671Y-142194030D01*
X100001850Y-142204520D01*
X100022893Y-142217132D01*
X100042599Y-142231747D01*
X100060777Y-142248223D01*
X100077253Y-142266401D01*
X100091868Y-142286107D01*
X100104480Y-142307150D01*
X100114970Y-142329329D01*
X100123235Y-142352428D01*
X100129196Y-142376227D01*
X100132796Y-142400495D01*
X100134000Y-142424999D01*
X100134000Y-143325001D01*
X100132796Y-143349505D01*
X100129196Y-143373773D01*
X100123235Y-143397572D01*
X100114970Y-143420671D01*
X100104480Y-143442850D01*
X100091868Y-143463893D01*
X100077253Y-143483599D01*
X100060777Y-143501777D01*
X100042599Y-143518253D01*
X100022893Y-143532868D01*
X100001850Y-143545480D01*
X99979671Y-143555970D01*
X99956572Y-143564235D01*
X99932773Y-143570196D01*
X99908505Y-143573796D01*
X99884001Y-143575000D01*
X99233999Y-143575000D01*
X99209495Y-143573796D01*
X99185227Y-143570196D01*
X99161428Y-143564235D01*
X99138329Y-143555970D01*
X99116150Y-143545480D01*
X99095107Y-143532868D01*
X99075401Y-143518253D01*
X99057223Y-143501777D01*
X99040747Y-143483599D01*
X99026132Y-143463893D01*
X99013520Y-143442850D01*
X99003030Y-143420671D01*
X98994765Y-143397572D01*
X98988804Y-143373773D01*
X98985204Y-143349505D01*
X98984000Y-143325001D01*
X98984000Y-142424999D01*
X98985204Y-142400495D01*
X98988804Y-142376227D01*
X98994765Y-142352428D01*
X99003030Y-142329329D01*
X99013520Y-142307150D01*
X99026132Y-142286107D01*
X99040747Y-142266401D01*
X99057223Y-142248223D01*
X99075401Y-142231747D01*
X99095107Y-142217132D01*
X99116150Y-142204520D01*
X99138329Y-142194030D01*
X99161428Y-142185765D01*
X99185227Y-142179804D01*
X99209495Y-142176204D01*
X99233999Y-142175000D01*
X99884001Y-142175000D01*
X99908505Y-142176204D01*
X99908505Y-142176204D01*
G37*
D20*
X99559000Y-142875000D03*
D10*
G36*
X101958505Y-142176204D02*
G01*
X101982773Y-142179804D01*
X102006572Y-142185765D01*
X102029671Y-142194030D01*
X102051850Y-142204520D01*
X102072893Y-142217132D01*
X102092599Y-142231747D01*
X102110777Y-142248223D01*
X102127253Y-142266401D01*
X102141868Y-142286107D01*
X102154480Y-142307150D01*
X102164970Y-142329329D01*
X102173235Y-142352428D01*
X102179196Y-142376227D01*
X102182796Y-142400495D01*
X102184000Y-142424999D01*
X102184000Y-143325001D01*
X102182796Y-143349505D01*
X102179196Y-143373773D01*
X102173235Y-143397572D01*
X102164970Y-143420671D01*
X102154480Y-143442850D01*
X102141868Y-143463893D01*
X102127253Y-143483599D01*
X102110777Y-143501777D01*
X102092599Y-143518253D01*
X102072893Y-143532868D01*
X102051850Y-143545480D01*
X102029671Y-143555970D01*
X102006572Y-143564235D01*
X101982773Y-143570196D01*
X101958505Y-143573796D01*
X101934001Y-143575000D01*
X101283999Y-143575000D01*
X101259495Y-143573796D01*
X101235227Y-143570196D01*
X101211428Y-143564235D01*
X101188329Y-143555970D01*
X101166150Y-143545480D01*
X101145107Y-143532868D01*
X101125401Y-143518253D01*
X101107223Y-143501777D01*
X101090747Y-143483599D01*
X101076132Y-143463893D01*
X101063520Y-143442850D01*
X101053030Y-143420671D01*
X101044765Y-143397572D01*
X101038804Y-143373773D01*
X101035204Y-143349505D01*
X101034000Y-143325001D01*
X101034000Y-142424999D01*
X101035204Y-142400495D01*
X101038804Y-142376227D01*
X101044765Y-142352428D01*
X101053030Y-142329329D01*
X101063520Y-142307150D01*
X101076132Y-142286107D01*
X101090747Y-142266401D01*
X101107223Y-142248223D01*
X101125401Y-142231747D01*
X101145107Y-142217132D01*
X101166150Y-142204520D01*
X101188329Y-142194030D01*
X101211428Y-142185765D01*
X101235227Y-142179804D01*
X101259495Y-142176204D01*
X101283999Y-142175000D01*
X101934001Y-142175000D01*
X101958505Y-142176204D01*
X101958505Y-142176204D01*
G37*
D20*
X101609000Y-142875000D03*
D21*
X132461000Y-104799000D03*
D22*
X132461000Y-106299000D03*
D10*
G36*
X126839505Y-130753204D02*
G01*
X126863773Y-130756804D01*
X126887572Y-130762765D01*
X126910671Y-130771030D01*
X126932850Y-130781520D01*
X126953893Y-130794132D01*
X126973599Y-130808747D01*
X126991777Y-130825223D01*
X127008253Y-130843401D01*
X127022868Y-130863107D01*
X127035480Y-130884150D01*
X127045970Y-130906329D01*
X127054235Y-130929428D01*
X127060196Y-130953227D01*
X127063796Y-130977495D01*
X127065000Y-131001999D01*
X127065000Y-131652001D01*
X127063796Y-131676505D01*
X127060196Y-131700773D01*
X127054235Y-131724572D01*
X127045970Y-131747671D01*
X127035480Y-131769850D01*
X127022868Y-131790893D01*
X127008253Y-131810599D01*
X126991777Y-131828777D01*
X126973599Y-131845253D01*
X126953893Y-131859868D01*
X126932850Y-131872480D01*
X126910671Y-131882970D01*
X126887572Y-131891235D01*
X126863773Y-131897196D01*
X126839505Y-131900796D01*
X126815001Y-131902000D01*
X125914999Y-131902000D01*
X125890495Y-131900796D01*
X125866227Y-131897196D01*
X125842428Y-131891235D01*
X125819329Y-131882970D01*
X125797150Y-131872480D01*
X125776107Y-131859868D01*
X125756401Y-131845253D01*
X125738223Y-131828777D01*
X125721747Y-131810599D01*
X125707132Y-131790893D01*
X125694520Y-131769850D01*
X125684030Y-131747671D01*
X125675765Y-131724572D01*
X125669804Y-131700773D01*
X125666204Y-131676505D01*
X125665000Y-131652001D01*
X125665000Y-131001999D01*
X125666204Y-130977495D01*
X125669804Y-130953227D01*
X125675765Y-130929428D01*
X125684030Y-130906329D01*
X125694520Y-130884150D01*
X125707132Y-130863107D01*
X125721747Y-130843401D01*
X125738223Y-130825223D01*
X125756401Y-130808747D01*
X125776107Y-130794132D01*
X125797150Y-130781520D01*
X125819329Y-130771030D01*
X125842428Y-130762765D01*
X125866227Y-130756804D01*
X125890495Y-130753204D01*
X125914999Y-130752000D01*
X126815001Y-130752000D01*
X126839505Y-130753204D01*
X126839505Y-130753204D01*
G37*
D20*
X126365000Y-131327000D03*
D10*
G36*
X126839505Y-128703204D02*
G01*
X126863773Y-128706804D01*
X126887572Y-128712765D01*
X126910671Y-128721030D01*
X126932850Y-128731520D01*
X126953893Y-128744132D01*
X126973599Y-128758747D01*
X126991777Y-128775223D01*
X127008253Y-128793401D01*
X127022868Y-128813107D01*
X127035480Y-128834150D01*
X127045970Y-128856329D01*
X127054235Y-128879428D01*
X127060196Y-128903227D01*
X127063796Y-128927495D01*
X127065000Y-128951999D01*
X127065000Y-129602001D01*
X127063796Y-129626505D01*
X127060196Y-129650773D01*
X127054235Y-129674572D01*
X127045970Y-129697671D01*
X127035480Y-129719850D01*
X127022868Y-129740893D01*
X127008253Y-129760599D01*
X126991777Y-129778777D01*
X126973599Y-129795253D01*
X126953893Y-129809868D01*
X126932850Y-129822480D01*
X126910671Y-129832970D01*
X126887572Y-129841235D01*
X126863773Y-129847196D01*
X126839505Y-129850796D01*
X126815001Y-129852000D01*
X125914999Y-129852000D01*
X125890495Y-129850796D01*
X125866227Y-129847196D01*
X125842428Y-129841235D01*
X125819329Y-129832970D01*
X125797150Y-129822480D01*
X125776107Y-129809868D01*
X125756401Y-129795253D01*
X125738223Y-129778777D01*
X125721747Y-129760599D01*
X125707132Y-129740893D01*
X125694520Y-129719850D01*
X125684030Y-129697671D01*
X125675765Y-129674572D01*
X125669804Y-129650773D01*
X125666204Y-129626505D01*
X125665000Y-129602001D01*
X125665000Y-128951999D01*
X125666204Y-128927495D01*
X125669804Y-128903227D01*
X125675765Y-128879428D01*
X125684030Y-128856329D01*
X125694520Y-128834150D01*
X125707132Y-128813107D01*
X125721747Y-128793401D01*
X125738223Y-128775223D01*
X125756401Y-128758747D01*
X125776107Y-128744132D01*
X125797150Y-128731520D01*
X125819329Y-128721030D01*
X125842428Y-128712765D01*
X125866227Y-128706804D01*
X125890495Y-128703204D01*
X125914999Y-128702000D01*
X126815001Y-128702000D01*
X126839505Y-128703204D01*
X126839505Y-128703204D01*
G37*
D20*
X126365000Y-129277000D03*
D23*
X57620000Y-130950000D03*
X80120000Y-130950000D03*
D10*
G36*
X75875779Y-82711144D02*
G01*
X75898834Y-82714563D01*
X75921443Y-82720227D01*
X75943387Y-82728079D01*
X75964457Y-82738044D01*
X75984448Y-82750026D01*
X76003168Y-82763910D01*
X76020438Y-82779562D01*
X76036090Y-82796832D01*
X76049974Y-82815552D01*
X76061956Y-82835543D01*
X76071921Y-82856613D01*
X76079773Y-82878557D01*
X76085437Y-82901166D01*
X76088856Y-82924221D01*
X76090000Y-82947500D01*
X76090000Y-83422500D01*
X76088856Y-83445779D01*
X76085437Y-83468834D01*
X76079773Y-83491443D01*
X76071921Y-83513387D01*
X76061956Y-83534457D01*
X76049974Y-83554448D01*
X76036090Y-83573168D01*
X76020438Y-83590438D01*
X76003168Y-83606090D01*
X75984448Y-83619974D01*
X75964457Y-83631956D01*
X75943387Y-83641921D01*
X75921443Y-83649773D01*
X75898834Y-83655437D01*
X75875779Y-83658856D01*
X75852500Y-83660000D01*
X75277500Y-83660000D01*
X75254221Y-83658856D01*
X75231166Y-83655437D01*
X75208557Y-83649773D01*
X75186613Y-83641921D01*
X75165543Y-83631956D01*
X75145552Y-83619974D01*
X75126832Y-83606090D01*
X75109562Y-83590438D01*
X75093910Y-83573168D01*
X75080026Y-83554448D01*
X75068044Y-83534457D01*
X75058079Y-83513387D01*
X75050227Y-83491443D01*
X75044563Y-83468834D01*
X75041144Y-83445779D01*
X75040000Y-83422500D01*
X75040000Y-82947500D01*
X75041144Y-82924221D01*
X75044563Y-82901166D01*
X75050227Y-82878557D01*
X75058079Y-82856613D01*
X75068044Y-82835543D01*
X75080026Y-82815552D01*
X75093910Y-82796832D01*
X75109562Y-82779562D01*
X75126832Y-82763910D01*
X75145552Y-82750026D01*
X75165543Y-82738044D01*
X75186613Y-82728079D01*
X75208557Y-82720227D01*
X75231166Y-82714563D01*
X75254221Y-82711144D01*
X75277500Y-82710000D01*
X75852500Y-82710000D01*
X75875779Y-82711144D01*
X75875779Y-82711144D01*
G37*
D19*
X75565000Y-83185000D03*
D10*
G36*
X74125779Y-82711144D02*
G01*
X74148834Y-82714563D01*
X74171443Y-82720227D01*
X74193387Y-82728079D01*
X74214457Y-82738044D01*
X74234448Y-82750026D01*
X74253168Y-82763910D01*
X74270438Y-82779562D01*
X74286090Y-82796832D01*
X74299974Y-82815552D01*
X74311956Y-82835543D01*
X74321921Y-82856613D01*
X74329773Y-82878557D01*
X74335437Y-82901166D01*
X74338856Y-82924221D01*
X74340000Y-82947500D01*
X74340000Y-83422500D01*
X74338856Y-83445779D01*
X74335437Y-83468834D01*
X74329773Y-83491443D01*
X74321921Y-83513387D01*
X74311956Y-83534457D01*
X74299974Y-83554448D01*
X74286090Y-83573168D01*
X74270438Y-83590438D01*
X74253168Y-83606090D01*
X74234448Y-83619974D01*
X74214457Y-83631956D01*
X74193387Y-83641921D01*
X74171443Y-83649773D01*
X74148834Y-83655437D01*
X74125779Y-83658856D01*
X74102500Y-83660000D01*
X73527500Y-83660000D01*
X73504221Y-83658856D01*
X73481166Y-83655437D01*
X73458557Y-83649773D01*
X73436613Y-83641921D01*
X73415543Y-83631956D01*
X73395552Y-83619974D01*
X73376832Y-83606090D01*
X73359562Y-83590438D01*
X73343910Y-83573168D01*
X73330026Y-83554448D01*
X73318044Y-83534457D01*
X73308079Y-83513387D01*
X73300227Y-83491443D01*
X73294563Y-83468834D01*
X73291144Y-83445779D01*
X73290000Y-83422500D01*
X73290000Y-82947500D01*
X73291144Y-82924221D01*
X73294563Y-82901166D01*
X73300227Y-82878557D01*
X73308079Y-82856613D01*
X73318044Y-82835543D01*
X73330026Y-82815552D01*
X73343910Y-82796832D01*
X73359562Y-82779562D01*
X73376832Y-82763910D01*
X73395552Y-82750026D01*
X73415543Y-82738044D01*
X73436613Y-82728079D01*
X73458557Y-82720227D01*
X73481166Y-82714563D01*
X73504221Y-82711144D01*
X73527500Y-82710000D01*
X74102500Y-82710000D01*
X74125779Y-82711144D01*
X74125779Y-82711144D01*
G37*
D19*
X73815000Y-83185000D03*
D24*
X107823000Y-129794000D03*
D25*
X107823000Y-127254000D03*
D26*
X80010000Y-144780000D03*
D10*
G36*
X78114505Y-143681204D02*
G01*
X78138773Y-143684804D01*
X78162572Y-143690765D01*
X78185671Y-143699030D01*
X78207850Y-143709520D01*
X78228893Y-143722132D01*
X78248599Y-143736747D01*
X78266777Y-143753223D01*
X78283253Y-143771401D01*
X78297868Y-143791107D01*
X78310480Y-143812150D01*
X78320970Y-143834329D01*
X78329235Y-143857428D01*
X78335196Y-143881227D01*
X78338796Y-143905495D01*
X78340000Y-143929999D01*
X78340000Y-145630001D01*
X78338796Y-145654505D01*
X78335196Y-145678773D01*
X78329235Y-145702572D01*
X78320970Y-145725671D01*
X78310480Y-145747850D01*
X78297868Y-145768893D01*
X78283253Y-145788599D01*
X78266777Y-145806777D01*
X78248599Y-145823253D01*
X78228893Y-145837868D01*
X78207850Y-145850480D01*
X78185671Y-145860970D01*
X78162572Y-145869235D01*
X78138773Y-145875196D01*
X78114505Y-145878796D01*
X78090001Y-145880000D01*
X76849999Y-145880000D01*
X76825495Y-145878796D01*
X76801227Y-145875196D01*
X76777428Y-145869235D01*
X76754329Y-145860970D01*
X76732150Y-145850480D01*
X76711107Y-145837868D01*
X76691401Y-145823253D01*
X76673223Y-145806777D01*
X76656747Y-145788599D01*
X76642132Y-145768893D01*
X76629520Y-145747850D01*
X76619030Y-145725671D01*
X76610765Y-145702572D01*
X76604804Y-145678773D01*
X76601204Y-145654505D01*
X76600000Y-145630001D01*
X76600000Y-143929999D01*
X76601204Y-143905495D01*
X76604804Y-143881227D01*
X76610765Y-143857428D01*
X76619030Y-143834329D01*
X76629520Y-143812150D01*
X76642132Y-143791107D01*
X76656747Y-143771401D01*
X76673223Y-143753223D01*
X76691401Y-143736747D01*
X76711107Y-143722132D01*
X76732150Y-143709520D01*
X76754329Y-143699030D01*
X76777428Y-143690765D01*
X76801227Y-143684804D01*
X76825495Y-143681204D01*
X76849999Y-143680000D01*
X78090001Y-143680000D01*
X78114505Y-143681204D01*
X78114505Y-143681204D01*
G37*
D18*
X77470000Y-144780000D03*
D26*
X68580000Y-144780000D03*
D10*
G36*
X66684505Y-143681204D02*
G01*
X66708773Y-143684804D01*
X66732572Y-143690765D01*
X66755671Y-143699030D01*
X66777850Y-143709520D01*
X66798893Y-143722132D01*
X66818599Y-143736747D01*
X66836777Y-143753223D01*
X66853253Y-143771401D01*
X66867868Y-143791107D01*
X66880480Y-143812150D01*
X66890970Y-143834329D01*
X66899235Y-143857428D01*
X66905196Y-143881227D01*
X66908796Y-143905495D01*
X66910000Y-143929999D01*
X66910000Y-145630001D01*
X66908796Y-145654505D01*
X66905196Y-145678773D01*
X66899235Y-145702572D01*
X66890970Y-145725671D01*
X66880480Y-145747850D01*
X66867868Y-145768893D01*
X66853253Y-145788599D01*
X66836777Y-145806777D01*
X66818599Y-145823253D01*
X66798893Y-145837868D01*
X66777850Y-145850480D01*
X66755671Y-145860970D01*
X66732572Y-145869235D01*
X66708773Y-145875196D01*
X66684505Y-145878796D01*
X66660001Y-145880000D01*
X65419999Y-145880000D01*
X65395495Y-145878796D01*
X65371227Y-145875196D01*
X65347428Y-145869235D01*
X65324329Y-145860970D01*
X65302150Y-145850480D01*
X65281107Y-145837868D01*
X65261401Y-145823253D01*
X65243223Y-145806777D01*
X65226747Y-145788599D01*
X65212132Y-145768893D01*
X65199520Y-145747850D01*
X65189030Y-145725671D01*
X65180765Y-145702572D01*
X65174804Y-145678773D01*
X65171204Y-145654505D01*
X65170000Y-145630001D01*
X65170000Y-143929999D01*
X65171204Y-143905495D01*
X65174804Y-143881227D01*
X65180765Y-143857428D01*
X65189030Y-143834329D01*
X65199520Y-143812150D01*
X65212132Y-143791107D01*
X65226747Y-143771401D01*
X65243223Y-143753223D01*
X65261401Y-143736747D01*
X65281107Y-143722132D01*
X65302150Y-143709520D01*
X65324329Y-143699030D01*
X65347428Y-143690765D01*
X65371227Y-143684804D01*
X65395495Y-143681204D01*
X65419999Y-143680000D01*
X66660001Y-143680000D01*
X66684505Y-143681204D01*
X66684505Y-143681204D01*
G37*
D18*
X66040000Y-144780000D03*
D23*
X57620000Y-99200000D03*
X80120000Y-99200000D03*
D27*
X101800000Y-140200000D03*
X99260000Y-140200000D03*
D28*
X96720000Y-140200000D03*
D10*
G36*
X105416779Y-127252144D02*
G01*
X105439834Y-127255563D01*
X105462443Y-127261227D01*
X105484387Y-127269079D01*
X105505457Y-127279044D01*
X105525448Y-127291026D01*
X105544168Y-127304910D01*
X105561438Y-127320562D01*
X105577090Y-127337832D01*
X105590974Y-127356552D01*
X105602956Y-127376543D01*
X105612921Y-127397613D01*
X105620773Y-127419557D01*
X105626437Y-127442166D01*
X105629856Y-127465221D01*
X105631000Y-127488500D01*
X105631000Y-128063500D01*
X105629856Y-128086779D01*
X105626437Y-128109834D01*
X105620773Y-128132443D01*
X105612921Y-128154387D01*
X105602956Y-128175457D01*
X105590974Y-128195448D01*
X105577090Y-128214168D01*
X105561438Y-128231438D01*
X105544168Y-128247090D01*
X105525448Y-128260974D01*
X105505457Y-128272956D01*
X105484387Y-128282921D01*
X105462443Y-128290773D01*
X105439834Y-128296437D01*
X105416779Y-128299856D01*
X105393500Y-128301000D01*
X104918500Y-128301000D01*
X104895221Y-128299856D01*
X104872166Y-128296437D01*
X104849557Y-128290773D01*
X104827613Y-128282921D01*
X104806543Y-128272956D01*
X104786552Y-128260974D01*
X104767832Y-128247090D01*
X104750562Y-128231438D01*
X104734910Y-128214168D01*
X104721026Y-128195448D01*
X104709044Y-128175457D01*
X104699079Y-128154387D01*
X104691227Y-128132443D01*
X104685563Y-128109834D01*
X104682144Y-128086779D01*
X104681000Y-128063500D01*
X104681000Y-127488500D01*
X104682144Y-127465221D01*
X104685563Y-127442166D01*
X104691227Y-127419557D01*
X104699079Y-127397613D01*
X104709044Y-127376543D01*
X104721026Y-127356552D01*
X104734910Y-127337832D01*
X104750562Y-127320562D01*
X104767832Y-127304910D01*
X104786552Y-127291026D01*
X104806543Y-127279044D01*
X104827613Y-127269079D01*
X104849557Y-127261227D01*
X104872166Y-127255563D01*
X104895221Y-127252144D01*
X104918500Y-127251000D01*
X105393500Y-127251000D01*
X105416779Y-127252144D01*
X105416779Y-127252144D01*
G37*
D19*
X105156000Y-127776000D03*
D10*
G36*
X105416779Y-129002144D02*
G01*
X105439834Y-129005563D01*
X105462443Y-129011227D01*
X105484387Y-129019079D01*
X105505457Y-129029044D01*
X105525448Y-129041026D01*
X105544168Y-129054910D01*
X105561438Y-129070562D01*
X105577090Y-129087832D01*
X105590974Y-129106552D01*
X105602956Y-129126543D01*
X105612921Y-129147613D01*
X105620773Y-129169557D01*
X105626437Y-129192166D01*
X105629856Y-129215221D01*
X105631000Y-129238500D01*
X105631000Y-129813500D01*
X105629856Y-129836779D01*
X105626437Y-129859834D01*
X105620773Y-129882443D01*
X105612921Y-129904387D01*
X105602956Y-129925457D01*
X105590974Y-129945448D01*
X105577090Y-129964168D01*
X105561438Y-129981438D01*
X105544168Y-129997090D01*
X105525448Y-130010974D01*
X105505457Y-130022956D01*
X105484387Y-130032921D01*
X105462443Y-130040773D01*
X105439834Y-130046437D01*
X105416779Y-130049856D01*
X105393500Y-130051000D01*
X104918500Y-130051000D01*
X104895221Y-130049856D01*
X104872166Y-130046437D01*
X104849557Y-130040773D01*
X104827613Y-130032921D01*
X104806543Y-130022956D01*
X104786552Y-130010974D01*
X104767832Y-129997090D01*
X104750562Y-129981438D01*
X104734910Y-129964168D01*
X104721026Y-129945448D01*
X104709044Y-129925457D01*
X104699079Y-129904387D01*
X104691227Y-129882443D01*
X104685563Y-129859834D01*
X104682144Y-129836779D01*
X104681000Y-129813500D01*
X104681000Y-129238500D01*
X104682144Y-129215221D01*
X104685563Y-129192166D01*
X104691227Y-129169557D01*
X104699079Y-129147613D01*
X104709044Y-129126543D01*
X104721026Y-129106552D01*
X104734910Y-129087832D01*
X104750562Y-129070562D01*
X104767832Y-129054910D01*
X104786552Y-129041026D01*
X104806543Y-129029044D01*
X104827613Y-129019079D01*
X104849557Y-129011227D01*
X104872166Y-129005563D01*
X104895221Y-129002144D01*
X104918500Y-129001000D01*
X105393500Y-129001000D01*
X105416779Y-129002144D01*
X105416779Y-129002144D01*
G37*
D19*
X105156000Y-129526000D03*
D29*
X99473000Y-145796000D03*
X103473000Y-145796000D03*
X100933000Y-131445000D03*
X96933000Y-131445000D03*
D30*
X89876000Y-131318000D03*
D31*
X87376000Y-131318000D03*
D10*
G36*
X99545505Y-133667204D02*
G01*
X99569773Y-133670804D01*
X99593572Y-133676765D01*
X99616671Y-133685030D01*
X99638850Y-133695520D01*
X99659893Y-133708132D01*
X99679599Y-133722747D01*
X99697777Y-133739223D01*
X99714253Y-133757401D01*
X99728868Y-133777107D01*
X99741480Y-133798150D01*
X99751970Y-133820329D01*
X99760235Y-133843428D01*
X99766196Y-133867227D01*
X99769796Y-133891495D01*
X99771000Y-133915999D01*
X99771000Y-134816001D01*
X99769796Y-134840505D01*
X99766196Y-134864773D01*
X99760235Y-134888572D01*
X99751970Y-134911671D01*
X99741480Y-134933850D01*
X99728868Y-134954893D01*
X99714253Y-134974599D01*
X99697777Y-134992777D01*
X99679599Y-135009253D01*
X99659893Y-135023868D01*
X99638850Y-135036480D01*
X99616671Y-135046970D01*
X99593572Y-135055235D01*
X99569773Y-135061196D01*
X99545505Y-135064796D01*
X99521001Y-135066000D01*
X98870999Y-135066000D01*
X98846495Y-135064796D01*
X98822227Y-135061196D01*
X98798428Y-135055235D01*
X98775329Y-135046970D01*
X98753150Y-135036480D01*
X98732107Y-135023868D01*
X98712401Y-135009253D01*
X98694223Y-134992777D01*
X98677747Y-134974599D01*
X98663132Y-134954893D01*
X98650520Y-134933850D01*
X98640030Y-134911671D01*
X98631765Y-134888572D01*
X98625804Y-134864773D01*
X98622204Y-134840505D01*
X98621000Y-134816001D01*
X98621000Y-133915999D01*
X98622204Y-133891495D01*
X98625804Y-133867227D01*
X98631765Y-133843428D01*
X98640030Y-133820329D01*
X98650520Y-133798150D01*
X98663132Y-133777107D01*
X98677747Y-133757401D01*
X98694223Y-133739223D01*
X98712401Y-133722747D01*
X98732107Y-133708132D01*
X98753150Y-133695520D01*
X98775329Y-133685030D01*
X98798428Y-133676765D01*
X98822227Y-133670804D01*
X98846495Y-133667204D01*
X98870999Y-133666000D01*
X99521001Y-133666000D01*
X99545505Y-133667204D01*
X99545505Y-133667204D01*
G37*
D20*
X99196000Y-134366000D03*
D10*
G36*
X97495505Y-133667204D02*
G01*
X97519773Y-133670804D01*
X97543572Y-133676765D01*
X97566671Y-133685030D01*
X97588850Y-133695520D01*
X97609893Y-133708132D01*
X97629599Y-133722747D01*
X97647777Y-133739223D01*
X97664253Y-133757401D01*
X97678868Y-133777107D01*
X97691480Y-133798150D01*
X97701970Y-133820329D01*
X97710235Y-133843428D01*
X97716196Y-133867227D01*
X97719796Y-133891495D01*
X97721000Y-133915999D01*
X97721000Y-134816001D01*
X97719796Y-134840505D01*
X97716196Y-134864773D01*
X97710235Y-134888572D01*
X97701970Y-134911671D01*
X97691480Y-134933850D01*
X97678868Y-134954893D01*
X97664253Y-134974599D01*
X97647777Y-134992777D01*
X97629599Y-135009253D01*
X97609893Y-135023868D01*
X97588850Y-135036480D01*
X97566671Y-135046970D01*
X97543572Y-135055235D01*
X97519773Y-135061196D01*
X97495505Y-135064796D01*
X97471001Y-135066000D01*
X96820999Y-135066000D01*
X96796495Y-135064796D01*
X96772227Y-135061196D01*
X96748428Y-135055235D01*
X96725329Y-135046970D01*
X96703150Y-135036480D01*
X96682107Y-135023868D01*
X96662401Y-135009253D01*
X96644223Y-134992777D01*
X96627747Y-134974599D01*
X96613132Y-134954893D01*
X96600520Y-134933850D01*
X96590030Y-134911671D01*
X96581765Y-134888572D01*
X96575804Y-134864773D01*
X96572204Y-134840505D01*
X96571000Y-134816001D01*
X96571000Y-133915999D01*
X96572204Y-133891495D01*
X96575804Y-133867227D01*
X96581765Y-133843428D01*
X96590030Y-133820329D01*
X96600520Y-133798150D01*
X96613132Y-133777107D01*
X96627747Y-133757401D01*
X96644223Y-133739223D01*
X96662401Y-133722747D01*
X96682107Y-133708132D01*
X96703150Y-133695520D01*
X96725329Y-133685030D01*
X96748428Y-133676765D01*
X96772227Y-133670804D01*
X96796495Y-133667204D01*
X96820999Y-133666000D01*
X97471001Y-133666000D01*
X97495505Y-133667204D01*
X97495505Y-133667204D01*
G37*
D20*
X97146000Y-134366000D03*
D32*
X56420000Y-120940000D03*
X56420000Y-116980000D03*
X56420000Y-113020000D03*
D10*
G36*
X57544503Y-107711204D02*
G01*
X57568772Y-107714804D01*
X57592570Y-107720765D01*
X57615670Y-107729030D01*
X57637849Y-107739520D01*
X57658892Y-107752133D01*
X57678598Y-107766748D01*
X57696776Y-107783224D01*
X57713252Y-107801402D01*
X57727867Y-107821108D01*
X57740480Y-107842151D01*
X57750970Y-107864330D01*
X57759235Y-107887430D01*
X57765196Y-107911228D01*
X57768796Y-107935497D01*
X57770000Y-107960001D01*
X57770000Y-110159999D01*
X57768796Y-110184503D01*
X57765196Y-110208772D01*
X57759235Y-110232570D01*
X57750970Y-110255670D01*
X57740480Y-110277849D01*
X57727867Y-110298892D01*
X57713252Y-110318598D01*
X57696776Y-110336776D01*
X57678598Y-110353252D01*
X57658892Y-110367867D01*
X57637849Y-110380480D01*
X57615670Y-110390970D01*
X57592570Y-110399235D01*
X57568772Y-110405196D01*
X57544503Y-110408796D01*
X57519999Y-110410000D01*
X55320001Y-110410000D01*
X55295497Y-110408796D01*
X55271228Y-110405196D01*
X55247430Y-110399235D01*
X55224330Y-110390970D01*
X55202151Y-110380480D01*
X55181108Y-110367867D01*
X55161402Y-110353252D01*
X55143224Y-110336776D01*
X55126748Y-110318598D01*
X55112133Y-110298892D01*
X55099520Y-110277849D01*
X55089030Y-110255670D01*
X55080765Y-110232570D01*
X55074804Y-110208772D01*
X55071204Y-110184503D01*
X55070000Y-110159999D01*
X55070000Y-107960001D01*
X55071204Y-107935497D01*
X55074804Y-107911228D01*
X55080765Y-107887430D01*
X55089030Y-107864330D01*
X55099520Y-107842151D01*
X55112133Y-107821108D01*
X55126748Y-107801402D01*
X55143224Y-107783224D01*
X55161402Y-107766748D01*
X55181108Y-107752133D01*
X55202151Y-107739520D01*
X55224330Y-107729030D01*
X55247430Y-107720765D01*
X55271228Y-107714804D01*
X55295497Y-107711204D01*
X55320001Y-107710000D01*
X57519999Y-107710000D01*
X57544503Y-107711204D01*
X57544503Y-107711204D01*
G37*
D32*
X56420000Y-109060000D03*
D33*
X123690000Y-97590000D03*
X123690000Y-100130000D03*
D34*
X123690000Y-102670000D03*
D33*
X123690000Y-129340000D03*
X123690000Y-131880000D03*
D34*
X123690000Y-134420000D03*
D10*
G36*
X81449779Y-82711144D02*
G01*
X81472834Y-82714563D01*
X81495443Y-82720227D01*
X81517387Y-82728079D01*
X81538457Y-82738044D01*
X81558448Y-82750026D01*
X81577168Y-82763910D01*
X81594438Y-82779562D01*
X81610090Y-82796832D01*
X81623974Y-82815552D01*
X81635956Y-82835543D01*
X81645921Y-82856613D01*
X81653773Y-82878557D01*
X81659437Y-82901166D01*
X81662856Y-82924221D01*
X81664000Y-82947500D01*
X81664000Y-83422500D01*
X81662856Y-83445779D01*
X81659437Y-83468834D01*
X81653773Y-83491443D01*
X81645921Y-83513387D01*
X81635956Y-83534457D01*
X81623974Y-83554448D01*
X81610090Y-83573168D01*
X81594438Y-83590438D01*
X81577168Y-83606090D01*
X81558448Y-83619974D01*
X81538457Y-83631956D01*
X81517387Y-83641921D01*
X81495443Y-83649773D01*
X81472834Y-83655437D01*
X81449779Y-83658856D01*
X81426500Y-83660000D01*
X80851500Y-83660000D01*
X80828221Y-83658856D01*
X80805166Y-83655437D01*
X80782557Y-83649773D01*
X80760613Y-83641921D01*
X80739543Y-83631956D01*
X80719552Y-83619974D01*
X80700832Y-83606090D01*
X80683562Y-83590438D01*
X80667910Y-83573168D01*
X80654026Y-83554448D01*
X80642044Y-83534457D01*
X80632079Y-83513387D01*
X80624227Y-83491443D01*
X80618563Y-83468834D01*
X80615144Y-83445779D01*
X80614000Y-83422500D01*
X80614000Y-82947500D01*
X80615144Y-82924221D01*
X80618563Y-82901166D01*
X80624227Y-82878557D01*
X80632079Y-82856613D01*
X80642044Y-82835543D01*
X80654026Y-82815552D01*
X80667910Y-82796832D01*
X80683562Y-82779562D01*
X80700832Y-82763910D01*
X80719552Y-82750026D01*
X80739543Y-82738044D01*
X80760613Y-82728079D01*
X80782557Y-82720227D01*
X80805166Y-82714563D01*
X80828221Y-82711144D01*
X80851500Y-82710000D01*
X81426500Y-82710000D01*
X81449779Y-82711144D01*
X81449779Y-82711144D01*
G37*
D19*
X81139000Y-83185000D03*
D10*
G36*
X79699779Y-82711144D02*
G01*
X79722834Y-82714563D01*
X79745443Y-82720227D01*
X79767387Y-82728079D01*
X79788457Y-82738044D01*
X79808448Y-82750026D01*
X79827168Y-82763910D01*
X79844438Y-82779562D01*
X79860090Y-82796832D01*
X79873974Y-82815552D01*
X79885956Y-82835543D01*
X79895921Y-82856613D01*
X79903773Y-82878557D01*
X79909437Y-82901166D01*
X79912856Y-82924221D01*
X79914000Y-82947500D01*
X79914000Y-83422500D01*
X79912856Y-83445779D01*
X79909437Y-83468834D01*
X79903773Y-83491443D01*
X79895921Y-83513387D01*
X79885956Y-83534457D01*
X79873974Y-83554448D01*
X79860090Y-83573168D01*
X79844438Y-83590438D01*
X79827168Y-83606090D01*
X79808448Y-83619974D01*
X79788457Y-83631956D01*
X79767387Y-83641921D01*
X79745443Y-83649773D01*
X79722834Y-83655437D01*
X79699779Y-83658856D01*
X79676500Y-83660000D01*
X79101500Y-83660000D01*
X79078221Y-83658856D01*
X79055166Y-83655437D01*
X79032557Y-83649773D01*
X79010613Y-83641921D01*
X78989543Y-83631956D01*
X78969552Y-83619974D01*
X78950832Y-83606090D01*
X78933562Y-83590438D01*
X78917910Y-83573168D01*
X78904026Y-83554448D01*
X78892044Y-83534457D01*
X78882079Y-83513387D01*
X78874227Y-83491443D01*
X78868563Y-83468834D01*
X78865144Y-83445779D01*
X78864000Y-83422500D01*
X78864000Y-82947500D01*
X78865144Y-82924221D01*
X78868563Y-82901166D01*
X78874227Y-82878557D01*
X78882079Y-82856613D01*
X78892044Y-82835543D01*
X78904026Y-82815552D01*
X78917910Y-82796832D01*
X78933562Y-82779562D01*
X78950832Y-82763910D01*
X78969552Y-82750026D01*
X78989543Y-82738044D01*
X79010613Y-82728079D01*
X79032557Y-82720227D01*
X79055166Y-82714563D01*
X79078221Y-82711144D01*
X79101500Y-82710000D01*
X79676500Y-82710000D01*
X79699779Y-82711144D01*
X79699779Y-82711144D01*
G37*
D19*
X79389000Y-83185000D03*
D10*
G36*
X79136504Y-119141204D02*
G01*
X79160773Y-119144804D01*
X79184571Y-119150765D01*
X79207671Y-119159030D01*
X79229849Y-119169520D01*
X79250893Y-119182133D01*
X79270598Y-119196747D01*
X79288777Y-119213223D01*
X79305253Y-119231402D01*
X79319867Y-119251107D01*
X79332480Y-119272151D01*
X79342970Y-119294329D01*
X79351235Y-119317429D01*
X79357196Y-119341227D01*
X79360796Y-119365496D01*
X79362000Y-119390000D01*
X79362000Y-120640000D01*
X79360796Y-120664504D01*
X79357196Y-120688773D01*
X79351235Y-120712571D01*
X79342970Y-120735671D01*
X79332480Y-120757849D01*
X79319867Y-120778893D01*
X79305253Y-120798598D01*
X79288777Y-120816777D01*
X79270598Y-120833253D01*
X79250893Y-120847867D01*
X79229849Y-120860480D01*
X79207671Y-120870970D01*
X79184571Y-120879235D01*
X79160773Y-120885196D01*
X79136504Y-120888796D01*
X79112000Y-120890000D01*
X78187000Y-120890000D01*
X78162496Y-120888796D01*
X78138227Y-120885196D01*
X78114429Y-120879235D01*
X78091329Y-120870970D01*
X78069151Y-120860480D01*
X78048107Y-120847867D01*
X78028402Y-120833253D01*
X78010223Y-120816777D01*
X77993747Y-120798598D01*
X77979133Y-120778893D01*
X77966520Y-120757849D01*
X77956030Y-120735671D01*
X77947765Y-120712571D01*
X77941804Y-120688773D01*
X77938204Y-120664504D01*
X77937000Y-120640000D01*
X77937000Y-119390000D01*
X77938204Y-119365496D01*
X77941804Y-119341227D01*
X77947765Y-119317429D01*
X77956030Y-119294329D01*
X77966520Y-119272151D01*
X77979133Y-119251107D01*
X77993747Y-119231402D01*
X78010223Y-119213223D01*
X78028402Y-119196747D01*
X78048107Y-119182133D01*
X78069151Y-119169520D01*
X78091329Y-119159030D01*
X78114429Y-119150765D01*
X78138227Y-119144804D01*
X78162496Y-119141204D01*
X78187000Y-119140000D01*
X79112000Y-119140000D01*
X79136504Y-119141204D01*
X79136504Y-119141204D01*
G37*
D35*
X78649500Y-120015000D03*
D10*
G36*
X82111504Y-119141204D02*
G01*
X82135773Y-119144804D01*
X82159571Y-119150765D01*
X82182671Y-119159030D01*
X82204849Y-119169520D01*
X82225893Y-119182133D01*
X82245598Y-119196747D01*
X82263777Y-119213223D01*
X82280253Y-119231402D01*
X82294867Y-119251107D01*
X82307480Y-119272151D01*
X82317970Y-119294329D01*
X82326235Y-119317429D01*
X82332196Y-119341227D01*
X82335796Y-119365496D01*
X82337000Y-119390000D01*
X82337000Y-120640000D01*
X82335796Y-120664504D01*
X82332196Y-120688773D01*
X82326235Y-120712571D01*
X82317970Y-120735671D01*
X82307480Y-120757849D01*
X82294867Y-120778893D01*
X82280253Y-120798598D01*
X82263777Y-120816777D01*
X82245598Y-120833253D01*
X82225893Y-120847867D01*
X82204849Y-120860480D01*
X82182671Y-120870970D01*
X82159571Y-120879235D01*
X82135773Y-120885196D01*
X82111504Y-120888796D01*
X82087000Y-120890000D01*
X81162000Y-120890000D01*
X81137496Y-120888796D01*
X81113227Y-120885196D01*
X81089429Y-120879235D01*
X81066329Y-120870970D01*
X81044151Y-120860480D01*
X81023107Y-120847867D01*
X81003402Y-120833253D01*
X80985223Y-120816777D01*
X80968747Y-120798598D01*
X80954133Y-120778893D01*
X80941520Y-120757849D01*
X80931030Y-120735671D01*
X80922765Y-120712571D01*
X80916804Y-120688773D01*
X80913204Y-120664504D01*
X80912000Y-120640000D01*
X80912000Y-119390000D01*
X80913204Y-119365496D01*
X80916804Y-119341227D01*
X80922765Y-119317429D01*
X80931030Y-119294329D01*
X80941520Y-119272151D01*
X80954133Y-119251107D01*
X80968747Y-119231402D01*
X80985223Y-119213223D01*
X81003402Y-119196747D01*
X81023107Y-119182133D01*
X81044151Y-119169520D01*
X81066329Y-119159030D01*
X81089429Y-119150765D01*
X81113227Y-119144804D01*
X81137496Y-119141204D01*
X81162000Y-119140000D01*
X82087000Y-119140000D01*
X82111504Y-119141204D01*
X82111504Y-119141204D01*
G37*
D35*
X81624500Y-120015000D03*
D24*
X93472000Y-91186000D03*
D25*
X90932000Y-91186000D03*
D24*
X86360000Y-123698000D03*
D25*
X83820000Y-123698000D03*
X90932000Y-111760000D03*
D24*
X90932000Y-114300000D03*
X72390000Y-119380000D03*
D25*
X69850000Y-119380000D03*
D24*
X72390000Y-109220000D03*
D25*
X69850000Y-109220000D03*
D10*
G36*
X83374191Y-82711053D02*
G01*
X83395426Y-82714203D01*
X83416250Y-82719419D01*
X83436462Y-82726651D01*
X83455868Y-82735830D01*
X83474281Y-82746866D01*
X83491524Y-82759654D01*
X83507430Y-82774070D01*
X83521846Y-82789976D01*
X83534634Y-82807219D01*
X83545670Y-82825632D01*
X83554849Y-82845038D01*
X83562081Y-82865250D01*
X83567297Y-82886074D01*
X83570447Y-82907309D01*
X83571500Y-82928750D01*
X83571500Y-83441250D01*
X83570447Y-83462691D01*
X83567297Y-83483926D01*
X83562081Y-83504750D01*
X83554849Y-83524962D01*
X83545670Y-83544368D01*
X83534634Y-83562781D01*
X83521846Y-83580024D01*
X83507430Y-83595930D01*
X83491524Y-83610346D01*
X83474281Y-83623134D01*
X83455868Y-83634170D01*
X83436462Y-83643349D01*
X83416250Y-83650581D01*
X83395426Y-83655797D01*
X83374191Y-83658947D01*
X83352750Y-83660000D01*
X82915250Y-83660000D01*
X82893809Y-83658947D01*
X82872574Y-83655797D01*
X82851750Y-83650581D01*
X82831538Y-83643349D01*
X82812132Y-83634170D01*
X82793719Y-83623134D01*
X82776476Y-83610346D01*
X82760570Y-83595930D01*
X82746154Y-83580024D01*
X82733366Y-83562781D01*
X82722330Y-83544368D01*
X82713151Y-83524962D01*
X82705919Y-83504750D01*
X82700703Y-83483926D01*
X82697553Y-83462691D01*
X82696500Y-83441250D01*
X82696500Y-82928750D01*
X82697553Y-82907309D01*
X82700703Y-82886074D01*
X82705919Y-82865250D01*
X82713151Y-82845038D01*
X82722330Y-82825632D01*
X82733366Y-82807219D01*
X82746154Y-82789976D01*
X82760570Y-82774070D01*
X82776476Y-82759654D01*
X82793719Y-82746866D01*
X82812132Y-82735830D01*
X82831538Y-82726651D01*
X82851750Y-82719419D01*
X82872574Y-82714203D01*
X82893809Y-82711053D01*
X82915250Y-82710000D01*
X83352750Y-82710000D01*
X83374191Y-82711053D01*
X83374191Y-82711053D01*
G37*
D36*
X83134000Y-83185000D03*
D10*
G36*
X84949191Y-82711053D02*
G01*
X84970426Y-82714203D01*
X84991250Y-82719419D01*
X85011462Y-82726651D01*
X85030868Y-82735830D01*
X85049281Y-82746866D01*
X85066524Y-82759654D01*
X85082430Y-82774070D01*
X85096846Y-82789976D01*
X85109634Y-82807219D01*
X85120670Y-82825632D01*
X85129849Y-82845038D01*
X85137081Y-82865250D01*
X85142297Y-82886074D01*
X85145447Y-82907309D01*
X85146500Y-82928750D01*
X85146500Y-83441250D01*
X85145447Y-83462691D01*
X85142297Y-83483926D01*
X85137081Y-83504750D01*
X85129849Y-83524962D01*
X85120670Y-83544368D01*
X85109634Y-83562781D01*
X85096846Y-83580024D01*
X85082430Y-83595930D01*
X85066524Y-83610346D01*
X85049281Y-83623134D01*
X85030868Y-83634170D01*
X85011462Y-83643349D01*
X84991250Y-83650581D01*
X84970426Y-83655797D01*
X84949191Y-83658947D01*
X84927750Y-83660000D01*
X84490250Y-83660000D01*
X84468809Y-83658947D01*
X84447574Y-83655797D01*
X84426750Y-83650581D01*
X84406538Y-83643349D01*
X84387132Y-83634170D01*
X84368719Y-83623134D01*
X84351476Y-83610346D01*
X84335570Y-83595930D01*
X84321154Y-83580024D01*
X84308366Y-83562781D01*
X84297330Y-83544368D01*
X84288151Y-83524962D01*
X84280919Y-83504750D01*
X84275703Y-83483926D01*
X84272553Y-83462691D01*
X84271500Y-83441250D01*
X84271500Y-82928750D01*
X84272553Y-82907309D01*
X84275703Y-82886074D01*
X84280919Y-82865250D01*
X84288151Y-82845038D01*
X84297330Y-82825632D01*
X84308366Y-82807219D01*
X84321154Y-82789976D01*
X84335570Y-82774070D01*
X84351476Y-82759654D01*
X84368719Y-82746866D01*
X84387132Y-82735830D01*
X84406538Y-82726651D01*
X84426750Y-82719419D01*
X84447574Y-82714203D01*
X84468809Y-82711053D01*
X84490250Y-82710000D01*
X84927750Y-82710000D01*
X84949191Y-82711053D01*
X84949191Y-82711053D01*
G37*
D36*
X84709000Y-83185000D03*
D10*
G36*
X70471191Y-82711053D02*
G01*
X70492426Y-82714203D01*
X70513250Y-82719419D01*
X70533462Y-82726651D01*
X70552868Y-82735830D01*
X70571281Y-82746866D01*
X70588524Y-82759654D01*
X70604430Y-82774070D01*
X70618846Y-82789976D01*
X70631634Y-82807219D01*
X70642670Y-82825632D01*
X70651849Y-82845038D01*
X70659081Y-82865250D01*
X70664297Y-82886074D01*
X70667447Y-82907309D01*
X70668500Y-82928750D01*
X70668500Y-83441250D01*
X70667447Y-83462691D01*
X70664297Y-83483926D01*
X70659081Y-83504750D01*
X70651849Y-83524962D01*
X70642670Y-83544368D01*
X70631634Y-83562781D01*
X70618846Y-83580024D01*
X70604430Y-83595930D01*
X70588524Y-83610346D01*
X70571281Y-83623134D01*
X70552868Y-83634170D01*
X70533462Y-83643349D01*
X70513250Y-83650581D01*
X70492426Y-83655797D01*
X70471191Y-83658947D01*
X70449750Y-83660000D01*
X70012250Y-83660000D01*
X69990809Y-83658947D01*
X69969574Y-83655797D01*
X69948750Y-83650581D01*
X69928538Y-83643349D01*
X69909132Y-83634170D01*
X69890719Y-83623134D01*
X69873476Y-83610346D01*
X69857570Y-83595930D01*
X69843154Y-83580024D01*
X69830366Y-83562781D01*
X69819330Y-83544368D01*
X69810151Y-83524962D01*
X69802919Y-83504750D01*
X69797703Y-83483926D01*
X69794553Y-83462691D01*
X69793500Y-83441250D01*
X69793500Y-82928750D01*
X69794553Y-82907309D01*
X69797703Y-82886074D01*
X69802919Y-82865250D01*
X69810151Y-82845038D01*
X69819330Y-82825632D01*
X69830366Y-82807219D01*
X69843154Y-82789976D01*
X69857570Y-82774070D01*
X69873476Y-82759654D01*
X69890719Y-82746866D01*
X69909132Y-82735830D01*
X69928538Y-82726651D01*
X69948750Y-82719419D01*
X69969574Y-82714203D01*
X69990809Y-82711053D01*
X70012250Y-82710000D01*
X70449750Y-82710000D01*
X70471191Y-82711053D01*
X70471191Y-82711053D01*
G37*
D36*
X70231000Y-83185000D03*
D10*
G36*
X72046191Y-82711053D02*
G01*
X72067426Y-82714203D01*
X72088250Y-82719419D01*
X72108462Y-82726651D01*
X72127868Y-82735830D01*
X72146281Y-82746866D01*
X72163524Y-82759654D01*
X72179430Y-82774070D01*
X72193846Y-82789976D01*
X72206634Y-82807219D01*
X72217670Y-82825632D01*
X72226849Y-82845038D01*
X72234081Y-82865250D01*
X72239297Y-82886074D01*
X72242447Y-82907309D01*
X72243500Y-82928750D01*
X72243500Y-83441250D01*
X72242447Y-83462691D01*
X72239297Y-83483926D01*
X72234081Y-83504750D01*
X72226849Y-83524962D01*
X72217670Y-83544368D01*
X72206634Y-83562781D01*
X72193846Y-83580024D01*
X72179430Y-83595930D01*
X72163524Y-83610346D01*
X72146281Y-83623134D01*
X72127868Y-83634170D01*
X72108462Y-83643349D01*
X72088250Y-83650581D01*
X72067426Y-83655797D01*
X72046191Y-83658947D01*
X72024750Y-83660000D01*
X71587250Y-83660000D01*
X71565809Y-83658947D01*
X71544574Y-83655797D01*
X71523750Y-83650581D01*
X71503538Y-83643349D01*
X71484132Y-83634170D01*
X71465719Y-83623134D01*
X71448476Y-83610346D01*
X71432570Y-83595930D01*
X71418154Y-83580024D01*
X71405366Y-83562781D01*
X71394330Y-83544368D01*
X71385151Y-83524962D01*
X71377919Y-83504750D01*
X71372703Y-83483926D01*
X71369553Y-83462691D01*
X71368500Y-83441250D01*
X71368500Y-82928750D01*
X71369553Y-82907309D01*
X71372703Y-82886074D01*
X71377919Y-82865250D01*
X71385151Y-82845038D01*
X71394330Y-82825632D01*
X71405366Y-82807219D01*
X71418154Y-82789976D01*
X71432570Y-82774070D01*
X71448476Y-82759654D01*
X71465719Y-82746866D01*
X71484132Y-82735830D01*
X71503538Y-82726651D01*
X71523750Y-82719419D01*
X71544574Y-82714203D01*
X71565809Y-82711053D01*
X71587250Y-82710000D01*
X72024750Y-82710000D01*
X72046191Y-82711053D01*
X72046191Y-82711053D01*
G37*
D36*
X71806000Y-83185000D03*
D37*
X127127000Y-97949000D03*
X127127000Y-101949000D03*
X129286000Y-131286000D03*
X129286000Y-127286000D03*
X117094000Y-100298000D03*
X117094000Y-96298000D03*
X115062000Y-129826000D03*
X115062000Y-133826000D03*
D29*
X86900000Y-106680000D03*
X90900000Y-106680000D03*
X86900000Y-102870000D03*
X90900000Y-102870000D03*
X90900000Y-99060000D03*
X86900000Y-99060000D03*
X90900000Y-95250000D03*
X86900000Y-95250000D03*
D30*
X134112000Y-93131000D03*
D31*
X134112000Y-95631000D03*
D30*
X132501000Y-136906000D03*
D31*
X135001000Y-136906000D03*
D30*
X113792000Y-103537000D03*
D31*
X113792000Y-105537000D03*
D10*
G36*
X118457505Y-131996204D02*
G01*
X118481773Y-131999804D01*
X118505572Y-132005765D01*
X118528671Y-132014030D01*
X118550850Y-132024520D01*
X118571893Y-132037132D01*
X118591599Y-132051747D01*
X118609777Y-132068223D01*
X118626253Y-132086401D01*
X118640868Y-132106107D01*
X118653480Y-132127150D01*
X118663970Y-132149329D01*
X118672235Y-132172428D01*
X118678196Y-132196227D01*
X118681796Y-132220495D01*
X118683000Y-132244999D01*
X118683000Y-132895001D01*
X118681796Y-132919505D01*
X118678196Y-132943773D01*
X118672235Y-132967572D01*
X118663970Y-132990671D01*
X118653480Y-133012850D01*
X118640868Y-133033893D01*
X118626253Y-133053599D01*
X118609777Y-133071777D01*
X118591599Y-133088253D01*
X118571893Y-133102868D01*
X118550850Y-133115480D01*
X118528671Y-133125970D01*
X118505572Y-133134235D01*
X118481773Y-133140196D01*
X118457505Y-133143796D01*
X118433001Y-133145000D01*
X117532999Y-133145000D01*
X117508495Y-133143796D01*
X117484227Y-133140196D01*
X117460428Y-133134235D01*
X117437329Y-133125970D01*
X117415150Y-133115480D01*
X117394107Y-133102868D01*
X117374401Y-133088253D01*
X117356223Y-133071777D01*
X117339747Y-133053599D01*
X117325132Y-133033893D01*
X117312520Y-133012850D01*
X117302030Y-132990671D01*
X117293765Y-132967572D01*
X117287804Y-132943773D01*
X117284204Y-132919505D01*
X117283000Y-132895001D01*
X117283000Y-132244999D01*
X117284204Y-132220495D01*
X117287804Y-132196227D01*
X117293765Y-132172428D01*
X117302030Y-132149329D01*
X117312520Y-132127150D01*
X117325132Y-132106107D01*
X117339747Y-132086401D01*
X117356223Y-132068223D01*
X117374401Y-132051747D01*
X117394107Y-132037132D01*
X117415150Y-132024520D01*
X117437329Y-132014030D01*
X117460428Y-132005765D01*
X117484227Y-131999804D01*
X117508495Y-131996204D01*
X117532999Y-131995000D01*
X118433001Y-131995000D01*
X118457505Y-131996204D01*
X118457505Y-131996204D01*
G37*
D20*
X117983000Y-132570000D03*
D10*
G36*
X118457505Y-134046204D02*
G01*
X118481773Y-134049804D01*
X118505572Y-134055765D01*
X118528671Y-134064030D01*
X118550850Y-134074520D01*
X118571893Y-134087132D01*
X118591599Y-134101747D01*
X118609777Y-134118223D01*
X118626253Y-134136401D01*
X118640868Y-134156107D01*
X118653480Y-134177150D01*
X118663970Y-134199329D01*
X118672235Y-134222428D01*
X118678196Y-134246227D01*
X118681796Y-134270495D01*
X118683000Y-134294999D01*
X118683000Y-134945001D01*
X118681796Y-134969505D01*
X118678196Y-134993773D01*
X118672235Y-135017572D01*
X118663970Y-135040671D01*
X118653480Y-135062850D01*
X118640868Y-135083893D01*
X118626253Y-135103599D01*
X118609777Y-135121777D01*
X118591599Y-135138253D01*
X118571893Y-135152868D01*
X118550850Y-135165480D01*
X118528671Y-135175970D01*
X118505572Y-135184235D01*
X118481773Y-135190196D01*
X118457505Y-135193796D01*
X118433001Y-135195000D01*
X117532999Y-135195000D01*
X117508495Y-135193796D01*
X117484227Y-135190196D01*
X117460428Y-135184235D01*
X117437329Y-135175970D01*
X117415150Y-135165480D01*
X117394107Y-135152868D01*
X117374401Y-135138253D01*
X117356223Y-135121777D01*
X117339747Y-135103599D01*
X117325132Y-135083893D01*
X117312520Y-135062850D01*
X117302030Y-135040671D01*
X117293765Y-135017572D01*
X117287804Y-134993773D01*
X117284204Y-134969505D01*
X117283000Y-134945001D01*
X117283000Y-134294999D01*
X117284204Y-134270495D01*
X117287804Y-134246227D01*
X117293765Y-134222428D01*
X117302030Y-134199329D01*
X117312520Y-134177150D01*
X117325132Y-134156107D01*
X117339747Y-134136401D01*
X117356223Y-134118223D01*
X117374401Y-134101747D01*
X117394107Y-134087132D01*
X117415150Y-134074520D01*
X117437329Y-134064030D01*
X117460428Y-134055765D01*
X117484227Y-134049804D01*
X117508495Y-134046204D01*
X117532999Y-134045000D01*
X118433001Y-134045000D01*
X118457505Y-134046204D01*
X118457505Y-134046204D01*
G37*
D20*
X117983000Y-134620000D03*
D38*
X100330000Y-100410000D03*
D39*
X100330000Y-105410000D03*
D38*
X100330000Y-114380000D03*
D39*
X100330000Y-119380000D03*
D30*
X83820000Y-116760000D03*
X83820000Y-111760000D03*
X77470000Y-116840000D03*
X77470000Y-111840000D03*
D40*
X77470000Y-83185000D03*
X82411990Y-107061000D03*
X100838000Y-134366000D03*
D41*
X74930000Y-119380000D02*
X77470000Y-116840000D01*
X72390000Y-119380000D02*
X74930000Y-119380000D01*
X77470000Y-118835500D02*
X78649500Y-120015000D01*
X77470000Y-116840000D02*
X77470000Y-118835500D01*
X86900000Y-112490000D02*
X86900000Y-106680000D01*
X80010000Y-116840000D02*
X82550000Y-114300000D01*
X82550000Y-114300000D02*
X85090000Y-114300000D01*
X77470000Y-116840000D02*
X80010000Y-116840000D01*
X85090000Y-114300000D02*
X86900000Y-112490000D01*
D42*
X86900000Y-99359845D02*
X86900000Y-99060000D01*
X88900000Y-101359845D02*
X86900000Y-99359845D01*
X88900000Y-105030000D02*
X88900000Y-101359845D01*
X86900000Y-106680000D02*
X87250000Y-106680000D01*
X87250000Y-106680000D02*
X88900000Y-105030000D01*
D43*
X86820000Y-95330000D02*
X86900000Y-95250000D01*
D44*
X86550000Y-95250000D02*
X83947000Y-97853000D01*
X86900000Y-95250000D02*
X86550000Y-95250000D01*
X83947000Y-100267000D02*
X86550000Y-102870000D01*
X83947000Y-97853000D02*
X83947000Y-100267000D01*
D41*
X74850000Y-109220000D02*
X77470000Y-111840000D01*
X72390000Y-109220000D02*
X74850000Y-109220000D01*
X83740000Y-111840000D02*
X83820000Y-111760000D01*
X77470000Y-111840000D02*
X83740000Y-111840000D01*
D43*
X86550000Y-102870000D02*
X86900000Y-102870000D01*
D44*
X83820000Y-105600000D02*
X86550000Y-102870000D01*
X83820000Y-111760000D02*
X83820000Y-105600000D01*
D41*
X83820000Y-117819500D02*
X83820000Y-116760000D01*
X81624500Y-120015000D02*
X83820000Y-117819500D01*
D43*
X135001000Y-138112400D02*
X135001000Y-136906000D01*
X132538400Y-140575000D02*
X135001000Y-138112400D01*
X128270000Y-140575000D02*
X132538400Y-140575000D01*
D44*
X115548000Y-129340000D02*
X115062000Y-129826000D01*
X123690000Y-129340000D02*
X115548000Y-129340000D01*
D43*
X136003000Y-95022000D02*
X136003000Y-99822000D01*
X134112000Y-93131000D02*
X136003000Y-95022000D01*
D44*
X122398000Y-96298000D02*
X123690000Y-97590000D01*
X117094000Y-96298000D02*
X122398000Y-96298000D01*
D41*
X90900000Y-99060000D02*
X90900000Y-95250000D01*
X90900000Y-91218000D02*
X90932000Y-91186000D01*
X90900000Y-95250000D02*
X90900000Y-91218000D01*
X90900000Y-102870000D02*
X90900000Y-106680000D01*
X90900000Y-111728000D02*
X90932000Y-111760000D01*
X90900000Y-106680000D02*
X90900000Y-111728000D01*
D45*
X83134000Y-83185000D02*
X81139000Y-83185000D01*
D41*
X56420000Y-100400000D02*
X57620000Y-99200000D01*
X56420000Y-109060000D02*
X56420000Y-100400000D01*
X80120000Y-99200000D02*
X77330000Y-99200000D01*
X77330000Y-99200000D02*
X69850000Y-106680000D01*
X69850000Y-106680000D02*
X69850000Y-109220000D01*
X56420000Y-129750000D02*
X57620000Y-130950000D01*
X56420000Y-120940000D02*
X56420000Y-129750000D01*
X69850000Y-120680000D02*
X69850000Y-119380000D01*
X80120000Y-130950000D02*
X69850000Y-120680000D01*
D43*
X79389000Y-83185000D02*
X77470000Y-83185000D01*
X75565000Y-83185000D02*
X77470000Y-83185000D01*
X130582000Y-138825000D02*
X132501000Y-136906000D01*
X128270000Y-138825000D02*
X130582000Y-138825000D01*
X134112000Y-99681000D02*
X134253000Y-99822000D01*
X134112000Y-95631000D02*
X134112000Y-99681000D01*
D44*
X105678000Y-127254000D02*
X107823000Y-127254000D01*
X105156000Y-127776000D02*
X105678000Y-127254000D01*
X125812000Y-131880000D02*
X126365000Y-131327000D01*
X123690000Y-131880000D02*
X125812000Y-131880000D01*
X129245000Y-131327000D02*
X129286000Y-131286000D01*
X126365000Y-131327000D02*
X129245000Y-131327000D01*
X126406000Y-102670000D02*
X127127000Y-101949000D01*
X123690000Y-102670000D02*
X126406000Y-102670000D01*
X117983000Y-132570000D02*
X120668000Y-132570000D01*
X123617000Y-131953000D02*
X123690000Y-131880000D01*
X121285000Y-131953000D02*
X123617000Y-131953000D01*
X120668000Y-132570000D02*
X121285000Y-131953000D01*
D41*
X96012000Y-119380000D02*
X90932000Y-114300000D01*
X100330000Y-119380000D02*
X96012000Y-119380000D01*
D44*
X97146000Y-131658000D02*
X96933000Y-131445000D01*
X97146000Y-134366000D02*
X97146000Y-131658000D01*
D41*
X96933000Y-131445000D02*
X96933000Y-127476000D01*
X96933000Y-127476000D02*
X100330000Y-124079000D01*
X100330000Y-124079000D02*
X100330000Y-119380000D01*
X114776000Y-133826000D02*
X115062000Y-133826000D01*
X111760000Y-130810000D02*
X114776000Y-133826000D01*
X111760000Y-123571000D02*
X111760000Y-130810000D01*
X100330000Y-119380000D02*
X107569000Y-119380000D01*
X107569000Y-119380000D02*
X111760000Y-123571000D01*
D43*
X76835000Y-84455000D02*
X82411990Y-90031990D01*
X82411990Y-106353894D02*
X82411990Y-107061000D01*
X70231000Y-83185000D02*
X70231000Y-83760000D01*
X70231000Y-83760000D02*
X70926000Y-84455000D01*
X70926000Y-84455000D02*
X76835000Y-84455000D01*
X82411990Y-90031990D02*
X82411990Y-106353894D01*
D44*
X116840000Y-134620000D02*
X117983000Y-134620000D01*
X115062000Y-133826000D02*
X116046000Y-133826000D01*
X116046000Y-133826000D02*
X116840000Y-134620000D01*
X96720000Y-134792000D02*
X97146000Y-134366000D01*
X96720000Y-140200000D02*
X96720000Y-134792000D01*
X123490000Y-134620000D02*
X123690000Y-134420000D01*
X117983000Y-134620000D02*
X123490000Y-134620000D01*
D43*
X123352500Y-100130000D02*
X123400000Y-100130000D01*
D41*
X93472000Y-93552000D02*
X100330000Y-100410000D01*
X93472000Y-91186000D02*
X93472000Y-93552000D01*
D44*
X103457000Y-103537000D02*
X113792000Y-103537000D01*
X100330000Y-100410000D02*
X103457000Y-103537000D01*
D43*
X85246500Y-83185000D02*
X84709000Y-83185000D01*
X86673081Y-83185000D02*
X85246500Y-83185000D01*
X93472000Y-89983919D02*
X86673081Y-83185000D01*
X93472000Y-91186000D02*
X93472000Y-89983919D01*
D41*
X117031000Y-100298000D02*
X117094000Y-100298000D01*
D44*
X113792000Y-103537000D02*
X117031000Y-100298000D01*
X123522000Y-100298000D02*
X123690000Y-100130000D01*
X117094000Y-100298000D02*
X123522000Y-100298000D01*
X99196000Y-134366000D02*
X100838000Y-134366000D01*
D43*
X85699000Y-135495000D02*
X89876000Y-131318000D01*
X83820000Y-135495000D02*
X85699000Y-135495000D01*
D44*
X107555000Y-129526000D02*
X107823000Y-129794000D01*
X105156000Y-129526000D02*
X107555000Y-129526000D01*
X99473000Y-142961000D02*
X99559000Y-142875000D01*
X99473000Y-145796000D02*
X99473000Y-142961000D01*
X99559000Y-140499000D02*
X99260000Y-140200000D01*
X99559000Y-142875000D02*
X99559000Y-140499000D01*
D43*
X87376000Y-132524400D02*
X86155400Y-133745000D01*
X84395000Y-133745000D02*
X83820000Y-133745000D01*
X86155400Y-133745000D02*
X84395000Y-133745000D01*
X87376000Y-131318000D02*
X87376000Y-132524400D01*
D44*
X102284000Y-142875000D02*
X103473000Y-144064000D01*
X103473000Y-144489600D02*
X103473000Y-145796000D01*
X103473000Y-144064000D02*
X103473000Y-144489600D01*
X101609000Y-142875000D02*
X102284000Y-142875000D01*
X101609000Y-140391000D02*
X101800000Y-140200000D01*
X101609000Y-142875000D02*
X101609000Y-140391000D01*
D45*
X71806000Y-83185000D02*
X73815000Y-83185000D01*
D46*
G36*
X95485200Y-129941429D02*
G01*
X95438820Y-129955498D01*
X95328506Y-130014463D01*
X95231815Y-130093815D01*
X95152463Y-130190506D01*
X95093498Y-130300820D01*
X95057188Y-130420518D01*
X95044928Y-130545000D01*
X95044928Y-132345000D01*
X95057188Y-132469482D01*
X95093498Y-132589180D01*
X95152463Y-132699494D01*
X95231815Y-132796185D01*
X95328506Y-132875537D01*
X95438820Y-132934502D01*
X95558518Y-132970812D01*
X95683000Y-132983072D01*
X96003001Y-132983072D01*
X96003000Y-133571524D01*
X96000528Y-133576149D01*
X95949992Y-133742745D01*
X95932928Y-133915999D01*
X95932928Y-133959301D01*
X95907868Y-133979867D01*
X95765033Y-134153911D01*
X95702983Y-134270000D01*
X95658898Y-134352477D01*
X95593539Y-134567933D01*
X95571471Y-134792000D01*
X95577001Y-134848149D01*
X95577000Y-138594214D01*
X95523320Y-138610498D01*
X95413006Y-138669463D01*
X95316315Y-138748815D01*
X95236963Y-138845506D01*
X95177998Y-138955820D01*
X95141688Y-139075518D01*
X95129428Y-139200000D01*
X95129428Y-141200000D01*
X95141688Y-141324482D01*
X95177998Y-141444180D01*
X95236963Y-141554494D01*
X95316315Y-141651185D01*
X95413006Y-141730537D01*
X95523320Y-141789502D01*
X95643018Y-141825812D01*
X95767500Y-141838072D01*
X97672500Y-141838072D01*
X97796982Y-141825812D01*
X97916680Y-141789502D01*
X98026994Y-141730537D01*
X98123685Y-141651185D01*
X98203037Y-141554494D01*
X98247905Y-141470553D01*
X98373766Y-141573845D01*
X98416001Y-141596420D01*
X98416000Y-142080524D01*
X98413528Y-142085149D01*
X98362992Y-142251745D01*
X98345928Y-142424999D01*
X98345928Y-142743137D01*
X98324471Y-142961000D01*
X98330001Y-143017148D01*
X98330001Y-144257928D01*
X98223000Y-144257928D01*
X98098518Y-144270188D01*
X97978820Y-144306498D01*
X97868506Y-144365463D01*
X97771815Y-144444815D01*
X97692463Y-144541506D01*
X97633498Y-144651820D01*
X97597188Y-144771518D01*
X97584928Y-144896000D01*
X97584928Y-146696000D01*
X97597188Y-146820482D01*
X97633498Y-146940180D01*
X97692463Y-147050494D01*
X97771815Y-147147185D01*
X97868506Y-147226537D01*
X97978820Y-147285502D01*
X98098518Y-147321812D01*
X98223000Y-147334072D01*
X100723000Y-147334072D01*
X100847482Y-147321812D01*
X100967180Y-147285502D01*
X101077494Y-147226537D01*
X101174185Y-147147185D01*
X101253537Y-147050494D01*
X101312502Y-146940180D01*
X101348812Y-146820482D01*
X101361072Y-146696000D01*
X101584928Y-146696000D01*
X101597188Y-146820482D01*
X101633498Y-146940180D01*
X101692463Y-147050494D01*
X101771815Y-147147185D01*
X101868506Y-147226537D01*
X101978820Y-147285502D01*
X102098518Y-147321812D01*
X102223000Y-147334072D01*
X103187250Y-147331000D01*
X103346000Y-147172250D01*
X103346000Y-145923000D01*
X103600000Y-145923000D01*
X103600000Y-147172250D01*
X103758750Y-147331000D01*
X104723000Y-147334072D01*
X104847482Y-147321812D01*
X104967180Y-147285502D01*
X105077494Y-147226537D01*
X105174185Y-147147185D01*
X105253537Y-147050494D01*
X105312502Y-146940180D01*
X105348812Y-146820482D01*
X105361072Y-146696000D01*
X105358000Y-146081750D01*
X105199250Y-145923000D01*
X103600000Y-145923000D01*
X103346000Y-145923000D01*
X101746750Y-145923000D01*
X101588000Y-146081750D01*
X101584928Y-146696000D01*
X101361072Y-146696000D01*
X101361072Y-144896000D01*
X101584928Y-144896000D01*
X101588000Y-145510250D01*
X101746750Y-145669000D01*
X103346000Y-145669000D01*
X103346000Y-144419750D01*
X103600000Y-144419750D01*
X103600000Y-145669000D01*
X105199250Y-145669000D01*
X105358000Y-145510250D01*
X105361072Y-144896000D01*
X105348812Y-144771518D01*
X105312502Y-144651820D01*
X105253537Y-144541506D01*
X105174185Y-144444815D01*
X105077494Y-144365463D01*
X104967180Y-144306498D01*
X104847482Y-144270188D01*
X104723000Y-144257928D01*
X103758750Y-144261000D01*
X103600000Y-144419750D01*
X103346000Y-144419750D01*
X103187250Y-144261000D01*
X102223000Y-144257928D01*
X102098518Y-144270188D01*
X101978820Y-144306498D01*
X101868506Y-144365463D01*
X101771815Y-144444815D01*
X101692463Y-144541506D01*
X101633498Y-144651820D01*
X101597188Y-144771518D01*
X101584928Y-144896000D01*
X101361072Y-144896000D01*
X101348812Y-144771518D01*
X101312502Y-144651820D01*
X101253537Y-144541506D01*
X101174185Y-144444815D01*
X101077494Y-144365463D01*
X100967180Y-144306498D01*
X100847482Y-144270188D01*
X100723000Y-144257928D01*
X100616000Y-144257928D01*
X100616000Y-144053419D01*
X100679506Y-144105537D01*
X100789820Y-144164502D01*
X100909518Y-144200812D01*
X101034000Y-144213072D01*
X101323250Y-144210000D01*
X101482000Y-144051250D01*
X101482000Y-143002000D01*
X101736000Y-143002000D01*
X101736000Y-144051250D01*
X101894750Y-144210000D01*
X102184000Y-144213072D01*
X102308482Y-144200812D01*
X102428180Y-144164502D01*
X102538494Y-144105537D01*
X102635185Y-144026185D01*
X102714537Y-143929494D01*
X102773502Y-143819180D01*
X102809812Y-143699482D01*
X102822072Y-143575000D01*
X102819000Y-143160750D01*
X102660250Y-143002000D01*
X101736000Y-143002000D01*
X101482000Y-143002000D01*
X101462000Y-143002000D01*
X101462000Y-142748000D01*
X101482000Y-142748000D01*
X101482000Y-142728000D01*
X101736000Y-142728000D01*
X101736000Y-142748000D01*
X102660250Y-142748000D01*
X102819000Y-142589250D01*
X102822072Y-142175000D01*
X102809812Y-142050518D01*
X102773502Y-141930820D01*
X102714537Y-141820506D01*
X102635185Y-141723815D01*
X102538494Y-141644463D01*
X102536948Y-141643637D01*
X102666923Y-141575969D01*
X102909437Y-141381315D01*
X103109316Y-141143089D01*
X103258879Y-140870446D01*
X103352378Y-140573863D01*
X103225570Y-140327000D01*
X101927000Y-140327000D01*
X101927000Y-140347000D01*
X101673000Y-140347000D01*
X101673000Y-140327000D01*
X101653000Y-140327000D01*
X101653000Y-140073000D01*
X101673000Y-140073000D01*
X101673000Y-138729406D01*
X101927000Y-138729406D01*
X101927000Y-140073000D01*
X103225570Y-140073000D01*
X103352378Y-139826137D01*
X103258879Y-139529554D01*
X103109316Y-139256911D01*
X102909437Y-139018685D01*
X102666923Y-138824031D01*
X102391094Y-138680429D01*
X102172980Y-138609437D01*
X101927000Y-138729406D01*
X101673000Y-138729406D01*
X101427020Y-138609437D01*
X101208906Y-138680429D01*
X100933077Y-138824031D01*
X100690563Y-139018685D01*
X100535163Y-139203899D01*
X100387963Y-139024537D01*
X100146234Y-138826155D01*
X99870448Y-138678745D01*
X99571203Y-138587970D01*
X99260000Y-138557319D01*
X98948796Y-138587970D01*
X98649551Y-138678745D01*
X98373765Y-138826155D01*
X98247905Y-138929446D01*
X98203037Y-138845506D01*
X98123685Y-138748815D01*
X98026994Y-138669463D01*
X97916680Y-138610498D01*
X97863000Y-138594214D01*
X97863000Y-135608598D01*
X97964387Y-135554405D01*
X98098962Y-135443962D01*
X98171000Y-135356184D01*
X98243038Y-135443962D01*
X98377613Y-135554405D01*
X98531149Y-135636472D01*
X98697745Y-135687008D01*
X98870999Y-135704072D01*
X99521001Y-135704072D01*
X99694255Y-135687008D01*
X99860851Y-135636472D01*
X100014387Y-135554405D01*
X100069713Y-135509000D01*
X100894146Y-135509000D01*
X101062067Y-135492461D01*
X101277523Y-135427103D01*
X101476089Y-135320968D01*
X101650133Y-135178133D01*
X101792968Y-135004089D01*
X101899103Y-134805523D01*
X101964461Y-134590067D01*
X101986530Y-134366000D01*
X101964461Y-134141933D01*
X101899103Y-133926477D01*
X101792968Y-133727911D01*
X101650133Y-133553867D01*
X101476089Y-133411032D01*
X101277523Y-133304897D01*
X101062067Y-133239539D01*
X100894146Y-133223000D01*
X100069713Y-133223000D01*
X100014387Y-133177595D01*
X99860851Y-133095528D01*
X99694255Y-133044992D01*
X99521001Y-133027928D01*
X98870999Y-133027928D01*
X98697745Y-133044992D01*
X98531149Y-133095528D01*
X98377613Y-133177595D01*
X98289000Y-133250318D01*
X98289000Y-132972632D01*
X98307482Y-132970812D01*
X98427180Y-132934502D01*
X98537494Y-132875537D01*
X98634185Y-132796185D01*
X98713537Y-132699494D01*
X98772502Y-132589180D01*
X98808812Y-132469482D01*
X98821072Y-132345000D01*
X99044928Y-132345000D01*
X99057188Y-132469482D01*
X99093498Y-132589180D01*
X99152463Y-132699494D01*
X99231815Y-132796185D01*
X99328506Y-132875537D01*
X99438820Y-132934502D01*
X99558518Y-132970812D01*
X99683000Y-132983072D01*
X100647250Y-132980000D01*
X100806000Y-132821250D01*
X100806000Y-131572000D01*
X101060000Y-131572000D01*
X101060000Y-132821250D01*
X101218750Y-132980000D01*
X102183000Y-132983072D01*
X102307482Y-132970812D01*
X102427180Y-132934502D01*
X102537494Y-132875537D01*
X102634185Y-132796185D01*
X102713537Y-132699494D01*
X102772502Y-132589180D01*
X102808812Y-132469482D01*
X102821072Y-132345000D01*
X102818000Y-131730750D01*
X102659250Y-131572000D01*
X101060000Y-131572000D01*
X100806000Y-131572000D01*
X99206750Y-131572000D01*
X99048000Y-131730750D01*
X99044928Y-132345000D01*
X98821072Y-132345000D01*
X98821072Y-130545000D01*
X99044928Y-130545000D01*
X99048000Y-131159250D01*
X99206750Y-131318000D01*
X100806000Y-131318000D01*
X100806000Y-130068750D01*
X101060000Y-130068750D01*
X101060000Y-131318000D01*
X102659250Y-131318000D01*
X102818000Y-131159250D01*
X102821072Y-130545000D01*
X102808812Y-130420518D01*
X102772502Y-130300820D01*
X102713537Y-130190506D01*
X102634185Y-130093815D01*
X102537494Y-130014463D01*
X102427180Y-129955498D01*
X102307482Y-129919188D01*
X102183000Y-129906928D01*
X101218750Y-129910000D01*
X101060000Y-130068750D01*
X100806000Y-130068750D01*
X100647250Y-129910000D01*
X99683000Y-129906928D01*
X99558518Y-129919188D01*
X99438820Y-129955498D01*
X99328506Y-130014463D01*
X99231815Y-130093815D01*
X99152463Y-130190506D01*
X99093498Y-130300820D01*
X99057188Y-130420518D01*
X99044928Y-130545000D01*
X98821072Y-130545000D01*
X98808812Y-130420518D01*
X98772502Y-130300820D01*
X98713537Y-130190506D01*
X98634185Y-130093815D01*
X98537494Y-130014463D01*
X98427180Y-129955498D01*
X98380800Y-129941429D01*
X98380800Y-128905000D01*
X104109102Y-128905000D01*
X104059752Y-129067684D01*
X104042928Y-129238500D01*
X104042928Y-129257795D01*
X104029539Y-129301933D01*
X104007470Y-129526000D01*
X104029539Y-129750067D01*
X104042928Y-129794205D01*
X104042928Y-129813500D01*
X104059752Y-129984316D01*
X104109577Y-130148567D01*
X104190488Y-130299942D01*
X104299377Y-130432623D01*
X104432058Y-130541512D01*
X104583433Y-130622423D01*
X104747684Y-130672248D01*
X104918500Y-130689072D01*
X105393500Y-130689072D01*
X105564316Y-130672248D01*
X105575023Y-130669000D01*
X106553000Y-130669000D01*
X106553000Y-148463000D01*
X87865287Y-148463000D01*
X88081115Y-148200012D01*
X88272400Y-147842142D01*
X88390193Y-147453831D01*
X88420000Y-147151196D01*
X88420000Y-144948804D01*
X88390193Y-144646169D01*
X88272400Y-144257858D01*
X88081115Y-143899988D01*
X87823688Y-143586312D01*
X87510012Y-143328885D01*
X87152141Y-143137600D01*
X86763830Y-143019807D01*
X86360000Y-142980033D01*
X85956169Y-143019807D01*
X85567858Y-143137600D01*
X85209988Y-143328885D01*
X84896312Y-143586312D01*
X84638885Y-143899988D01*
X84447600Y-144257859D01*
X84329807Y-144646170D01*
X84300000Y-144948805D01*
X84300001Y-147151196D01*
X84329808Y-147453831D01*
X84447601Y-147842142D01*
X84638886Y-148200012D01*
X84854714Y-148463000D01*
X64897000Y-148463000D01*
X64897000Y-146454097D01*
X64925820Y-146469502D01*
X65045518Y-146505812D01*
X65170000Y-146518072D01*
X65754250Y-146515000D01*
X65913000Y-146356250D01*
X65913000Y-144907000D01*
X65893000Y-144907000D01*
X65893000Y-144653000D01*
X65913000Y-144653000D01*
X65913000Y-143203750D01*
X66167000Y-143203750D01*
X66167000Y-144653000D01*
X66187000Y-144653000D01*
X66187000Y-144907000D01*
X66167000Y-144907000D01*
X66167000Y-146356250D01*
X66325750Y-146515000D01*
X66910000Y-146518072D01*
X67034482Y-146505812D01*
X67154180Y-146469502D01*
X67264494Y-146410537D01*
X67361185Y-146331185D01*
X67440537Y-146234494D01*
X67499502Y-146124180D01*
X67512615Y-146080953D01*
X67739822Y-146267417D01*
X68001276Y-146407166D01*
X68284969Y-146493224D01*
X68580000Y-146522282D01*
X68875032Y-146493224D01*
X69158725Y-146407166D01*
X69420179Y-146267417D01*
X69649345Y-146079345D01*
X69812943Y-145880000D01*
X75961928Y-145880000D01*
X75974188Y-146004482D01*
X76010498Y-146124180D01*
X76069463Y-146234494D01*
X76148815Y-146331185D01*
X76245506Y-146410537D01*
X76355820Y-146469502D01*
X76475518Y-146505812D01*
X76600000Y-146518072D01*
X77184250Y-146515000D01*
X77343000Y-146356250D01*
X77343000Y-144907000D01*
X76123750Y-144907000D01*
X75965000Y-145065750D01*
X75961928Y-145880000D01*
X69812943Y-145880000D01*
X69837417Y-145850179D01*
X69977166Y-145588724D01*
X70063224Y-145305031D01*
X70085000Y-145083935D01*
X70085000Y-144476064D01*
X70063224Y-144254968D01*
X69977166Y-143971275D01*
X69837417Y-143709821D01*
X69812944Y-143680000D01*
X75961928Y-143680000D01*
X75965000Y-144494250D01*
X76123750Y-144653000D01*
X77343000Y-144653000D01*
X77343000Y-143203750D01*
X77597000Y-143203750D01*
X77597000Y-144653000D01*
X77617000Y-144653000D01*
X77617000Y-144907000D01*
X77597000Y-144907000D01*
X77597000Y-146356250D01*
X77755750Y-146515000D01*
X78340000Y-146518072D01*
X78464482Y-146505812D01*
X78584180Y-146469502D01*
X78694494Y-146410537D01*
X78791185Y-146331185D01*
X78870537Y-146234494D01*
X78929502Y-146124180D01*
X78942615Y-146080953D01*
X79169822Y-146267417D01*
X79431276Y-146407166D01*
X79714969Y-146493224D01*
X80010000Y-146522282D01*
X80305032Y-146493224D01*
X80588725Y-146407166D01*
X80850179Y-146267417D01*
X81079345Y-146079345D01*
X81267417Y-145850179D01*
X81407166Y-145588724D01*
X81493224Y-145305031D01*
X81515000Y-145083935D01*
X81515000Y-144476064D01*
X81493224Y-144254968D01*
X81407166Y-143971275D01*
X81267417Y-143709821D01*
X81079345Y-143480655D01*
X80850178Y-143292583D01*
X80588724Y-143152834D01*
X80305031Y-143066776D01*
X80010000Y-143037718D01*
X79714968Y-143066776D01*
X79431275Y-143152834D01*
X79169821Y-143292583D01*
X78942615Y-143479047D01*
X78929502Y-143435820D01*
X78870537Y-143325506D01*
X78791185Y-143228815D01*
X78694494Y-143149463D01*
X78584180Y-143090498D01*
X78464482Y-143054188D01*
X78340000Y-143041928D01*
X77755750Y-143045000D01*
X77597000Y-143203750D01*
X77343000Y-143203750D01*
X77184250Y-143045000D01*
X76600000Y-143041928D01*
X76475518Y-143054188D01*
X76355820Y-143090498D01*
X76245506Y-143149463D01*
X76148815Y-143228815D01*
X76069463Y-143325506D01*
X76010498Y-143435820D01*
X75974188Y-143555518D01*
X75961928Y-143680000D01*
X69812944Y-143680000D01*
X69649345Y-143480655D01*
X69420178Y-143292583D01*
X69158724Y-143152834D01*
X68875031Y-143066776D01*
X68580000Y-143037718D01*
X68284968Y-143066776D01*
X68001275Y-143152834D01*
X67739821Y-143292583D01*
X67512615Y-143479047D01*
X67499502Y-143435820D01*
X67440537Y-143325506D01*
X67361185Y-143228815D01*
X67264494Y-143149463D01*
X67154180Y-143090498D01*
X67034482Y-143054188D01*
X66910000Y-143041928D01*
X66325750Y-143045000D01*
X66167000Y-143203750D01*
X65913000Y-143203750D01*
X65754250Y-143045000D01*
X65170000Y-143041928D01*
X65045518Y-143054188D01*
X64925820Y-143090498D01*
X64897000Y-143105903D01*
X64897000Y-142367000D01*
X83820000Y-142367000D01*
X83844776Y-142364560D01*
X83868601Y-142357333D01*
X83890557Y-142345597D01*
X83909803Y-142329803D01*
X83925597Y-142310557D01*
X83937333Y-142288601D01*
X83944560Y-142264776D01*
X83947000Y-142240000D01*
X83947000Y-136658072D01*
X84057500Y-136658072D01*
X84228316Y-136641248D01*
X84392567Y-136591423D01*
X84543942Y-136510512D01*
X84676623Y-136401623D01*
X84732777Y-136333200D01*
X85657837Y-136333200D01*
X85699000Y-136337254D01*
X85740163Y-136333200D01*
X85740170Y-136333200D01*
X85863316Y-136321071D01*
X86021317Y-136273142D01*
X86166932Y-136195309D01*
X86294564Y-136090564D01*
X86320811Y-136058582D01*
X89644357Y-132735036D01*
X89734665Y-132753000D01*
X90017335Y-132753000D01*
X90294574Y-132697853D01*
X90555727Y-132589680D01*
X90790759Y-132432637D01*
X90990637Y-132232759D01*
X91147680Y-131997727D01*
X91255853Y-131736574D01*
X91311000Y-131459335D01*
X91311000Y-131176665D01*
X91255853Y-130899426D01*
X91147680Y-130638273D01*
X90990637Y-130403241D01*
X90790759Y-130203363D01*
X90555727Y-130046320D01*
X90294574Y-129938147D01*
X90017335Y-129883000D01*
X89734665Y-129883000D01*
X89457426Y-129938147D01*
X89196273Y-130046320D01*
X88961241Y-130203363D01*
X88794661Y-130369943D01*
X88765502Y-130273820D01*
X88706537Y-130163506D01*
X88627185Y-130066815D01*
X88530494Y-129987463D01*
X88420180Y-129928498D01*
X88300482Y-129892188D01*
X88176000Y-129879928D01*
X87661750Y-129883000D01*
X87503000Y-130041750D01*
X87503000Y-131191000D01*
X87523000Y-131191000D01*
X87523000Y-131445000D01*
X87503000Y-131445000D01*
X87503000Y-131465000D01*
X87249000Y-131465000D01*
X87249000Y-131445000D01*
X86099750Y-131445000D01*
X85941000Y-131603750D01*
X85937928Y-132118000D01*
X85950188Y-132242482D01*
X85986498Y-132362180D01*
X86045463Y-132472494D01*
X86124815Y-132569185D01*
X86221506Y-132648537D01*
X86331820Y-132707502D01*
X86451518Y-132743812D01*
X86576000Y-132756072D01*
X87090250Y-132753000D01*
X87248998Y-132594252D01*
X87248998Y-132753000D01*
X87255606Y-132753000D01*
X85351807Y-134656800D01*
X84799024Y-134656800D01*
X84825537Y-134624494D01*
X84884502Y-134514180D01*
X84920812Y-134394482D01*
X84933072Y-134270000D01*
X84930000Y-134030750D01*
X84771250Y-133872000D01*
X83947000Y-133872000D01*
X83947000Y-133618000D01*
X84771250Y-133618000D01*
X84930000Y-133459250D01*
X84933072Y-133220000D01*
X84920812Y-133095518D01*
X84884502Y-132975820D01*
X84825537Y-132865506D01*
X84746185Y-132768815D01*
X84649494Y-132689463D01*
X84539180Y-132630498D01*
X84419482Y-132594188D01*
X84295000Y-132581928D01*
X84105750Y-132585000D01*
X83947002Y-132743748D01*
X83947002Y-132585000D01*
X83947000Y-132585000D01*
X83947000Y-130518000D01*
X85937928Y-130518000D01*
X85941000Y-131032250D01*
X86099750Y-131191000D01*
X87249000Y-131191000D01*
X87249000Y-130041750D01*
X87090250Y-129883000D01*
X86576000Y-129879928D01*
X86451518Y-129892188D01*
X86331820Y-129928498D01*
X86221506Y-129987463D01*
X86124815Y-130066815D01*
X86045463Y-130163506D01*
X85986498Y-130273820D01*
X85950188Y-130393518D01*
X85937928Y-130518000D01*
X83947000Y-130518000D01*
X83947000Y-128905000D01*
X95485200Y-128905000D01*
X95485200Y-129941429D01*
X95485200Y-129941429D01*
G37*
X95485200Y-129941429D02*
X95438820Y-129955498D01*
X95328506Y-130014463D01*
X95231815Y-130093815D01*
X95152463Y-130190506D01*
X95093498Y-130300820D01*
X95057188Y-130420518D01*
X95044928Y-130545000D01*
X95044928Y-132345000D01*
X95057188Y-132469482D01*
X95093498Y-132589180D01*
X95152463Y-132699494D01*
X95231815Y-132796185D01*
X95328506Y-132875537D01*
X95438820Y-132934502D01*
X95558518Y-132970812D01*
X95683000Y-132983072D01*
X96003001Y-132983072D01*
X96003000Y-133571524D01*
X96000528Y-133576149D01*
X95949992Y-133742745D01*
X95932928Y-133915999D01*
X95932928Y-133959301D01*
X95907868Y-133979867D01*
X95765033Y-134153911D01*
X95702983Y-134270000D01*
X95658898Y-134352477D01*
X95593539Y-134567933D01*
X95571471Y-134792000D01*
X95577001Y-134848149D01*
X95577000Y-138594214D01*
X95523320Y-138610498D01*
X95413006Y-138669463D01*
X95316315Y-138748815D01*
X95236963Y-138845506D01*
X95177998Y-138955820D01*
X95141688Y-139075518D01*
X95129428Y-139200000D01*
X95129428Y-141200000D01*
X95141688Y-141324482D01*
X95177998Y-141444180D01*
X95236963Y-141554494D01*
X95316315Y-141651185D01*
X95413006Y-141730537D01*
X95523320Y-141789502D01*
X95643018Y-141825812D01*
X95767500Y-141838072D01*
X97672500Y-141838072D01*
X97796982Y-141825812D01*
X97916680Y-141789502D01*
X98026994Y-141730537D01*
X98123685Y-141651185D01*
X98203037Y-141554494D01*
X98247905Y-141470553D01*
X98373766Y-141573845D01*
X98416001Y-141596420D01*
X98416000Y-142080524D01*
X98413528Y-142085149D01*
X98362992Y-142251745D01*
X98345928Y-142424999D01*
X98345928Y-142743137D01*
X98324471Y-142961000D01*
X98330001Y-143017148D01*
X98330001Y-144257928D01*
X98223000Y-144257928D01*
X98098518Y-144270188D01*
X97978820Y-144306498D01*
X97868506Y-144365463D01*
X97771815Y-144444815D01*
X97692463Y-144541506D01*
X97633498Y-144651820D01*
X97597188Y-144771518D01*
X97584928Y-144896000D01*
X97584928Y-146696000D01*
X97597188Y-146820482D01*
X97633498Y-146940180D01*
X97692463Y-147050494D01*
X97771815Y-147147185D01*
X97868506Y-147226537D01*
X97978820Y-147285502D01*
X98098518Y-147321812D01*
X98223000Y-147334072D01*
X100723000Y-147334072D01*
X100847482Y-147321812D01*
X100967180Y-147285502D01*
X101077494Y-147226537D01*
X101174185Y-147147185D01*
X101253537Y-147050494D01*
X101312502Y-146940180D01*
X101348812Y-146820482D01*
X101361072Y-146696000D01*
X101584928Y-146696000D01*
X101597188Y-146820482D01*
X101633498Y-146940180D01*
X101692463Y-147050494D01*
X101771815Y-147147185D01*
X101868506Y-147226537D01*
X101978820Y-147285502D01*
X102098518Y-147321812D01*
X102223000Y-147334072D01*
X103187250Y-147331000D01*
X103346000Y-147172250D01*
X103346000Y-145923000D01*
X103600000Y-145923000D01*
X103600000Y-147172250D01*
X103758750Y-147331000D01*
X104723000Y-147334072D01*
X104847482Y-147321812D01*
X104967180Y-147285502D01*
X105077494Y-147226537D01*
X105174185Y-147147185D01*
X105253537Y-147050494D01*
X105312502Y-146940180D01*
X105348812Y-146820482D01*
X105361072Y-146696000D01*
X105358000Y-146081750D01*
X105199250Y-145923000D01*
X103600000Y-145923000D01*
X103346000Y-145923000D01*
X101746750Y-145923000D01*
X101588000Y-146081750D01*
X101584928Y-146696000D01*
X101361072Y-146696000D01*
X101361072Y-144896000D01*
X101584928Y-144896000D01*
X101588000Y-145510250D01*
X101746750Y-145669000D01*
X103346000Y-145669000D01*
X103346000Y-144419750D01*
X103600000Y-144419750D01*
X103600000Y-145669000D01*
X105199250Y-145669000D01*
X105358000Y-145510250D01*
X105361072Y-144896000D01*
X105348812Y-144771518D01*
X105312502Y-144651820D01*
X105253537Y-144541506D01*
X105174185Y-144444815D01*
X105077494Y-144365463D01*
X104967180Y-144306498D01*
X104847482Y-144270188D01*
X104723000Y-144257928D01*
X103758750Y-144261000D01*
X103600000Y-144419750D01*
X103346000Y-144419750D01*
X103187250Y-144261000D01*
X102223000Y-144257928D01*
X102098518Y-144270188D01*
X101978820Y-144306498D01*
X101868506Y-144365463D01*
X101771815Y-144444815D01*
X101692463Y-144541506D01*
X101633498Y-144651820D01*
X101597188Y-144771518D01*
X101584928Y-144896000D01*
X101361072Y-144896000D01*
X101348812Y-144771518D01*
X101312502Y-144651820D01*
X101253537Y-144541506D01*
X101174185Y-144444815D01*
X101077494Y-144365463D01*
X100967180Y-144306498D01*
X100847482Y-144270188D01*
X100723000Y-144257928D01*
X100616000Y-144257928D01*
X100616000Y-144053419D01*
X100679506Y-144105537D01*
X100789820Y-144164502D01*
X100909518Y-144200812D01*
X101034000Y-144213072D01*
X101323250Y-144210000D01*
X101482000Y-144051250D01*
X101482000Y-143002000D01*
X101736000Y-143002000D01*
X101736000Y-144051250D01*
X101894750Y-144210000D01*
X102184000Y-144213072D01*
X102308482Y-144200812D01*
X102428180Y-144164502D01*
X102538494Y-144105537D01*
X102635185Y-144026185D01*
X102714537Y-143929494D01*
X102773502Y-143819180D01*
X102809812Y-143699482D01*
X102822072Y-143575000D01*
X102819000Y-143160750D01*
X102660250Y-143002000D01*
X101736000Y-143002000D01*
X101482000Y-143002000D01*
X101462000Y-143002000D01*
X101462000Y-142748000D01*
X101482000Y-142748000D01*
X101482000Y-142728000D01*
X101736000Y-142728000D01*
X101736000Y-142748000D01*
X102660250Y-142748000D01*
X102819000Y-142589250D01*
X102822072Y-142175000D01*
X102809812Y-142050518D01*
X102773502Y-141930820D01*
X102714537Y-141820506D01*
X102635185Y-141723815D01*
X102538494Y-141644463D01*
X102536948Y-141643637D01*
X102666923Y-141575969D01*
X102909437Y-141381315D01*
X103109316Y-141143089D01*
X103258879Y-140870446D01*
X103352378Y-140573863D01*
X103225570Y-140327000D01*
X101927000Y-140327000D01*
X101927000Y-140347000D01*
X101673000Y-140347000D01*
X101673000Y-140327000D01*
X101653000Y-140327000D01*
X101653000Y-140073000D01*
X101673000Y-140073000D01*
X101673000Y-138729406D01*
X101927000Y-138729406D01*
X101927000Y-140073000D01*
X103225570Y-140073000D01*
X103352378Y-139826137D01*
X103258879Y-139529554D01*
X103109316Y-139256911D01*
X102909437Y-139018685D01*
X102666923Y-138824031D01*
X102391094Y-138680429D01*
X102172980Y-138609437D01*
X101927000Y-138729406D01*
X101673000Y-138729406D01*
X101427020Y-138609437D01*
X101208906Y-138680429D01*
X100933077Y-138824031D01*
X100690563Y-139018685D01*
X100535163Y-139203899D01*
X100387963Y-139024537D01*
X100146234Y-138826155D01*
X99870448Y-138678745D01*
X99571203Y-138587970D01*
X99260000Y-138557319D01*
X98948796Y-138587970D01*
X98649551Y-138678745D01*
X98373765Y-138826155D01*
X98247905Y-138929446D01*
X98203037Y-138845506D01*
X98123685Y-138748815D01*
X98026994Y-138669463D01*
X97916680Y-138610498D01*
X97863000Y-138594214D01*
X97863000Y-135608598D01*
X97964387Y-135554405D01*
X98098962Y-135443962D01*
X98171000Y-135356184D01*
X98243038Y-135443962D01*
X98377613Y-135554405D01*
X98531149Y-135636472D01*
X98697745Y-135687008D01*
X98870999Y-135704072D01*
X99521001Y-135704072D01*
X99694255Y-135687008D01*
X99860851Y-135636472D01*
X100014387Y-135554405D01*
X100069713Y-135509000D01*
X100894146Y-135509000D01*
X101062067Y-135492461D01*
X101277523Y-135427103D01*
X101476089Y-135320968D01*
X101650133Y-135178133D01*
X101792968Y-135004089D01*
X101899103Y-134805523D01*
X101964461Y-134590067D01*
X101986530Y-134366000D01*
X101964461Y-134141933D01*
X101899103Y-133926477D01*
X101792968Y-133727911D01*
X101650133Y-133553867D01*
X101476089Y-133411032D01*
X101277523Y-133304897D01*
X101062067Y-133239539D01*
X100894146Y-133223000D01*
X100069713Y-133223000D01*
X100014387Y-133177595D01*
X99860851Y-133095528D01*
X99694255Y-133044992D01*
X99521001Y-133027928D01*
X98870999Y-133027928D01*
X98697745Y-133044992D01*
X98531149Y-133095528D01*
X98377613Y-133177595D01*
X98289000Y-133250318D01*
X98289000Y-132972632D01*
X98307482Y-132970812D01*
X98427180Y-132934502D01*
X98537494Y-132875537D01*
X98634185Y-132796185D01*
X98713537Y-132699494D01*
X98772502Y-132589180D01*
X98808812Y-132469482D01*
X98821072Y-132345000D01*
X99044928Y-132345000D01*
X99057188Y-132469482D01*
X99093498Y-132589180D01*
X99152463Y-132699494D01*
X99231815Y-132796185D01*
X99328506Y-132875537D01*
X99438820Y-132934502D01*
X99558518Y-132970812D01*
X99683000Y-132983072D01*
X100647250Y-132980000D01*
X100806000Y-132821250D01*
X100806000Y-131572000D01*
X101060000Y-131572000D01*
X101060000Y-132821250D01*
X101218750Y-132980000D01*
X102183000Y-132983072D01*
X102307482Y-132970812D01*
X102427180Y-132934502D01*
X102537494Y-132875537D01*
X102634185Y-132796185D01*
X102713537Y-132699494D01*
X102772502Y-132589180D01*
X102808812Y-132469482D01*
X102821072Y-132345000D01*
X102818000Y-131730750D01*
X102659250Y-131572000D01*
X101060000Y-131572000D01*
X100806000Y-131572000D01*
X99206750Y-131572000D01*
X99048000Y-131730750D01*
X99044928Y-132345000D01*
X98821072Y-132345000D01*
X98821072Y-130545000D01*
X99044928Y-130545000D01*
X99048000Y-131159250D01*
X99206750Y-131318000D01*
X100806000Y-131318000D01*
X100806000Y-130068750D01*
X101060000Y-130068750D01*
X101060000Y-131318000D01*
X102659250Y-131318000D01*
X102818000Y-131159250D01*
X102821072Y-130545000D01*
X102808812Y-130420518D01*
X102772502Y-130300820D01*
X102713537Y-130190506D01*
X102634185Y-130093815D01*
X102537494Y-130014463D01*
X102427180Y-129955498D01*
X102307482Y-129919188D01*
X102183000Y-129906928D01*
X101218750Y-129910000D01*
X101060000Y-130068750D01*
X100806000Y-130068750D01*
X100647250Y-129910000D01*
X99683000Y-129906928D01*
X99558518Y-129919188D01*
X99438820Y-129955498D01*
X99328506Y-130014463D01*
X99231815Y-130093815D01*
X99152463Y-130190506D01*
X99093498Y-130300820D01*
X99057188Y-130420518D01*
X99044928Y-130545000D01*
X98821072Y-130545000D01*
X98808812Y-130420518D01*
X98772502Y-130300820D01*
X98713537Y-130190506D01*
X98634185Y-130093815D01*
X98537494Y-130014463D01*
X98427180Y-129955498D01*
X98380800Y-129941429D01*
X98380800Y-128905000D01*
X104109102Y-128905000D01*
X104059752Y-129067684D01*
X104042928Y-129238500D01*
X104042928Y-129257795D01*
X104029539Y-129301933D01*
X104007470Y-129526000D01*
X104029539Y-129750067D01*
X104042928Y-129794205D01*
X104042928Y-129813500D01*
X104059752Y-129984316D01*
X104109577Y-130148567D01*
X104190488Y-130299942D01*
X104299377Y-130432623D01*
X104432058Y-130541512D01*
X104583433Y-130622423D01*
X104747684Y-130672248D01*
X104918500Y-130689072D01*
X105393500Y-130689072D01*
X105564316Y-130672248D01*
X105575023Y-130669000D01*
X106553000Y-130669000D01*
X106553000Y-148463000D01*
X87865287Y-148463000D01*
X88081115Y-148200012D01*
X88272400Y-147842142D01*
X88390193Y-147453831D01*
X88420000Y-147151196D01*
X88420000Y-144948804D01*
X88390193Y-144646169D01*
X88272400Y-144257858D01*
X88081115Y-143899988D01*
X87823688Y-143586312D01*
X87510012Y-143328885D01*
X87152141Y-143137600D01*
X86763830Y-143019807D01*
X86360000Y-142980033D01*
X85956169Y-143019807D01*
X85567858Y-143137600D01*
X85209988Y-143328885D01*
X84896312Y-143586312D01*
X84638885Y-143899988D01*
X84447600Y-144257859D01*
X84329807Y-144646170D01*
X84300000Y-144948805D01*
X84300001Y-147151196D01*
X84329808Y-147453831D01*
X84447601Y-147842142D01*
X84638886Y-148200012D01*
X84854714Y-148463000D01*
X64897000Y-148463000D01*
X64897000Y-146454097D01*
X64925820Y-146469502D01*
X65045518Y-146505812D01*
X65170000Y-146518072D01*
X65754250Y-146515000D01*
X65913000Y-146356250D01*
X65913000Y-144907000D01*
X65893000Y-144907000D01*
X65893000Y-144653000D01*
X65913000Y-144653000D01*
X65913000Y-143203750D01*
X66167000Y-143203750D01*
X66167000Y-144653000D01*
X66187000Y-144653000D01*
X66187000Y-144907000D01*
X66167000Y-144907000D01*
X66167000Y-146356250D01*
X66325750Y-146515000D01*
X66910000Y-146518072D01*
X67034482Y-146505812D01*
X67154180Y-146469502D01*
X67264494Y-146410537D01*
X67361185Y-146331185D01*
X67440537Y-146234494D01*
X67499502Y-146124180D01*
X67512615Y-146080953D01*
X67739822Y-146267417D01*
X68001276Y-146407166D01*
X68284969Y-146493224D01*
X68580000Y-146522282D01*
X68875032Y-146493224D01*
X69158725Y-146407166D01*
X69420179Y-146267417D01*
X69649345Y-146079345D01*
X69812943Y-145880000D01*
X75961928Y-145880000D01*
X75974188Y-146004482D01*
X76010498Y-146124180D01*
X76069463Y-146234494D01*
X76148815Y-146331185D01*
X76245506Y-146410537D01*
X76355820Y-146469502D01*
X76475518Y-146505812D01*
X76600000Y-146518072D01*
X77184250Y-146515000D01*
X77343000Y-146356250D01*
X77343000Y-144907000D01*
X76123750Y-144907000D01*
X75965000Y-145065750D01*
X75961928Y-145880000D01*
X69812943Y-145880000D01*
X69837417Y-145850179D01*
X69977166Y-145588724D01*
X70063224Y-145305031D01*
X70085000Y-145083935D01*
X70085000Y-144476064D01*
X70063224Y-144254968D01*
X69977166Y-143971275D01*
X69837417Y-143709821D01*
X69812944Y-143680000D01*
X75961928Y-143680000D01*
X75965000Y-144494250D01*
X76123750Y-144653000D01*
X77343000Y-144653000D01*
X77343000Y-143203750D01*
X77597000Y-143203750D01*
X77597000Y-144653000D01*
X77617000Y-144653000D01*
X77617000Y-144907000D01*
X77597000Y-144907000D01*
X77597000Y-146356250D01*
X77755750Y-146515000D01*
X78340000Y-146518072D01*
X78464482Y-146505812D01*
X78584180Y-146469502D01*
X78694494Y-146410537D01*
X78791185Y-146331185D01*
X78870537Y-146234494D01*
X78929502Y-146124180D01*
X78942615Y-146080953D01*
X79169822Y-146267417D01*
X79431276Y-146407166D01*
X79714969Y-146493224D01*
X80010000Y-146522282D01*
X80305032Y-146493224D01*
X80588725Y-146407166D01*
X80850179Y-146267417D01*
X81079345Y-146079345D01*
X81267417Y-145850179D01*
X81407166Y-145588724D01*
X81493224Y-145305031D01*
X81515000Y-145083935D01*
X81515000Y-144476064D01*
X81493224Y-144254968D01*
X81407166Y-143971275D01*
X81267417Y-143709821D01*
X81079345Y-143480655D01*
X80850178Y-143292583D01*
X80588724Y-143152834D01*
X80305031Y-143066776D01*
X80010000Y-143037718D01*
X79714968Y-143066776D01*
X79431275Y-143152834D01*
X79169821Y-143292583D01*
X78942615Y-143479047D01*
X78929502Y-143435820D01*
X78870537Y-143325506D01*
X78791185Y-143228815D01*
X78694494Y-143149463D01*
X78584180Y-143090498D01*
X78464482Y-143054188D01*
X78340000Y-143041928D01*
X77755750Y-143045000D01*
X77597000Y-143203750D01*
X77343000Y-143203750D01*
X77184250Y-143045000D01*
X76600000Y-143041928D01*
X76475518Y-143054188D01*
X76355820Y-143090498D01*
X76245506Y-143149463D01*
X76148815Y-143228815D01*
X76069463Y-143325506D01*
X76010498Y-143435820D01*
X75974188Y-143555518D01*
X75961928Y-143680000D01*
X69812944Y-143680000D01*
X69649345Y-143480655D01*
X69420178Y-143292583D01*
X69158724Y-143152834D01*
X68875031Y-143066776D01*
X68580000Y-143037718D01*
X68284968Y-143066776D01*
X68001275Y-143152834D01*
X67739821Y-143292583D01*
X67512615Y-143479047D01*
X67499502Y-143435820D01*
X67440537Y-143325506D01*
X67361185Y-143228815D01*
X67264494Y-143149463D01*
X67154180Y-143090498D01*
X67034482Y-143054188D01*
X66910000Y-143041928D01*
X66325750Y-143045000D01*
X66167000Y-143203750D01*
X65913000Y-143203750D01*
X65754250Y-143045000D01*
X65170000Y-143041928D01*
X65045518Y-143054188D01*
X64925820Y-143090498D01*
X64897000Y-143105903D01*
X64897000Y-142367000D01*
X83820000Y-142367000D01*
X83844776Y-142364560D01*
X83868601Y-142357333D01*
X83890557Y-142345597D01*
X83909803Y-142329803D01*
X83925597Y-142310557D01*
X83937333Y-142288601D01*
X83944560Y-142264776D01*
X83947000Y-142240000D01*
X83947000Y-136658072D01*
X84057500Y-136658072D01*
X84228316Y-136641248D01*
X84392567Y-136591423D01*
X84543942Y-136510512D01*
X84676623Y-136401623D01*
X84732777Y-136333200D01*
X85657837Y-136333200D01*
X85699000Y-136337254D01*
X85740163Y-136333200D01*
X85740170Y-136333200D01*
X85863316Y-136321071D01*
X86021317Y-136273142D01*
X86166932Y-136195309D01*
X86294564Y-136090564D01*
X86320811Y-136058582D01*
X89644357Y-132735036D01*
X89734665Y-132753000D01*
X90017335Y-132753000D01*
X90294574Y-132697853D01*
X90555727Y-132589680D01*
X90790759Y-132432637D01*
X90990637Y-132232759D01*
X91147680Y-131997727D01*
X91255853Y-131736574D01*
X91311000Y-131459335D01*
X91311000Y-131176665D01*
X91255853Y-130899426D01*
X91147680Y-130638273D01*
X90990637Y-130403241D01*
X90790759Y-130203363D01*
X90555727Y-130046320D01*
X90294574Y-129938147D01*
X90017335Y-129883000D01*
X89734665Y-129883000D01*
X89457426Y-129938147D01*
X89196273Y-130046320D01*
X88961241Y-130203363D01*
X88794661Y-130369943D01*
X88765502Y-130273820D01*
X88706537Y-130163506D01*
X88627185Y-130066815D01*
X88530494Y-129987463D01*
X88420180Y-129928498D01*
X88300482Y-129892188D01*
X88176000Y-129879928D01*
X87661750Y-129883000D01*
X87503000Y-130041750D01*
X87503000Y-131191000D01*
X87523000Y-131191000D01*
X87523000Y-131445000D01*
X87503000Y-131445000D01*
X87503000Y-131465000D01*
X87249000Y-131465000D01*
X87249000Y-131445000D01*
X86099750Y-131445000D01*
X85941000Y-131603750D01*
X85937928Y-132118000D01*
X85950188Y-132242482D01*
X85986498Y-132362180D01*
X86045463Y-132472494D01*
X86124815Y-132569185D01*
X86221506Y-132648537D01*
X86331820Y-132707502D01*
X86451518Y-132743812D01*
X86576000Y-132756072D01*
X87090250Y-132753000D01*
X87248998Y-132594252D01*
X87248998Y-132753000D01*
X87255606Y-132753000D01*
X85351807Y-134656800D01*
X84799024Y-134656800D01*
X84825537Y-134624494D01*
X84884502Y-134514180D01*
X84920812Y-134394482D01*
X84933072Y-134270000D01*
X84930000Y-134030750D01*
X84771250Y-133872000D01*
X83947000Y-133872000D01*
X83947000Y-133618000D01*
X84771250Y-133618000D01*
X84930000Y-133459250D01*
X84933072Y-133220000D01*
X84920812Y-133095518D01*
X84884502Y-132975820D01*
X84825537Y-132865506D01*
X84746185Y-132768815D01*
X84649494Y-132689463D01*
X84539180Y-132630498D01*
X84419482Y-132594188D01*
X84295000Y-132581928D01*
X84105750Y-132585000D01*
X83947002Y-132743748D01*
X83947002Y-132585000D01*
X83947000Y-132585000D01*
X83947000Y-130518000D01*
X85937928Y-130518000D01*
X85941000Y-131032250D01*
X86099750Y-131191000D01*
X87249000Y-131191000D01*
X87249000Y-130041750D01*
X87090250Y-129883000D01*
X86576000Y-129879928D01*
X86451518Y-129892188D01*
X86331820Y-129928498D01*
X86221506Y-129987463D01*
X86124815Y-130066815D01*
X86045463Y-130163506D01*
X85986498Y-130273820D01*
X85950188Y-130393518D01*
X85937928Y-130518000D01*
X83947000Y-130518000D01*
X83947000Y-128905000D01*
X95485200Y-128905000D01*
X95485200Y-129941429D01*
G36*
X142494000Y-140472832D02*
G01*
X142183446Y-140601467D01*
X141821967Y-140843000D01*
X129362250Y-140843000D01*
X129221250Y-140702000D01*
X128397000Y-140702000D01*
X128397000Y-140722000D01*
X128143000Y-140722000D01*
X128143000Y-140702000D01*
X127318750Y-140702000D01*
X127177750Y-140843000D01*
X119507000Y-140843000D01*
X119507000Y-138537500D01*
X127156928Y-138537500D01*
X127156928Y-139112500D01*
X127173752Y-139283316D01*
X127223577Y-139447567D01*
X127304488Y-139598942D01*
X127324099Y-139622839D01*
X127264463Y-139695506D01*
X127205498Y-139805820D01*
X127169188Y-139925518D01*
X127156928Y-140050000D01*
X127160000Y-140289250D01*
X127318750Y-140448000D01*
X128143000Y-140448000D01*
X128143000Y-140428000D01*
X128397000Y-140428000D01*
X128397000Y-140448000D01*
X129221250Y-140448000D01*
X129380000Y-140289250D01*
X129383072Y-140050000D01*
X129370812Y-139925518D01*
X129334502Y-139805820D01*
X129275537Y-139695506D01*
X129249024Y-139663200D01*
X130540837Y-139663200D01*
X130582000Y-139667254D01*
X130623163Y-139663200D01*
X130623170Y-139663200D01*
X130746316Y-139651071D01*
X130904317Y-139603142D01*
X131049932Y-139525309D01*
X131177564Y-139420564D01*
X131203811Y-139388582D01*
X132269357Y-138323036D01*
X132359665Y-138341000D01*
X132642335Y-138341000D01*
X132919574Y-138285853D01*
X133180727Y-138177680D01*
X133415759Y-138020637D01*
X133582339Y-137854057D01*
X133611498Y-137950180D01*
X133670463Y-138060494D01*
X133749815Y-138157185D01*
X133846506Y-138236537D01*
X133956820Y-138295502D01*
X134076518Y-138331812D01*
X134201000Y-138344072D01*
X134715250Y-138341000D01*
X134874000Y-138182250D01*
X134874000Y-137033000D01*
X135128000Y-137033000D01*
X135128000Y-138182250D01*
X135286750Y-138341000D01*
X135801000Y-138344072D01*
X135925482Y-138331812D01*
X136045180Y-138295502D01*
X136155494Y-138236537D01*
X136252185Y-138157185D01*
X136331537Y-138060494D01*
X136390502Y-137950180D01*
X136426812Y-137830482D01*
X136439072Y-137706000D01*
X136436000Y-137191750D01*
X136277250Y-137033000D01*
X135128000Y-137033000D01*
X134874000Y-137033000D01*
X134854000Y-137033000D01*
X134854000Y-136779000D01*
X134874000Y-136779000D01*
X134874000Y-135629750D01*
X135128000Y-135629750D01*
X135128000Y-136779000D01*
X136277250Y-136779000D01*
X136436000Y-136620250D01*
X136439072Y-136106000D01*
X136426812Y-135981518D01*
X136390502Y-135861820D01*
X136331537Y-135751506D01*
X136252185Y-135654815D01*
X136155494Y-135575463D01*
X136045180Y-135516498D01*
X135925482Y-135480188D01*
X135801000Y-135467928D01*
X135286750Y-135471000D01*
X135128000Y-135629750D01*
X134874000Y-135629750D01*
X134715250Y-135471000D01*
X134201000Y-135467928D01*
X134076518Y-135480188D01*
X133956820Y-135516498D01*
X133846506Y-135575463D01*
X133749815Y-135654815D01*
X133670463Y-135751506D01*
X133611498Y-135861820D01*
X133582339Y-135957943D01*
X133415759Y-135791363D01*
X133180727Y-135634320D01*
X132919574Y-135526147D01*
X132642335Y-135471000D01*
X132359665Y-135471000D01*
X132082426Y-135526147D01*
X131821273Y-135634320D01*
X131586241Y-135791363D01*
X131386363Y-135991241D01*
X131229320Y-136226273D01*
X131121147Y-136487426D01*
X131066000Y-136764665D01*
X131066000Y-137047335D01*
X131083964Y-137137643D01*
X130234807Y-137986800D01*
X129182777Y-137986800D01*
X129126623Y-137918377D01*
X128993942Y-137809488D01*
X128842567Y-137728577D01*
X128678316Y-137678752D01*
X128507500Y-137661928D01*
X128032500Y-137661928D01*
X127861684Y-137678752D01*
X127697433Y-137728577D01*
X127546058Y-137809488D01*
X127413377Y-137918377D01*
X127304488Y-138051058D01*
X127223577Y-138202433D01*
X127173752Y-138366684D01*
X127156928Y-138537500D01*
X119507000Y-138537500D01*
X119507000Y-135763000D01*
X122189012Y-135763000D01*
X122238815Y-135823685D01*
X122335506Y-135903037D01*
X122445820Y-135962002D01*
X122565518Y-135998312D01*
X122690000Y-136010572D01*
X124690000Y-136010572D01*
X124814482Y-135998312D01*
X124934180Y-135962002D01*
X125044494Y-135903037D01*
X125141185Y-135823685D01*
X125220537Y-135726994D01*
X125279502Y-135616680D01*
X125315812Y-135496982D01*
X125328072Y-135372500D01*
X125328072Y-133467500D01*
X125315812Y-133343018D01*
X125279502Y-133223320D01*
X125220537Y-133113006D01*
X125146671Y-133023000D01*
X125755861Y-133023000D01*
X125812000Y-133028529D01*
X125868139Y-133023000D01*
X125868146Y-133023000D01*
X126036067Y-133006461D01*
X126251523Y-132941103D01*
X126450089Y-132834968D01*
X126624133Y-132692133D01*
X126659928Y-132648517D01*
X126768373Y-132540072D01*
X126815001Y-132540072D01*
X126988255Y-132523008D01*
X127154851Y-132472472D01*
X127159476Y-132470000D01*
X127747928Y-132470000D01*
X127747928Y-132536000D01*
X127760188Y-132660482D01*
X127796498Y-132780180D01*
X127855463Y-132890494D01*
X127934815Y-132987185D01*
X128031506Y-133066537D01*
X128141820Y-133125502D01*
X128261518Y-133161812D01*
X128386000Y-133174072D01*
X130186000Y-133174072D01*
X130310482Y-133161812D01*
X130430180Y-133125502D01*
X130540494Y-133066537D01*
X130637185Y-132987185D01*
X130716537Y-132890494D01*
X130775502Y-132780180D01*
X130811812Y-132660482D01*
X130824072Y-132536000D01*
X130824072Y-130036000D01*
X130811812Y-129911518D01*
X130775502Y-129791820D01*
X130716537Y-129681506D01*
X130637185Y-129584815D01*
X130540494Y-129505463D01*
X130430180Y-129446498D01*
X130310482Y-129410188D01*
X130186000Y-129397928D01*
X128386000Y-129397928D01*
X128261518Y-129410188D01*
X128141820Y-129446498D01*
X128031506Y-129505463D01*
X127934815Y-129584815D01*
X127855463Y-129681506D01*
X127796498Y-129791820D01*
X127760188Y-129911518D01*
X127747928Y-130036000D01*
X127747928Y-130184000D01*
X127607560Y-130184000D01*
X127654502Y-130096180D01*
X127690812Y-129976482D01*
X127703072Y-129852000D01*
X127700000Y-129562750D01*
X127541250Y-129404000D01*
X126492000Y-129404000D01*
X126492000Y-129424000D01*
X126238000Y-129424000D01*
X126238000Y-129404000D01*
X125188750Y-129404000D01*
X125125750Y-129467000D01*
X123817000Y-129467000D01*
X123817000Y-129487000D01*
X123563000Y-129487000D01*
X123563000Y-129467000D01*
X122219406Y-129467000D01*
X122099437Y-129712980D01*
X122170429Y-129931094D01*
X122314031Y-130206923D01*
X122508685Y-130449437D01*
X122693899Y-130604837D01*
X122514537Y-130752037D01*
X122466968Y-130810000D01*
X121341139Y-130810000D01*
X121285000Y-130804471D01*
X121228861Y-130810000D01*
X121228854Y-130810000D01*
X121081517Y-130824512D01*
X121060932Y-130826539D01*
X120995574Y-130846365D01*
X120845477Y-130891897D01*
X120646911Y-130998032D01*
X120472867Y-131140867D01*
X120437072Y-131184483D01*
X120194555Y-131427000D01*
X119507000Y-131427000D01*
X119507000Y-128967020D01*
X122099437Y-128967020D01*
X122219406Y-129213000D01*
X123563000Y-129213000D01*
X123563000Y-127914430D01*
X123817000Y-127914430D01*
X123817000Y-129213000D01*
X125160594Y-129213000D01*
X125191320Y-129150000D01*
X126238000Y-129150000D01*
X126238000Y-128225750D01*
X126492000Y-128225750D01*
X126492000Y-129150000D01*
X127541250Y-129150000D01*
X127700000Y-128991250D01*
X127703072Y-128702000D01*
X127690812Y-128577518D01*
X127678218Y-128536000D01*
X127747928Y-128536000D01*
X127760188Y-128660482D01*
X127796498Y-128780180D01*
X127855463Y-128890494D01*
X127934815Y-128987185D01*
X128031506Y-129066537D01*
X128141820Y-129125502D01*
X128261518Y-129161812D01*
X128386000Y-129174072D01*
X129000250Y-129171000D01*
X129159000Y-129012250D01*
X129159000Y-127413000D01*
X129413000Y-127413000D01*
X129413000Y-129012250D01*
X129571750Y-129171000D01*
X130186000Y-129174072D01*
X130310482Y-129161812D01*
X130430180Y-129125502D01*
X130540494Y-129066537D01*
X130637185Y-128987185D01*
X130716537Y-128890494D01*
X130775502Y-128780180D01*
X130811812Y-128660482D01*
X130824072Y-128536000D01*
X130821000Y-127571750D01*
X130662250Y-127413000D01*
X129413000Y-127413000D01*
X129159000Y-127413000D01*
X127909750Y-127413000D01*
X127751000Y-127571750D01*
X127747928Y-128536000D01*
X127678218Y-128536000D01*
X127654502Y-128457820D01*
X127595537Y-128347506D01*
X127516185Y-128250815D01*
X127419494Y-128171463D01*
X127309180Y-128112498D01*
X127189482Y-128076188D01*
X127065000Y-128063928D01*
X126650750Y-128067000D01*
X126492000Y-128225750D01*
X126238000Y-128225750D01*
X126079250Y-128067000D01*
X125665000Y-128063928D01*
X125540518Y-128076188D01*
X125420820Y-128112498D01*
X125310506Y-128171463D01*
X125213815Y-128250815D01*
X125134463Y-128347506D01*
X125075498Y-128457820D01*
X125069066Y-128479025D01*
X125065969Y-128473077D01*
X124871315Y-128230563D01*
X124633089Y-128030684D01*
X124360446Y-127881121D01*
X124063863Y-127787622D01*
X123817000Y-127914430D01*
X123563000Y-127914430D01*
X123316137Y-127787622D01*
X123019554Y-127881121D01*
X122746911Y-128030684D01*
X122508685Y-128230563D01*
X122314031Y-128473077D01*
X122170429Y-128748906D01*
X122099437Y-128967020D01*
X119507000Y-128967020D01*
X119507000Y-126036000D01*
X127747928Y-126036000D01*
X127751000Y-127000250D01*
X127909750Y-127159000D01*
X129159000Y-127159000D01*
X129159000Y-125559750D01*
X129413000Y-125559750D01*
X129413000Y-127159000D01*
X130662250Y-127159000D01*
X130821000Y-127000250D01*
X130824072Y-126036000D01*
X130811812Y-125911518D01*
X130775502Y-125791820D01*
X130716537Y-125681506D01*
X130637185Y-125584815D01*
X130540494Y-125505463D01*
X130430180Y-125446498D01*
X130310482Y-125410188D01*
X130186000Y-125397928D01*
X129571750Y-125401000D01*
X129413000Y-125559750D01*
X129159000Y-125559750D01*
X129000250Y-125401000D01*
X128386000Y-125397928D01*
X128261518Y-125410188D01*
X128141820Y-125446498D01*
X128031506Y-125505463D01*
X127934815Y-125584815D01*
X127855463Y-125681506D01*
X127796498Y-125791820D01*
X127760188Y-125911518D01*
X127747928Y-126036000D01*
X119507000Y-126036000D01*
X119507000Y-116967000D01*
X128079491Y-116967000D01*
X127747858Y-117067600D01*
X127389988Y-117258885D01*
X127076312Y-117516312D01*
X126818885Y-117829988D01*
X126627600Y-118187858D01*
X126509807Y-118576169D01*
X126470033Y-118980000D01*
X126509807Y-119383831D01*
X126627600Y-119772142D01*
X126818885Y-120130012D01*
X127076312Y-120443688D01*
X127389988Y-120701115D01*
X127747858Y-120892400D01*
X128136169Y-121010193D01*
X128438804Y-121040000D01*
X130641196Y-121040000D01*
X130943831Y-121010193D01*
X131332142Y-120892400D01*
X131690012Y-120701115D01*
X132003688Y-120443688D01*
X132261115Y-120130012D01*
X132452400Y-119772142D01*
X132570193Y-119383831D01*
X132609967Y-118980000D01*
X132570193Y-118576169D01*
X132452400Y-118187858D01*
X132261115Y-117829988D01*
X132003688Y-117516312D01*
X131690012Y-117258885D01*
X131332142Y-117067600D01*
X131000509Y-116967000D01*
X138430000Y-116967000D01*
X138454776Y-116964560D01*
X138478601Y-116957333D01*
X138500557Y-116945597D01*
X138519803Y-116929803D01*
X138535597Y-116910557D01*
X138547333Y-116888601D01*
X138554560Y-116864776D01*
X138557000Y-116840000D01*
X138557000Y-97917000D01*
X142494000Y-97917000D01*
X142494000Y-140472832D01*
X142494000Y-140472832D01*
G37*
X142494000Y-140472832D02*
X142183446Y-140601467D01*
X141821967Y-140843000D01*
X129362250Y-140843000D01*
X129221250Y-140702000D01*
X128397000Y-140702000D01*
X128397000Y-140722000D01*
X128143000Y-140722000D01*
X128143000Y-140702000D01*
X127318750Y-140702000D01*
X127177750Y-140843000D01*
X119507000Y-140843000D01*
X119507000Y-138537500D01*
X127156928Y-138537500D01*
X127156928Y-139112500D01*
X127173752Y-139283316D01*
X127223577Y-139447567D01*
X127304488Y-139598942D01*
X127324099Y-139622839D01*
X127264463Y-139695506D01*
X127205498Y-139805820D01*
X127169188Y-139925518D01*
X127156928Y-140050000D01*
X127160000Y-140289250D01*
X127318750Y-140448000D01*
X128143000Y-140448000D01*
X128143000Y-140428000D01*
X128397000Y-140428000D01*
X128397000Y-140448000D01*
X129221250Y-140448000D01*
X129380000Y-140289250D01*
X129383072Y-140050000D01*
X129370812Y-139925518D01*
X129334502Y-139805820D01*
X129275537Y-139695506D01*
X129249024Y-139663200D01*
X130540837Y-139663200D01*
X130582000Y-139667254D01*
X130623163Y-139663200D01*
X130623170Y-139663200D01*
X130746316Y-139651071D01*
X130904317Y-139603142D01*
X131049932Y-139525309D01*
X131177564Y-139420564D01*
X131203811Y-139388582D01*
X132269357Y-138323036D01*
X132359665Y-138341000D01*
X132642335Y-138341000D01*
X132919574Y-138285853D01*
X133180727Y-138177680D01*
X133415759Y-138020637D01*
X133582339Y-137854057D01*
X133611498Y-137950180D01*
X133670463Y-138060494D01*
X133749815Y-138157185D01*
X133846506Y-138236537D01*
X133956820Y-138295502D01*
X134076518Y-138331812D01*
X134201000Y-138344072D01*
X134715250Y-138341000D01*
X134874000Y-138182250D01*
X134874000Y-137033000D01*
X135128000Y-137033000D01*
X135128000Y-138182250D01*
X135286750Y-138341000D01*
X135801000Y-138344072D01*
X135925482Y-138331812D01*
X136045180Y-138295502D01*
X136155494Y-138236537D01*
X136252185Y-138157185D01*
X136331537Y-138060494D01*
X136390502Y-137950180D01*
X136426812Y-137830482D01*
X136439072Y-137706000D01*
X136436000Y-137191750D01*
X136277250Y-137033000D01*
X135128000Y-137033000D01*
X134874000Y-137033000D01*
X134854000Y-137033000D01*
X134854000Y-136779000D01*
X134874000Y-136779000D01*
X134874000Y-135629750D01*
X135128000Y-135629750D01*
X135128000Y-136779000D01*
X136277250Y-136779000D01*
X136436000Y-136620250D01*
X136439072Y-136106000D01*
X136426812Y-135981518D01*
X136390502Y-135861820D01*
X136331537Y-135751506D01*
X136252185Y-135654815D01*
X136155494Y-135575463D01*
X136045180Y-135516498D01*
X135925482Y-135480188D01*
X135801000Y-135467928D01*
X135286750Y-135471000D01*
X135128000Y-135629750D01*
X134874000Y-135629750D01*
X134715250Y-135471000D01*
X134201000Y-135467928D01*
X134076518Y-135480188D01*
X133956820Y-135516498D01*
X133846506Y-135575463D01*
X133749815Y-135654815D01*
X133670463Y-135751506D01*
X133611498Y-135861820D01*
X133582339Y-135957943D01*
X133415759Y-135791363D01*
X133180727Y-135634320D01*
X132919574Y-135526147D01*
X132642335Y-135471000D01*
X132359665Y-135471000D01*
X132082426Y-135526147D01*
X131821273Y-135634320D01*
X131586241Y-135791363D01*
X131386363Y-135991241D01*
X131229320Y-136226273D01*
X131121147Y-136487426D01*
X131066000Y-136764665D01*
X131066000Y-137047335D01*
X131083964Y-137137643D01*
X130234807Y-137986800D01*
X129182777Y-137986800D01*
X129126623Y-137918377D01*
X128993942Y-137809488D01*
X128842567Y-137728577D01*
X128678316Y-137678752D01*
X128507500Y-137661928D01*
X128032500Y-137661928D01*
X127861684Y-137678752D01*
X127697433Y-137728577D01*
X127546058Y-137809488D01*
X127413377Y-137918377D01*
X127304488Y-138051058D01*
X127223577Y-138202433D01*
X127173752Y-138366684D01*
X127156928Y-138537500D01*
X119507000Y-138537500D01*
X119507000Y-135763000D01*
X122189012Y-135763000D01*
X122238815Y-135823685D01*
X122335506Y-135903037D01*
X122445820Y-135962002D01*
X122565518Y-135998312D01*
X122690000Y-136010572D01*
X124690000Y-136010572D01*
X124814482Y-135998312D01*
X124934180Y-135962002D01*
X125044494Y-135903037D01*
X125141185Y-135823685D01*
X125220537Y-135726994D01*
X125279502Y-135616680D01*
X125315812Y-135496982D01*
X125328072Y-135372500D01*
X125328072Y-133467500D01*
X125315812Y-133343018D01*
X125279502Y-133223320D01*
X125220537Y-133113006D01*
X125146671Y-133023000D01*
X125755861Y-133023000D01*
X125812000Y-133028529D01*
X125868139Y-133023000D01*
X125868146Y-133023000D01*
X126036067Y-133006461D01*
X126251523Y-132941103D01*
X126450089Y-132834968D01*
X126624133Y-132692133D01*
X126659928Y-132648517D01*
X126768373Y-132540072D01*
X126815001Y-132540072D01*
X126988255Y-132523008D01*
X127154851Y-132472472D01*
X127159476Y-132470000D01*
X127747928Y-132470000D01*
X127747928Y-132536000D01*
X127760188Y-132660482D01*
X127796498Y-132780180D01*
X127855463Y-132890494D01*
X127934815Y-132987185D01*
X128031506Y-133066537D01*
X128141820Y-133125502D01*
X128261518Y-133161812D01*
X128386000Y-133174072D01*
X130186000Y-133174072D01*
X130310482Y-133161812D01*
X130430180Y-133125502D01*
X130540494Y-133066537D01*
X130637185Y-132987185D01*
X130716537Y-132890494D01*
X130775502Y-132780180D01*
X130811812Y-132660482D01*
X130824072Y-132536000D01*
X130824072Y-130036000D01*
X130811812Y-129911518D01*
X130775502Y-129791820D01*
X130716537Y-129681506D01*
X130637185Y-129584815D01*
X130540494Y-129505463D01*
X130430180Y-129446498D01*
X130310482Y-129410188D01*
X130186000Y-129397928D01*
X128386000Y-129397928D01*
X128261518Y-129410188D01*
X128141820Y-129446498D01*
X128031506Y-129505463D01*
X127934815Y-129584815D01*
X127855463Y-129681506D01*
X127796498Y-129791820D01*
X127760188Y-129911518D01*
X127747928Y-130036000D01*
X127747928Y-130184000D01*
X127607560Y-130184000D01*
X127654502Y-130096180D01*
X127690812Y-129976482D01*
X127703072Y-129852000D01*
X127700000Y-129562750D01*
X127541250Y-129404000D01*
X126492000Y-129404000D01*
X126492000Y-129424000D01*
X126238000Y-129424000D01*
X126238000Y-129404000D01*
X125188750Y-129404000D01*
X125125750Y-129467000D01*
X123817000Y-129467000D01*
X123817000Y-129487000D01*
X123563000Y-129487000D01*
X123563000Y-129467000D01*
X122219406Y-129467000D01*
X122099437Y-129712980D01*
X122170429Y-129931094D01*
X122314031Y-130206923D01*
X122508685Y-130449437D01*
X122693899Y-130604837D01*
X122514537Y-130752037D01*
X122466968Y-130810000D01*
X121341139Y-130810000D01*
X121285000Y-130804471D01*
X121228861Y-130810000D01*
X121228854Y-130810000D01*
X121081517Y-130824512D01*
X121060932Y-130826539D01*
X120995574Y-130846365D01*
X120845477Y-130891897D01*
X120646911Y-130998032D01*
X120472867Y-131140867D01*
X120437072Y-131184483D01*
X120194555Y-131427000D01*
X119507000Y-131427000D01*
X119507000Y-128967020D01*
X122099437Y-128967020D01*
X122219406Y-129213000D01*
X123563000Y-129213000D01*
X123563000Y-127914430D01*
X123817000Y-127914430D01*
X123817000Y-129213000D01*
X125160594Y-129213000D01*
X125191320Y-129150000D01*
X126238000Y-129150000D01*
X126238000Y-128225750D01*
X126492000Y-128225750D01*
X126492000Y-129150000D01*
X127541250Y-129150000D01*
X127700000Y-128991250D01*
X127703072Y-128702000D01*
X127690812Y-128577518D01*
X127678218Y-128536000D01*
X127747928Y-128536000D01*
X127760188Y-128660482D01*
X127796498Y-128780180D01*
X127855463Y-128890494D01*
X127934815Y-128987185D01*
X128031506Y-129066537D01*
X128141820Y-129125502D01*
X128261518Y-129161812D01*
X128386000Y-129174072D01*
X129000250Y-129171000D01*
X129159000Y-129012250D01*
X129159000Y-127413000D01*
X129413000Y-127413000D01*
X129413000Y-129012250D01*
X129571750Y-129171000D01*
X130186000Y-129174072D01*
X130310482Y-129161812D01*
X130430180Y-129125502D01*
X130540494Y-129066537D01*
X130637185Y-128987185D01*
X130716537Y-128890494D01*
X130775502Y-128780180D01*
X130811812Y-128660482D01*
X130824072Y-128536000D01*
X130821000Y-127571750D01*
X130662250Y-127413000D01*
X129413000Y-127413000D01*
X129159000Y-127413000D01*
X127909750Y-127413000D01*
X127751000Y-127571750D01*
X127747928Y-128536000D01*
X127678218Y-128536000D01*
X127654502Y-128457820D01*
X127595537Y-128347506D01*
X127516185Y-128250815D01*
X127419494Y-128171463D01*
X127309180Y-128112498D01*
X127189482Y-128076188D01*
X127065000Y-128063928D01*
X126650750Y-128067000D01*
X126492000Y-128225750D01*
X126238000Y-128225750D01*
X126079250Y-128067000D01*
X125665000Y-128063928D01*
X125540518Y-128076188D01*
X125420820Y-128112498D01*
X125310506Y-128171463D01*
X125213815Y-128250815D01*
X125134463Y-128347506D01*
X125075498Y-128457820D01*
X125069066Y-128479025D01*
X125065969Y-128473077D01*
X124871315Y-128230563D01*
X124633089Y-128030684D01*
X124360446Y-127881121D01*
X124063863Y-127787622D01*
X123817000Y-127914430D01*
X123563000Y-127914430D01*
X123316137Y-127787622D01*
X123019554Y-127881121D01*
X122746911Y-128030684D01*
X122508685Y-128230563D01*
X122314031Y-128473077D01*
X122170429Y-128748906D01*
X122099437Y-128967020D01*
X119507000Y-128967020D01*
X119507000Y-126036000D01*
X127747928Y-126036000D01*
X127751000Y-127000250D01*
X127909750Y-127159000D01*
X129159000Y-127159000D01*
X129159000Y-125559750D01*
X129413000Y-125559750D01*
X129413000Y-127159000D01*
X130662250Y-127159000D01*
X130821000Y-127000250D01*
X130824072Y-126036000D01*
X130811812Y-125911518D01*
X130775502Y-125791820D01*
X130716537Y-125681506D01*
X130637185Y-125584815D01*
X130540494Y-125505463D01*
X130430180Y-125446498D01*
X130310482Y-125410188D01*
X130186000Y-125397928D01*
X129571750Y-125401000D01*
X129413000Y-125559750D01*
X129159000Y-125559750D01*
X129000250Y-125401000D01*
X128386000Y-125397928D01*
X128261518Y-125410188D01*
X128141820Y-125446498D01*
X128031506Y-125505463D01*
X127934815Y-125584815D01*
X127855463Y-125681506D01*
X127796498Y-125791820D01*
X127760188Y-125911518D01*
X127747928Y-126036000D01*
X119507000Y-126036000D01*
X119507000Y-116967000D01*
X128079491Y-116967000D01*
X127747858Y-117067600D01*
X127389988Y-117258885D01*
X127076312Y-117516312D01*
X126818885Y-117829988D01*
X126627600Y-118187858D01*
X126509807Y-118576169D01*
X126470033Y-118980000D01*
X126509807Y-119383831D01*
X126627600Y-119772142D01*
X126818885Y-120130012D01*
X127076312Y-120443688D01*
X127389988Y-120701115D01*
X127747858Y-120892400D01*
X128136169Y-121010193D01*
X128438804Y-121040000D01*
X130641196Y-121040000D01*
X130943831Y-121010193D01*
X131332142Y-120892400D01*
X131690012Y-120701115D01*
X132003688Y-120443688D01*
X132261115Y-120130012D01*
X132452400Y-119772142D01*
X132570193Y-119383831D01*
X132609967Y-118980000D01*
X132570193Y-118576169D01*
X132452400Y-118187858D01*
X132261115Y-117829988D01*
X132003688Y-117516312D01*
X131690012Y-117258885D01*
X131332142Y-117067600D01*
X131000509Y-116967000D01*
X138430000Y-116967000D01*
X138454776Y-116964560D01*
X138478601Y-116957333D01*
X138500557Y-116945597D01*
X138519803Y-116929803D01*
X138535597Y-116910557D01*
X138547333Y-116888601D01*
X138554560Y-116864776D01*
X138557000Y-116840000D01*
X138557000Y-97917000D01*
X142494000Y-97917000D01*
X142494000Y-140472832D01*
G36*
X144437000Y-131328000D02*
G01*
X144457000Y-131328000D01*
X144457000Y-131582000D01*
X144437000Y-131582000D01*
X144437000Y-132801250D01*
X144595750Y-132960000D01*
X145288000Y-132962612D01*
X145288000Y-134366000D01*
X142748000Y-134366000D01*
X142748000Y-132763007D01*
X142758815Y-132776185D01*
X142855506Y-132855537D01*
X142965820Y-132914502D01*
X143085518Y-132950812D01*
X143210000Y-132963072D01*
X144024250Y-132960000D01*
X144183000Y-132801250D01*
X144183000Y-131582000D01*
X144163000Y-131582000D01*
X144163000Y-131328000D01*
X144183000Y-131328000D01*
X144183000Y-131308000D01*
X144437000Y-131308000D01*
X144437000Y-131328000D01*
X144437000Y-131328000D01*
G37*
X144437000Y-131328000D02*
X144457000Y-131328000D01*
X144457000Y-131582000D01*
X144437000Y-131582000D01*
X144437000Y-132801250D01*
X144595750Y-132960000D01*
X145288000Y-132962612D01*
X145288000Y-134366000D01*
X142748000Y-134366000D01*
X142748000Y-132763007D01*
X142758815Y-132776185D01*
X142855506Y-132855537D01*
X142965820Y-132914502D01*
X143085518Y-132950812D01*
X143210000Y-132963072D01*
X144024250Y-132960000D01*
X144183000Y-132801250D01*
X144183000Y-131582000D01*
X144163000Y-131582000D01*
X144163000Y-131328000D01*
X144183000Y-131328000D01*
X144183000Y-131308000D01*
X144437000Y-131308000D01*
X144437000Y-131328000D01*
G36*
X144437000Y-117413000D02*
G01*
X144457000Y-117413000D01*
X144457000Y-117667000D01*
X144437000Y-117667000D01*
X144437000Y-118886250D01*
X144595750Y-119045000D01*
X145288000Y-119047612D01*
X145288000Y-120396000D01*
X142748000Y-120396000D01*
X142748000Y-118848007D01*
X142758815Y-118861185D01*
X142855506Y-118940537D01*
X142965820Y-118999502D01*
X143085518Y-119035812D01*
X143210000Y-119048072D01*
X144024250Y-119045000D01*
X144183000Y-118886250D01*
X144183000Y-117667000D01*
X144163000Y-117667000D01*
X144163000Y-117413000D01*
X144183000Y-117413000D01*
X144183000Y-117393000D01*
X144437000Y-117393000D01*
X144437000Y-117413000D01*
X144437000Y-117413000D01*
G37*
X144437000Y-117413000D02*
X144457000Y-117413000D01*
X144457000Y-117667000D01*
X144437000Y-117667000D01*
X144437000Y-118886250D01*
X144595750Y-119045000D01*
X145288000Y-119047612D01*
X145288000Y-120396000D01*
X142748000Y-120396000D01*
X142748000Y-118848007D01*
X142758815Y-118861185D01*
X142855506Y-118940537D01*
X142965820Y-118999502D01*
X143085518Y-119035812D01*
X143210000Y-119048072D01*
X144024250Y-119045000D01*
X144183000Y-118886250D01*
X144183000Y-117667000D01*
X144163000Y-117667000D01*
X144163000Y-117413000D01*
X144183000Y-117413000D01*
X144183000Y-117393000D01*
X144437000Y-117393000D01*
X144437000Y-117413000D01*
G36*
X144437000Y-103498000D02*
G01*
X144457000Y-103498000D01*
X144457000Y-103752000D01*
X144437000Y-103752000D01*
X144437000Y-104971250D01*
X144595750Y-105130000D01*
X145288000Y-105132612D01*
X145288000Y-106553000D01*
X142748000Y-106553000D01*
X142748000Y-104933007D01*
X142758815Y-104946185D01*
X142855506Y-105025537D01*
X142965820Y-105084502D01*
X143085518Y-105120812D01*
X143210000Y-105133072D01*
X144024250Y-105130000D01*
X144183000Y-104971250D01*
X144183000Y-103752000D01*
X144163000Y-103752000D01*
X144163000Y-103498000D01*
X144183000Y-103498000D01*
X144183000Y-103478000D01*
X144437000Y-103478000D01*
X144437000Y-103498000D01*
X144437000Y-103498000D01*
G37*
X144437000Y-103498000D02*
X144457000Y-103498000D01*
X144457000Y-103752000D01*
X144437000Y-103752000D01*
X144437000Y-104971250D01*
X144595750Y-105130000D01*
X145288000Y-105132612D01*
X145288000Y-106553000D01*
X142748000Y-106553000D01*
X142748000Y-104933007D01*
X142758815Y-104946185D01*
X142855506Y-105025537D01*
X142965820Y-105084502D01*
X143085518Y-105120812D01*
X143210000Y-105133072D01*
X144024250Y-105130000D01*
X144183000Y-104971250D01*
X144183000Y-103752000D01*
X144163000Y-103752000D01*
X144163000Y-103498000D01*
X144183000Y-103498000D01*
X144183000Y-103478000D01*
X144437000Y-103478000D01*
X144437000Y-103498000D01*
G36*
X148463000Y-128143000D02*
G01*
X146177000Y-128143000D01*
X146177000Y-96520000D01*
X146174560Y-96495224D01*
X146167333Y-96471399D01*
X146155597Y-96449443D01*
X146139803Y-96430197D01*
X146120557Y-96414403D01*
X146098601Y-96402667D01*
X146074776Y-96395440D01*
X146050000Y-96393000D01*
X137160000Y-96393000D01*
X137135224Y-96395440D01*
X137111399Y-96402667D01*
X137089443Y-96414403D01*
X137070197Y-96430197D01*
X137054403Y-96449443D01*
X137042667Y-96471399D01*
X137035440Y-96495224D01*
X137033000Y-96520000D01*
X137033000Y-98961389D01*
X136979185Y-98895815D01*
X136882494Y-98816463D01*
X136772180Y-98757498D01*
X136652482Y-98721188D01*
X136528000Y-98708928D01*
X136288750Y-98712000D01*
X136130000Y-98870750D01*
X136130000Y-99695000D01*
X136150000Y-99695000D01*
X136150000Y-99949000D01*
X136130000Y-99949000D01*
X136130000Y-100773250D01*
X136288750Y-100932000D01*
X136528000Y-100935072D01*
X136652482Y-100922812D01*
X136772180Y-100886502D01*
X136882494Y-100827537D01*
X136979185Y-100748185D01*
X137033000Y-100682611D01*
X137033000Y-114173000D01*
X132264863Y-114173000D01*
X132452400Y-113822142D01*
X132570193Y-113433831D01*
X132609967Y-113030000D01*
X132570193Y-112626169D01*
X132452400Y-112237858D01*
X132261115Y-111879988D01*
X132003688Y-111566312D01*
X131690012Y-111308885D01*
X131332142Y-111117600D01*
X130943831Y-110999807D01*
X130641196Y-110970000D01*
X128438804Y-110970000D01*
X128136169Y-110999807D01*
X127747858Y-111117600D01*
X127389988Y-111308885D01*
X127076312Y-111566312D01*
X126818885Y-111879988D01*
X126627600Y-112237858D01*
X126509807Y-112626169D01*
X126470033Y-113030000D01*
X126509807Y-113433831D01*
X126627600Y-113822142D01*
X126815137Y-114173000D01*
X119507000Y-114173000D01*
X119507000Y-104877438D01*
X131222505Y-104877438D01*
X131261605Y-105117549D01*
X131341451Y-105331117D01*
X131330463Y-105344506D01*
X131271498Y-105454820D01*
X131235188Y-105574518D01*
X131222928Y-105699000D01*
X131222928Y-106899000D01*
X131235188Y-107023482D01*
X131271498Y-107143180D01*
X131330463Y-107253494D01*
X131409815Y-107350185D01*
X131506506Y-107429537D01*
X131616820Y-107488502D01*
X131736518Y-107524812D01*
X131861000Y-107537072D01*
X133061000Y-107537072D01*
X133185482Y-107524812D01*
X133305180Y-107488502D01*
X133415494Y-107429537D01*
X133512185Y-107350185D01*
X133591537Y-107253494D01*
X133650502Y-107143180D01*
X133686812Y-107023482D01*
X133699072Y-106899000D01*
X133699072Y-105699000D01*
X133686812Y-105574518D01*
X133650502Y-105454820D01*
X133591537Y-105344506D01*
X133577432Y-105327319D01*
X133635237Y-105200484D01*
X133691000Y-104963687D01*
X133699495Y-104720562D01*
X133660395Y-104480451D01*
X133575202Y-104252582D01*
X133534348Y-104176148D01*
X133310764Y-104128841D01*
X132640605Y-104799000D01*
X132654748Y-104813143D01*
X132475143Y-104992748D01*
X132461000Y-104978605D01*
X132446858Y-104992748D01*
X132267253Y-104813143D01*
X132281395Y-104799000D01*
X131611236Y-104128841D01*
X131387652Y-104176148D01*
X131286763Y-104397516D01*
X131231000Y-104634313D01*
X131222505Y-104877438D01*
X119507000Y-104877438D01*
X119507000Y-101441000D01*
X122117774Y-101441000D01*
X122100498Y-101473320D01*
X122064188Y-101593018D01*
X122051928Y-101717500D01*
X122051928Y-103622500D01*
X122064188Y-103746982D01*
X122100498Y-103866680D01*
X122159463Y-103976994D01*
X122238815Y-104073685D01*
X122335506Y-104153037D01*
X122445820Y-104212002D01*
X122565518Y-104248312D01*
X122690000Y-104260572D01*
X124690000Y-104260572D01*
X124814482Y-104248312D01*
X124934180Y-104212002D01*
X125044494Y-104153037D01*
X125141185Y-104073685D01*
X125220537Y-103976994D01*
X125235374Y-103949236D01*
X131790841Y-103949236D01*
X132461000Y-104619395D01*
X133131159Y-103949236D01*
X133083852Y-103725652D01*
X132862484Y-103624763D01*
X132625687Y-103569000D01*
X132382562Y-103560505D01*
X132142451Y-103599605D01*
X131914582Y-103684798D01*
X131838148Y-103725652D01*
X131790841Y-103949236D01*
X125235374Y-103949236D01*
X125279502Y-103866680D01*
X125295786Y-103813000D01*
X126063579Y-103813000D01*
X126102518Y-103824812D01*
X126227000Y-103837072D01*
X128027000Y-103837072D01*
X128151482Y-103824812D01*
X128271180Y-103788502D01*
X128381494Y-103729537D01*
X128478185Y-103650185D01*
X128557537Y-103553494D01*
X128616502Y-103443180D01*
X128652812Y-103323482D01*
X128665072Y-103199000D01*
X128665072Y-100699000D01*
X128652812Y-100574518D01*
X128616502Y-100454820D01*
X128557537Y-100344506D01*
X128478185Y-100247815D01*
X128381494Y-100168463D01*
X128271180Y-100109498D01*
X128151482Y-100073188D01*
X128027000Y-100060928D01*
X126227000Y-100060928D01*
X126102518Y-100073188D01*
X125982820Y-100109498D01*
X125872506Y-100168463D01*
X125775815Y-100247815D01*
X125696463Y-100344506D01*
X125637498Y-100454820D01*
X125601188Y-100574518D01*
X125588928Y-100699000D01*
X125588928Y-101527000D01*
X125295786Y-101527000D01*
X125279502Y-101473320D01*
X125220537Y-101363006D01*
X125141185Y-101266315D01*
X125044494Y-101186963D01*
X124960554Y-101142095D01*
X125063845Y-101016235D01*
X125211255Y-100740449D01*
X125302030Y-100441204D01*
X125332681Y-100130000D01*
X125302030Y-99818796D01*
X125211255Y-99519551D01*
X125063845Y-99243765D01*
X125027108Y-99199000D01*
X125588928Y-99199000D01*
X125601188Y-99323482D01*
X125637498Y-99443180D01*
X125696463Y-99553494D01*
X125775815Y-99650185D01*
X125872506Y-99729537D01*
X125982820Y-99788502D01*
X126102518Y-99824812D01*
X126227000Y-99837072D01*
X126841250Y-99834000D01*
X127000000Y-99675250D01*
X127000000Y-98076000D01*
X127254000Y-98076000D01*
X127254000Y-99675250D01*
X127412750Y-99834000D01*
X128027000Y-99837072D01*
X128151482Y-99824812D01*
X128271180Y-99788502D01*
X128381494Y-99729537D01*
X128478185Y-99650185D01*
X128557537Y-99553494D01*
X128616502Y-99443180D01*
X128652812Y-99323482D01*
X128665072Y-99199000D01*
X128662000Y-98234750D01*
X128503250Y-98076000D01*
X127254000Y-98076000D01*
X127000000Y-98076000D01*
X125750750Y-98076000D01*
X125592000Y-98234750D01*
X125588928Y-99199000D01*
X125027108Y-99199000D01*
X124865463Y-99002037D01*
X124686101Y-98854837D01*
X124871315Y-98699437D01*
X125065969Y-98456923D01*
X125209571Y-98181094D01*
X125280563Y-97962980D01*
X125160594Y-97717000D01*
X123817000Y-97717000D01*
X123817000Y-97737000D01*
X123563000Y-97737000D01*
X123563000Y-97717000D01*
X122219406Y-97717000D01*
X122099437Y-97962980D01*
X122170429Y-98181094D01*
X122314031Y-98456923D01*
X122508685Y-98699437D01*
X122693899Y-98854837D01*
X122514537Y-99002037D01*
X122389003Y-99155000D01*
X119507000Y-99155000D01*
X119507000Y-97217020D01*
X122099437Y-97217020D01*
X122219406Y-97463000D01*
X123563000Y-97463000D01*
X123563000Y-96164430D01*
X123817000Y-96164430D01*
X123817000Y-97463000D01*
X125160594Y-97463000D01*
X125280563Y-97217020D01*
X125209571Y-96998906D01*
X125065969Y-96723077D01*
X125046644Y-96699000D01*
X125588928Y-96699000D01*
X125592000Y-97663250D01*
X125750750Y-97822000D01*
X127000000Y-97822000D01*
X127000000Y-96222750D01*
X127254000Y-96222750D01*
X127254000Y-97822000D01*
X128503250Y-97822000D01*
X128662000Y-97663250D01*
X128665072Y-96699000D01*
X128652812Y-96574518D01*
X128616502Y-96454820D01*
X128557537Y-96344506D01*
X128478185Y-96247815D01*
X128381494Y-96168463D01*
X128271180Y-96109498D01*
X128151482Y-96073188D01*
X128027000Y-96060928D01*
X127412750Y-96064000D01*
X127254000Y-96222750D01*
X127000000Y-96222750D01*
X126841250Y-96064000D01*
X126227000Y-96060928D01*
X126102518Y-96073188D01*
X125982820Y-96109498D01*
X125872506Y-96168463D01*
X125775815Y-96247815D01*
X125696463Y-96344506D01*
X125637498Y-96454820D01*
X125601188Y-96574518D01*
X125588928Y-96699000D01*
X125046644Y-96699000D01*
X124871315Y-96480563D01*
X124633089Y-96280684D01*
X124360446Y-96131121D01*
X124063863Y-96037622D01*
X123817000Y-96164430D01*
X123563000Y-96164430D01*
X123316137Y-96037622D01*
X123019554Y-96131121D01*
X122746911Y-96280684D01*
X122508685Y-96480563D01*
X122314031Y-96723077D01*
X122170429Y-96998906D01*
X122099437Y-97217020D01*
X119507000Y-97217020D01*
X119507000Y-94831000D01*
X132673928Y-94831000D01*
X132673928Y-96431000D01*
X132686188Y-96555482D01*
X132722498Y-96675180D01*
X132781463Y-96785494D01*
X132860815Y-96882185D01*
X132957506Y-96961537D01*
X133067820Y-97020502D01*
X133187518Y-97056812D01*
X133273800Y-97065310D01*
X133273801Y-99053811D01*
X133237488Y-99098058D01*
X133156577Y-99249433D01*
X133106752Y-99413684D01*
X133089928Y-99584500D01*
X133089928Y-100059500D01*
X133106752Y-100230316D01*
X133156577Y-100394567D01*
X133237488Y-100545942D01*
X133346377Y-100678623D01*
X133479058Y-100787512D01*
X133630433Y-100868423D01*
X133794684Y-100918248D01*
X133965500Y-100935072D01*
X134540500Y-100935072D01*
X134711316Y-100918248D01*
X134875567Y-100868423D01*
X135026942Y-100787512D01*
X135050839Y-100767901D01*
X135123506Y-100827537D01*
X135233820Y-100886502D01*
X135353518Y-100922812D01*
X135478000Y-100935072D01*
X135717250Y-100932000D01*
X135876000Y-100773250D01*
X135876000Y-99949000D01*
X135856000Y-99949000D01*
X135856000Y-99695000D01*
X135876000Y-99695000D01*
X135876000Y-98870750D01*
X135717250Y-98712000D01*
X135478000Y-98708928D01*
X135353518Y-98721188D01*
X135233820Y-98757498D01*
X135123506Y-98816463D01*
X135050839Y-98876099D01*
X135026942Y-98856488D01*
X134950200Y-98815469D01*
X134950200Y-97065310D01*
X135036482Y-97056812D01*
X135156180Y-97020502D01*
X135266494Y-96961537D01*
X135363185Y-96882185D01*
X135442537Y-96785494D01*
X135501502Y-96675180D01*
X135537812Y-96555482D01*
X135550072Y-96431000D01*
X135550072Y-94831000D01*
X135537812Y-94706518D01*
X135501502Y-94586820D01*
X135442537Y-94476506D01*
X135363185Y-94379815D01*
X135266494Y-94300463D01*
X135156180Y-94241498D01*
X135036482Y-94205188D01*
X134912000Y-94192928D01*
X134904785Y-94192928D01*
X134925097Y-94123702D01*
X134112000Y-93310605D01*
X133298903Y-94123702D01*
X133319215Y-94192928D01*
X133312000Y-94192928D01*
X133187518Y-94205188D01*
X133067820Y-94241498D01*
X132957506Y-94300463D01*
X132860815Y-94379815D01*
X132781463Y-94476506D01*
X132722498Y-94586820D01*
X132686188Y-94706518D01*
X132673928Y-94831000D01*
X119507000Y-94831000D01*
X119507000Y-93201512D01*
X132671783Y-93201512D01*
X132713213Y-93481130D01*
X132808397Y-93747292D01*
X132875329Y-93872514D01*
X133119298Y-93944097D01*
X133932395Y-93131000D01*
X134291605Y-93131000D01*
X135104702Y-93944097D01*
X135348671Y-93872514D01*
X135469571Y-93617004D01*
X135538300Y-93342816D01*
X135552217Y-93060488D01*
X135510787Y-92780870D01*
X135415603Y-92514708D01*
X135348671Y-92389486D01*
X135104702Y-92317903D01*
X134291605Y-93131000D01*
X133932395Y-93131000D01*
X133119298Y-92317903D01*
X132875329Y-92389486D01*
X132754429Y-92644996D01*
X132685700Y-92919184D01*
X132671783Y-93201512D01*
X119507000Y-93201512D01*
X119507000Y-92138298D01*
X133298903Y-92138298D01*
X134112000Y-92951395D01*
X134925097Y-92138298D01*
X134853514Y-91894329D01*
X134598004Y-91773429D01*
X134323816Y-91704700D01*
X134041488Y-91690783D01*
X133761870Y-91732213D01*
X133495708Y-91827397D01*
X133370486Y-91894329D01*
X133298903Y-92138298D01*
X119507000Y-92138298D01*
X119507000Y-90297000D01*
X148463000Y-90297000D01*
X148463000Y-128143000D01*
X148463000Y-128143000D01*
G37*
X148463000Y-128143000D02*
X146177000Y-128143000D01*
X146177000Y-96520000D01*
X146174560Y-96495224D01*
X146167333Y-96471399D01*
X146155597Y-96449443D01*
X146139803Y-96430197D01*
X146120557Y-96414403D01*
X146098601Y-96402667D01*
X146074776Y-96395440D01*
X146050000Y-96393000D01*
X137160000Y-96393000D01*
X137135224Y-96395440D01*
X137111399Y-96402667D01*
X137089443Y-96414403D01*
X137070197Y-96430197D01*
X137054403Y-96449443D01*
X137042667Y-96471399D01*
X137035440Y-96495224D01*
X137033000Y-96520000D01*
X137033000Y-98961389D01*
X136979185Y-98895815D01*
X136882494Y-98816463D01*
X136772180Y-98757498D01*
X136652482Y-98721188D01*
X136528000Y-98708928D01*
X136288750Y-98712000D01*
X136130000Y-98870750D01*
X136130000Y-99695000D01*
X136150000Y-99695000D01*
X136150000Y-99949000D01*
X136130000Y-99949000D01*
X136130000Y-100773250D01*
X136288750Y-100932000D01*
X136528000Y-100935072D01*
X136652482Y-100922812D01*
X136772180Y-100886502D01*
X136882494Y-100827537D01*
X136979185Y-100748185D01*
X137033000Y-100682611D01*
X137033000Y-114173000D01*
X132264863Y-114173000D01*
X132452400Y-113822142D01*
X132570193Y-113433831D01*
X132609967Y-113030000D01*
X132570193Y-112626169D01*
X132452400Y-112237858D01*
X132261115Y-111879988D01*
X132003688Y-111566312D01*
X131690012Y-111308885D01*
X131332142Y-111117600D01*
X130943831Y-110999807D01*
X130641196Y-110970000D01*
X128438804Y-110970000D01*
X128136169Y-110999807D01*
X127747858Y-111117600D01*
X127389988Y-111308885D01*
X127076312Y-111566312D01*
X126818885Y-111879988D01*
X126627600Y-112237858D01*
X126509807Y-112626169D01*
X126470033Y-113030000D01*
X126509807Y-113433831D01*
X126627600Y-113822142D01*
X126815137Y-114173000D01*
X119507000Y-114173000D01*
X119507000Y-104877438D01*
X131222505Y-104877438D01*
X131261605Y-105117549D01*
X131341451Y-105331117D01*
X131330463Y-105344506D01*
X131271498Y-105454820D01*
X131235188Y-105574518D01*
X131222928Y-105699000D01*
X131222928Y-106899000D01*
X131235188Y-107023482D01*
X131271498Y-107143180D01*
X131330463Y-107253494D01*
X131409815Y-107350185D01*
X131506506Y-107429537D01*
X131616820Y-107488502D01*
X131736518Y-107524812D01*
X131861000Y-107537072D01*
X133061000Y-107537072D01*
X133185482Y-107524812D01*
X133305180Y-107488502D01*
X133415494Y-107429537D01*
X133512185Y-107350185D01*
X133591537Y-107253494D01*
X133650502Y-107143180D01*
X133686812Y-107023482D01*
X133699072Y-106899000D01*
X133699072Y-105699000D01*
X133686812Y-105574518D01*
X133650502Y-105454820D01*
X133591537Y-105344506D01*
X133577432Y-105327319D01*
X133635237Y-105200484D01*
X133691000Y-104963687D01*
X133699495Y-104720562D01*
X133660395Y-104480451D01*
X133575202Y-104252582D01*
X133534348Y-104176148D01*
X133310764Y-104128841D01*
X132640605Y-104799000D01*
X132654748Y-104813143D01*
X132475143Y-104992748D01*
X132461000Y-104978605D01*
X132446858Y-104992748D01*
X132267253Y-104813143D01*
X132281395Y-104799000D01*
X131611236Y-104128841D01*
X131387652Y-104176148D01*
X131286763Y-104397516D01*
X131231000Y-104634313D01*
X131222505Y-104877438D01*
X119507000Y-104877438D01*
X119507000Y-101441000D01*
X122117774Y-101441000D01*
X122100498Y-101473320D01*
X122064188Y-101593018D01*
X122051928Y-101717500D01*
X122051928Y-103622500D01*
X122064188Y-103746982D01*
X122100498Y-103866680D01*
X122159463Y-103976994D01*
X122238815Y-104073685D01*
X122335506Y-104153037D01*
X122445820Y-104212002D01*
X122565518Y-104248312D01*
X122690000Y-104260572D01*
X124690000Y-104260572D01*
X124814482Y-104248312D01*
X124934180Y-104212002D01*
X125044494Y-104153037D01*
X125141185Y-104073685D01*
X125220537Y-103976994D01*
X125235374Y-103949236D01*
X131790841Y-103949236D01*
X132461000Y-104619395D01*
X133131159Y-103949236D01*
X133083852Y-103725652D01*
X132862484Y-103624763D01*
X132625687Y-103569000D01*
X132382562Y-103560505D01*
X132142451Y-103599605D01*
X131914582Y-103684798D01*
X131838148Y-103725652D01*
X131790841Y-103949236D01*
X125235374Y-103949236D01*
X125279502Y-103866680D01*
X125295786Y-103813000D01*
X126063579Y-103813000D01*
X126102518Y-103824812D01*
X126227000Y-103837072D01*
X128027000Y-103837072D01*
X128151482Y-103824812D01*
X128271180Y-103788502D01*
X128381494Y-103729537D01*
X128478185Y-103650185D01*
X128557537Y-103553494D01*
X128616502Y-103443180D01*
X128652812Y-103323482D01*
X128665072Y-103199000D01*
X128665072Y-100699000D01*
X128652812Y-100574518D01*
X128616502Y-100454820D01*
X128557537Y-100344506D01*
X128478185Y-100247815D01*
X128381494Y-100168463D01*
X128271180Y-100109498D01*
X128151482Y-100073188D01*
X128027000Y-100060928D01*
X126227000Y-100060928D01*
X126102518Y-100073188D01*
X125982820Y-100109498D01*
X125872506Y-100168463D01*
X125775815Y-100247815D01*
X125696463Y-100344506D01*
X125637498Y-100454820D01*
X125601188Y-100574518D01*
X125588928Y-100699000D01*
X125588928Y-101527000D01*
X125295786Y-101527000D01*
X125279502Y-101473320D01*
X125220537Y-101363006D01*
X125141185Y-101266315D01*
X125044494Y-101186963D01*
X124960554Y-101142095D01*
X125063845Y-101016235D01*
X125211255Y-100740449D01*
X125302030Y-100441204D01*
X125332681Y-100130000D01*
X125302030Y-99818796D01*
X125211255Y-99519551D01*
X125063845Y-99243765D01*
X125027108Y-99199000D01*
X125588928Y-99199000D01*
X125601188Y-99323482D01*
X125637498Y-99443180D01*
X125696463Y-99553494D01*
X125775815Y-99650185D01*
X125872506Y-99729537D01*
X125982820Y-99788502D01*
X126102518Y-99824812D01*
X126227000Y-99837072D01*
X126841250Y-99834000D01*
X127000000Y-99675250D01*
X127000000Y-98076000D01*
X127254000Y-98076000D01*
X127254000Y-99675250D01*
X127412750Y-99834000D01*
X128027000Y-99837072D01*
X128151482Y-99824812D01*
X128271180Y-99788502D01*
X128381494Y-99729537D01*
X128478185Y-99650185D01*
X128557537Y-99553494D01*
X128616502Y-99443180D01*
X128652812Y-99323482D01*
X128665072Y-99199000D01*
X128662000Y-98234750D01*
X128503250Y-98076000D01*
X127254000Y-98076000D01*
X127000000Y-98076000D01*
X125750750Y-98076000D01*
X125592000Y-98234750D01*
X125588928Y-99199000D01*
X125027108Y-99199000D01*
X124865463Y-99002037D01*
X124686101Y-98854837D01*
X124871315Y-98699437D01*
X125065969Y-98456923D01*
X125209571Y-98181094D01*
X125280563Y-97962980D01*
X125160594Y-97717000D01*
X123817000Y-97717000D01*
X123817000Y-97737000D01*
X123563000Y-97737000D01*
X123563000Y-97717000D01*
X122219406Y-97717000D01*
X122099437Y-97962980D01*
X122170429Y-98181094D01*
X122314031Y-98456923D01*
X122508685Y-98699437D01*
X122693899Y-98854837D01*
X122514537Y-99002037D01*
X122389003Y-99155000D01*
X119507000Y-99155000D01*
X119507000Y-97217020D01*
X122099437Y-97217020D01*
X122219406Y-97463000D01*
X123563000Y-97463000D01*
X123563000Y-96164430D01*
X123817000Y-96164430D01*
X123817000Y-97463000D01*
X125160594Y-97463000D01*
X125280563Y-97217020D01*
X125209571Y-96998906D01*
X125065969Y-96723077D01*
X125046644Y-96699000D01*
X125588928Y-96699000D01*
X125592000Y-97663250D01*
X125750750Y-97822000D01*
X127000000Y-97822000D01*
X127000000Y-96222750D01*
X127254000Y-96222750D01*
X127254000Y-97822000D01*
X128503250Y-97822000D01*
X128662000Y-97663250D01*
X128665072Y-96699000D01*
X128652812Y-96574518D01*
X128616502Y-96454820D01*
X128557537Y-96344506D01*
X128478185Y-96247815D01*
X128381494Y-96168463D01*
X128271180Y-96109498D01*
X128151482Y-96073188D01*
X128027000Y-96060928D01*
X127412750Y-96064000D01*
X127254000Y-96222750D01*
X127000000Y-96222750D01*
X126841250Y-96064000D01*
X126227000Y-96060928D01*
X126102518Y-96073188D01*
X125982820Y-96109498D01*
X125872506Y-96168463D01*
X125775815Y-96247815D01*
X125696463Y-96344506D01*
X125637498Y-96454820D01*
X125601188Y-96574518D01*
X125588928Y-96699000D01*
X125046644Y-96699000D01*
X124871315Y-96480563D01*
X124633089Y-96280684D01*
X124360446Y-96131121D01*
X124063863Y-96037622D01*
X123817000Y-96164430D01*
X123563000Y-96164430D01*
X123316137Y-96037622D01*
X123019554Y-96131121D01*
X122746911Y-96280684D01*
X122508685Y-96480563D01*
X122314031Y-96723077D01*
X122170429Y-96998906D01*
X122099437Y-97217020D01*
X119507000Y-97217020D01*
X119507000Y-94831000D01*
X132673928Y-94831000D01*
X132673928Y-96431000D01*
X132686188Y-96555482D01*
X132722498Y-96675180D01*
X132781463Y-96785494D01*
X132860815Y-96882185D01*
X132957506Y-96961537D01*
X133067820Y-97020502D01*
X133187518Y-97056812D01*
X133273800Y-97065310D01*
X133273801Y-99053811D01*
X133237488Y-99098058D01*
X133156577Y-99249433D01*
X133106752Y-99413684D01*
X133089928Y-99584500D01*
X133089928Y-100059500D01*
X133106752Y-100230316D01*
X133156577Y-100394567D01*
X133237488Y-100545942D01*
X133346377Y-100678623D01*
X133479058Y-100787512D01*
X133630433Y-100868423D01*
X133794684Y-100918248D01*
X133965500Y-100935072D01*
X134540500Y-100935072D01*
X134711316Y-100918248D01*
X134875567Y-100868423D01*
X135026942Y-100787512D01*
X135050839Y-100767901D01*
X135123506Y-100827537D01*
X135233820Y-100886502D01*
X135353518Y-100922812D01*
X135478000Y-100935072D01*
X135717250Y-100932000D01*
X135876000Y-100773250D01*
X135876000Y-99949000D01*
X135856000Y-99949000D01*
X135856000Y-99695000D01*
X135876000Y-99695000D01*
X135876000Y-98870750D01*
X135717250Y-98712000D01*
X135478000Y-98708928D01*
X135353518Y-98721188D01*
X135233820Y-98757498D01*
X135123506Y-98816463D01*
X135050839Y-98876099D01*
X135026942Y-98856488D01*
X134950200Y-98815469D01*
X134950200Y-97065310D01*
X135036482Y-97056812D01*
X135156180Y-97020502D01*
X135266494Y-96961537D01*
X135363185Y-96882185D01*
X135442537Y-96785494D01*
X135501502Y-96675180D01*
X135537812Y-96555482D01*
X135550072Y-96431000D01*
X135550072Y-94831000D01*
X135537812Y-94706518D01*
X135501502Y-94586820D01*
X135442537Y-94476506D01*
X135363185Y-94379815D01*
X135266494Y-94300463D01*
X135156180Y-94241498D01*
X135036482Y-94205188D01*
X134912000Y-94192928D01*
X134904785Y-94192928D01*
X134925097Y-94123702D01*
X134112000Y-93310605D01*
X133298903Y-94123702D01*
X133319215Y-94192928D01*
X133312000Y-94192928D01*
X133187518Y-94205188D01*
X133067820Y-94241498D01*
X132957506Y-94300463D01*
X132860815Y-94379815D01*
X132781463Y-94476506D01*
X132722498Y-94586820D01*
X132686188Y-94706518D01*
X132673928Y-94831000D01*
X119507000Y-94831000D01*
X119507000Y-93201512D01*
X132671783Y-93201512D01*
X132713213Y-93481130D01*
X132808397Y-93747292D01*
X132875329Y-93872514D01*
X133119298Y-93944097D01*
X133932395Y-93131000D01*
X134291605Y-93131000D01*
X135104702Y-93944097D01*
X135348671Y-93872514D01*
X135469571Y-93617004D01*
X135538300Y-93342816D01*
X135552217Y-93060488D01*
X135510787Y-92780870D01*
X135415603Y-92514708D01*
X135348671Y-92389486D01*
X135104702Y-92317903D01*
X134291605Y-93131000D01*
X133932395Y-93131000D01*
X133119298Y-92317903D01*
X132875329Y-92389486D01*
X132754429Y-92644996D01*
X132685700Y-92919184D01*
X132671783Y-93201512D01*
X119507000Y-93201512D01*
X119507000Y-92138298D01*
X133298903Y-92138298D01*
X134112000Y-92951395D01*
X134925097Y-92138298D01*
X134853514Y-91894329D01*
X134598004Y-91773429D01*
X134323816Y-91704700D01*
X134041488Y-91690783D01*
X133761870Y-91732213D01*
X133495708Y-91827397D01*
X133370486Y-91894329D01*
X133298903Y-92138298D01*
X119507000Y-92138298D01*
X119507000Y-90297000D01*
X148463000Y-90297000D01*
X148463000Y-128143000D01*
G36*
X145923000Y-127508000D02*
G01*
X145535002Y-127508000D01*
X145700536Y-127345494D01*
X145867571Y-127100437D01*
X145923000Y-126970038D01*
X145923000Y-127508000D01*
X145923000Y-127508000D01*
G37*
X145923000Y-127508000D02*
X145535002Y-127508000D01*
X145700536Y-127345494D01*
X145867571Y-127100437D01*
X145923000Y-126970038D01*
X145923000Y-127508000D01*
G36*
X145923000Y-126584301D02*
G01*
X145880247Y-126502002D01*
X145923000Y-126502002D01*
X145923000Y-126584301D01*
X145923000Y-126584301D01*
G37*
X145923000Y-126584301D02*
X145880247Y-126502002D01*
X145923000Y-126502002D01*
X145923000Y-126584301D01*
G36*
X145923000Y-125779962D02*
G01*
X145867571Y-125649563D01*
X145700536Y-125404506D01*
X145488903Y-125196744D01*
X145240804Y-125034262D01*
X144965773Y-124923304D01*
X144674380Y-124868134D01*
X144437000Y-125024414D01*
X144437000Y-126248000D01*
X144457000Y-126248000D01*
X144457000Y-126502000D01*
X144437000Y-126502000D01*
X144437000Y-126522000D01*
X144183000Y-126522000D01*
X144183000Y-126502000D01*
X144163000Y-126502000D01*
X144163000Y-126248000D01*
X144183000Y-126248000D01*
X144183000Y-125024414D01*
X143945620Y-124868134D01*
X143891000Y-124878475D01*
X143891000Y-123444000D01*
X145923000Y-123444000D01*
X145923000Y-125779962D01*
X145923000Y-125779962D01*
G37*
X145923000Y-125779962D02*
X145867571Y-125649563D01*
X145700536Y-125404506D01*
X145488903Y-125196744D01*
X145240804Y-125034262D01*
X144965773Y-124923304D01*
X144674380Y-124868134D01*
X144437000Y-125024414D01*
X144437000Y-126248000D01*
X144457000Y-126248000D01*
X144457000Y-126502000D01*
X144437000Y-126502000D01*
X144437000Y-126522000D01*
X144183000Y-126522000D01*
X144183000Y-126502000D01*
X144163000Y-126502000D01*
X144163000Y-126248000D01*
X144183000Y-126248000D01*
X144183000Y-125024414D01*
X143945620Y-124868134D01*
X143891000Y-124878475D01*
X143891000Y-123444000D01*
X145923000Y-123444000D01*
X145923000Y-125779962D01*
G36*
X145923000Y-126247998D02*
G01*
X145880247Y-126247998D01*
X145923000Y-126165699D01*
X145923000Y-126247998D01*
X145923000Y-126247998D01*
G37*
X145923000Y-126247998D02*
X145880247Y-126247998D01*
X145923000Y-126165699D01*
X145923000Y-126247998D01*
G36*
X145923000Y-113538000D02*
G01*
X145591027Y-113538000D01*
X145700536Y-113430494D01*
X145867571Y-113185437D01*
X145923000Y-113055038D01*
X145923000Y-113538000D01*
X145923000Y-113538000D01*
G37*
X145923000Y-113538000D02*
X145591027Y-113538000D01*
X145700536Y-113430494D01*
X145867571Y-113185437D01*
X145923000Y-113055038D01*
X145923000Y-113538000D01*
G36*
X145923000Y-112669301D02*
G01*
X145880247Y-112587002D01*
X145923000Y-112587002D01*
X145923000Y-112669301D01*
X145923000Y-112669301D01*
G37*
X145923000Y-112669301D02*
X145880247Y-112587002D01*
X145923000Y-112587002D01*
X145923000Y-112669301D01*
G36*
X145923000Y-111864962D02*
G01*
X145867571Y-111734563D01*
X145700536Y-111489506D01*
X145488903Y-111281744D01*
X145240804Y-111119262D01*
X144965773Y-111008304D01*
X144674380Y-110953134D01*
X144437000Y-111109414D01*
X144437000Y-112333000D01*
X144457000Y-112333000D01*
X144457000Y-112587000D01*
X144437000Y-112587000D01*
X144437000Y-112607000D01*
X144183000Y-112607000D01*
X144183000Y-112587000D01*
X144163000Y-112587000D01*
X144163000Y-112333000D01*
X144183000Y-112333000D01*
X144183000Y-111109414D01*
X143945620Y-110953134D01*
X143891000Y-110963475D01*
X143891000Y-109474000D01*
X145923000Y-109474000D01*
X145923000Y-111864962D01*
X145923000Y-111864962D01*
G37*
X145923000Y-111864962D02*
X145867571Y-111734563D01*
X145700536Y-111489506D01*
X145488903Y-111281744D01*
X145240804Y-111119262D01*
X144965773Y-111008304D01*
X144674380Y-110953134D01*
X144437000Y-111109414D01*
X144437000Y-112333000D01*
X144457000Y-112333000D01*
X144457000Y-112587000D01*
X144437000Y-112587000D01*
X144437000Y-112607000D01*
X144183000Y-112607000D01*
X144183000Y-112587000D01*
X144163000Y-112587000D01*
X144163000Y-112333000D01*
X144183000Y-112333000D01*
X144183000Y-111109414D01*
X143945620Y-110953134D01*
X143891000Y-110963475D01*
X143891000Y-109474000D01*
X145923000Y-109474000D01*
X145923000Y-111864962D01*
G36*
X145923000Y-112332998D02*
G01*
X145880247Y-112332998D01*
X145923000Y-112250699D01*
X145923000Y-112332998D01*
X145923000Y-112332998D01*
G37*
X145923000Y-112332998D02*
X145880247Y-112332998D01*
X145923000Y-112250699D01*
X145923000Y-112332998D01*
G36*
X145923000Y-99695000D02*
G01*
X145517685Y-99695000D01*
X145700536Y-99515494D01*
X145867571Y-99270437D01*
X145923000Y-99140038D01*
X145923000Y-99695000D01*
X145923000Y-99695000D01*
G37*
X145923000Y-99695000D02*
X145517685Y-99695000D01*
X145700536Y-99515494D01*
X145867571Y-99270437D01*
X145923000Y-99140038D01*
X145923000Y-99695000D01*
G36*
X145923000Y-98754301D02*
G01*
X145880247Y-98672002D01*
X145923000Y-98672002D01*
X145923000Y-98754301D01*
X145923000Y-98754301D01*
G37*
X145923000Y-98754301D02*
X145880247Y-98672002D01*
X145923000Y-98672002D01*
X145923000Y-98754301D01*
G36*
X145923000Y-97949962D02*
G01*
X145867571Y-97819563D01*
X145700536Y-97574506D01*
X145488903Y-97366744D01*
X145240804Y-97204262D01*
X144965773Y-97093304D01*
X144674380Y-97038134D01*
X144437000Y-97194414D01*
X144437000Y-98418000D01*
X144457000Y-98418000D01*
X144457000Y-98672000D01*
X144437000Y-98672000D01*
X144437000Y-98692000D01*
X144183000Y-98692000D01*
X144183000Y-98672000D01*
X144163000Y-98672000D01*
X144163000Y-98418000D01*
X144183000Y-98418000D01*
X144183000Y-97194414D01*
X143945620Y-97038134D01*
X143891000Y-97048475D01*
X143891000Y-96647000D01*
X145923000Y-96647000D01*
X145923000Y-97949962D01*
X145923000Y-97949962D01*
G37*
X145923000Y-97949962D02*
X145867571Y-97819563D01*
X145700536Y-97574506D01*
X145488903Y-97366744D01*
X145240804Y-97204262D01*
X144965773Y-97093304D01*
X144674380Y-97038134D01*
X144437000Y-97194414D01*
X144437000Y-98418000D01*
X144457000Y-98418000D01*
X144457000Y-98672000D01*
X144437000Y-98672000D01*
X144437000Y-98692000D01*
X144183000Y-98692000D01*
X144183000Y-98672000D01*
X144163000Y-98672000D01*
X144163000Y-98418000D01*
X144183000Y-98418000D01*
X144183000Y-97194414D01*
X143945620Y-97038134D01*
X143891000Y-97048475D01*
X143891000Y-96647000D01*
X145923000Y-96647000D01*
X145923000Y-97949962D01*
G36*
X145923000Y-98417998D02*
G01*
X145880247Y-98417998D01*
X145923000Y-98335699D01*
X145923000Y-98417998D01*
X145923000Y-98417998D01*
G37*
X145923000Y-98417998D02*
X145880247Y-98417998D01*
X145923000Y-98335699D01*
X145923000Y-98417998D01*
M02*
