G04 #@! TF.GenerationSoftware,KiCad,Pcbnew,5.1.2*
G04 #@! TF.CreationDate,2019-06-09T22:32:49-04:00*
G04 #@! TF.ProjectId,power_supply,706f7765-725f-4737-9570-706c792e6b69,0*
G04 #@! TF.SameCoordinates,Original*
G04 #@! TF.FileFunction,Profile,NP*
%FSLAX46Y46*%
G04 Gerber Fmt 4.6, Leading zero omitted, Abs format (unit mm)*
G04 Created by KiCad (PCBNEW 5.1.2) date 2019-06-09 22:32:49*
%MOMM*%
%LPD*%
G04 APERTURE LIST*
%ADD10C,0.100000*%
%ADD11C,0.150000*%
%ADD12C,0.300000*%
%ADD13C,0.400000*%
%ADD14C,0.050000*%
G04 APERTURE END LIST*
D10*
D11*
X159400000Y-171900000D02*
X159400000Y-203900000D01*
X267400000Y-203900000D01*
X267400000Y-171900000D01*
X159400000Y-171900000D01*
D10*
D11*
X10000000Y-10000000D02*
X10000000Y-205900000D01*
X269400000Y-205900000D01*
X269400000Y-10000000D01*
X10000000Y-10000000D01*
D10*
D11*
X12000000Y-12000000D02*
X12000000Y-203900000D01*
X267400000Y-203900000D01*
X267400000Y-12000000D01*
X12000000Y-12000000D01*
D10*
D11*
X60000000Y-12000000D02*
X60000000Y-10000000D01*
D10*
D11*
X110000000Y-12000000D02*
X110000000Y-10000000D01*
D10*
D11*
X160000000Y-12000000D02*
X160000000Y-10000000D01*
D10*
D11*
X210000000Y-12000000D02*
X210000000Y-10000000D01*
D10*
D11*
X260000000Y-12000000D02*
X260000000Y-10000000D01*
D10*
D11*
X36065476Y-11588095D02*
X35322619Y-11588095D01*
X35694047Y-11588095D02*
X35694047Y-10288095D01*
X35570238Y-10473809D01*
X35446428Y-10597619D01*
X35322619Y-10659523D01*
D10*
D11*
X85322619Y-10411904D02*
X85384523Y-10350000D01*
X85508333Y-10288095D01*
X85817857Y-10288095D01*
X85941666Y-10350000D01*
X86003571Y-10411904D01*
X86065476Y-10535714D01*
X86065476Y-10659523D01*
X86003571Y-10845238D01*
X85260714Y-11588095D01*
X86065476Y-11588095D01*
D10*
D11*
X135260714Y-10288095D02*
X136065476Y-10288095D01*
X135632142Y-10783333D01*
X135817857Y-10783333D01*
X135941666Y-10845238D01*
X136003571Y-10907142D01*
X136065476Y-11030952D01*
X136065476Y-11340476D01*
X136003571Y-11464285D01*
X135941666Y-11526190D01*
X135817857Y-11588095D01*
X135446428Y-11588095D01*
X135322619Y-11526190D01*
X135260714Y-11464285D01*
D10*
D11*
X185941666Y-10721428D02*
X185941666Y-11588095D01*
X185632142Y-10226190D02*
X185322619Y-11154761D01*
X186127380Y-11154761D01*
D10*
D11*
X236003571Y-10288095D02*
X235384523Y-10288095D01*
X235322619Y-10907142D01*
X235384523Y-10845238D01*
X235508333Y-10783333D01*
X235817857Y-10783333D01*
X235941666Y-10845238D01*
X236003571Y-10907142D01*
X236065476Y-11030952D01*
X236065476Y-11340476D01*
X236003571Y-11464285D01*
X235941666Y-11526190D01*
X235817857Y-11588095D01*
X235508333Y-11588095D01*
X235384523Y-11526190D01*
X235322619Y-11464285D01*
D10*
D11*
X60000000Y-203900000D02*
X60000000Y-205900000D01*
D10*
D11*
X110000000Y-203900000D02*
X110000000Y-205900000D01*
D10*
D11*
X160000000Y-203900000D02*
X160000000Y-205900000D01*
D10*
D11*
X210000000Y-203900000D02*
X210000000Y-205900000D01*
D10*
D11*
X260000000Y-203900000D02*
X260000000Y-205900000D01*
D10*
D11*
X36065476Y-205488095D02*
X35322619Y-205488095D01*
X35694047Y-205488095D02*
X35694047Y-204188095D01*
X35570238Y-204373809D01*
X35446428Y-204497619D01*
X35322619Y-204559523D01*
D10*
D11*
X85322619Y-204311904D02*
X85384523Y-204250000D01*
X85508333Y-204188095D01*
X85817857Y-204188095D01*
X85941666Y-204250000D01*
X86003571Y-204311904D01*
X86065476Y-204435714D01*
X86065476Y-204559523D01*
X86003571Y-204745238D01*
X85260714Y-205488095D01*
X86065476Y-205488095D01*
D10*
D11*
X135260714Y-204188095D02*
X136065476Y-204188095D01*
X135632142Y-204683333D01*
X135817857Y-204683333D01*
X135941666Y-204745238D01*
X136003571Y-204807142D01*
X136065476Y-204930952D01*
X136065476Y-205240476D01*
X136003571Y-205364285D01*
X135941666Y-205426190D01*
X135817857Y-205488095D01*
X135446428Y-205488095D01*
X135322619Y-205426190D01*
X135260714Y-205364285D01*
D10*
D11*
X185941666Y-204621428D02*
X185941666Y-205488095D01*
X185632142Y-204126190D02*
X185322619Y-205054761D01*
X186127380Y-205054761D01*
D10*
D11*
X236003571Y-204188095D02*
X235384523Y-204188095D01*
X235322619Y-204807142D01*
X235384523Y-204745238D01*
X235508333Y-204683333D01*
X235817857Y-204683333D01*
X235941666Y-204745238D01*
X236003571Y-204807142D01*
X236065476Y-204930952D01*
X236065476Y-205240476D01*
X236003571Y-205364285D01*
X235941666Y-205426190D01*
X235817857Y-205488095D01*
X235508333Y-205488095D01*
X235384523Y-205426190D01*
X235322619Y-205364285D01*
D10*
D11*
X10000000Y-60000000D02*
X12000000Y-60000000D01*
D10*
D11*
X10000000Y-110000000D02*
X12000000Y-110000000D01*
D10*
D11*
X10000000Y-160000000D02*
X12000000Y-160000000D01*
D10*
D11*
X10690476Y-35216666D02*
X11309523Y-35216666D01*
X10566666Y-35588095D02*
X11000000Y-34288095D01*
X11433333Y-35588095D01*
D10*
D11*
X11092857Y-84907142D02*
X11278571Y-84969047D01*
X11340476Y-85030952D01*
X11402380Y-85154761D01*
X11402380Y-85340476D01*
X11340476Y-85464285D01*
X11278571Y-85526190D01*
X11154761Y-85588095D01*
X10659523Y-85588095D01*
X10659523Y-84288095D01*
X11092857Y-84288095D01*
X11216666Y-84350000D01*
X11278571Y-84411904D01*
X11340476Y-84535714D01*
X11340476Y-84659523D01*
X11278571Y-84783333D01*
X11216666Y-84845238D01*
X11092857Y-84907142D01*
X10659523Y-84907142D01*
D10*
D11*
X11402380Y-135464285D02*
X11340476Y-135526190D01*
X11154761Y-135588095D01*
X11030952Y-135588095D01*
X10845238Y-135526190D01*
X10721428Y-135402380D01*
X10659523Y-135278571D01*
X10597619Y-135030952D01*
X10597619Y-134845238D01*
X10659523Y-134597619D01*
X10721428Y-134473809D01*
X10845238Y-134350000D01*
X11030952Y-134288095D01*
X11154761Y-134288095D01*
X11340476Y-134350000D01*
X11402380Y-134411904D01*
D10*
D11*
X10659523Y-185588095D02*
X10659523Y-184288095D01*
X10969047Y-184288095D01*
X11154761Y-184350000D01*
X11278571Y-184473809D01*
X11340476Y-184597619D01*
X11402380Y-184845238D01*
X11402380Y-185030952D01*
X11340476Y-185278571D01*
X11278571Y-185402380D01*
X11154761Y-185526190D01*
X10969047Y-185588095D01*
X10659523Y-185588095D01*
D10*
D11*
X269400000Y-60000000D02*
X267400000Y-60000000D01*
D10*
D11*
X269400000Y-110000000D02*
X267400000Y-110000000D01*
D10*
D11*
X269400000Y-160000000D02*
X267400000Y-160000000D01*
D10*
D11*
X268090476Y-35216666D02*
X268709523Y-35216666D01*
X267966666Y-35588095D02*
X268400000Y-34288095D01*
X268833333Y-35588095D01*
D10*
D11*
X268492857Y-84907142D02*
X268678571Y-84969047D01*
X268740476Y-85030952D01*
X268802380Y-85154761D01*
X268802380Y-85340476D01*
X268740476Y-85464285D01*
X268678571Y-85526190D01*
X268554761Y-85588095D01*
X268059523Y-85588095D01*
X268059523Y-84288095D01*
X268492857Y-84288095D01*
X268616666Y-84350000D01*
X268678571Y-84411904D01*
X268740476Y-84535714D01*
X268740476Y-84659523D01*
X268678571Y-84783333D01*
X268616666Y-84845238D01*
X268492857Y-84907142D01*
X268059523Y-84907142D01*
D10*
D11*
X268802380Y-135464285D02*
X268740476Y-135526190D01*
X268554761Y-135588095D01*
X268430952Y-135588095D01*
X268245238Y-135526190D01*
X268121428Y-135402380D01*
X268059523Y-135278571D01*
X267997619Y-135030952D01*
X267997619Y-134845238D01*
X268059523Y-134597619D01*
X268121428Y-134473809D01*
X268245238Y-134350000D01*
X268430952Y-134288095D01*
X268554761Y-134288095D01*
X268740476Y-134350000D01*
X268802380Y-134411904D01*
D10*
D11*
X268059523Y-185588095D02*
X268059523Y-184288095D01*
X268369047Y-184288095D01*
X268554761Y-184350000D01*
X268678571Y-184473809D01*
X268740476Y-184597619D01*
X268802380Y-184845238D01*
X268802380Y-185030952D01*
X268740476Y-185278571D01*
X268678571Y-185402380D01*
X268554761Y-185526190D01*
X268369047Y-185588095D01*
X268059523Y-185588095D01*
D10*
D11*
X182832142Y-199678571D02*
X182832142Y-198178571D01*
X183189285Y-198178571D01*
X183403571Y-198250000D01*
X183546428Y-198392857D01*
X183617857Y-198535714D01*
X183689285Y-198821428D01*
X183689285Y-199035714D01*
X183617857Y-199321428D01*
X183546428Y-199464285D01*
X183403571Y-199607142D01*
X183189285Y-199678571D01*
X182832142Y-199678571D01*
X184975000Y-199678571D02*
X184975000Y-198892857D01*
X184903571Y-198750000D01*
X184760714Y-198678571D01*
X184475000Y-198678571D01*
X184332142Y-198750000D01*
X184975000Y-199607142D02*
X184832142Y-199678571D01*
X184475000Y-199678571D01*
X184332142Y-199607142D01*
X184260714Y-199464285D01*
X184260714Y-199321428D01*
X184332142Y-199178571D01*
X184475000Y-199107142D01*
X184832142Y-199107142D01*
X184975000Y-199035714D01*
X185475000Y-198678571D02*
X186046428Y-198678571D01*
X185689285Y-198178571D02*
X185689285Y-199464285D01*
X185760714Y-199607142D01*
X185903571Y-199678571D01*
X186046428Y-199678571D01*
X187117857Y-199607142D02*
X186975000Y-199678571D01*
X186689285Y-199678571D01*
X186546428Y-199607142D01*
X186475000Y-199464285D01*
X186475000Y-198892857D01*
X186546428Y-198750000D01*
X186689285Y-198678571D01*
X186975000Y-198678571D01*
X187117857Y-198750000D01*
X187189285Y-198892857D01*
X187189285Y-199035714D01*
X186475000Y-199178571D01*
X187832142Y-199535714D02*
X187903571Y-199607142D01*
X187832142Y-199678571D01*
X187760714Y-199607142D01*
X187832142Y-199535714D01*
X187832142Y-199678571D01*
X187832142Y-198750000D02*
X187903571Y-198821428D01*
X187832142Y-198892857D01*
X187760714Y-198821428D01*
X187832142Y-198750000D01*
X187832142Y-198892857D01*
X189617857Y-198321428D02*
X189689285Y-198250000D01*
X189832142Y-198178571D01*
X190189285Y-198178571D01*
X190332142Y-198250000D01*
X190403571Y-198321428D01*
X190475000Y-198464285D01*
X190475000Y-198607142D01*
X190403571Y-198821428D01*
X189546428Y-199678571D01*
X190475000Y-199678571D01*
X191403571Y-198178571D02*
X191546428Y-198178571D01*
X191689285Y-198250000D01*
X191760714Y-198321428D01*
X191832142Y-198464285D01*
X191903571Y-198750000D01*
X191903571Y-199107142D01*
X191832142Y-199392857D01*
X191760714Y-199535714D01*
X191689285Y-199607142D01*
X191546428Y-199678571D01*
X191403571Y-199678571D01*
X191260714Y-199607142D01*
X191189285Y-199535714D01*
X191117857Y-199392857D01*
X191046428Y-199107142D01*
X191046428Y-198750000D01*
X191117857Y-198464285D01*
X191189285Y-198321428D01*
X191260714Y-198250000D01*
X191403571Y-198178571D01*
X193332142Y-199678571D02*
X192475000Y-199678571D01*
X192903571Y-199678571D02*
X192903571Y-198178571D01*
X192760714Y-198392857D01*
X192617857Y-198535714D01*
X192475000Y-198607142D01*
X194046428Y-199678571D02*
X194332142Y-199678571D01*
X194475000Y-199607142D01*
X194546428Y-199535714D01*
X194689285Y-199321428D01*
X194760714Y-199035714D01*
X194760714Y-198464285D01*
X194689285Y-198321428D01*
X194617857Y-198250000D01*
X194475000Y-198178571D01*
X194189285Y-198178571D01*
X194046428Y-198250000D01*
X193975000Y-198321428D01*
X193903571Y-198464285D01*
X193903571Y-198821428D01*
X193975000Y-198964285D01*
X194046428Y-199035714D01*
X194189285Y-199107142D01*
X194475000Y-199107142D01*
X194617857Y-199035714D01*
X194689285Y-198964285D01*
X194760714Y-198821428D01*
X195403571Y-199107142D02*
X196546428Y-199107142D01*
X197546428Y-198178571D02*
X197689285Y-198178571D01*
X197832142Y-198250000D01*
X197903571Y-198321428D01*
X197975000Y-198464285D01*
X198046428Y-198750000D01*
X198046428Y-199107142D01*
X197975000Y-199392857D01*
X197903571Y-199535714D01*
X197832142Y-199607142D01*
X197689285Y-199678571D01*
X197546428Y-199678571D01*
X197403571Y-199607142D01*
X197332142Y-199535714D01*
X197260714Y-199392857D01*
X197189285Y-199107142D01*
X197189285Y-198750000D01*
X197260714Y-198464285D01*
X197332142Y-198321428D01*
X197403571Y-198250000D01*
X197546428Y-198178571D01*
X199332142Y-198178571D02*
X199046428Y-198178571D01*
X198903571Y-198250000D01*
X198832142Y-198321428D01*
X198689285Y-198535714D01*
X198617857Y-198821428D01*
X198617857Y-199392857D01*
X198689285Y-199535714D01*
X198760714Y-199607142D01*
X198903571Y-199678571D01*
X199189285Y-199678571D01*
X199332142Y-199607142D01*
X199403571Y-199535714D01*
X199475000Y-199392857D01*
X199475000Y-199035714D01*
X199403571Y-198892857D01*
X199332142Y-198821428D01*
X199189285Y-198750000D01*
X198903571Y-198750000D01*
X198760714Y-198821428D01*
X198689285Y-198892857D01*
X198617857Y-199035714D01*
X200117857Y-199107142D02*
X201260714Y-199107142D01*
X202260714Y-198178571D02*
X202403571Y-198178571D01*
X202546428Y-198250000D01*
X202617857Y-198321428D01*
X202689285Y-198464285D01*
X202760714Y-198750000D01*
X202760714Y-199107142D01*
X202689285Y-199392857D01*
X202617857Y-199535714D01*
X202546428Y-199607142D01*
X202403571Y-199678571D01*
X202260714Y-199678571D01*
X202117857Y-199607142D01*
X202046428Y-199535714D01*
X201975000Y-199392857D01*
X201903571Y-199107142D01*
X201903571Y-198750000D01*
X201975000Y-198464285D01*
X202046428Y-198321428D01*
X202117857Y-198250000D01*
X202260714Y-198178571D01*
X203475000Y-199678571D02*
X203760714Y-199678571D01*
X203903571Y-199607142D01*
X203975000Y-199535714D01*
X204117857Y-199321428D01*
X204189285Y-199035714D01*
X204189285Y-198464285D01*
X204117857Y-198321428D01*
X204046428Y-198250000D01*
X203903571Y-198178571D01*
X203617857Y-198178571D01*
X203475000Y-198250000D01*
X203403571Y-198321428D01*
X203332142Y-198464285D01*
X203332142Y-198821428D01*
X203403571Y-198964285D01*
X203475000Y-199035714D01*
X203617857Y-199107142D01*
X203903571Y-199107142D01*
X204046428Y-199035714D01*
X204117857Y-198964285D01*
X204189285Y-198821428D01*
D10*
D11*
X159400000Y-200400000D02*
X267400000Y-200400000D01*
D10*
D11*
X160832142Y-202478571D02*
X160832142Y-200978571D01*
X161689285Y-202478571D02*
X161046428Y-201621428D01*
X161689285Y-200978571D02*
X160832142Y-201835714D01*
X162332142Y-202478571D02*
X162332142Y-201478571D01*
X162332142Y-200978571D02*
X162260714Y-201050000D01*
X162332142Y-201121428D01*
X162403571Y-201050000D01*
X162332142Y-200978571D01*
X162332142Y-201121428D01*
X163903571Y-202335714D02*
X163832142Y-202407142D01*
X163617857Y-202478571D01*
X163475000Y-202478571D01*
X163260714Y-202407142D01*
X163117857Y-202264285D01*
X163046428Y-202121428D01*
X162975000Y-201835714D01*
X162975000Y-201621428D01*
X163046428Y-201335714D01*
X163117857Y-201192857D01*
X163260714Y-201050000D01*
X163475000Y-200978571D01*
X163617857Y-200978571D01*
X163832142Y-201050000D01*
X163903571Y-201121428D01*
X165189285Y-202478571D02*
X165189285Y-201692857D01*
X165117857Y-201550000D01*
X164975000Y-201478571D01*
X164689285Y-201478571D01*
X164546428Y-201550000D01*
X165189285Y-202407142D02*
X165046428Y-202478571D01*
X164689285Y-202478571D01*
X164546428Y-202407142D01*
X164475000Y-202264285D01*
X164475000Y-202121428D01*
X164546428Y-201978571D01*
X164689285Y-201907142D01*
X165046428Y-201907142D01*
X165189285Y-201835714D01*
X166546428Y-202478571D02*
X166546428Y-200978571D01*
X166546428Y-202407142D02*
X166403571Y-202478571D01*
X166117857Y-202478571D01*
X165975000Y-202407142D01*
X165903571Y-202335714D01*
X165832142Y-202192857D01*
X165832142Y-201764285D01*
X165903571Y-201621428D01*
X165975000Y-201550000D01*
X166117857Y-201478571D01*
X166403571Y-201478571D01*
X166546428Y-201550000D01*
X168403571Y-201692857D02*
X168903571Y-201692857D01*
X169117857Y-202478571D02*
X168403571Y-202478571D01*
X168403571Y-200978571D01*
X169117857Y-200978571D01*
X169760714Y-202335714D02*
X169832142Y-202407142D01*
X169760714Y-202478571D01*
X169689285Y-202407142D01*
X169760714Y-202335714D01*
X169760714Y-202478571D01*
X170475000Y-202478571D02*
X170475000Y-200978571D01*
X170832142Y-200978571D01*
X171046428Y-201050000D01*
X171189285Y-201192857D01*
X171260714Y-201335714D01*
X171332142Y-201621428D01*
X171332142Y-201835714D01*
X171260714Y-202121428D01*
X171189285Y-202264285D01*
X171046428Y-202407142D01*
X170832142Y-202478571D01*
X170475000Y-202478571D01*
X171975000Y-202335714D02*
X172046428Y-202407142D01*
X171975000Y-202478571D01*
X171903571Y-202407142D01*
X171975000Y-202335714D01*
X171975000Y-202478571D01*
X172617857Y-202050000D02*
X173332142Y-202050000D01*
X172475000Y-202478571D02*
X172975000Y-200978571D01*
X173475000Y-202478571D01*
X173975000Y-202335714D02*
X174046428Y-202407142D01*
X173975000Y-202478571D01*
X173903571Y-202407142D01*
X173975000Y-202335714D01*
X173975000Y-202478571D01*
X176975000Y-202478571D02*
X176975000Y-200978571D01*
X177117857Y-201907142D02*
X177546428Y-202478571D01*
X177546428Y-201478571D02*
X176975000Y-202050000D01*
X178189285Y-202478571D02*
X178189285Y-201478571D01*
X178189285Y-200978571D02*
X178117857Y-201050000D01*
X178189285Y-201121428D01*
X178260714Y-201050000D01*
X178189285Y-200978571D01*
X178189285Y-201121428D01*
X179546428Y-202407142D02*
X179403571Y-202478571D01*
X179117857Y-202478571D01*
X178975000Y-202407142D01*
X178903571Y-202335714D01*
X178832142Y-202192857D01*
X178832142Y-201764285D01*
X178903571Y-201621428D01*
X178975000Y-201550000D01*
X179117857Y-201478571D01*
X179403571Y-201478571D01*
X179546428Y-201550000D01*
X180832142Y-202478571D02*
X180832142Y-201692857D01*
X180760714Y-201550000D01*
X180617857Y-201478571D01*
X180332142Y-201478571D01*
X180189285Y-201550000D01*
X180832142Y-202407142D02*
X180689285Y-202478571D01*
X180332142Y-202478571D01*
X180189285Y-202407142D01*
X180117857Y-202264285D01*
X180117857Y-202121428D01*
X180189285Y-201978571D01*
X180332142Y-201907142D01*
X180689285Y-201907142D01*
X180832142Y-201835714D01*
X182189285Y-202478571D02*
X182189285Y-200978571D01*
X182189285Y-202407142D02*
X182046428Y-202478571D01*
X181760714Y-202478571D01*
X181617857Y-202407142D01*
X181546428Y-202335714D01*
X181475000Y-202192857D01*
X181475000Y-201764285D01*
X181546428Y-201621428D01*
X181617857Y-201550000D01*
X181760714Y-201478571D01*
X182046428Y-201478571D01*
X182189285Y-201550000D01*
X184760714Y-200978571D02*
X184046428Y-200978571D01*
X183975000Y-201692857D01*
X184046428Y-201621428D01*
X184189285Y-201550000D01*
X184546428Y-201550000D01*
X184689285Y-201621428D01*
X184760714Y-201692857D01*
X184832142Y-201835714D01*
X184832142Y-202192857D01*
X184760714Y-202335714D01*
X184689285Y-202407142D01*
X184546428Y-202478571D01*
X184189285Y-202478571D01*
X184046428Y-202407142D01*
X183975000Y-202335714D01*
X185475000Y-202335714D02*
X185546428Y-202407142D01*
X185475000Y-202478571D01*
X185403571Y-202407142D01*
X185475000Y-202335714D01*
X185475000Y-202478571D01*
X186975000Y-202478571D02*
X186117857Y-202478571D01*
X186546428Y-202478571D02*
X186546428Y-200978571D01*
X186403571Y-201192857D01*
X186260714Y-201335714D01*
X186117857Y-201407142D01*
X187617857Y-202335714D02*
X187689285Y-202407142D01*
X187617857Y-202478571D01*
X187546428Y-202407142D01*
X187617857Y-202335714D01*
X187617857Y-202478571D01*
X188260714Y-201121428D02*
X188332142Y-201050000D01*
X188475000Y-200978571D01*
X188832142Y-200978571D01*
X188975000Y-201050000D01*
X189046428Y-201121428D01*
X189117857Y-201264285D01*
X189117857Y-201407142D01*
X189046428Y-201621428D01*
X188189285Y-202478571D01*
X189117857Y-202478571D01*
D10*
D11*
X159400000Y-197400000D02*
X267400000Y-197400000D01*
D10*
D12*
X246809285Y-199678571D02*
X246309285Y-198964285D01*
X245952142Y-199678571D02*
X245952142Y-198178571D01*
X246523571Y-198178571D01*
X246666428Y-198250000D01*
X246737857Y-198321428D01*
X246809285Y-198464285D01*
X246809285Y-198678571D01*
X246737857Y-198821428D01*
X246666428Y-198892857D01*
X246523571Y-198964285D01*
X245952142Y-198964285D01*
X248023571Y-199607142D02*
X247880714Y-199678571D01*
X247595000Y-199678571D01*
X247452142Y-199607142D01*
X247380714Y-199464285D01*
X247380714Y-198892857D01*
X247452142Y-198750000D01*
X247595000Y-198678571D01*
X247880714Y-198678571D01*
X248023571Y-198750000D01*
X248095000Y-198892857D01*
X248095000Y-199035714D01*
X247380714Y-199178571D01*
X248595000Y-198678571D02*
X248952142Y-199678571D01*
X249309285Y-198678571D01*
X249880714Y-199535714D02*
X249952142Y-199607142D01*
X249880714Y-199678571D01*
X249809285Y-199607142D01*
X249880714Y-199535714D01*
X249880714Y-199678571D01*
X249880714Y-198750000D02*
X249952142Y-198821428D01*
X249880714Y-198892857D01*
X249809285Y-198821428D01*
X249880714Y-198750000D01*
X249880714Y-198892857D01*
X252023571Y-198178571D02*
X252166428Y-198178571D01*
X252309285Y-198250000D01*
X252380714Y-198321428D01*
X252452142Y-198464285D01*
X252523571Y-198750000D01*
X252523571Y-199107142D01*
X252452142Y-199392857D01*
X252380714Y-199535714D01*
X252309285Y-199607142D01*
X252166428Y-199678571D01*
X252023571Y-199678571D01*
X251880714Y-199607142D01*
X251809285Y-199535714D01*
X251737857Y-199392857D01*
X251666428Y-199107142D01*
X251666428Y-198750000D01*
X251737857Y-198464285D01*
X251809285Y-198321428D01*
X251880714Y-198250000D01*
X252023571Y-198178571D01*
D10*
D11*
X160760714Y-199607142D02*
X160975000Y-199678571D01*
X161332142Y-199678571D01*
X161475000Y-199607142D01*
X161546428Y-199535714D01*
X161617857Y-199392857D01*
X161617857Y-199250000D01*
X161546428Y-199107142D01*
X161475000Y-199035714D01*
X161332142Y-198964285D01*
X161046428Y-198892857D01*
X160903571Y-198821428D01*
X160832142Y-198750000D01*
X160760714Y-198607142D01*
X160760714Y-198464285D01*
X160832142Y-198321428D01*
X160903571Y-198250000D01*
X161046428Y-198178571D01*
X161403571Y-198178571D01*
X161617857Y-198250000D01*
X162260714Y-199678571D02*
X162260714Y-198678571D01*
X162260714Y-198178571D02*
X162189285Y-198250000D01*
X162260714Y-198321428D01*
X162332142Y-198250000D01*
X162260714Y-198178571D01*
X162260714Y-198321428D01*
X162832142Y-198678571D02*
X163617857Y-198678571D01*
X162832142Y-199678571D01*
X163617857Y-199678571D01*
X164760714Y-199607142D02*
X164617857Y-199678571D01*
X164332142Y-199678571D01*
X164189285Y-199607142D01*
X164117857Y-199464285D01*
X164117857Y-198892857D01*
X164189285Y-198750000D01*
X164332142Y-198678571D01*
X164617857Y-198678571D01*
X164760714Y-198750000D01*
X164832142Y-198892857D01*
X164832142Y-199035714D01*
X164117857Y-199178571D01*
X165475000Y-199535714D02*
X165546428Y-199607142D01*
X165475000Y-199678571D01*
X165403571Y-199607142D01*
X165475000Y-199535714D01*
X165475000Y-199678571D01*
X165475000Y-198750000D02*
X165546428Y-198821428D01*
X165475000Y-198892857D01*
X165403571Y-198821428D01*
X165475000Y-198750000D01*
X165475000Y-198892857D01*
X167260714Y-199250000D02*
X167975000Y-199250000D01*
X167117857Y-199678571D02*
X167617857Y-198178571D01*
X168117857Y-199678571D01*
D10*
D11*
X245832142Y-202478571D02*
X245832142Y-200978571D01*
X247189285Y-202478571D02*
X247189285Y-200978571D01*
X247189285Y-202407142D02*
X247046428Y-202478571D01*
X246760714Y-202478571D01*
X246617857Y-202407142D01*
X246546428Y-202335714D01*
X246475000Y-202192857D01*
X246475000Y-201764285D01*
X246546428Y-201621428D01*
X246617857Y-201550000D01*
X246760714Y-201478571D01*
X247046428Y-201478571D01*
X247189285Y-201550000D01*
X247903571Y-202335714D02*
X247975000Y-202407142D01*
X247903571Y-202478571D01*
X247832142Y-202407142D01*
X247903571Y-202335714D01*
X247903571Y-202478571D01*
X247903571Y-201550000D02*
X247975000Y-201621428D01*
X247903571Y-201692857D01*
X247832142Y-201621428D01*
X247903571Y-201550000D01*
X247903571Y-201692857D01*
X250546428Y-202478571D02*
X249689285Y-202478571D01*
X250117857Y-202478571D02*
X250117857Y-200978571D01*
X249975000Y-201192857D01*
X249832142Y-201335714D01*
X249689285Y-201407142D01*
X252260714Y-200907142D02*
X250975000Y-202835714D01*
X253546428Y-202478571D02*
X252689285Y-202478571D01*
X253117857Y-202478571D02*
X253117857Y-200978571D01*
X252975000Y-201192857D01*
X252832142Y-201335714D01*
X252689285Y-201407142D01*
D10*
D11*
X159400000Y-193400000D02*
X267400000Y-193400000D01*
D10*
D13*
X161112380Y-194104761D02*
X162255238Y-194104761D01*
X161433809Y-196104761D02*
X161683809Y-194104761D01*
X162671904Y-196104761D02*
X162838571Y-194771428D01*
X162921904Y-194104761D02*
X162814761Y-194200000D01*
X162898095Y-194295238D01*
X163005238Y-194200000D01*
X162921904Y-194104761D01*
X162898095Y-194295238D01*
X163505238Y-194771428D02*
X164267142Y-194771428D01*
X163874285Y-194104761D02*
X163660000Y-195819047D01*
X163731428Y-196009523D01*
X163910000Y-196104761D01*
X164100476Y-196104761D01*
X165052857Y-196104761D02*
X164874285Y-196009523D01*
X164802857Y-195819047D01*
X165017142Y-194104761D01*
X166588571Y-196009523D02*
X166386190Y-196104761D01*
X166005238Y-196104761D01*
X165826666Y-196009523D01*
X165755238Y-195819047D01*
X165850476Y-195057142D01*
X165969523Y-194866666D01*
X166171904Y-194771428D01*
X166552857Y-194771428D01*
X166731428Y-194866666D01*
X166802857Y-195057142D01*
X166779047Y-195247619D01*
X165802857Y-195438095D01*
X167552857Y-195914285D02*
X167636190Y-196009523D01*
X167529047Y-196104761D01*
X167445714Y-196009523D01*
X167552857Y-195914285D01*
X167529047Y-196104761D01*
X167683809Y-194866666D02*
X167767142Y-194961904D01*
X167660000Y-195057142D01*
X167576666Y-194961904D01*
X167683809Y-194866666D01*
X167660000Y-195057142D01*
X170005238Y-196104761D02*
X170255238Y-194104761D01*
X171017142Y-194104761D01*
X171195714Y-194200000D01*
X171279047Y-194295238D01*
X171350476Y-194485714D01*
X171314761Y-194771428D01*
X171195714Y-194961904D01*
X171088571Y-195057142D01*
X170886190Y-195152380D01*
X170124285Y-195152380D01*
X172290952Y-196104761D02*
X172112380Y-196009523D01*
X172029047Y-195914285D01*
X171957619Y-195723809D01*
X172029047Y-195152380D01*
X172148095Y-194961904D01*
X172255238Y-194866666D01*
X172457619Y-194771428D01*
X172743333Y-194771428D01*
X172921904Y-194866666D01*
X173005238Y-194961904D01*
X173076666Y-195152380D01*
X173005238Y-195723809D01*
X172886190Y-195914285D01*
X172779047Y-196009523D01*
X172576666Y-196104761D01*
X172290952Y-196104761D01*
X173790952Y-194771428D02*
X174005238Y-196104761D01*
X174505238Y-195152380D01*
X174767142Y-196104761D01*
X175314761Y-194771428D01*
X176683809Y-196009523D02*
X176481428Y-196104761D01*
X176100476Y-196104761D01*
X175921904Y-196009523D01*
X175850476Y-195819047D01*
X175945714Y-195057142D01*
X176064761Y-194866666D01*
X176267142Y-194771428D01*
X176648095Y-194771428D01*
X176826666Y-194866666D01*
X176898095Y-195057142D01*
X176874285Y-195247619D01*
X175898095Y-195438095D01*
X177624285Y-196104761D02*
X177790952Y-194771428D01*
X177743333Y-195152380D02*
X177862380Y-194961904D01*
X177969523Y-194866666D01*
X178171904Y-194771428D01*
X178362380Y-194771428D01*
X180302857Y-196009523D02*
X180576666Y-196104761D01*
X181052857Y-196104761D01*
X181255238Y-196009523D01*
X181362380Y-195914285D01*
X181481428Y-195723809D01*
X181505238Y-195533333D01*
X181433809Y-195342857D01*
X181350476Y-195247619D01*
X181171904Y-195152380D01*
X180802857Y-195057142D01*
X180624285Y-194961904D01*
X180540952Y-194866666D01*
X180469523Y-194676190D01*
X180493333Y-194485714D01*
X180612380Y-194295238D01*
X180719523Y-194200000D01*
X180921904Y-194104761D01*
X181398095Y-194104761D01*
X181671904Y-194200000D01*
X183314761Y-194771428D02*
X183148095Y-196104761D01*
X182457619Y-194771428D02*
X182326666Y-195819047D01*
X182398095Y-196009523D01*
X182576666Y-196104761D01*
X182862380Y-196104761D01*
X183064761Y-196009523D01*
X183171904Y-195914285D01*
X184267142Y-194771428D02*
X184017142Y-196771428D01*
X184255238Y-194866666D02*
X184457619Y-194771428D01*
X184838571Y-194771428D01*
X185017142Y-194866666D01*
X185100476Y-194961904D01*
X185171904Y-195152380D01*
X185100476Y-195723809D01*
X184981428Y-195914285D01*
X184874285Y-196009523D01*
X184671904Y-196104761D01*
X184290952Y-196104761D01*
X184112380Y-196009523D01*
X186076666Y-194771428D02*
X185826666Y-196771428D01*
X186064761Y-194866666D02*
X186267142Y-194771428D01*
X186648095Y-194771428D01*
X186826666Y-194866666D01*
X186910000Y-194961904D01*
X186981428Y-195152380D01*
X186910000Y-195723809D01*
X186790952Y-195914285D01*
X186683809Y-196009523D01*
X186481428Y-196104761D01*
X186100476Y-196104761D01*
X185921904Y-196009523D01*
X188005238Y-196104761D02*
X187826666Y-196009523D01*
X187755238Y-195819047D01*
X187969523Y-194104761D01*
X188743333Y-194771428D02*
X189052857Y-196104761D01*
X189695714Y-194771428D02*
X189052857Y-196104761D01*
X188802857Y-196580952D01*
X188695714Y-196676190D01*
X188493333Y-196771428D01*
X192612380Y-195057142D02*
X192886190Y-195152380D01*
X192969523Y-195247619D01*
X193040952Y-195438095D01*
X193005238Y-195723809D01*
X192886190Y-195914285D01*
X192779047Y-196009523D01*
X192576666Y-196104761D01*
X191814761Y-196104761D01*
X192064761Y-194104761D01*
X192731428Y-194104761D01*
X192910000Y-194200000D01*
X192993333Y-194295238D01*
X193064761Y-194485714D01*
X193040952Y-194676190D01*
X192921904Y-194866666D01*
X192814761Y-194961904D01*
X192612380Y-195057142D01*
X191945714Y-195057142D01*
X194100476Y-196104761D02*
X193921904Y-196009523D01*
X193838571Y-195914285D01*
X193767142Y-195723809D01*
X193838571Y-195152380D01*
X193957619Y-194961904D01*
X194064761Y-194866666D01*
X194267142Y-194771428D01*
X194552857Y-194771428D01*
X194731428Y-194866666D01*
X194814761Y-194961904D01*
X194886190Y-195152380D01*
X194814761Y-195723809D01*
X194695714Y-195914285D01*
X194588571Y-196009523D01*
X194386190Y-196104761D01*
X194100476Y-196104761D01*
X196481428Y-196104761D02*
X196612380Y-195057142D01*
X196540952Y-194866666D01*
X196362380Y-194771428D01*
X195981428Y-194771428D01*
X195779047Y-194866666D01*
X196493333Y-196009523D02*
X196290952Y-196104761D01*
X195814761Y-196104761D01*
X195636190Y-196009523D01*
X195564761Y-195819047D01*
X195588571Y-195628571D01*
X195707619Y-195438095D01*
X195910000Y-195342857D01*
X196386190Y-195342857D01*
X196588571Y-195247619D01*
X197433809Y-196104761D02*
X197600476Y-194771428D01*
X197552857Y-195152380D02*
X197671904Y-194961904D01*
X197779047Y-194866666D01*
X197981428Y-194771428D01*
X198171904Y-194771428D01*
X199529047Y-196104761D02*
X199779047Y-194104761D01*
X199540952Y-196009523D02*
X199338571Y-196104761D01*
X198957619Y-196104761D01*
X198779047Y-196009523D01*
X198695714Y-195914285D01*
X198624285Y-195723809D01*
X198695714Y-195152380D01*
X198814761Y-194961904D01*
X198921904Y-194866666D01*
X199124285Y-194771428D01*
X199505238Y-194771428D01*
X199683809Y-194866666D01*
D10*
D11*
X161332142Y-191492857D02*
X160832142Y-191492857D01*
X160832142Y-192278571D02*
X160832142Y-190778571D01*
X161546428Y-190778571D01*
X162117857Y-192278571D02*
X162117857Y-191278571D01*
X162117857Y-190778571D02*
X162046428Y-190850000D01*
X162117857Y-190921428D01*
X162189285Y-190850000D01*
X162117857Y-190778571D01*
X162117857Y-190921428D01*
X163046428Y-192278571D02*
X162903571Y-192207142D01*
X162832142Y-192064285D01*
X162832142Y-190778571D01*
X164189285Y-192207142D02*
X164046428Y-192278571D01*
X163760714Y-192278571D01*
X163617857Y-192207142D01*
X163546428Y-192064285D01*
X163546428Y-191492857D01*
X163617857Y-191350000D01*
X163760714Y-191278571D01*
X164046428Y-191278571D01*
X164189285Y-191350000D01*
X164260714Y-191492857D01*
X164260714Y-191635714D01*
X163546428Y-191778571D01*
X164903571Y-192135714D02*
X164975000Y-192207142D01*
X164903571Y-192278571D01*
X164832142Y-192207142D01*
X164903571Y-192135714D01*
X164903571Y-192278571D01*
X164903571Y-191350000D02*
X164975000Y-191421428D01*
X164903571Y-191492857D01*
X164832142Y-191421428D01*
X164903571Y-191350000D01*
X164903571Y-191492857D01*
X166760714Y-191278571D02*
X166760714Y-192778571D01*
X166760714Y-191350000D02*
X166903571Y-191278571D01*
X167189285Y-191278571D01*
X167332142Y-191350000D01*
X167403571Y-191421428D01*
X167475000Y-191564285D01*
X167475000Y-191992857D01*
X167403571Y-192135714D01*
X167332142Y-192207142D01*
X167189285Y-192278571D01*
X166903571Y-192278571D01*
X166760714Y-192207142D01*
X168332142Y-192278571D02*
X168189285Y-192207142D01*
X168117857Y-192135714D01*
X168046428Y-191992857D01*
X168046428Y-191564285D01*
X168117857Y-191421428D01*
X168189285Y-191350000D01*
X168332142Y-191278571D01*
X168546428Y-191278571D01*
X168689285Y-191350000D01*
X168760714Y-191421428D01*
X168832142Y-191564285D01*
X168832142Y-191992857D01*
X168760714Y-192135714D01*
X168689285Y-192207142D01*
X168546428Y-192278571D01*
X168332142Y-192278571D01*
X169332142Y-191278571D02*
X169617857Y-192278571D01*
X169903571Y-191564285D01*
X170189285Y-192278571D01*
X170475000Y-191278571D01*
X171617857Y-192207142D02*
X171475000Y-192278571D01*
X171189285Y-192278571D01*
X171046428Y-192207142D01*
X170975000Y-192064285D01*
X170975000Y-191492857D01*
X171046428Y-191350000D01*
X171189285Y-191278571D01*
X171475000Y-191278571D01*
X171617857Y-191350000D01*
X171689285Y-191492857D01*
X171689285Y-191635714D01*
X170975000Y-191778571D01*
X172332142Y-192278571D02*
X172332142Y-191278571D01*
X172332142Y-191564285D02*
X172403571Y-191421428D01*
X172475000Y-191350000D01*
X172617857Y-191278571D01*
X172760714Y-191278571D01*
X172903571Y-192421428D02*
X174046428Y-192421428D01*
X174332142Y-192207142D02*
X174475000Y-192278571D01*
X174760714Y-192278571D01*
X174903571Y-192207142D01*
X174975000Y-192064285D01*
X174975000Y-191992857D01*
X174903571Y-191850000D01*
X174760714Y-191778571D01*
X174546428Y-191778571D01*
X174403571Y-191707142D01*
X174332142Y-191564285D01*
X174332142Y-191492857D01*
X174403571Y-191350000D01*
X174546428Y-191278571D01*
X174760714Y-191278571D01*
X174903571Y-191350000D01*
X176260714Y-191278571D02*
X176260714Y-192278571D01*
X175617857Y-191278571D02*
X175617857Y-192064285D01*
X175689285Y-192207142D01*
X175832142Y-192278571D01*
X176046428Y-192278571D01*
X176189285Y-192207142D01*
X176260714Y-192135714D01*
X176975000Y-191278571D02*
X176975000Y-192778571D01*
X176975000Y-191350000D02*
X177117857Y-191278571D01*
X177403571Y-191278571D01*
X177546428Y-191350000D01*
X177617857Y-191421428D01*
X177689285Y-191564285D01*
X177689285Y-191992857D01*
X177617857Y-192135714D01*
X177546428Y-192207142D01*
X177403571Y-192278571D01*
X177117857Y-192278571D01*
X176975000Y-192207142D01*
X178332142Y-191278571D02*
X178332142Y-192778571D01*
X178332142Y-191350000D02*
X178475000Y-191278571D01*
X178760714Y-191278571D01*
X178903571Y-191350000D01*
X178975000Y-191421428D01*
X179046428Y-191564285D01*
X179046428Y-191992857D01*
X178975000Y-192135714D01*
X178903571Y-192207142D01*
X178760714Y-192278571D01*
X178475000Y-192278571D01*
X178332142Y-192207142D01*
X179903571Y-192278571D02*
X179760714Y-192207142D01*
X179689285Y-192064285D01*
X179689285Y-190778571D01*
X180332142Y-191278571D02*
X180689285Y-192278571D01*
X181046428Y-191278571D02*
X180689285Y-192278571D01*
X180546428Y-192635714D01*
X180475000Y-192707142D01*
X180332142Y-192778571D01*
X181617857Y-192135714D02*
X181689285Y-192207142D01*
X181617857Y-192278571D01*
X181546428Y-192207142D01*
X181617857Y-192135714D01*
X181617857Y-192278571D01*
X182332142Y-192278571D02*
X182332142Y-190778571D01*
X182475000Y-191707142D02*
X182903571Y-192278571D01*
X182903571Y-191278571D02*
X182332142Y-191850000D01*
X183546428Y-192278571D02*
X183546428Y-191278571D01*
X183546428Y-190778571D02*
X183475000Y-190850000D01*
X183546428Y-190921428D01*
X183617857Y-190850000D01*
X183546428Y-190778571D01*
X183546428Y-190921428D01*
X184903571Y-192207142D02*
X184760714Y-192278571D01*
X184475000Y-192278571D01*
X184332142Y-192207142D01*
X184260714Y-192135714D01*
X184189285Y-191992857D01*
X184189285Y-191564285D01*
X184260714Y-191421428D01*
X184332142Y-191350000D01*
X184475000Y-191278571D01*
X184760714Y-191278571D01*
X184903571Y-191350000D01*
X186189285Y-192278571D02*
X186189285Y-191492857D01*
X186117857Y-191350000D01*
X185975000Y-191278571D01*
X185689285Y-191278571D01*
X185546428Y-191350000D01*
X186189285Y-192207142D02*
X186046428Y-192278571D01*
X185689285Y-192278571D01*
X185546428Y-192207142D01*
X185475000Y-192064285D01*
X185475000Y-191921428D01*
X185546428Y-191778571D01*
X185689285Y-191707142D01*
X186046428Y-191707142D01*
X186189285Y-191635714D01*
X187546428Y-192278571D02*
X187546428Y-190778571D01*
X187546428Y-192207142D02*
X187403571Y-192278571D01*
X187117857Y-192278571D01*
X186975000Y-192207142D01*
X186903571Y-192135714D01*
X186832142Y-191992857D01*
X186832142Y-191564285D01*
X186903571Y-191421428D01*
X186975000Y-191350000D01*
X187117857Y-191278571D01*
X187403571Y-191278571D01*
X187546428Y-191350000D01*
X187903571Y-192421428D02*
X189046428Y-192421428D01*
X189403571Y-191278571D02*
X189403571Y-192778571D01*
X189403571Y-191350000D02*
X189546428Y-191278571D01*
X189832142Y-191278571D01*
X189975000Y-191350000D01*
X190046428Y-191421428D01*
X190117857Y-191564285D01*
X190117857Y-191992857D01*
X190046428Y-192135714D01*
X189975000Y-192207142D01*
X189832142Y-192278571D01*
X189546428Y-192278571D01*
X189403571Y-192207142D01*
X191403571Y-192207142D02*
X191260714Y-192278571D01*
X190975000Y-192278571D01*
X190832142Y-192207142D01*
X190760714Y-192135714D01*
X190689285Y-191992857D01*
X190689285Y-191564285D01*
X190760714Y-191421428D01*
X190832142Y-191350000D01*
X190975000Y-191278571D01*
X191260714Y-191278571D01*
X191403571Y-191350000D01*
X192046428Y-192278571D02*
X192046428Y-190778571D01*
X192046428Y-191350000D02*
X192189285Y-191278571D01*
X192475000Y-191278571D01*
X192617857Y-191350000D01*
X192689285Y-191421428D01*
X192760714Y-191564285D01*
X192760714Y-191992857D01*
X192689285Y-192135714D01*
X192617857Y-192207142D01*
X192475000Y-192278571D01*
X192189285Y-192278571D01*
X192046428Y-192207142D01*
D10*
D11*
X159400000Y-187400000D02*
X267400000Y-187400000D01*
D10*
D11*
X160760714Y-189507142D02*
X160975000Y-189578571D01*
X161332142Y-189578571D01*
X161475000Y-189507142D01*
X161546428Y-189435714D01*
X161617857Y-189292857D01*
X161617857Y-189150000D01*
X161546428Y-189007142D01*
X161475000Y-188935714D01*
X161332142Y-188864285D01*
X161046428Y-188792857D01*
X160903571Y-188721428D01*
X160832142Y-188650000D01*
X160760714Y-188507142D01*
X160760714Y-188364285D01*
X160832142Y-188221428D01*
X160903571Y-188150000D01*
X161046428Y-188078571D01*
X161403571Y-188078571D01*
X161617857Y-188150000D01*
X162260714Y-189578571D02*
X162260714Y-188078571D01*
X162903571Y-189578571D02*
X162903571Y-188792857D01*
X162832142Y-188650000D01*
X162689285Y-188578571D01*
X162475000Y-188578571D01*
X162332142Y-188650000D01*
X162260714Y-188721428D01*
X164189285Y-189507142D02*
X164046428Y-189578571D01*
X163760714Y-189578571D01*
X163617857Y-189507142D01*
X163546428Y-189364285D01*
X163546428Y-188792857D01*
X163617857Y-188650000D01*
X163760714Y-188578571D01*
X164046428Y-188578571D01*
X164189285Y-188650000D01*
X164260714Y-188792857D01*
X164260714Y-188935714D01*
X163546428Y-189078571D01*
X165475000Y-189507142D02*
X165332142Y-189578571D01*
X165046428Y-189578571D01*
X164903571Y-189507142D01*
X164832142Y-189364285D01*
X164832142Y-188792857D01*
X164903571Y-188650000D01*
X165046428Y-188578571D01*
X165332142Y-188578571D01*
X165475000Y-188650000D01*
X165546428Y-188792857D01*
X165546428Y-188935714D01*
X164832142Y-189078571D01*
X165975000Y-188578571D02*
X166546428Y-188578571D01*
X166189285Y-188078571D02*
X166189285Y-189364285D01*
X166260714Y-189507142D01*
X166403571Y-189578571D01*
X166546428Y-189578571D01*
X167046428Y-189435714D02*
X167117857Y-189507142D01*
X167046428Y-189578571D01*
X166975000Y-189507142D01*
X167046428Y-189435714D01*
X167046428Y-189578571D01*
X167046428Y-188650000D02*
X167117857Y-188721428D01*
X167046428Y-188792857D01*
X166975000Y-188721428D01*
X167046428Y-188650000D01*
X167046428Y-188792857D01*
D10*
D12*
X161737857Y-185150000D02*
X161595000Y-185078571D01*
X161380714Y-185078571D01*
X161166428Y-185150000D01*
X161023571Y-185292857D01*
X160952142Y-185435714D01*
X160880714Y-185721428D01*
X160880714Y-185935714D01*
X160952142Y-186221428D01*
X161023571Y-186364285D01*
X161166428Y-186507142D01*
X161380714Y-186578571D01*
X161523571Y-186578571D01*
X161737857Y-186507142D01*
X161809285Y-186435714D01*
X161809285Y-185935714D01*
X161523571Y-185935714D01*
X162452142Y-186435714D02*
X162523571Y-186507142D01*
X162452142Y-186578571D01*
X162380714Y-186507142D01*
X162452142Y-186435714D01*
X162452142Y-186578571D01*
X164309285Y-186578571D02*
X164309285Y-185078571D01*
X165166428Y-186578571D02*
X164523571Y-185721428D01*
X165166428Y-185078571D02*
X164309285Y-185935714D01*
X166380714Y-186507142D02*
X166237857Y-186578571D01*
X165952142Y-186578571D01*
X165809285Y-186507142D01*
X165737857Y-186364285D01*
X165737857Y-185792857D01*
X165809285Y-185650000D01*
X165952142Y-185578571D01*
X166237857Y-185578571D01*
X166380714Y-185650000D01*
X166452142Y-185792857D01*
X166452142Y-185935714D01*
X165737857Y-186078571D01*
X167666428Y-186507142D02*
X167523571Y-186578571D01*
X167237857Y-186578571D01*
X167095000Y-186507142D01*
X167023571Y-186364285D01*
X167023571Y-185792857D01*
X167095000Y-185650000D01*
X167237857Y-185578571D01*
X167523571Y-185578571D01*
X167666428Y-185650000D01*
X167737857Y-185792857D01*
X167737857Y-185935714D01*
X167023571Y-186078571D01*
X168166428Y-185578571D02*
X168737857Y-185578571D01*
X168380714Y-185078571D02*
X168380714Y-186364285D01*
X168452142Y-186507142D01*
X168595000Y-186578571D01*
X168737857Y-186578571D01*
X169237857Y-186578571D02*
X169237857Y-185078571D01*
X169880714Y-186578571D02*
X169880714Y-185792857D01*
X169809285Y-185650000D01*
X169666428Y-185578571D01*
X169452142Y-185578571D01*
X169309285Y-185650000D01*
X169237857Y-185721428D01*
D10*
D11*
X160832142Y-183578571D02*
X160832142Y-182078571D01*
X161403571Y-182078571D01*
X161546428Y-182150000D01*
X161617857Y-182221428D01*
X161689285Y-182364285D01*
X161689285Y-182578571D01*
X161617857Y-182721428D01*
X161546428Y-182792857D01*
X161403571Y-182864285D01*
X160832142Y-182864285D01*
X162332142Y-183578571D02*
X162332142Y-182578571D01*
X162332142Y-182864285D02*
X162403571Y-182721428D01*
X162475000Y-182650000D01*
X162617857Y-182578571D01*
X162760714Y-182578571D01*
X163832142Y-183507142D02*
X163689285Y-183578571D01*
X163403571Y-183578571D01*
X163260714Y-183507142D01*
X163189285Y-183364285D01*
X163189285Y-182792857D01*
X163260714Y-182650000D01*
X163403571Y-182578571D01*
X163689285Y-182578571D01*
X163832142Y-182650000D01*
X163903571Y-182792857D01*
X163903571Y-182935714D01*
X163189285Y-183078571D01*
X165189285Y-183578571D02*
X165189285Y-182792857D01*
X165117857Y-182650000D01*
X164975000Y-182578571D01*
X164689285Y-182578571D01*
X164546428Y-182650000D01*
X165189285Y-183507142D02*
X165046428Y-183578571D01*
X164689285Y-183578571D01*
X164546428Y-183507142D01*
X164475000Y-183364285D01*
X164475000Y-183221428D01*
X164546428Y-183078571D01*
X164689285Y-183007142D01*
X165046428Y-183007142D01*
X165189285Y-182935714D01*
X165903571Y-183578571D02*
X165903571Y-182578571D01*
X165903571Y-182721428D02*
X165975000Y-182650000D01*
X166117857Y-182578571D01*
X166332142Y-182578571D01*
X166475000Y-182650000D01*
X166546428Y-182792857D01*
X166546428Y-183578571D01*
X166546428Y-182792857D02*
X166617857Y-182650000D01*
X166760714Y-182578571D01*
X166975000Y-182578571D01*
X167117857Y-182650000D01*
X167189285Y-182792857D01*
X167189285Y-183578571D01*
X167903571Y-182578571D02*
X167903571Y-184078571D01*
X167903571Y-182650000D02*
X168046428Y-182578571D01*
X168332142Y-182578571D01*
X168475000Y-182650000D01*
X168546428Y-182721428D01*
X168617857Y-182864285D01*
X168617857Y-183292857D01*
X168546428Y-183435714D01*
X168475000Y-183507142D01*
X168332142Y-183578571D01*
X168046428Y-183578571D01*
X167903571Y-183507142D01*
X170332142Y-182221428D02*
X170403571Y-182150000D01*
X170546428Y-182078571D01*
X170903571Y-182078571D01*
X171046428Y-182150000D01*
X171117857Y-182221428D01*
X171189285Y-182364285D01*
X171189285Y-182507142D01*
X171117857Y-182721428D01*
X170260714Y-183578571D01*
X171189285Y-183578571D01*
X172117857Y-182078571D02*
X172260714Y-182078571D01*
X172403571Y-182150000D01*
X172475000Y-182221428D01*
X172546428Y-182364285D01*
X172617857Y-182650000D01*
X172617857Y-183007142D01*
X172546428Y-183292857D01*
X172475000Y-183435714D01*
X172403571Y-183507142D01*
X172260714Y-183578571D01*
X172117857Y-183578571D01*
X171975000Y-183507142D01*
X171903571Y-183435714D01*
X171832142Y-183292857D01*
X171760714Y-183007142D01*
X171760714Y-182650000D01*
X171832142Y-182364285D01*
X171903571Y-182221428D01*
X171975000Y-182150000D01*
X172117857Y-182078571D01*
X174046428Y-183578571D02*
X173189285Y-183578571D01*
X173617857Y-183578571D02*
X173617857Y-182078571D01*
X173475000Y-182292857D01*
X173332142Y-182435714D01*
X173189285Y-182507142D01*
X174760714Y-183578571D02*
X175046428Y-183578571D01*
X175189285Y-183507142D01*
X175260714Y-183435714D01*
X175403571Y-183221428D01*
X175475000Y-182935714D01*
X175475000Y-182364285D01*
X175403571Y-182221428D01*
X175332142Y-182150000D01*
X175189285Y-182078571D01*
X174903571Y-182078571D01*
X174760714Y-182150000D01*
X174689285Y-182221428D01*
X174617857Y-182364285D01*
X174617857Y-182721428D01*
X174689285Y-182864285D01*
X174760714Y-182935714D01*
X174903571Y-183007142D01*
X175189285Y-183007142D01*
X175332142Y-182935714D01*
X175403571Y-182864285D01*
X175475000Y-182721428D01*
D10*
D11*
X179400000Y-197400000D02*
X179400000Y-200400000D01*
D10*
D11*
X243400000Y-197400000D02*
X243400000Y-203900000D01*
D14*
X150000000Y-80000000D02*
X150000000Y-150000000D01*
X50000000Y-80000000D02*
X150000000Y-80000000D01*
X50000000Y-150000000D02*
X50000000Y-80000000D01*
X150000000Y-150000000D02*
X50000000Y-150000000D01*
M02*
