G04 #@! TF.GenerationSoftware,KiCad,Pcbnew,5.1.4*
G04 #@! TF.CreationDate,2019-09-29T22:21:46-04:00*
G04 #@! TF.ProjectId,power_supply,706f7765-725f-4737-9570-706c792e6b69,1*
G04 #@! TF.SameCoordinates,Original*
G04 #@! TF.FileFunction,Copper,L2,Bot*
G04 #@! TF.FilePolarity,Positive*
%FSLAX46Y46*%
G04 Gerber Fmt 4.6, Leading zero omitted, Abs format (unit mm)*
G04 Created by KiCad (PCBNEW 5.1.4) date 2019-09-29 22:21:46*
%MOMM*%
%LPD*%
G04 APERTURE LIST*
%ADD10C,0.100000*%
%ADD11C,0.150000*%
%ADD12C,0.300000*%
%ADD13C,0.400000*%
%ADD14C,0.381000*%
%ADD15C,6.400000*%
%ADD16O,2.850000X4.850000*%
%ADD17O,4.850000X2.850000*%
%ADD18O,2.200000X1.740000*%
%ADD19C,1.740000*%
%ADD20C,1.200000*%
%ADD21R,1.200000X1.200000*%
%ADD22C,3.000000*%
%ADD23O,1.700000X1.700000*%
%ADD24R,1.700000X1.700000*%
%ADD25O,1.740000X2.200000*%
%ADD26O,1.905000X2.000000*%
%ADD27R,1.905000X2.000000*%
%ADD28C,1.600000*%
%ADD29R,1.600000X1.600000*%
%ADD30C,2.700000*%
%ADD31O,2.000000X1.905000*%
%ADD32R,2.000000X1.905000*%
%ADD33C,2.400000*%
%ADD34R,2.400000X2.400000*%
%ADD35C,1.000000*%
%ADD36C,0.406400*%
%ADD37C,0.254000*%
G04 APERTURE END LIST*
D10*
D11*
X159400000Y-171900000D02*
X159400000Y-203900000D01*
X267400000Y-203900000D01*
X267400000Y-171900000D01*
X159400000Y-171900000D01*
D10*
D11*
X10000000Y-10000000D02*
X10000000Y-205900000D01*
X269400000Y-205900000D01*
X269400000Y-10000000D01*
X10000000Y-10000000D01*
D10*
D11*
X12000000Y-12000000D02*
X12000000Y-203900000D01*
X267400000Y-203900000D01*
X267400000Y-12000000D01*
X12000000Y-12000000D01*
D10*
D11*
X60000000Y-12000000D02*
X60000000Y-10000000D01*
D10*
D11*
X110000000Y-12000000D02*
X110000000Y-10000000D01*
D10*
D11*
X160000000Y-12000000D02*
X160000000Y-10000000D01*
D10*
D11*
X210000000Y-12000000D02*
X210000000Y-10000000D01*
D10*
D11*
X260000000Y-12000000D02*
X260000000Y-10000000D01*
D10*
D11*
X36065476Y-11588095D02*
X35322619Y-11588095D01*
X35694047Y-11588095D02*
X35694047Y-10288095D01*
X35570238Y-10473809D01*
X35446428Y-10597619D01*
X35322619Y-10659523D01*
D10*
D11*
X85322619Y-10411904D02*
X85384523Y-10350000D01*
X85508333Y-10288095D01*
X85817857Y-10288095D01*
X85941666Y-10350000D01*
X86003571Y-10411904D01*
X86065476Y-10535714D01*
X86065476Y-10659523D01*
X86003571Y-10845238D01*
X85260714Y-11588095D01*
X86065476Y-11588095D01*
D10*
D11*
X135260714Y-10288095D02*
X136065476Y-10288095D01*
X135632142Y-10783333D01*
X135817857Y-10783333D01*
X135941666Y-10845238D01*
X136003571Y-10907142D01*
X136065476Y-11030952D01*
X136065476Y-11340476D01*
X136003571Y-11464285D01*
X135941666Y-11526190D01*
X135817857Y-11588095D01*
X135446428Y-11588095D01*
X135322619Y-11526190D01*
X135260714Y-11464285D01*
D10*
D11*
X185941666Y-10721428D02*
X185941666Y-11588095D01*
X185632142Y-10226190D02*
X185322619Y-11154761D01*
X186127380Y-11154761D01*
D10*
D11*
X236003571Y-10288095D02*
X235384523Y-10288095D01*
X235322619Y-10907142D01*
X235384523Y-10845238D01*
X235508333Y-10783333D01*
X235817857Y-10783333D01*
X235941666Y-10845238D01*
X236003571Y-10907142D01*
X236065476Y-11030952D01*
X236065476Y-11340476D01*
X236003571Y-11464285D01*
X235941666Y-11526190D01*
X235817857Y-11588095D01*
X235508333Y-11588095D01*
X235384523Y-11526190D01*
X235322619Y-11464285D01*
D10*
D11*
X60000000Y-203900000D02*
X60000000Y-205900000D01*
D10*
D11*
X110000000Y-203900000D02*
X110000000Y-205900000D01*
D10*
D11*
X160000000Y-203900000D02*
X160000000Y-205900000D01*
D10*
D11*
X210000000Y-203900000D02*
X210000000Y-205900000D01*
D10*
D11*
X260000000Y-203900000D02*
X260000000Y-205900000D01*
D10*
D11*
X36065476Y-205488095D02*
X35322619Y-205488095D01*
X35694047Y-205488095D02*
X35694047Y-204188095D01*
X35570238Y-204373809D01*
X35446428Y-204497619D01*
X35322619Y-204559523D01*
D10*
D11*
X85322619Y-204311904D02*
X85384523Y-204250000D01*
X85508333Y-204188095D01*
X85817857Y-204188095D01*
X85941666Y-204250000D01*
X86003571Y-204311904D01*
X86065476Y-204435714D01*
X86065476Y-204559523D01*
X86003571Y-204745238D01*
X85260714Y-205488095D01*
X86065476Y-205488095D01*
D10*
D11*
X135260714Y-204188095D02*
X136065476Y-204188095D01*
X135632142Y-204683333D01*
X135817857Y-204683333D01*
X135941666Y-204745238D01*
X136003571Y-204807142D01*
X136065476Y-204930952D01*
X136065476Y-205240476D01*
X136003571Y-205364285D01*
X135941666Y-205426190D01*
X135817857Y-205488095D01*
X135446428Y-205488095D01*
X135322619Y-205426190D01*
X135260714Y-205364285D01*
D10*
D11*
X185941666Y-204621428D02*
X185941666Y-205488095D01*
X185632142Y-204126190D02*
X185322619Y-205054761D01*
X186127380Y-205054761D01*
D10*
D11*
X236003571Y-204188095D02*
X235384523Y-204188095D01*
X235322619Y-204807142D01*
X235384523Y-204745238D01*
X235508333Y-204683333D01*
X235817857Y-204683333D01*
X235941666Y-204745238D01*
X236003571Y-204807142D01*
X236065476Y-204930952D01*
X236065476Y-205240476D01*
X236003571Y-205364285D01*
X235941666Y-205426190D01*
X235817857Y-205488095D01*
X235508333Y-205488095D01*
X235384523Y-205426190D01*
X235322619Y-205364285D01*
D10*
D11*
X10000000Y-60000000D02*
X12000000Y-60000000D01*
D10*
D11*
X10000000Y-110000000D02*
X12000000Y-110000000D01*
D10*
D11*
X10000000Y-160000000D02*
X12000000Y-160000000D01*
D10*
D11*
X10690476Y-35216666D02*
X11309523Y-35216666D01*
X10566666Y-35588095D02*
X11000000Y-34288095D01*
X11433333Y-35588095D01*
D10*
D11*
X11092857Y-84907142D02*
X11278571Y-84969047D01*
X11340476Y-85030952D01*
X11402380Y-85154761D01*
X11402380Y-85340476D01*
X11340476Y-85464285D01*
X11278571Y-85526190D01*
X11154761Y-85588095D01*
X10659523Y-85588095D01*
X10659523Y-84288095D01*
X11092857Y-84288095D01*
X11216666Y-84350000D01*
X11278571Y-84411904D01*
X11340476Y-84535714D01*
X11340476Y-84659523D01*
X11278571Y-84783333D01*
X11216666Y-84845238D01*
X11092857Y-84907142D01*
X10659523Y-84907142D01*
D10*
D11*
X11402380Y-135464285D02*
X11340476Y-135526190D01*
X11154761Y-135588095D01*
X11030952Y-135588095D01*
X10845238Y-135526190D01*
X10721428Y-135402380D01*
X10659523Y-135278571D01*
X10597619Y-135030952D01*
X10597619Y-134845238D01*
X10659523Y-134597619D01*
X10721428Y-134473809D01*
X10845238Y-134350000D01*
X11030952Y-134288095D01*
X11154761Y-134288095D01*
X11340476Y-134350000D01*
X11402380Y-134411904D01*
D10*
D11*
X10659523Y-185588095D02*
X10659523Y-184288095D01*
X10969047Y-184288095D01*
X11154761Y-184350000D01*
X11278571Y-184473809D01*
X11340476Y-184597619D01*
X11402380Y-184845238D01*
X11402380Y-185030952D01*
X11340476Y-185278571D01*
X11278571Y-185402380D01*
X11154761Y-185526190D01*
X10969047Y-185588095D01*
X10659523Y-185588095D01*
D10*
D11*
X269400000Y-60000000D02*
X267400000Y-60000000D01*
D10*
D11*
X269400000Y-110000000D02*
X267400000Y-110000000D01*
D10*
D11*
X269400000Y-160000000D02*
X267400000Y-160000000D01*
D10*
D11*
X268090476Y-35216666D02*
X268709523Y-35216666D01*
X267966666Y-35588095D02*
X268400000Y-34288095D01*
X268833333Y-35588095D01*
D10*
D11*
X268492857Y-84907142D02*
X268678571Y-84969047D01*
X268740476Y-85030952D01*
X268802380Y-85154761D01*
X268802380Y-85340476D01*
X268740476Y-85464285D01*
X268678571Y-85526190D01*
X268554761Y-85588095D01*
X268059523Y-85588095D01*
X268059523Y-84288095D01*
X268492857Y-84288095D01*
X268616666Y-84350000D01*
X268678571Y-84411904D01*
X268740476Y-84535714D01*
X268740476Y-84659523D01*
X268678571Y-84783333D01*
X268616666Y-84845238D01*
X268492857Y-84907142D01*
X268059523Y-84907142D01*
D10*
D11*
X268802380Y-135464285D02*
X268740476Y-135526190D01*
X268554761Y-135588095D01*
X268430952Y-135588095D01*
X268245238Y-135526190D01*
X268121428Y-135402380D01*
X268059523Y-135278571D01*
X267997619Y-135030952D01*
X267997619Y-134845238D01*
X268059523Y-134597619D01*
X268121428Y-134473809D01*
X268245238Y-134350000D01*
X268430952Y-134288095D01*
X268554761Y-134288095D01*
X268740476Y-134350000D01*
X268802380Y-134411904D01*
D10*
D11*
X268059523Y-185588095D02*
X268059523Y-184288095D01*
X268369047Y-184288095D01*
X268554761Y-184350000D01*
X268678571Y-184473809D01*
X268740476Y-184597619D01*
X268802380Y-184845238D01*
X268802380Y-185030952D01*
X268740476Y-185278571D01*
X268678571Y-185402380D01*
X268554761Y-185526190D01*
X268369047Y-185588095D01*
X268059523Y-185588095D01*
D10*
D11*
X182832142Y-199678571D02*
X182832142Y-198178571D01*
X183189285Y-198178571D01*
X183403571Y-198250000D01*
X183546428Y-198392857D01*
X183617857Y-198535714D01*
X183689285Y-198821428D01*
X183689285Y-199035714D01*
X183617857Y-199321428D01*
X183546428Y-199464285D01*
X183403571Y-199607142D01*
X183189285Y-199678571D01*
X182832142Y-199678571D01*
X184975000Y-199678571D02*
X184975000Y-198892857D01*
X184903571Y-198750000D01*
X184760714Y-198678571D01*
X184475000Y-198678571D01*
X184332142Y-198750000D01*
X184975000Y-199607142D02*
X184832142Y-199678571D01*
X184475000Y-199678571D01*
X184332142Y-199607142D01*
X184260714Y-199464285D01*
X184260714Y-199321428D01*
X184332142Y-199178571D01*
X184475000Y-199107142D01*
X184832142Y-199107142D01*
X184975000Y-199035714D01*
X185475000Y-198678571D02*
X186046428Y-198678571D01*
X185689285Y-198178571D02*
X185689285Y-199464285D01*
X185760714Y-199607142D01*
X185903571Y-199678571D01*
X186046428Y-199678571D01*
X187117857Y-199607142D02*
X186975000Y-199678571D01*
X186689285Y-199678571D01*
X186546428Y-199607142D01*
X186475000Y-199464285D01*
X186475000Y-198892857D01*
X186546428Y-198750000D01*
X186689285Y-198678571D01*
X186975000Y-198678571D01*
X187117857Y-198750000D01*
X187189285Y-198892857D01*
X187189285Y-199035714D01*
X186475000Y-199178571D01*
X187832142Y-199535714D02*
X187903571Y-199607142D01*
X187832142Y-199678571D01*
X187760714Y-199607142D01*
X187832142Y-199535714D01*
X187832142Y-199678571D01*
X187832142Y-198750000D02*
X187903571Y-198821428D01*
X187832142Y-198892857D01*
X187760714Y-198821428D01*
X187832142Y-198750000D01*
X187832142Y-198892857D01*
X189617857Y-198321428D02*
X189689285Y-198250000D01*
X189832142Y-198178571D01*
X190189285Y-198178571D01*
X190332142Y-198250000D01*
X190403571Y-198321428D01*
X190475000Y-198464285D01*
X190475000Y-198607142D01*
X190403571Y-198821428D01*
X189546428Y-199678571D01*
X190475000Y-199678571D01*
X191403571Y-198178571D02*
X191546428Y-198178571D01*
X191689285Y-198250000D01*
X191760714Y-198321428D01*
X191832142Y-198464285D01*
X191903571Y-198750000D01*
X191903571Y-199107142D01*
X191832142Y-199392857D01*
X191760714Y-199535714D01*
X191689285Y-199607142D01*
X191546428Y-199678571D01*
X191403571Y-199678571D01*
X191260714Y-199607142D01*
X191189285Y-199535714D01*
X191117857Y-199392857D01*
X191046428Y-199107142D01*
X191046428Y-198750000D01*
X191117857Y-198464285D01*
X191189285Y-198321428D01*
X191260714Y-198250000D01*
X191403571Y-198178571D01*
X193332142Y-199678571D02*
X192475000Y-199678571D01*
X192903571Y-199678571D02*
X192903571Y-198178571D01*
X192760714Y-198392857D01*
X192617857Y-198535714D01*
X192475000Y-198607142D01*
X194046428Y-199678571D02*
X194332142Y-199678571D01*
X194475000Y-199607142D01*
X194546428Y-199535714D01*
X194689285Y-199321428D01*
X194760714Y-199035714D01*
X194760714Y-198464285D01*
X194689285Y-198321428D01*
X194617857Y-198250000D01*
X194475000Y-198178571D01*
X194189285Y-198178571D01*
X194046428Y-198250000D01*
X193975000Y-198321428D01*
X193903571Y-198464285D01*
X193903571Y-198821428D01*
X193975000Y-198964285D01*
X194046428Y-199035714D01*
X194189285Y-199107142D01*
X194475000Y-199107142D01*
X194617857Y-199035714D01*
X194689285Y-198964285D01*
X194760714Y-198821428D01*
X195403571Y-199107142D02*
X196546428Y-199107142D01*
X197546428Y-198178571D02*
X197689285Y-198178571D01*
X197832142Y-198250000D01*
X197903571Y-198321428D01*
X197975000Y-198464285D01*
X198046428Y-198750000D01*
X198046428Y-199107142D01*
X197975000Y-199392857D01*
X197903571Y-199535714D01*
X197832142Y-199607142D01*
X197689285Y-199678571D01*
X197546428Y-199678571D01*
X197403571Y-199607142D01*
X197332142Y-199535714D01*
X197260714Y-199392857D01*
X197189285Y-199107142D01*
X197189285Y-198750000D01*
X197260714Y-198464285D01*
X197332142Y-198321428D01*
X197403571Y-198250000D01*
X197546428Y-198178571D01*
X198760714Y-199678571D02*
X199046428Y-199678571D01*
X199189285Y-199607142D01*
X199260714Y-199535714D01*
X199403571Y-199321428D01*
X199475000Y-199035714D01*
X199475000Y-198464285D01*
X199403571Y-198321428D01*
X199332142Y-198250000D01*
X199189285Y-198178571D01*
X198903571Y-198178571D01*
X198760714Y-198250000D01*
X198689285Y-198321428D01*
X198617857Y-198464285D01*
X198617857Y-198821428D01*
X198689285Y-198964285D01*
X198760714Y-199035714D01*
X198903571Y-199107142D01*
X199189285Y-199107142D01*
X199332142Y-199035714D01*
X199403571Y-198964285D01*
X199475000Y-198821428D01*
X200117857Y-199107142D02*
X201260714Y-199107142D01*
X201903571Y-198321428D02*
X201975000Y-198250000D01*
X202117857Y-198178571D01*
X202475000Y-198178571D01*
X202617857Y-198250000D01*
X202689285Y-198321428D01*
X202760714Y-198464285D01*
X202760714Y-198607142D01*
X202689285Y-198821428D01*
X201832142Y-199678571D01*
X202760714Y-199678571D01*
X203617857Y-198821428D02*
X203475000Y-198750000D01*
X203403571Y-198678571D01*
X203332142Y-198535714D01*
X203332142Y-198464285D01*
X203403571Y-198321428D01*
X203475000Y-198250000D01*
X203617857Y-198178571D01*
X203903571Y-198178571D01*
X204046428Y-198250000D01*
X204117857Y-198321428D01*
X204189285Y-198464285D01*
X204189285Y-198535714D01*
X204117857Y-198678571D01*
X204046428Y-198750000D01*
X203903571Y-198821428D01*
X203617857Y-198821428D01*
X203475000Y-198892857D01*
X203403571Y-198964285D01*
X203332142Y-199107142D01*
X203332142Y-199392857D01*
X203403571Y-199535714D01*
X203475000Y-199607142D01*
X203617857Y-199678571D01*
X203903571Y-199678571D01*
X204046428Y-199607142D01*
X204117857Y-199535714D01*
X204189285Y-199392857D01*
X204189285Y-199107142D01*
X204117857Y-198964285D01*
X204046428Y-198892857D01*
X203903571Y-198821428D01*
D10*
D11*
X159400000Y-200400000D02*
X267400000Y-200400000D01*
D10*
D11*
X160832142Y-202478571D02*
X160832142Y-200978571D01*
X161689285Y-202478571D02*
X161046428Y-201621428D01*
X161689285Y-200978571D02*
X160832142Y-201835714D01*
X162332142Y-202478571D02*
X162332142Y-201478571D01*
X162332142Y-200978571D02*
X162260714Y-201050000D01*
X162332142Y-201121428D01*
X162403571Y-201050000D01*
X162332142Y-200978571D01*
X162332142Y-201121428D01*
X163903571Y-202335714D02*
X163832142Y-202407142D01*
X163617857Y-202478571D01*
X163475000Y-202478571D01*
X163260714Y-202407142D01*
X163117857Y-202264285D01*
X163046428Y-202121428D01*
X162975000Y-201835714D01*
X162975000Y-201621428D01*
X163046428Y-201335714D01*
X163117857Y-201192857D01*
X163260714Y-201050000D01*
X163475000Y-200978571D01*
X163617857Y-200978571D01*
X163832142Y-201050000D01*
X163903571Y-201121428D01*
X165189285Y-202478571D02*
X165189285Y-201692857D01*
X165117857Y-201550000D01*
X164975000Y-201478571D01*
X164689285Y-201478571D01*
X164546428Y-201550000D01*
X165189285Y-202407142D02*
X165046428Y-202478571D01*
X164689285Y-202478571D01*
X164546428Y-202407142D01*
X164475000Y-202264285D01*
X164475000Y-202121428D01*
X164546428Y-201978571D01*
X164689285Y-201907142D01*
X165046428Y-201907142D01*
X165189285Y-201835714D01*
X166546428Y-202478571D02*
X166546428Y-200978571D01*
X166546428Y-202407142D02*
X166403571Y-202478571D01*
X166117857Y-202478571D01*
X165975000Y-202407142D01*
X165903571Y-202335714D01*
X165832142Y-202192857D01*
X165832142Y-201764285D01*
X165903571Y-201621428D01*
X165975000Y-201550000D01*
X166117857Y-201478571D01*
X166403571Y-201478571D01*
X166546428Y-201550000D01*
X168403571Y-201692857D02*
X168903571Y-201692857D01*
X169117857Y-202478571D02*
X168403571Y-202478571D01*
X168403571Y-200978571D01*
X169117857Y-200978571D01*
X169760714Y-202335714D02*
X169832142Y-202407142D01*
X169760714Y-202478571D01*
X169689285Y-202407142D01*
X169760714Y-202335714D01*
X169760714Y-202478571D01*
X170475000Y-202478571D02*
X170475000Y-200978571D01*
X170832142Y-200978571D01*
X171046428Y-201050000D01*
X171189285Y-201192857D01*
X171260714Y-201335714D01*
X171332142Y-201621428D01*
X171332142Y-201835714D01*
X171260714Y-202121428D01*
X171189285Y-202264285D01*
X171046428Y-202407142D01*
X170832142Y-202478571D01*
X170475000Y-202478571D01*
X171975000Y-202335714D02*
X172046428Y-202407142D01*
X171975000Y-202478571D01*
X171903571Y-202407142D01*
X171975000Y-202335714D01*
X171975000Y-202478571D01*
X172617857Y-202050000D02*
X173332142Y-202050000D01*
X172475000Y-202478571D02*
X172975000Y-200978571D01*
X173475000Y-202478571D01*
X173975000Y-202335714D02*
X174046428Y-202407142D01*
X173975000Y-202478571D01*
X173903571Y-202407142D01*
X173975000Y-202335714D01*
X173975000Y-202478571D01*
X176975000Y-202478571D02*
X176975000Y-200978571D01*
X177117857Y-201907142D02*
X177546428Y-202478571D01*
X177546428Y-201478571D02*
X176975000Y-202050000D01*
X178189285Y-202478571D02*
X178189285Y-201478571D01*
X178189285Y-200978571D02*
X178117857Y-201050000D01*
X178189285Y-201121428D01*
X178260714Y-201050000D01*
X178189285Y-200978571D01*
X178189285Y-201121428D01*
X179546428Y-202407142D02*
X179403571Y-202478571D01*
X179117857Y-202478571D01*
X178975000Y-202407142D01*
X178903571Y-202335714D01*
X178832142Y-202192857D01*
X178832142Y-201764285D01*
X178903571Y-201621428D01*
X178975000Y-201550000D01*
X179117857Y-201478571D01*
X179403571Y-201478571D01*
X179546428Y-201550000D01*
X180832142Y-202478571D02*
X180832142Y-201692857D01*
X180760714Y-201550000D01*
X180617857Y-201478571D01*
X180332142Y-201478571D01*
X180189285Y-201550000D01*
X180832142Y-202407142D02*
X180689285Y-202478571D01*
X180332142Y-202478571D01*
X180189285Y-202407142D01*
X180117857Y-202264285D01*
X180117857Y-202121428D01*
X180189285Y-201978571D01*
X180332142Y-201907142D01*
X180689285Y-201907142D01*
X180832142Y-201835714D01*
X182189285Y-202478571D02*
X182189285Y-200978571D01*
X182189285Y-202407142D02*
X182046428Y-202478571D01*
X181760714Y-202478571D01*
X181617857Y-202407142D01*
X181546428Y-202335714D01*
X181475000Y-202192857D01*
X181475000Y-201764285D01*
X181546428Y-201621428D01*
X181617857Y-201550000D01*
X181760714Y-201478571D01*
X182046428Y-201478571D01*
X182189285Y-201550000D01*
X184760714Y-200978571D02*
X184046428Y-200978571D01*
X183975000Y-201692857D01*
X184046428Y-201621428D01*
X184189285Y-201550000D01*
X184546428Y-201550000D01*
X184689285Y-201621428D01*
X184760714Y-201692857D01*
X184832142Y-201835714D01*
X184832142Y-202192857D01*
X184760714Y-202335714D01*
X184689285Y-202407142D01*
X184546428Y-202478571D01*
X184189285Y-202478571D01*
X184046428Y-202407142D01*
X183975000Y-202335714D01*
X185475000Y-202335714D02*
X185546428Y-202407142D01*
X185475000Y-202478571D01*
X185403571Y-202407142D01*
X185475000Y-202335714D01*
X185475000Y-202478571D01*
X186975000Y-202478571D02*
X186117857Y-202478571D01*
X186546428Y-202478571D02*
X186546428Y-200978571D01*
X186403571Y-201192857D01*
X186260714Y-201335714D01*
X186117857Y-201407142D01*
X187617857Y-202335714D02*
X187689285Y-202407142D01*
X187617857Y-202478571D01*
X187546428Y-202407142D01*
X187617857Y-202335714D01*
X187617857Y-202478571D01*
X188975000Y-201478571D02*
X188975000Y-202478571D01*
X188617857Y-200907142D02*
X188260714Y-201978571D01*
X189189285Y-201978571D01*
D10*
D11*
X159400000Y-197400000D02*
X267400000Y-197400000D01*
D10*
D12*
X246809285Y-199678571D02*
X246309285Y-198964285D01*
X245952142Y-199678571D02*
X245952142Y-198178571D01*
X246523571Y-198178571D01*
X246666428Y-198250000D01*
X246737857Y-198321428D01*
X246809285Y-198464285D01*
X246809285Y-198678571D01*
X246737857Y-198821428D01*
X246666428Y-198892857D01*
X246523571Y-198964285D01*
X245952142Y-198964285D01*
X248023571Y-199607142D02*
X247880714Y-199678571D01*
X247595000Y-199678571D01*
X247452142Y-199607142D01*
X247380714Y-199464285D01*
X247380714Y-198892857D01*
X247452142Y-198750000D01*
X247595000Y-198678571D01*
X247880714Y-198678571D01*
X248023571Y-198750000D01*
X248095000Y-198892857D01*
X248095000Y-199035714D01*
X247380714Y-199178571D01*
X248595000Y-198678571D02*
X248952142Y-199678571D01*
X249309285Y-198678571D01*
X249880714Y-199535714D02*
X249952142Y-199607142D01*
X249880714Y-199678571D01*
X249809285Y-199607142D01*
X249880714Y-199535714D01*
X249880714Y-199678571D01*
X249880714Y-198750000D02*
X249952142Y-198821428D01*
X249880714Y-198892857D01*
X249809285Y-198821428D01*
X249880714Y-198750000D01*
X249880714Y-198892857D01*
X252523571Y-199678571D02*
X251666428Y-199678571D01*
X252095000Y-199678571D02*
X252095000Y-198178571D01*
X251952142Y-198392857D01*
X251809285Y-198535714D01*
X251666428Y-198607142D01*
D10*
D11*
X160760714Y-199607142D02*
X160975000Y-199678571D01*
X161332142Y-199678571D01*
X161475000Y-199607142D01*
X161546428Y-199535714D01*
X161617857Y-199392857D01*
X161617857Y-199250000D01*
X161546428Y-199107142D01*
X161475000Y-199035714D01*
X161332142Y-198964285D01*
X161046428Y-198892857D01*
X160903571Y-198821428D01*
X160832142Y-198750000D01*
X160760714Y-198607142D01*
X160760714Y-198464285D01*
X160832142Y-198321428D01*
X160903571Y-198250000D01*
X161046428Y-198178571D01*
X161403571Y-198178571D01*
X161617857Y-198250000D01*
X162260714Y-199678571D02*
X162260714Y-198678571D01*
X162260714Y-198178571D02*
X162189285Y-198250000D01*
X162260714Y-198321428D01*
X162332142Y-198250000D01*
X162260714Y-198178571D01*
X162260714Y-198321428D01*
X162832142Y-198678571D02*
X163617857Y-198678571D01*
X162832142Y-199678571D01*
X163617857Y-199678571D01*
X164760714Y-199607142D02*
X164617857Y-199678571D01*
X164332142Y-199678571D01*
X164189285Y-199607142D01*
X164117857Y-199464285D01*
X164117857Y-198892857D01*
X164189285Y-198750000D01*
X164332142Y-198678571D01*
X164617857Y-198678571D01*
X164760714Y-198750000D01*
X164832142Y-198892857D01*
X164832142Y-199035714D01*
X164117857Y-199178571D01*
X165475000Y-199535714D02*
X165546428Y-199607142D01*
X165475000Y-199678571D01*
X165403571Y-199607142D01*
X165475000Y-199535714D01*
X165475000Y-199678571D01*
X165475000Y-198750000D02*
X165546428Y-198821428D01*
X165475000Y-198892857D01*
X165403571Y-198821428D01*
X165475000Y-198750000D01*
X165475000Y-198892857D01*
X167260714Y-199250000D02*
X167975000Y-199250000D01*
X167117857Y-199678571D02*
X167617857Y-198178571D01*
X168117857Y-199678571D01*
D10*
D11*
X245832142Y-202478571D02*
X245832142Y-200978571D01*
X247189285Y-202478571D02*
X247189285Y-200978571D01*
X247189285Y-202407142D02*
X247046428Y-202478571D01*
X246760714Y-202478571D01*
X246617857Y-202407142D01*
X246546428Y-202335714D01*
X246475000Y-202192857D01*
X246475000Y-201764285D01*
X246546428Y-201621428D01*
X246617857Y-201550000D01*
X246760714Y-201478571D01*
X247046428Y-201478571D01*
X247189285Y-201550000D01*
X247903571Y-202335714D02*
X247975000Y-202407142D01*
X247903571Y-202478571D01*
X247832142Y-202407142D01*
X247903571Y-202335714D01*
X247903571Y-202478571D01*
X247903571Y-201550000D02*
X247975000Y-201621428D01*
X247903571Y-201692857D01*
X247832142Y-201621428D01*
X247903571Y-201550000D01*
X247903571Y-201692857D01*
X250546428Y-202478571D02*
X249689285Y-202478571D01*
X250117857Y-202478571D02*
X250117857Y-200978571D01*
X249975000Y-201192857D01*
X249832142Y-201335714D01*
X249689285Y-201407142D01*
X252260714Y-200907142D02*
X250975000Y-202835714D01*
X253546428Y-202478571D02*
X252689285Y-202478571D01*
X253117857Y-202478571D02*
X253117857Y-200978571D01*
X252975000Y-201192857D01*
X252832142Y-201335714D01*
X252689285Y-201407142D01*
D10*
D11*
X159400000Y-193400000D02*
X267400000Y-193400000D01*
D10*
D13*
X161112380Y-194104761D02*
X162255238Y-194104761D01*
X161433809Y-196104761D02*
X161683809Y-194104761D01*
X162671904Y-196104761D02*
X162838571Y-194771428D01*
X162921904Y-194104761D02*
X162814761Y-194200000D01*
X162898095Y-194295238D01*
X163005238Y-194200000D01*
X162921904Y-194104761D01*
X162898095Y-194295238D01*
X163505238Y-194771428D02*
X164267142Y-194771428D01*
X163874285Y-194104761D02*
X163660000Y-195819047D01*
X163731428Y-196009523D01*
X163910000Y-196104761D01*
X164100476Y-196104761D01*
X165052857Y-196104761D02*
X164874285Y-196009523D01*
X164802857Y-195819047D01*
X165017142Y-194104761D01*
X166588571Y-196009523D02*
X166386190Y-196104761D01*
X166005238Y-196104761D01*
X165826666Y-196009523D01*
X165755238Y-195819047D01*
X165850476Y-195057142D01*
X165969523Y-194866666D01*
X166171904Y-194771428D01*
X166552857Y-194771428D01*
X166731428Y-194866666D01*
X166802857Y-195057142D01*
X166779047Y-195247619D01*
X165802857Y-195438095D01*
X167552857Y-195914285D02*
X167636190Y-196009523D01*
X167529047Y-196104761D01*
X167445714Y-196009523D01*
X167552857Y-195914285D01*
X167529047Y-196104761D01*
X167683809Y-194866666D02*
X167767142Y-194961904D01*
X167660000Y-195057142D01*
X167576666Y-194961904D01*
X167683809Y-194866666D01*
X167660000Y-195057142D01*
X170005238Y-196104761D02*
X170255238Y-194104761D01*
X171017142Y-194104761D01*
X171195714Y-194200000D01*
X171279047Y-194295238D01*
X171350476Y-194485714D01*
X171314761Y-194771428D01*
X171195714Y-194961904D01*
X171088571Y-195057142D01*
X170886190Y-195152380D01*
X170124285Y-195152380D01*
X172290952Y-196104761D02*
X172112380Y-196009523D01*
X172029047Y-195914285D01*
X171957619Y-195723809D01*
X172029047Y-195152380D01*
X172148095Y-194961904D01*
X172255238Y-194866666D01*
X172457619Y-194771428D01*
X172743333Y-194771428D01*
X172921904Y-194866666D01*
X173005238Y-194961904D01*
X173076666Y-195152380D01*
X173005238Y-195723809D01*
X172886190Y-195914285D01*
X172779047Y-196009523D01*
X172576666Y-196104761D01*
X172290952Y-196104761D01*
X173790952Y-194771428D02*
X174005238Y-196104761D01*
X174505238Y-195152380D01*
X174767142Y-196104761D01*
X175314761Y-194771428D01*
X176683809Y-196009523D02*
X176481428Y-196104761D01*
X176100476Y-196104761D01*
X175921904Y-196009523D01*
X175850476Y-195819047D01*
X175945714Y-195057142D01*
X176064761Y-194866666D01*
X176267142Y-194771428D01*
X176648095Y-194771428D01*
X176826666Y-194866666D01*
X176898095Y-195057142D01*
X176874285Y-195247619D01*
X175898095Y-195438095D01*
X177624285Y-196104761D02*
X177790952Y-194771428D01*
X177743333Y-195152380D02*
X177862380Y-194961904D01*
X177969523Y-194866666D01*
X178171904Y-194771428D01*
X178362380Y-194771428D01*
X180302857Y-196009523D02*
X180576666Y-196104761D01*
X181052857Y-196104761D01*
X181255238Y-196009523D01*
X181362380Y-195914285D01*
X181481428Y-195723809D01*
X181505238Y-195533333D01*
X181433809Y-195342857D01*
X181350476Y-195247619D01*
X181171904Y-195152380D01*
X180802857Y-195057142D01*
X180624285Y-194961904D01*
X180540952Y-194866666D01*
X180469523Y-194676190D01*
X180493333Y-194485714D01*
X180612380Y-194295238D01*
X180719523Y-194200000D01*
X180921904Y-194104761D01*
X181398095Y-194104761D01*
X181671904Y-194200000D01*
X183314761Y-194771428D02*
X183148095Y-196104761D01*
X182457619Y-194771428D02*
X182326666Y-195819047D01*
X182398095Y-196009523D01*
X182576666Y-196104761D01*
X182862380Y-196104761D01*
X183064761Y-196009523D01*
X183171904Y-195914285D01*
X184267142Y-194771428D02*
X184017142Y-196771428D01*
X184255238Y-194866666D02*
X184457619Y-194771428D01*
X184838571Y-194771428D01*
X185017142Y-194866666D01*
X185100476Y-194961904D01*
X185171904Y-195152380D01*
X185100476Y-195723809D01*
X184981428Y-195914285D01*
X184874285Y-196009523D01*
X184671904Y-196104761D01*
X184290952Y-196104761D01*
X184112380Y-196009523D01*
X186076666Y-194771428D02*
X185826666Y-196771428D01*
X186064761Y-194866666D02*
X186267142Y-194771428D01*
X186648095Y-194771428D01*
X186826666Y-194866666D01*
X186910000Y-194961904D01*
X186981428Y-195152380D01*
X186910000Y-195723809D01*
X186790952Y-195914285D01*
X186683809Y-196009523D01*
X186481428Y-196104761D01*
X186100476Y-196104761D01*
X185921904Y-196009523D01*
X188005238Y-196104761D02*
X187826666Y-196009523D01*
X187755238Y-195819047D01*
X187969523Y-194104761D01*
X188743333Y-194771428D02*
X189052857Y-196104761D01*
X189695714Y-194771428D02*
X189052857Y-196104761D01*
X188802857Y-196580952D01*
X188695714Y-196676190D01*
X188493333Y-196771428D01*
D10*
D11*
X161332142Y-191492857D02*
X160832142Y-191492857D01*
X160832142Y-192278571D02*
X160832142Y-190778571D01*
X161546428Y-190778571D01*
X162117857Y-192278571D02*
X162117857Y-191278571D01*
X162117857Y-190778571D02*
X162046428Y-190850000D01*
X162117857Y-190921428D01*
X162189285Y-190850000D01*
X162117857Y-190778571D01*
X162117857Y-190921428D01*
X163046428Y-192278571D02*
X162903571Y-192207142D01*
X162832142Y-192064285D01*
X162832142Y-190778571D01*
X164189285Y-192207142D02*
X164046428Y-192278571D01*
X163760714Y-192278571D01*
X163617857Y-192207142D01*
X163546428Y-192064285D01*
X163546428Y-191492857D01*
X163617857Y-191350000D01*
X163760714Y-191278571D01*
X164046428Y-191278571D01*
X164189285Y-191350000D01*
X164260714Y-191492857D01*
X164260714Y-191635714D01*
X163546428Y-191778571D01*
X164903571Y-192135714D02*
X164975000Y-192207142D01*
X164903571Y-192278571D01*
X164832142Y-192207142D01*
X164903571Y-192135714D01*
X164903571Y-192278571D01*
X164903571Y-191350000D02*
X164975000Y-191421428D01*
X164903571Y-191492857D01*
X164832142Y-191421428D01*
X164903571Y-191350000D01*
X164903571Y-191492857D01*
X166760714Y-191278571D02*
X166760714Y-192778571D01*
X166760714Y-191350000D02*
X166903571Y-191278571D01*
X167189285Y-191278571D01*
X167332142Y-191350000D01*
X167403571Y-191421428D01*
X167475000Y-191564285D01*
X167475000Y-191992857D01*
X167403571Y-192135714D01*
X167332142Y-192207142D01*
X167189285Y-192278571D01*
X166903571Y-192278571D01*
X166760714Y-192207142D01*
X168332142Y-192278571D02*
X168189285Y-192207142D01*
X168117857Y-192135714D01*
X168046428Y-191992857D01*
X168046428Y-191564285D01*
X168117857Y-191421428D01*
X168189285Y-191350000D01*
X168332142Y-191278571D01*
X168546428Y-191278571D01*
X168689285Y-191350000D01*
X168760714Y-191421428D01*
X168832142Y-191564285D01*
X168832142Y-191992857D01*
X168760714Y-192135714D01*
X168689285Y-192207142D01*
X168546428Y-192278571D01*
X168332142Y-192278571D01*
X169332142Y-191278571D02*
X169617857Y-192278571D01*
X169903571Y-191564285D01*
X170189285Y-192278571D01*
X170475000Y-191278571D01*
X171617857Y-192207142D02*
X171475000Y-192278571D01*
X171189285Y-192278571D01*
X171046428Y-192207142D01*
X170975000Y-192064285D01*
X170975000Y-191492857D01*
X171046428Y-191350000D01*
X171189285Y-191278571D01*
X171475000Y-191278571D01*
X171617857Y-191350000D01*
X171689285Y-191492857D01*
X171689285Y-191635714D01*
X170975000Y-191778571D01*
X172332142Y-192278571D02*
X172332142Y-191278571D01*
X172332142Y-191564285D02*
X172403571Y-191421428D01*
X172475000Y-191350000D01*
X172617857Y-191278571D01*
X172760714Y-191278571D01*
X172903571Y-192421428D02*
X174046428Y-192421428D01*
X174332142Y-192207142D02*
X174475000Y-192278571D01*
X174760714Y-192278571D01*
X174903571Y-192207142D01*
X174975000Y-192064285D01*
X174975000Y-191992857D01*
X174903571Y-191850000D01*
X174760714Y-191778571D01*
X174546428Y-191778571D01*
X174403571Y-191707142D01*
X174332142Y-191564285D01*
X174332142Y-191492857D01*
X174403571Y-191350000D01*
X174546428Y-191278571D01*
X174760714Y-191278571D01*
X174903571Y-191350000D01*
X176260714Y-191278571D02*
X176260714Y-192278571D01*
X175617857Y-191278571D02*
X175617857Y-192064285D01*
X175689285Y-192207142D01*
X175832142Y-192278571D01*
X176046428Y-192278571D01*
X176189285Y-192207142D01*
X176260714Y-192135714D01*
X176975000Y-191278571D02*
X176975000Y-192778571D01*
X176975000Y-191350000D02*
X177117857Y-191278571D01*
X177403571Y-191278571D01*
X177546428Y-191350000D01*
X177617857Y-191421428D01*
X177689285Y-191564285D01*
X177689285Y-191992857D01*
X177617857Y-192135714D01*
X177546428Y-192207142D01*
X177403571Y-192278571D01*
X177117857Y-192278571D01*
X176975000Y-192207142D01*
X178332142Y-191278571D02*
X178332142Y-192778571D01*
X178332142Y-191350000D02*
X178475000Y-191278571D01*
X178760714Y-191278571D01*
X178903571Y-191350000D01*
X178975000Y-191421428D01*
X179046428Y-191564285D01*
X179046428Y-191992857D01*
X178975000Y-192135714D01*
X178903571Y-192207142D01*
X178760714Y-192278571D01*
X178475000Y-192278571D01*
X178332142Y-192207142D01*
X179903571Y-192278571D02*
X179760714Y-192207142D01*
X179689285Y-192064285D01*
X179689285Y-190778571D01*
X180332142Y-191278571D02*
X180689285Y-192278571D01*
X181046428Y-191278571D02*
X180689285Y-192278571D01*
X180546428Y-192635714D01*
X180475000Y-192707142D01*
X180332142Y-192778571D01*
X181617857Y-192135714D02*
X181689285Y-192207142D01*
X181617857Y-192278571D01*
X181546428Y-192207142D01*
X181617857Y-192135714D01*
X181617857Y-192278571D01*
X182332142Y-192278571D02*
X182332142Y-190778571D01*
X182475000Y-191707142D02*
X182903571Y-192278571D01*
X182903571Y-191278571D02*
X182332142Y-191850000D01*
X183546428Y-192278571D02*
X183546428Y-191278571D01*
X183546428Y-190778571D02*
X183475000Y-190850000D01*
X183546428Y-190921428D01*
X183617857Y-190850000D01*
X183546428Y-190778571D01*
X183546428Y-190921428D01*
X184903571Y-192207142D02*
X184760714Y-192278571D01*
X184475000Y-192278571D01*
X184332142Y-192207142D01*
X184260714Y-192135714D01*
X184189285Y-191992857D01*
X184189285Y-191564285D01*
X184260714Y-191421428D01*
X184332142Y-191350000D01*
X184475000Y-191278571D01*
X184760714Y-191278571D01*
X184903571Y-191350000D01*
X186189285Y-192278571D02*
X186189285Y-191492857D01*
X186117857Y-191350000D01*
X185975000Y-191278571D01*
X185689285Y-191278571D01*
X185546428Y-191350000D01*
X186189285Y-192207142D02*
X186046428Y-192278571D01*
X185689285Y-192278571D01*
X185546428Y-192207142D01*
X185475000Y-192064285D01*
X185475000Y-191921428D01*
X185546428Y-191778571D01*
X185689285Y-191707142D01*
X186046428Y-191707142D01*
X186189285Y-191635714D01*
X187546428Y-192278571D02*
X187546428Y-190778571D01*
X187546428Y-192207142D02*
X187403571Y-192278571D01*
X187117857Y-192278571D01*
X186975000Y-192207142D01*
X186903571Y-192135714D01*
X186832142Y-191992857D01*
X186832142Y-191564285D01*
X186903571Y-191421428D01*
X186975000Y-191350000D01*
X187117857Y-191278571D01*
X187403571Y-191278571D01*
X187546428Y-191350000D01*
X187903571Y-192421428D02*
X189046428Y-192421428D01*
X189403571Y-191278571D02*
X189403571Y-192778571D01*
X189403571Y-191350000D02*
X189546428Y-191278571D01*
X189832142Y-191278571D01*
X189975000Y-191350000D01*
X190046428Y-191421428D01*
X190117857Y-191564285D01*
X190117857Y-191992857D01*
X190046428Y-192135714D01*
X189975000Y-192207142D01*
X189832142Y-192278571D01*
X189546428Y-192278571D01*
X189403571Y-192207142D01*
X191403571Y-192207142D02*
X191260714Y-192278571D01*
X190975000Y-192278571D01*
X190832142Y-192207142D01*
X190760714Y-192135714D01*
X190689285Y-191992857D01*
X190689285Y-191564285D01*
X190760714Y-191421428D01*
X190832142Y-191350000D01*
X190975000Y-191278571D01*
X191260714Y-191278571D01*
X191403571Y-191350000D01*
X192046428Y-192278571D02*
X192046428Y-190778571D01*
X192046428Y-191350000D02*
X192189285Y-191278571D01*
X192475000Y-191278571D01*
X192617857Y-191350000D01*
X192689285Y-191421428D01*
X192760714Y-191564285D01*
X192760714Y-191992857D01*
X192689285Y-192135714D01*
X192617857Y-192207142D01*
X192475000Y-192278571D01*
X192189285Y-192278571D01*
X192046428Y-192207142D01*
D10*
D11*
X159400000Y-187400000D02*
X267400000Y-187400000D01*
D10*
D11*
X160760714Y-189507142D02*
X160975000Y-189578571D01*
X161332142Y-189578571D01*
X161475000Y-189507142D01*
X161546428Y-189435714D01*
X161617857Y-189292857D01*
X161617857Y-189150000D01*
X161546428Y-189007142D01*
X161475000Y-188935714D01*
X161332142Y-188864285D01*
X161046428Y-188792857D01*
X160903571Y-188721428D01*
X160832142Y-188650000D01*
X160760714Y-188507142D01*
X160760714Y-188364285D01*
X160832142Y-188221428D01*
X160903571Y-188150000D01*
X161046428Y-188078571D01*
X161403571Y-188078571D01*
X161617857Y-188150000D01*
X162260714Y-189578571D02*
X162260714Y-188078571D01*
X162903571Y-189578571D02*
X162903571Y-188792857D01*
X162832142Y-188650000D01*
X162689285Y-188578571D01*
X162475000Y-188578571D01*
X162332142Y-188650000D01*
X162260714Y-188721428D01*
X164189285Y-189507142D02*
X164046428Y-189578571D01*
X163760714Y-189578571D01*
X163617857Y-189507142D01*
X163546428Y-189364285D01*
X163546428Y-188792857D01*
X163617857Y-188650000D01*
X163760714Y-188578571D01*
X164046428Y-188578571D01*
X164189285Y-188650000D01*
X164260714Y-188792857D01*
X164260714Y-188935714D01*
X163546428Y-189078571D01*
X165475000Y-189507142D02*
X165332142Y-189578571D01*
X165046428Y-189578571D01*
X164903571Y-189507142D01*
X164832142Y-189364285D01*
X164832142Y-188792857D01*
X164903571Y-188650000D01*
X165046428Y-188578571D01*
X165332142Y-188578571D01*
X165475000Y-188650000D01*
X165546428Y-188792857D01*
X165546428Y-188935714D01*
X164832142Y-189078571D01*
X165975000Y-188578571D02*
X166546428Y-188578571D01*
X166189285Y-188078571D02*
X166189285Y-189364285D01*
X166260714Y-189507142D01*
X166403571Y-189578571D01*
X166546428Y-189578571D01*
X167046428Y-189435714D02*
X167117857Y-189507142D01*
X167046428Y-189578571D01*
X166975000Y-189507142D01*
X167046428Y-189435714D01*
X167046428Y-189578571D01*
X167046428Y-188650000D02*
X167117857Y-188721428D01*
X167046428Y-188792857D01*
X166975000Y-188721428D01*
X167046428Y-188650000D01*
X167046428Y-188792857D01*
D10*
D12*
X161737857Y-185150000D02*
X161595000Y-185078571D01*
X161380714Y-185078571D01*
X161166428Y-185150000D01*
X161023571Y-185292857D01*
X160952142Y-185435714D01*
X160880714Y-185721428D01*
X160880714Y-185935714D01*
X160952142Y-186221428D01*
X161023571Y-186364285D01*
X161166428Y-186507142D01*
X161380714Y-186578571D01*
X161523571Y-186578571D01*
X161737857Y-186507142D01*
X161809285Y-186435714D01*
X161809285Y-185935714D01*
X161523571Y-185935714D01*
X162452142Y-186435714D02*
X162523571Y-186507142D01*
X162452142Y-186578571D01*
X162380714Y-186507142D01*
X162452142Y-186435714D01*
X162452142Y-186578571D01*
X164309285Y-186578571D02*
X164309285Y-185078571D01*
X165166428Y-186578571D02*
X164523571Y-185721428D01*
X165166428Y-185078571D02*
X164309285Y-185935714D01*
X166380714Y-186507142D02*
X166237857Y-186578571D01*
X165952142Y-186578571D01*
X165809285Y-186507142D01*
X165737857Y-186364285D01*
X165737857Y-185792857D01*
X165809285Y-185650000D01*
X165952142Y-185578571D01*
X166237857Y-185578571D01*
X166380714Y-185650000D01*
X166452142Y-185792857D01*
X166452142Y-185935714D01*
X165737857Y-186078571D01*
X167666428Y-186507142D02*
X167523571Y-186578571D01*
X167237857Y-186578571D01*
X167095000Y-186507142D01*
X167023571Y-186364285D01*
X167023571Y-185792857D01*
X167095000Y-185650000D01*
X167237857Y-185578571D01*
X167523571Y-185578571D01*
X167666428Y-185650000D01*
X167737857Y-185792857D01*
X167737857Y-185935714D01*
X167023571Y-186078571D01*
X168166428Y-185578571D02*
X168737857Y-185578571D01*
X168380714Y-185078571D02*
X168380714Y-186364285D01*
X168452142Y-186507142D01*
X168595000Y-186578571D01*
X168737857Y-186578571D01*
X169237857Y-186578571D02*
X169237857Y-185078571D01*
X169880714Y-186578571D02*
X169880714Y-185792857D01*
X169809285Y-185650000D01*
X169666428Y-185578571D01*
X169452142Y-185578571D01*
X169309285Y-185650000D01*
X169237857Y-185721428D01*
D10*
D11*
X160832142Y-183578571D02*
X160832142Y-182078571D01*
X161403571Y-182078571D01*
X161546428Y-182150000D01*
X161617857Y-182221428D01*
X161689285Y-182364285D01*
X161689285Y-182578571D01*
X161617857Y-182721428D01*
X161546428Y-182792857D01*
X161403571Y-182864285D01*
X160832142Y-182864285D01*
X162332142Y-183578571D02*
X162332142Y-182578571D01*
X162332142Y-182864285D02*
X162403571Y-182721428D01*
X162475000Y-182650000D01*
X162617857Y-182578571D01*
X162760714Y-182578571D01*
X163832142Y-183507142D02*
X163689285Y-183578571D01*
X163403571Y-183578571D01*
X163260714Y-183507142D01*
X163189285Y-183364285D01*
X163189285Y-182792857D01*
X163260714Y-182650000D01*
X163403571Y-182578571D01*
X163689285Y-182578571D01*
X163832142Y-182650000D01*
X163903571Y-182792857D01*
X163903571Y-182935714D01*
X163189285Y-183078571D01*
X165189285Y-183578571D02*
X165189285Y-182792857D01*
X165117857Y-182650000D01*
X164975000Y-182578571D01*
X164689285Y-182578571D01*
X164546428Y-182650000D01*
X165189285Y-183507142D02*
X165046428Y-183578571D01*
X164689285Y-183578571D01*
X164546428Y-183507142D01*
X164475000Y-183364285D01*
X164475000Y-183221428D01*
X164546428Y-183078571D01*
X164689285Y-183007142D01*
X165046428Y-183007142D01*
X165189285Y-182935714D01*
X165903571Y-183578571D02*
X165903571Y-182578571D01*
X165903571Y-182721428D02*
X165975000Y-182650000D01*
X166117857Y-182578571D01*
X166332142Y-182578571D01*
X166475000Y-182650000D01*
X166546428Y-182792857D01*
X166546428Y-183578571D01*
X166546428Y-182792857D02*
X166617857Y-182650000D01*
X166760714Y-182578571D01*
X166975000Y-182578571D01*
X167117857Y-182650000D01*
X167189285Y-182792857D01*
X167189285Y-183578571D01*
X167903571Y-182578571D02*
X167903571Y-184078571D01*
X167903571Y-182650000D02*
X168046428Y-182578571D01*
X168332142Y-182578571D01*
X168475000Y-182650000D01*
X168546428Y-182721428D01*
X168617857Y-182864285D01*
X168617857Y-183292857D01*
X168546428Y-183435714D01*
X168475000Y-183507142D01*
X168332142Y-183578571D01*
X168046428Y-183578571D01*
X167903571Y-183507142D01*
X170332142Y-182221428D02*
X170403571Y-182150000D01*
X170546428Y-182078571D01*
X170903571Y-182078571D01*
X171046428Y-182150000D01*
X171117857Y-182221428D01*
X171189285Y-182364285D01*
X171189285Y-182507142D01*
X171117857Y-182721428D01*
X170260714Y-183578571D01*
X171189285Y-183578571D01*
X172117857Y-182078571D02*
X172260714Y-182078571D01*
X172403571Y-182150000D01*
X172475000Y-182221428D01*
X172546428Y-182364285D01*
X172617857Y-182650000D01*
X172617857Y-183007142D01*
X172546428Y-183292857D01*
X172475000Y-183435714D01*
X172403571Y-183507142D01*
X172260714Y-183578571D01*
X172117857Y-183578571D01*
X171975000Y-183507142D01*
X171903571Y-183435714D01*
X171832142Y-183292857D01*
X171760714Y-183007142D01*
X171760714Y-182650000D01*
X171832142Y-182364285D01*
X171903571Y-182221428D01*
X171975000Y-182150000D01*
X172117857Y-182078571D01*
X174046428Y-183578571D02*
X173189285Y-183578571D01*
X173617857Y-183578571D02*
X173617857Y-182078571D01*
X173475000Y-182292857D01*
X173332142Y-182435714D01*
X173189285Y-182507142D01*
X174760714Y-183578571D02*
X175046428Y-183578571D01*
X175189285Y-183507142D01*
X175260714Y-183435714D01*
X175403571Y-183221428D01*
X175475000Y-182935714D01*
X175475000Y-182364285D01*
X175403571Y-182221428D01*
X175332142Y-182150000D01*
X175189285Y-182078571D01*
X174903571Y-182078571D01*
X174760714Y-182150000D01*
X174689285Y-182221428D01*
X174617857Y-182364285D01*
X174617857Y-182721428D01*
X174689285Y-182864285D01*
X174760714Y-182935714D01*
X174903571Y-183007142D01*
X175189285Y-183007142D01*
X175332142Y-182935714D01*
X175403571Y-182864285D01*
X175475000Y-182721428D01*
D10*
D11*
X179400000Y-197400000D02*
X179400000Y-200400000D01*
D10*
D11*
X243400000Y-197400000D02*
X243400000Y-203900000D01*
D14*
X80949560Y-89206700D02*
X81549000Y-89107640D01*
X80548240Y-89305760D02*
X80949560Y-89206700D01*
X80047860Y-89608020D02*
X80548240Y-89305760D01*
X79550020Y-90105860D02*
X80047860Y-89608020D01*
X79247760Y-90606240D02*
X79550020Y-90105860D01*
X79049640Y-91208220D02*
X79247760Y-90606240D01*
X79049640Y-91807660D02*
X79049640Y-91208220D01*
X79148700Y-92407100D02*
X79049640Y-91807660D01*
X79550020Y-93108140D02*
X79148700Y-92407100D01*
X80047860Y-93605980D02*
X79550020Y-93108140D01*
X80649840Y-93908240D02*
X80047860Y-93605980D01*
X81249280Y-94106360D02*
X80649840Y-93908240D01*
X82049380Y-94106360D02*
X81249280Y-94106360D01*
X82747880Y-93806640D02*
X82049380Y-94106360D01*
X83248260Y-93407860D02*
X82747880Y-93806640D01*
X83850240Y-92706820D02*
X83248260Y-93407860D01*
X84048360Y-91906720D02*
X83850240Y-92706820D01*
X84048360Y-91307280D02*
X84048360Y-91906720D01*
X83949300Y-90806900D02*
X84048360Y-91307280D01*
X83748640Y-90408120D02*
X83949300Y-90806900D01*
X83248260Y-89806140D02*
X83748640Y-90408120D01*
X82747880Y-89407360D02*
X83248260Y-89806140D01*
X82250040Y-89206700D02*
X82747880Y-89407360D01*
X81648060Y-89107640D02*
X82250040Y-89206700D01*
X81549000Y-89107640D02*
X81648060Y-89107640D01*
X82148440Y-92607760D02*
X81947780Y-92407100D01*
X82549760Y-92607760D02*
X82148440Y-92607760D01*
X82849480Y-92506160D02*
X82549760Y-92607760D01*
X83050140Y-92206440D02*
X82849480Y-92506160D01*
X83149200Y-91706060D02*
X83050140Y-92206440D01*
X83149200Y-91307280D02*
X83149200Y-91706060D01*
X83050140Y-90905960D02*
X83149200Y-91307280D01*
X82747880Y-90707840D02*
X83050140Y-90905960D01*
X82349100Y-90606240D02*
X82747880Y-90707840D01*
X82049380Y-90707840D02*
X82349100Y-90606240D01*
X81947780Y-90806900D02*
X82049380Y-90707840D01*
X80047860Y-92607760D02*
X79948800Y-92407100D01*
X80350120Y-92607760D02*
X80047860Y-92607760D01*
X80548240Y-92607760D02*
X80350120Y-92607760D01*
X80949560Y-92407100D02*
X80548240Y-92607760D01*
X81150220Y-92005780D02*
X80949560Y-92407100D01*
X81150220Y-91607000D02*
X81150220Y-92005780D01*
X81048620Y-91106620D02*
X81150220Y-91607000D01*
X80847960Y-90707840D02*
X81048620Y-91106620D01*
X80548240Y-90606240D02*
X80847960Y-90707840D01*
X80248520Y-90606240D02*
X80548240Y-90606240D01*
X80047860Y-90707840D02*
X80248520Y-90606240D01*
X79948800Y-90806900D02*
X80047860Y-90707840D01*
X66202560Y-89306700D02*
X66802000Y-89207640D01*
X65801240Y-89405760D02*
X66202560Y-89306700D01*
X65300860Y-89708020D02*
X65801240Y-89405760D01*
X64803020Y-90205860D02*
X65300860Y-89708020D01*
X64500760Y-90706240D02*
X64803020Y-90205860D01*
X64302640Y-91308220D02*
X64500760Y-90706240D01*
X64302640Y-91907660D02*
X64302640Y-91308220D01*
X64401700Y-92507100D02*
X64302640Y-91907660D01*
X64803020Y-93208140D02*
X64401700Y-92507100D01*
X65300860Y-93705980D02*
X64803020Y-93208140D01*
X65902840Y-94008240D02*
X65300860Y-93705980D01*
X66502280Y-94206360D02*
X65902840Y-94008240D01*
X67302380Y-94206360D02*
X66502280Y-94206360D01*
X68000880Y-93906640D02*
X67302380Y-94206360D01*
X68501260Y-93507860D02*
X68000880Y-93906640D01*
X69103240Y-92806820D02*
X68501260Y-93507860D01*
X69301360Y-92006720D02*
X69103240Y-92806820D01*
X69301360Y-91407280D02*
X69301360Y-92006720D01*
X69202300Y-90906900D02*
X69301360Y-91407280D01*
X69001640Y-90508120D02*
X69202300Y-90906900D01*
X68501260Y-89906140D02*
X69001640Y-90508120D01*
X68000880Y-89507360D02*
X68501260Y-89906140D01*
X67503040Y-89306700D02*
X68000880Y-89507360D01*
X66901060Y-89207640D02*
X67503040Y-89306700D01*
X66802000Y-89207640D02*
X66901060Y-89207640D01*
X67302380Y-90205860D02*
X67802760Y-90406520D01*
X66901060Y-90106800D02*
X67302380Y-90205860D01*
X66502280Y-90106800D02*
X66901060Y-90106800D01*
X65902840Y-90406520D02*
X66502280Y-90106800D01*
X65603120Y-90706240D02*
X65902840Y-90406520D01*
X65300860Y-91206620D02*
X65603120Y-90706240D01*
X65201800Y-91707000D02*
X65300860Y-91206620D01*
X65201800Y-92105780D02*
X65201800Y-91707000D01*
X65501520Y-92606160D02*
X65201800Y-92105780D01*
X65902840Y-93007480D02*
X65501520Y-92606160D01*
X66403220Y-93208140D02*
X65902840Y-93007480D01*
X66901060Y-93307200D02*
X66403220Y-93208140D01*
X67401440Y-93208140D02*
X66901060Y-93307200D01*
X67901820Y-92905880D02*
X67401440Y-93208140D01*
X73576060Y-89306700D02*
X74175500Y-89207640D01*
X73174740Y-89405760D02*
X73576060Y-89306700D01*
X72674360Y-89708020D02*
X73174740Y-89405760D01*
X72176520Y-90205860D02*
X72674360Y-89708020D01*
X71874260Y-90706240D02*
X72176520Y-90205860D01*
X71676140Y-91308220D02*
X71874260Y-90706240D01*
X71676140Y-91907660D02*
X71676140Y-91308220D01*
X71775200Y-92507100D02*
X71676140Y-91907660D01*
X72176520Y-93208140D02*
X71775200Y-92507100D01*
X72674360Y-93705980D02*
X72176520Y-93208140D01*
X73276340Y-94008240D02*
X72674360Y-93705980D01*
X73875780Y-94206360D02*
X73276340Y-94008240D01*
X74675880Y-94206360D02*
X73875780Y-94206360D01*
X75374380Y-93906640D02*
X74675880Y-94206360D01*
X75874760Y-93507860D02*
X75374380Y-93906640D01*
X76476740Y-92806820D02*
X75874760Y-93507860D01*
X76674860Y-92006720D02*
X76476740Y-92806820D01*
X76674860Y-91407280D02*
X76674860Y-92006720D01*
X76575800Y-90906900D02*
X76674860Y-91407280D01*
X76375140Y-90508120D02*
X76575800Y-90906900D01*
X75874760Y-89906140D02*
X76375140Y-90508120D01*
X75374380Y-89507360D02*
X75874760Y-89906140D01*
X74876540Y-89306700D02*
X75374380Y-89507360D01*
X74274560Y-89207640D02*
X74876540Y-89306700D01*
X74175500Y-89207640D02*
X74274560Y-89207640D01*
X74491166Y-90007740D02*
G75*
G03X74491166Y-90007740I-315666J0D01*
G01*
X74975600Y-91907660D02*
X74975600Y-90706240D01*
X73474460Y-91907660D02*
X74975600Y-91907660D01*
X73474460Y-90706240D02*
X73474460Y-91907660D01*
X74975600Y-90706240D02*
X73474460Y-90706240D01*
X74475220Y-93507860D02*
X73974840Y-93507860D01*
X74475220Y-92006720D02*
X74475220Y-93507860D01*
X73875780Y-93507860D02*
X73875780Y-91907660D01*
X74076440Y-93507860D02*
X73875780Y-93507860D01*
X74175500Y-92006720D02*
X74175500Y-93307200D01*
X74975600Y-91607940D02*
X73675120Y-91607940D01*
X73675120Y-91308220D02*
X74876540Y-91308220D01*
X74876540Y-91005960D02*
X73576060Y-91005960D01*
X74175500Y-89807080D02*
X74175500Y-90205860D01*
D15*
X56000000Y-144000000D03*
X144000000Y-144000000D03*
X144000000Y-86000000D03*
X56000000Y-86000000D03*
D16*
X112160000Y-146050000D03*
X86360000Y-146050000D03*
D17*
X129540000Y-87230000D03*
X129540000Y-113030000D03*
X129540000Y-118980000D03*
X129540000Y-144780000D03*
D18*
X144310000Y-126375000D03*
X144310000Y-128915000D03*
D10*
G36*
X145184505Y-130586204D02*
G01*
X145208773Y-130589804D01*
X145232572Y-130595765D01*
X145255671Y-130604030D01*
X145277850Y-130614520D01*
X145298893Y-130627132D01*
X145318599Y-130641747D01*
X145336777Y-130658223D01*
X145353253Y-130676401D01*
X145367868Y-130696107D01*
X145380480Y-130717150D01*
X145390970Y-130739329D01*
X145399235Y-130762428D01*
X145405196Y-130786227D01*
X145408796Y-130810495D01*
X145410000Y-130834999D01*
X145410000Y-132075001D01*
X145408796Y-132099505D01*
X145405196Y-132123773D01*
X145399235Y-132147572D01*
X145390970Y-132170671D01*
X145380480Y-132192850D01*
X145367868Y-132213893D01*
X145353253Y-132233599D01*
X145336777Y-132251777D01*
X145318599Y-132268253D01*
X145298893Y-132282868D01*
X145277850Y-132295480D01*
X145255671Y-132305970D01*
X145232572Y-132314235D01*
X145208773Y-132320196D01*
X145184505Y-132323796D01*
X145160001Y-132325000D01*
X143459999Y-132325000D01*
X143435495Y-132323796D01*
X143411227Y-132320196D01*
X143387428Y-132314235D01*
X143364329Y-132305970D01*
X143342150Y-132295480D01*
X143321107Y-132282868D01*
X143301401Y-132268253D01*
X143283223Y-132251777D01*
X143266747Y-132233599D01*
X143252132Y-132213893D01*
X143239520Y-132192850D01*
X143229030Y-132170671D01*
X143220765Y-132147572D01*
X143214804Y-132123773D01*
X143211204Y-132099505D01*
X143210000Y-132075001D01*
X143210000Y-130834999D01*
X143211204Y-130810495D01*
X143214804Y-130786227D01*
X143220765Y-130762428D01*
X143229030Y-130739329D01*
X143239520Y-130717150D01*
X143252132Y-130696107D01*
X143266747Y-130676401D01*
X143283223Y-130658223D01*
X143301401Y-130641747D01*
X143321107Y-130627132D01*
X143342150Y-130614520D01*
X143364329Y-130604030D01*
X143387428Y-130595765D01*
X143411227Y-130589804D01*
X143435495Y-130586204D01*
X143459999Y-130585000D01*
X145160001Y-130585000D01*
X145184505Y-130586204D01*
X145184505Y-130586204D01*
G37*
D19*
X144310000Y-131455000D03*
D18*
X144310000Y-112460000D03*
X144310000Y-115000000D03*
D10*
G36*
X145184505Y-116671204D02*
G01*
X145208773Y-116674804D01*
X145232572Y-116680765D01*
X145255671Y-116689030D01*
X145277850Y-116699520D01*
X145298893Y-116712132D01*
X145318599Y-116726747D01*
X145336777Y-116743223D01*
X145353253Y-116761401D01*
X145367868Y-116781107D01*
X145380480Y-116802150D01*
X145390970Y-116824329D01*
X145399235Y-116847428D01*
X145405196Y-116871227D01*
X145408796Y-116895495D01*
X145410000Y-116919999D01*
X145410000Y-118160001D01*
X145408796Y-118184505D01*
X145405196Y-118208773D01*
X145399235Y-118232572D01*
X145390970Y-118255671D01*
X145380480Y-118277850D01*
X145367868Y-118298893D01*
X145353253Y-118318599D01*
X145336777Y-118336777D01*
X145318599Y-118353253D01*
X145298893Y-118367868D01*
X145277850Y-118380480D01*
X145255671Y-118390970D01*
X145232572Y-118399235D01*
X145208773Y-118405196D01*
X145184505Y-118408796D01*
X145160001Y-118410000D01*
X143459999Y-118410000D01*
X143435495Y-118408796D01*
X143411227Y-118405196D01*
X143387428Y-118399235D01*
X143364329Y-118390970D01*
X143342150Y-118380480D01*
X143321107Y-118367868D01*
X143301401Y-118353253D01*
X143283223Y-118336777D01*
X143266747Y-118318599D01*
X143252132Y-118298893D01*
X143239520Y-118277850D01*
X143229030Y-118255671D01*
X143220765Y-118232572D01*
X143214804Y-118208773D01*
X143211204Y-118184505D01*
X143210000Y-118160001D01*
X143210000Y-116919999D01*
X143211204Y-116895495D01*
X143214804Y-116871227D01*
X143220765Y-116847428D01*
X143229030Y-116824329D01*
X143239520Y-116802150D01*
X143252132Y-116781107D01*
X143266747Y-116761401D01*
X143283223Y-116743223D01*
X143301401Y-116726747D01*
X143321107Y-116712132D01*
X143342150Y-116699520D01*
X143364329Y-116689030D01*
X143387428Y-116680765D01*
X143411227Y-116674804D01*
X143435495Y-116671204D01*
X143459999Y-116670000D01*
X145160001Y-116670000D01*
X145184505Y-116671204D01*
X145184505Y-116671204D01*
G37*
D19*
X144310000Y-117540000D03*
D18*
X144310000Y-98545000D03*
X144310000Y-101085000D03*
D10*
G36*
X145184505Y-102756204D02*
G01*
X145208773Y-102759804D01*
X145232572Y-102765765D01*
X145255671Y-102774030D01*
X145277850Y-102784520D01*
X145298893Y-102797132D01*
X145318599Y-102811747D01*
X145336777Y-102828223D01*
X145353253Y-102846401D01*
X145367868Y-102866107D01*
X145380480Y-102887150D01*
X145390970Y-102909329D01*
X145399235Y-102932428D01*
X145405196Y-102956227D01*
X145408796Y-102980495D01*
X145410000Y-103004999D01*
X145410000Y-104245001D01*
X145408796Y-104269505D01*
X145405196Y-104293773D01*
X145399235Y-104317572D01*
X145390970Y-104340671D01*
X145380480Y-104362850D01*
X145367868Y-104383893D01*
X145353253Y-104403599D01*
X145336777Y-104421777D01*
X145318599Y-104438253D01*
X145298893Y-104452868D01*
X145277850Y-104465480D01*
X145255671Y-104475970D01*
X145232572Y-104484235D01*
X145208773Y-104490196D01*
X145184505Y-104493796D01*
X145160001Y-104495000D01*
X143459999Y-104495000D01*
X143435495Y-104493796D01*
X143411227Y-104490196D01*
X143387428Y-104484235D01*
X143364329Y-104475970D01*
X143342150Y-104465480D01*
X143321107Y-104452868D01*
X143301401Y-104438253D01*
X143283223Y-104421777D01*
X143266747Y-104403599D01*
X143252132Y-104383893D01*
X143239520Y-104362850D01*
X143229030Y-104340671D01*
X143220765Y-104317572D01*
X143214804Y-104293773D01*
X143211204Y-104269505D01*
X143210000Y-104245001D01*
X143210000Y-103004999D01*
X143211204Y-102980495D01*
X143214804Y-102956227D01*
X143220765Y-102932428D01*
X143229030Y-102909329D01*
X143239520Y-102887150D01*
X143252132Y-102866107D01*
X143266747Y-102846401D01*
X143283223Y-102828223D01*
X143301401Y-102811747D01*
X143321107Y-102797132D01*
X143342150Y-102784520D01*
X143364329Y-102774030D01*
X143387428Y-102765765D01*
X143411227Y-102759804D01*
X143435495Y-102756204D01*
X143459999Y-102755000D01*
X145160001Y-102755000D01*
X145184505Y-102756204D01*
X145184505Y-102756204D01*
G37*
D19*
X144310000Y-103625000D03*
D20*
X132461000Y-104799000D03*
D21*
X132461000Y-106299000D03*
D22*
X57620000Y-130950000D03*
X80120000Y-130950000D03*
D23*
X107823000Y-129794000D03*
D24*
X107823000Y-127254000D03*
D25*
X80010000Y-144780000D03*
D10*
G36*
X78114505Y-143681204D02*
G01*
X78138773Y-143684804D01*
X78162572Y-143690765D01*
X78185671Y-143699030D01*
X78207850Y-143709520D01*
X78228893Y-143722132D01*
X78248599Y-143736747D01*
X78266777Y-143753223D01*
X78283253Y-143771401D01*
X78297868Y-143791107D01*
X78310480Y-143812150D01*
X78320970Y-143834329D01*
X78329235Y-143857428D01*
X78335196Y-143881227D01*
X78338796Y-143905495D01*
X78340000Y-143929999D01*
X78340000Y-145630001D01*
X78338796Y-145654505D01*
X78335196Y-145678773D01*
X78329235Y-145702572D01*
X78320970Y-145725671D01*
X78310480Y-145747850D01*
X78297868Y-145768893D01*
X78283253Y-145788599D01*
X78266777Y-145806777D01*
X78248599Y-145823253D01*
X78228893Y-145837868D01*
X78207850Y-145850480D01*
X78185671Y-145860970D01*
X78162572Y-145869235D01*
X78138773Y-145875196D01*
X78114505Y-145878796D01*
X78090001Y-145880000D01*
X76849999Y-145880000D01*
X76825495Y-145878796D01*
X76801227Y-145875196D01*
X76777428Y-145869235D01*
X76754329Y-145860970D01*
X76732150Y-145850480D01*
X76711107Y-145837868D01*
X76691401Y-145823253D01*
X76673223Y-145806777D01*
X76656747Y-145788599D01*
X76642132Y-145768893D01*
X76629520Y-145747850D01*
X76619030Y-145725671D01*
X76610765Y-145702572D01*
X76604804Y-145678773D01*
X76601204Y-145654505D01*
X76600000Y-145630001D01*
X76600000Y-143929999D01*
X76601204Y-143905495D01*
X76604804Y-143881227D01*
X76610765Y-143857428D01*
X76619030Y-143834329D01*
X76629520Y-143812150D01*
X76642132Y-143791107D01*
X76656747Y-143771401D01*
X76673223Y-143753223D01*
X76691401Y-143736747D01*
X76711107Y-143722132D01*
X76732150Y-143709520D01*
X76754329Y-143699030D01*
X76777428Y-143690765D01*
X76801227Y-143684804D01*
X76825495Y-143681204D01*
X76849999Y-143680000D01*
X78090001Y-143680000D01*
X78114505Y-143681204D01*
X78114505Y-143681204D01*
G37*
D19*
X77470000Y-144780000D03*
D25*
X68580000Y-144780000D03*
D10*
G36*
X66684505Y-143681204D02*
G01*
X66708773Y-143684804D01*
X66732572Y-143690765D01*
X66755671Y-143699030D01*
X66777850Y-143709520D01*
X66798893Y-143722132D01*
X66818599Y-143736747D01*
X66836777Y-143753223D01*
X66853253Y-143771401D01*
X66867868Y-143791107D01*
X66880480Y-143812150D01*
X66890970Y-143834329D01*
X66899235Y-143857428D01*
X66905196Y-143881227D01*
X66908796Y-143905495D01*
X66910000Y-143929999D01*
X66910000Y-145630001D01*
X66908796Y-145654505D01*
X66905196Y-145678773D01*
X66899235Y-145702572D01*
X66890970Y-145725671D01*
X66880480Y-145747850D01*
X66867868Y-145768893D01*
X66853253Y-145788599D01*
X66836777Y-145806777D01*
X66818599Y-145823253D01*
X66798893Y-145837868D01*
X66777850Y-145850480D01*
X66755671Y-145860970D01*
X66732572Y-145869235D01*
X66708773Y-145875196D01*
X66684505Y-145878796D01*
X66660001Y-145880000D01*
X65419999Y-145880000D01*
X65395495Y-145878796D01*
X65371227Y-145875196D01*
X65347428Y-145869235D01*
X65324329Y-145860970D01*
X65302150Y-145850480D01*
X65281107Y-145837868D01*
X65261401Y-145823253D01*
X65243223Y-145806777D01*
X65226747Y-145788599D01*
X65212132Y-145768893D01*
X65199520Y-145747850D01*
X65189030Y-145725671D01*
X65180765Y-145702572D01*
X65174804Y-145678773D01*
X65171204Y-145654505D01*
X65170000Y-145630001D01*
X65170000Y-143929999D01*
X65171204Y-143905495D01*
X65174804Y-143881227D01*
X65180765Y-143857428D01*
X65189030Y-143834329D01*
X65199520Y-143812150D01*
X65212132Y-143791107D01*
X65226747Y-143771401D01*
X65243223Y-143753223D01*
X65261401Y-143736747D01*
X65281107Y-143722132D01*
X65302150Y-143709520D01*
X65324329Y-143699030D01*
X65347428Y-143690765D01*
X65371227Y-143684804D01*
X65395495Y-143681204D01*
X65419999Y-143680000D01*
X66660001Y-143680000D01*
X66684505Y-143681204D01*
X66684505Y-143681204D01*
G37*
D19*
X66040000Y-144780000D03*
D22*
X57620000Y-99200000D03*
X80120000Y-99200000D03*
D26*
X101800000Y-140200000D03*
X99260000Y-140200000D03*
D27*
X96720000Y-140200000D03*
D28*
X89876000Y-131318000D03*
D29*
X87376000Y-131318000D03*
D30*
X56420000Y-120940000D03*
X56420000Y-116980000D03*
X56420000Y-113020000D03*
D10*
G36*
X57544503Y-107711204D02*
G01*
X57568772Y-107714804D01*
X57592570Y-107720765D01*
X57615670Y-107729030D01*
X57637849Y-107739520D01*
X57658892Y-107752133D01*
X57678598Y-107766748D01*
X57696776Y-107783224D01*
X57713252Y-107801402D01*
X57727867Y-107821108D01*
X57740480Y-107842151D01*
X57750970Y-107864330D01*
X57759235Y-107887430D01*
X57765196Y-107911228D01*
X57768796Y-107935497D01*
X57770000Y-107960001D01*
X57770000Y-110159999D01*
X57768796Y-110184503D01*
X57765196Y-110208772D01*
X57759235Y-110232570D01*
X57750970Y-110255670D01*
X57740480Y-110277849D01*
X57727867Y-110298892D01*
X57713252Y-110318598D01*
X57696776Y-110336776D01*
X57678598Y-110353252D01*
X57658892Y-110367867D01*
X57637849Y-110380480D01*
X57615670Y-110390970D01*
X57592570Y-110399235D01*
X57568772Y-110405196D01*
X57544503Y-110408796D01*
X57519999Y-110410000D01*
X55320001Y-110410000D01*
X55295497Y-110408796D01*
X55271228Y-110405196D01*
X55247430Y-110399235D01*
X55224330Y-110390970D01*
X55202151Y-110380480D01*
X55181108Y-110367867D01*
X55161402Y-110353252D01*
X55143224Y-110336776D01*
X55126748Y-110318598D01*
X55112133Y-110298892D01*
X55099520Y-110277849D01*
X55089030Y-110255670D01*
X55080765Y-110232570D01*
X55074804Y-110208772D01*
X55071204Y-110184503D01*
X55070000Y-110159999D01*
X55070000Y-107960001D01*
X55071204Y-107935497D01*
X55074804Y-107911228D01*
X55080765Y-107887430D01*
X55089030Y-107864330D01*
X55099520Y-107842151D01*
X55112133Y-107821108D01*
X55126748Y-107801402D01*
X55143224Y-107783224D01*
X55161402Y-107766748D01*
X55181108Y-107752133D01*
X55202151Y-107739520D01*
X55224330Y-107729030D01*
X55247430Y-107720765D01*
X55271228Y-107714804D01*
X55295497Y-107711204D01*
X55320001Y-107710000D01*
X57519999Y-107710000D01*
X57544503Y-107711204D01*
X57544503Y-107711204D01*
G37*
D30*
X56420000Y-109060000D03*
D31*
X123690000Y-97590000D03*
X123690000Y-100130000D03*
D32*
X123690000Y-102670000D03*
D31*
X123690000Y-129340000D03*
X123690000Y-131880000D03*
D32*
X123690000Y-134420000D03*
D23*
X93472000Y-91186000D03*
D24*
X90932000Y-91186000D03*
D23*
X86360000Y-123698000D03*
D24*
X83820000Y-123698000D03*
X90932000Y-111760000D03*
D23*
X90932000Y-114300000D03*
X72390000Y-119380000D03*
D24*
X69850000Y-119380000D03*
D23*
X72390000Y-109220000D03*
D24*
X69850000Y-109220000D03*
D28*
X134112000Y-93131000D03*
D29*
X134112000Y-95631000D03*
D28*
X132501000Y-136906000D03*
D29*
X135001000Y-136906000D03*
D28*
X113792000Y-103537000D03*
D29*
X113792000Y-105537000D03*
D33*
X100330000Y-100410000D03*
D34*
X100330000Y-105410000D03*
D33*
X100330000Y-114380000D03*
D34*
X100330000Y-119380000D03*
D28*
X83820000Y-116760000D03*
X83820000Y-111760000D03*
X77470000Y-116840000D03*
X77470000Y-111840000D03*
D35*
X77470000Y-83185000D03*
X82411990Y-107061000D03*
X100838000Y-134366000D03*
D36*
X56420000Y-113020000D02*
X56420000Y-116980000D01*
X56420000Y-116980000D02*
X59957000Y-116980000D01*
X66675000Y-123698000D02*
X83820000Y-123698000D01*
X59957000Y-116980000D02*
X66675000Y-123698000D01*
X100330000Y-105410000D02*
X100330000Y-109855000D01*
X100330000Y-109855000D02*
X100330000Y-114380000D01*
X93980000Y-112649000D02*
X93980000Y-116078000D01*
X100330000Y-109855000D02*
X96774000Y-109855000D01*
X93980000Y-116078000D02*
X86360000Y-123698000D01*
X96774000Y-109855000D02*
X93980000Y-112649000D01*
X107823000Y-112268000D02*
X107823000Y-127254000D01*
X107823000Y-110871000D02*
X107823000Y-112268000D01*
X100330000Y-109855000D02*
X106807000Y-109855000D01*
X106807000Y-109855000D02*
X107823000Y-110871000D01*
X82911989Y-107560999D02*
X82411990Y-107061000D01*
X89650990Y-114300000D02*
X82911989Y-107560999D01*
X90932000Y-114300000D02*
X89650990Y-114300000D01*
D37*
G36*
X116713000Y-91340306D02*
G01*
X94946434Y-91366223D01*
X94964185Y-91186000D01*
X94935513Y-90894889D01*
X94850599Y-90614966D01*
X94712706Y-90356986D01*
X94527134Y-90130866D01*
X94301014Y-89945294D01*
X94043034Y-89807401D01*
X93763111Y-89722487D01*
X93544950Y-89701000D01*
X93399050Y-89701000D01*
X93180889Y-89722487D01*
X92900966Y-89807401D01*
X92657267Y-89937661D01*
X90314113Y-87594507D01*
X90294867Y-87578713D01*
X90272911Y-87566977D01*
X90249086Y-87559750D01*
X90224310Y-87557310D01*
X63554310Y-87557310D01*
X63529534Y-87559750D01*
X63505709Y-87566977D01*
X63483753Y-87578713D01*
X63464507Y-87594507D01*
X54574507Y-96484507D01*
X54558713Y-96503753D01*
X54546977Y-96525709D01*
X54539750Y-96549534D01*
X54537310Y-96574310D01*
X54537310Y-107549466D01*
X54499529Y-107620150D01*
X54448992Y-107786747D01*
X54431928Y-107960001D01*
X54431928Y-110159999D01*
X54448992Y-110333253D01*
X54499529Y-110499850D01*
X54537310Y-110570534D01*
X54537310Y-112378160D01*
X54511282Y-112440997D01*
X54435000Y-112824495D01*
X54435000Y-113215505D01*
X54511282Y-113599003D01*
X54537310Y-113661840D01*
X54537310Y-116338160D01*
X54511282Y-116400997D01*
X54435000Y-116784495D01*
X54435000Y-117175505D01*
X54511282Y-117559003D01*
X54537310Y-117621840D01*
X54537310Y-120298160D01*
X54511282Y-120360997D01*
X54435000Y-120744495D01*
X54435000Y-121135505D01*
X54511282Y-121519003D01*
X54537310Y-121581840D01*
X54537310Y-121974310D01*
X54539750Y-121999086D01*
X54546977Y-122022911D01*
X54558713Y-122044867D01*
X54574507Y-122064113D01*
X54594217Y-122080215D01*
X55063776Y-122390991D01*
X55154636Y-122481851D01*
X55479750Y-122699085D01*
X55612136Y-122753921D01*
X58293000Y-124528241D01*
X58293000Y-128917859D01*
X58242756Y-128897047D01*
X57830279Y-128815000D01*
X57409721Y-128815000D01*
X56997244Y-128897047D01*
X56608698Y-129057988D01*
X56259017Y-129291637D01*
X55961637Y-129589017D01*
X55727988Y-129938698D01*
X55567047Y-130327244D01*
X55485000Y-130739721D01*
X55485000Y-131160279D01*
X55567047Y-131572756D01*
X55727988Y-131961302D01*
X55961637Y-132310983D01*
X56259017Y-132608363D01*
X56608698Y-132842012D01*
X56997244Y-133002953D01*
X57409721Y-133085000D01*
X57830279Y-133085000D01*
X58242756Y-133002953D01*
X58293000Y-132982141D01*
X58293000Y-140988783D01*
X58161088Y-140809452D01*
X57497118Y-140449151D01*
X56775615Y-140225306D01*
X56024305Y-140146520D01*
X55272062Y-140215822D01*
X54547792Y-140430548D01*
X53879330Y-140782445D01*
X53838912Y-140809452D01*
X53478724Y-141299119D01*
X56000000Y-143820395D01*
X56014143Y-143806253D01*
X56193748Y-143985858D01*
X56179605Y-144000000D01*
X56193748Y-144014143D01*
X56014143Y-144193748D01*
X56000000Y-144179605D01*
X53478724Y-146700881D01*
X53838912Y-147190548D01*
X54502882Y-147550849D01*
X55224385Y-147774694D01*
X55975695Y-147853480D01*
X56727938Y-147784178D01*
X57452208Y-147569452D01*
X58120670Y-147217555D01*
X58161088Y-147190548D01*
X58293000Y-147011217D01*
X58293000Y-148463000D01*
X50981310Y-148463000D01*
X50981310Y-143975695D01*
X52146520Y-143975695D01*
X52215822Y-144727938D01*
X52430548Y-145452208D01*
X52782445Y-146120670D01*
X52809452Y-146161088D01*
X53299119Y-146521276D01*
X55820395Y-144000000D01*
X53299119Y-141478724D01*
X52809452Y-141838912D01*
X52449151Y-142502882D01*
X52225306Y-143224385D01*
X52146520Y-143975695D01*
X50981310Y-143975695D01*
X50981310Y-88700881D01*
X53478724Y-88700881D01*
X53838912Y-89190548D01*
X54502882Y-89550849D01*
X55224385Y-89774694D01*
X55975695Y-89853480D01*
X56727938Y-89784178D01*
X57452208Y-89569452D01*
X58120670Y-89217555D01*
X58161088Y-89190548D01*
X58521276Y-88700881D01*
X56000000Y-86179605D01*
X53478724Y-88700881D01*
X50981310Y-88700881D01*
X50981310Y-85975695D01*
X52146520Y-85975695D01*
X52215822Y-86727938D01*
X52430548Y-87452208D01*
X52782445Y-88120670D01*
X52809452Y-88161088D01*
X53299119Y-88521276D01*
X55820395Y-86000000D01*
X56179605Y-86000000D01*
X58700881Y-88521276D01*
X59190548Y-88161088D01*
X59550849Y-87497118D01*
X59774694Y-86775615D01*
X59853480Y-86024305D01*
X59784178Y-85272062D01*
X59569452Y-84547792D01*
X59217555Y-83879330D01*
X59190548Y-83838912D01*
X58700881Y-83478724D01*
X56179605Y-86000000D01*
X55820395Y-86000000D01*
X53299119Y-83478724D01*
X52809452Y-83838912D01*
X52449151Y-84502882D01*
X52225306Y-85224385D01*
X52146520Y-85975695D01*
X50981310Y-85975695D01*
X50981310Y-83299119D01*
X53478724Y-83299119D01*
X56000000Y-85820395D01*
X58521276Y-83299119D01*
X58161088Y-82809452D01*
X57497118Y-82449151D01*
X56775615Y-82225306D01*
X56024305Y-82146520D01*
X55272062Y-82215822D01*
X54547792Y-82430548D01*
X53879330Y-82782445D01*
X53838912Y-82809452D01*
X53478724Y-83299119D01*
X50981310Y-83299119D01*
X50981310Y-81406948D01*
X116713000Y-81379897D01*
X116713000Y-91340306D01*
X116713000Y-91340306D01*
G37*
X116713000Y-91340306D02*
X94946434Y-91366223D01*
X94964185Y-91186000D01*
X94935513Y-90894889D01*
X94850599Y-90614966D01*
X94712706Y-90356986D01*
X94527134Y-90130866D01*
X94301014Y-89945294D01*
X94043034Y-89807401D01*
X93763111Y-89722487D01*
X93544950Y-89701000D01*
X93399050Y-89701000D01*
X93180889Y-89722487D01*
X92900966Y-89807401D01*
X92657267Y-89937661D01*
X90314113Y-87594507D01*
X90294867Y-87578713D01*
X90272911Y-87566977D01*
X90249086Y-87559750D01*
X90224310Y-87557310D01*
X63554310Y-87557310D01*
X63529534Y-87559750D01*
X63505709Y-87566977D01*
X63483753Y-87578713D01*
X63464507Y-87594507D01*
X54574507Y-96484507D01*
X54558713Y-96503753D01*
X54546977Y-96525709D01*
X54539750Y-96549534D01*
X54537310Y-96574310D01*
X54537310Y-107549466D01*
X54499529Y-107620150D01*
X54448992Y-107786747D01*
X54431928Y-107960001D01*
X54431928Y-110159999D01*
X54448992Y-110333253D01*
X54499529Y-110499850D01*
X54537310Y-110570534D01*
X54537310Y-112378160D01*
X54511282Y-112440997D01*
X54435000Y-112824495D01*
X54435000Y-113215505D01*
X54511282Y-113599003D01*
X54537310Y-113661840D01*
X54537310Y-116338160D01*
X54511282Y-116400997D01*
X54435000Y-116784495D01*
X54435000Y-117175505D01*
X54511282Y-117559003D01*
X54537310Y-117621840D01*
X54537310Y-120298160D01*
X54511282Y-120360997D01*
X54435000Y-120744495D01*
X54435000Y-121135505D01*
X54511282Y-121519003D01*
X54537310Y-121581840D01*
X54537310Y-121974310D01*
X54539750Y-121999086D01*
X54546977Y-122022911D01*
X54558713Y-122044867D01*
X54574507Y-122064113D01*
X54594217Y-122080215D01*
X55063776Y-122390991D01*
X55154636Y-122481851D01*
X55479750Y-122699085D01*
X55612136Y-122753921D01*
X58293000Y-124528241D01*
X58293000Y-128917859D01*
X58242756Y-128897047D01*
X57830279Y-128815000D01*
X57409721Y-128815000D01*
X56997244Y-128897047D01*
X56608698Y-129057988D01*
X56259017Y-129291637D01*
X55961637Y-129589017D01*
X55727988Y-129938698D01*
X55567047Y-130327244D01*
X55485000Y-130739721D01*
X55485000Y-131160279D01*
X55567047Y-131572756D01*
X55727988Y-131961302D01*
X55961637Y-132310983D01*
X56259017Y-132608363D01*
X56608698Y-132842012D01*
X56997244Y-133002953D01*
X57409721Y-133085000D01*
X57830279Y-133085000D01*
X58242756Y-133002953D01*
X58293000Y-132982141D01*
X58293000Y-140988783D01*
X58161088Y-140809452D01*
X57497118Y-140449151D01*
X56775615Y-140225306D01*
X56024305Y-140146520D01*
X55272062Y-140215822D01*
X54547792Y-140430548D01*
X53879330Y-140782445D01*
X53838912Y-140809452D01*
X53478724Y-141299119D01*
X56000000Y-143820395D01*
X56014143Y-143806253D01*
X56193748Y-143985858D01*
X56179605Y-144000000D01*
X56193748Y-144014143D01*
X56014143Y-144193748D01*
X56000000Y-144179605D01*
X53478724Y-146700881D01*
X53838912Y-147190548D01*
X54502882Y-147550849D01*
X55224385Y-147774694D01*
X55975695Y-147853480D01*
X56727938Y-147784178D01*
X57452208Y-147569452D01*
X58120670Y-147217555D01*
X58161088Y-147190548D01*
X58293000Y-147011217D01*
X58293000Y-148463000D01*
X50981310Y-148463000D01*
X50981310Y-143975695D01*
X52146520Y-143975695D01*
X52215822Y-144727938D01*
X52430548Y-145452208D01*
X52782445Y-146120670D01*
X52809452Y-146161088D01*
X53299119Y-146521276D01*
X55820395Y-144000000D01*
X53299119Y-141478724D01*
X52809452Y-141838912D01*
X52449151Y-142502882D01*
X52225306Y-143224385D01*
X52146520Y-143975695D01*
X50981310Y-143975695D01*
X50981310Y-88700881D01*
X53478724Y-88700881D01*
X53838912Y-89190548D01*
X54502882Y-89550849D01*
X55224385Y-89774694D01*
X55975695Y-89853480D01*
X56727938Y-89784178D01*
X57452208Y-89569452D01*
X58120670Y-89217555D01*
X58161088Y-89190548D01*
X58521276Y-88700881D01*
X56000000Y-86179605D01*
X53478724Y-88700881D01*
X50981310Y-88700881D01*
X50981310Y-85975695D01*
X52146520Y-85975695D01*
X52215822Y-86727938D01*
X52430548Y-87452208D01*
X52782445Y-88120670D01*
X52809452Y-88161088D01*
X53299119Y-88521276D01*
X55820395Y-86000000D01*
X56179605Y-86000000D01*
X58700881Y-88521276D01*
X59190548Y-88161088D01*
X59550849Y-87497118D01*
X59774694Y-86775615D01*
X59853480Y-86024305D01*
X59784178Y-85272062D01*
X59569452Y-84547792D01*
X59217555Y-83879330D01*
X59190548Y-83838912D01*
X58700881Y-83478724D01*
X56179605Y-86000000D01*
X55820395Y-86000000D01*
X53299119Y-83478724D01*
X52809452Y-83838912D01*
X52449151Y-84502882D01*
X52225306Y-85224385D01*
X52146520Y-85975695D01*
X50981310Y-85975695D01*
X50981310Y-83299119D01*
X53478724Y-83299119D01*
X56000000Y-85820395D01*
X58521276Y-83299119D01*
X58161088Y-82809452D01*
X57497118Y-82449151D01*
X56775615Y-82225306D01*
X56024305Y-82146520D01*
X55272062Y-82215822D01*
X54547792Y-82430548D01*
X53879330Y-82782445D01*
X53838912Y-82809452D01*
X53478724Y-83299119D01*
X50981310Y-83299119D01*
X50981310Y-81406948D01*
X116713000Y-81379897D01*
X116713000Y-91340306D01*
G36*
X106551359Y-129027080D02*
G01*
X106426175Y-129289901D01*
X106381524Y-129437110D01*
X106502845Y-129667000D01*
X107696000Y-129667000D01*
X107696000Y-129647000D01*
X107950000Y-129647000D01*
X107950000Y-129667000D01*
X107970000Y-129667000D01*
X107970000Y-129921000D01*
X107950000Y-129921000D01*
X107950000Y-131114814D01*
X108179891Y-131235481D01*
X108454252Y-131138157D01*
X108704355Y-130989178D01*
X108920588Y-130794269D01*
X109094641Y-130560920D01*
X109196203Y-130347693D01*
X109093015Y-137158076D01*
X109095079Y-137182887D01*
X109101944Y-137206818D01*
X109113347Y-137228950D01*
X109128847Y-137248432D01*
X109147851Y-137264516D01*
X109169627Y-137276583D01*
X109193339Y-137284170D01*
X109220000Y-137287000D01*
X114173000Y-137287000D01*
X114173000Y-144631293D01*
X114155641Y-144523554D01*
X114014591Y-144144339D01*
X113802270Y-143799928D01*
X113526837Y-143503557D01*
X113198878Y-143266615D01*
X112830995Y-143098207D01*
X112607078Y-143039100D01*
X112287000Y-143152996D01*
X112287000Y-145923000D01*
X112307000Y-145923000D01*
X112307000Y-146177000D01*
X112287000Y-146177000D01*
X112287000Y-146197000D01*
X112033000Y-146197000D01*
X112033000Y-146177000D01*
X110100000Y-146177000D01*
X110100000Y-147177000D01*
X110164359Y-147576446D01*
X110305409Y-147955661D01*
X110517730Y-148300072D01*
X110669147Y-148463000D01*
X87850853Y-148463000D01*
X88002270Y-148300072D01*
X88214591Y-147955661D01*
X88355641Y-147576446D01*
X88420000Y-147177000D01*
X88420000Y-146177000D01*
X86487000Y-146177000D01*
X86487000Y-146197000D01*
X86233000Y-146197000D01*
X86233000Y-146177000D01*
X84300000Y-146177000D01*
X84300000Y-147177000D01*
X84364359Y-147576446D01*
X84505409Y-147955661D01*
X84717730Y-148300072D01*
X84869147Y-148463000D01*
X64897000Y-148463000D01*
X64897000Y-146344102D01*
X64926613Y-146368405D01*
X65080149Y-146450472D01*
X65246745Y-146501008D01*
X65419999Y-146518072D01*
X66660001Y-146518072D01*
X66833255Y-146501008D01*
X66999851Y-146450472D01*
X67153387Y-146368405D01*
X67287962Y-146257962D01*
X67398405Y-146123387D01*
X67456507Y-146014686D01*
X67609506Y-146170536D01*
X67854563Y-146337571D01*
X68127498Y-146453588D01*
X68219969Y-146471302D01*
X68453000Y-146350246D01*
X68453000Y-144907000D01*
X68707000Y-144907000D01*
X68707000Y-146350246D01*
X68940031Y-146471302D01*
X69032502Y-146453588D01*
X69305437Y-146337571D01*
X69550494Y-146170536D01*
X69758256Y-145958903D01*
X69920738Y-145710804D01*
X70031696Y-145435773D01*
X70086866Y-145144380D01*
X69930586Y-144907000D01*
X68707000Y-144907000D01*
X68453000Y-144907000D01*
X68433000Y-144907000D01*
X68433000Y-144653000D01*
X68453000Y-144653000D01*
X68453000Y-143209754D01*
X68707000Y-143209754D01*
X68707000Y-144653000D01*
X69930586Y-144653000D01*
X70086866Y-144415620D01*
X70031696Y-144124227D01*
X69953338Y-143929999D01*
X75961928Y-143929999D01*
X75961928Y-145630001D01*
X75978992Y-145803255D01*
X76029528Y-145969851D01*
X76111595Y-146123387D01*
X76222038Y-146257962D01*
X76356613Y-146368405D01*
X76510149Y-146450472D01*
X76676745Y-146501008D01*
X76849999Y-146518072D01*
X78090001Y-146518072D01*
X78263255Y-146501008D01*
X78429851Y-146450472D01*
X78583387Y-146368405D01*
X78717962Y-146257962D01*
X78828405Y-146123387D01*
X78886507Y-146014686D01*
X79039506Y-146170536D01*
X79284563Y-146337571D01*
X79557498Y-146453588D01*
X79649969Y-146471302D01*
X79883000Y-146350246D01*
X79883000Y-144907000D01*
X80137000Y-144907000D01*
X80137000Y-146350246D01*
X80370031Y-146471302D01*
X80462502Y-146453588D01*
X80735437Y-146337571D01*
X80980494Y-146170536D01*
X81188256Y-145958903D01*
X81350738Y-145710804D01*
X81461696Y-145435773D01*
X81516866Y-145144380D01*
X81371120Y-144923000D01*
X84300000Y-144923000D01*
X84300000Y-145923000D01*
X86233000Y-145923000D01*
X86233000Y-143152996D01*
X86487000Y-143152996D01*
X86487000Y-145923000D01*
X88420000Y-145923000D01*
X88420000Y-144923000D01*
X110100000Y-144923000D01*
X110100000Y-145923000D01*
X112033000Y-145923000D01*
X112033000Y-143152996D01*
X111712922Y-143039100D01*
X111489005Y-143098207D01*
X111121122Y-143266615D01*
X110793163Y-143503557D01*
X110517730Y-143799928D01*
X110305409Y-144144339D01*
X110164359Y-144523554D01*
X110100000Y-144923000D01*
X88420000Y-144923000D01*
X88355641Y-144523554D01*
X88214591Y-144144339D01*
X88002270Y-143799928D01*
X87726837Y-143503557D01*
X87398878Y-143266615D01*
X87030995Y-143098207D01*
X86807078Y-143039100D01*
X86487000Y-143152996D01*
X86233000Y-143152996D01*
X85912922Y-143039100D01*
X85689005Y-143098207D01*
X85321122Y-143266615D01*
X84993163Y-143503557D01*
X84717730Y-143799928D01*
X84505409Y-144144339D01*
X84364359Y-144523554D01*
X84300000Y-144923000D01*
X81371120Y-144923000D01*
X81360586Y-144907000D01*
X80137000Y-144907000D01*
X79883000Y-144907000D01*
X79863000Y-144907000D01*
X79863000Y-144653000D01*
X79883000Y-144653000D01*
X79883000Y-143209754D01*
X80137000Y-143209754D01*
X80137000Y-144653000D01*
X81360586Y-144653000D01*
X81516866Y-144415620D01*
X81461696Y-144124227D01*
X81350738Y-143849196D01*
X81188256Y-143601097D01*
X80980494Y-143389464D01*
X80735437Y-143222429D01*
X80462502Y-143106412D01*
X80370031Y-143088698D01*
X80137000Y-143209754D01*
X79883000Y-143209754D01*
X79649969Y-143088698D01*
X79557498Y-143106412D01*
X79284563Y-143222429D01*
X79039506Y-143389464D01*
X78886507Y-143545314D01*
X78828405Y-143436613D01*
X78717962Y-143302038D01*
X78583387Y-143191595D01*
X78429851Y-143109528D01*
X78263255Y-143058992D01*
X78090001Y-143041928D01*
X76849999Y-143041928D01*
X76676745Y-143058992D01*
X76510149Y-143109528D01*
X76356613Y-143191595D01*
X76222038Y-143302038D01*
X76111595Y-143436613D01*
X76029528Y-143590149D01*
X75978992Y-143756745D01*
X75961928Y-143929999D01*
X69953338Y-143929999D01*
X69920738Y-143849196D01*
X69758256Y-143601097D01*
X69550494Y-143389464D01*
X69305437Y-143222429D01*
X69032502Y-143106412D01*
X68940031Y-143088698D01*
X68707000Y-143209754D01*
X68453000Y-143209754D01*
X68219969Y-143088698D01*
X68127498Y-143106412D01*
X67854563Y-143222429D01*
X67609506Y-143389464D01*
X67456507Y-143545314D01*
X67398405Y-143436613D01*
X67287962Y-143302038D01*
X67153387Y-143191595D01*
X66999851Y-143109528D01*
X66833255Y-143058992D01*
X66660001Y-143041928D01*
X65419999Y-143041928D01*
X65246745Y-143058992D01*
X65080149Y-143109528D01*
X64926613Y-143191595D01*
X64897000Y-143215898D01*
X64897000Y-142367000D01*
X83820000Y-142367000D01*
X83844776Y-142364560D01*
X83868601Y-142357333D01*
X83890557Y-142345597D01*
X83909803Y-142329803D01*
X83925597Y-142310557D01*
X83937333Y-142288601D01*
X83944560Y-142264776D01*
X83947000Y-142240000D01*
X83947000Y-139200000D01*
X95129428Y-139200000D01*
X95129428Y-141200000D01*
X95141688Y-141324482D01*
X95177998Y-141444180D01*
X95236963Y-141554494D01*
X95316315Y-141651185D01*
X95413006Y-141730537D01*
X95523320Y-141789502D01*
X95643018Y-141825812D01*
X95767500Y-141838072D01*
X97672500Y-141838072D01*
X97796982Y-141825812D01*
X97916680Y-141789502D01*
X98026994Y-141730537D01*
X98123685Y-141651185D01*
X98203037Y-141554494D01*
X98252059Y-141462781D01*
X98393077Y-141575969D01*
X98668906Y-141719571D01*
X98887020Y-141790563D01*
X99133000Y-141670594D01*
X99133000Y-140327000D01*
X99113000Y-140327000D01*
X99113000Y-140073000D01*
X99133000Y-140073000D01*
X99133000Y-138729406D01*
X99387000Y-138729406D01*
X99387000Y-140073000D01*
X99407000Y-140073000D01*
X99407000Y-140327000D01*
X99387000Y-140327000D01*
X99387000Y-141670594D01*
X99632980Y-141790563D01*
X99851094Y-141719571D01*
X100126923Y-141575969D01*
X100369437Y-141381315D01*
X100524837Y-141196101D01*
X100672037Y-141375463D01*
X100913766Y-141573845D01*
X101189552Y-141721255D01*
X101488797Y-141812030D01*
X101800000Y-141842681D01*
X102111204Y-141812030D01*
X102410449Y-141721255D01*
X102686235Y-141573845D01*
X102927963Y-141375463D01*
X103126345Y-141133734D01*
X103273755Y-140857948D01*
X103364530Y-140558703D01*
X103387500Y-140325485D01*
X103387500Y-140074514D01*
X103364530Y-139841296D01*
X103273755Y-139542051D01*
X103126345Y-139266265D01*
X102927963Y-139024537D01*
X102686234Y-138826155D01*
X102410448Y-138678745D01*
X102111203Y-138587970D01*
X101800000Y-138557319D01*
X101488796Y-138587970D01*
X101189551Y-138678745D01*
X100913765Y-138826155D01*
X100672037Y-139024537D01*
X100524838Y-139203900D01*
X100369437Y-139018685D01*
X100126923Y-138824031D01*
X99851094Y-138680429D01*
X99632980Y-138609437D01*
X99387000Y-138729406D01*
X99133000Y-138729406D01*
X98887020Y-138609437D01*
X98668906Y-138680429D01*
X98393077Y-138824031D01*
X98252059Y-138937219D01*
X98203037Y-138845506D01*
X98123685Y-138748815D01*
X98026994Y-138669463D01*
X97916680Y-138610498D01*
X97796982Y-138574188D01*
X97672500Y-138561928D01*
X95767500Y-138561928D01*
X95643018Y-138574188D01*
X95523320Y-138610498D01*
X95413006Y-138669463D01*
X95316315Y-138748815D01*
X95236963Y-138845506D01*
X95177998Y-138955820D01*
X95141688Y-139075518D01*
X95129428Y-139200000D01*
X83947000Y-139200000D01*
X83947000Y-130518000D01*
X85937928Y-130518000D01*
X85937928Y-132118000D01*
X85950188Y-132242482D01*
X85986498Y-132362180D01*
X86045463Y-132472494D01*
X86124815Y-132569185D01*
X86221506Y-132648537D01*
X86331820Y-132707502D01*
X86451518Y-132743812D01*
X86576000Y-132756072D01*
X88176000Y-132756072D01*
X88300482Y-132743812D01*
X88420180Y-132707502D01*
X88530494Y-132648537D01*
X88627185Y-132569185D01*
X88706537Y-132472494D01*
X88765502Y-132362180D01*
X88781117Y-132310702D01*
X89062903Y-132310702D01*
X89134486Y-132554671D01*
X89389996Y-132675571D01*
X89664184Y-132744300D01*
X89946512Y-132758217D01*
X90226130Y-132716787D01*
X90492292Y-132621603D01*
X90617514Y-132554671D01*
X90689097Y-132310702D01*
X89876000Y-131497605D01*
X89062903Y-132310702D01*
X88781117Y-132310702D01*
X88801812Y-132242482D01*
X88814072Y-132118000D01*
X88814072Y-132110785D01*
X88883298Y-132131097D01*
X89696395Y-131318000D01*
X90055605Y-131318000D01*
X90868702Y-132131097D01*
X91112671Y-132059514D01*
X91233571Y-131804004D01*
X91302300Y-131529816D01*
X91316217Y-131247488D01*
X91274787Y-130967870D01*
X91179603Y-130701708D01*
X91112671Y-130576486D01*
X90868702Y-130504903D01*
X90055605Y-131318000D01*
X89696395Y-131318000D01*
X88883298Y-130504903D01*
X88814072Y-130525215D01*
X88814072Y-130518000D01*
X88801812Y-130393518D01*
X88781118Y-130325298D01*
X89062903Y-130325298D01*
X89876000Y-131138395D01*
X90689097Y-130325298D01*
X90637924Y-130150890D01*
X106381524Y-130150890D01*
X106426175Y-130298099D01*
X106551359Y-130560920D01*
X106725412Y-130794269D01*
X106941645Y-130989178D01*
X107191748Y-131138157D01*
X107466109Y-131235481D01*
X107696000Y-131114814D01*
X107696000Y-129921000D01*
X106502845Y-129921000D01*
X106381524Y-130150890D01*
X90637924Y-130150890D01*
X90617514Y-130081329D01*
X90362004Y-129960429D01*
X90087816Y-129891700D01*
X89805488Y-129877783D01*
X89525870Y-129919213D01*
X89259708Y-130014397D01*
X89134486Y-130081329D01*
X89062903Y-130325298D01*
X88781118Y-130325298D01*
X88765502Y-130273820D01*
X88706537Y-130163506D01*
X88627185Y-130066815D01*
X88530494Y-129987463D01*
X88420180Y-129928498D01*
X88300482Y-129892188D01*
X88176000Y-129879928D01*
X86576000Y-129879928D01*
X86451518Y-129892188D01*
X86331820Y-129928498D01*
X86221506Y-129987463D01*
X86124815Y-130066815D01*
X86045463Y-130163506D01*
X85986498Y-130273820D01*
X85950188Y-130393518D01*
X85937928Y-130518000D01*
X83947000Y-130518000D01*
X83947000Y-128905000D01*
X106642417Y-128905000D01*
X106551359Y-129027080D01*
X106551359Y-129027080D01*
G37*
X106551359Y-129027080D02*
X106426175Y-129289901D01*
X106381524Y-129437110D01*
X106502845Y-129667000D01*
X107696000Y-129667000D01*
X107696000Y-129647000D01*
X107950000Y-129647000D01*
X107950000Y-129667000D01*
X107970000Y-129667000D01*
X107970000Y-129921000D01*
X107950000Y-129921000D01*
X107950000Y-131114814D01*
X108179891Y-131235481D01*
X108454252Y-131138157D01*
X108704355Y-130989178D01*
X108920588Y-130794269D01*
X109094641Y-130560920D01*
X109196203Y-130347693D01*
X109093015Y-137158076D01*
X109095079Y-137182887D01*
X109101944Y-137206818D01*
X109113347Y-137228950D01*
X109128847Y-137248432D01*
X109147851Y-137264516D01*
X109169627Y-137276583D01*
X109193339Y-137284170D01*
X109220000Y-137287000D01*
X114173000Y-137287000D01*
X114173000Y-144631293D01*
X114155641Y-144523554D01*
X114014591Y-144144339D01*
X113802270Y-143799928D01*
X113526837Y-143503557D01*
X113198878Y-143266615D01*
X112830995Y-143098207D01*
X112607078Y-143039100D01*
X112287000Y-143152996D01*
X112287000Y-145923000D01*
X112307000Y-145923000D01*
X112307000Y-146177000D01*
X112287000Y-146177000D01*
X112287000Y-146197000D01*
X112033000Y-146197000D01*
X112033000Y-146177000D01*
X110100000Y-146177000D01*
X110100000Y-147177000D01*
X110164359Y-147576446D01*
X110305409Y-147955661D01*
X110517730Y-148300072D01*
X110669147Y-148463000D01*
X87850853Y-148463000D01*
X88002270Y-148300072D01*
X88214591Y-147955661D01*
X88355641Y-147576446D01*
X88420000Y-147177000D01*
X88420000Y-146177000D01*
X86487000Y-146177000D01*
X86487000Y-146197000D01*
X86233000Y-146197000D01*
X86233000Y-146177000D01*
X84300000Y-146177000D01*
X84300000Y-147177000D01*
X84364359Y-147576446D01*
X84505409Y-147955661D01*
X84717730Y-148300072D01*
X84869147Y-148463000D01*
X64897000Y-148463000D01*
X64897000Y-146344102D01*
X64926613Y-146368405D01*
X65080149Y-146450472D01*
X65246745Y-146501008D01*
X65419999Y-146518072D01*
X66660001Y-146518072D01*
X66833255Y-146501008D01*
X66999851Y-146450472D01*
X67153387Y-146368405D01*
X67287962Y-146257962D01*
X67398405Y-146123387D01*
X67456507Y-146014686D01*
X67609506Y-146170536D01*
X67854563Y-146337571D01*
X68127498Y-146453588D01*
X68219969Y-146471302D01*
X68453000Y-146350246D01*
X68453000Y-144907000D01*
X68707000Y-144907000D01*
X68707000Y-146350246D01*
X68940031Y-146471302D01*
X69032502Y-146453588D01*
X69305437Y-146337571D01*
X69550494Y-146170536D01*
X69758256Y-145958903D01*
X69920738Y-145710804D01*
X70031696Y-145435773D01*
X70086866Y-145144380D01*
X69930586Y-144907000D01*
X68707000Y-144907000D01*
X68453000Y-144907000D01*
X68433000Y-144907000D01*
X68433000Y-144653000D01*
X68453000Y-144653000D01*
X68453000Y-143209754D01*
X68707000Y-143209754D01*
X68707000Y-144653000D01*
X69930586Y-144653000D01*
X70086866Y-144415620D01*
X70031696Y-144124227D01*
X69953338Y-143929999D01*
X75961928Y-143929999D01*
X75961928Y-145630001D01*
X75978992Y-145803255D01*
X76029528Y-145969851D01*
X76111595Y-146123387D01*
X76222038Y-146257962D01*
X76356613Y-146368405D01*
X76510149Y-146450472D01*
X76676745Y-146501008D01*
X76849999Y-146518072D01*
X78090001Y-146518072D01*
X78263255Y-146501008D01*
X78429851Y-146450472D01*
X78583387Y-146368405D01*
X78717962Y-146257962D01*
X78828405Y-146123387D01*
X78886507Y-146014686D01*
X79039506Y-146170536D01*
X79284563Y-146337571D01*
X79557498Y-146453588D01*
X79649969Y-146471302D01*
X79883000Y-146350246D01*
X79883000Y-144907000D01*
X80137000Y-144907000D01*
X80137000Y-146350246D01*
X80370031Y-146471302D01*
X80462502Y-146453588D01*
X80735437Y-146337571D01*
X80980494Y-146170536D01*
X81188256Y-145958903D01*
X81350738Y-145710804D01*
X81461696Y-145435773D01*
X81516866Y-145144380D01*
X81371120Y-144923000D01*
X84300000Y-144923000D01*
X84300000Y-145923000D01*
X86233000Y-145923000D01*
X86233000Y-143152996D01*
X86487000Y-143152996D01*
X86487000Y-145923000D01*
X88420000Y-145923000D01*
X88420000Y-144923000D01*
X110100000Y-144923000D01*
X110100000Y-145923000D01*
X112033000Y-145923000D01*
X112033000Y-143152996D01*
X111712922Y-143039100D01*
X111489005Y-143098207D01*
X111121122Y-143266615D01*
X110793163Y-143503557D01*
X110517730Y-143799928D01*
X110305409Y-144144339D01*
X110164359Y-144523554D01*
X110100000Y-144923000D01*
X88420000Y-144923000D01*
X88355641Y-144523554D01*
X88214591Y-144144339D01*
X88002270Y-143799928D01*
X87726837Y-143503557D01*
X87398878Y-143266615D01*
X87030995Y-143098207D01*
X86807078Y-143039100D01*
X86487000Y-143152996D01*
X86233000Y-143152996D01*
X85912922Y-143039100D01*
X85689005Y-143098207D01*
X85321122Y-143266615D01*
X84993163Y-143503557D01*
X84717730Y-143799928D01*
X84505409Y-144144339D01*
X84364359Y-144523554D01*
X84300000Y-144923000D01*
X81371120Y-144923000D01*
X81360586Y-144907000D01*
X80137000Y-144907000D01*
X79883000Y-144907000D01*
X79863000Y-144907000D01*
X79863000Y-144653000D01*
X79883000Y-144653000D01*
X79883000Y-143209754D01*
X80137000Y-143209754D01*
X80137000Y-144653000D01*
X81360586Y-144653000D01*
X81516866Y-144415620D01*
X81461696Y-144124227D01*
X81350738Y-143849196D01*
X81188256Y-143601097D01*
X80980494Y-143389464D01*
X80735437Y-143222429D01*
X80462502Y-143106412D01*
X80370031Y-143088698D01*
X80137000Y-143209754D01*
X79883000Y-143209754D01*
X79649969Y-143088698D01*
X79557498Y-143106412D01*
X79284563Y-143222429D01*
X79039506Y-143389464D01*
X78886507Y-143545314D01*
X78828405Y-143436613D01*
X78717962Y-143302038D01*
X78583387Y-143191595D01*
X78429851Y-143109528D01*
X78263255Y-143058992D01*
X78090001Y-143041928D01*
X76849999Y-143041928D01*
X76676745Y-143058992D01*
X76510149Y-143109528D01*
X76356613Y-143191595D01*
X76222038Y-143302038D01*
X76111595Y-143436613D01*
X76029528Y-143590149D01*
X75978992Y-143756745D01*
X75961928Y-143929999D01*
X69953338Y-143929999D01*
X69920738Y-143849196D01*
X69758256Y-143601097D01*
X69550494Y-143389464D01*
X69305437Y-143222429D01*
X69032502Y-143106412D01*
X68940031Y-143088698D01*
X68707000Y-143209754D01*
X68453000Y-143209754D01*
X68219969Y-143088698D01*
X68127498Y-143106412D01*
X67854563Y-143222429D01*
X67609506Y-143389464D01*
X67456507Y-143545314D01*
X67398405Y-143436613D01*
X67287962Y-143302038D01*
X67153387Y-143191595D01*
X66999851Y-143109528D01*
X66833255Y-143058992D01*
X66660001Y-143041928D01*
X65419999Y-143041928D01*
X65246745Y-143058992D01*
X65080149Y-143109528D01*
X64926613Y-143191595D01*
X64897000Y-143215898D01*
X64897000Y-142367000D01*
X83820000Y-142367000D01*
X83844776Y-142364560D01*
X83868601Y-142357333D01*
X83890557Y-142345597D01*
X83909803Y-142329803D01*
X83925597Y-142310557D01*
X83937333Y-142288601D01*
X83944560Y-142264776D01*
X83947000Y-142240000D01*
X83947000Y-139200000D01*
X95129428Y-139200000D01*
X95129428Y-141200000D01*
X95141688Y-141324482D01*
X95177998Y-141444180D01*
X95236963Y-141554494D01*
X95316315Y-141651185D01*
X95413006Y-141730537D01*
X95523320Y-141789502D01*
X95643018Y-141825812D01*
X95767500Y-141838072D01*
X97672500Y-141838072D01*
X97796982Y-141825812D01*
X97916680Y-141789502D01*
X98026994Y-141730537D01*
X98123685Y-141651185D01*
X98203037Y-141554494D01*
X98252059Y-141462781D01*
X98393077Y-141575969D01*
X98668906Y-141719571D01*
X98887020Y-141790563D01*
X99133000Y-141670594D01*
X99133000Y-140327000D01*
X99113000Y-140327000D01*
X99113000Y-140073000D01*
X99133000Y-140073000D01*
X99133000Y-138729406D01*
X99387000Y-138729406D01*
X99387000Y-140073000D01*
X99407000Y-140073000D01*
X99407000Y-140327000D01*
X99387000Y-140327000D01*
X99387000Y-141670594D01*
X99632980Y-141790563D01*
X99851094Y-141719571D01*
X100126923Y-141575969D01*
X100369437Y-141381315D01*
X100524837Y-141196101D01*
X100672037Y-141375463D01*
X100913766Y-141573845D01*
X101189552Y-141721255D01*
X101488797Y-141812030D01*
X101800000Y-141842681D01*
X102111204Y-141812030D01*
X102410449Y-141721255D01*
X102686235Y-141573845D01*
X102927963Y-141375463D01*
X103126345Y-141133734D01*
X103273755Y-140857948D01*
X103364530Y-140558703D01*
X103387500Y-140325485D01*
X103387500Y-140074514D01*
X103364530Y-139841296D01*
X103273755Y-139542051D01*
X103126345Y-139266265D01*
X102927963Y-139024537D01*
X102686234Y-138826155D01*
X102410448Y-138678745D01*
X102111203Y-138587970D01*
X101800000Y-138557319D01*
X101488796Y-138587970D01*
X101189551Y-138678745D01*
X100913765Y-138826155D01*
X100672037Y-139024537D01*
X100524838Y-139203900D01*
X100369437Y-139018685D01*
X100126923Y-138824031D01*
X99851094Y-138680429D01*
X99632980Y-138609437D01*
X99387000Y-138729406D01*
X99133000Y-138729406D01*
X98887020Y-138609437D01*
X98668906Y-138680429D01*
X98393077Y-138824031D01*
X98252059Y-138937219D01*
X98203037Y-138845506D01*
X98123685Y-138748815D01*
X98026994Y-138669463D01*
X97916680Y-138610498D01*
X97796982Y-138574188D01*
X97672500Y-138561928D01*
X95767500Y-138561928D01*
X95643018Y-138574188D01*
X95523320Y-138610498D01*
X95413006Y-138669463D01*
X95316315Y-138748815D01*
X95236963Y-138845506D01*
X95177998Y-138955820D01*
X95141688Y-139075518D01*
X95129428Y-139200000D01*
X83947000Y-139200000D01*
X83947000Y-130518000D01*
X85937928Y-130518000D01*
X85937928Y-132118000D01*
X85950188Y-132242482D01*
X85986498Y-132362180D01*
X86045463Y-132472494D01*
X86124815Y-132569185D01*
X86221506Y-132648537D01*
X86331820Y-132707502D01*
X86451518Y-132743812D01*
X86576000Y-132756072D01*
X88176000Y-132756072D01*
X88300482Y-132743812D01*
X88420180Y-132707502D01*
X88530494Y-132648537D01*
X88627185Y-132569185D01*
X88706537Y-132472494D01*
X88765502Y-132362180D01*
X88781117Y-132310702D01*
X89062903Y-132310702D01*
X89134486Y-132554671D01*
X89389996Y-132675571D01*
X89664184Y-132744300D01*
X89946512Y-132758217D01*
X90226130Y-132716787D01*
X90492292Y-132621603D01*
X90617514Y-132554671D01*
X90689097Y-132310702D01*
X89876000Y-131497605D01*
X89062903Y-132310702D01*
X88781117Y-132310702D01*
X88801812Y-132242482D01*
X88814072Y-132118000D01*
X88814072Y-132110785D01*
X88883298Y-132131097D01*
X89696395Y-131318000D01*
X90055605Y-131318000D01*
X90868702Y-132131097D01*
X91112671Y-132059514D01*
X91233571Y-131804004D01*
X91302300Y-131529816D01*
X91316217Y-131247488D01*
X91274787Y-130967870D01*
X91179603Y-130701708D01*
X91112671Y-130576486D01*
X90868702Y-130504903D01*
X90055605Y-131318000D01*
X89696395Y-131318000D01*
X88883298Y-130504903D01*
X88814072Y-130525215D01*
X88814072Y-130518000D01*
X88801812Y-130393518D01*
X88781118Y-130325298D01*
X89062903Y-130325298D01*
X89876000Y-131138395D01*
X90689097Y-130325298D01*
X90637924Y-130150890D01*
X106381524Y-130150890D01*
X106426175Y-130298099D01*
X106551359Y-130560920D01*
X106725412Y-130794269D01*
X106941645Y-130989178D01*
X107191748Y-131138157D01*
X107466109Y-131235481D01*
X107696000Y-131114814D01*
X107696000Y-129921000D01*
X106502845Y-129921000D01*
X106381524Y-130150890D01*
X90637924Y-130150890D01*
X90617514Y-130081329D01*
X90362004Y-129960429D01*
X90087816Y-129891700D01*
X89805488Y-129877783D01*
X89525870Y-129919213D01*
X89259708Y-130014397D01*
X89134486Y-130081329D01*
X89062903Y-130325298D01*
X88781118Y-130325298D01*
X88765502Y-130273820D01*
X88706537Y-130163506D01*
X88627185Y-130066815D01*
X88530494Y-129987463D01*
X88420180Y-129928498D01*
X88300482Y-129892188D01*
X88176000Y-129879928D01*
X86576000Y-129879928D01*
X86451518Y-129892188D01*
X86331820Y-129928498D01*
X86221506Y-129987463D01*
X86124815Y-130066815D01*
X86045463Y-130163506D01*
X85986498Y-130273820D01*
X85950188Y-130393518D01*
X85937928Y-130518000D01*
X83947000Y-130518000D01*
X83947000Y-128905000D01*
X106642417Y-128905000D01*
X106551359Y-129027080D01*
G36*
X148463000Y-148463000D02*
G01*
X116967000Y-148463000D01*
X116967000Y-145227078D01*
X126529100Y-145227078D01*
X126588207Y-145450995D01*
X126756615Y-145818878D01*
X126993557Y-146146837D01*
X127289928Y-146422270D01*
X127634339Y-146634591D01*
X128013554Y-146775641D01*
X128413000Y-146840000D01*
X129413000Y-146840000D01*
X129413000Y-144907000D01*
X129667000Y-144907000D01*
X129667000Y-146840000D01*
X130667000Y-146840000D01*
X131066446Y-146775641D01*
X131267439Y-146700881D01*
X141478724Y-146700881D01*
X141838912Y-147190548D01*
X142502882Y-147550849D01*
X143224385Y-147774694D01*
X143975695Y-147853480D01*
X144727938Y-147784178D01*
X145452208Y-147569452D01*
X146120670Y-147217555D01*
X146161088Y-147190548D01*
X146521276Y-146700881D01*
X144000000Y-144179605D01*
X141478724Y-146700881D01*
X131267439Y-146700881D01*
X131445661Y-146634591D01*
X131790072Y-146422270D01*
X132086443Y-146146837D01*
X132323385Y-145818878D01*
X132491793Y-145450995D01*
X132550900Y-145227078D01*
X132437004Y-144907000D01*
X129667000Y-144907000D01*
X129413000Y-144907000D01*
X126642996Y-144907000D01*
X126529100Y-145227078D01*
X116967000Y-145227078D01*
X116967000Y-144332922D01*
X126529100Y-144332922D01*
X126642996Y-144653000D01*
X129413000Y-144653000D01*
X129413000Y-142720000D01*
X129667000Y-142720000D01*
X129667000Y-144653000D01*
X132437004Y-144653000D01*
X132550900Y-144332922D01*
X132491793Y-144109005D01*
X132430767Y-143975695D01*
X140146520Y-143975695D01*
X140215822Y-144727938D01*
X140430548Y-145452208D01*
X140782445Y-146120670D01*
X140809452Y-146161088D01*
X141299119Y-146521276D01*
X143820395Y-144000000D01*
X144179605Y-144000000D01*
X146700881Y-146521276D01*
X147190548Y-146161088D01*
X147550849Y-145497118D01*
X147774694Y-144775615D01*
X147853480Y-144024305D01*
X147784178Y-143272062D01*
X147569452Y-142547792D01*
X147217555Y-141879330D01*
X147190548Y-141838912D01*
X146700881Y-141478724D01*
X144179605Y-144000000D01*
X143820395Y-144000000D01*
X141299119Y-141478724D01*
X140809452Y-141838912D01*
X140449151Y-142502882D01*
X140225306Y-143224385D01*
X140146520Y-143975695D01*
X132430767Y-143975695D01*
X132323385Y-143741122D01*
X132086443Y-143413163D01*
X131790072Y-143137730D01*
X131445661Y-142925409D01*
X131066446Y-142784359D01*
X130667000Y-142720000D01*
X129667000Y-142720000D01*
X129413000Y-142720000D01*
X128413000Y-142720000D01*
X128013554Y-142784359D01*
X127634339Y-142925409D01*
X127289928Y-143137730D01*
X126993557Y-143413163D01*
X126756615Y-143741122D01*
X126588207Y-144109005D01*
X126529100Y-144332922D01*
X116967000Y-144332922D01*
X116967000Y-141299119D01*
X141478724Y-141299119D01*
X144000000Y-143820395D01*
X146521276Y-141299119D01*
X146161088Y-140809452D01*
X145497118Y-140449151D01*
X144775615Y-140225306D01*
X144024305Y-140146520D01*
X143272062Y-140215822D01*
X142547792Y-140430548D01*
X141879330Y-140782445D01*
X141838912Y-140809452D01*
X141478724Y-141299119D01*
X116967000Y-141299119D01*
X116967000Y-137898702D01*
X131687903Y-137898702D01*
X131759486Y-138142671D01*
X132014996Y-138263571D01*
X132289184Y-138332300D01*
X132571512Y-138346217D01*
X132851130Y-138304787D01*
X133117292Y-138209603D01*
X133242514Y-138142671D01*
X133314097Y-137898702D01*
X132501000Y-137085605D01*
X131687903Y-137898702D01*
X116967000Y-137898702D01*
X116967000Y-136976512D01*
X131060783Y-136976512D01*
X131102213Y-137256130D01*
X131197397Y-137522292D01*
X131264329Y-137647514D01*
X131508298Y-137719097D01*
X132321395Y-136906000D01*
X132680605Y-136906000D01*
X133493702Y-137719097D01*
X133562928Y-137698785D01*
X133562928Y-137706000D01*
X133575188Y-137830482D01*
X133611498Y-137950180D01*
X133670463Y-138060494D01*
X133749815Y-138157185D01*
X133846506Y-138236537D01*
X133956820Y-138295502D01*
X134076518Y-138331812D01*
X134201000Y-138344072D01*
X135801000Y-138344072D01*
X135925482Y-138331812D01*
X136045180Y-138295502D01*
X136155494Y-138236537D01*
X136252185Y-138157185D01*
X136331537Y-138060494D01*
X136390502Y-137950180D01*
X136426812Y-137830482D01*
X136439072Y-137706000D01*
X136439072Y-136106000D01*
X136426812Y-135981518D01*
X136390502Y-135861820D01*
X136331537Y-135751506D01*
X136252185Y-135654815D01*
X136155494Y-135575463D01*
X136045180Y-135516498D01*
X135925482Y-135480188D01*
X135801000Y-135467928D01*
X134201000Y-135467928D01*
X134076518Y-135480188D01*
X133956820Y-135516498D01*
X133846506Y-135575463D01*
X133749815Y-135654815D01*
X133670463Y-135751506D01*
X133611498Y-135861820D01*
X133575188Y-135981518D01*
X133562928Y-136106000D01*
X133562928Y-136113215D01*
X133493702Y-136092903D01*
X132680605Y-136906000D01*
X132321395Y-136906000D01*
X131508298Y-136092903D01*
X131264329Y-136164486D01*
X131143429Y-136419996D01*
X131074700Y-136694184D01*
X131060783Y-136976512D01*
X116967000Y-136976512D01*
X116967000Y-133467500D01*
X122051928Y-133467500D01*
X122051928Y-135372500D01*
X122064188Y-135496982D01*
X122100498Y-135616680D01*
X122159463Y-135726994D01*
X122238815Y-135823685D01*
X122335506Y-135903037D01*
X122445820Y-135962002D01*
X122565518Y-135998312D01*
X122690000Y-136010572D01*
X124690000Y-136010572D01*
X124814482Y-135998312D01*
X124934180Y-135962002D01*
X125025297Y-135913298D01*
X131687903Y-135913298D01*
X132501000Y-136726395D01*
X133314097Y-135913298D01*
X133242514Y-135669329D01*
X132987004Y-135548429D01*
X132712816Y-135479700D01*
X132430488Y-135465783D01*
X132150870Y-135507213D01*
X131884708Y-135602397D01*
X131759486Y-135669329D01*
X131687903Y-135913298D01*
X125025297Y-135913298D01*
X125044494Y-135903037D01*
X125141185Y-135823685D01*
X125220537Y-135726994D01*
X125279502Y-135616680D01*
X125315812Y-135496982D01*
X125328072Y-135372500D01*
X125328072Y-133467500D01*
X125315812Y-133343018D01*
X125279502Y-133223320D01*
X125220537Y-133113006D01*
X125141185Y-133016315D01*
X125044494Y-132936963D01*
X124952781Y-132887941D01*
X125065969Y-132746923D01*
X125209571Y-132471094D01*
X125280563Y-132252980D01*
X125160594Y-132007000D01*
X123817000Y-132007000D01*
X123817000Y-132027000D01*
X123563000Y-132027000D01*
X123563000Y-132007000D01*
X122219406Y-132007000D01*
X122099437Y-132252980D01*
X122170429Y-132471094D01*
X122314031Y-132746923D01*
X122427219Y-132887941D01*
X122335506Y-132936963D01*
X122238815Y-133016315D01*
X122159463Y-133113006D01*
X122100498Y-133223320D01*
X122064188Y-133343018D01*
X122051928Y-133467500D01*
X116967000Y-133467500D01*
X116967000Y-129340000D01*
X122047319Y-129340000D01*
X122077970Y-129651204D01*
X122168745Y-129950449D01*
X122316155Y-130226235D01*
X122514537Y-130467963D01*
X122693899Y-130615163D01*
X122508685Y-130770563D01*
X122314031Y-131013077D01*
X122170429Y-131288906D01*
X122099437Y-131507020D01*
X122219406Y-131753000D01*
X123563000Y-131753000D01*
X123563000Y-131733000D01*
X123817000Y-131733000D01*
X123817000Y-131753000D01*
X125160594Y-131753000D01*
X125280563Y-131507020D01*
X125209571Y-131288906D01*
X125065969Y-131013077D01*
X124923035Y-130834999D01*
X142571928Y-130834999D01*
X142571928Y-132075001D01*
X142588992Y-132248255D01*
X142639528Y-132414851D01*
X142721595Y-132568387D01*
X142832038Y-132702962D01*
X142966613Y-132813405D01*
X143120149Y-132895472D01*
X143286745Y-132946008D01*
X143459999Y-132963072D01*
X145160001Y-132963072D01*
X145333255Y-132946008D01*
X145499851Y-132895472D01*
X145653387Y-132813405D01*
X145787962Y-132702962D01*
X145898405Y-132568387D01*
X145980472Y-132414851D01*
X146031008Y-132248255D01*
X146048072Y-132075001D01*
X146048072Y-130834999D01*
X146031008Y-130661745D01*
X145980472Y-130495149D01*
X145898405Y-130341613D01*
X145787962Y-130207038D01*
X145653387Y-130096595D01*
X145544686Y-130038493D01*
X145700536Y-129885494D01*
X145867571Y-129640437D01*
X145983588Y-129367502D01*
X146001302Y-129275031D01*
X145880246Y-129042000D01*
X144437000Y-129042000D01*
X144437000Y-129062000D01*
X144183000Y-129062000D01*
X144183000Y-129042000D01*
X142739754Y-129042000D01*
X142618698Y-129275031D01*
X142636412Y-129367502D01*
X142752429Y-129640437D01*
X142919464Y-129885494D01*
X143075314Y-130038493D01*
X142966613Y-130096595D01*
X142832038Y-130207038D01*
X142721595Y-130341613D01*
X142639528Y-130495149D01*
X142588992Y-130661745D01*
X142571928Y-130834999D01*
X124923035Y-130834999D01*
X124871315Y-130770563D01*
X124686101Y-130615163D01*
X124865463Y-130467963D01*
X125063845Y-130226235D01*
X125211255Y-129950449D01*
X125302030Y-129651204D01*
X125332681Y-129340000D01*
X125302030Y-129028796D01*
X125211255Y-128729551D01*
X125063845Y-128453765D01*
X124865463Y-128212037D01*
X124623735Y-128013655D01*
X124347949Y-127866245D01*
X124048704Y-127775470D01*
X123815486Y-127752500D01*
X123564514Y-127752500D01*
X123331296Y-127775470D01*
X123032051Y-127866245D01*
X122756265Y-128013655D01*
X122514537Y-128212037D01*
X122316155Y-128453765D01*
X122168745Y-128729551D01*
X122077970Y-129028796D01*
X122047319Y-129340000D01*
X116967000Y-129340000D01*
X116967000Y-126375000D01*
X142567718Y-126375000D01*
X142596776Y-126670032D01*
X142682834Y-126953725D01*
X142822583Y-127215179D01*
X143010655Y-127444345D01*
X143239821Y-127632417D01*
X143267669Y-127647302D01*
X143131097Y-127736744D01*
X142919464Y-127944506D01*
X142752429Y-128189563D01*
X142636412Y-128462498D01*
X142618698Y-128554969D01*
X142739754Y-128788000D01*
X144183000Y-128788000D01*
X144183000Y-128768000D01*
X144437000Y-128768000D01*
X144437000Y-128788000D01*
X145880246Y-128788000D01*
X146001302Y-128554969D01*
X145983588Y-128462498D01*
X145867571Y-128189563D01*
X145700536Y-127944506D01*
X145488903Y-127736744D01*
X145352331Y-127647302D01*
X145380179Y-127632417D01*
X145609345Y-127444345D01*
X145797417Y-127215179D01*
X145937166Y-126953725D01*
X146023224Y-126670032D01*
X146052282Y-126375000D01*
X146023224Y-126079968D01*
X145937166Y-125796275D01*
X145797417Y-125534821D01*
X145609345Y-125305655D01*
X145380179Y-125117583D01*
X145118725Y-124977834D01*
X144835032Y-124891776D01*
X144613936Y-124870000D01*
X144006064Y-124870000D01*
X143784968Y-124891776D01*
X143501275Y-124977834D01*
X143239821Y-125117583D01*
X143010655Y-125305655D01*
X142822583Y-125534821D01*
X142682834Y-125796275D01*
X142596776Y-126079968D01*
X142567718Y-126375000D01*
X116967000Y-126375000D01*
X116967000Y-119427078D01*
X126529100Y-119427078D01*
X126588207Y-119650995D01*
X126756615Y-120018878D01*
X126993557Y-120346837D01*
X127289928Y-120622270D01*
X127634339Y-120834591D01*
X128013554Y-120975641D01*
X128413000Y-121040000D01*
X129413000Y-121040000D01*
X129413000Y-119107000D01*
X129667000Y-119107000D01*
X129667000Y-121040000D01*
X130667000Y-121040000D01*
X131066446Y-120975641D01*
X131445661Y-120834591D01*
X131790072Y-120622270D01*
X132086443Y-120346837D01*
X132323385Y-120018878D01*
X132491793Y-119650995D01*
X132550900Y-119427078D01*
X132437004Y-119107000D01*
X129667000Y-119107000D01*
X129413000Y-119107000D01*
X126642996Y-119107000D01*
X126529100Y-119427078D01*
X116967000Y-119427078D01*
X116967000Y-118532922D01*
X126529100Y-118532922D01*
X126642996Y-118853000D01*
X129413000Y-118853000D01*
X129413000Y-116920000D01*
X129667000Y-116920000D01*
X129667000Y-118853000D01*
X132437004Y-118853000D01*
X132550900Y-118532922D01*
X132491793Y-118309005D01*
X132323385Y-117941122D01*
X132086443Y-117613163D01*
X131790072Y-117337730D01*
X131445661Y-117125409D01*
X131066446Y-116984359D01*
X130667000Y-116920000D01*
X129667000Y-116920000D01*
X129413000Y-116920000D01*
X128413000Y-116920000D01*
X128013554Y-116984359D01*
X127634339Y-117125409D01*
X127289928Y-117337730D01*
X126993557Y-117613163D01*
X126756615Y-117941122D01*
X126588207Y-118309005D01*
X126529100Y-118532922D01*
X116967000Y-118532922D01*
X116967000Y-116919999D01*
X142571928Y-116919999D01*
X142571928Y-118160001D01*
X142588992Y-118333255D01*
X142639528Y-118499851D01*
X142721595Y-118653387D01*
X142832038Y-118787962D01*
X142966613Y-118898405D01*
X143120149Y-118980472D01*
X143286745Y-119031008D01*
X143459999Y-119048072D01*
X145160001Y-119048072D01*
X145333255Y-119031008D01*
X145499851Y-118980472D01*
X145653387Y-118898405D01*
X145787962Y-118787962D01*
X145898405Y-118653387D01*
X145980472Y-118499851D01*
X146031008Y-118333255D01*
X146048072Y-118160001D01*
X146048072Y-116919999D01*
X146031008Y-116746745D01*
X145980472Y-116580149D01*
X145898405Y-116426613D01*
X145787962Y-116292038D01*
X145653387Y-116181595D01*
X145544686Y-116123493D01*
X145700536Y-115970494D01*
X145867571Y-115725437D01*
X145983588Y-115452502D01*
X146001302Y-115360031D01*
X145880246Y-115127000D01*
X144437000Y-115127000D01*
X144437000Y-115147000D01*
X144183000Y-115147000D01*
X144183000Y-115127000D01*
X142739754Y-115127000D01*
X142618698Y-115360031D01*
X142636412Y-115452502D01*
X142752429Y-115725437D01*
X142919464Y-115970494D01*
X143075314Y-116123493D01*
X142966613Y-116181595D01*
X142832038Y-116292038D01*
X142721595Y-116426613D01*
X142639528Y-116580149D01*
X142588992Y-116746745D01*
X142571928Y-116919999D01*
X116967000Y-116919999D01*
X116967000Y-113477078D01*
X126529100Y-113477078D01*
X126588207Y-113700995D01*
X126756615Y-114068878D01*
X126993557Y-114396837D01*
X127289928Y-114672270D01*
X127634339Y-114884591D01*
X128013554Y-115025641D01*
X128413000Y-115090000D01*
X129413000Y-115090000D01*
X129413000Y-113157000D01*
X129667000Y-113157000D01*
X129667000Y-115090000D01*
X130667000Y-115090000D01*
X131066446Y-115025641D01*
X131445661Y-114884591D01*
X131790072Y-114672270D01*
X132086443Y-114396837D01*
X132323385Y-114068878D01*
X132491793Y-113700995D01*
X132550900Y-113477078D01*
X132437004Y-113157000D01*
X129667000Y-113157000D01*
X129413000Y-113157000D01*
X126642996Y-113157000D01*
X126529100Y-113477078D01*
X116967000Y-113477078D01*
X116967000Y-112582922D01*
X126529100Y-112582922D01*
X126642996Y-112903000D01*
X129413000Y-112903000D01*
X129413000Y-110970000D01*
X129667000Y-110970000D01*
X129667000Y-112903000D01*
X132437004Y-112903000D01*
X132550900Y-112582922D01*
X132518453Y-112460000D01*
X142567718Y-112460000D01*
X142596776Y-112755032D01*
X142682834Y-113038725D01*
X142822583Y-113300179D01*
X143010655Y-113529345D01*
X143239821Y-113717417D01*
X143267669Y-113732302D01*
X143131097Y-113821744D01*
X142919464Y-114029506D01*
X142752429Y-114274563D01*
X142636412Y-114547498D01*
X142618698Y-114639969D01*
X142739754Y-114873000D01*
X144183000Y-114873000D01*
X144183000Y-114853000D01*
X144437000Y-114853000D01*
X144437000Y-114873000D01*
X145880246Y-114873000D01*
X146001302Y-114639969D01*
X145983588Y-114547498D01*
X145867571Y-114274563D01*
X145700536Y-114029506D01*
X145488903Y-113821744D01*
X145352331Y-113732302D01*
X145380179Y-113717417D01*
X145609345Y-113529345D01*
X145797417Y-113300179D01*
X145937166Y-113038725D01*
X146023224Y-112755032D01*
X146052282Y-112460000D01*
X146023224Y-112164968D01*
X145937166Y-111881275D01*
X145797417Y-111619821D01*
X145609345Y-111390655D01*
X145380179Y-111202583D01*
X145118725Y-111062834D01*
X144835032Y-110976776D01*
X144613936Y-110955000D01*
X144006064Y-110955000D01*
X143784968Y-110976776D01*
X143501275Y-111062834D01*
X143239821Y-111202583D01*
X143010655Y-111390655D01*
X142822583Y-111619821D01*
X142682834Y-111881275D01*
X142596776Y-112164968D01*
X142567718Y-112460000D01*
X132518453Y-112460000D01*
X132491793Y-112359005D01*
X132323385Y-111991122D01*
X132086443Y-111663163D01*
X131790072Y-111387730D01*
X131445661Y-111175409D01*
X131066446Y-111034359D01*
X130667000Y-110970000D01*
X129667000Y-110970000D01*
X129413000Y-110970000D01*
X128413000Y-110970000D01*
X128013554Y-111034359D01*
X127634339Y-111175409D01*
X127289928Y-111387730D01*
X126993557Y-111663163D01*
X126756615Y-111991122D01*
X126588207Y-112359005D01*
X126529100Y-112582922D01*
X116967000Y-112582922D01*
X116967000Y-106899000D01*
X131222928Y-106899000D01*
X131235188Y-107023482D01*
X131271498Y-107143180D01*
X131330463Y-107253494D01*
X131409815Y-107350185D01*
X131506506Y-107429537D01*
X131616820Y-107488502D01*
X131736518Y-107524812D01*
X131861000Y-107537072D01*
X132175250Y-107534000D01*
X132334000Y-107375250D01*
X132334000Y-106426000D01*
X132588000Y-106426000D01*
X132588000Y-107375250D01*
X132746750Y-107534000D01*
X133061000Y-107537072D01*
X133185482Y-107524812D01*
X133305180Y-107488502D01*
X133415494Y-107429537D01*
X133512185Y-107350185D01*
X133591537Y-107253494D01*
X133650502Y-107143180D01*
X133686812Y-107023482D01*
X133699072Y-106899000D01*
X133696000Y-106584750D01*
X133537250Y-106426000D01*
X132588000Y-106426000D01*
X132334000Y-106426000D01*
X131384750Y-106426000D01*
X131226000Y-106584750D01*
X131222928Y-106899000D01*
X116967000Y-106899000D01*
X116967000Y-105699000D01*
X131222928Y-105699000D01*
X131226000Y-106013250D01*
X131384750Y-106172000D01*
X132334000Y-106172000D01*
X132334000Y-106152000D01*
X132588000Y-106152000D01*
X132588000Y-106172000D01*
X133537250Y-106172000D01*
X133696000Y-106013250D01*
X133699072Y-105699000D01*
X133686812Y-105574518D01*
X133650502Y-105454820D01*
X133591537Y-105344506D01*
X133578419Y-105328522D01*
X133648540Y-105159236D01*
X133696000Y-104920637D01*
X133696000Y-104677363D01*
X133648540Y-104438764D01*
X133555443Y-104214008D01*
X133420287Y-104011733D01*
X133248267Y-103839713D01*
X133045992Y-103704557D01*
X132821236Y-103611460D01*
X132582637Y-103564000D01*
X132339363Y-103564000D01*
X132100764Y-103611460D01*
X131876008Y-103704557D01*
X131673733Y-103839713D01*
X131501713Y-104011733D01*
X131366557Y-104214008D01*
X131273460Y-104438764D01*
X131226000Y-104677363D01*
X131226000Y-104920637D01*
X131273460Y-105159236D01*
X131343581Y-105328522D01*
X131330463Y-105344506D01*
X131271498Y-105454820D01*
X131235188Y-105574518D01*
X131222928Y-105699000D01*
X116967000Y-105699000D01*
X116967000Y-103622500D01*
X122051928Y-103622500D01*
X122064188Y-103746982D01*
X122100498Y-103866680D01*
X122159463Y-103976994D01*
X122238815Y-104073685D01*
X122335506Y-104153037D01*
X122445820Y-104212002D01*
X122565518Y-104248312D01*
X122690000Y-104260572D01*
X123404250Y-104257500D01*
X123563000Y-104098750D01*
X123563000Y-102797000D01*
X123817000Y-102797000D01*
X123817000Y-104098750D01*
X123975750Y-104257500D01*
X124690000Y-104260572D01*
X124814482Y-104248312D01*
X124934180Y-104212002D01*
X125044494Y-104153037D01*
X125141185Y-104073685D01*
X125220537Y-103976994D01*
X125279502Y-103866680D01*
X125315812Y-103746982D01*
X125328072Y-103622500D01*
X125325227Y-103004999D01*
X142571928Y-103004999D01*
X142571928Y-104245001D01*
X142588992Y-104418255D01*
X142639528Y-104584851D01*
X142721595Y-104738387D01*
X142832038Y-104872962D01*
X142966613Y-104983405D01*
X143120149Y-105065472D01*
X143286745Y-105116008D01*
X143459999Y-105133072D01*
X145160001Y-105133072D01*
X145333255Y-105116008D01*
X145499851Y-105065472D01*
X145653387Y-104983405D01*
X145787962Y-104872962D01*
X145898405Y-104738387D01*
X145980472Y-104584851D01*
X146031008Y-104418255D01*
X146048072Y-104245001D01*
X146048072Y-103004999D01*
X146031008Y-102831745D01*
X145980472Y-102665149D01*
X145898405Y-102511613D01*
X145787962Y-102377038D01*
X145653387Y-102266595D01*
X145544686Y-102208493D01*
X145700536Y-102055494D01*
X145867571Y-101810437D01*
X145983588Y-101537502D01*
X146001302Y-101445031D01*
X145880246Y-101212000D01*
X144437000Y-101212000D01*
X144437000Y-101232000D01*
X144183000Y-101232000D01*
X144183000Y-101212000D01*
X142739754Y-101212000D01*
X142618698Y-101445031D01*
X142636412Y-101537502D01*
X142752429Y-101810437D01*
X142919464Y-102055494D01*
X143075314Y-102208493D01*
X142966613Y-102266595D01*
X142832038Y-102377038D01*
X142721595Y-102511613D01*
X142639528Y-102665149D01*
X142588992Y-102831745D01*
X142571928Y-103004999D01*
X125325227Y-103004999D01*
X125325000Y-102955750D01*
X125166250Y-102797000D01*
X123817000Y-102797000D01*
X123563000Y-102797000D01*
X122213750Y-102797000D01*
X122055000Y-102955750D01*
X122051928Y-103622500D01*
X116967000Y-103622500D01*
X116967000Y-97590000D01*
X122047319Y-97590000D01*
X122077970Y-97901204D01*
X122168745Y-98200449D01*
X122316155Y-98476235D01*
X122514537Y-98717963D01*
X122687609Y-98860000D01*
X122514537Y-99002037D01*
X122316155Y-99243765D01*
X122168745Y-99519551D01*
X122077970Y-99818796D01*
X122047319Y-100130000D01*
X122077970Y-100441204D01*
X122168745Y-100740449D01*
X122316155Y-101016235D01*
X122419446Y-101142095D01*
X122335506Y-101186963D01*
X122238815Y-101266315D01*
X122159463Y-101363006D01*
X122100498Y-101473320D01*
X122064188Y-101593018D01*
X122051928Y-101717500D01*
X122055000Y-102384250D01*
X122213750Y-102543000D01*
X123563000Y-102543000D01*
X123563000Y-102523000D01*
X123817000Y-102523000D01*
X123817000Y-102543000D01*
X125166250Y-102543000D01*
X125325000Y-102384250D01*
X125328072Y-101717500D01*
X125315812Y-101593018D01*
X125279502Y-101473320D01*
X125220537Y-101363006D01*
X125141185Y-101266315D01*
X125044494Y-101186963D01*
X124960554Y-101142095D01*
X125063845Y-101016235D01*
X125211255Y-100740449D01*
X125302030Y-100441204D01*
X125332681Y-100130000D01*
X125302030Y-99818796D01*
X125211255Y-99519551D01*
X125063845Y-99243765D01*
X124865463Y-99002037D01*
X124692391Y-98860000D01*
X124865463Y-98717963D01*
X125007410Y-98545000D01*
X142567718Y-98545000D01*
X142596776Y-98840032D01*
X142682834Y-99123725D01*
X142822583Y-99385179D01*
X143010655Y-99614345D01*
X143239821Y-99802417D01*
X143267669Y-99817302D01*
X143131097Y-99906744D01*
X142919464Y-100114506D01*
X142752429Y-100359563D01*
X142636412Y-100632498D01*
X142618698Y-100724969D01*
X142739754Y-100958000D01*
X144183000Y-100958000D01*
X144183000Y-100938000D01*
X144437000Y-100938000D01*
X144437000Y-100958000D01*
X145880246Y-100958000D01*
X146001302Y-100724969D01*
X145983588Y-100632498D01*
X145867571Y-100359563D01*
X145700536Y-100114506D01*
X145488903Y-99906744D01*
X145352331Y-99817302D01*
X145380179Y-99802417D01*
X145609345Y-99614345D01*
X145797417Y-99385179D01*
X145937166Y-99123725D01*
X146023224Y-98840032D01*
X146052282Y-98545000D01*
X146023224Y-98249968D01*
X145937166Y-97966275D01*
X145797417Y-97704821D01*
X145609345Y-97475655D01*
X145380179Y-97287583D01*
X145118725Y-97147834D01*
X144835032Y-97061776D01*
X144613936Y-97040000D01*
X144006064Y-97040000D01*
X143784968Y-97061776D01*
X143501275Y-97147834D01*
X143239821Y-97287583D01*
X143010655Y-97475655D01*
X142822583Y-97704821D01*
X142682834Y-97966275D01*
X142596776Y-98249968D01*
X142567718Y-98545000D01*
X125007410Y-98545000D01*
X125063845Y-98476235D01*
X125211255Y-98200449D01*
X125302030Y-97901204D01*
X125332681Y-97590000D01*
X125302030Y-97278796D01*
X125211255Y-96979551D01*
X125063845Y-96703765D01*
X124865463Y-96462037D01*
X124827645Y-96431000D01*
X132673928Y-96431000D01*
X132686188Y-96555482D01*
X132722498Y-96675180D01*
X132781463Y-96785494D01*
X132860815Y-96882185D01*
X132957506Y-96961537D01*
X133067820Y-97020502D01*
X133187518Y-97056812D01*
X133312000Y-97069072D01*
X133826250Y-97066000D01*
X133985000Y-96907250D01*
X133985000Y-95758000D01*
X134239000Y-95758000D01*
X134239000Y-96907250D01*
X134397750Y-97066000D01*
X134912000Y-97069072D01*
X135036482Y-97056812D01*
X135156180Y-97020502D01*
X135266494Y-96961537D01*
X135363185Y-96882185D01*
X135442537Y-96785494D01*
X135501502Y-96675180D01*
X135537812Y-96555482D01*
X135550072Y-96431000D01*
X135547000Y-95916750D01*
X135388250Y-95758000D01*
X134239000Y-95758000D01*
X133985000Y-95758000D01*
X132835750Y-95758000D01*
X132677000Y-95916750D01*
X132673928Y-96431000D01*
X124827645Y-96431000D01*
X124623735Y-96263655D01*
X124347949Y-96116245D01*
X124048704Y-96025470D01*
X123815486Y-96002500D01*
X123564514Y-96002500D01*
X123331296Y-96025470D01*
X123032051Y-96116245D01*
X122756265Y-96263655D01*
X122514537Y-96462037D01*
X122316155Y-96703765D01*
X122168745Y-96979551D01*
X122077970Y-97278796D01*
X122047319Y-97590000D01*
X116967000Y-97590000D01*
X116967000Y-94831000D01*
X132673928Y-94831000D01*
X132677000Y-95345250D01*
X132835750Y-95504000D01*
X133985000Y-95504000D01*
X133985000Y-95484000D01*
X134239000Y-95484000D01*
X134239000Y-95504000D01*
X135388250Y-95504000D01*
X135547000Y-95345250D01*
X135550072Y-94831000D01*
X135537812Y-94706518D01*
X135501502Y-94586820D01*
X135442537Y-94476506D01*
X135363185Y-94379815D01*
X135266494Y-94300463D01*
X135156180Y-94241498D01*
X135060057Y-94212339D01*
X135226637Y-94045759D01*
X135383680Y-93810727D01*
X135491853Y-93549574D01*
X135547000Y-93272335D01*
X135547000Y-92989665D01*
X135491853Y-92712426D01*
X135383680Y-92451273D01*
X135226637Y-92216241D01*
X135026759Y-92016363D01*
X134791727Y-91859320D01*
X134530574Y-91751147D01*
X134253335Y-91696000D01*
X133970665Y-91696000D01*
X133693426Y-91751147D01*
X133432273Y-91859320D01*
X133197241Y-92016363D01*
X132997363Y-92216241D01*
X132840320Y-92451273D01*
X132732147Y-92712426D01*
X132677000Y-92989665D01*
X132677000Y-93272335D01*
X132732147Y-93549574D01*
X132840320Y-93810727D01*
X132997363Y-94045759D01*
X133163943Y-94212339D01*
X133067820Y-94241498D01*
X132957506Y-94300463D01*
X132860815Y-94379815D01*
X132781463Y-94476506D01*
X132722498Y-94586820D01*
X132686188Y-94706518D01*
X132673928Y-94831000D01*
X116967000Y-94831000D01*
X116967000Y-87677078D01*
X126529100Y-87677078D01*
X126588207Y-87900995D01*
X126756615Y-88268878D01*
X126993557Y-88596837D01*
X127289928Y-88872270D01*
X127634339Y-89084591D01*
X128013554Y-89225641D01*
X128413000Y-89290000D01*
X129413000Y-89290000D01*
X129413000Y-87357000D01*
X129667000Y-87357000D01*
X129667000Y-89290000D01*
X130667000Y-89290000D01*
X131066446Y-89225641D01*
X131445661Y-89084591D01*
X131790072Y-88872270D01*
X131974489Y-88700881D01*
X141478724Y-88700881D01*
X141838912Y-89190548D01*
X142502882Y-89550849D01*
X143224385Y-89774694D01*
X143975695Y-89853480D01*
X144727938Y-89784178D01*
X145452208Y-89569452D01*
X146120670Y-89217555D01*
X146161088Y-89190548D01*
X146521276Y-88700881D01*
X144000000Y-86179605D01*
X141478724Y-88700881D01*
X131974489Y-88700881D01*
X132086443Y-88596837D01*
X132323385Y-88268878D01*
X132491793Y-87900995D01*
X132550900Y-87677078D01*
X132437004Y-87357000D01*
X129667000Y-87357000D01*
X129413000Y-87357000D01*
X126642996Y-87357000D01*
X126529100Y-87677078D01*
X116967000Y-87677078D01*
X116967000Y-86782922D01*
X126529100Y-86782922D01*
X126642996Y-87103000D01*
X129413000Y-87103000D01*
X129413000Y-85170000D01*
X129667000Y-85170000D01*
X129667000Y-87103000D01*
X132437004Y-87103000D01*
X132550900Y-86782922D01*
X132491793Y-86559005D01*
X132323385Y-86191122D01*
X132167745Y-85975695D01*
X140146520Y-85975695D01*
X140215822Y-86727938D01*
X140430548Y-87452208D01*
X140782445Y-88120670D01*
X140809452Y-88161088D01*
X141299119Y-88521276D01*
X143820395Y-86000000D01*
X144179605Y-86000000D01*
X146700881Y-88521276D01*
X147190548Y-88161088D01*
X147550849Y-87497118D01*
X147774694Y-86775615D01*
X147853480Y-86024305D01*
X147784178Y-85272062D01*
X147569452Y-84547792D01*
X147217555Y-83879330D01*
X147190548Y-83838912D01*
X146700881Y-83478724D01*
X144179605Y-86000000D01*
X143820395Y-86000000D01*
X141299119Y-83478724D01*
X140809452Y-83838912D01*
X140449151Y-84502882D01*
X140225306Y-85224385D01*
X140146520Y-85975695D01*
X132167745Y-85975695D01*
X132086443Y-85863163D01*
X131790072Y-85587730D01*
X131445661Y-85375409D01*
X131066446Y-85234359D01*
X130667000Y-85170000D01*
X129667000Y-85170000D01*
X129413000Y-85170000D01*
X128413000Y-85170000D01*
X128013554Y-85234359D01*
X127634339Y-85375409D01*
X127289928Y-85587730D01*
X126993557Y-85863163D01*
X126756615Y-86191122D01*
X126588207Y-86559005D01*
X126529100Y-86782922D01*
X116967000Y-86782922D01*
X116967000Y-83299119D01*
X141478724Y-83299119D01*
X144000000Y-85820395D01*
X146521276Y-83299119D01*
X146161088Y-82809452D01*
X145497118Y-82449151D01*
X144775615Y-82225306D01*
X144024305Y-82146520D01*
X143272062Y-82215822D01*
X142547792Y-82430548D01*
X141879330Y-82782445D01*
X141838912Y-82809452D01*
X141478724Y-83299119D01*
X116967000Y-83299119D01*
X116967000Y-81407000D01*
X148463000Y-81407000D01*
X148463000Y-148463000D01*
X148463000Y-148463000D01*
G37*
X148463000Y-148463000D02*
X116967000Y-148463000D01*
X116967000Y-145227078D01*
X126529100Y-145227078D01*
X126588207Y-145450995D01*
X126756615Y-145818878D01*
X126993557Y-146146837D01*
X127289928Y-146422270D01*
X127634339Y-146634591D01*
X128013554Y-146775641D01*
X128413000Y-146840000D01*
X129413000Y-146840000D01*
X129413000Y-144907000D01*
X129667000Y-144907000D01*
X129667000Y-146840000D01*
X130667000Y-146840000D01*
X131066446Y-146775641D01*
X131267439Y-146700881D01*
X141478724Y-146700881D01*
X141838912Y-147190548D01*
X142502882Y-147550849D01*
X143224385Y-147774694D01*
X143975695Y-147853480D01*
X144727938Y-147784178D01*
X145452208Y-147569452D01*
X146120670Y-147217555D01*
X146161088Y-147190548D01*
X146521276Y-146700881D01*
X144000000Y-144179605D01*
X141478724Y-146700881D01*
X131267439Y-146700881D01*
X131445661Y-146634591D01*
X131790072Y-146422270D01*
X132086443Y-146146837D01*
X132323385Y-145818878D01*
X132491793Y-145450995D01*
X132550900Y-145227078D01*
X132437004Y-144907000D01*
X129667000Y-144907000D01*
X129413000Y-144907000D01*
X126642996Y-144907000D01*
X126529100Y-145227078D01*
X116967000Y-145227078D01*
X116967000Y-144332922D01*
X126529100Y-144332922D01*
X126642996Y-144653000D01*
X129413000Y-144653000D01*
X129413000Y-142720000D01*
X129667000Y-142720000D01*
X129667000Y-144653000D01*
X132437004Y-144653000D01*
X132550900Y-144332922D01*
X132491793Y-144109005D01*
X132430767Y-143975695D01*
X140146520Y-143975695D01*
X140215822Y-144727938D01*
X140430548Y-145452208D01*
X140782445Y-146120670D01*
X140809452Y-146161088D01*
X141299119Y-146521276D01*
X143820395Y-144000000D01*
X144179605Y-144000000D01*
X146700881Y-146521276D01*
X147190548Y-146161088D01*
X147550849Y-145497118D01*
X147774694Y-144775615D01*
X147853480Y-144024305D01*
X147784178Y-143272062D01*
X147569452Y-142547792D01*
X147217555Y-141879330D01*
X147190548Y-141838912D01*
X146700881Y-141478724D01*
X144179605Y-144000000D01*
X143820395Y-144000000D01*
X141299119Y-141478724D01*
X140809452Y-141838912D01*
X140449151Y-142502882D01*
X140225306Y-143224385D01*
X140146520Y-143975695D01*
X132430767Y-143975695D01*
X132323385Y-143741122D01*
X132086443Y-143413163D01*
X131790072Y-143137730D01*
X131445661Y-142925409D01*
X131066446Y-142784359D01*
X130667000Y-142720000D01*
X129667000Y-142720000D01*
X129413000Y-142720000D01*
X128413000Y-142720000D01*
X128013554Y-142784359D01*
X127634339Y-142925409D01*
X127289928Y-143137730D01*
X126993557Y-143413163D01*
X126756615Y-143741122D01*
X126588207Y-144109005D01*
X126529100Y-144332922D01*
X116967000Y-144332922D01*
X116967000Y-141299119D01*
X141478724Y-141299119D01*
X144000000Y-143820395D01*
X146521276Y-141299119D01*
X146161088Y-140809452D01*
X145497118Y-140449151D01*
X144775615Y-140225306D01*
X144024305Y-140146520D01*
X143272062Y-140215822D01*
X142547792Y-140430548D01*
X141879330Y-140782445D01*
X141838912Y-140809452D01*
X141478724Y-141299119D01*
X116967000Y-141299119D01*
X116967000Y-137898702D01*
X131687903Y-137898702D01*
X131759486Y-138142671D01*
X132014996Y-138263571D01*
X132289184Y-138332300D01*
X132571512Y-138346217D01*
X132851130Y-138304787D01*
X133117292Y-138209603D01*
X133242514Y-138142671D01*
X133314097Y-137898702D01*
X132501000Y-137085605D01*
X131687903Y-137898702D01*
X116967000Y-137898702D01*
X116967000Y-136976512D01*
X131060783Y-136976512D01*
X131102213Y-137256130D01*
X131197397Y-137522292D01*
X131264329Y-137647514D01*
X131508298Y-137719097D01*
X132321395Y-136906000D01*
X132680605Y-136906000D01*
X133493702Y-137719097D01*
X133562928Y-137698785D01*
X133562928Y-137706000D01*
X133575188Y-137830482D01*
X133611498Y-137950180D01*
X133670463Y-138060494D01*
X133749815Y-138157185D01*
X133846506Y-138236537D01*
X133956820Y-138295502D01*
X134076518Y-138331812D01*
X134201000Y-138344072D01*
X135801000Y-138344072D01*
X135925482Y-138331812D01*
X136045180Y-138295502D01*
X136155494Y-138236537D01*
X136252185Y-138157185D01*
X136331537Y-138060494D01*
X136390502Y-137950180D01*
X136426812Y-137830482D01*
X136439072Y-137706000D01*
X136439072Y-136106000D01*
X136426812Y-135981518D01*
X136390502Y-135861820D01*
X136331537Y-135751506D01*
X136252185Y-135654815D01*
X136155494Y-135575463D01*
X136045180Y-135516498D01*
X135925482Y-135480188D01*
X135801000Y-135467928D01*
X134201000Y-135467928D01*
X134076518Y-135480188D01*
X133956820Y-135516498D01*
X133846506Y-135575463D01*
X133749815Y-135654815D01*
X133670463Y-135751506D01*
X133611498Y-135861820D01*
X133575188Y-135981518D01*
X133562928Y-136106000D01*
X133562928Y-136113215D01*
X133493702Y-136092903D01*
X132680605Y-136906000D01*
X132321395Y-136906000D01*
X131508298Y-136092903D01*
X131264329Y-136164486D01*
X131143429Y-136419996D01*
X131074700Y-136694184D01*
X131060783Y-136976512D01*
X116967000Y-136976512D01*
X116967000Y-133467500D01*
X122051928Y-133467500D01*
X122051928Y-135372500D01*
X122064188Y-135496982D01*
X122100498Y-135616680D01*
X122159463Y-135726994D01*
X122238815Y-135823685D01*
X122335506Y-135903037D01*
X122445820Y-135962002D01*
X122565518Y-135998312D01*
X122690000Y-136010572D01*
X124690000Y-136010572D01*
X124814482Y-135998312D01*
X124934180Y-135962002D01*
X125025297Y-135913298D01*
X131687903Y-135913298D01*
X132501000Y-136726395D01*
X133314097Y-135913298D01*
X133242514Y-135669329D01*
X132987004Y-135548429D01*
X132712816Y-135479700D01*
X132430488Y-135465783D01*
X132150870Y-135507213D01*
X131884708Y-135602397D01*
X131759486Y-135669329D01*
X131687903Y-135913298D01*
X125025297Y-135913298D01*
X125044494Y-135903037D01*
X125141185Y-135823685D01*
X125220537Y-135726994D01*
X125279502Y-135616680D01*
X125315812Y-135496982D01*
X125328072Y-135372500D01*
X125328072Y-133467500D01*
X125315812Y-133343018D01*
X125279502Y-133223320D01*
X125220537Y-133113006D01*
X125141185Y-133016315D01*
X125044494Y-132936963D01*
X124952781Y-132887941D01*
X125065969Y-132746923D01*
X125209571Y-132471094D01*
X125280563Y-132252980D01*
X125160594Y-132007000D01*
X123817000Y-132007000D01*
X123817000Y-132027000D01*
X123563000Y-132027000D01*
X123563000Y-132007000D01*
X122219406Y-132007000D01*
X122099437Y-132252980D01*
X122170429Y-132471094D01*
X122314031Y-132746923D01*
X122427219Y-132887941D01*
X122335506Y-132936963D01*
X122238815Y-133016315D01*
X122159463Y-133113006D01*
X122100498Y-133223320D01*
X122064188Y-133343018D01*
X122051928Y-133467500D01*
X116967000Y-133467500D01*
X116967000Y-129340000D01*
X122047319Y-129340000D01*
X122077970Y-129651204D01*
X122168745Y-129950449D01*
X122316155Y-130226235D01*
X122514537Y-130467963D01*
X122693899Y-130615163D01*
X122508685Y-130770563D01*
X122314031Y-131013077D01*
X122170429Y-131288906D01*
X122099437Y-131507020D01*
X122219406Y-131753000D01*
X123563000Y-131753000D01*
X123563000Y-131733000D01*
X123817000Y-131733000D01*
X123817000Y-131753000D01*
X125160594Y-131753000D01*
X125280563Y-131507020D01*
X125209571Y-131288906D01*
X125065969Y-131013077D01*
X124923035Y-130834999D01*
X142571928Y-130834999D01*
X142571928Y-132075001D01*
X142588992Y-132248255D01*
X142639528Y-132414851D01*
X142721595Y-132568387D01*
X142832038Y-132702962D01*
X142966613Y-132813405D01*
X143120149Y-132895472D01*
X143286745Y-132946008D01*
X143459999Y-132963072D01*
X145160001Y-132963072D01*
X145333255Y-132946008D01*
X145499851Y-132895472D01*
X145653387Y-132813405D01*
X145787962Y-132702962D01*
X145898405Y-132568387D01*
X145980472Y-132414851D01*
X146031008Y-132248255D01*
X146048072Y-132075001D01*
X146048072Y-130834999D01*
X146031008Y-130661745D01*
X145980472Y-130495149D01*
X145898405Y-130341613D01*
X145787962Y-130207038D01*
X145653387Y-130096595D01*
X145544686Y-130038493D01*
X145700536Y-129885494D01*
X145867571Y-129640437D01*
X145983588Y-129367502D01*
X146001302Y-129275031D01*
X145880246Y-129042000D01*
X144437000Y-129042000D01*
X144437000Y-129062000D01*
X144183000Y-129062000D01*
X144183000Y-129042000D01*
X142739754Y-129042000D01*
X142618698Y-129275031D01*
X142636412Y-129367502D01*
X142752429Y-129640437D01*
X142919464Y-129885494D01*
X143075314Y-130038493D01*
X142966613Y-130096595D01*
X142832038Y-130207038D01*
X142721595Y-130341613D01*
X142639528Y-130495149D01*
X142588992Y-130661745D01*
X142571928Y-130834999D01*
X124923035Y-130834999D01*
X124871315Y-130770563D01*
X124686101Y-130615163D01*
X124865463Y-130467963D01*
X125063845Y-130226235D01*
X125211255Y-129950449D01*
X125302030Y-129651204D01*
X125332681Y-129340000D01*
X125302030Y-129028796D01*
X125211255Y-128729551D01*
X125063845Y-128453765D01*
X124865463Y-128212037D01*
X124623735Y-128013655D01*
X124347949Y-127866245D01*
X124048704Y-127775470D01*
X123815486Y-127752500D01*
X123564514Y-127752500D01*
X123331296Y-127775470D01*
X123032051Y-127866245D01*
X122756265Y-128013655D01*
X122514537Y-128212037D01*
X122316155Y-128453765D01*
X122168745Y-128729551D01*
X122077970Y-129028796D01*
X122047319Y-129340000D01*
X116967000Y-129340000D01*
X116967000Y-126375000D01*
X142567718Y-126375000D01*
X142596776Y-126670032D01*
X142682834Y-126953725D01*
X142822583Y-127215179D01*
X143010655Y-127444345D01*
X143239821Y-127632417D01*
X143267669Y-127647302D01*
X143131097Y-127736744D01*
X142919464Y-127944506D01*
X142752429Y-128189563D01*
X142636412Y-128462498D01*
X142618698Y-128554969D01*
X142739754Y-128788000D01*
X144183000Y-128788000D01*
X144183000Y-128768000D01*
X144437000Y-128768000D01*
X144437000Y-128788000D01*
X145880246Y-128788000D01*
X146001302Y-128554969D01*
X145983588Y-128462498D01*
X145867571Y-128189563D01*
X145700536Y-127944506D01*
X145488903Y-127736744D01*
X145352331Y-127647302D01*
X145380179Y-127632417D01*
X145609345Y-127444345D01*
X145797417Y-127215179D01*
X145937166Y-126953725D01*
X146023224Y-126670032D01*
X146052282Y-126375000D01*
X146023224Y-126079968D01*
X145937166Y-125796275D01*
X145797417Y-125534821D01*
X145609345Y-125305655D01*
X145380179Y-125117583D01*
X145118725Y-124977834D01*
X144835032Y-124891776D01*
X144613936Y-124870000D01*
X144006064Y-124870000D01*
X143784968Y-124891776D01*
X143501275Y-124977834D01*
X143239821Y-125117583D01*
X143010655Y-125305655D01*
X142822583Y-125534821D01*
X142682834Y-125796275D01*
X142596776Y-126079968D01*
X142567718Y-126375000D01*
X116967000Y-126375000D01*
X116967000Y-119427078D01*
X126529100Y-119427078D01*
X126588207Y-119650995D01*
X126756615Y-120018878D01*
X126993557Y-120346837D01*
X127289928Y-120622270D01*
X127634339Y-120834591D01*
X128013554Y-120975641D01*
X128413000Y-121040000D01*
X129413000Y-121040000D01*
X129413000Y-119107000D01*
X129667000Y-119107000D01*
X129667000Y-121040000D01*
X130667000Y-121040000D01*
X131066446Y-120975641D01*
X131445661Y-120834591D01*
X131790072Y-120622270D01*
X132086443Y-120346837D01*
X132323385Y-120018878D01*
X132491793Y-119650995D01*
X132550900Y-119427078D01*
X132437004Y-119107000D01*
X129667000Y-119107000D01*
X129413000Y-119107000D01*
X126642996Y-119107000D01*
X126529100Y-119427078D01*
X116967000Y-119427078D01*
X116967000Y-118532922D01*
X126529100Y-118532922D01*
X126642996Y-118853000D01*
X129413000Y-118853000D01*
X129413000Y-116920000D01*
X129667000Y-116920000D01*
X129667000Y-118853000D01*
X132437004Y-118853000D01*
X132550900Y-118532922D01*
X132491793Y-118309005D01*
X132323385Y-117941122D01*
X132086443Y-117613163D01*
X131790072Y-117337730D01*
X131445661Y-117125409D01*
X131066446Y-116984359D01*
X130667000Y-116920000D01*
X129667000Y-116920000D01*
X129413000Y-116920000D01*
X128413000Y-116920000D01*
X128013554Y-116984359D01*
X127634339Y-117125409D01*
X127289928Y-117337730D01*
X126993557Y-117613163D01*
X126756615Y-117941122D01*
X126588207Y-118309005D01*
X126529100Y-118532922D01*
X116967000Y-118532922D01*
X116967000Y-116919999D01*
X142571928Y-116919999D01*
X142571928Y-118160001D01*
X142588992Y-118333255D01*
X142639528Y-118499851D01*
X142721595Y-118653387D01*
X142832038Y-118787962D01*
X142966613Y-118898405D01*
X143120149Y-118980472D01*
X143286745Y-119031008D01*
X143459999Y-119048072D01*
X145160001Y-119048072D01*
X145333255Y-119031008D01*
X145499851Y-118980472D01*
X145653387Y-118898405D01*
X145787962Y-118787962D01*
X145898405Y-118653387D01*
X145980472Y-118499851D01*
X146031008Y-118333255D01*
X146048072Y-118160001D01*
X146048072Y-116919999D01*
X146031008Y-116746745D01*
X145980472Y-116580149D01*
X145898405Y-116426613D01*
X145787962Y-116292038D01*
X145653387Y-116181595D01*
X145544686Y-116123493D01*
X145700536Y-115970494D01*
X145867571Y-115725437D01*
X145983588Y-115452502D01*
X146001302Y-115360031D01*
X145880246Y-115127000D01*
X144437000Y-115127000D01*
X144437000Y-115147000D01*
X144183000Y-115147000D01*
X144183000Y-115127000D01*
X142739754Y-115127000D01*
X142618698Y-115360031D01*
X142636412Y-115452502D01*
X142752429Y-115725437D01*
X142919464Y-115970494D01*
X143075314Y-116123493D01*
X142966613Y-116181595D01*
X142832038Y-116292038D01*
X142721595Y-116426613D01*
X142639528Y-116580149D01*
X142588992Y-116746745D01*
X142571928Y-116919999D01*
X116967000Y-116919999D01*
X116967000Y-113477078D01*
X126529100Y-113477078D01*
X126588207Y-113700995D01*
X126756615Y-114068878D01*
X126993557Y-114396837D01*
X127289928Y-114672270D01*
X127634339Y-114884591D01*
X128013554Y-115025641D01*
X128413000Y-115090000D01*
X129413000Y-115090000D01*
X129413000Y-113157000D01*
X129667000Y-113157000D01*
X129667000Y-115090000D01*
X130667000Y-115090000D01*
X131066446Y-115025641D01*
X131445661Y-114884591D01*
X131790072Y-114672270D01*
X132086443Y-114396837D01*
X132323385Y-114068878D01*
X132491793Y-113700995D01*
X132550900Y-113477078D01*
X132437004Y-113157000D01*
X129667000Y-113157000D01*
X129413000Y-113157000D01*
X126642996Y-113157000D01*
X126529100Y-113477078D01*
X116967000Y-113477078D01*
X116967000Y-112582922D01*
X126529100Y-112582922D01*
X126642996Y-112903000D01*
X129413000Y-112903000D01*
X129413000Y-110970000D01*
X129667000Y-110970000D01*
X129667000Y-112903000D01*
X132437004Y-112903000D01*
X132550900Y-112582922D01*
X132518453Y-112460000D01*
X142567718Y-112460000D01*
X142596776Y-112755032D01*
X142682834Y-113038725D01*
X142822583Y-113300179D01*
X143010655Y-113529345D01*
X143239821Y-113717417D01*
X143267669Y-113732302D01*
X143131097Y-113821744D01*
X142919464Y-114029506D01*
X142752429Y-114274563D01*
X142636412Y-114547498D01*
X142618698Y-114639969D01*
X142739754Y-114873000D01*
X144183000Y-114873000D01*
X144183000Y-114853000D01*
X144437000Y-114853000D01*
X144437000Y-114873000D01*
X145880246Y-114873000D01*
X146001302Y-114639969D01*
X145983588Y-114547498D01*
X145867571Y-114274563D01*
X145700536Y-114029506D01*
X145488903Y-113821744D01*
X145352331Y-113732302D01*
X145380179Y-113717417D01*
X145609345Y-113529345D01*
X145797417Y-113300179D01*
X145937166Y-113038725D01*
X146023224Y-112755032D01*
X146052282Y-112460000D01*
X146023224Y-112164968D01*
X145937166Y-111881275D01*
X145797417Y-111619821D01*
X145609345Y-111390655D01*
X145380179Y-111202583D01*
X145118725Y-111062834D01*
X144835032Y-110976776D01*
X144613936Y-110955000D01*
X144006064Y-110955000D01*
X143784968Y-110976776D01*
X143501275Y-111062834D01*
X143239821Y-111202583D01*
X143010655Y-111390655D01*
X142822583Y-111619821D01*
X142682834Y-111881275D01*
X142596776Y-112164968D01*
X142567718Y-112460000D01*
X132518453Y-112460000D01*
X132491793Y-112359005D01*
X132323385Y-111991122D01*
X132086443Y-111663163D01*
X131790072Y-111387730D01*
X131445661Y-111175409D01*
X131066446Y-111034359D01*
X130667000Y-110970000D01*
X129667000Y-110970000D01*
X129413000Y-110970000D01*
X128413000Y-110970000D01*
X128013554Y-111034359D01*
X127634339Y-111175409D01*
X127289928Y-111387730D01*
X126993557Y-111663163D01*
X126756615Y-111991122D01*
X126588207Y-112359005D01*
X126529100Y-112582922D01*
X116967000Y-112582922D01*
X116967000Y-106899000D01*
X131222928Y-106899000D01*
X131235188Y-107023482D01*
X131271498Y-107143180D01*
X131330463Y-107253494D01*
X131409815Y-107350185D01*
X131506506Y-107429537D01*
X131616820Y-107488502D01*
X131736518Y-107524812D01*
X131861000Y-107537072D01*
X132175250Y-107534000D01*
X132334000Y-107375250D01*
X132334000Y-106426000D01*
X132588000Y-106426000D01*
X132588000Y-107375250D01*
X132746750Y-107534000D01*
X133061000Y-107537072D01*
X133185482Y-107524812D01*
X133305180Y-107488502D01*
X133415494Y-107429537D01*
X133512185Y-107350185D01*
X133591537Y-107253494D01*
X133650502Y-107143180D01*
X133686812Y-107023482D01*
X133699072Y-106899000D01*
X133696000Y-106584750D01*
X133537250Y-106426000D01*
X132588000Y-106426000D01*
X132334000Y-106426000D01*
X131384750Y-106426000D01*
X131226000Y-106584750D01*
X131222928Y-106899000D01*
X116967000Y-106899000D01*
X116967000Y-105699000D01*
X131222928Y-105699000D01*
X131226000Y-106013250D01*
X131384750Y-106172000D01*
X132334000Y-106172000D01*
X132334000Y-106152000D01*
X132588000Y-106152000D01*
X132588000Y-106172000D01*
X133537250Y-106172000D01*
X133696000Y-106013250D01*
X133699072Y-105699000D01*
X133686812Y-105574518D01*
X133650502Y-105454820D01*
X133591537Y-105344506D01*
X133578419Y-105328522D01*
X133648540Y-105159236D01*
X133696000Y-104920637D01*
X133696000Y-104677363D01*
X133648540Y-104438764D01*
X133555443Y-104214008D01*
X133420287Y-104011733D01*
X133248267Y-103839713D01*
X133045992Y-103704557D01*
X132821236Y-103611460D01*
X132582637Y-103564000D01*
X132339363Y-103564000D01*
X132100764Y-103611460D01*
X131876008Y-103704557D01*
X131673733Y-103839713D01*
X131501713Y-104011733D01*
X131366557Y-104214008D01*
X131273460Y-104438764D01*
X131226000Y-104677363D01*
X131226000Y-104920637D01*
X131273460Y-105159236D01*
X131343581Y-105328522D01*
X131330463Y-105344506D01*
X131271498Y-105454820D01*
X131235188Y-105574518D01*
X131222928Y-105699000D01*
X116967000Y-105699000D01*
X116967000Y-103622500D01*
X122051928Y-103622500D01*
X122064188Y-103746982D01*
X122100498Y-103866680D01*
X122159463Y-103976994D01*
X122238815Y-104073685D01*
X122335506Y-104153037D01*
X122445820Y-104212002D01*
X122565518Y-104248312D01*
X122690000Y-104260572D01*
X123404250Y-104257500D01*
X123563000Y-104098750D01*
X123563000Y-102797000D01*
X123817000Y-102797000D01*
X123817000Y-104098750D01*
X123975750Y-104257500D01*
X124690000Y-104260572D01*
X124814482Y-104248312D01*
X124934180Y-104212002D01*
X125044494Y-104153037D01*
X125141185Y-104073685D01*
X125220537Y-103976994D01*
X125279502Y-103866680D01*
X125315812Y-103746982D01*
X125328072Y-103622500D01*
X125325227Y-103004999D01*
X142571928Y-103004999D01*
X142571928Y-104245001D01*
X142588992Y-104418255D01*
X142639528Y-104584851D01*
X142721595Y-104738387D01*
X142832038Y-104872962D01*
X142966613Y-104983405D01*
X143120149Y-105065472D01*
X143286745Y-105116008D01*
X143459999Y-105133072D01*
X145160001Y-105133072D01*
X145333255Y-105116008D01*
X145499851Y-105065472D01*
X145653387Y-104983405D01*
X145787962Y-104872962D01*
X145898405Y-104738387D01*
X145980472Y-104584851D01*
X146031008Y-104418255D01*
X146048072Y-104245001D01*
X146048072Y-103004999D01*
X146031008Y-102831745D01*
X145980472Y-102665149D01*
X145898405Y-102511613D01*
X145787962Y-102377038D01*
X145653387Y-102266595D01*
X145544686Y-102208493D01*
X145700536Y-102055494D01*
X145867571Y-101810437D01*
X145983588Y-101537502D01*
X146001302Y-101445031D01*
X145880246Y-101212000D01*
X144437000Y-101212000D01*
X144437000Y-101232000D01*
X144183000Y-101232000D01*
X144183000Y-101212000D01*
X142739754Y-101212000D01*
X142618698Y-101445031D01*
X142636412Y-101537502D01*
X142752429Y-101810437D01*
X142919464Y-102055494D01*
X143075314Y-102208493D01*
X142966613Y-102266595D01*
X142832038Y-102377038D01*
X142721595Y-102511613D01*
X142639528Y-102665149D01*
X142588992Y-102831745D01*
X142571928Y-103004999D01*
X125325227Y-103004999D01*
X125325000Y-102955750D01*
X125166250Y-102797000D01*
X123817000Y-102797000D01*
X123563000Y-102797000D01*
X122213750Y-102797000D01*
X122055000Y-102955750D01*
X122051928Y-103622500D01*
X116967000Y-103622500D01*
X116967000Y-97590000D01*
X122047319Y-97590000D01*
X122077970Y-97901204D01*
X122168745Y-98200449D01*
X122316155Y-98476235D01*
X122514537Y-98717963D01*
X122687609Y-98860000D01*
X122514537Y-99002037D01*
X122316155Y-99243765D01*
X122168745Y-99519551D01*
X122077970Y-99818796D01*
X122047319Y-100130000D01*
X122077970Y-100441204D01*
X122168745Y-100740449D01*
X122316155Y-101016235D01*
X122419446Y-101142095D01*
X122335506Y-101186963D01*
X122238815Y-101266315D01*
X122159463Y-101363006D01*
X122100498Y-101473320D01*
X122064188Y-101593018D01*
X122051928Y-101717500D01*
X122055000Y-102384250D01*
X122213750Y-102543000D01*
X123563000Y-102543000D01*
X123563000Y-102523000D01*
X123817000Y-102523000D01*
X123817000Y-102543000D01*
X125166250Y-102543000D01*
X125325000Y-102384250D01*
X125328072Y-101717500D01*
X125315812Y-101593018D01*
X125279502Y-101473320D01*
X125220537Y-101363006D01*
X125141185Y-101266315D01*
X125044494Y-101186963D01*
X124960554Y-101142095D01*
X125063845Y-101016235D01*
X125211255Y-100740449D01*
X125302030Y-100441204D01*
X125332681Y-100130000D01*
X125302030Y-99818796D01*
X125211255Y-99519551D01*
X125063845Y-99243765D01*
X124865463Y-99002037D01*
X124692391Y-98860000D01*
X124865463Y-98717963D01*
X125007410Y-98545000D01*
X142567718Y-98545000D01*
X142596776Y-98840032D01*
X142682834Y-99123725D01*
X142822583Y-99385179D01*
X143010655Y-99614345D01*
X143239821Y-99802417D01*
X143267669Y-99817302D01*
X143131097Y-99906744D01*
X142919464Y-100114506D01*
X142752429Y-100359563D01*
X142636412Y-100632498D01*
X142618698Y-100724969D01*
X142739754Y-100958000D01*
X144183000Y-100958000D01*
X144183000Y-100938000D01*
X144437000Y-100938000D01*
X144437000Y-100958000D01*
X145880246Y-100958000D01*
X146001302Y-100724969D01*
X145983588Y-100632498D01*
X145867571Y-100359563D01*
X145700536Y-100114506D01*
X145488903Y-99906744D01*
X145352331Y-99817302D01*
X145380179Y-99802417D01*
X145609345Y-99614345D01*
X145797417Y-99385179D01*
X145937166Y-99123725D01*
X146023224Y-98840032D01*
X146052282Y-98545000D01*
X146023224Y-98249968D01*
X145937166Y-97966275D01*
X145797417Y-97704821D01*
X145609345Y-97475655D01*
X145380179Y-97287583D01*
X145118725Y-97147834D01*
X144835032Y-97061776D01*
X144613936Y-97040000D01*
X144006064Y-97040000D01*
X143784968Y-97061776D01*
X143501275Y-97147834D01*
X143239821Y-97287583D01*
X143010655Y-97475655D01*
X142822583Y-97704821D01*
X142682834Y-97966275D01*
X142596776Y-98249968D01*
X142567718Y-98545000D01*
X125007410Y-98545000D01*
X125063845Y-98476235D01*
X125211255Y-98200449D01*
X125302030Y-97901204D01*
X125332681Y-97590000D01*
X125302030Y-97278796D01*
X125211255Y-96979551D01*
X125063845Y-96703765D01*
X124865463Y-96462037D01*
X124827645Y-96431000D01*
X132673928Y-96431000D01*
X132686188Y-96555482D01*
X132722498Y-96675180D01*
X132781463Y-96785494D01*
X132860815Y-96882185D01*
X132957506Y-96961537D01*
X133067820Y-97020502D01*
X133187518Y-97056812D01*
X133312000Y-97069072D01*
X133826250Y-97066000D01*
X133985000Y-96907250D01*
X133985000Y-95758000D01*
X134239000Y-95758000D01*
X134239000Y-96907250D01*
X134397750Y-97066000D01*
X134912000Y-97069072D01*
X135036482Y-97056812D01*
X135156180Y-97020502D01*
X135266494Y-96961537D01*
X135363185Y-96882185D01*
X135442537Y-96785494D01*
X135501502Y-96675180D01*
X135537812Y-96555482D01*
X135550072Y-96431000D01*
X135547000Y-95916750D01*
X135388250Y-95758000D01*
X134239000Y-95758000D01*
X133985000Y-95758000D01*
X132835750Y-95758000D01*
X132677000Y-95916750D01*
X132673928Y-96431000D01*
X124827645Y-96431000D01*
X124623735Y-96263655D01*
X124347949Y-96116245D01*
X124048704Y-96025470D01*
X123815486Y-96002500D01*
X123564514Y-96002500D01*
X123331296Y-96025470D01*
X123032051Y-96116245D01*
X122756265Y-96263655D01*
X122514537Y-96462037D01*
X122316155Y-96703765D01*
X122168745Y-96979551D01*
X122077970Y-97278796D01*
X122047319Y-97590000D01*
X116967000Y-97590000D01*
X116967000Y-94831000D01*
X132673928Y-94831000D01*
X132677000Y-95345250D01*
X132835750Y-95504000D01*
X133985000Y-95504000D01*
X133985000Y-95484000D01*
X134239000Y-95484000D01*
X134239000Y-95504000D01*
X135388250Y-95504000D01*
X135547000Y-95345250D01*
X135550072Y-94831000D01*
X135537812Y-94706518D01*
X135501502Y-94586820D01*
X135442537Y-94476506D01*
X135363185Y-94379815D01*
X135266494Y-94300463D01*
X135156180Y-94241498D01*
X135060057Y-94212339D01*
X135226637Y-94045759D01*
X135383680Y-93810727D01*
X135491853Y-93549574D01*
X135547000Y-93272335D01*
X135547000Y-92989665D01*
X135491853Y-92712426D01*
X135383680Y-92451273D01*
X135226637Y-92216241D01*
X135026759Y-92016363D01*
X134791727Y-91859320D01*
X134530574Y-91751147D01*
X134253335Y-91696000D01*
X133970665Y-91696000D01*
X133693426Y-91751147D01*
X133432273Y-91859320D01*
X133197241Y-92016363D01*
X132997363Y-92216241D01*
X132840320Y-92451273D01*
X132732147Y-92712426D01*
X132677000Y-92989665D01*
X132677000Y-93272335D01*
X132732147Y-93549574D01*
X132840320Y-93810727D01*
X132997363Y-94045759D01*
X133163943Y-94212339D01*
X133067820Y-94241498D01*
X132957506Y-94300463D01*
X132860815Y-94379815D01*
X132781463Y-94476506D01*
X132722498Y-94586820D01*
X132686188Y-94706518D01*
X132673928Y-94831000D01*
X116967000Y-94831000D01*
X116967000Y-87677078D01*
X126529100Y-87677078D01*
X126588207Y-87900995D01*
X126756615Y-88268878D01*
X126993557Y-88596837D01*
X127289928Y-88872270D01*
X127634339Y-89084591D01*
X128013554Y-89225641D01*
X128413000Y-89290000D01*
X129413000Y-89290000D01*
X129413000Y-87357000D01*
X129667000Y-87357000D01*
X129667000Y-89290000D01*
X130667000Y-89290000D01*
X131066446Y-89225641D01*
X131445661Y-89084591D01*
X131790072Y-88872270D01*
X131974489Y-88700881D01*
X141478724Y-88700881D01*
X141838912Y-89190548D01*
X142502882Y-89550849D01*
X143224385Y-89774694D01*
X143975695Y-89853480D01*
X144727938Y-89784178D01*
X145452208Y-89569452D01*
X146120670Y-89217555D01*
X146161088Y-89190548D01*
X146521276Y-88700881D01*
X144000000Y-86179605D01*
X141478724Y-88700881D01*
X131974489Y-88700881D01*
X132086443Y-88596837D01*
X132323385Y-88268878D01*
X132491793Y-87900995D01*
X132550900Y-87677078D01*
X132437004Y-87357000D01*
X129667000Y-87357000D01*
X129413000Y-87357000D01*
X126642996Y-87357000D01*
X126529100Y-87677078D01*
X116967000Y-87677078D01*
X116967000Y-86782922D01*
X126529100Y-86782922D01*
X126642996Y-87103000D01*
X129413000Y-87103000D01*
X129413000Y-85170000D01*
X129667000Y-85170000D01*
X129667000Y-87103000D01*
X132437004Y-87103000D01*
X132550900Y-86782922D01*
X132491793Y-86559005D01*
X132323385Y-86191122D01*
X132167745Y-85975695D01*
X140146520Y-85975695D01*
X140215822Y-86727938D01*
X140430548Y-87452208D01*
X140782445Y-88120670D01*
X140809452Y-88161088D01*
X141299119Y-88521276D01*
X143820395Y-86000000D01*
X144179605Y-86000000D01*
X146700881Y-88521276D01*
X147190548Y-88161088D01*
X147550849Y-87497118D01*
X147774694Y-86775615D01*
X147853480Y-86024305D01*
X147784178Y-85272062D01*
X147569452Y-84547792D01*
X147217555Y-83879330D01*
X147190548Y-83838912D01*
X146700881Y-83478724D01*
X144179605Y-86000000D01*
X143820395Y-86000000D01*
X141299119Y-83478724D01*
X140809452Y-83838912D01*
X140449151Y-84502882D01*
X140225306Y-85224385D01*
X140146520Y-85975695D01*
X132167745Y-85975695D01*
X132086443Y-85863163D01*
X131790072Y-85587730D01*
X131445661Y-85375409D01*
X131066446Y-85234359D01*
X130667000Y-85170000D01*
X129667000Y-85170000D01*
X129413000Y-85170000D01*
X128413000Y-85170000D01*
X128013554Y-85234359D01*
X127634339Y-85375409D01*
X127289928Y-85587730D01*
X126993557Y-85863163D01*
X126756615Y-86191122D01*
X126588207Y-86559005D01*
X126529100Y-86782922D01*
X116967000Y-86782922D01*
X116967000Y-83299119D01*
X141478724Y-83299119D01*
X144000000Y-85820395D01*
X146521276Y-83299119D01*
X146161088Y-82809452D01*
X145497118Y-82449151D01*
X144775615Y-82225306D01*
X144024305Y-82146520D01*
X143272062Y-82215822D01*
X142547792Y-82430548D01*
X141879330Y-82782445D01*
X141838912Y-82809452D01*
X141478724Y-83299119D01*
X116967000Y-83299119D01*
X116967000Y-81407000D01*
X148463000Y-81407000D01*
X148463000Y-148463000D01*
G36*
X102743000Y-116713000D02*
G01*
X97917000Y-116713000D01*
X97917000Y-115657980D01*
X99231626Y-115657980D01*
X99351514Y-115942836D01*
X99675210Y-116103699D01*
X100024069Y-116198322D01*
X100384684Y-116223067D01*
X100743198Y-116176985D01*
X101085833Y-116061846D01*
X101308486Y-115942836D01*
X101428374Y-115657980D01*
X100330000Y-114559605D01*
X99231626Y-115657980D01*
X97917000Y-115657980D01*
X97917000Y-114434684D01*
X98486933Y-114434684D01*
X98533015Y-114793198D01*
X98648154Y-115135833D01*
X98767164Y-115358486D01*
X99052020Y-115478374D01*
X100150395Y-114380000D01*
X100509605Y-114380000D01*
X101607980Y-115478374D01*
X101892836Y-115358486D01*
X102053699Y-115034790D01*
X102148322Y-114685931D01*
X102173067Y-114325316D01*
X102126985Y-113966802D01*
X102011846Y-113624167D01*
X101892836Y-113401514D01*
X101607980Y-113281626D01*
X100509605Y-114380000D01*
X100150395Y-114380000D01*
X99052020Y-113281626D01*
X98767164Y-113401514D01*
X98606301Y-113725210D01*
X98511678Y-114074069D01*
X98486933Y-114434684D01*
X97917000Y-114434684D01*
X97917000Y-113102020D01*
X99231626Y-113102020D01*
X100330000Y-114200395D01*
X101428374Y-113102020D01*
X101308486Y-112817164D01*
X100984790Y-112656301D01*
X100635931Y-112561678D01*
X100275316Y-112536933D01*
X99916802Y-112583015D01*
X99574167Y-112698154D01*
X99351514Y-112817164D01*
X99231626Y-113102020D01*
X97917000Y-113102020D01*
X97917000Y-106610000D01*
X98491928Y-106610000D01*
X98504188Y-106734482D01*
X98540498Y-106854180D01*
X98599463Y-106964494D01*
X98678815Y-107061185D01*
X98775506Y-107140537D01*
X98885820Y-107199502D01*
X99005518Y-107235812D01*
X99130000Y-107248072D01*
X100044250Y-107245000D01*
X100203000Y-107086250D01*
X100203000Y-105537000D01*
X100457000Y-105537000D01*
X100457000Y-107086250D01*
X100615750Y-107245000D01*
X101530000Y-107248072D01*
X101654482Y-107235812D01*
X101774180Y-107199502D01*
X101884494Y-107140537D01*
X101981185Y-107061185D01*
X102060537Y-106964494D01*
X102119502Y-106854180D01*
X102155812Y-106734482D01*
X102168072Y-106610000D01*
X102165000Y-105695750D01*
X102006250Y-105537000D01*
X100457000Y-105537000D01*
X100203000Y-105537000D01*
X98653750Y-105537000D01*
X98495000Y-105695750D01*
X98491928Y-106610000D01*
X97917000Y-106610000D01*
X97917000Y-104210000D01*
X98491928Y-104210000D01*
X98495000Y-105124250D01*
X98653750Y-105283000D01*
X100203000Y-105283000D01*
X100203000Y-103733750D01*
X100457000Y-103733750D01*
X100457000Y-105283000D01*
X102006250Y-105283000D01*
X102165000Y-105124250D01*
X102168072Y-104210000D01*
X102155812Y-104085518D01*
X102119502Y-103965820D01*
X102060537Y-103855506D01*
X101981185Y-103758815D01*
X101884494Y-103679463D01*
X101774180Y-103620498D01*
X101654482Y-103584188D01*
X101530000Y-103571928D01*
X100615750Y-103575000D01*
X100457000Y-103733750D01*
X100203000Y-103733750D01*
X100044250Y-103575000D01*
X99130000Y-103571928D01*
X99005518Y-103584188D01*
X98885820Y-103620498D01*
X98775506Y-103679463D01*
X98678815Y-103758815D01*
X98599463Y-103855506D01*
X98540498Y-103965820D01*
X98504188Y-104085518D01*
X98491928Y-104210000D01*
X97917000Y-104210000D01*
X97917000Y-102997000D01*
X102743000Y-102997000D01*
X102743000Y-116713000D01*
X102743000Y-116713000D01*
G37*
X102743000Y-116713000D02*
X97917000Y-116713000D01*
X97917000Y-115657980D01*
X99231626Y-115657980D01*
X99351514Y-115942836D01*
X99675210Y-116103699D01*
X100024069Y-116198322D01*
X100384684Y-116223067D01*
X100743198Y-116176985D01*
X101085833Y-116061846D01*
X101308486Y-115942836D01*
X101428374Y-115657980D01*
X100330000Y-114559605D01*
X99231626Y-115657980D01*
X97917000Y-115657980D01*
X97917000Y-114434684D01*
X98486933Y-114434684D01*
X98533015Y-114793198D01*
X98648154Y-115135833D01*
X98767164Y-115358486D01*
X99052020Y-115478374D01*
X100150395Y-114380000D01*
X100509605Y-114380000D01*
X101607980Y-115478374D01*
X101892836Y-115358486D01*
X102053699Y-115034790D01*
X102148322Y-114685931D01*
X102173067Y-114325316D01*
X102126985Y-113966802D01*
X102011846Y-113624167D01*
X101892836Y-113401514D01*
X101607980Y-113281626D01*
X100509605Y-114380000D01*
X100150395Y-114380000D01*
X99052020Y-113281626D01*
X98767164Y-113401514D01*
X98606301Y-113725210D01*
X98511678Y-114074069D01*
X98486933Y-114434684D01*
X97917000Y-114434684D01*
X97917000Y-113102020D01*
X99231626Y-113102020D01*
X100330000Y-114200395D01*
X101428374Y-113102020D01*
X101308486Y-112817164D01*
X100984790Y-112656301D01*
X100635931Y-112561678D01*
X100275316Y-112536933D01*
X99916802Y-112583015D01*
X99574167Y-112698154D01*
X99351514Y-112817164D01*
X99231626Y-113102020D01*
X97917000Y-113102020D01*
X97917000Y-106610000D01*
X98491928Y-106610000D01*
X98504188Y-106734482D01*
X98540498Y-106854180D01*
X98599463Y-106964494D01*
X98678815Y-107061185D01*
X98775506Y-107140537D01*
X98885820Y-107199502D01*
X99005518Y-107235812D01*
X99130000Y-107248072D01*
X100044250Y-107245000D01*
X100203000Y-107086250D01*
X100203000Y-105537000D01*
X100457000Y-105537000D01*
X100457000Y-107086250D01*
X100615750Y-107245000D01*
X101530000Y-107248072D01*
X101654482Y-107235812D01*
X101774180Y-107199502D01*
X101884494Y-107140537D01*
X101981185Y-107061185D01*
X102060537Y-106964494D01*
X102119502Y-106854180D01*
X102155812Y-106734482D01*
X102168072Y-106610000D01*
X102165000Y-105695750D01*
X102006250Y-105537000D01*
X100457000Y-105537000D01*
X100203000Y-105537000D01*
X98653750Y-105537000D01*
X98495000Y-105695750D01*
X98491928Y-106610000D01*
X97917000Y-106610000D01*
X97917000Y-104210000D01*
X98491928Y-104210000D01*
X98495000Y-105124250D01*
X98653750Y-105283000D01*
X100203000Y-105283000D01*
X100203000Y-103733750D01*
X100457000Y-103733750D01*
X100457000Y-105283000D01*
X102006250Y-105283000D01*
X102165000Y-105124250D01*
X102168072Y-104210000D01*
X102155812Y-104085518D01*
X102119502Y-103965820D01*
X102060537Y-103855506D01*
X101981185Y-103758815D01*
X101884494Y-103679463D01*
X101774180Y-103620498D01*
X101654482Y-103584188D01*
X101530000Y-103571928D01*
X100615750Y-103575000D01*
X100457000Y-103733750D01*
X100203000Y-103733750D01*
X100044250Y-103575000D01*
X99130000Y-103571928D01*
X99005518Y-103584188D01*
X98885820Y-103620498D01*
X98775506Y-103679463D01*
X98678815Y-103758815D01*
X98599463Y-103855506D01*
X98540498Y-103965820D01*
X98504188Y-104085518D01*
X98491928Y-104210000D01*
X97917000Y-104210000D01*
X97917000Y-102997000D01*
X102743000Y-102997000D01*
X102743000Y-116713000D01*
G36*
X111633000Y-111633000D02*
G01*
X108712000Y-111633000D01*
X108687224Y-111635440D01*
X108663399Y-111642667D01*
X108641443Y-111654403D01*
X108622197Y-111670197D01*
X108606403Y-111689443D01*
X108594667Y-111711399D01*
X108587440Y-111735224D01*
X108585000Y-111760000D01*
X108585000Y-125766407D01*
X108108750Y-125769000D01*
X107950000Y-125927750D01*
X107950000Y-127127000D01*
X107970000Y-127127000D01*
X107970000Y-127381000D01*
X107950000Y-127381000D01*
X107950000Y-127401000D01*
X107696000Y-127401000D01*
X107696000Y-127381000D01*
X107676000Y-127381000D01*
X107676000Y-127127000D01*
X107696000Y-127127000D01*
X107696000Y-125927750D01*
X107537250Y-125769000D01*
X107061000Y-125766407D01*
X107061000Y-111760000D01*
X107058560Y-111735224D01*
X107051333Y-111711399D01*
X107039597Y-111689443D01*
X107023803Y-111670197D01*
X107004557Y-111654403D01*
X106982601Y-111642667D01*
X106958776Y-111635440D01*
X106934000Y-111633000D01*
X102997000Y-111633000D01*
X102997000Y-108077000D01*
X111633000Y-108077000D01*
X111633000Y-111633000D01*
X111633000Y-111633000D01*
G37*
X111633000Y-111633000D02*
X108712000Y-111633000D01*
X108687224Y-111635440D01*
X108663399Y-111642667D01*
X108641443Y-111654403D01*
X108622197Y-111670197D01*
X108606403Y-111689443D01*
X108594667Y-111711399D01*
X108587440Y-111735224D01*
X108585000Y-111760000D01*
X108585000Y-125766407D01*
X108108750Y-125769000D01*
X107950000Y-125927750D01*
X107950000Y-127127000D01*
X107970000Y-127127000D01*
X107970000Y-127381000D01*
X107950000Y-127381000D01*
X107950000Y-127401000D01*
X107696000Y-127401000D01*
X107696000Y-127381000D01*
X107676000Y-127381000D01*
X107676000Y-127127000D01*
X107696000Y-127127000D01*
X107696000Y-125927750D01*
X107537250Y-125769000D01*
X107061000Y-125766407D01*
X107061000Y-111760000D01*
X107058560Y-111735224D01*
X107051333Y-111711399D01*
X107039597Y-111689443D01*
X107023803Y-111670197D01*
X107004557Y-111654403D01*
X106982601Y-111642667D01*
X106958776Y-111635440D01*
X106934000Y-111633000D01*
X102997000Y-111633000D01*
X102997000Y-108077000D01*
X111633000Y-108077000D01*
X111633000Y-111633000D01*
G36*
X116713000Y-124333000D02*
G01*
X111887000Y-124333000D01*
X111887000Y-106337000D01*
X112353928Y-106337000D01*
X112366188Y-106461482D01*
X112402498Y-106581180D01*
X112461463Y-106691494D01*
X112540815Y-106788185D01*
X112637506Y-106867537D01*
X112747820Y-106926502D01*
X112867518Y-106962812D01*
X112992000Y-106975072D01*
X113506250Y-106972000D01*
X113665000Y-106813250D01*
X113665000Y-105664000D01*
X113919000Y-105664000D01*
X113919000Y-106813250D01*
X114077750Y-106972000D01*
X114592000Y-106975072D01*
X114716482Y-106962812D01*
X114836180Y-106926502D01*
X114946494Y-106867537D01*
X115043185Y-106788185D01*
X115122537Y-106691494D01*
X115181502Y-106581180D01*
X115217812Y-106461482D01*
X115230072Y-106337000D01*
X115227000Y-105822750D01*
X115068250Y-105664000D01*
X113919000Y-105664000D01*
X113665000Y-105664000D01*
X112515750Y-105664000D01*
X112357000Y-105822750D01*
X112353928Y-106337000D01*
X111887000Y-106337000D01*
X111887000Y-104737000D01*
X112353928Y-104737000D01*
X112357000Y-105251250D01*
X112515750Y-105410000D01*
X113665000Y-105410000D01*
X113665000Y-105390000D01*
X113919000Y-105390000D01*
X113919000Y-105410000D01*
X115068250Y-105410000D01*
X115227000Y-105251250D01*
X115230072Y-104737000D01*
X115217812Y-104612518D01*
X115181502Y-104492820D01*
X115122537Y-104382506D01*
X115043185Y-104285815D01*
X115026607Y-104272210D01*
X115063680Y-104216727D01*
X115171853Y-103955574D01*
X115227000Y-103678335D01*
X115227000Y-103395665D01*
X115171853Y-103118426D01*
X115063680Y-102857273D01*
X114906637Y-102622241D01*
X114706759Y-102422363D01*
X114471727Y-102265320D01*
X114210574Y-102157147D01*
X113933335Y-102102000D01*
X113650665Y-102102000D01*
X113373426Y-102157147D01*
X113112273Y-102265320D01*
X112877241Y-102422363D01*
X112677363Y-102622241D01*
X112520320Y-102857273D01*
X112412147Y-103118426D01*
X112357000Y-103395665D01*
X112357000Y-103678335D01*
X112412147Y-103955574D01*
X112520320Y-104216727D01*
X112557393Y-104272210D01*
X112540815Y-104285815D01*
X112461463Y-104382506D01*
X112402498Y-104492820D01*
X112366188Y-104612518D01*
X112353928Y-104737000D01*
X111887000Y-104737000D01*
X111887000Y-94107000D01*
X116713000Y-94107000D01*
X116713000Y-124333000D01*
X116713000Y-124333000D01*
G37*
X116713000Y-124333000D02*
X111887000Y-124333000D01*
X111887000Y-106337000D01*
X112353928Y-106337000D01*
X112366188Y-106461482D01*
X112402498Y-106581180D01*
X112461463Y-106691494D01*
X112540815Y-106788185D01*
X112637506Y-106867537D01*
X112747820Y-106926502D01*
X112867518Y-106962812D01*
X112992000Y-106975072D01*
X113506250Y-106972000D01*
X113665000Y-106813250D01*
X113665000Y-105664000D01*
X113919000Y-105664000D01*
X113919000Y-106813250D01*
X114077750Y-106972000D01*
X114592000Y-106975072D01*
X114716482Y-106962812D01*
X114836180Y-106926502D01*
X114946494Y-106867537D01*
X115043185Y-106788185D01*
X115122537Y-106691494D01*
X115181502Y-106581180D01*
X115217812Y-106461482D01*
X115230072Y-106337000D01*
X115227000Y-105822750D01*
X115068250Y-105664000D01*
X113919000Y-105664000D01*
X113665000Y-105664000D01*
X112515750Y-105664000D01*
X112357000Y-105822750D01*
X112353928Y-106337000D01*
X111887000Y-106337000D01*
X111887000Y-104737000D01*
X112353928Y-104737000D01*
X112357000Y-105251250D01*
X112515750Y-105410000D01*
X113665000Y-105410000D01*
X113665000Y-105390000D01*
X113919000Y-105390000D01*
X113919000Y-105410000D01*
X115068250Y-105410000D01*
X115227000Y-105251250D01*
X115230072Y-104737000D01*
X115217812Y-104612518D01*
X115181502Y-104492820D01*
X115122537Y-104382506D01*
X115043185Y-104285815D01*
X115026607Y-104272210D01*
X115063680Y-104216727D01*
X115171853Y-103955574D01*
X115227000Y-103678335D01*
X115227000Y-103395665D01*
X115171853Y-103118426D01*
X115063680Y-102857273D01*
X114906637Y-102622241D01*
X114706759Y-102422363D01*
X114471727Y-102265320D01*
X114210574Y-102157147D01*
X113933335Y-102102000D01*
X113650665Y-102102000D01*
X113373426Y-102157147D01*
X113112273Y-102265320D01*
X112877241Y-102422363D01*
X112677363Y-102622241D01*
X112520320Y-102857273D01*
X112412147Y-103118426D01*
X112357000Y-103395665D01*
X112357000Y-103678335D01*
X112412147Y-103955574D01*
X112520320Y-104216727D01*
X112557393Y-104272210D01*
X112540815Y-104285815D01*
X112461463Y-104382506D01*
X112402498Y-104492820D01*
X112366188Y-104612518D01*
X112353928Y-104737000D01*
X111887000Y-104737000D01*
X111887000Y-94107000D01*
X116713000Y-94107000D01*
X116713000Y-124333000D01*
G36*
X59563000Y-114300000D02*
G01*
X59565440Y-114324776D01*
X59572667Y-114348601D01*
X59584403Y-114370557D01*
X59607349Y-114396426D01*
X68497349Y-122016426D01*
X68517749Y-122030697D01*
X68540541Y-122040715D01*
X68564850Y-122046093D01*
X68580000Y-122047000D01*
X84455000Y-122047000D01*
X84455000Y-122211099D01*
X84105750Y-122213000D01*
X83947000Y-122371750D01*
X83947000Y-123571000D01*
X83967000Y-123571000D01*
X83967000Y-123825000D01*
X83947000Y-123825000D01*
X83947000Y-125024250D01*
X84105750Y-125183000D01*
X84455000Y-125184901D01*
X84455000Y-125603000D01*
X67355980Y-125603000D01*
X66089980Y-124548000D01*
X82331928Y-124548000D01*
X82344188Y-124672482D01*
X82380498Y-124792180D01*
X82439463Y-124902494D01*
X82518815Y-124999185D01*
X82615506Y-125078537D01*
X82725820Y-125137502D01*
X82845518Y-125173812D01*
X82970000Y-125186072D01*
X83534250Y-125183000D01*
X83693000Y-125024250D01*
X83693000Y-123825000D01*
X82493750Y-123825000D01*
X82335000Y-123983750D01*
X82331928Y-124548000D01*
X66089980Y-124548000D01*
X64049980Y-122848000D01*
X82331928Y-122848000D01*
X82335000Y-123412250D01*
X82493750Y-123571000D01*
X83693000Y-123571000D01*
X83693000Y-122371750D01*
X83534250Y-122213000D01*
X82970000Y-122209928D01*
X82845518Y-122222188D01*
X82725820Y-122258498D01*
X82615506Y-122317463D01*
X82518815Y-122396815D01*
X82439463Y-122493506D01*
X82380498Y-122603820D01*
X82344188Y-122723518D01*
X82331928Y-122848000D01*
X64049980Y-122848000D01*
X59771303Y-119282436D01*
X59750707Y-119268449D01*
X59727778Y-119258749D01*
X59703398Y-119253709D01*
X59690000Y-119253000D01*
X57468133Y-119253000D01*
X57360250Y-119180915D01*
X56999003Y-119031282D01*
X56618373Y-118955570D01*
X56856828Y-118926184D01*
X57228116Y-118803568D01*
X57487276Y-118665044D01*
X57625233Y-118364838D01*
X56420000Y-117159605D01*
X56405858Y-117173748D01*
X56226253Y-116994143D01*
X56240395Y-116980000D01*
X56599605Y-116980000D01*
X57804838Y-118185233D01*
X58105044Y-118047276D01*
X58280882Y-117698033D01*
X58385207Y-117321196D01*
X58414009Y-116931247D01*
X58366184Y-116543172D01*
X58243568Y-116171884D01*
X58105044Y-115912724D01*
X57804838Y-115774767D01*
X56599605Y-116980000D01*
X56240395Y-116980000D01*
X56226253Y-116965858D01*
X56405858Y-116786253D01*
X56420000Y-116800395D01*
X57625233Y-115595162D01*
X57487276Y-115294956D01*
X57138033Y-115119118D01*
X56761196Y-115014793D01*
X56574366Y-115000994D01*
X56856828Y-114966184D01*
X57228116Y-114843568D01*
X57487276Y-114705044D01*
X57625233Y-114404838D01*
X56420000Y-113199605D01*
X56405858Y-113213748D01*
X56226253Y-113034143D01*
X56240395Y-113020000D01*
X56599605Y-113020000D01*
X57804838Y-114225233D01*
X58105044Y-114087276D01*
X58280882Y-113738033D01*
X58385207Y-113361196D01*
X58414009Y-112971247D01*
X58366184Y-112583172D01*
X58243568Y-112211884D01*
X58105044Y-111952724D01*
X57804838Y-111814767D01*
X56599605Y-113020000D01*
X56240395Y-113020000D01*
X56226253Y-113005858D01*
X56405858Y-112826253D01*
X56420000Y-112840395D01*
X57625233Y-111635162D01*
X57487276Y-111334956D01*
X57138033Y-111159118D01*
X56761196Y-111054793D01*
X56670201Y-111048072D01*
X57519999Y-111048072D01*
X57693253Y-111031008D01*
X57859850Y-110980471D01*
X58013386Y-110898405D01*
X58147961Y-110787961D01*
X58258405Y-110653386D01*
X58277854Y-110617000D01*
X59563000Y-110617000D01*
X59563000Y-114300000D01*
X59563000Y-114300000D01*
G37*
X59563000Y-114300000D02*
X59565440Y-114324776D01*
X59572667Y-114348601D01*
X59584403Y-114370557D01*
X59607349Y-114396426D01*
X68497349Y-122016426D01*
X68517749Y-122030697D01*
X68540541Y-122040715D01*
X68564850Y-122046093D01*
X68580000Y-122047000D01*
X84455000Y-122047000D01*
X84455000Y-122211099D01*
X84105750Y-122213000D01*
X83947000Y-122371750D01*
X83947000Y-123571000D01*
X83967000Y-123571000D01*
X83967000Y-123825000D01*
X83947000Y-123825000D01*
X83947000Y-125024250D01*
X84105750Y-125183000D01*
X84455000Y-125184901D01*
X84455000Y-125603000D01*
X67355980Y-125603000D01*
X66089980Y-124548000D01*
X82331928Y-124548000D01*
X82344188Y-124672482D01*
X82380498Y-124792180D01*
X82439463Y-124902494D01*
X82518815Y-124999185D01*
X82615506Y-125078537D01*
X82725820Y-125137502D01*
X82845518Y-125173812D01*
X82970000Y-125186072D01*
X83534250Y-125183000D01*
X83693000Y-125024250D01*
X83693000Y-123825000D01*
X82493750Y-123825000D01*
X82335000Y-123983750D01*
X82331928Y-124548000D01*
X66089980Y-124548000D01*
X64049980Y-122848000D01*
X82331928Y-122848000D01*
X82335000Y-123412250D01*
X82493750Y-123571000D01*
X83693000Y-123571000D01*
X83693000Y-122371750D01*
X83534250Y-122213000D01*
X82970000Y-122209928D01*
X82845518Y-122222188D01*
X82725820Y-122258498D01*
X82615506Y-122317463D01*
X82518815Y-122396815D01*
X82439463Y-122493506D01*
X82380498Y-122603820D01*
X82344188Y-122723518D01*
X82331928Y-122848000D01*
X64049980Y-122848000D01*
X59771303Y-119282436D01*
X59750707Y-119268449D01*
X59727778Y-119258749D01*
X59703398Y-119253709D01*
X59690000Y-119253000D01*
X57468133Y-119253000D01*
X57360250Y-119180915D01*
X56999003Y-119031282D01*
X56618373Y-118955570D01*
X56856828Y-118926184D01*
X57228116Y-118803568D01*
X57487276Y-118665044D01*
X57625233Y-118364838D01*
X56420000Y-117159605D01*
X56405858Y-117173748D01*
X56226253Y-116994143D01*
X56240395Y-116980000D01*
X56599605Y-116980000D01*
X57804838Y-118185233D01*
X58105044Y-118047276D01*
X58280882Y-117698033D01*
X58385207Y-117321196D01*
X58414009Y-116931247D01*
X58366184Y-116543172D01*
X58243568Y-116171884D01*
X58105044Y-115912724D01*
X57804838Y-115774767D01*
X56599605Y-116980000D01*
X56240395Y-116980000D01*
X56226253Y-116965858D01*
X56405858Y-116786253D01*
X56420000Y-116800395D01*
X57625233Y-115595162D01*
X57487276Y-115294956D01*
X57138033Y-115119118D01*
X56761196Y-115014793D01*
X56574366Y-115000994D01*
X56856828Y-114966184D01*
X57228116Y-114843568D01*
X57487276Y-114705044D01*
X57625233Y-114404838D01*
X56420000Y-113199605D01*
X56405858Y-113213748D01*
X56226253Y-113034143D01*
X56240395Y-113020000D01*
X56599605Y-113020000D01*
X57804838Y-114225233D01*
X58105044Y-114087276D01*
X58280882Y-113738033D01*
X58385207Y-113361196D01*
X58414009Y-112971247D01*
X58366184Y-112583172D01*
X58243568Y-112211884D01*
X58105044Y-111952724D01*
X57804838Y-111814767D01*
X56599605Y-113020000D01*
X56240395Y-113020000D01*
X56226253Y-113005858D01*
X56405858Y-112826253D01*
X56420000Y-112840395D01*
X57625233Y-111635162D01*
X57487276Y-111334956D01*
X57138033Y-111159118D01*
X56761196Y-111054793D01*
X56670201Y-111048072D01*
X57519999Y-111048072D01*
X57693253Y-111031008D01*
X57859850Y-110980471D01*
X58013386Y-110898405D01*
X58147961Y-110787961D01*
X58258405Y-110653386D01*
X58277854Y-110617000D01*
X59563000Y-110617000D01*
X59563000Y-114300000D01*
G36*
X97663000Y-111707394D02*
G01*
X95160197Y-114210197D01*
X95144403Y-114229443D01*
X95132667Y-114251399D01*
X95125440Y-114275224D01*
X95123000Y-114300000D01*
X95123000Y-118057394D01*
X87577394Y-125603000D01*
X85725000Y-125603000D01*
X85725000Y-125032476D01*
X85855901Y-125094825D01*
X86003110Y-125139476D01*
X86233000Y-125018155D01*
X86233000Y-123825000D01*
X86487000Y-123825000D01*
X86487000Y-125018155D01*
X86716890Y-125139476D01*
X86864099Y-125094825D01*
X87126920Y-124969641D01*
X87360269Y-124795588D01*
X87555178Y-124579355D01*
X87704157Y-124329252D01*
X87801481Y-124054891D01*
X87680814Y-123825000D01*
X86487000Y-123825000D01*
X86233000Y-123825000D01*
X86213000Y-123825000D01*
X86213000Y-123571000D01*
X86233000Y-123571000D01*
X86233000Y-122377845D01*
X86487000Y-122377845D01*
X86487000Y-123571000D01*
X87680814Y-123571000D01*
X87801481Y-123341109D01*
X87704157Y-123066748D01*
X87555178Y-122816645D01*
X87360269Y-122600412D01*
X87126920Y-122426359D01*
X86864099Y-122301175D01*
X86716890Y-122256524D01*
X86487000Y-122377845D01*
X86233000Y-122377845D01*
X86003110Y-122256524D01*
X85855901Y-122301175D01*
X85725000Y-122363524D01*
X85725000Y-122047000D01*
X86360000Y-122047000D01*
X86384776Y-122044560D01*
X86408601Y-122037333D01*
X86430557Y-122025597D01*
X86449803Y-122009803D01*
X92799803Y-115659803D01*
X92815597Y-115640557D01*
X92827333Y-115618601D01*
X92834560Y-115594776D01*
X92837000Y-115570000D01*
X92837000Y-111812606D01*
X96572606Y-108077000D01*
X97663000Y-108077000D01*
X97663000Y-111707394D01*
X97663000Y-111707394D01*
G37*
X97663000Y-111707394D02*
X95160197Y-114210197D01*
X95144403Y-114229443D01*
X95132667Y-114251399D01*
X95125440Y-114275224D01*
X95123000Y-114300000D01*
X95123000Y-118057394D01*
X87577394Y-125603000D01*
X85725000Y-125603000D01*
X85725000Y-125032476D01*
X85855901Y-125094825D01*
X86003110Y-125139476D01*
X86233000Y-125018155D01*
X86233000Y-123825000D01*
X86487000Y-123825000D01*
X86487000Y-125018155D01*
X86716890Y-125139476D01*
X86864099Y-125094825D01*
X87126920Y-124969641D01*
X87360269Y-124795588D01*
X87555178Y-124579355D01*
X87704157Y-124329252D01*
X87801481Y-124054891D01*
X87680814Y-123825000D01*
X86487000Y-123825000D01*
X86233000Y-123825000D01*
X86213000Y-123825000D01*
X86213000Y-123571000D01*
X86233000Y-123571000D01*
X86233000Y-122377845D01*
X86487000Y-122377845D01*
X86487000Y-123571000D01*
X87680814Y-123571000D01*
X87801481Y-123341109D01*
X87704157Y-123066748D01*
X87555178Y-122816645D01*
X87360269Y-122600412D01*
X87126920Y-122426359D01*
X86864099Y-122301175D01*
X86716890Y-122256524D01*
X86487000Y-122377845D01*
X86233000Y-122377845D01*
X86003110Y-122256524D01*
X85855901Y-122301175D01*
X85725000Y-122363524D01*
X85725000Y-122047000D01*
X86360000Y-122047000D01*
X86384776Y-122044560D01*
X86408601Y-122037333D01*
X86430557Y-122025597D01*
X86449803Y-122009803D01*
X92799803Y-115659803D01*
X92815597Y-115640557D01*
X92827333Y-115618601D01*
X92834560Y-115594776D01*
X92837000Y-115570000D01*
X92837000Y-111812606D01*
X96572606Y-108077000D01*
X97663000Y-108077000D01*
X97663000Y-111707394D01*
M02*
