G04 #@! TF.GenerationSoftware,KiCad,Pcbnew,5.0.1*
G04 #@! TF.CreationDate,2018-12-31T15:50:12-05:00*
G04 #@! TF.ProjectId,balanced_amplifier,62616C616E6365645F616D706C696669,rev?*
G04 #@! TF.SameCoordinates,Original*
G04 #@! TF.FileFunction,Copper,L2,Bot,Signal*
G04 #@! TF.FilePolarity,Positive*
%FSLAX46Y46*%
G04 Gerber Fmt 4.6, Leading zero omitted, Abs format (unit mm)*
G04 Created by KiCad (PCBNEW 5.0.1) date Mon 31 Dec 2018 03:50:12 PM EST*
%MOMM*%
%LPD*%
G01*
G04 APERTURE LIST*
G04 #@! TA.AperFunction,ComponentPad*
%ADD10R,1.600000X1.600000*%
G04 #@! TD*
G04 #@! TA.AperFunction,ComponentPad*
%ADD11C,1.600000*%
G04 #@! TD*
G04 #@! TA.AperFunction,ComponentPad*
%ADD12C,2.000000*%
G04 #@! TD*
G04 #@! TA.AperFunction,ComponentPad*
%ADD13O,1.740000X2.200000*%
G04 #@! TD*
G04 #@! TA.AperFunction,Conductor*
%ADD14C,0.100000*%
G04 #@! TD*
G04 #@! TA.AperFunction,ComponentPad*
%ADD15C,1.740000*%
G04 #@! TD*
G04 #@! TA.AperFunction,ComponentPad*
%ADD16R,2.600000X2.600000*%
G04 #@! TD*
G04 #@! TA.AperFunction,ComponentPad*
%ADD17C,2.600000*%
G04 #@! TD*
G04 #@! TA.AperFunction,ComponentPad*
%ADD18C,9.000000*%
G04 #@! TD*
G04 #@! TA.AperFunction,ViaPad*
%ADD19C,0.800000*%
G04 #@! TD*
G04 #@! TA.AperFunction,Conductor*
%ADD20C,0.250000*%
G04 #@! TD*
G04 #@! TA.AperFunction,Conductor*
%ADD21C,0.254000*%
G04 #@! TD*
G04 APERTURE END LIST*
D10*
G04 #@! TO.P,C29,1*
G04 #@! TO.N,Net-(C29-Pad1)*
X139700000Y-107480000D03*
D11*
G04 #@! TO.P,C29,2*
G04 #@! TO.N,Net-(C29-Pad2)*
X139700000Y-105480000D03*
G04 #@! TD*
G04 #@! TO.P,C7,2*
G04 #@! TO.N,Net-(C7-Pad2)*
X108585000Y-101725000D03*
D10*
G04 #@! TO.P,C7,1*
G04 #@! TO.N,/volume_control/right_in*
X108585000Y-99225000D03*
G04 #@! TD*
D12*
G04 #@! TO.P,RV2,3*
G04 #@! TO.N,Net-(C26-Pad2)*
X155280000Y-116800000D03*
G04 #@! TO.P,RV2,2*
G04 #@! TO.N,Net-(C22-Pad1)*
X152740000Y-116800000D03*
G04 #@! TO.P,RV2,1*
G04 #@! TO.N,Net-(C21-Pad1)*
X150200000Y-116800000D03*
G04 #@! TO.P,RV2,6*
G04 #@! TO.N,Net-(C33-Pad2)*
X155280000Y-106640000D03*
G04 #@! TO.P,RV2,5*
G04 #@! TO.N,Net-(C29-Pad1)*
X152740000Y-106640000D03*
G04 #@! TO.P,RV2,4*
G04 #@! TO.N,Net-(C28-Pad1)*
X150200000Y-106640000D03*
G04 #@! TD*
D10*
G04 #@! TO.P,C15,1*
G04 #@! TO.N,/volume_control/left_in*
X86995000Y-99860000D03*
D11*
G04 #@! TO.P,C15,2*
G04 #@! TO.N,Net-(C15-Pad2)*
X86995000Y-102360000D03*
G04 #@! TD*
G04 #@! TO.P,C21,2*
G04 #@! TO.N,/volume_control/right_in*
X129540000Y-112600000D03*
D10*
G04 #@! TO.P,C21,1*
G04 #@! TO.N,Net-(C21-Pad1)*
X129540000Y-115100000D03*
G04 #@! TD*
D11*
G04 #@! TO.P,C22,2*
G04 #@! TO.N,Net-(C22-Pad2)*
X129540000Y-105480000D03*
D10*
G04 #@! TO.P,C22,1*
G04 #@! TO.N,Net-(C22-Pad1)*
X129540000Y-107480000D03*
G04 #@! TD*
G04 #@! TO.P,C28,1*
G04 #@! TO.N,Net-(C28-Pad1)*
X129540000Y-123990000D03*
D11*
G04 #@! TO.P,C28,2*
G04 #@! TO.N,/volume_control/left_in*
X129540000Y-121490000D03*
G04 #@! TD*
D10*
G04 #@! TO.P,C100,1*
G04 #@! TO.N,VCC*
X120015000Y-53505000D03*
D11*
G04 #@! TO.P,C100,2*
G04 #@! TO.N,GNDA*
X117515000Y-53505000D03*
G04 #@! TD*
G04 #@! TO.P,C101,2*
G04 #@! TO.N,VEE*
X128945000Y-53505000D03*
D10*
G04 #@! TO.P,C101,1*
G04 #@! TO.N,GNDA*
X131445000Y-53505000D03*
G04 #@! TD*
D13*
G04 #@! TO.P,J1,4*
G04 #@! TO.N,/right_in_cold*
X101580000Y-44275000D03*
G04 #@! TO.P,J1,3*
G04 #@! TO.N,GNDA*
X104120000Y-44275000D03*
G04 #@! TO.P,J1,2*
X106660000Y-44275000D03*
D14*
G04 #@! TD*
G04 #@! TO.N,/right_in_hot*
G04 #@! TO.C,J1*
G36*
X109844505Y-43176204D02*
X109868773Y-43179804D01*
X109892572Y-43185765D01*
X109915671Y-43194030D01*
X109937850Y-43204520D01*
X109958893Y-43217132D01*
X109978599Y-43231747D01*
X109996777Y-43248223D01*
X110013253Y-43266401D01*
X110027868Y-43286107D01*
X110040480Y-43307150D01*
X110050970Y-43329329D01*
X110059235Y-43352428D01*
X110065196Y-43376227D01*
X110068796Y-43400495D01*
X110070000Y-43424999D01*
X110070000Y-45125001D01*
X110068796Y-45149505D01*
X110065196Y-45173773D01*
X110059235Y-45197572D01*
X110050970Y-45220671D01*
X110040480Y-45242850D01*
X110027868Y-45263893D01*
X110013253Y-45283599D01*
X109996777Y-45301777D01*
X109978599Y-45318253D01*
X109958893Y-45332868D01*
X109937850Y-45345480D01*
X109915671Y-45355970D01*
X109892572Y-45364235D01*
X109868773Y-45370196D01*
X109844505Y-45373796D01*
X109820001Y-45375000D01*
X108579999Y-45375000D01*
X108555495Y-45373796D01*
X108531227Y-45370196D01*
X108507428Y-45364235D01*
X108484329Y-45355970D01*
X108462150Y-45345480D01*
X108441107Y-45332868D01*
X108421401Y-45318253D01*
X108403223Y-45301777D01*
X108386747Y-45283599D01*
X108372132Y-45263893D01*
X108359520Y-45242850D01*
X108349030Y-45220671D01*
X108340765Y-45197572D01*
X108334804Y-45173773D01*
X108331204Y-45149505D01*
X108330000Y-45125001D01*
X108330000Y-43424999D01*
X108331204Y-43400495D01*
X108334804Y-43376227D01*
X108340765Y-43352428D01*
X108349030Y-43329329D01*
X108359520Y-43307150D01*
X108372132Y-43286107D01*
X108386747Y-43266401D01*
X108403223Y-43248223D01*
X108421401Y-43231747D01*
X108441107Y-43217132D01*
X108462150Y-43204520D01*
X108484329Y-43194030D01*
X108507428Y-43185765D01*
X108531227Y-43179804D01*
X108555495Y-43176204D01*
X108579999Y-43175000D01*
X109820001Y-43175000D01*
X109844505Y-43176204D01*
X109844505Y-43176204D01*
G37*
D15*
G04 #@! TO.P,J1,1*
G04 #@! TO.N,/right_in_hot*
X109200000Y-44275000D03*
G04 #@! TD*
D14*
G04 #@! TO.N,/left_in_hot*
G04 #@! TO.C,J2*
G36*
X91844505Y-43176204D02*
X91868773Y-43179804D01*
X91892572Y-43185765D01*
X91915671Y-43194030D01*
X91937850Y-43204520D01*
X91958893Y-43217132D01*
X91978599Y-43231747D01*
X91996777Y-43248223D01*
X92013253Y-43266401D01*
X92027868Y-43286107D01*
X92040480Y-43307150D01*
X92050970Y-43329329D01*
X92059235Y-43352428D01*
X92065196Y-43376227D01*
X92068796Y-43400495D01*
X92070000Y-43424999D01*
X92070000Y-45125001D01*
X92068796Y-45149505D01*
X92065196Y-45173773D01*
X92059235Y-45197572D01*
X92050970Y-45220671D01*
X92040480Y-45242850D01*
X92027868Y-45263893D01*
X92013253Y-45283599D01*
X91996777Y-45301777D01*
X91978599Y-45318253D01*
X91958893Y-45332868D01*
X91937850Y-45345480D01*
X91915671Y-45355970D01*
X91892572Y-45364235D01*
X91868773Y-45370196D01*
X91844505Y-45373796D01*
X91820001Y-45375000D01*
X90579999Y-45375000D01*
X90555495Y-45373796D01*
X90531227Y-45370196D01*
X90507428Y-45364235D01*
X90484329Y-45355970D01*
X90462150Y-45345480D01*
X90441107Y-45332868D01*
X90421401Y-45318253D01*
X90403223Y-45301777D01*
X90386747Y-45283599D01*
X90372132Y-45263893D01*
X90359520Y-45242850D01*
X90349030Y-45220671D01*
X90340765Y-45197572D01*
X90334804Y-45173773D01*
X90331204Y-45149505D01*
X90330000Y-45125001D01*
X90330000Y-43424999D01*
X90331204Y-43400495D01*
X90334804Y-43376227D01*
X90340765Y-43352428D01*
X90349030Y-43329329D01*
X90359520Y-43307150D01*
X90372132Y-43286107D01*
X90386747Y-43266401D01*
X90403223Y-43248223D01*
X90421401Y-43231747D01*
X90441107Y-43217132D01*
X90462150Y-43204520D01*
X90484329Y-43194030D01*
X90507428Y-43185765D01*
X90531227Y-43179804D01*
X90555495Y-43176204D01*
X90579999Y-43175000D01*
X91820001Y-43175000D01*
X91844505Y-43176204D01*
X91844505Y-43176204D01*
G37*
D15*
G04 #@! TD*
G04 #@! TO.P,J2,1*
G04 #@! TO.N,/left_in_hot*
X91200000Y-44275000D03*
D13*
G04 #@! TO.P,J2,2*
G04 #@! TO.N,GNDA*
X88660000Y-44275000D03*
G04 #@! TO.P,J2,3*
X86120000Y-44275000D03*
G04 #@! TO.P,J2,4*
G04 #@! TO.N,/left_in_cold*
X83580000Y-44275000D03*
G04 #@! TD*
D16*
G04 #@! TO.P,J3,1*
G04 #@! TO.N,VEE*
X131200000Y-44615000D03*
D17*
G04 #@! TO.P,J3,2*
G04 #@! TO.N,GNDA*
X126200000Y-44615000D03*
G04 #@! TO.P,J3,3*
G04 #@! TO.N,VCC*
X121200000Y-44615000D03*
G04 #@! TD*
D13*
G04 #@! TO.P,J4,4*
G04 #@! TO.N,/volume_control/right_out_hot*
X142960000Y-43815000D03*
G04 #@! TO.P,J4,3*
G04 #@! TO.N,GNDA*
X145500000Y-43815000D03*
G04 #@! TO.P,J4,2*
X148040000Y-43815000D03*
D14*
G04 #@! TD*
G04 #@! TO.N,/volume_control/right_out_cold*
G04 #@! TO.C,J4*
G36*
X151224505Y-42716204D02*
X151248773Y-42719804D01*
X151272572Y-42725765D01*
X151295671Y-42734030D01*
X151317850Y-42744520D01*
X151338893Y-42757132D01*
X151358599Y-42771747D01*
X151376777Y-42788223D01*
X151393253Y-42806401D01*
X151407868Y-42826107D01*
X151420480Y-42847150D01*
X151430970Y-42869329D01*
X151439235Y-42892428D01*
X151445196Y-42916227D01*
X151448796Y-42940495D01*
X151450000Y-42964999D01*
X151450000Y-44665001D01*
X151448796Y-44689505D01*
X151445196Y-44713773D01*
X151439235Y-44737572D01*
X151430970Y-44760671D01*
X151420480Y-44782850D01*
X151407868Y-44803893D01*
X151393253Y-44823599D01*
X151376777Y-44841777D01*
X151358599Y-44858253D01*
X151338893Y-44872868D01*
X151317850Y-44885480D01*
X151295671Y-44895970D01*
X151272572Y-44904235D01*
X151248773Y-44910196D01*
X151224505Y-44913796D01*
X151200001Y-44915000D01*
X149959999Y-44915000D01*
X149935495Y-44913796D01*
X149911227Y-44910196D01*
X149887428Y-44904235D01*
X149864329Y-44895970D01*
X149842150Y-44885480D01*
X149821107Y-44872868D01*
X149801401Y-44858253D01*
X149783223Y-44841777D01*
X149766747Y-44823599D01*
X149752132Y-44803893D01*
X149739520Y-44782850D01*
X149729030Y-44760671D01*
X149720765Y-44737572D01*
X149714804Y-44713773D01*
X149711204Y-44689505D01*
X149710000Y-44665001D01*
X149710000Y-42964999D01*
X149711204Y-42940495D01*
X149714804Y-42916227D01*
X149720765Y-42892428D01*
X149729030Y-42869329D01*
X149739520Y-42847150D01*
X149752132Y-42826107D01*
X149766747Y-42806401D01*
X149783223Y-42788223D01*
X149801401Y-42771747D01*
X149821107Y-42757132D01*
X149842150Y-42744520D01*
X149864329Y-42734030D01*
X149887428Y-42725765D01*
X149911227Y-42719804D01*
X149935495Y-42716204D01*
X149959999Y-42715000D01*
X151200001Y-42715000D01*
X151224505Y-42716204D01*
X151224505Y-42716204D01*
G37*
D15*
G04 #@! TO.P,J4,1*
G04 #@! TO.N,/volume_control/right_out_cold*
X150580000Y-43815000D03*
G04 #@! TD*
D14*
G04 #@! TO.N,/volume_control/left_out_cold*
G04 #@! TO.C,J5*
G36*
X169224505Y-42716204D02*
X169248773Y-42719804D01*
X169272572Y-42725765D01*
X169295671Y-42734030D01*
X169317850Y-42744520D01*
X169338893Y-42757132D01*
X169358599Y-42771747D01*
X169376777Y-42788223D01*
X169393253Y-42806401D01*
X169407868Y-42826107D01*
X169420480Y-42847150D01*
X169430970Y-42869329D01*
X169439235Y-42892428D01*
X169445196Y-42916227D01*
X169448796Y-42940495D01*
X169450000Y-42964999D01*
X169450000Y-44665001D01*
X169448796Y-44689505D01*
X169445196Y-44713773D01*
X169439235Y-44737572D01*
X169430970Y-44760671D01*
X169420480Y-44782850D01*
X169407868Y-44803893D01*
X169393253Y-44823599D01*
X169376777Y-44841777D01*
X169358599Y-44858253D01*
X169338893Y-44872868D01*
X169317850Y-44885480D01*
X169295671Y-44895970D01*
X169272572Y-44904235D01*
X169248773Y-44910196D01*
X169224505Y-44913796D01*
X169200001Y-44915000D01*
X167959999Y-44915000D01*
X167935495Y-44913796D01*
X167911227Y-44910196D01*
X167887428Y-44904235D01*
X167864329Y-44895970D01*
X167842150Y-44885480D01*
X167821107Y-44872868D01*
X167801401Y-44858253D01*
X167783223Y-44841777D01*
X167766747Y-44823599D01*
X167752132Y-44803893D01*
X167739520Y-44782850D01*
X167729030Y-44760671D01*
X167720765Y-44737572D01*
X167714804Y-44713773D01*
X167711204Y-44689505D01*
X167710000Y-44665001D01*
X167710000Y-42964999D01*
X167711204Y-42940495D01*
X167714804Y-42916227D01*
X167720765Y-42892428D01*
X167729030Y-42869329D01*
X167739520Y-42847150D01*
X167752132Y-42826107D01*
X167766747Y-42806401D01*
X167783223Y-42788223D01*
X167801401Y-42771747D01*
X167821107Y-42757132D01*
X167842150Y-42744520D01*
X167864329Y-42734030D01*
X167887428Y-42725765D01*
X167911227Y-42719804D01*
X167935495Y-42716204D01*
X167959999Y-42715000D01*
X169200001Y-42715000D01*
X169224505Y-42716204D01*
X169224505Y-42716204D01*
G37*
D15*
G04 #@! TD*
G04 #@! TO.P,J5,1*
G04 #@! TO.N,/volume_control/left_out_cold*
X168580000Y-43815000D03*
D13*
G04 #@! TO.P,J5,2*
G04 #@! TO.N,GNDA*
X166040000Y-43815000D03*
G04 #@! TO.P,J5,3*
X163500000Y-43815000D03*
G04 #@! TO.P,J5,4*
G04 #@! TO.N,/volume_control/left_out_hot*
X160960000Y-43815000D03*
G04 #@! TD*
D12*
G04 #@! TO.P,RV1,4*
G04 #@! TO.N,GNDA*
X97200000Y-106640000D03*
G04 #@! TO.P,RV1,5*
G04 #@! TO.N,Net-(RV1-Pad5)*
X99740000Y-106640000D03*
G04 #@! TO.P,RV1,6*
G04 #@! TO.N,Net-(C15-Pad2)*
X102280000Y-106640000D03*
G04 #@! TO.P,RV1,1*
G04 #@! TO.N,Net-(C7-Pad2)*
X97200000Y-116800000D03*
G04 #@! TO.P,RV1,2*
G04 #@! TO.N,Net-(RV1-Pad2)*
X99740000Y-116800000D03*
G04 #@! TO.P,RV1,3*
G04 #@! TO.N,GNDA*
X102280000Y-116800000D03*
G04 #@! TD*
G04 #@! TO.P,TP1,1*
G04 #@! TO.N,Net-(C5-Pad2)*
X111125000Y-85890000D03*
G04 #@! TD*
G04 #@! TO.P,TP2,1*
G04 #@! TO.N,Net-(C6-Pad1)*
X109855000Y-77635000D03*
G04 #@! TD*
G04 #@! TO.P,TP3,1*
G04 #@! TO.N,/volume_control/right_in*
X103505000Y-93510000D03*
G04 #@! TD*
G04 #@! TO.P,TP4,1*
G04 #@! TO.N,Net-(C13-Pad2)*
X83185000Y-82080000D03*
G04 #@! TD*
G04 #@! TO.P,TP5,1*
G04 #@! TO.N,Net-(C14-Pad1)*
X81915000Y-68745000D03*
G04 #@! TD*
G04 #@! TO.P,TP6,1*
G04 #@! TO.N,/volume_control/left_in*
X89535000Y-91605000D03*
G04 #@! TD*
G04 #@! TO.P,TP7,1*
G04 #@! TO.N,Net-(C26-Pad2)*
X142240000Y-80175000D03*
G04 #@! TD*
G04 #@! TO.P,TP8,1*
G04 #@! TO.N,Net-(R26-Pad2)*
X120015000Y-90970000D03*
G04 #@! TD*
G04 #@! TO.P,TP9,1*
G04 #@! TO.N,/volume_control/right_out_hot*
X142875000Y-54140000D03*
G04 #@! TD*
G04 #@! TO.P,TP10,1*
G04 #@! TO.N,/volume_control/right_out_cold*
X147320000Y-54140000D03*
G04 #@! TD*
G04 #@! TO.P,TP11,1*
G04 #@! TO.N,Net-(C33-Pad2)*
X166180000Y-81620000D03*
G04 #@! TD*
G04 #@! TO.P,TP12,1*
G04 #@! TO.N,Net-(R39-Pad2)*
X143510000Y-97955000D03*
G04 #@! TD*
G04 #@! TO.P,TP13,1*
G04 #@! TO.N,/volume_control/left_out_hot*
X162560000Y-53505000D03*
G04 #@! TD*
G04 #@! TO.P,TP14,1*
G04 #@! TO.N,/volume_control/left_out_cold*
X167005000Y-52870000D03*
G04 #@! TD*
D11*
G04 #@! TO.P,C2,2*
G04 #@! TO.N,Net-(C1-Pad1)*
X111125000Y-59530000D03*
G04 #@! TO.P,C2,1*
G04 #@! TO.N,Net-(C2-Pad1)*
X111125000Y-63030000D03*
G04 #@! TD*
G04 #@! TO.P,C4,2*
G04 #@! TO.N,Net-(C3-Pad1)*
X101600000Y-59530000D03*
G04 #@! TO.P,C4,1*
G04 #@! TO.N,Net-(C4-Pad1)*
X101600000Y-63030000D03*
G04 #@! TD*
G04 #@! TO.P,C10,1*
G04 #@! TO.N,Net-(C10-Pad1)*
X92075000Y-63030000D03*
G04 #@! TO.P,C10,2*
G04 #@! TO.N,Net-(C10-Pad2)*
X92075000Y-59530000D03*
G04 #@! TD*
G04 #@! TO.P,C12,1*
G04 #@! TO.N,Net-(C12-Pad1)*
X82550000Y-63030000D03*
G04 #@! TO.P,C12,2*
G04 #@! TO.N,Net-(C11-Pad1)*
X82550000Y-59530000D03*
G04 #@! TD*
G04 #@! TO.P,C26,2*
G04 #@! TO.N,Net-(C26-Pad2)*
X137160000Y-65490000D03*
G04 #@! TO.P,C26,1*
G04 #@! TO.N,Net-(C26-Pad1)*
X137160000Y-60490000D03*
G04 #@! TD*
G04 #@! TO.P,C27,1*
G04 #@! TO.N,Net-(C27-Pad1)*
X151765000Y-60490000D03*
G04 #@! TO.P,C27,2*
G04 #@! TO.N,Net-(C25-Pad1)*
X151765000Y-65490000D03*
G04 #@! TD*
G04 #@! TO.P,C33,1*
G04 #@! TO.N,Net-(C33-Pad1)*
X159305000Y-76365000D03*
G04 #@! TO.P,C33,2*
G04 #@! TO.N,Net-(C33-Pad2)*
X154305000Y-76365000D03*
G04 #@! TD*
G04 #@! TO.P,C34,2*
G04 #@! TO.N,Net-(C32-Pad1)*
X167640000Y-65490000D03*
G04 #@! TO.P,C34,1*
G04 #@! TO.N,Net-(C34-Pad1)*
X167640000Y-60490000D03*
G04 #@! TD*
D18*
G04 #@! TO.P,H1,1*
G04 #@! TO.N,GNDA*
X83185000Y-120815000D03*
G04 #@! TD*
G04 #@! TO.P,H2,1*
G04 #@! TO.N,GNDA*
X169200000Y-120815000D03*
G04 #@! TD*
G04 #@! TO.P,H3,1*
G04 #@! TO.N,GNDA*
X83200000Y-33800000D03*
G04 #@! TD*
G04 #@! TO.P,H4,1*
G04 #@! TO.N,GNDA*
X169200000Y-33800000D03*
G04 #@! TD*
D19*
G04 #@! TO.N,GNDA*
X81915000Y-50330000D03*
X89385000Y-50965000D03*
X101600000Y-50965000D03*
X109070000Y-50965000D03*
X104140000Y-78270000D03*
X93345000Y-79540000D03*
X122555000Y-82080000D03*
X130810000Y-88430000D03*
X131128745Y-78588595D03*
X123508745Y-76683595D03*
X149225000Y-51600000D03*
X143510000Y-51600000D03*
X169545000Y-51600000D03*
X161290000Y-51600000D03*
X158115000Y-90335000D03*
X149860000Y-87795000D03*
X158750000Y-100495000D03*
X156845000Y-101765000D03*
G04 #@! TO.N,Net-(C6-Pad1)*
X103505000Y-74460000D03*
G04 #@! TO.N,Net-(C13-Pad2)*
X91440000Y-73825000D03*
G04 #@! TO.N,Net-(C22-Pad2)*
X122555000Y-87160000D03*
X122555000Y-98590000D03*
G04 #@! TO.N,Net-(C25-Pad1)*
X136525000Y-70650000D03*
G04 #@! TO.N,Net-(C29-Pad2)*
X152400000Y-103035000D03*
X147955000Y-103035000D03*
G04 #@! TO.N,Net-(C30-Pad2)*
X147320000Y-89065000D03*
X147320000Y-95415000D03*
G04 #@! TO.N,Net-(C2-Pad1)*
X111125000Y-69380000D03*
G04 #@! TO.N,Net-(C4-Pad1)*
X101600000Y-68110000D03*
G04 #@! TO.N,Net-(C10-Pad1)*
X92075000Y-69380000D03*
G04 #@! TO.N,Net-(C26-Pad2)*
X123825000Y-66840000D03*
X139065000Y-91605000D03*
X139065000Y-97955000D03*
G04 #@! TD*
D20*
G04 #@! TO.N,/volume_control/right_in*
X108585000Y-98590000D02*
X108585000Y-99225000D01*
X103505000Y-93510000D02*
X108585000Y-98590000D01*
G04 #@! TO.N,Net-(C6-Pad1)*
X106680000Y-77635000D02*
X109855000Y-77635000D01*
X103505000Y-74460000D02*
X106680000Y-77635000D01*
G04 #@! TO.N,Net-(C13-Pad2)*
X91440000Y-73825000D02*
X83185000Y-82080000D01*
G04 #@! TO.N,/volume_control/left_in*
X86995000Y-94145000D02*
X89535000Y-91605000D01*
X86995000Y-99860000D02*
X86995000Y-94145000D01*
G04 #@! TO.N,Net-(C15-Pad2)*
X102280000Y-108070000D02*
X102280000Y-106640000D01*
X92888630Y-109385000D02*
X100965000Y-109385000D01*
X86995000Y-102360000D02*
X86995000Y-103491370D01*
X100965000Y-109385000D02*
X102280000Y-108070000D01*
X86995000Y-103491370D02*
X92888630Y-109385000D01*
G04 #@! TO.N,Net-(C22-Pad2)*
X122555000Y-87160000D02*
X122555000Y-98590000D01*
G04 #@! TO.N,Net-(C25-Pad1)*
X146605000Y-70650000D02*
X151765000Y-65490000D01*
X136525000Y-70650000D02*
X146605000Y-70650000D01*
G04 #@! TO.N,Net-(C29-Pad2)*
X147955000Y-103035000D02*
X152400000Y-103035000D01*
G04 #@! TO.N,Net-(C30-Pad2)*
X147320000Y-89065000D02*
X147320000Y-95415000D01*
G04 #@! TO.N,Net-(C2-Pad1)*
X111125000Y-69380000D02*
X111125000Y-63030000D01*
G04 #@! TO.N,Net-(C4-Pad1)*
X101600000Y-68110000D02*
X101600000Y-63030000D01*
G04 #@! TO.N,Net-(C10-Pad1)*
X92075000Y-69380000D02*
X92075000Y-63030000D01*
G04 #@! TO.N,Net-(C26-Pad2)*
X135810000Y-66840000D02*
X137160000Y-65490000D01*
X123825000Y-66840000D02*
X135810000Y-66840000D01*
X139065000Y-91605000D02*
X139065000Y-97955000D01*
G04 #@! TO.N,Net-(C33-Pad2)*
X159560000Y-81620000D02*
X154305000Y-76365000D01*
X166180000Y-81620000D02*
X159560000Y-81620000D01*
G04 #@! TD*
D21*
G04 #@! TO.N,GNDA*
G36*
X80356927Y-29403587D02*
X80226242Y-29490908D01*
X79701050Y-30121445D01*
X83200000Y-33620395D01*
X86698950Y-30121445D01*
X86173758Y-29490908D01*
X84868147Y-28927000D01*
X167558200Y-28927000D01*
X166356927Y-29403587D01*
X166226242Y-29490908D01*
X165701050Y-30121445D01*
X169200000Y-33620395D01*
X172698950Y-30121445D01*
X172173758Y-29490908D01*
X170868147Y-28927000D01*
X175001506Y-28927000D01*
X175001506Y-126673000D01*
X77255506Y-126673000D01*
X77255506Y-124493555D01*
X79686050Y-124493555D01*
X80211242Y-125124092D01*
X82086623Y-125934090D01*
X84129223Y-125964753D01*
X86028073Y-125211413D01*
X86158758Y-125124092D01*
X86683950Y-124493555D01*
X83185000Y-120994605D01*
X79686050Y-124493555D01*
X77255506Y-124493555D01*
X77255506Y-121759223D01*
X78035247Y-121759223D01*
X78788587Y-123658073D01*
X78875908Y-123788758D01*
X79506445Y-124313950D01*
X83005395Y-120815000D01*
X83364605Y-120815000D01*
X86863555Y-124313950D01*
X87494092Y-123788758D01*
X87752702Y-123190000D01*
X128092560Y-123190000D01*
X128092560Y-124790000D01*
X128141843Y-125037765D01*
X128282191Y-125247809D01*
X128492235Y-125388157D01*
X128740000Y-125437440D01*
X130340000Y-125437440D01*
X130587765Y-125388157D01*
X130797809Y-125247809D01*
X130938157Y-125037765D01*
X130987440Y-124790000D01*
X130987440Y-124493555D01*
X165701050Y-124493555D01*
X166226242Y-125124092D01*
X168101623Y-125934090D01*
X170144223Y-125964753D01*
X172043073Y-125211413D01*
X172173758Y-125124092D01*
X172698950Y-124493555D01*
X169200000Y-120994605D01*
X165701050Y-124493555D01*
X130987440Y-124493555D01*
X130987440Y-123190000D01*
X130938157Y-122942235D01*
X130797809Y-122732191D01*
X130587765Y-122591843D01*
X130487497Y-122571899D01*
X130756534Y-122302862D01*
X130975000Y-121775439D01*
X130975000Y-121759223D01*
X164050247Y-121759223D01*
X164803587Y-123658073D01*
X164890908Y-123788758D01*
X165521445Y-124313950D01*
X169020395Y-120815000D01*
X169379605Y-120815000D01*
X172878555Y-124313950D01*
X173509092Y-123788758D01*
X174319090Y-121913377D01*
X174349753Y-119870777D01*
X173596413Y-117971927D01*
X173509092Y-117841242D01*
X172878555Y-117316050D01*
X169379605Y-120815000D01*
X169020395Y-120815000D01*
X165521445Y-117316050D01*
X164890908Y-117841242D01*
X164080910Y-119716623D01*
X164050247Y-121759223D01*
X130975000Y-121759223D01*
X130975000Y-121204561D01*
X130756534Y-120677138D01*
X130352862Y-120273466D01*
X129825439Y-120055000D01*
X129254561Y-120055000D01*
X128727138Y-120273466D01*
X128323466Y-120677138D01*
X128105000Y-121204561D01*
X128105000Y-121775439D01*
X128323466Y-122302862D01*
X128592503Y-122571899D01*
X128492235Y-122591843D01*
X128282191Y-122732191D01*
X128141843Y-122942235D01*
X128092560Y-123190000D01*
X87752702Y-123190000D01*
X88304090Y-121913377D01*
X88334753Y-119870777D01*
X87581413Y-117971927D01*
X87494092Y-117841242D01*
X86863555Y-117316050D01*
X83364605Y-120815000D01*
X83005395Y-120815000D01*
X79506445Y-117316050D01*
X78875908Y-117841242D01*
X78065910Y-119716623D01*
X78035247Y-121759223D01*
X77255506Y-121759223D01*
X77255506Y-117136445D01*
X79686050Y-117136445D01*
X83185000Y-120635395D01*
X86683950Y-117136445D01*
X86158758Y-116505908D01*
X86086683Y-116474778D01*
X95565000Y-116474778D01*
X95565000Y-117125222D01*
X95813914Y-117726153D01*
X96273847Y-118186086D01*
X96874778Y-118435000D01*
X97525222Y-118435000D01*
X98126153Y-118186086D01*
X98470000Y-117842239D01*
X98813847Y-118186086D01*
X99414778Y-118435000D01*
X100065222Y-118435000D01*
X100666153Y-118186086D01*
X100899707Y-117952532D01*
X101307073Y-117952532D01*
X101405736Y-118219387D01*
X102015461Y-118445908D01*
X102665460Y-118421856D01*
X103154264Y-118219387D01*
X103252927Y-117952532D01*
X102280000Y-116979605D01*
X101307073Y-117952532D01*
X100899707Y-117952532D01*
X101092311Y-117759928D01*
X101127468Y-117772927D01*
X102100395Y-116800000D01*
X102459605Y-116800000D01*
X103432532Y-117772927D01*
X103699387Y-117674264D01*
X103925908Y-117064539D01*
X103901856Y-116414540D01*
X103699387Y-115925736D01*
X103432532Y-115827073D01*
X102459605Y-116800000D01*
X102100395Y-116800000D01*
X101127468Y-115827073D01*
X101092311Y-115840072D01*
X100899707Y-115647468D01*
X101307073Y-115647468D01*
X102280000Y-116620395D01*
X103252927Y-115647468D01*
X103154264Y-115380613D01*
X102544539Y-115154092D01*
X101894540Y-115178144D01*
X101405736Y-115380613D01*
X101307073Y-115647468D01*
X100899707Y-115647468D01*
X100666153Y-115413914D01*
X100065222Y-115165000D01*
X99414778Y-115165000D01*
X98813847Y-115413914D01*
X98470000Y-115757761D01*
X98126153Y-115413914D01*
X97525222Y-115165000D01*
X96874778Y-115165000D01*
X96273847Y-115413914D01*
X95813914Y-115873847D01*
X95565000Y-116474778D01*
X86086683Y-116474778D01*
X84283377Y-115695910D01*
X82240777Y-115665247D01*
X80341927Y-116418587D01*
X80211242Y-116505908D01*
X79686050Y-117136445D01*
X77255506Y-117136445D01*
X77255506Y-114300000D01*
X128092560Y-114300000D01*
X128092560Y-115900000D01*
X128141843Y-116147765D01*
X128282191Y-116357809D01*
X128492235Y-116498157D01*
X128740000Y-116547440D01*
X130340000Y-116547440D01*
X130587765Y-116498157D01*
X130622753Y-116474778D01*
X148565000Y-116474778D01*
X148565000Y-117125222D01*
X148813914Y-117726153D01*
X149273847Y-118186086D01*
X149874778Y-118435000D01*
X150525222Y-118435000D01*
X151126153Y-118186086D01*
X151470000Y-117842239D01*
X151813847Y-118186086D01*
X152414778Y-118435000D01*
X153065222Y-118435000D01*
X153666153Y-118186086D01*
X154010000Y-117842239D01*
X154353847Y-118186086D01*
X154954778Y-118435000D01*
X155605222Y-118435000D01*
X156206153Y-118186086D01*
X156666086Y-117726153D01*
X156910351Y-117136445D01*
X165701050Y-117136445D01*
X169200000Y-120635395D01*
X172698950Y-117136445D01*
X172173758Y-116505908D01*
X170298377Y-115695910D01*
X168255777Y-115665247D01*
X166356927Y-116418587D01*
X166226242Y-116505908D01*
X165701050Y-117136445D01*
X156910351Y-117136445D01*
X156915000Y-117125222D01*
X156915000Y-116474778D01*
X156666086Y-115873847D01*
X156206153Y-115413914D01*
X155605222Y-115165000D01*
X154954778Y-115165000D01*
X154353847Y-115413914D01*
X154010000Y-115757761D01*
X153666153Y-115413914D01*
X153065222Y-115165000D01*
X152414778Y-115165000D01*
X151813847Y-115413914D01*
X151470000Y-115757761D01*
X151126153Y-115413914D01*
X150525222Y-115165000D01*
X149874778Y-115165000D01*
X149273847Y-115413914D01*
X148813914Y-115873847D01*
X148565000Y-116474778D01*
X130622753Y-116474778D01*
X130797809Y-116357809D01*
X130938157Y-116147765D01*
X130987440Y-115900000D01*
X130987440Y-114300000D01*
X130938157Y-114052235D01*
X130797809Y-113842191D01*
X130587765Y-113701843D01*
X130487497Y-113681899D01*
X130756534Y-113412862D01*
X130975000Y-112885439D01*
X130975000Y-112314561D01*
X130756534Y-111787138D01*
X130352862Y-111383466D01*
X129825439Y-111165000D01*
X129254561Y-111165000D01*
X128727138Y-111383466D01*
X128323466Y-111787138D01*
X128105000Y-112314561D01*
X128105000Y-112885439D01*
X128323466Y-113412862D01*
X128592503Y-113681899D01*
X128492235Y-113701843D01*
X128282191Y-113842191D01*
X128141843Y-114052235D01*
X128092560Y-114300000D01*
X77255506Y-114300000D01*
X77255506Y-99060000D01*
X85547560Y-99060000D01*
X85547560Y-100660000D01*
X85596843Y-100907765D01*
X85737191Y-101117809D01*
X85947235Y-101258157D01*
X86047503Y-101278101D01*
X85778466Y-101547138D01*
X85560000Y-102074561D01*
X85560000Y-102645439D01*
X85778466Y-103172862D01*
X86182138Y-103576534D01*
X86241983Y-103601323D01*
X86279097Y-103787907D01*
X86447072Y-104039299D01*
X86510528Y-104081699D01*
X92298303Y-109869476D01*
X92340701Y-109932929D01*
X92404154Y-109975327D01*
X92404156Y-109975329D01*
X92529532Y-110059102D01*
X92592093Y-110100904D01*
X92813778Y-110145000D01*
X92813782Y-110145000D01*
X92888629Y-110159888D01*
X92963476Y-110145000D01*
X100890153Y-110145000D01*
X100965000Y-110159888D01*
X101039847Y-110145000D01*
X101039852Y-110145000D01*
X101261537Y-110100904D01*
X101512929Y-109932929D01*
X101555331Y-109869470D01*
X102764473Y-108660329D01*
X102827929Y-108617929D01*
X102888175Y-108527765D01*
X102995904Y-108366538D01*
X103016726Y-108261856D01*
X103040000Y-108144852D01*
X103040000Y-108144848D01*
X103050825Y-108090425D01*
X103206153Y-108026086D01*
X103666086Y-107566153D01*
X103915000Y-106965222D01*
X103915000Y-106680000D01*
X128092560Y-106680000D01*
X128092560Y-108280000D01*
X128141843Y-108527765D01*
X128282191Y-108737809D01*
X128492235Y-108878157D01*
X128740000Y-108927440D01*
X130340000Y-108927440D01*
X130587765Y-108878157D01*
X130797809Y-108737809D01*
X130938157Y-108527765D01*
X130987440Y-108280000D01*
X130987440Y-106680000D01*
X138252560Y-106680000D01*
X138252560Y-108280000D01*
X138301843Y-108527765D01*
X138442191Y-108737809D01*
X138652235Y-108878157D01*
X138900000Y-108927440D01*
X140500000Y-108927440D01*
X140747765Y-108878157D01*
X140957809Y-108737809D01*
X141098157Y-108527765D01*
X141147440Y-108280000D01*
X141147440Y-106680000D01*
X141098157Y-106432235D01*
X141019675Y-106314778D01*
X148565000Y-106314778D01*
X148565000Y-106965222D01*
X148813914Y-107566153D01*
X149273847Y-108026086D01*
X149874778Y-108275000D01*
X150525222Y-108275000D01*
X151126153Y-108026086D01*
X151470000Y-107682239D01*
X151813847Y-108026086D01*
X152414778Y-108275000D01*
X153065222Y-108275000D01*
X153666153Y-108026086D01*
X154010000Y-107682239D01*
X154353847Y-108026086D01*
X154954778Y-108275000D01*
X155605222Y-108275000D01*
X156206153Y-108026086D01*
X156666086Y-107566153D01*
X156915000Y-106965222D01*
X156915000Y-106314778D01*
X156666086Y-105713847D01*
X156206153Y-105253914D01*
X155605222Y-105005000D01*
X154954778Y-105005000D01*
X154353847Y-105253914D01*
X154010000Y-105597761D01*
X153666153Y-105253914D01*
X153065222Y-105005000D01*
X152414778Y-105005000D01*
X151813847Y-105253914D01*
X151470000Y-105597761D01*
X151126153Y-105253914D01*
X150525222Y-105005000D01*
X149874778Y-105005000D01*
X149273847Y-105253914D01*
X148813914Y-105713847D01*
X148565000Y-106314778D01*
X141019675Y-106314778D01*
X140957809Y-106222191D01*
X140948409Y-106215910D01*
X141135000Y-105765439D01*
X141135000Y-105194561D01*
X140916534Y-104667138D01*
X140512862Y-104263466D01*
X139985439Y-104045000D01*
X139414561Y-104045000D01*
X138887138Y-104263466D01*
X138483466Y-104667138D01*
X138265000Y-105194561D01*
X138265000Y-105765439D01*
X138451591Y-106215910D01*
X138442191Y-106222191D01*
X138301843Y-106432235D01*
X138252560Y-106680000D01*
X130987440Y-106680000D01*
X130938157Y-106432235D01*
X130797809Y-106222191D01*
X130788409Y-106215910D01*
X130975000Y-105765439D01*
X130975000Y-105194561D01*
X130756534Y-104667138D01*
X130352862Y-104263466D01*
X129825439Y-104045000D01*
X129254561Y-104045000D01*
X128727138Y-104263466D01*
X128323466Y-104667138D01*
X128105000Y-105194561D01*
X128105000Y-105765439D01*
X128291591Y-106215910D01*
X128282191Y-106222191D01*
X128141843Y-106432235D01*
X128092560Y-106680000D01*
X103915000Y-106680000D01*
X103915000Y-106314778D01*
X103666086Y-105713847D01*
X103206153Y-105253914D01*
X102605222Y-105005000D01*
X101954778Y-105005000D01*
X101353847Y-105253914D01*
X101010000Y-105597761D01*
X100666153Y-105253914D01*
X100065222Y-105005000D01*
X99414778Y-105005000D01*
X98813847Y-105253914D01*
X98387689Y-105680072D01*
X98352532Y-105667073D01*
X97379605Y-106640000D01*
X98352532Y-107612927D01*
X98387689Y-107599928D01*
X98813847Y-108026086D01*
X99414778Y-108275000D01*
X100065222Y-108275000D01*
X100666153Y-108026086D01*
X101010000Y-107682239D01*
X101301480Y-107973719D01*
X100650199Y-108625000D01*
X93203433Y-108625000D01*
X92370965Y-107792532D01*
X96227073Y-107792532D01*
X96325736Y-108059387D01*
X96935461Y-108285908D01*
X97585460Y-108261856D01*
X98074264Y-108059387D01*
X98172927Y-107792532D01*
X97200000Y-106819605D01*
X96227073Y-107792532D01*
X92370965Y-107792532D01*
X90953894Y-106375461D01*
X95554092Y-106375461D01*
X95578144Y-107025460D01*
X95780613Y-107514264D01*
X96047468Y-107612927D01*
X97020395Y-106640000D01*
X96047468Y-105667073D01*
X95780613Y-105765736D01*
X95554092Y-106375461D01*
X90953894Y-106375461D01*
X90065901Y-105487468D01*
X96227073Y-105487468D01*
X97200000Y-106460395D01*
X98172927Y-105487468D01*
X98074264Y-105220613D01*
X97464539Y-104994092D01*
X96814540Y-105018144D01*
X96325736Y-105220613D01*
X96227073Y-105487468D01*
X90065901Y-105487468D01*
X87981414Y-103402982D01*
X88211534Y-103172862D01*
X88430000Y-102645439D01*
X88430000Y-102074561D01*
X88211534Y-101547138D01*
X87942497Y-101278101D01*
X88042765Y-101258157D01*
X88252809Y-101117809D01*
X88393157Y-100907765D01*
X88442440Y-100660000D01*
X88442440Y-99060000D01*
X88393157Y-98812235D01*
X88252809Y-98602191D01*
X88042765Y-98461843D01*
X87795000Y-98412560D01*
X87755000Y-98412560D01*
X87755000Y-94459801D01*
X89043625Y-93171177D01*
X89209778Y-93240000D01*
X89860222Y-93240000D01*
X89993539Y-93184778D01*
X101870000Y-93184778D01*
X101870000Y-93835222D01*
X102118914Y-94436153D01*
X102578847Y-94896086D01*
X103179778Y-95145000D01*
X103830222Y-95145000D01*
X103996376Y-95076177D01*
X107172009Y-98251811D01*
X107137560Y-98425000D01*
X107137560Y-100025000D01*
X107186843Y-100272765D01*
X107327191Y-100482809D01*
X107537235Y-100623157D01*
X107637503Y-100643101D01*
X107368466Y-100912138D01*
X107150000Y-101439561D01*
X107150000Y-102010439D01*
X107368466Y-102537862D01*
X107772138Y-102941534D01*
X108299561Y-103160000D01*
X108870439Y-103160000D01*
X109397862Y-102941534D01*
X109510270Y-102829126D01*
X146920000Y-102829126D01*
X146920000Y-103240874D01*
X147077569Y-103621280D01*
X147368720Y-103912431D01*
X147749126Y-104070000D01*
X148160874Y-104070000D01*
X148541280Y-103912431D01*
X148658711Y-103795000D01*
X151696289Y-103795000D01*
X151813720Y-103912431D01*
X152194126Y-104070000D01*
X152605874Y-104070000D01*
X152986280Y-103912431D01*
X153277431Y-103621280D01*
X153435000Y-103240874D01*
X153435000Y-102829126D01*
X153277431Y-102448720D01*
X152986280Y-102157569D01*
X152605874Y-102000000D01*
X152194126Y-102000000D01*
X151813720Y-102157569D01*
X151696289Y-102275000D01*
X148658711Y-102275000D01*
X148541280Y-102157569D01*
X148160874Y-102000000D01*
X147749126Y-102000000D01*
X147368720Y-102157569D01*
X147077569Y-102448720D01*
X146920000Y-102829126D01*
X109510270Y-102829126D01*
X109801534Y-102537862D01*
X110020000Y-102010439D01*
X110020000Y-101439561D01*
X109801534Y-100912138D01*
X109532497Y-100643101D01*
X109632765Y-100623157D01*
X109842809Y-100482809D01*
X109983157Y-100272765D01*
X110032440Y-100025000D01*
X110032440Y-98425000D01*
X109983157Y-98177235D01*
X109842809Y-97967191D01*
X109632765Y-97826843D01*
X109385000Y-97777560D01*
X108847362Y-97777560D01*
X105071177Y-94001376D01*
X105140000Y-93835222D01*
X105140000Y-93184778D01*
X104891086Y-92583847D01*
X104431153Y-92123914D01*
X103830222Y-91875000D01*
X103179778Y-91875000D01*
X102578847Y-92123914D01*
X102118914Y-92583847D01*
X101870000Y-93184778D01*
X89993539Y-93184778D01*
X90461153Y-92991086D01*
X90921086Y-92531153D01*
X91170000Y-91930222D01*
X91170000Y-91279778D01*
X90921086Y-90678847D01*
X90887017Y-90644778D01*
X118380000Y-90644778D01*
X118380000Y-91295222D01*
X118628914Y-91896153D01*
X119088847Y-92356086D01*
X119689778Y-92605000D01*
X120340222Y-92605000D01*
X120941153Y-92356086D01*
X121401086Y-91896153D01*
X121650000Y-91295222D01*
X121650000Y-90644778D01*
X121401086Y-90043847D01*
X120941153Y-89583914D01*
X120340222Y-89335000D01*
X119689778Y-89335000D01*
X119088847Y-89583914D01*
X118628914Y-90043847D01*
X118380000Y-90644778D01*
X90887017Y-90644778D01*
X90461153Y-90218914D01*
X89860222Y-89970000D01*
X89209778Y-89970000D01*
X88608847Y-90218914D01*
X88148914Y-90678847D01*
X87900000Y-91279778D01*
X87900000Y-91930222D01*
X87968823Y-92096375D01*
X86510528Y-93554671D01*
X86447072Y-93597071D01*
X86404672Y-93660527D01*
X86404671Y-93660528D01*
X86279097Y-93848463D01*
X86220112Y-94145000D01*
X86235001Y-94219852D01*
X86235000Y-98412560D01*
X86195000Y-98412560D01*
X85947235Y-98461843D01*
X85737191Y-98602191D01*
X85596843Y-98812235D01*
X85547560Y-99060000D01*
X77255506Y-99060000D01*
X77255506Y-85564778D01*
X109490000Y-85564778D01*
X109490000Y-86215222D01*
X109738914Y-86816153D01*
X110198847Y-87276086D01*
X110799778Y-87525000D01*
X111450222Y-87525000D01*
X112051153Y-87276086D01*
X112373113Y-86954126D01*
X121520000Y-86954126D01*
X121520000Y-87365874D01*
X121677569Y-87746280D01*
X121795000Y-87863711D01*
X121795001Y-97886288D01*
X121677569Y-98003720D01*
X121520000Y-98384126D01*
X121520000Y-98795874D01*
X121677569Y-99176280D01*
X121968720Y-99467431D01*
X122349126Y-99625000D01*
X122760874Y-99625000D01*
X123141280Y-99467431D01*
X123432431Y-99176280D01*
X123590000Y-98795874D01*
X123590000Y-98384126D01*
X123432431Y-98003720D01*
X123315000Y-97886289D01*
X123315000Y-91399126D01*
X138030000Y-91399126D01*
X138030000Y-91810874D01*
X138187569Y-92191280D01*
X138305000Y-92308711D01*
X138305001Y-97251288D01*
X138187569Y-97368720D01*
X138030000Y-97749126D01*
X138030000Y-98160874D01*
X138187569Y-98541280D01*
X138478720Y-98832431D01*
X138859126Y-98990000D01*
X139270874Y-98990000D01*
X139651280Y-98832431D01*
X139942431Y-98541280D01*
X140100000Y-98160874D01*
X140100000Y-97749126D01*
X140050565Y-97629778D01*
X141875000Y-97629778D01*
X141875000Y-98280222D01*
X142123914Y-98881153D01*
X142583847Y-99341086D01*
X143184778Y-99590000D01*
X143835222Y-99590000D01*
X144436153Y-99341086D01*
X144896086Y-98881153D01*
X145145000Y-98280222D01*
X145145000Y-97629778D01*
X144896086Y-97028847D01*
X144436153Y-96568914D01*
X143835222Y-96320000D01*
X143184778Y-96320000D01*
X142583847Y-96568914D01*
X142123914Y-97028847D01*
X141875000Y-97629778D01*
X140050565Y-97629778D01*
X139942431Y-97368720D01*
X139825000Y-97251289D01*
X139825000Y-92308711D01*
X139942431Y-92191280D01*
X140100000Y-91810874D01*
X140100000Y-91399126D01*
X139942431Y-91018720D01*
X139651280Y-90727569D01*
X139270874Y-90570000D01*
X138859126Y-90570000D01*
X138478720Y-90727569D01*
X138187569Y-91018720D01*
X138030000Y-91399126D01*
X123315000Y-91399126D01*
X123315000Y-88859126D01*
X146285000Y-88859126D01*
X146285000Y-89270874D01*
X146442569Y-89651280D01*
X146560000Y-89768711D01*
X146560001Y-94711288D01*
X146442569Y-94828720D01*
X146285000Y-95209126D01*
X146285000Y-95620874D01*
X146442569Y-96001280D01*
X146733720Y-96292431D01*
X147114126Y-96450000D01*
X147525874Y-96450000D01*
X147906280Y-96292431D01*
X148197431Y-96001280D01*
X148355000Y-95620874D01*
X148355000Y-95209126D01*
X148197431Y-94828720D01*
X148080000Y-94711289D01*
X148080000Y-89768711D01*
X148197431Y-89651280D01*
X148355000Y-89270874D01*
X148355000Y-88859126D01*
X148197431Y-88478720D01*
X147906280Y-88187569D01*
X147525874Y-88030000D01*
X147114126Y-88030000D01*
X146733720Y-88187569D01*
X146442569Y-88478720D01*
X146285000Y-88859126D01*
X123315000Y-88859126D01*
X123315000Y-87863711D01*
X123432431Y-87746280D01*
X123590000Y-87365874D01*
X123590000Y-86954126D01*
X123432431Y-86573720D01*
X123141280Y-86282569D01*
X122760874Y-86125000D01*
X122349126Y-86125000D01*
X121968720Y-86282569D01*
X121677569Y-86573720D01*
X121520000Y-86954126D01*
X112373113Y-86954126D01*
X112511086Y-86816153D01*
X112760000Y-86215222D01*
X112760000Y-85564778D01*
X112511086Y-84963847D01*
X112051153Y-84503914D01*
X111450222Y-84255000D01*
X110799778Y-84255000D01*
X110198847Y-84503914D01*
X109738914Y-84963847D01*
X109490000Y-85564778D01*
X77255506Y-85564778D01*
X77255506Y-81754778D01*
X81550000Y-81754778D01*
X81550000Y-82405222D01*
X81798914Y-83006153D01*
X82258847Y-83466086D01*
X82859778Y-83715000D01*
X83510222Y-83715000D01*
X84111153Y-83466086D01*
X84571086Y-83006153D01*
X84820000Y-82405222D01*
X84820000Y-81754778D01*
X84751177Y-81588624D01*
X86490023Y-79849778D01*
X140605000Y-79849778D01*
X140605000Y-80500222D01*
X140853914Y-81101153D01*
X141313847Y-81561086D01*
X141914778Y-81810000D01*
X142565222Y-81810000D01*
X143166153Y-81561086D01*
X143626086Y-81101153D01*
X143875000Y-80500222D01*
X143875000Y-79849778D01*
X143626086Y-79248847D01*
X143166153Y-78788914D01*
X142565222Y-78540000D01*
X141914778Y-78540000D01*
X141313847Y-78788914D01*
X140853914Y-79248847D01*
X140605000Y-79849778D01*
X86490023Y-79849778D01*
X91479802Y-74860000D01*
X91645874Y-74860000D01*
X92026280Y-74702431D01*
X92317431Y-74411280D01*
X92382526Y-74254126D01*
X102470000Y-74254126D01*
X102470000Y-74665874D01*
X102627569Y-75046280D01*
X102918720Y-75337431D01*
X103299126Y-75495000D01*
X103465199Y-75495000D01*
X106089671Y-78119473D01*
X106132071Y-78182929D01*
X106383463Y-78350904D01*
X106605148Y-78395000D01*
X106605152Y-78395000D01*
X106679999Y-78409888D01*
X106754846Y-78395000D01*
X108400091Y-78395000D01*
X108468914Y-78561153D01*
X108928847Y-79021086D01*
X109529778Y-79270000D01*
X110180222Y-79270000D01*
X110781153Y-79021086D01*
X111241086Y-78561153D01*
X111490000Y-77960222D01*
X111490000Y-77309778D01*
X111241086Y-76708847D01*
X110781153Y-76248914D01*
X110372300Y-76079561D01*
X152870000Y-76079561D01*
X152870000Y-76650439D01*
X153088466Y-77177862D01*
X153492138Y-77581534D01*
X154019561Y-77800000D01*
X154590439Y-77800000D01*
X154643302Y-77778103D01*
X158969671Y-82104473D01*
X159012071Y-82167929D01*
X159263463Y-82335904D01*
X159485148Y-82380000D01*
X159485152Y-82380000D01*
X159559999Y-82394888D01*
X159634846Y-82380000D01*
X164725091Y-82380000D01*
X164793914Y-82546153D01*
X165253847Y-83006086D01*
X165854778Y-83255000D01*
X166505222Y-83255000D01*
X167106153Y-83006086D01*
X167566086Y-82546153D01*
X167815000Y-81945222D01*
X167815000Y-81294778D01*
X167566086Y-80693847D01*
X167106153Y-80233914D01*
X166505222Y-79985000D01*
X165854778Y-79985000D01*
X165253847Y-80233914D01*
X164793914Y-80693847D01*
X164725091Y-80860000D01*
X159874802Y-80860000D01*
X155718103Y-76703302D01*
X155740000Y-76650439D01*
X155740000Y-76079561D01*
X157870000Y-76079561D01*
X157870000Y-76650439D01*
X158088466Y-77177862D01*
X158492138Y-77581534D01*
X159019561Y-77800000D01*
X159590439Y-77800000D01*
X160117862Y-77581534D01*
X160521534Y-77177862D01*
X160740000Y-76650439D01*
X160740000Y-76079561D01*
X160521534Y-75552138D01*
X160117862Y-75148466D01*
X159590439Y-74930000D01*
X159019561Y-74930000D01*
X158492138Y-75148466D01*
X158088466Y-75552138D01*
X157870000Y-76079561D01*
X155740000Y-76079561D01*
X155521534Y-75552138D01*
X155117862Y-75148466D01*
X154590439Y-74930000D01*
X154019561Y-74930000D01*
X153492138Y-75148466D01*
X153088466Y-75552138D01*
X152870000Y-76079561D01*
X110372300Y-76079561D01*
X110180222Y-76000000D01*
X109529778Y-76000000D01*
X108928847Y-76248914D01*
X108468914Y-76708847D01*
X108400091Y-76875000D01*
X106994802Y-76875000D01*
X104540000Y-74420199D01*
X104540000Y-74254126D01*
X104382431Y-73873720D01*
X104091280Y-73582569D01*
X103710874Y-73425000D01*
X103299126Y-73425000D01*
X102918720Y-73582569D01*
X102627569Y-73873720D01*
X102470000Y-74254126D01*
X92382526Y-74254126D01*
X92475000Y-74030874D01*
X92475000Y-73619126D01*
X92317431Y-73238720D01*
X92026280Y-72947569D01*
X91645874Y-72790000D01*
X91234126Y-72790000D01*
X90853720Y-72947569D01*
X90562569Y-73238720D01*
X90405000Y-73619126D01*
X90405000Y-73785198D01*
X83676376Y-80513823D01*
X83510222Y-80445000D01*
X82859778Y-80445000D01*
X82258847Y-80693914D01*
X81798914Y-81153847D01*
X81550000Y-81754778D01*
X77255506Y-81754778D01*
X77255506Y-70444126D01*
X135490000Y-70444126D01*
X135490000Y-70855874D01*
X135647569Y-71236280D01*
X135938720Y-71527431D01*
X136319126Y-71685000D01*
X136730874Y-71685000D01*
X137111280Y-71527431D01*
X137228711Y-71410000D01*
X146530153Y-71410000D01*
X146605000Y-71424888D01*
X146679847Y-71410000D01*
X146679852Y-71410000D01*
X146901537Y-71365904D01*
X147152929Y-71197929D01*
X147195331Y-71134470D01*
X151426698Y-66903104D01*
X151479561Y-66925000D01*
X152050439Y-66925000D01*
X152577862Y-66706534D01*
X152981534Y-66302862D01*
X153200000Y-65775439D01*
X153200000Y-65204561D01*
X166205000Y-65204561D01*
X166205000Y-65775439D01*
X166423466Y-66302862D01*
X166827138Y-66706534D01*
X167354561Y-66925000D01*
X167925439Y-66925000D01*
X168452862Y-66706534D01*
X168856534Y-66302862D01*
X169075000Y-65775439D01*
X169075000Y-65204561D01*
X168856534Y-64677138D01*
X168452862Y-64273466D01*
X167925439Y-64055000D01*
X167354561Y-64055000D01*
X166827138Y-64273466D01*
X166423466Y-64677138D01*
X166205000Y-65204561D01*
X153200000Y-65204561D01*
X152981534Y-64677138D01*
X152577862Y-64273466D01*
X152050439Y-64055000D01*
X151479561Y-64055000D01*
X150952138Y-64273466D01*
X150548466Y-64677138D01*
X150330000Y-65204561D01*
X150330000Y-65775439D01*
X150351896Y-65828302D01*
X146290199Y-69890000D01*
X137228711Y-69890000D01*
X137111280Y-69772569D01*
X136730874Y-69615000D01*
X136319126Y-69615000D01*
X135938720Y-69772569D01*
X135647569Y-70063720D01*
X135490000Y-70444126D01*
X77255506Y-70444126D01*
X77255506Y-68419778D01*
X80280000Y-68419778D01*
X80280000Y-69070222D01*
X80528914Y-69671153D01*
X80988847Y-70131086D01*
X81589778Y-70380000D01*
X82240222Y-70380000D01*
X82841153Y-70131086D01*
X83301086Y-69671153D01*
X83550000Y-69070222D01*
X83550000Y-68419778D01*
X83301086Y-67818847D01*
X82841153Y-67358914D01*
X82240222Y-67110000D01*
X81589778Y-67110000D01*
X80988847Y-67358914D01*
X80528914Y-67818847D01*
X80280000Y-68419778D01*
X77255506Y-68419778D01*
X77255506Y-62744561D01*
X81115000Y-62744561D01*
X81115000Y-63315439D01*
X81333466Y-63842862D01*
X81737138Y-64246534D01*
X82264561Y-64465000D01*
X82835439Y-64465000D01*
X83362862Y-64246534D01*
X83766534Y-63842862D01*
X83985000Y-63315439D01*
X83985000Y-62744561D01*
X90640000Y-62744561D01*
X90640000Y-63315439D01*
X90858466Y-63842862D01*
X91262138Y-64246534D01*
X91315001Y-64268431D01*
X91315000Y-68676289D01*
X91197569Y-68793720D01*
X91040000Y-69174126D01*
X91040000Y-69585874D01*
X91197569Y-69966280D01*
X91488720Y-70257431D01*
X91869126Y-70415000D01*
X92280874Y-70415000D01*
X92661280Y-70257431D01*
X92952431Y-69966280D01*
X93110000Y-69585874D01*
X93110000Y-69174126D01*
X92952431Y-68793720D01*
X92835000Y-68676289D01*
X92835000Y-64268430D01*
X92887862Y-64246534D01*
X93291534Y-63842862D01*
X93510000Y-63315439D01*
X93510000Y-62744561D01*
X100165000Y-62744561D01*
X100165000Y-63315439D01*
X100383466Y-63842862D01*
X100787138Y-64246534D01*
X100840001Y-64268430D01*
X100840000Y-67406289D01*
X100722569Y-67523720D01*
X100565000Y-67904126D01*
X100565000Y-68315874D01*
X100722569Y-68696280D01*
X101013720Y-68987431D01*
X101394126Y-69145000D01*
X101805874Y-69145000D01*
X102186280Y-68987431D01*
X102477431Y-68696280D01*
X102635000Y-68315874D01*
X102635000Y-67904126D01*
X102477431Y-67523720D01*
X102360000Y-67406289D01*
X102360000Y-64268430D01*
X102412862Y-64246534D01*
X102816534Y-63842862D01*
X103035000Y-63315439D01*
X103035000Y-62744561D01*
X109690000Y-62744561D01*
X109690000Y-63315439D01*
X109908466Y-63842862D01*
X110312138Y-64246534D01*
X110365001Y-64268431D01*
X110365000Y-68676289D01*
X110247569Y-68793720D01*
X110090000Y-69174126D01*
X110090000Y-69585874D01*
X110247569Y-69966280D01*
X110538720Y-70257431D01*
X110919126Y-70415000D01*
X111330874Y-70415000D01*
X111711280Y-70257431D01*
X112002431Y-69966280D01*
X112160000Y-69585874D01*
X112160000Y-69174126D01*
X112002431Y-68793720D01*
X111885000Y-68676289D01*
X111885000Y-66634126D01*
X122790000Y-66634126D01*
X122790000Y-67045874D01*
X122947569Y-67426280D01*
X123238720Y-67717431D01*
X123619126Y-67875000D01*
X124030874Y-67875000D01*
X124411280Y-67717431D01*
X124528711Y-67600000D01*
X135735153Y-67600000D01*
X135810000Y-67614888D01*
X135884847Y-67600000D01*
X135884852Y-67600000D01*
X136106537Y-67555904D01*
X136357929Y-67387929D01*
X136400331Y-67324470D01*
X136821698Y-66903103D01*
X136874561Y-66925000D01*
X137445439Y-66925000D01*
X137972862Y-66706534D01*
X138376534Y-66302862D01*
X138595000Y-65775439D01*
X138595000Y-65204561D01*
X138376534Y-64677138D01*
X137972862Y-64273466D01*
X137445439Y-64055000D01*
X136874561Y-64055000D01*
X136347138Y-64273466D01*
X135943466Y-64677138D01*
X135725000Y-65204561D01*
X135725000Y-65775439D01*
X135746897Y-65828302D01*
X135495199Y-66080000D01*
X124528711Y-66080000D01*
X124411280Y-65962569D01*
X124030874Y-65805000D01*
X123619126Y-65805000D01*
X123238720Y-65962569D01*
X122947569Y-66253720D01*
X122790000Y-66634126D01*
X111885000Y-66634126D01*
X111885000Y-64268430D01*
X111937862Y-64246534D01*
X112341534Y-63842862D01*
X112560000Y-63315439D01*
X112560000Y-62744561D01*
X112341534Y-62217138D01*
X111937862Y-61813466D01*
X111410439Y-61595000D01*
X110839561Y-61595000D01*
X110312138Y-61813466D01*
X109908466Y-62217138D01*
X109690000Y-62744561D01*
X103035000Y-62744561D01*
X102816534Y-62217138D01*
X102412862Y-61813466D01*
X101885439Y-61595000D01*
X101314561Y-61595000D01*
X100787138Y-61813466D01*
X100383466Y-62217138D01*
X100165000Y-62744561D01*
X93510000Y-62744561D01*
X93291534Y-62217138D01*
X92887862Y-61813466D01*
X92360439Y-61595000D01*
X91789561Y-61595000D01*
X91262138Y-61813466D01*
X90858466Y-62217138D01*
X90640000Y-62744561D01*
X83985000Y-62744561D01*
X83766534Y-62217138D01*
X83362862Y-61813466D01*
X82835439Y-61595000D01*
X82264561Y-61595000D01*
X81737138Y-61813466D01*
X81333466Y-62217138D01*
X81115000Y-62744561D01*
X77255506Y-62744561D01*
X77255506Y-59244561D01*
X81115000Y-59244561D01*
X81115000Y-59815439D01*
X81333466Y-60342862D01*
X81737138Y-60746534D01*
X82264561Y-60965000D01*
X82835439Y-60965000D01*
X83362862Y-60746534D01*
X83766534Y-60342862D01*
X83985000Y-59815439D01*
X83985000Y-59244561D01*
X90640000Y-59244561D01*
X90640000Y-59815439D01*
X90858466Y-60342862D01*
X91262138Y-60746534D01*
X91789561Y-60965000D01*
X92360439Y-60965000D01*
X92887862Y-60746534D01*
X93291534Y-60342862D01*
X93510000Y-59815439D01*
X93510000Y-59244561D01*
X100165000Y-59244561D01*
X100165000Y-59815439D01*
X100383466Y-60342862D01*
X100787138Y-60746534D01*
X101314561Y-60965000D01*
X101885439Y-60965000D01*
X102412862Y-60746534D01*
X102816534Y-60342862D01*
X103035000Y-59815439D01*
X103035000Y-59244561D01*
X109690000Y-59244561D01*
X109690000Y-59815439D01*
X109908466Y-60342862D01*
X110312138Y-60746534D01*
X110839561Y-60965000D01*
X111410439Y-60965000D01*
X111937862Y-60746534D01*
X112341534Y-60342862D01*
X112398820Y-60204561D01*
X135725000Y-60204561D01*
X135725000Y-60775439D01*
X135943466Y-61302862D01*
X136347138Y-61706534D01*
X136874561Y-61925000D01*
X137445439Y-61925000D01*
X137972862Y-61706534D01*
X138376534Y-61302862D01*
X138595000Y-60775439D01*
X138595000Y-60204561D01*
X150330000Y-60204561D01*
X150330000Y-60775439D01*
X150548466Y-61302862D01*
X150952138Y-61706534D01*
X151479561Y-61925000D01*
X152050439Y-61925000D01*
X152577862Y-61706534D01*
X152981534Y-61302862D01*
X153200000Y-60775439D01*
X153200000Y-60204561D01*
X166205000Y-60204561D01*
X166205000Y-60775439D01*
X166423466Y-61302862D01*
X166827138Y-61706534D01*
X167354561Y-61925000D01*
X167925439Y-61925000D01*
X168452862Y-61706534D01*
X168856534Y-61302862D01*
X169075000Y-60775439D01*
X169075000Y-60204561D01*
X168856534Y-59677138D01*
X168452862Y-59273466D01*
X167925439Y-59055000D01*
X167354561Y-59055000D01*
X166827138Y-59273466D01*
X166423466Y-59677138D01*
X166205000Y-60204561D01*
X153200000Y-60204561D01*
X152981534Y-59677138D01*
X152577862Y-59273466D01*
X152050439Y-59055000D01*
X151479561Y-59055000D01*
X150952138Y-59273466D01*
X150548466Y-59677138D01*
X150330000Y-60204561D01*
X138595000Y-60204561D01*
X138376534Y-59677138D01*
X137972862Y-59273466D01*
X137445439Y-59055000D01*
X136874561Y-59055000D01*
X136347138Y-59273466D01*
X135943466Y-59677138D01*
X135725000Y-60204561D01*
X112398820Y-60204561D01*
X112560000Y-59815439D01*
X112560000Y-59244561D01*
X112341534Y-58717138D01*
X111937862Y-58313466D01*
X111410439Y-58095000D01*
X110839561Y-58095000D01*
X110312138Y-58313466D01*
X109908466Y-58717138D01*
X109690000Y-59244561D01*
X103035000Y-59244561D01*
X102816534Y-58717138D01*
X102412862Y-58313466D01*
X101885439Y-58095000D01*
X101314561Y-58095000D01*
X100787138Y-58313466D01*
X100383466Y-58717138D01*
X100165000Y-59244561D01*
X93510000Y-59244561D01*
X93291534Y-58717138D01*
X92887862Y-58313466D01*
X92360439Y-58095000D01*
X91789561Y-58095000D01*
X91262138Y-58313466D01*
X90858466Y-58717138D01*
X90640000Y-59244561D01*
X83985000Y-59244561D01*
X83766534Y-58717138D01*
X83362862Y-58313466D01*
X82835439Y-58095000D01*
X82264561Y-58095000D01*
X81737138Y-58313466D01*
X81333466Y-58717138D01*
X81115000Y-59244561D01*
X77255506Y-59244561D01*
X77255506Y-54512745D01*
X116686861Y-54512745D01*
X116760995Y-54758864D01*
X117298223Y-54951965D01*
X117868454Y-54924778D01*
X118269005Y-54758864D01*
X118343139Y-54512745D01*
X117515000Y-53684605D01*
X116686861Y-54512745D01*
X77255506Y-54512745D01*
X77255506Y-53288223D01*
X116068035Y-53288223D01*
X116095222Y-53858454D01*
X116261136Y-54259005D01*
X116507255Y-54333139D01*
X117335395Y-53505000D01*
X117694605Y-53505000D01*
X118522745Y-54333139D01*
X118570307Y-54318813D01*
X118616843Y-54552765D01*
X118757191Y-54762809D01*
X118967235Y-54903157D01*
X119215000Y-54952440D01*
X120815000Y-54952440D01*
X121062765Y-54903157D01*
X121272809Y-54762809D01*
X121413157Y-54552765D01*
X121462440Y-54305000D01*
X121462440Y-53219561D01*
X127510000Y-53219561D01*
X127510000Y-53790439D01*
X127728466Y-54317862D01*
X128132138Y-54721534D01*
X128659561Y-54940000D01*
X129230439Y-54940000D01*
X129757862Y-54721534D01*
X130021155Y-54458241D01*
X130106673Y-54664699D01*
X130285302Y-54843327D01*
X130518691Y-54940000D01*
X131159250Y-54940000D01*
X131318000Y-54781250D01*
X131318000Y-53632000D01*
X131572000Y-53632000D01*
X131572000Y-54781250D01*
X131730750Y-54940000D01*
X132371309Y-54940000D01*
X132604698Y-54843327D01*
X132783327Y-54664699D01*
X132880000Y-54431310D01*
X132880000Y-53814778D01*
X141240000Y-53814778D01*
X141240000Y-54465222D01*
X141488914Y-55066153D01*
X141948847Y-55526086D01*
X142549778Y-55775000D01*
X143200222Y-55775000D01*
X143801153Y-55526086D01*
X144261086Y-55066153D01*
X144510000Y-54465222D01*
X144510000Y-53814778D01*
X145685000Y-53814778D01*
X145685000Y-54465222D01*
X145933914Y-55066153D01*
X146393847Y-55526086D01*
X146994778Y-55775000D01*
X147645222Y-55775000D01*
X148246153Y-55526086D01*
X148706086Y-55066153D01*
X148955000Y-54465222D01*
X148955000Y-53814778D01*
X148706086Y-53213847D01*
X148672017Y-53179778D01*
X160925000Y-53179778D01*
X160925000Y-53830222D01*
X161173914Y-54431153D01*
X161633847Y-54891086D01*
X162234778Y-55140000D01*
X162885222Y-55140000D01*
X163486153Y-54891086D01*
X163946086Y-54431153D01*
X164195000Y-53830222D01*
X164195000Y-53179778D01*
X163946086Y-52578847D01*
X163912017Y-52544778D01*
X165370000Y-52544778D01*
X165370000Y-53195222D01*
X165618914Y-53796153D01*
X166078847Y-54256086D01*
X166679778Y-54505000D01*
X167330222Y-54505000D01*
X167931153Y-54256086D01*
X168391086Y-53796153D01*
X168640000Y-53195222D01*
X168640000Y-52544778D01*
X168391086Y-51943847D01*
X167931153Y-51483914D01*
X167330222Y-51235000D01*
X166679778Y-51235000D01*
X166078847Y-51483914D01*
X165618914Y-51943847D01*
X165370000Y-52544778D01*
X163912017Y-52544778D01*
X163486153Y-52118914D01*
X162885222Y-51870000D01*
X162234778Y-51870000D01*
X161633847Y-52118914D01*
X161173914Y-52578847D01*
X160925000Y-53179778D01*
X148672017Y-53179778D01*
X148246153Y-52753914D01*
X147645222Y-52505000D01*
X146994778Y-52505000D01*
X146393847Y-52753914D01*
X145933914Y-53213847D01*
X145685000Y-53814778D01*
X144510000Y-53814778D01*
X144261086Y-53213847D01*
X143801153Y-52753914D01*
X143200222Y-52505000D01*
X142549778Y-52505000D01*
X141948847Y-52753914D01*
X141488914Y-53213847D01*
X141240000Y-53814778D01*
X132880000Y-53814778D01*
X132880000Y-53790750D01*
X132721250Y-53632000D01*
X131572000Y-53632000D01*
X131318000Y-53632000D01*
X131298000Y-53632000D01*
X131298000Y-53378000D01*
X131318000Y-53378000D01*
X131318000Y-52228750D01*
X131572000Y-52228750D01*
X131572000Y-53378000D01*
X132721250Y-53378000D01*
X132880000Y-53219250D01*
X132880000Y-52578690D01*
X132783327Y-52345301D01*
X132604698Y-52166673D01*
X132371309Y-52070000D01*
X131730750Y-52070000D01*
X131572000Y-52228750D01*
X131318000Y-52228750D01*
X131159250Y-52070000D01*
X130518691Y-52070000D01*
X130285302Y-52166673D01*
X130106673Y-52345301D01*
X130021155Y-52551759D01*
X129757862Y-52288466D01*
X129230439Y-52070000D01*
X128659561Y-52070000D01*
X128132138Y-52288466D01*
X127728466Y-52692138D01*
X127510000Y-53219561D01*
X121462440Y-53219561D01*
X121462440Y-52705000D01*
X121413157Y-52457235D01*
X121272809Y-52247191D01*
X121062765Y-52106843D01*
X120815000Y-52057560D01*
X119215000Y-52057560D01*
X118967235Y-52106843D01*
X118757191Y-52247191D01*
X118616843Y-52457235D01*
X118570307Y-52691187D01*
X118522745Y-52676861D01*
X117694605Y-53505000D01*
X117335395Y-53505000D01*
X116507255Y-52676861D01*
X116261136Y-52750995D01*
X116068035Y-53288223D01*
X77255506Y-53288223D01*
X77255506Y-52497255D01*
X116686861Y-52497255D01*
X117515000Y-53325395D01*
X118343139Y-52497255D01*
X118269005Y-52251136D01*
X117731777Y-52058035D01*
X117161546Y-52085222D01*
X116760995Y-52251136D01*
X116686861Y-52497255D01*
X77255506Y-52497255D01*
X77255506Y-43896774D01*
X82075000Y-43896774D01*
X82075000Y-44653225D01*
X82162322Y-45092221D01*
X82494956Y-45590044D01*
X82992778Y-45922678D01*
X83580000Y-46039484D01*
X84167221Y-45922678D01*
X84665044Y-45590044D01*
X84857160Y-45302523D01*
X85149509Y-45665533D01*
X85667500Y-45948584D01*
X85759969Y-45966302D01*
X85993000Y-45845246D01*
X85993000Y-44402000D01*
X86247000Y-44402000D01*
X86247000Y-45845246D01*
X86480031Y-45966302D01*
X86572500Y-45948584D01*
X87090491Y-45665533D01*
X87390000Y-45293632D01*
X87689509Y-45665533D01*
X88207500Y-45948584D01*
X88299969Y-45966302D01*
X88533000Y-45845246D01*
X88533000Y-44402000D01*
X86247000Y-44402000D01*
X85993000Y-44402000D01*
X85973000Y-44402000D01*
X85973000Y-44148000D01*
X85993000Y-44148000D01*
X85993000Y-42704754D01*
X86247000Y-42704754D01*
X86247000Y-44148000D01*
X88533000Y-44148000D01*
X88533000Y-42704754D01*
X88787000Y-42704754D01*
X88787000Y-44148000D01*
X88807000Y-44148000D01*
X88807000Y-44402000D01*
X88787000Y-44402000D01*
X88787000Y-45845246D01*
X89020031Y-45966302D01*
X89112500Y-45948584D01*
X89630491Y-45665533D01*
X89768263Y-45494462D01*
X89945414Y-45759586D01*
X90236564Y-45954127D01*
X90579999Y-46022440D01*
X91820001Y-46022440D01*
X92163436Y-45954127D01*
X92454586Y-45759586D01*
X92649127Y-45468436D01*
X92717440Y-45125001D01*
X92717440Y-43896774D01*
X100075000Y-43896774D01*
X100075000Y-44653225D01*
X100162322Y-45092221D01*
X100494956Y-45590044D01*
X100992778Y-45922678D01*
X101580000Y-46039484D01*
X102167221Y-45922678D01*
X102665044Y-45590044D01*
X102857160Y-45302523D01*
X103149509Y-45665533D01*
X103667500Y-45948584D01*
X103759969Y-45966302D01*
X103993000Y-45845246D01*
X103993000Y-44402000D01*
X104247000Y-44402000D01*
X104247000Y-45845246D01*
X104480031Y-45966302D01*
X104572500Y-45948584D01*
X105090491Y-45665533D01*
X105390000Y-45293632D01*
X105689509Y-45665533D01*
X106207500Y-45948584D01*
X106299969Y-45966302D01*
X106533000Y-45845246D01*
X106533000Y-44402000D01*
X104247000Y-44402000D01*
X103993000Y-44402000D01*
X103973000Y-44402000D01*
X103973000Y-44148000D01*
X103993000Y-44148000D01*
X103993000Y-42704754D01*
X104247000Y-42704754D01*
X104247000Y-44148000D01*
X106533000Y-44148000D01*
X106533000Y-42704754D01*
X106787000Y-42704754D01*
X106787000Y-44148000D01*
X106807000Y-44148000D01*
X106807000Y-44402000D01*
X106787000Y-44402000D01*
X106787000Y-45845246D01*
X107020031Y-45966302D01*
X107112500Y-45948584D01*
X107630491Y-45665533D01*
X107768263Y-45494462D01*
X107945414Y-45759586D01*
X108236564Y-45954127D01*
X108579999Y-46022440D01*
X109820001Y-46022440D01*
X110163436Y-45954127D01*
X110454586Y-45759586D01*
X110649127Y-45468436D01*
X110717440Y-45125001D01*
X110717440Y-44230105D01*
X119265000Y-44230105D01*
X119265000Y-44999895D01*
X119559586Y-45711090D01*
X120103910Y-46255414D01*
X120815105Y-46550000D01*
X121584895Y-46550000D01*
X122296090Y-46255414D01*
X122567045Y-45984459D01*
X125010146Y-45984459D01*
X125145504Y-46282455D01*
X125863880Y-46559066D01*
X126633427Y-46539710D01*
X127254496Y-46282455D01*
X127389854Y-45984459D01*
X126200000Y-44794605D01*
X125010146Y-45984459D01*
X122567045Y-45984459D01*
X122840414Y-45711090D01*
X123135000Y-44999895D01*
X123135000Y-44278880D01*
X124255934Y-44278880D01*
X124275290Y-45048427D01*
X124532545Y-45669496D01*
X124830541Y-45804854D01*
X126020395Y-44615000D01*
X126379605Y-44615000D01*
X127569459Y-45804854D01*
X127867455Y-45669496D01*
X128144066Y-44951120D01*
X128124710Y-44181573D01*
X127867455Y-43560504D01*
X127569459Y-43425146D01*
X126379605Y-44615000D01*
X126020395Y-44615000D01*
X124830541Y-43425146D01*
X124532545Y-43560504D01*
X124255934Y-44278880D01*
X123135000Y-44278880D01*
X123135000Y-44230105D01*
X122840414Y-43518910D01*
X122567045Y-43245541D01*
X125010146Y-43245541D01*
X126200000Y-44435395D01*
X127320395Y-43315000D01*
X129252560Y-43315000D01*
X129252560Y-45915000D01*
X129301843Y-46162765D01*
X129442191Y-46372809D01*
X129652235Y-46513157D01*
X129900000Y-46562440D01*
X132500000Y-46562440D01*
X132747765Y-46513157D01*
X132957809Y-46372809D01*
X133098157Y-46162765D01*
X133147440Y-45915000D01*
X133147440Y-43436774D01*
X141455000Y-43436774D01*
X141455000Y-44193225D01*
X141542322Y-44632221D01*
X141874956Y-45130044D01*
X142372778Y-45462678D01*
X142960000Y-45579484D01*
X143547221Y-45462678D01*
X144045044Y-45130044D01*
X144237160Y-44842523D01*
X144529509Y-45205533D01*
X145047500Y-45488584D01*
X145139969Y-45506302D01*
X145373000Y-45385246D01*
X145373000Y-43942000D01*
X145627000Y-43942000D01*
X145627000Y-45385246D01*
X145860031Y-45506302D01*
X145952500Y-45488584D01*
X146470491Y-45205533D01*
X146770000Y-44833632D01*
X147069509Y-45205533D01*
X147587500Y-45488584D01*
X147679969Y-45506302D01*
X147913000Y-45385246D01*
X147913000Y-43942000D01*
X145627000Y-43942000D01*
X145373000Y-43942000D01*
X145353000Y-43942000D01*
X145353000Y-43688000D01*
X145373000Y-43688000D01*
X145373000Y-42244754D01*
X145627000Y-42244754D01*
X145627000Y-43688000D01*
X147913000Y-43688000D01*
X147913000Y-42244754D01*
X148167000Y-42244754D01*
X148167000Y-43688000D01*
X148187000Y-43688000D01*
X148187000Y-43942000D01*
X148167000Y-43942000D01*
X148167000Y-45385246D01*
X148400031Y-45506302D01*
X148492500Y-45488584D01*
X149010491Y-45205533D01*
X149148263Y-45034462D01*
X149325414Y-45299586D01*
X149616564Y-45494127D01*
X149959999Y-45562440D01*
X151200001Y-45562440D01*
X151543436Y-45494127D01*
X151834586Y-45299586D01*
X152029127Y-45008436D01*
X152097440Y-44665001D01*
X152097440Y-43436774D01*
X159455000Y-43436774D01*
X159455000Y-44193225D01*
X159542322Y-44632221D01*
X159874956Y-45130044D01*
X160372778Y-45462678D01*
X160960000Y-45579484D01*
X161547221Y-45462678D01*
X162045044Y-45130044D01*
X162237160Y-44842523D01*
X162529509Y-45205533D01*
X163047500Y-45488584D01*
X163139969Y-45506302D01*
X163373000Y-45385246D01*
X163373000Y-43942000D01*
X163627000Y-43942000D01*
X163627000Y-45385246D01*
X163860031Y-45506302D01*
X163952500Y-45488584D01*
X164470491Y-45205533D01*
X164770000Y-44833632D01*
X165069509Y-45205533D01*
X165587500Y-45488584D01*
X165679969Y-45506302D01*
X165913000Y-45385246D01*
X165913000Y-43942000D01*
X163627000Y-43942000D01*
X163373000Y-43942000D01*
X163353000Y-43942000D01*
X163353000Y-43688000D01*
X163373000Y-43688000D01*
X163373000Y-42244754D01*
X163627000Y-42244754D01*
X163627000Y-43688000D01*
X165913000Y-43688000D01*
X165913000Y-42244754D01*
X166167000Y-42244754D01*
X166167000Y-43688000D01*
X166187000Y-43688000D01*
X166187000Y-43942000D01*
X166167000Y-43942000D01*
X166167000Y-45385246D01*
X166400031Y-45506302D01*
X166492500Y-45488584D01*
X167010491Y-45205533D01*
X167148263Y-45034462D01*
X167325414Y-45299586D01*
X167616564Y-45494127D01*
X167959999Y-45562440D01*
X169200001Y-45562440D01*
X169543436Y-45494127D01*
X169834586Y-45299586D01*
X170029127Y-45008436D01*
X170097440Y-44665001D01*
X170097440Y-42964999D01*
X170029127Y-42621564D01*
X169834586Y-42330414D01*
X169543436Y-42135873D01*
X169200001Y-42067560D01*
X167959999Y-42067560D01*
X167616564Y-42135873D01*
X167325414Y-42330414D01*
X167148263Y-42595538D01*
X167010491Y-42424467D01*
X166492500Y-42141416D01*
X166400031Y-42123698D01*
X166167000Y-42244754D01*
X165913000Y-42244754D01*
X165679969Y-42123698D01*
X165587500Y-42141416D01*
X165069509Y-42424467D01*
X164770000Y-42796368D01*
X164470491Y-42424467D01*
X163952500Y-42141416D01*
X163860031Y-42123698D01*
X163627000Y-42244754D01*
X163373000Y-42244754D01*
X163139969Y-42123698D01*
X163047500Y-42141416D01*
X162529509Y-42424467D01*
X162237159Y-42787478D01*
X162045044Y-42499956D01*
X161547222Y-42167322D01*
X160960000Y-42050516D01*
X160372779Y-42167322D01*
X159874956Y-42499956D01*
X159542322Y-42997778D01*
X159455000Y-43436774D01*
X152097440Y-43436774D01*
X152097440Y-42964999D01*
X152029127Y-42621564D01*
X151834586Y-42330414D01*
X151543436Y-42135873D01*
X151200001Y-42067560D01*
X149959999Y-42067560D01*
X149616564Y-42135873D01*
X149325414Y-42330414D01*
X149148263Y-42595538D01*
X149010491Y-42424467D01*
X148492500Y-42141416D01*
X148400031Y-42123698D01*
X148167000Y-42244754D01*
X147913000Y-42244754D01*
X147679969Y-42123698D01*
X147587500Y-42141416D01*
X147069509Y-42424467D01*
X146770000Y-42796368D01*
X146470491Y-42424467D01*
X145952500Y-42141416D01*
X145860031Y-42123698D01*
X145627000Y-42244754D01*
X145373000Y-42244754D01*
X145139969Y-42123698D01*
X145047500Y-42141416D01*
X144529509Y-42424467D01*
X144237159Y-42787478D01*
X144045044Y-42499956D01*
X143547222Y-42167322D01*
X142960000Y-42050516D01*
X142372779Y-42167322D01*
X141874956Y-42499956D01*
X141542322Y-42997778D01*
X141455000Y-43436774D01*
X133147440Y-43436774D01*
X133147440Y-43315000D01*
X133098157Y-43067235D01*
X132957809Y-42857191D01*
X132747765Y-42716843D01*
X132500000Y-42667560D01*
X129900000Y-42667560D01*
X129652235Y-42716843D01*
X129442191Y-42857191D01*
X129301843Y-43067235D01*
X129252560Y-43315000D01*
X127320395Y-43315000D01*
X127389854Y-43245541D01*
X127254496Y-42947545D01*
X126536120Y-42670934D01*
X125766573Y-42690290D01*
X125145504Y-42947545D01*
X125010146Y-43245541D01*
X122567045Y-43245541D01*
X122296090Y-42974586D01*
X121584895Y-42680000D01*
X120815105Y-42680000D01*
X120103910Y-42974586D01*
X119559586Y-43518910D01*
X119265000Y-44230105D01*
X110717440Y-44230105D01*
X110717440Y-43424999D01*
X110649127Y-43081564D01*
X110454586Y-42790414D01*
X110163436Y-42595873D01*
X109820001Y-42527560D01*
X108579999Y-42527560D01*
X108236564Y-42595873D01*
X107945414Y-42790414D01*
X107768263Y-43055538D01*
X107630491Y-42884467D01*
X107112500Y-42601416D01*
X107020031Y-42583698D01*
X106787000Y-42704754D01*
X106533000Y-42704754D01*
X106299969Y-42583698D01*
X106207500Y-42601416D01*
X105689509Y-42884467D01*
X105390000Y-43256368D01*
X105090491Y-42884467D01*
X104572500Y-42601416D01*
X104480031Y-42583698D01*
X104247000Y-42704754D01*
X103993000Y-42704754D01*
X103759969Y-42583698D01*
X103667500Y-42601416D01*
X103149509Y-42884467D01*
X102857159Y-43247478D01*
X102665044Y-42959956D01*
X102167222Y-42627322D01*
X101580000Y-42510516D01*
X100992779Y-42627322D01*
X100494956Y-42959956D01*
X100162322Y-43457778D01*
X100075000Y-43896774D01*
X92717440Y-43896774D01*
X92717440Y-43424999D01*
X92649127Y-43081564D01*
X92454586Y-42790414D01*
X92163436Y-42595873D01*
X91820001Y-42527560D01*
X90579999Y-42527560D01*
X90236564Y-42595873D01*
X89945414Y-42790414D01*
X89768263Y-43055538D01*
X89630491Y-42884467D01*
X89112500Y-42601416D01*
X89020031Y-42583698D01*
X88787000Y-42704754D01*
X88533000Y-42704754D01*
X88299969Y-42583698D01*
X88207500Y-42601416D01*
X87689509Y-42884467D01*
X87390000Y-43256368D01*
X87090491Y-42884467D01*
X86572500Y-42601416D01*
X86480031Y-42583698D01*
X86247000Y-42704754D01*
X85993000Y-42704754D01*
X85759969Y-42583698D01*
X85667500Y-42601416D01*
X85149509Y-42884467D01*
X84857159Y-43247478D01*
X84665044Y-42959956D01*
X84167222Y-42627322D01*
X83580000Y-42510516D01*
X82992779Y-42627322D01*
X82494956Y-42959956D01*
X82162322Y-43457778D01*
X82075000Y-43896774D01*
X77255506Y-43896774D01*
X77255506Y-37478555D01*
X79701050Y-37478555D01*
X80226242Y-38109092D01*
X82101623Y-38919090D01*
X84144223Y-38949753D01*
X86043073Y-38196413D01*
X86173758Y-38109092D01*
X86698950Y-37478555D01*
X165701050Y-37478555D01*
X166226242Y-38109092D01*
X168101623Y-38919090D01*
X170144223Y-38949753D01*
X172043073Y-38196413D01*
X172173758Y-38109092D01*
X172698950Y-37478555D01*
X169200000Y-33979605D01*
X165701050Y-37478555D01*
X86698950Y-37478555D01*
X83200000Y-33979605D01*
X79701050Y-37478555D01*
X77255506Y-37478555D01*
X77255506Y-34744223D01*
X78050247Y-34744223D01*
X78803587Y-36643073D01*
X78890908Y-36773758D01*
X79521445Y-37298950D01*
X83020395Y-33800000D01*
X83379605Y-33800000D01*
X86878555Y-37298950D01*
X87509092Y-36773758D01*
X88319090Y-34898377D01*
X88321404Y-34744223D01*
X164050247Y-34744223D01*
X164803587Y-36643073D01*
X164890908Y-36773758D01*
X165521445Y-37298950D01*
X169020395Y-33800000D01*
X169379605Y-33800000D01*
X172878555Y-37298950D01*
X173509092Y-36773758D01*
X174319090Y-34898377D01*
X174349753Y-32855777D01*
X173596413Y-30956927D01*
X173509092Y-30826242D01*
X172878555Y-30301050D01*
X169379605Y-33800000D01*
X169020395Y-33800000D01*
X165521445Y-30301050D01*
X164890908Y-30826242D01*
X164080910Y-32701623D01*
X164050247Y-34744223D01*
X88321404Y-34744223D01*
X88349753Y-32855777D01*
X87596413Y-30956927D01*
X87509092Y-30826242D01*
X86878555Y-30301050D01*
X83379605Y-33800000D01*
X83020395Y-33800000D01*
X79521445Y-30301050D01*
X78890908Y-30826242D01*
X78080910Y-32701623D01*
X78050247Y-34744223D01*
X77255506Y-34744223D01*
X77255506Y-28927000D01*
X81558200Y-28927000D01*
X80356927Y-29403587D01*
X80356927Y-29403587D01*
G37*
X80356927Y-29403587D02*
X80226242Y-29490908D01*
X79701050Y-30121445D01*
X83200000Y-33620395D01*
X86698950Y-30121445D01*
X86173758Y-29490908D01*
X84868147Y-28927000D01*
X167558200Y-28927000D01*
X166356927Y-29403587D01*
X166226242Y-29490908D01*
X165701050Y-30121445D01*
X169200000Y-33620395D01*
X172698950Y-30121445D01*
X172173758Y-29490908D01*
X170868147Y-28927000D01*
X175001506Y-28927000D01*
X175001506Y-126673000D01*
X77255506Y-126673000D01*
X77255506Y-124493555D01*
X79686050Y-124493555D01*
X80211242Y-125124092D01*
X82086623Y-125934090D01*
X84129223Y-125964753D01*
X86028073Y-125211413D01*
X86158758Y-125124092D01*
X86683950Y-124493555D01*
X83185000Y-120994605D01*
X79686050Y-124493555D01*
X77255506Y-124493555D01*
X77255506Y-121759223D01*
X78035247Y-121759223D01*
X78788587Y-123658073D01*
X78875908Y-123788758D01*
X79506445Y-124313950D01*
X83005395Y-120815000D01*
X83364605Y-120815000D01*
X86863555Y-124313950D01*
X87494092Y-123788758D01*
X87752702Y-123190000D01*
X128092560Y-123190000D01*
X128092560Y-124790000D01*
X128141843Y-125037765D01*
X128282191Y-125247809D01*
X128492235Y-125388157D01*
X128740000Y-125437440D01*
X130340000Y-125437440D01*
X130587765Y-125388157D01*
X130797809Y-125247809D01*
X130938157Y-125037765D01*
X130987440Y-124790000D01*
X130987440Y-124493555D01*
X165701050Y-124493555D01*
X166226242Y-125124092D01*
X168101623Y-125934090D01*
X170144223Y-125964753D01*
X172043073Y-125211413D01*
X172173758Y-125124092D01*
X172698950Y-124493555D01*
X169200000Y-120994605D01*
X165701050Y-124493555D01*
X130987440Y-124493555D01*
X130987440Y-123190000D01*
X130938157Y-122942235D01*
X130797809Y-122732191D01*
X130587765Y-122591843D01*
X130487497Y-122571899D01*
X130756534Y-122302862D01*
X130975000Y-121775439D01*
X130975000Y-121759223D01*
X164050247Y-121759223D01*
X164803587Y-123658073D01*
X164890908Y-123788758D01*
X165521445Y-124313950D01*
X169020395Y-120815000D01*
X169379605Y-120815000D01*
X172878555Y-124313950D01*
X173509092Y-123788758D01*
X174319090Y-121913377D01*
X174349753Y-119870777D01*
X173596413Y-117971927D01*
X173509092Y-117841242D01*
X172878555Y-117316050D01*
X169379605Y-120815000D01*
X169020395Y-120815000D01*
X165521445Y-117316050D01*
X164890908Y-117841242D01*
X164080910Y-119716623D01*
X164050247Y-121759223D01*
X130975000Y-121759223D01*
X130975000Y-121204561D01*
X130756534Y-120677138D01*
X130352862Y-120273466D01*
X129825439Y-120055000D01*
X129254561Y-120055000D01*
X128727138Y-120273466D01*
X128323466Y-120677138D01*
X128105000Y-121204561D01*
X128105000Y-121775439D01*
X128323466Y-122302862D01*
X128592503Y-122571899D01*
X128492235Y-122591843D01*
X128282191Y-122732191D01*
X128141843Y-122942235D01*
X128092560Y-123190000D01*
X87752702Y-123190000D01*
X88304090Y-121913377D01*
X88334753Y-119870777D01*
X87581413Y-117971927D01*
X87494092Y-117841242D01*
X86863555Y-117316050D01*
X83364605Y-120815000D01*
X83005395Y-120815000D01*
X79506445Y-117316050D01*
X78875908Y-117841242D01*
X78065910Y-119716623D01*
X78035247Y-121759223D01*
X77255506Y-121759223D01*
X77255506Y-117136445D01*
X79686050Y-117136445D01*
X83185000Y-120635395D01*
X86683950Y-117136445D01*
X86158758Y-116505908D01*
X86086683Y-116474778D01*
X95565000Y-116474778D01*
X95565000Y-117125222D01*
X95813914Y-117726153D01*
X96273847Y-118186086D01*
X96874778Y-118435000D01*
X97525222Y-118435000D01*
X98126153Y-118186086D01*
X98470000Y-117842239D01*
X98813847Y-118186086D01*
X99414778Y-118435000D01*
X100065222Y-118435000D01*
X100666153Y-118186086D01*
X100899707Y-117952532D01*
X101307073Y-117952532D01*
X101405736Y-118219387D01*
X102015461Y-118445908D01*
X102665460Y-118421856D01*
X103154264Y-118219387D01*
X103252927Y-117952532D01*
X102280000Y-116979605D01*
X101307073Y-117952532D01*
X100899707Y-117952532D01*
X101092311Y-117759928D01*
X101127468Y-117772927D01*
X102100395Y-116800000D01*
X102459605Y-116800000D01*
X103432532Y-117772927D01*
X103699387Y-117674264D01*
X103925908Y-117064539D01*
X103901856Y-116414540D01*
X103699387Y-115925736D01*
X103432532Y-115827073D01*
X102459605Y-116800000D01*
X102100395Y-116800000D01*
X101127468Y-115827073D01*
X101092311Y-115840072D01*
X100899707Y-115647468D01*
X101307073Y-115647468D01*
X102280000Y-116620395D01*
X103252927Y-115647468D01*
X103154264Y-115380613D01*
X102544539Y-115154092D01*
X101894540Y-115178144D01*
X101405736Y-115380613D01*
X101307073Y-115647468D01*
X100899707Y-115647468D01*
X100666153Y-115413914D01*
X100065222Y-115165000D01*
X99414778Y-115165000D01*
X98813847Y-115413914D01*
X98470000Y-115757761D01*
X98126153Y-115413914D01*
X97525222Y-115165000D01*
X96874778Y-115165000D01*
X96273847Y-115413914D01*
X95813914Y-115873847D01*
X95565000Y-116474778D01*
X86086683Y-116474778D01*
X84283377Y-115695910D01*
X82240777Y-115665247D01*
X80341927Y-116418587D01*
X80211242Y-116505908D01*
X79686050Y-117136445D01*
X77255506Y-117136445D01*
X77255506Y-114300000D01*
X128092560Y-114300000D01*
X128092560Y-115900000D01*
X128141843Y-116147765D01*
X128282191Y-116357809D01*
X128492235Y-116498157D01*
X128740000Y-116547440D01*
X130340000Y-116547440D01*
X130587765Y-116498157D01*
X130622753Y-116474778D01*
X148565000Y-116474778D01*
X148565000Y-117125222D01*
X148813914Y-117726153D01*
X149273847Y-118186086D01*
X149874778Y-118435000D01*
X150525222Y-118435000D01*
X151126153Y-118186086D01*
X151470000Y-117842239D01*
X151813847Y-118186086D01*
X152414778Y-118435000D01*
X153065222Y-118435000D01*
X153666153Y-118186086D01*
X154010000Y-117842239D01*
X154353847Y-118186086D01*
X154954778Y-118435000D01*
X155605222Y-118435000D01*
X156206153Y-118186086D01*
X156666086Y-117726153D01*
X156910351Y-117136445D01*
X165701050Y-117136445D01*
X169200000Y-120635395D01*
X172698950Y-117136445D01*
X172173758Y-116505908D01*
X170298377Y-115695910D01*
X168255777Y-115665247D01*
X166356927Y-116418587D01*
X166226242Y-116505908D01*
X165701050Y-117136445D01*
X156910351Y-117136445D01*
X156915000Y-117125222D01*
X156915000Y-116474778D01*
X156666086Y-115873847D01*
X156206153Y-115413914D01*
X155605222Y-115165000D01*
X154954778Y-115165000D01*
X154353847Y-115413914D01*
X154010000Y-115757761D01*
X153666153Y-115413914D01*
X153065222Y-115165000D01*
X152414778Y-115165000D01*
X151813847Y-115413914D01*
X151470000Y-115757761D01*
X151126153Y-115413914D01*
X150525222Y-115165000D01*
X149874778Y-115165000D01*
X149273847Y-115413914D01*
X148813914Y-115873847D01*
X148565000Y-116474778D01*
X130622753Y-116474778D01*
X130797809Y-116357809D01*
X130938157Y-116147765D01*
X130987440Y-115900000D01*
X130987440Y-114300000D01*
X130938157Y-114052235D01*
X130797809Y-113842191D01*
X130587765Y-113701843D01*
X130487497Y-113681899D01*
X130756534Y-113412862D01*
X130975000Y-112885439D01*
X130975000Y-112314561D01*
X130756534Y-111787138D01*
X130352862Y-111383466D01*
X129825439Y-111165000D01*
X129254561Y-111165000D01*
X128727138Y-111383466D01*
X128323466Y-111787138D01*
X128105000Y-112314561D01*
X128105000Y-112885439D01*
X128323466Y-113412862D01*
X128592503Y-113681899D01*
X128492235Y-113701843D01*
X128282191Y-113842191D01*
X128141843Y-114052235D01*
X128092560Y-114300000D01*
X77255506Y-114300000D01*
X77255506Y-99060000D01*
X85547560Y-99060000D01*
X85547560Y-100660000D01*
X85596843Y-100907765D01*
X85737191Y-101117809D01*
X85947235Y-101258157D01*
X86047503Y-101278101D01*
X85778466Y-101547138D01*
X85560000Y-102074561D01*
X85560000Y-102645439D01*
X85778466Y-103172862D01*
X86182138Y-103576534D01*
X86241983Y-103601323D01*
X86279097Y-103787907D01*
X86447072Y-104039299D01*
X86510528Y-104081699D01*
X92298303Y-109869476D01*
X92340701Y-109932929D01*
X92404154Y-109975327D01*
X92404156Y-109975329D01*
X92529532Y-110059102D01*
X92592093Y-110100904D01*
X92813778Y-110145000D01*
X92813782Y-110145000D01*
X92888629Y-110159888D01*
X92963476Y-110145000D01*
X100890153Y-110145000D01*
X100965000Y-110159888D01*
X101039847Y-110145000D01*
X101039852Y-110145000D01*
X101261537Y-110100904D01*
X101512929Y-109932929D01*
X101555331Y-109869470D01*
X102764473Y-108660329D01*
X102827929Y-108617929D01*
X102888175Y-108527765D01*
X102995904Y-108366538D01*
X103016726Y-108261856D01*
X103040000Y-108144852D01*
X103040000Y-108144848D01*
X103050825Y-108090425D01*
X103206153Y-108026086D01*
X103666086Y-107566153D01*
X103915000Y-106965222D01*
X103915000Y-106680000D01*
X128092560Y-106680000D01*
X128092560Y-108280000D01*
X128141843Y-108527765D01*
X128282191Y-108737809D01*
X128492235Y-108878157D01*
X128740000Y-108927440D01*
X130340000Y-108927440D01*
X130587765Y-108878157D01*
X130797809Y-108737809D01*
X130938157Y-108527765D01*
X130987440Y-108280000D01*
X130987440Y-106680000D01*
X138252560Y-106680000D01*
X138252560Y-108280000D01*
X138301843Y-108527765D01*
X138442191Y-108737809D01*
X138652235Y-108878157D01*
X138900000Y-108927440D01*
X140500000Y-108927440D01*
X140747765Y-108878157D01*
X140957809Y-108737809D01*
X141098157Y-108527765D01*
X141147440Y-108280000D01*
X141147440Y-106680000D01*
X141098157Y-106432235D01*
X141019675Y-106314778D01*
X148565000Y-106314778D01*
X148565000Y-106965222D01*
X148813914Y-107566153D01*
X149273847Y-108026086D01*
X149874778Y-108275000D01*
X150525222Y-108275000D01*
X151126153Y-108026086D01*
X151470000Y-107682239D01*
X151813847Y-108026086D01*
X152414778Y-108275000D01*
X153065222Y-108275000D01*
X153666153Y-108026086D01*
X154010000Y-107682239D01*
X154353847Y-108026086D01*
X154954778Y-108275000D01*
X155605222Y-108275000D01*
X156206153Y-108026086D01*
X156666086Y-107566153D01*
X156915000Y-106965222D01*
X156915000Y-106314778D01*
X156666086Y-105713847D01*
X156206153Y-105253914D01*
X155605222Y-105005000D01*
X154954778Y-105005000D01*
X154353847Y-105253914D01*
X154010000Y-105597761D01*
X153666153Y-105253914D01*
X153065222Y-105005000D01*
X152414778Y-105005000D01*
X151813847Y-105253914D01*
X151470000Y-105597761D01*
X151126153Y-105253914D01*
X150525222Y-105005000D01*
X149874778Y-105005000D01*
X149273847Y-105253914D01*
X148813914Y-105713847D01*
X148565000Y-106314778D01*
X141019675Y-106314778D01*
X140957809Y-106222191D01*
X140948409Y-106215910D01*
X141135000Y-105765439D01*
X141135000Y-105194561D01*
X140916534Y-104667138D01*
X140512862Y-104263466D01*
X139985439Y-104045000D01*
X139414561Y-104045000D01*
X138887138Y-104263466D01*
X138483466Y-104667138D01*
X138265000Y-105194561D01*
X138265000Y-105765439D01*
X138451591Y-106215910D01*
X138442191Y-106222191D01*
X138301843Y-106432235D01*
X138252560Y-106680000D01*
X130987440Y-106680000D01*
X130938157Y-106432235D01*
X130797809Y-106222191D01*
X130788409Y-106215910D01*
X130975000Y-105765439D01*
X130975000Y-105194561D01*
X130756534Y-104667138D01*
X130352862Y-104263466D01*
X129825439Y-104045000D01*
X129254561Y-104045000D01*
X128727138Y-104263466D01*
X128323466Y-104667138D01*
X128105000Y-105194561D01*
X128105000Y-105765439D01*
X128291591Y-106215910D01*
X128282191Y-106222191D01*
X128141843Y-106432235D01*
X128092560Y-106680000D01*
X103915000Y-106680000D01*
X103915000Y-106314778D01*
X103666086Y-105713847D01*
X103206153Y-105253914D01*
X102605222Y-105005000D01*
X101954778Y-105005000D01*
X101353847Y-105253914D01*
X101010000Y-105597761D01*
X100666153Y-105253914D01*
X100065222Y-105005000D01*
X99414778Y-105005000D01*
X98813847Y-105253914D01*
X98387689Y-105680072D01*
X98352532Y-105667073D01*
X97379605Y-106640000D01*
X98352532Y-107612927D01*
X98387689Y-107599928D01*
X98813847Y-108026086D01*
X99414778Y-108275000D01*
X100065222Y-108275000D01*
X100666153Y-108026086D01*
X101010000Y-107682239D01*
X101301480Y-107973719D01*
X100650199Y-108625000D01*
X93203433Y-108625000D01*
X92370965Y-107792532D01*
X96227073Y-107792532D01*
X96325736Y-108059387D01*
X96935461Y-108285908D01*
X97585460Y-108261856D01*
X98074264Y-108059387D01*
X98172927Y-107792532D01*
X97200000Y-106819605D01*
X96227073Y-107792532D01*
X92370965Y-107792532D01*
X90953894Y-106375461D01*
X95554092Y-106375461D01*
X95578144Y-107025460D01*
X95780613Y-107514264D01*
X96047468Y-107612927D01*
X97020395Y-106640000D01*
X96047468Y-105667073D01*
X95780613Y-105765736D01*
X95554092Y-106375461D01*
X90953894Y-106375461D01*
X90065901Y-105487468D01*
X96227073Y-105487468D01*
X97200000Y-106460395D01*
X98172927Y-105487468D01*
X98074264Y-105220613D01*
X97464539Y-104994092D01*
X96814540Y-105018144D01*
X96325736Y-105220613D01*
X96227073Y-105487468D01*
X90065901Y-105487468D01*
X87981414Y-103402982D01*
X88211534Y-103172862D01*
X88430000Y-102645439D01*
X88430000Y-102074561D01*
X88211534Y-101547138D01*
X87942497Y-101278101D01*
X88042765Y-101258157D01*
X88252809Y-101117809D01*
X88393157Y-100907765D01*
X88442440Y-100660000D01*
X88442440Y-99060000D01*
X88393157Y-98812235D01*
X88252809Y-98602191D01*
X88042765Y-98461843D01*
X87795000Y-98412560D01*
X87755000Y-98412560D01*
X87755000Y-94459801D01*
X89043625Y-93171177D01*
X89209778Y-93240000D01*
X89860222Y-93240000D01*
X89993539Y-93184778D01*
X101870000Y-93184778D01*
X101870000Y-93835222D01*
X102118914Y-94436153D01*
X102578847Y-94896086D01*
X103179778Y-95145000D01*
X103830222Y-95145000D01*
X103996376Y-95076177D01*
X107172009Y-98251811D01*
X107137560Y-98425000D01*
X107137560Y-100025000D01*
X107186843Y-100272765D01*
X107327191Y-100482809D01*
X107537235Y-100623157D01*
X107637503Y-100643101D01*
X107368466Y-100912138D01*
X107150000Y-101439561D01*
X107150000Y-102010439D01*
X107368466Y-102537862D01*
X107772138Y-102941534D01*
X108299561Y-103160000D01*
X108870439Y-103160000D01*
X109397862Y-102941534D01*
X109510270Y-102829126D01*
X146920000Y-102829126D01*
X146920000Y-103240874D01*
X147077569Y-103621280D01*
X147368720Y-103912431D01*
X147749126Y-104070000D01*
X148160874Y-104070000D01*
X148541280Y-103912431D01*
X148658711Y-103795000D01*
X151696289Y-103795000D01*
X151813720Y-103912431D01*
X152194126Y-104070000D01*
X152605874Y-104070000D01*
X152986280Y-103912431D01*
X153277431Y-103621280D01*
X153435000Y-103240874D01*
X153435000Y-102829126D01*
X153277431Y-102448720D01*
X152986280Y-102157569D01*
X152605874Y-102000000D01*
X152194126Y-102000000D01*
X151813720Y-102157569D01*
X151696289Y-102275000D01*
X148658711Y-102275000D01*
X148541280Y-102157569D01*
X148160874Y-102000000D01*
X147749126Y-102000000D01*
X147368720Y-102157569D01*
X147077569Y-102448720D01*
X146920000Y-102829126D01*
X109510270Y-102829126D01*
X109801534Y-102537862D01*
X110020000Y-102010439D01*
X110020000Y-101439561D01*
X109801534Y-100912138D01*
X109532497Y-100643101D01*
X109632765Y-100623157D01*
X109842809Y-100482809D01*
X109983157Y-100272765D01*
X110032440Y-100025000D01*
X110032440Y-98425000D01*
X109983157Y-98177235D01*
X109842809Y-97967191D01*
X109632765Y-97826843D01*
X109385000Y-97777560D01*
X108847362Y-97777560D01*
X105071177Y-94001376D01*
X105140000Y-93835222D01*
X105140000Y-93184778D01*
X104891086Y-92583847D01*
X104431153Y-92123914D01*
X103830222Y-91875000D01*
X103179778Y-91875000D01*
X102578847Y-92123914D01*
X102118914Y-92583847D01*
X101870000Y-93184778D01*
X89993539Y-93184778D01*
X90461153Y-92991086D01*
X90921086Y-92531153D01*
X91170000Y-91930222D01*
X91170000Y-91279778D01*
X90921086Y-90678847D01*
X90887017Y-90644778D01*
X118380000Y-90644778D01*
X118380000Y-91295222D01*
X118628914Y-91896153D01*
X119088847Y-92356086D01*
X119689778Y-92605000D01*
X120340222Y-92605000D01*
X120941153Y-92356086D01*
X121401086Y-91896153D01*
X121650000Y-91295222D01*
X121650000Y-90644778D01*
X121401086Y-90043847D01*
X120941153Y-89583914D01*
X120340222Y-89335000D01*
X119689778Y-89335000D01*
X119088847Y-89583914D01*
X118628914Y-90043847D01*
X118380000Y-90644778D01*
X90887017Y-90644778D01*
X90461153Y-90218914D01*
X89860222Y-89970000D01*
X89209778Y-89970000D01*
X88608847Y-90218914D01*
X88148914Y-90678847D01*
X87900000Y-91279778D01*
X87900000Y-91930222D01*
X87968823Y-92096375D01*
X86510528Y-93554671D01*
X86447072Y-93597071D01*
X86404672Y-93660527D01*
X86404671Y-93660528D01*
X86279097Y-93848463D01*
X86220112Y-94145000D01*
X86235001Y-94219852D01*
X86235000Y-98412560D01*
X86195000Y-98412560D01*
X85947235Y-98461843D01*
X85737191Y-98602191D01*
X85596843Y-98812235D01*
X85547560Y-99060000D01*
X77255506Y-99060000D01*
X77255506Y-85564778D01*
X109490000Y-85564778D01*
X109490000Y-86215222D01*
X109738914Y-86816153D01*
X110198847Y-87276086D01*
X110799778Y-87525000D01*
X111450222Y-87525000D01*
X112051153Y-87276086D01*
X112373113Y-86954126D01*
X121520000Y-86954126D01*
X121520000Y-87365874D01*
X121677569Y-87746280D01*
X121795000Y-87863711D01*
X121795001Y-97886288D01*
X121677569Y-98003720D01*
X121520000Y-98384126D01*
X121520000Y-98795874D01*
X121677569Y-99176280D01*
X121968720Y-99467431D01*
X122349126Y-99625000D01*
X122760874Y-99625000D01*
X123141280Y-99467431D01*
X123432431Y-99176280D01*
X123590000Y-98795874D01*
X123590000Y-98384126D01*
X123432431Y-98003720D01*
X123315000Y-97886289D01*
X123315000Y-91399126D01*
X138030000Y-91399126D01*
X138030000Y-91810874D01*
X138187569Y-92191280D01*
X138305000Y-92308711D01*
X138305001Y-97251288D01*
X138187569Y-97368720D01*
X138030000Y-97749126D01*
X138030000Y-98160874D01*
X138187569Y-98541280D01*
X138478720Y-98832431D01*
X138859126Y-98990000D01*
X139270874Y-98990000D01*
X139651280Y-98832431D01*
X139942431Y-98541280D01*
X140100000Y-98160874D01*
X140100000Y-97749126D01*
X140050565Y-97629778D01*
X141875000Y-97629778D01*
X141875000Y-98280222D01*
X142123914Y-98881153D01*
X142583847Y-99341086D01*
X143184778Y-99590000D01*
X143835222Y-99590000D01*
X144436153Y-99341086D01*
X144896086Y-98881153D01*
X145145000Y-98280222D01*
X145145000Y-97629778D01*
X144896086Y-97028847D01*
X144436153Y-96568914D01*
X143835222Y-96320000D01*
X143184778Y-96320000D01*
X142583847Y-96568914D01*
X142123914Y-97028847D01*
X141875000Y-97629778D01*
X140050565Y-97629778D01*
X139942431Y-97368720D01*
X139825000Y-97251289D01*
X139825000Y-92308711D01*
X139942431Y-92191280D01*
X140100000Y-91810874D01*
X140100000Y-91399126D01*
X139942431Y-91018720D01*
X139651280Y-90727569D01*
X139270874Y-90570000D01*
X138859126Y-90570000D01*
X138478720Y-90727569D01*
X138187569Y-91018720D01*
X138030000Y-91399126D01*
X123315000Y-91399126D01*
X123315000Y-88859126D01*
X146285000Y-88859126D01*
X146285000Y-89270874D01*
X146442569Y-89651280D01*
X146560000Y-89768711D01*
X146560001Y-94711288D01*
X146442569Y-94828720D01*
X146285000Y-95209126D01*
X146285000Y-95620874D01*
X146442569Y-96001280D01*
X146733720Y-96292431D01*
X147114126Y-96450000D01*
X147525874Y-96450000D01*
X147906280Y-96292431D01*
X148197431Y-96001280D01*
X148355000Y-95620874D01*
X148355000Y-95209126D01*
X148197431Y-94828720D01*
X148080000Y-94711289D01*
X148080000Y-89768711D01*
X148197431Y-89651280D01*
X148355000Y-89270874D01*
X148355000Y-88859126D01*
X148197431Y-88478720D01*
X147906280Y-88187569D01*
X147525874Y-88030000D01*
X147114126Y-88030000D01*
X146733720Y-88187569D01*
X146442569Y-88478720D01*
X146285000Y-88859126D01*
X123315000Y-88859126D01*
X123315000Y-87863711D01*
X123432431Y-87746280D01*
X123590000Y-87365874D01*
X123590000Y-86954126D01*
X123432431Y-86573720D01*
X123141280Y-86282569D01*
X122760874Y-86125000D01*
X122349126Y-86125000D01*
X121968720Y-86282569D01*
X121677569Y-86573720D01*
X121520000Y-86954126D01*
X112373113Y-86954126D01*
X112511086Y-86816153D01*
X112760000Y-86215222D01*
X112760000Y-85564778D01*
X112511086Y-84963847D01*
X112051153Y-84503914D01*
X111450222Y-84255000D01*
X110799778Y-84255000D01*
X110198847Y-84503914D01*
X109738914Y-84963847D01*
X109490000Y-85564778D01*
X77255506Y-85564778D01*
X77255506Y-81754778D01*
X81550000Y-81754778D01*
X81550000Y-82405222D01*
X81798914Y-83006153D01*
X82258847Y-83466086D01*
X82859778Y-83715000D01*
X83510222Y-83715000D01*
X84111153Y-83466086D01*
X84571086Y-83006153D01*
X84820000Y-82405222D01*
X84820000Y-81754778D01*
X84751177Y-81588624D01*
X86490023Y-79849778D01*
X140605000Y-79849778D01*
X140605000Y-80500222D01*
X140853914Y-81101153D01*
X141313847Y-81561086D01*
X141914778Y-81810000D01*
X142565222Y-81810000D01*
X143166153Y-81561086D01*
X143626086Y-81101153D01*
X143875000Y-80500222D01*
X143875000Y-79849778D01*
X143626086Y-79248847D01*
X143166153Y-78788914D01*
X142565222Y-78540000D01*
X141914778Y-78540000D01*
X141313847Y-78788914D01*
X140853914Y-79248847D01*
X140605000Y-79849778D01*
X86490023Y-79849778D01*
X91479802Y-74860000D01*
X91645874Y-74860000D01*
X92026280Y-74702431D01*
X92317431Y-74411280D01*
X92382526Y-74254126D01*
X102470000Y-74254126D01*
X102470000Y-74665874D01*
X102627569Y-75046280D01*
X102918720Y-75337431D01*
X103299126Y-75495000D01*
X103465199Y-75495000D01*
X106089671Y-78119473D01*
X106132071Y-78182929D01*
X106383463Y-78350904D01*
X106605148Y-78395000D01*
X106605152Y-78395000D01*
X106679999Y-78409888D01*
X106754846Y-78395000D01*
X108400091Y-78395000D01*
X108468914Y-78561153D01*
X108928847Y-79021086D01*
X109529778Y-79270000D01*
X110180222Y-79270000D01*
X110781153Y-79021086D01*
X111241086Y-78561153D01*
X111490000Y-77960222D01*
X111490000Y-77309778D01*
X111241086Y-76708847D01*
X110781153Y-76248914D01*
X110372300Y-76079561D01*
X152870000Y-76079561D01*
X152870000Y-76650439D01*
X153088466Y-77177862D01*
X153492138Y-77581534D01*
X154019561Y-77800000D01*
X154590439Y-77800000D01*
X154643302Y-77778103D01*
X158969671Y-82104473D01*
X159012071Y-82167929D01*
X159263463Y-82335904D01*
X159485148Y-82380000D01*
X159485152Y-82380000D01*
X159559999Y-82394888D01*
X159634846Y-82380000D01*
X164725091Y-82380000D01*
X164793914Y-82546153D01*
X165253847Y-83006086D01*
X165854778Y-83255000D01*
X166505222Y-83255000D01*
X167106153Y-83006086D01*
X167566086Y-82546153D01*
X167815000Y-81945222D01*
X167815000Y-81294778D01*
X167566086Y-80693847D01*
X167106153Y-80233914D01*
X166505222Y-79985000D01*
X165854778Y-79985000D01*
X165253847Y-80233914D01*
X164793914Y-80693847D01*
X164725091Y-80860000D01*
X159874802Y-80860000D01*
X155718103Y-76703302D01*
X155740000Y-76650439D01*
X155740000Y-76079561D01*
X157870000Y-76079561D01*
X157870000Y-76650439D01*
X158088466Y-77177862D01*
X158492138Y-77581534D01*
X159019561Y-77800000D01*
X159590439Y-77800000D01*
X160117862Y-77581534D01*
X160521534Y-77177862D01*
X160740000Y-76650439D01*
X160740000Y-76079561D01*
X160521534Y-75552138D01*
X160117862Y-75148466D01*
X159590439Y-74930000D01*
X159019561Y-74930000D01*
X158492138Y-75148466D01*
X158088466Y-75552138D01*
X157870000Y-76079561D01*
X155740000Y-76079561D01*
X155521534Y-75552138D01*
X155117862Y-75148466D01*
X154590439Y-74930000D01*
X154019561Y-74930000D01*
X153492138Y-75148466D01*
X153088466Y-75552138D01*
X152870000Y-76079561D01*
X110372300Y-76079561D01*
X110180222Y-76000000D01*
X109529778Y-76000000D01*
X108928847Y-76248914D01*
X108468914Y-76708847D01*
X108400091Y-76875000D01*
X106994802Y-76875000D01*
X104540000Y-74420199D01*
X104540000Y-74254126D01*
X104382431Y-73873720D01*
X104091280Y-73582569D01*
X103710874Y-73425000D01*
X103299126Y-73425000D01*
X102918720Y-73582569D01*
X102627569Y-73873720D01*
X102470000Y-74254126D01*
X92382526Y-74254126D01*
X92475000Y-74030874D01*
X92475000Y-73619126D01*
X92317431Y-73238720D01*
X92026280Y-72947569D01*
X91645874Y-72790000D01*
X91234126Y-72790000D01*
X90853720Y-72947569D01*
X90562569Y-73238720D01*
X90405000Y-73619126D01*
X90405000Y-73785198D01*
X83676376Y-80513823D01*
X83510222Y-80445000D01*
X82859778Y-80445000D01*
X82258847Y-80693914D01*
X81798914Y-81153847D01*
X81550000Y-81754778D01*
X77255506Y-81754778D01*
X77255506Y-70444126D01*
X135490000Y-70444126D01*
X135490000Y-70855874D01*
X135647569Y-71236280D01*
X135938720Y-71527431D01*
X136319126Y-71685000D01*
X136730874Y-71685000D01*
X137111280Y-71527431D01*
X137228711Y-71410000D01*
X146530153Y-71410000D01*
X146605000Y-71424888D01*
X146679847Y-71410000D01*
X146679852Y-71410000D01*
X146901537Y-71365904D01*
X147152929Y-71197929D01*
X147195331Y-71134470D01*
X151426698Y-66903104D01*
X151479561Y-66925000D01*
X152050439Y-66925000D01*
X152577862Y-66706534D01*
X152981534Y-66302862D01*
X153200000Y-65775439D01*
X153200000Y-65204561D01*
X166205000Y-65204561D01*
X166205000Y-65775439D01*
X166423466Y-66302862D01*
X166827138Y-66706534D01*
X167354561Y-66925000D01*
X167925439Y-66925000D01*
X168452862Y-66706534D01*
X168856534Y-66302862D01*
X169075000Y-65775439D01*
X169075000Y-65204561D01*
X168856534Y-64677138D01*
X168452862Y-64273466D01*
X167925439Y-64055000D01*
X167354561Y-64055000D01*
X166827138Y-64273466D01*
X166423466Y-64677138D01*
X166205000Y-65204561D01*
X153200000Y-65204561D01*
X152981534Y-64677138D01*
X152577862Y-64273466D01*
X152050439Y-64055000D01*
X151479561Y-64055000D01*
X150952138Y-64273466D01*
X150548466Y-64677138D01*
X150330000Y-65204561D01*
X150330000Y-65775439D01*
X150351896Y-65828302D01*
X146290199Y-69890000D01*
X137228711Y-69890000D01*
X137111280Y-69772569D01*
X136730874Y-69615000D01*
X136319126Y-69615000D01*
X135938720Y-69772569D01*
X135647569Y-70063720D01*
X135490000Y-70444126D01*
X77255506Y-70444126D01*
X77255506Y-68419778D01*
X80280000Y-68419778D01*
X80280000Y-69070222D01*
X80528914Y-69671153D01*
X80988847Y-70131086D01*
X81589778Y-70380000D01*
X82240222Y-70380000D01*
X82841153Y-70131086D01*
X83301086Y-69671153D01*
X83550000Y-69070222D01*
X83550000Y-68419778D01*
X83301086Y-67818847D01*
X82841153Y-67358914D01*
X82240222Y-67110000D01*
X81589778Y-67110000D01*
X80988847Y-67358914D01*
X80528914Y-67818847D01*
X80280000Y-68419778D01*
X77255506Y-68419778D01*
X77255506Y-62744561D01*
X81115000Y-62744561D01*
X81115000Y-63315439D01*
X81333466Y-63842862D01*
X81737138Y-64246534D01*
X82264561Y-64465000D01*
X82835439Y-64465000D01*
X83362862Y-64246534D01*
X83766534Y-63842862D01*
X83985000Y-63315439D01*
X83985000Y-62744561D01*
X90640000Y-62744561D01*
X90640000Y-63315439D01*
X90858466Y-63842862D01*
X91262138Y-64246534D01*
X91315001Y-64268431D01*
X91315000Y-68676289D01*
X91197569Y-68793720D01*
X91040000Y-69174126D01*
X91040000Y-69585874D01*
X91197569Y-69966280D01*
X91488720Y-70257431D01*
X91869126Y-70415000D01*
X92280874Y-70415000D01*
X92661280Y-70257431D01*
X92952431Y-69966280D01*
X93110000Y-69585874D01*
X93110000Y-69174126D01*
X92952431Y-68793720D01*
X92835000Y-68676289D01*
X92835000Y-64268430D01*
X92887862Y-64246534D01*
X93291534Y-63842862D01*
X93510000Y-63315439D01*
X93510000Y-62744561D01*
X100165000Y-62744561D01*
X100165000Y-63315439D01*
X100383466Y-63842862D01*
X100787138Y-64246534D01*
X100840001Y-64268430D01*
X100840000Y-67406289D01*
X100722569Y-67523720D01*
X100565000Y-67904126D01*
X100565000Y-68315874D01*
X100722569Y-68696280D01*
X101013720Y-68987431D01*
X101394126Y-69145000D01*
X101805874Y-69145000D01*
X102186280Y-68987431D01*
X102477431Y-68696280D01*
X102635000Y-68315874D01*
X102635000Y-67904126D01*
X102477431Y-67523720D01*
X102360000Y-67406289D01*
X102360000Y-64268430D01*
X102412862Y-64246534D01*
X102816534Y-63842862D01*
X103035000Y-63315439D01*
X103035000Y-62744561D01*
X109690000Y-62744561D01*
X109690000Y-63315439D01*
X109908466Y-63842862D01*
X110312138Y-64246534D01*
X110365001Y-64268431D01*
X110365000Y-68676289D01*
X110247569Y-68793720D01*
X110090000Y-69174126D01*
X110090000Y-69585874D01*
X110247569Y-69966280D01*
X110538720Y-70257431D01*
X110919126Y-70415000D01*
X111330874Y-70415000D01*
X111711280Y-70257431D01*
X112002431Y-69966280D01*
X112160000Y-69585874D01*
X112160000Y-69174126D01*
X112002431Y-68793720D01*
X111885000Y-68676289D01*
X111885000Y-66634126D01*
X122790000Y-66634126D01*
X122790000Y-67045874D01*
X122947569Y-67426280D01*
X123238720Y-67717431D01*
X123619126Y-67875000D01*
X124030874Y-67875000D01*
X124411280Y-67717431D01*
X124528711Y-67600000D01*
X135735153Y-67600000D01*
X135810000Y-67614888D01*
X135884847Y-67600000D01*
X135884852Y-67600000D01*
X136106537Y-67555904D01*
X136357929Y-67387929D01*
X136400331Y-67324470D01*
X136821698Y-66903103D01*
X136874561Y-66925000D01*
X137445439Y-66925000D01*
X137972862Y-66706534D01*
X138376534Y-66302862D01*
X138595000Y-65775439D01*
X138595000Y-65204561D01*
X138376534Y-64677138D01*
X137972862Y-64273466D01*
X137445439Y-64055000D01*
X136874561Y-64055000D01*
X136347138Y-64273466D01*
X135943466Y-64677138D01*
X135725000Y-65204561D01*
X135725000Y-65775439D01*
X135746897Y-65828302D01*
X135495199Y-66080000D01*
X124528711Y-66080000D01*
X124411280Y-65962569D01*
X124030874Y-65805000D01*
X123619126Y-65805000D01*
X123238720Y-65962569D01*
X122947569Y-66253720D01*
X122790000Y-66634126D01*
X111885000Y-66634126D01*
X111885000Y-64268430D01*
X111937862Y-64246534D01*
X112341534Y-63842862D01*
X112560000Y-63315439D01*
X112560000Y-62744561D01*
X112341534Y-62217138D01*
X111937862Y-61813466D01*
X111410439Y-61595000D01*
X110839561Y-61595000D01*
X110312138Y-61813466D01*
X109908466Y-62217138D01*
X109690000Y-62744561D01*
X103035000Y-62744561D01*
X102816534Y-62217138D01*
X102412862Y-61813466D01*
X101885439Y-61595000D01*
X101314561Y-61595000D01*
X100787138Y-61813466D01*
X100383466Y-62217138D01*
X100165000Y-62744561D01*
X93510000Y-62744561D01*
X93291534Y-62217138D01*
X92887862Y-61813466D01*
X92360439Y-61595000D01*
X91789561Y-61595000D01*
X91262138Y-61813466D01*
X90858466Y-62217138D01*
X90640000Y-62744561D01*
X83985000Y-62744561D01*
X83766534Y-62217138D01*
X83362862Y-61813466D01*
X82835439Y-61595000D01*
X82264561Y-61595000D01*
X81737138Y-61813466D01*
X81333466Y-62217138D01*
X81115000Y-62744561D01*
X77255506Y-62744561D01*
X77255506Y-59244561D01*
X81115000Y-59244561D01*
X81115000Y-59815439D01*
X81333466Y-60342862D01*
X81737138Y-60746534D01*
X82264561Y-60965000D01*
X82835439Y-60965000D01*
X83362862Y-60746534D01*
X83766534Y-60342862D01*
X83985000Y-59815439D01*
X83985000Y-59244561D01*
X90640000Y-59244561D01*
X90640000Y-59815439D01*
X90858466Y-60342862D01*
X91262138Y-60746534D01*
X91789561Y-60965000D01*
X92360439Y-60965000D01*
X92887862Y-60746534D01*
X93291534Y-60342862D01*
X93510000Y-59815439D01*
X93510000Y-59244561D01*
X100165000Y-59244561D01*
X100165000Y-59815439D01*
X100383466Y-60342862D01*
X100787138Y-60746534D01*
X101314561Y-60965000D01*
X101885439Y-60965000D01*
X102412862Y-60746534D01*
X102816534Y-60342862D01*
X103035000Y-59815439D01*
X103035000Y-59244561D01*
X109690000Y-59244561D01*
X109690000Y-59815439D01*
X109908466Y-60342862D01*
X110312138Y-60746534D01*
X110839561Y-60965000D01*
X111410439Y-60965000D01*
X111937862Y-60746534D01*
X112341534Y-60342862D01*
X112398820Y-60204561D01*
X135725000Y-60204561D01*
X135725000Y-60775439D01*
X135943466Y-61302862D01*
X136347138Y-61706534D01*
X136874561Y-61925000D01*
X137445439Y-61925000D01*
X137972862Y-61706534D01*
X138376534Y-61302862D01*
X138595000Y-60775439D01*
X138595000Y-60204561D01*
X150330000Y-60204561D01*
X150330000Y-60775439D01*
X150548466Y-61302862D01*
X150952138Y-61706534D01*
X151479561Y-61925000D01*
X152050439Y-61925000D01*
X152577862Y-61706534D01*
X152981534Y-61302862D01*
X153200000Y-60775439D01*
X153200000Y-60204561D01*
X166205000Y-60204561D01*
X166205000Y-60775439D01*
X166423466Y-61302862D01*
X166827138Y-61706534D01*
X167354561Y-61925000D01*
X167925439Y-61925000D01*
X168452862Y-61706534D01*
X168856534Y-61302862D01*
X169075000Y-60775439D01*
X169075000Y-60204561D01*
X168856534Y-59677138D01*
X168452862Y-59273466D01*
X167925439Y-59055000D01*
X167354561Y-59055000D01*
X166827138Y-59273466D01*
X166423466Y-59677138D01*
X166205000Y-60204561D01*
X153200000Y-60204561D01*
X152981534Y-59677138D01*
X152577862Y-59273466D01*
X152050439Y-59055000D01*
X151479561Y-59055000D01*
X150952138Y-59273466D01*
X150548466Y-59677138D01*
X150330000Y-60204561D01*
X138595000Y-60204561D01*
X138376534Y-59677138D01*
X137972862Y-59273466D01*
X137445439Y-59055000D01*
X136874561Y-59055000D01*
X136347138Y-59273466D01*
X135943466Y-59677138D01*
X135725000Y-60204561D01*
X112398820Y-60204561D01*
X112560000Y-59815439D01*
X112560000Y-59244561D01*
X112341534Y-58717138D01*
X111937862Y-58313466D01*
X111410439Y-58095000D01*
X110839561Y-58095000D01*
X110312138Y-58313466D01*
X109908466Y-58717138D01*
X109690000Y-59244561D01*
X103035000Y-59244561D01*
X102816534Y-58717138D01*
X102412862Y-58313466D01*
X101885439Y-58095000D01*
X101314561Y-58095000D01*
X100787138Y-58313466D01*
X100383466Y-58717138D01*
X100165000Y-59244561D01*
X93510000Y-59244561D01*
X93291534Y-58717138D01*
X92887862Y-58313466D01*
X92360439Y-58095000D01*
X91789561Y-58095000D01*
X91262138Y-58313466D01*
X90858466Y-58717138D01*
X90640000Y-59244561D01*
X83985000Y-59244561D01*
X83766534Y-58717138D01*
X83362862Y-58313466D01*
X82835439Y-58095000D01*
X82264561Y-58095000D01*
X81737138Y-58313466D01*
X81333466Y-58717138D01*
X81115000Y-59244561D01*
X77255506Y-59244561D01*
X77255506Y-54512745D01*
X116686861Y-54512745D01*
X116760995Y-54758864D01*
X117298223Y-54951965D01*
X117868454Y-54924778D01*
X118269005Y-54758864D01*
X118343139Y-54512745D01*
X117515000Y-53684605D01*
X116686861Y-54512745D01*
X77255506Y-54512745D01*
X77255506Y-53288223D01*
X116068035Y-53288223D01*
X116095222Y-53858454D01*
X116261136Y-54259005D01*
X116507255Y-54333139D01*
X117335395Y-53505000D01*
X117694605Y-53505000D01*
X118522745Y-54333139D01*
X118570307Y-54318813D01*
X118616843Y-54552765D01*
X118757191Y-54762809D01*
X118967235Y-54903157D01*
X119215000Y-54952440D01*
X120815000Y-54952440D01*
X121062765Y-54903157D01*
X121272809Y-54762809D01*
X121413157Y-54552765D01*
X121462440Y-54305000D01*
X121462440Y-53219561D01*
X127510000Y-53219561D01*
X127510000Y-53790439D01*
X127728466Y-54317862D01*
X128132138Y-54721534D01*
X128659561Y-54940000D01*
X129230439Y-54940000D01*
X129757862Y-54721534D01*
X130021155Y-54458241D01*
X130106673Y-54664699D01*
X130285302Y-54843327D01*
X130518691Y-54940000D01*
X131159250Y-54940000D01*
X131318000Y-54781250D01*
X131318000Y-53632000D01*
X131572000Y-53632000D01*
X131572000Y-54781250D01*
X131730750Y-54940000D01*
X132371309Y-54940000D01*
X132604698Y-54843327D01*
X132783327Y-54664699D01*
X132880000Y-54431310D01*
X132880000Y-53814778D01*
X141240000Y-53814778D01*
X141240000Y-54465222D01*
X141488914Y-55066153D01*
X141948847Y-55526086D01*
X142549778Y-55775000D01*
X143200222Y-55775000D01*
X143801153Y-55526086D01*
X144261086Y-55066153D01*
X144510000Y-54465222D01*
X144510000Y-53814778D01*
X145685000Y-53814778D01*
X145685000Y-54465222D01*
X145933914Y-55066153D01*
X146393847Y-55526086D01*
X146994778Y-55775000D01*
X147645222Y-55775000D01*
X148246153Y-55526086D01*
X148706086Y-55066153D01*
X148955000Y-54465222D01*
X148955000Y-53814778D01*
X148706086Y-53213847D01*
X148672017Y-53179778D01*
X160925000Y-53179778D01*
X160925000Y-53830222D01*
X161173914Y-54431153D01*
X161633847Y-54891086D01*
X162234778Y-55140000D01*
X162885222Y-55140000D01*
X163486153Y-54891086D01*
X163946086Y-54431153D01*
X164195000Y-53830222D01*
X164195000Y-53179778D01*
X163946086Y-52578847D01*
X163912017Y-52544778D01*
X165370000Y-52544778D01*
X165370000Y-53195222D01*
X165618914Y-53796153D01*
X166078847Y-54256086D01*
X166679778Y-54505000D01*
X167330222Y-54505000D01*
X167931153Y-54256086D01*
X168391086Y-53796153D01*
X168640000Y-53195222D01*
X168640000Y-52544778D01*
X168391086Y-51943847D01*
X167931153Y-51483914D01*
X167330222Y-51235000D01*
X166679778Y-51235000D01*
X166078847Y-51483914D01*
X165618914Y-51943847D01*
X165370000Y-52544778D01*
X163912017Y-52544778D01*
X163486153Y-52118914D01*
X162885222Y-51870000D01*
X162234778Y-51870000D01*
X161633847Y-52118914D01*
X161173914Y-52578847D01*
X160925000Y-53179778D01*
X148672017Y-53179778D01*
X148246153Y-52753914D01*
X147645222Y-52505000D01*
X146994778Y-52505000D01*
X146393847Y-52753914D01*
X145933914Y-53213847D01*
X145685000Y-53814778D01*
X144510000Y-53814778D01*
X144261086Y-53213847D01*
X143801153Y-52753914D01*
X143200222Y-52505000D01*
X142549778Y-52505000D01*
X141948847Y-52753914D01*
X141488914Y-53213847D01*
X141240000Y-53814778D01*
X132880000Y-53814778D01*
X132880000Y-53790750D01*
X132721250Y-53632000D01*
X131572000Y-53632000D01*
X131318000Y-53632000D01*
X131298000Y-53632000D01*
X131298000Y-53378000D01*
X131318000Y-53378000D01*
X131318000Y-52228750D01*
X131572000Y-52228750D01*
X131572000Y-53378000D01*
X132721250Y-53378000D01*
X132880000Y-53219250D01*
X132880000Y-52578690D01*
X132783327Y-52345301D01*
X132604698Y-52166673D01*
X132371309Y-52070000D01*
X131730750Y-52070000D01*
X131572000Y-52228750D01*
X131318000Y-52228750D01*
X131159250Y-52070000D01*
X130518691Y-52070000D01*
X130285302Y-52166673D01*
X130106673Y-52345301D01*
X130021155Y-52551759D01*
X129757862Y-52288466D01*
X129230439Y-52070000D01*
X128659561Y-52070000D01*
X128132138Y-52288466D01*
X127728466Y-52692138D01*
X127510000Y-53219561D01*
X121462440Y-53219561D01*
X121462440Y-52705000D01*
X121413157Y-52457235D01*
X121272809Y-52247191D01*
X121062765Y-52106843D01*
X120815000Y-52057560D01*
X119215000Y-52057560D01*
X118967235Y-52106843D01*
X118757191Y-52247191D01*
X118616843Y-52457235D01*
X118570307Y-52691187D01*
X118522745Y-52676861D01*
X117694605Y-53505000D01*
X117335395Y-53505000D01*
X116507255Y-52676861D01*
X116261136Y-52750995D01*
X116068035Y-53288223D01*
X77255506Y-53288223D01*
X77255506Y-52497255D01*
X116686861Y-52497255D01*
X117515000Y-53325395D01*
X118343139Y-52497255D01*
X118269005Y-52251136D01*
X117731777Y-52058035D01*
X117161546Y-52085222D01*
X116760995Y-52251136D01*
X116686861Y-52497255D01*
X77255506Y-52497255D01*
X77255506Y-43896774D01*
X82075000Y-43896774D01*
X82075000Y-44653225D01*
X82162322Y-45092221D01*
X82494956Y-45590044D01*
X82992778Y-45922678D01*
X83580000Y-46039484D01*
X84167221Y-45922678D01*
X84665044Y-45590044D01*
X84857160Y-45302523D01*
X85149509Y-45665533D01*
X85667500Y-45948584D01*
X85759969Y-45966302D01*
X85993000Y-45845246D01*
X85993000Y-44402000D01*
X86247000Y-44402000D01*
X86247000Y-45845246D01*
X86480031Y-45966302D01*
X86572500Y-45948584D01*
X87090491Y-45665533D01*
X87390000Y-45293632D01*
X87689509Y-45665533D01*
X88207500Y-45948584D01*
X88299969Y-45966302D01*
X88533000Y-45845246D01*
X88533000Y-44402000D01*
X86247000Y-44402000D01*
X85993000Y-44402000D01*
X85973000Y-44402000D01*
X85973000Y-44148000D01*
X85993000Y-44148000D01*
X85993000Y-42704754D01*
X86247000Y-42704754D01*
X86247000Y-44148000D01*
X88533000Y-44148000D01*
X88533000Y-42704754D01*
X88787000Y-42704754D01*
X88787000Y-44148000D01*
X88807000Y-44148000D01*
X88807000Y-44402000D01*
X88787000Y-44402000D01*
X88787000Y-45845246D01*
X89020031Y-45966302D01*
X89112500Y-45948584D01*
X89630491Y-45665533D01*
X89768263Y-45494462D01*
X89945414Y-45759586D01*
X90236564Y-45954127D01*
X90579999Y-46022440D01*
X91820001Y-46022440D01*
X92163436Y-45954127D01*
X92454586Y-45759586D01*
X92649127Y-45468436D01*
X92717440Y-45125001D01*
X92717440Y-43896774D01*
X100075000Y-43896774D01*
X100075000Y-44653225D01*
X100162322Y-45092221D01*
X100494956Y-45590044D01*
X100992778Y-45922678D01*
X101580000Y-46039484D01*
X102167221Y-45922678D01*
X102665044Y-45590044D01*
X102857160Y-45302523D01*
X103149509Y-45665533D01*
X103667500Y-45948584D01*
X103759969Y-45966302D01*
X103993000Y-45845246D01*
X103993000Y-44402000D01*
X104247000Y-44402000D01*
X104247000Y-45845246D01*
X104480031Y-45966302D01*
X104572500Y-45948584D01*
X105090491Y-45665533D01*
X105390000Y-45293632D01*
X105689509Y-45665533D01*
X106207500Y-45948584D01*
X106299969Y-45966302D01*
X106533000Y-45845246D01*
X106533000Y-44402000D01*
X104247000Y-44402000D01*
X103993000Y-44402000D01*
X103973000Y-44402000D01*
X103973000Y-44148000D01*
X103993000Y-44148000D01*
X103993000Y-42704754D01*
X104247000Y-42704754D01*
X104247000Y-44148000D01*
X106533000Y-44148000D01*
X106533000Y-42704754D01*
X106787000Y-42704754D01*
X106787000Y-44148000D01*
X106807000Y-44148000D01*
X106807000Y-44402000D01*
X106787000Y-44402000D01*
X106787000Y-45845246D01*
X107020031Y-45966302D01*
X107112500Y-45948584D01*
X107630491Y-45665533D01*
X107768263Y-45494462D01*
X107945414Y-45759586D01*
X108236564Y-45954127D01*
X108579999Y-46022440D01*
X109820001Y-46022440D01*
X110163436Y-45954127D01*
X110454586Y-45759586D01*
X110649127Y-45468436D01*
X110717440Y-45125001D01*
X110717440Y-44230105D01*
X119265000Y-44230105D01*
X119265000Y-44999895D01*
X119559586Y-45711090D01*
X120103910Y-46255414D01*
X120815105Y-46550000D01*
X121584895Y-46550000D01*
X122296090Y-46255414D01*
X122567045Y-45984459D01*
X125010146Y-45984459D01*
X125145504Y-46282455D01*
X125863880Y-46559066D01*
X126633427Y-46539710D01*
X127254496Y-46282455D01*
X127389854Y-45984459D01*
X126200000Y-44794605D01*
X125010146Y-45984459D01*
X122567045Y-45984459D01*
X122840414Y-45711090D01*
X123135000Y-44999895D01*
X123135000Y-44278880D01*
X124255934Y-44278880D01*
X124275290Y-45048427D01*
X124532545Y-45669496D01*
X124830541Y-45804854D01*
X126020395Y-44615000D01*
X126379605Y-44615000D01*
X127569459Y-45804854D01*
X127867455Y-45669496D01*
X128144066Y-44951120D01*
X128124710Y-44181573D01*
X127867455Y-43560504D01*
X127569459Y-43425146D01*
X126379605Y-44615000D01*
X126020395Y-44615000D01*
X124830541Y-43425146D01*
X124532545Y-43560504D01*
X124255934Y-44278880D01*
X123135000Y-44278880D01*
X123135000Y-44230105D01*
X122840414Y-43518910D01*
X122567045Y-43245541D01*
X125010146Y-43245541D01*
X126200000Y-44435395D01*
X127320395Y-43315000D01*
X129252560Y-43315000D01*
X129252560Y-45915000D01*
X129301843Y-46162765D01*
X129442191Y-46372809D01*
X129652235Y-46513157D01*
X129900000Y-46562440D01*
X132500000Y-46562440D01*
X132747765Y-46513157D01*
X132957809Y-46372809D01*
X133098157Y-46162765D01*
X133147440Y-45915000D01*
X133147440Y-43436774D01*
X141455000Y-43436774D01*
X141455000Y-44193225D01*
X141542322Y-44632221D01*
X141874956Y-45130044D01*
X142372778Y-45462678D01*
X142960000Y-45579484D01*
X143547221Y-45462678D01*
X144045044Y-45130044D01*
X144237160Y-44842523D01*
X144529509Y-45205533D01*
X145047500Y-45488584D01*
X145139969Y-45506302D01*
X145373000Y-45385246D01*
X145373000Y-43942000D01*
X145627000Y-43942000D01*
X145627000Y-45385246D01*
X145860031Y-45506302D01*
X145952500Y-45488584D01*
X146470491Y-45205533D01*
X146770000Y-44833632D01*
X147069509Y-45205533D01*
X147587500Y-45488584D01*
X147679969Y-45506302D01*
X147913000Y-45385246D01*
X147913000Y-43942000D01*
X145627000Y-43942000D01*
X145373000Y-43942000D01*
X145353000Y-43942000D01*
X145353000Y-43688000D01*
X145373000Y-43688000D01*
X145373000Y-42244754D01*
X145627000Y-42244754D01*
X145627000Y-43688000D01*
X147913000Y-43688000D01*
X147913000Y-42244754D01*
X148167000Y-42244754D01*
X148167000Y-43688000D01*
X148187000Y-43688000D01*
X148187000Y-43942000D01*
X148167000Y-43942000D01*
X148167000Y-45385246D01*
X148400031Y-45506302D01*
X148492500Y-45488584D01*
X149010491Y-45205533D01*
X149148263Y-45034462D01*
X149325414Y-45299586D01*
X149616564Y-45494127D01*
X149959999Y-45562440D01*
X151200001Y-45562440D01*
X151543436Y-45494127D01*
X151834586Y-45299586D01*
X152029127Y-45008436D01*
X152097440Y-44665001D01*
X152097440Y-43436774D01*
X159455000Y-43436774D01*
X159455000Y-44193225D01*
X159542322Y-44632221D01*
X159874956Y-45130044D01*
X160372778Y-45462678D01*
X160960000Y-45579484D01*
X161547221Y-45462678D01*
X162045044Y-45130044D01*
X162237160Y-44842523D01*
X162529509Y-45205533D01*
X163047500Y-45488584D01*
X163139969Y-45506302D01*
X163373000Y-45385246D01*
X163373000Y-43942000D01*
X163627000Y-43942000D01*
X163627000Y-45385246D01*
X163860031Y-45506302D01*
X163952500Y-45488584D01*
X164470491Y-45205533D01*
X164770000Y-44833632D01*
X165069509Y-45205533D01*
X165587500Y-45488584D01*
X165679969Y-45506302D01*
X165913000Y-45385246D01*
X165913000Y-43942000D01*
X163627000Y-43942000D01*
X163373000Y-43942000D01*
X163353000Y-43942000D01*
X163353000Y-43688000D01*
X163373000Y-43688000D01*
X163373000Y-42244754D01*
X163627000Y-42244754D01*
X163627000Y-43688000D01*
X165913000Y-43688000D01*
X165913000Y-42244754D01*
X166167000Y-42244754D01*
X166167000Y-43688000D01*
X166187000Y-43688000D01*
X166187000Y-43942000D01*
X166167000Y-43942000D01*
X166167000Y-45385246D01*
X166400031Y-45506302D01*
X166492500Y-45488584D01*
X167010491Y-45205533D01*
X167148263Y-45034462D01*
X167325414Y-45299586D01*
X167616564Y-45494127D01*
X167959999Y-45562440D01*
X169200001Y-45562440D01*
X169543436Y-45494127D01*
X169834586Y-45299586D01*
X170029127Y-45008436D01*
X170097440Y-44665001D01*
X170097440Y-42964999D01*
X170029127Y-42621564D01*
X169834586Y-42330414D01*
X169543436Y-42135873D01*
X169200001Y-42067560D01*
X167959999Y-42067560D01*
X167616564Y-42135873D01*
X167325414Y-42330414D01*
X167148263Y-42595538D01*
X167010491Y-42424467D01*
X166492500Y-42141416D01*
X166400031Y-42123698D01*
X166167000Y-42244754D01*
X165913000Y-42244754D01*
X165679969Y-42123698D01*
X165587500Y-42141416D01*
X165069509Y-42424467D01*
X164770000Y-42796368D01*
X164470491Y-42424467D01*
X163952500Y-42141416D01*
X163860031Y-42123698D01*
X163627000Y-42244754D01*
X163373000Y-42244754D01*
X163139969Y-42123698D01*
X163047500Y-42141416D01*
X162529509Y-42424467D01*
X162237159Y-42787478D01*
X162045044Y-42499956D01*
X161547222Y-42167322D01*
X160960000Y-42050516D01*
X160372779Y-42167322D01*
X159874956Y-42499956D01*
X159542322Y-42997778D01*
X159455000Y-43436774D01*
X152097440Y-43436774D01*
X152097440Y-42964999D01*
X152029127Y-42621564D01*
X151834586Y-42330414D01*
X151543436Y-42135873D01*
X151200001Y-42067560D01*
X149959999Y-42067560D01*
X149616564Y-42135873D01*
X149325414Y-42330414D01*
X149148263Y-42595538D01*
X149010491Y-42424467D01*
X148492500Y-42141416D01*
X148400031Y-42123698D01*
X148167000Y-42244754D01*
X147913000Y-42244754D01*
X147679969Y-42123698D01*
X147587500Y-42141416D01*
X147069509Y-42424467D01*
X146770000Y-42796368D01*
X146470491Y-42424467D01*
X145952500Y-42141416D01*
X145860031Y-42123698D01*
X145627000Y-42244754D01*
X145373000Y-42244754D01*
X145139969Y-42123698D01*
X145047500Y-42141416D01*
X144529509Y-42424467D01*
X144237159Y-42787478D01*
X144045044Y-42499956D01*
X143547222Y-42167322D01*
X142960000Y-42050516D01*
X142372779Y-42167322D01*
X141874956Y-42499956D01*
X141542322Y-42997778D01*
X141455000Y-43436774D01*
X133147440Y-43436774D01*
X133147440Y-43315000D01*
X133098157Y-43067235D01*
X132957809Y-42857191D01*
X132747765Y-42716843D01*
X132500000Y-42667560D01*
X129900000Y-42667560D01*
X129652235Y-42716843D01*
X129442191Y-42857191D01*
X129301843Y-43067235D01*
X129252560Y-43315000D01*
X127320395Y-43315000D01*
X127389854Y-43245541D01*
X127254496Y-42947545D01*
X126536120Y-42670934D01*
X125766573Y-42690290D01*
X125145504Y-42947545D01*
X125010146Y-43245541D01*
X122567045Y-43245541D01*
X122296090Y-42974586D01*
X121584895Y-42680000D01*
X120815105Y-42680000D01*
X120103910Y-42974586D01*
X119559586Y-43518910D01*
X119265000Y-44230105D01*
X110717440Y-44230105D01*
X110717440Y-43424999D01*
X110649127Y-43081564D01*
X110454586Y-42790414D01*
X110163436Y-42595873D01*
X109820001Y-42527560D01*
X108579999Y-42527560D01*
X108236564Y-42595873D01*
X107945414Y-42790414D01*
X107768263Y-43055538D01*
X107630491Y-42884467D01*
X107112500Y-42601416D01*
X107020031Y-42583698D01*
X106787000Y-42704754D01*
X106533000Y-42704754D01*
X106299969Y-42583698D01*
X106207500Y-42601416D01*
X105689509Y-42884467D01*
X105390000Y-43256368D01*
X105090491Y-42884467D01*
X104572500Y-42601416D01*
X104480031Y-42583698D01*
X104247000Y-42704754D01*
X103993000Y-42704754D01*
X103759969Y-42583698D01*
X103667500Y-42601416D01*
X103149509Y-42884467D01*
X102857159Y-43247478D01*
X102665044Y-42959956D01*
X102167222Y-42627322D01*
X101580000Y-42510516D01*
X100992779Y-42627322D01*
X100494956Y-42959956D01*
X100162322Y-43457778D01*
X100075000Y-43896774D01*
X92717440Y-43896774D01*
X92717440Y-43424999D01*
X92649127Y-43081564D01*
X92454586Y-42790414D01*
X92163436Y-42595873D01*
X91820001Y-42527560D01*
X90579999Y-42527560D01*
X90236564Y-42595873D01*
X89945414Y-42790414D01*
X89768263Y-43055538D01*
X89630491Y-42884467D01*
X89112500Y-42601416D01*
X89020031Y-42583698D01*
X88787000Y-42704754D01*
X88533000Y-42704754D01*
X88299969Y-42583698D01*
X88207500Y-42601416D01*
X87689509Y-42884467D01*
X87390000Y-43256368D01*
X87090491Y-42884467D01*
X86572500Y-42601416D01*
X86480031Y-42583698D01*
X86247000Y-42704754D01*
X85993000Y-42704754D01*
X85759969Y-42583698D01*
X85667500Y-42601416D01*
X85149509Y-42884467D01*
X84857159Y-43247478D01*
X84665044Y-42959956D01*
X84167222Y-42627322D01*
X83580000Y-42510516D01*
X82992779Y-42627322D01*
X82494956Y-42959956D01*
X82162322Y-43457778D01*
X82075000Y-43896774D01*
X77255506Y-43896774D01*
X77255506Y-37478555D01*
X79701050Y-37478555D01*
X80226242Y-38109092D01*
X82101623Y-38919090D01*
X84144223Y-38949753D01*
X86043073Y-38196413D01*
X86173758Y-38109092D01*
X86698950Y-37478555D01*
X165701050Y-37478555D01*
X166226242Y-38109092D01*
X168101623Y-38919090D01*
X170144223Y-38949753D01*
X172043073Y-38196413D01*
X172173758Y-38109092D01*
X172698950Y-37478555D01*
X169200000Y-33979605D01*
X165701050Y-37478555D01*
X86698950Y-37478555D01*
X83200000Y-33979605D01*
X79701050Y-37478555D01*
X77255506Y-37478555D01*
X77255506Y-34744223D01*
X78050247Y-34744223D01*
X78803587Y-36643073D01*
X78890908Y-36773758D01*
X79521445Y-37298950D01*
X83020395Y-33800000D01*
X83379605Y-33800000D01*
X86878555Y-37298950D01*
X87509092Y-36773758D01*
X88319090Y-34898377D01*
X88321404Y-34744223D01*
X164050247Y-34744223D01*
X164803587Y-36643073D01*
X164890908Y-36773758D01*
X165521445Y-37298950D01*
X169020395Y-33800000D01*
X169379605Y-33800000D01*
X172878555Y-37298950D01*
X173509092Y-36773758D01*
X174319090Y-34898377D01*
X174349753Y-32855777D01*
X173596413Y-30956927D01*
X173509092Y-30826242D01*
X172878555Y-30301050D01*
X169379605Y-33800000D01*
X169020395Y-33800000D01*
X165521445Y-30301050D01*
X164890908Y-30826242D01*
X164080910Y-32701623D01*
X164050247Y-34744223D01*
X88321404Y-34744223D01*
X88349753Y-32855777D01*
X87596413Y-30956927D01*
X87509092Y-30826242D01*
X86878555Y-30301050D01*
X83379605Y-33800000D01*
X83020395Y-33800000D01*
X79521445Y-30301050D01*
X78890908Y-30826242D01*
X78080910Y-32701623D01*
X78050247Y-34744223D01*
X77255506Y-34744223D01*
X77255506Y-28927000D01*
X81558200Y-28927000D01*
X80356927Y-29403587D01*
G04 #@! TD*
M02*
