G04 #@! TF.GenerationSoftware,KiCad,Pcbnew,5.1.4*
G04 #@! TF.CreationDate,2019-09-29T22:13:44-04:00*
G04 #@! TF.ProjectId,balanced_amplifier,62616c61-6e63-4656-945f-616d706c6966,1*
G04 #@! TF.SameCoordinates,Original*
G04 #@! TF.FileFunction,Soldermask,Bot*
G04 #@! TF.FilePolarity,Negative*
%FSLAX46Y46*%
G04 Gerber Fmt 4.6, Leading zero omitted, Abs format (unit mm)*
G04 Created by KiCad (PCBNEW 5.1.4) date 2019-09-29 22:13:44*
%MOMM*%
%LPD*%
G04 APERTURE LIST*
%ADD10C,0.100000*%
G04 APERTURE END LIST*
D10*
G36*
X170834239Y-118611467D02*
G01*
X171148282Y-118673934D01*
X171739926Y-118919001D01*
X172272392Y-119274784D01*
X172725216Y-119727608D01*
X173080999Y-120260074D01*
X173326066Y-120851718D01*
X173451000Y-121479804D01*
X173451000Y-122120196D01*
X173326066Y-122748282D01*
X173080999Y-123339926D01*
X172725216Y-123872392D01*
X172272392Y-124325216D01*
X171739926Y-124680999D01*
X171148282Y-124926066D01*
X170834239Y-124988533D01*
X170520197Y-125051000D01*
X169879803Y-125051000D01*
X169565761Y-124988533D01*
X169251718Y-124926066D01*
X168660074Y-124680999D01*
X168127608Y-124325216D01*
X167674784Y-123872392D01*
X167319001Y-123339926D01*
X167073934Y-122748282D01*
X166949000Y-122120196D01*
X166949000Y-121479804D01*
X167073934Y-120851718D01*
X167319001Y-120260074D01*
X167674784Y-119727608D01*
X168127608Y-119274784D01*
X168660074Y-118919001D01*
X169251718Y-118673934D01*
X169565761Y-118611467D01*
X169879803Y-118549000D01*
X170520197Y-118549000D01*
X170834239Y-118611467D01*
X170834239Y-118611467D01*
G37*
G36*
X82834239Y-118611467D02*
G01*
X83148282Y-118673934D01*
X83739926Y-118919001D01*
X84272392Y-119274784D01*
X84725216Y-119727608D01*
X85080999Y-120260074D01*
X85326066Y-120851718D01*
X85451000Y-121479804D01*
X85451000Y-122120196D01*
X85326066Y-122748282D01*
X85080999Y-123339926D01*
X84725216Y-123872392D01*
X84272392Y-124325216D01*
X83739926Y-124680999D01*
X83148282Y-124926066D01*
X82834239Y-124988533D01*
X82520197Y-125051000D01*
X81879803Y-125051000D01*
X81565761Y-124988533D01*
X81251718Y-124926066D01*
X80660074Y-124680999D01*
X80127608Y-124325216D01*
X79674784Y-123872392D01*
X79319001Y-123339926D01*
X79073934Y-122748282D01*
X78949000Y-122120196D01*
X78949000Y-121479804D01*
X79073934Y-120851718D01*
X79319001Y-120260074D01*
X79674784Y-119727608D01*
X80127608Y-119274784D01*
X80660074Y-118919001D01*
X81251718Y-118673934D01*
X81565761Y-118611467D01*
X81879803Y-118549000D01*
X82520197Y-118549000D01*
X82834239Y-118611467D01*
X82834239Y-118611467D01*
G37*
G36*
X118416564Y-121629389D02*
G01*
X118607833Y-121708615D01*
X118607835Y-121708616D01*
X118779973Y-121823635D01*
X118926365Y-121970027D01*
X119026705Y-122120196D01*
X119041385Y-122142167D01*
X119120611Y-122333436D01*
X119161000Y-122536484D01*
X119161000Y-122743516D01*
X119120611Y-122946564D01*
X119041385Y-123137833D01*
X119041384Y-123137835D01*
X118926365Y-123309973D01*
X118779973Y-123456365D01*
X118607835Y-123571384D01*
X118607834Y-123571385D01*
X118607833Y-123571385D01*
X118416564Y-123650611D01*
X118213516Y-123691000D01*
X118006484Y-123691000D01*
X117803436Y-123650611D01*
X117612167Y-123571385D01*
X117612166Y-123571385D01*
X117612165Y-123571384D01*
X117440027Y-123456365D01*
X117293635Y-123309973D01*
X117178616Y-123137835D01*
X117178615Y-123137833D01*
X117099389Y-122946564D01*
X117059000Y-122743516D01*
X117059000Y-122536484D01*
X117099389Y-122333436D01*
X117178615Y-122142167D01*
X117193296Y-122120196D01*
X117293635Y-121970027D01*
X117440027Y-121823635D01*
X117612165Y-121708616D01*
X117612167Y-121708615D01*
X117803436Y-121629389D01*
X118006484Y-121589000D01*
X118213516Y-121589000D01*
X118416564Y-121629389D01*
X118416564Y-121629389D01*
G37*
G36*
X154574852Y-116752840D02*
G01*
X154606443Y-116762423D01*
X154635557Y-116777985D01*
X154661074Y-116798926D01*
X154682015Y-116824443D01*
X154697577Y-116853557D01*
X154707160Y-116885148D01*
X154711000Y-116924140D01*
X154711000Y-118675860D01*
X154707160Y-118714852D01*
X154697577Y-118746443D01*
X154682015Y-118775557D01*
X154661074Y-118801074D01*
X154635557Y-118822015D01*
X154606443Y-118837577D01*
X154574852Y-118847160D01*
X154535860Y-118851000D01*
X152784140Y-118851000D01*
X152745148Y-118847160D01*
X152713557Y-118837577D01*
X152684443Y-118822015D01*
X152658926Y-118801074D01*
X152637985Y-118775557D01*
X152622423Y-118746443D01*
X152612840Y-118714852D01*
X152609000Y-118675860D01*
X152609000Y-116924140D01*
X152612840Y-116885148D01*
X152622423Y-116853557D01*
X152637985Y-116824443D01*
X152658926Y-116798926D01*
X152684443Y-116777985D01*
X152713557Y-116762423D01*
X152745148Y-116752840D01*
X152784140Y-116749000D01*
X154535860Y-116749000D01*
X154574852Y-116752840D01*
X154574852Y-116752840D01*
G37*
G36*
X99046564Y-116789389D02*
G01*
X99230974Y-116865774D01*
X99237835Y-116868616D01*
X99301566Y-116911200D01*
X99409973Y-116983635D01*
X99556365Y-117130027D01*
X99671385Y-117302167D01*
X99750611Y-117493436D01*
X99791000Y-117696484D01*
X99791000Y-117903516D01*
X99750611Y-118106564D01*
X99671385Y-118297833D01*
X99671384Y-118297835D01*
X99556365Y-118469973D01*
X99409973Y-118616365D01*
X99237835Y-118731384D01*
X99237834Y-118731385D01*
X99237833Y-118731385D01*
X99046564Y-118810611D01*
X98843516Y-118851000D01*
X98636484Y-118851000D01*
X98433436Y-118810611D01*
X98242167Y-118731385D01*
X98242166Y-118731385D01*
X98242165Y-118731384D01*
X98070027Y-118616365D01*
X97923635Y-118469973D01*
X97808616Y-118297835D01*
X97808615Y-118297833D01*
X97729389Y-118106564D01*
X97689000Y-117903516D01*
X97689000Y-117696484D01*
X97729389Y-117493436D01*
X97808615Y-117302167D01*
X97923635Y-117130027D01*
X98070027Y-116983635D01*
X98178434Y-116911200D01*
X98242165Y-116868616D01*
X98249026Y-116865774D01*
X98433436Y-116789389D01*
X98636484Y-116749000D01*
X98843516Y-116749000D01*
X99046564Y-116789389D01*
X99046564Y-116789389D01*
G37*
G36*
X96506564Y-116789389D02*
G01*
X96690974Y-116865774D01*
X96697835Y-116868616D01*
X96761566Y-116911200D01*
X96869973Y-116983635D01*
X97016365Y-117130027D01*
X97131385Y-117302167D01*
X97210611Y-117493436D01*
X97251000Y-117696484D01*
X97251000Y-117903516D01*
X97210611Y-118106564D01*
X97131385Y-118297833D01*
X97131384Y-118297835D01*
X97016365Y-118469973D01*
X96869973Y-118616365D01*
X96697835Y-118731384D01*
X96697834Y-118731385D01*
X96697833Y-118731385D01*
X96506564Y-118810611D01*
X96303516Y-118851000D01*
X96096484Y-118851000D01*
X95893436Y-118810611D01*
X95702167Y-118731385D01*
X95702166Y-118731385D01*
X95702165Y-118731384D01*
X95530027Y-118616365D01*
X95383635Y-118469973D01*
X95268616Y-118297835D01*
X95268615Y-118297833D01*
X95189389Y-118106564D01*
X95149000Y-117903516D01*
X95149000Y-117696484D01*
X95189389Y-117493436D01*
X95268615Y-117302167D01*
X95383635Y-117130027D01*
X95530027Y-116983635D01*
X95638434Y-116911200D01*
X95702165Y-116868616D01*
X95709026Y-116865774D01*
X95893436Y-116789389D01*
X96096484Y-116749000D01*
X96303516Y-116749000D01*
X96506564Y-116789389D01*
X96506564Y-116789389D01*
G37*
G36*
X94574852Y-116752840D02*
G01*
X94606443Y-116762423D01*
X94635557Y-116777985D01*
X94661074Y-116798926D01*
X94682015Y-116824443D01*
X94697577Y-116853557D01*
X94707160Y-116885148D01*
X94711000Y-116924140D01*
X94711000Y-118675860D01*
X94707160Y-118714852D01*
X94697577Y-118746443D01*
X94682015Y-118775557D01*
X94661074Y-118801074D01*
X94635557Y-118822015D01*
X94606443Y-118837577D01*
X94574852Y-118847160D01*
X94535860Y-118851000D01*
X92784140Y-118851000D01*
X92745148Y-118847160D01*
X92713557Y-118837577D01*
X92684443Y-118822015D01*
X92658926Y-118801074D01*
X92637985Y-118775557D01*
X92622423Y-118746443D01*
X92612840Y-118714852D01*
X92609000Y-118675860D01*
X92609000Y-116924140D01*
X92612840Y-116885148D01*
X92622423Y-116853557D01*
X92637985Y-116824443D01*
X92658926Y-116798926D01*
X92684443Y-116777985D01*
X92713557Y-116762423D01*
X92745148Y-116752840D01*
X92784140Y-116749000D01*
X94535860Y-116749000D01*
X94574852Y-116752840D01*
X94574852Y-116752840D01*
G37*
G36*
X156506564Y-116789389D02*
G01*
X156690974Y-116865774D01*
X156697835Y-116868616D01*
X156761566Y-116911200D01*
X156869973Y-116983635D01*
X157016365Y-117130027D01*
X157131385Y-117302167D01*
X157210611Y-117493436D01*
X157251000Y-117696484D01*
X157251000Y-117903516D01*
X157210611Y-118106564D01*
X157131385Y-118297833D01*
X157131384Y-118297835D01*
X157016365Y-118469973D01*
X156869973Y-118616365D01*
X156697835Y-118731384D01*
X156697834Y-118731385D01*
X156697833Y-118731385D01*
X156506564Y-118810611D01*
X156303516Y-118851000D01*
X156096484Y-118851000D01*
X155893436Y-118810611D01*
X155702167Y-118731385D01*
X155702166Y-118731385D01*
X155702165Y-118731384D01*
X155530027Y-118616365D01*
X155383635Y-118469973D01*
X155268616Y-118297835D01*
X155268615Y-118297833D01*
X155189389Y-118106564D01*
X155149000Y-117903516D01*
X155149000Y-117696484D01*
X155189389Y-117493436D01*
X155268615Y-117302167D01*
X155383635Y-117130027D01*
X155530027Y-116983635D01*
X155638434Y-116911200D01*
X155702165Y-116868616D01*
X155709026Y-116865774D01*
X155893436Y-116789389D01*
X156096484Y-116749000D01*
X156303516Y-116749000D01*
X156506564Y-116789389D01*
X156506564Y-116789389D01*
G37*
G36*
X159046564Y-116789389D02*
G01*
X159230974Y-116865774D01*
X159237835Y-116868616D01*
X159301566Y-116911200D01*
X159409973Y-116983635D01*
X159556365Y-117130027D01*
X159671385Y-117302167D01*
X159750611Y-117493436D01*
X159791000Y-117696484D01*
X159791000Y-117903516D01*
X159750611Y-118106564D01*
X159671385Y-118297833D01*
X159671384Y-118297835D01*
X159556365Y-118469973D01*
X159409973Y-118616365D01*
X159237835Y-118731384D01*
X159237834Y-118731385D01*
X159237833Y-118731385D01*
X159046564Y-118810611D01*
X158843516Y-118851000D01*
X158636484Y-118851000D01*
X158433436Y-118810611D01*
X158242167Y-118731385D01*
X158242166Y-118731385D01*
X158242165Y-118731384D01*
X158070027Y-118616365D01*
X157923635Y-118469973D01*
X157808616Y-118297835D01*
X157808615Y-118297833D01*
X157729389Y-118106564D01*
X157689000Y-117903516D01*
X157689000Y-117696484D01*
X157729389Y-117493436D01*
X157808615Y-117302167D01*
X157923635Y-117130027D01*
X158070027Y-116983635D01*
X158178434Y-116911200D01*
X158242165Y-116868616D01*
X158249026Y-116865774D01*
X158433436Y-116789389D01*
X158636484Y-116749000D01*
X158843516Y-116749000D01*
X159046564Y-116789389D01*
X159046564Y-116789389D01*
G37*
G36*
X119161000Y-118691000D02*
G01*
X117059000Y-118691000D01*
X117059000Y-116589000D01*
X119161000Y-116589000D01*
X119161000Y-118691000D01*
X119161000Y-118691000D01*
G37*
G36*
X119161000Y-110436000D02*
G01*
X117059000Y-110436000D01*
X117059000Y-108334000D01*
X119161000Y-108334000D01*
X119161000Y-110436000D01*
X119161000Y-110436000D01*
G37*
G36*
X153966564Y-106629389D02*
G01*
X154157833Y-106708615D01*
X154157835Y-106708616D01*
X154329973Y-106823635D01*
X154476365Y-106970027D01*
X154591385Y-107142167D01*
X154670611Y-107333436D01*
X154711000Y-107536484D01*
X154711000Y-107743516D01*
X154670611Y-107946564D01*
X154591385Y-108137833D01*
X154591384Y-108137835D01*
X154476365Y-108309973D01*
X154329973Y-108456365D01*
X154157835Y-108571384D01*
X154157834Y-108571385D01*
X154157833Y-108571385D01*
X153966564Y-108650611D01*
X153763516Y-108691000D01*
X153556484Y-108691000D01*
X153353436Y-108650611D01*
X153162167Y-108571385D01*
X153162166Y-108571385D01*
X153162165Y-108571384D01*
X152990027Y-108456365D01*
X152843635Y-108309973D01*
X152728616Y-108137835D01*
X152728615Y-108137833D01*
X152649389Y-107946564D01*
X152609000Y-107743516D01*
X152609000Y-107536484D01*
X152649389Y-107333436D01*
X152728615Y-107142167D01*
X152843635Y-106970027D01*
X152990027Y-106823635D01*
X153162165Y-106708616D01*
X153162167Y-106708615D01*
X153353436Y-106629389D01*
X153556484Y-106589000D01*
X153763516Y-106589000D01*
X153966564Y-106629389D01*
X153966564Y-106629389D01*
G37*
G36*
X159046564Y-106629389D02*
G01*
X159237833Y-106708615D01*
X159237835Y-106708616D01*
X159409973Y-106823635D01*
X159556365Y-106970027D01*
X159671385Y-107142167D01*
X159750611Y-107333436D01*
X159791000Y-107536484D01*
X159791000Y-107743516D01*
X159750611Y-107946564D01*
X159671385Y-108137833D01*
X159671384Y-108137835D01*
X159556365Y-108309973D01*
X159409973Y-108456365D01*
X159237835Y-108571384D01*
X159237834Y-108571385D01*
X159237833Y-108571385D01*
X159046564Y-108650611D01*
X158843516Y-108691000D01*
X158636484Y-108691000D01*
X158433436Y-108650611D01*
X158242167Y-108571385D01*
X158242166Y-108571385D01*
X158242165Y-108571384D01*
X158070027Y-108456365D01*
X157923635Y-108309973D01*
X157808616Y-108137835D01*
X157808615Y-108137833D01*
X157729389Y-107946564D01*
X157689000Y-107743516D01*
X157689000Y-107536484D01*
X157729389Y-107333436D01*
X157808615Y-107142167D01*
X157923635Y-106970027D01*
X158070027Y-106823635D01*
X158242165Y-106708616D01*
X158242167Y-106708615D01*
X158433436Y-106629389D01*
X158636484Y-106589000D01*
X158843516Y-106589000D01*
X159046564Y-106629389D01*
X159046564Y-106629389D01*
G37*
G36*
X93966564Y-106629389D02*
G01*
X94157833Y-106708615D01*
X94157835Y-106708616D01*
X94329973Y-106823635D01*
X94476365Y-106970027D01*
X94591385Y-107142167D01*
X94670611Y-107333436D01*
X94711000Y-107536484D01*
X94711000Y-107743516D01*
X94670611Y-107946564D01*
X94591385Y-108137833D01*
X94591384Y-108137835D01*
X94476365Y-108309973D01*
X94329973Y-108456365D01*
X94157835Y-108571384D01*
X94157834Y-108571385D01*
X94157833Y-108571385D01*
X93966564Y-108650611D01*
X93763516Y-108691000D01*
X93556484Y-108691000D01*
X93353436Y-108650611D01*
X93162167Y-108571385D01*
X93162166Y-108571385D01*
X93162165Y-108571384D01*
X92990027Y-108456365D01*
X92843635Y-108309973D01*
X92728616Y-108137835D01*
X92728615Y-108137833D01*
X92649389Y-107946564D01*
X92609000Y-107743516D01*
X92609000Y-107536484D01*
X92649389Y-107333436D01*
X92728615Y-107142167D01*
X92843635Y-106970027D01*
X92990027Y-106823635D01*
X93162165Y-106708616D01*
X93162167Y-106708615D01*
X93353436Y-106629389D01*
X93556484Y-106589000D01*
X93763516Y-106589000D01*
X93966564Y-106629389D01*
X93966564Y-106629389D01*
G37*
G36*
X99046564Y-106629389D02*
G01*
X99237833Y-106708615D01*
X99237835Y-106708616D01*
X99409973Y-106823635D01*
X99556365Y-106970027D01*
X99671385Y-107142167D01*
X99750611Y-107333436D01*
X99791000Y-107536484D01*
X99791000Y-107743516D01*
X99750611Y-107946564D01*
X99671385Y-108137833D01*
X99671384Y-108137835D01*
X99556365Y-108309973D01*
X99409973Y-108456365D01*
X99237835Y-108571384D01*
X99237834Y-108571385D01*
X99237833Y-108571385D01*
X99046564Y-108650611D01*
X98843516Y-108691000D01*
X98636484Y-108691000D01*
X98433436Y-108650611D01*
X98242167Y-108571385D01*
X98242166Y-108571385D01*
X98242165Y-108571384D01*
X98070027Y-108456365D01*
X97923635Y-108309973D01*
X97808616Y-108137835D01*
X97808615Y-108137833D01*
X97729389Y-107946564D01*
X97689000Y-107743516D01*
X97689000Y-107536484D01*
X97729389Y-107333436D01*
X97808615Y-107142167D01*
X97923635Y-106970027D01*
X98070027Y-106823635D01*
X98242165Y-106708616D01*
X98242167Y-106708615D01*
X98433436Y-106629389D01*
X98636484Y-106589000D01*
X98843516Y-106589000D01*
X99046564Y-106629389D01*
X99046564Y-106629389D01*
G37*
G36*
X96506564Y-106629389D02*
G01*
X96697833Y-106708615D01*
X96697835Y-106708616D01*
X96869973Y-106823635D01*
X97016365Y-106970027D01*
X97131385Y-107142167D01*
X97210611Y-107333436D01*
X97251000Y-107536484D01*
X97251000Y-107743516D01*
X97210611Y-107946564D01*
X97131385Y-108137833D01*
X97131384Y-108137835D01*
X97016365Y-108309973D01*
X96869973Y-108456365D01*
X96697835Y-108571384D01*
X96697834Y-108571385D01*
X96697833Y-108571385D01*
X96506564Y-108650611D01*
X96303516Y-108691000D01*
X96096484Y-108691000D01*
X95893436Y-108650611D01*
X95702167Y-108571385D01*
X95702166Y-108571385D01*
X95702165Y-108571384D01*
X95530027Y-108456365D01*
X95383635Y-108309973D01*
X95268616Y-108137835D01*
X95268615Y-108137833D01*
X95189389Y-107946564D01*
X95149000Y-107743516D01*
X95149000Y-107536484D01*
X95189389Y-107333436D01*
X95268615Y-107142167D01*
X95383635Y-106970027D01*
X95530027Y-106823635D01*
X95702165Y-106708616D01*
X95702167Y-106708615D01*
X95893436Y-106629389D01*
X96096484Y-106589000D01*
X96303516Y-106589000D01*
X96506564Y-106629389D01*
X96506564Y-106629389D01*
G37*
G36*
X156506564Y-106629389D02*
G01*
X156697833Y-106708615D01*
X156697835Y-106708616D01*
X156869973Y-106823635D01*
X157016365Y-106970027D01*
X157131385Y-107142167D01*
X157210611Y-107333436D01*
X157251000Y-107536484D01*
X157251000Y-107743516D01*
X157210611Y-107946564D01*
X157131385Y-108137833D01*
X157131384Y-108137835D01*
X157016365Y-108309973D01*
X156869973Y-108456365D01*
X156697835Y-108571384D01*
X156697834Y-108571385D01*
X156697833Y-108571385D01*
X156506564Y-108650611D01*
X156303516Y-108691000D01*
X156096484Y-108691000D01*
X155893436Y-108650611D01*
X155702167Y-108571385D01*
X155702166Y-108571385D01*
X155702165Y-108571384D01*
X155530027Y-108456365D01*
X155383635Y-108309973D01*
X155268616Y-108137835D01*
X155268615Y-108137833D01*
X155189389Y-107946564D01*
X155149000Y-107743516D01*
X155149000Y-107536484D01*
X155189389Y-107333436D01*
X155268615Y-107142167D01*
X155383635Y-106970027D01*
X155530027Y-106823635D01*
X155702165Y-106708616D01*
X155702167Y-106708615D01*
X155893436Y-106629389D01*
X156096484Y-106589000D01*
X156303516Y-106589000D01*
X156506564Y-106629389D01*
X156506564Y-106629389D01*
G37*
G36*
X130391000Y-108331000D02*
G01*
X128689000Y-108331000D01*
X128689000Y-106629000D01*
X130391000Y-106629000D01*
X130391000Y-108331000D01*
X130391000Y-108331000D01*
G37*
G36*
X140551000Y-108331000D02*
G01*
X138849000Y-108331000D01*
X138849000Y-106629000D01*
X140551000Y-106629000D01*
X140551000Y-108331000D01*
X140551000Y-108331000D01*
G37*
G36*
X139948228Y-104661703D02*
G01*
X140103100Y-104725853D01*
X140242481Y-104818985D01*
X140361015Y-104937519D01*
X140454147Y-105076900D01*
X140518297Y-105231772D01*
X140551000Y-105396184D01*
X140551000Y-105563816D01*
X140518297Y-105728228D01*
X140454147Y-105883100D01*
X140361015Y-106022481D01*
X140242481Y-106141015D01*
X140103100Y-106234147D01*
X139948228Y-106298297D01*
X139783816Y-106331000D01*
X139616184Y-106331000D01*
X139451772Y-106298297D01*
X139296900Y-106234147D01*
X139157519Y-106141015D01*
X139038985Y-106022481D01*
X138945853Y-105883100D01*
X138881703Y-105728228D01*
X138849000Y-105563816D01*
X138849000Y-105396184D01*
X138881703Y-105231772D01*
X138945853Y-105076900D01*
X139038985Y-104937519D01*
X139157519Y-104818985D01*
X139296900Y-104725853D01*
X139451772Y-104661703D01*
X139616184Y-104629000D01*
X139783816Y-104629000D01*
X139948228Y-104661703D01*
X139948228Y-104661703D01*
G37*
G36*
X129788228Y-104661703D02*
G01*
X129943100Y-104725853D01*
X130082481Y-104818985D01*
X130201015Y-104937519D01*
X130294147Y-105076900D01*
X130358297Y-105231772D01*
X130391000Y-105396184D01*
X130391000Y-105563816D01*
X130358297Y-105728228D01*
X130294147Y-105883100D01*
X130201015Y-106022481D01*
X130082481Y-106141015D01*
X129943100Y-106234147D01*
X129788228Y-106298297D01*
X129623816Y-106331000D01*
X129456184Y-106331000D01*
X129291772Y-106298297D01*
X129136900Y-106234147D01*
X128997519Y-106141015D01*
X128878985Y-106022481D01*
X128785853Y-105883100D01*
X128721703Y-105728228D01*
X128689000Y-105563816D01*
X128689000Y-105396184D01*
X128721703Y-105231772D01*
X128785853Y-105076900D01*
X128878985Y-104937519D01*
X128997519Y-104818985D01*
X129136900Y-104725853D01*
X129291772Y-104661703D01*
X129456184Y-104629000D01*
X129623816Y-104629000D01*
X129788228Y-104661703D01*
X129788228Y-104661703D01*
G37*
G36*
X118416564Y-103374389D02*
G01*
X118607833Y-103453615D01*
X118607835Y-103453616D01*
X118779973Y-103568635D01*
X118926365Y-103715027D01*
X119041385Y-103887167D01*
X119120611Y-104078436D01*
X119161000Y-104281484D01*
X119161000Y-104488516D01*
X119120611Y-104691564D01*
X119041385Y-104882833D01*
X119041384Y-104882835D01*
X118926365Y-105054973D01*
X118779973Y-105201365D01*
X118607835Y-105316384D01*
X118607834Y-105316385D01*
X118607833Y-105316385D01*
X118416564Y-105395611D01*
X118213516Y-105436000D01*
X118006484Y-105436000D01*
X117803436Y-105395611D01*
X117612167Y-105316385D01*
X117612166Y-105316385D01*
X117612165Y-105316384D01*
X117440027Y-105201365D01*
X117293635Y-105054973D01*
X117178616Y-104882835D01*
X117178615Y-104882833D01*
X117099389Y-104691564D01*
X117059000Y-104488516D01*
X117059000Y-104281484D01*
X117099389Y-104078436D01*
X117178615Y-103887167D01*
X117293635Y-103715027D01*
X117440027Y-103568635D01*
X117612165Y-103453616D01*
X117612167Y-103453615D01*
X117803436Y-103374389D01*
X118006484Y-103334000D01*
X118213516Y-103334000D01*
X118416564Y-103374389D01*
X118416564Y-103374389D01*
G37*
G36*
X87243228Y-101541703D02*
G01*
X87398100Y-101605853D01*
X87537481Y-101698985D01*
X87656015Y-101817519D01*
X87749147Y-101956900D01*
X87813297Y-102111772D01*
X87846000Y-102276184D01*
X87846000Y-102443816D01*
X87813297Y-102608228D01*
X87749147Y-102763100D01*
X87656015Y-102902481D01*
X87537481Y-103021015D01*
X87398100Y-103114147D01*
X87243228Y-103178297D01*
X87078816Y-103211000D01*
X86911184Y-103211000D01*
X86746772Y-103178297D01*
X86591900Y-103114147D01*
X86452519Y-103021015D01*
X86333985Y-102902481D01*
X86240853Y-102763100D01*
X86176703Y-102608228D01*
X86144000Y-102443816D01*
X86144000Y-102276184D01*
X86176703Y-102111772D01*
X86240853Y-101956900D01*
X86333985Y-101817519D01*
X86452519Y-101698985D01*
X86591900Y-101605853D01*
X86746772Y-101541703D01*
X86911184Y-101509000D01*
X87078816Y-101509000D01*
X87243228Y-101541703D01*
X87243228Y-101541703D01*
G37*
G36*
X108833228Y-100906703D02*
G01*
X108988100Y-100970853D01*
X109127481Y-101063985D01*
X109246015Y-101182519D01*
X109339147Y-101321900D01*
X109403297Y-101476772D01*
X109436000Y-101641184D01*
X109436000Y-101808816D01*
X109403297Y-101973228D01*
X109339147Y-102128100D01*
X109246015Y-102267481D01*
X109127481Y-102386015D01*
X108988100Y-102479147D01*
X108833228Y-102543297D01*
X108668816Y-102576000D01*
X108501184Y-102576000D01*
X108336772Y-102543297D01*
X108181900Y-102479147D01*
X108042519Y-102386015D01*
X107923985Y-102267481D01*
X107830853Y-102128100D01*
X107766703Y-101973228D01*
X107734000Y-101808816D01*
X107734000Y-101641184D01*
X107766703Y-101476772D01*
X107830853Y-101321900D01*
X107923985Y-101182519D01*
X108042519Y-101063985D01*
X108181900Y-100970853D01*
X108336772Y-100906703D01*
X108501184Y-100874000D01*
X108668816Y-100874000D01*
X108833228Y-100906703D01*
X108833228Y-100906703D01*
G37*
G36*
X87846000Y-100711000D02*
G01*
X86144000Y-100711000D01*
X86144000Y-99009000D01*
X87846000Y-99009000D01*
X87846000Y-100711000D01*
X87846000Y-100711000D01*
G37*
G36*
X109436000Y-100076000D02*
G01*
X107734000Y-100076000D01*
X107734000Y-98374000D01*
X109436000Y-98374000D01*
X109436000Y-100076000D01*
X109436000Y-100076000D01*
G37*
G36*
X143816564Y-96944389D02*
G01*
X144007833Y-97023615D01*
X144007835Y-97023616D01*
X144179973Y-97138635D01*
X144326365Y-97285027D01*
X144441385Y-97457167D01*
X144520611Y-97648436D01*
X144561000Y-97851484D01*
X144561000Y-98058516D01*
X144520611Y-98261564D01*
X144441385Y-98452833D01*
X144441384Y-98452835D01*
X144326365Y-98624973D01*
X144179973Y-98771365D01*
X144007835Y-98886384D01*
X144007834Y-98886385D01*
X144007833Y-98886385D01*
X143816564Y-98965611D01*
X143613516Y-99006000D01*
X143406484Y-99006000D01*
X143203436Y-98965611D01*
X143012167Y-98886385D01*
X143012166Y-98886385D01*
X143012165Y-98886384D01*
X142840027Y-98771365D01*
X142693635Y-98624973D01*
X142578616Y-98452835D01*
X142578615Y-98452833D01*
X142499389Y-98261564D01*
X142459000Y-98058516D01*
X142459000Y-97851484D01*
X142499389Y-97648436D01*
X142578615Y-97457167D01*
X142693635Y-97285027D01*
X142840027Y-97138635D01*
X143012165Y-97023616D01*
X143012167Y-97023615D01*
X143203436Y-96944389D01*
X143406484Y-96904000D01*
X143613516Y-96904000D01*
X143816564Y-96944389D01*
X143816564Y-96944389D01*
G37*
G36*
X103811564Y-92499389D02*
G01*
X103900880Y-92536385D01*
X104002835Y-92578616D01*
X104058200Y-92615610D01*
X104174973Y-92693635D01*
X104321365Y-92840027D01*
X104436385Y-93012167D01*
X104515611Y-93203436D01*
X104556000Y-93406484D01*
X104556000Y-93613516D01*
X104515611Y-93816564D01*
X104436385Y-94007833D01*
X104436384Y-94007835D01*
X104321365Y-94179973D01*
X104174973Y-94326365D01*
X104002835Y-94441384D01*
X104002834Y-94441385D01*
X104002833Y-94441385D01*
X103811564Y-94520611D01*
X103608516Y-94561000D01*
X103401484Y-94561000D01*
X103198436Y-94520611D01*
X103007167Y-94441385D01*
X103007166Y-94441385D01*
X103007165Y-94441384D01*
X102835027Y-94326365D01*
X102688635Y-94179973D01*
X102573616Y-94007835D01*
X102573615Y-94007833D01*
X102494389Y-93816564D01*
X102454000Y-93613516D01*
X102454000Y-93406484D01*
X102494389Y-93203436D01*
X102573615Y-93012167D01*
X102688635Y-92840027D01*
X102835027Y-92693635D01*
X102951800Y-92615610D01*
X103007165Y-92578616D01*
X103109120Y-92536385D01*
X103198436Y-92499389D01*
X103401484Y-92459000D01*
X103608516Y-92459000D01*
X103811564Y-92499389D01*
X103811564Y-92499389D01*
G37*
G36*
X89841564Y-90594389D02*
G01*
X90032833Y-90673615D01*
X90032835Y-90673616D01*
X90204973Y-90788635D01*
X90351365Y-90935027D01*
X90466385Y-91107167D01*
X90545611Y-91298436D01*
X90586000Y-91501484D01*
X90586000Y-91708516D01*
X90545611Y-91911564D01*
X90500281Y-92021000D01*
X90466384Y-92102835D01*
X90351365Y-92274973D01*
X90204973Y-92421365D01*
X90032835Y-92536384D01*
X90032834Y-92536385D01*
X90032833Y-92536385D01*
X89841564Y-92615611D01*
X89638516Y-92656000D01*
X89431484Y-92656000D01*
X89228436Y-92615611D01*
X89037167Y-92536385D01*
X89037166Y-92536385D01*
X89037165Y-92536384D01*
X88865027Y-92421365D01*
X88718635Y-92274973D01*
X88603616Y-92102835D01*
X88569719Y-92021000D01*
X88524389Y-91911564D01*
X88484000Y-91708516D01*
X88484000Y-91501484D01*
X88524389Y-91298436D01*
X88603615Y-91107167D01*
X88718635Y-90935027D01*
X88865027Y-90788635D01*
X89037165Y-90673616D01*
X89037167Y-90673615D01*
X89228436Y-90594389D01*
X89431484Y-90554000D01*
X89638516Y-90554000D01*
X89841564Y-90594389D01*
X89841564Y-90594389D01*
G37*
G36*
X120321564Y-89959389D02*
G01*
X120512833Y-90038615D01*
X120512835Y-90038616D01*
X120684973Y-90153635D01*
X120831365Y-90300027D01*
X120946385Y-90472167D01*
X121025611Y-90663436D01*
X121066000Y-90866484D01*
X121066000Y-91073516D01*
X121025611Y-91276564D01*
X121016551Y-91298436D01*
X120946384Y-91467835D01*
X120831365Y-91639973D01*
X120684973Y-91786365D01*
X120512835Y-91901384D01*
X120512834Y-91901385D01*
X120512833Y-91901385D01*
X120321564Y-91980611D01*
X120118516Y-92021000D01*
X119911484Y-92021000D01*
X119708436Y-91980611D01*
X119517167Y-91901385D01*
X119517166Y-91901385D01*
X119517165Y-91901384D01*
X119345027Y-91786365D01*
X119198635Y-91639973D01*
X119083616Y-91467835D01*
X119013449Y-91298436D01*
X119004389Y-91276564D01*
X118964000Y-91073516D01*
X118964000Y-90866484D01*
X119004389Y-90663436D01*
X119083615Y-90472167D01*
X119198635Y-90300027D01*
X119345027Y-90153635D01*
X119517165Y-90038616D01*
X119517167Y-90038615D01*
X119708436Y-89959389D01*
X119911484Y-89919000D01*
X120118516Y-89919000D01*
X120321564Y-89959389D01*
X120321564Y-89959389D01*
G37*
G36*
X111431564Y-84879389D02*
G01*
X111622833Y-84958615D01*
X111622835Y-84958616D01*
X111794973Y-85073635D01*
X111941365Y-85220027D01*
X112056385Y-85392167D01*
X112135611Y-85583436D01*
X112176000Y-85786484D01*
X112176000Y-85993516D01*
X112135611Y-86196564D01*
X112056385Y-86387833D01*
X112056384Y-86387835D01*
X111941365Y-86559973D01*
X111794973Y-86706365D01*
X111622835Y-86821384D01*
X111622834Y-86821385D01*
X111622833Y-86821385D01*
X111431564Y-86900611D01*
X111228516Y-86941000D01*
X111021484Y-86941000D01*
X110818436Y-86900611D01*
X110627167Y-86821385D01*
X110627166Y-86821385D01*
X110627165Y-86821384D01*
X110455027Y-86706365D01*
X110308635Y-86559973D01*
X110193616Y-86387835D01*
X110193615Y-86387833D01*
X110114389Y-86196564D01*
X110074000Y-85993516D01*
X110074000Y-85786484D01*
X110114389Y-85583436D01*
X110193615Y-85392167D01*
X110308635Y-85220027D01*
X110455027Y-85073635D01*
X110627165Y-84958616D01*
X110627167Y-84958615D01*
X110818436Y-84879389D01*
X111021484Y-84839000D01*
X111228516Y-84839000D01*
X111431564Y-84879389D01*
X111431564Y-84879389D01*
G37*
G36*
X83491564Y-81069389D02*
G01*
X83682833Y-81148615D01*
X83682835Y-81148616D01*
X83854973Y-81263635D01*
X84001365Y-81410027D01*
X84072499Y-81516486D01*
X84116385Y-81582167D01*
X84195611Y-81773436D01*
X84236000Y-81976484D01*
X84236000Y-82183516D01*
X84195611Y-82386564D01*
X84127340Y-82551385D01*
X84116384Y-82577835D01*
X84001365Y-82749973D01*
X83854973Y-82896365D01*
X83682835Y-83011384D01*
X83682834Y-83011385D01*
X83682833Y-83011385D01*
X83491564Y-83090611D01*
X83288516Y-83131000D01*
X83081484Y-83131000D01*
X82878436Y-83090611D01*
X82687167Y-83011385D01*
X82687166Y-83011385D01*
X82687165Y-83011384D01*
X82515027Y-82896365D01*
X82368635Y-82749973D01*
X82253616Y-82577835D01*
X82242660Y-82551385D01*
X82174389Y-82386564D01*
X82134000Y-82183516D01*
X82134000Y-81976484D01*
X82174389Y-81773436D01*
X82253615Y-81582167D01*
X82297502Y-81516486D01*
X82368635Y-81410027D01*
X82515027Y-81263635D01*
X82687165Y-81148616D01*
X82687167Y-81148615D01*
X82878436Y-81069389D01*
X83081484Y-81029000D01*
X83288516Y-81029000D01*
X83491564Y-81069389D01*
X83491564Y-81069389D01*
G37*
G36*
X166486564Y-80609389D02*
G01*
X166677833Y-80688615D01*
X166677835Y-80688616D01*
X166849973Y-80803635D01*
X166996365Y-80950027D01*
X167111385Y-81122167D01*
X167190611Y-81313436D01*
X167231000Y-81516484D01*
X167231000Y-81723516D01*
X167190611Y-81926564D01*
X167111385Y-82117833D01*
X167111384Y-82117835D01*
X166996365Y-82289973D01*
X166849973Y-82436365D01*
X166677835Y-82551384D01*
X166677834Y-82551385D01*
X166677833Y-82551385D01*
X166486564Y-82630611D01*
X166283516Y-82671000D01*
X166076484Y-82671000D01*
X165873436Y-82630611D01*
X165682167Y-82551385D01*
X165682166Y-82551385D01*
X165682165Y-82551384D01*
X165510027Y-82436365D01*
X165363635Y-82289973D01*
X165248616Y-82117835D01*
X165248615Y-82117833D01*
X165169389Y-81926564D01*
X165129000Y-81723516D01*
X165129000Y-81516484D01*
X165169389Y-81313436D01*
X165248615Y-81122167D01*
X165363635Y-80950027D01*
X165510027Y-80803635D01*
X165682165Y-80688616D01*
X165682167Y-80688615D01*
X165873436Y-80609389D01*
X166076484Y-80569000D01*
X166283516Y-80569000D01*
X166486564Y-80609389D01*
X166486564Y-80609389D01*
G37*
G36*
X142546564Y-79164389D02*
G01*
X142737833Y-79243615D01*
X142737835Y-79243616D01*
X142909973Y-79358635D01*
X143056365Y-79505027D01*
X143171385Y-79677167D01*
X143250611Y-79868436D01*
X143291000Y-80071484D01*
X143291000Y-80278516D01*
X143250611Y-80481564D01*
X143214394Y-80569000D01*
X143171384Y-80672835D01*
X143056365Y-80844973D01*
X142909973Y-80991365D01*
X142737835Y-81106384D01*
X142737834Y-81106385D01*
X142737833Y-81106385D01*
X142546564Y-81185611D01*
X142343516Y-81226000D01*
X142136484Y-81226000D01*
X141933436Y-81185611D01*
X141742167Y-81106385D01*
X141742166Y-81106385D01*
X141742165Y-81106384D01*
X141570027Y-80991365D01*
X141423635Y-80844973D01*
X141308616Y-80672835D01*
X141265606Y-80569000D01*
X141229389Y-80481564D01*
X141189000Y-80278516D01*
X141189000Y-80071484D01*
X141229389Y-79868436D01*
X141308615Y-79677167D01*
X141423635Y-79505027D01*
X141570027Y-79358635D01*
X141742165Y-79243616D01*
X141742167Y-79243615D01*
X141933436Y-79164389D01*
X142136484Y-79124000D01*
X142343516Y-79124000D01*
X142546564Y-79164389D01*
X142546564Y-79164389D01*
G37*
G36*
X110161564Y-76624389D02*
G01*
X110352833Y-76703615D01*
X110352835Y-76703616D01*
X110524973Y-76818635D01*
X110671365Y-76965027D01*
X110774345Y-77119147D01*
X110786385Y-77137167D01*
X110865611Y-77328436D01*
X110906000Y-77531484D01*
X110906000Y-77738516D01*
X110865611Y-77941564D01*
X110786385Y-78132833D01*
X110786384Y-78132835D01*
X110671365Y-78304973D01*
X110524973Y-78451365D01*
X110352835Y-78566384D01*
X110352834Y-78566385D01*
X110352833Y-78566385D01*
X110161564Y-78645611D01*
X109958516Y-78686000D01*
X109751484Y-78686000D01*
X109548436Y-78645611D01*
X109357167Y-78566385D01*
X109357166Y-78566385D01*
X109357165Y-78566384D01*
X109185027Y-78451365D01*
X109038635Y-78304973D01*
X108923616Y-78132835D01*
X108923615Y-78132833D01*
X108844389Y-77941564D01*
X108804000Y-77738516D01*
X108804000Y-77531484D01*
X108844389Y-77328436D01*
X108923615Y-77137167D01*
X108935656Y-77119147D01*
X109038635Y-76965027D01*
X109185027Y-76818635D01*
X109357165Y-76703616D01*
X109357167Y-76703615D01*
X109548436Y-76624389D01*
X109751484Y-76584000D01*
X109958516Y-76584000D01*
X110161564Y-76624389D01*
X110161564Y-76624389D01*
G37*
G36*
X154553228Y-75546703D02*
G01*
X154708100Y-75610853D01*
X154847481Y-75703985D01*
X154966015Y-75822519D01*
X155059147Y-75961900D01*
X155123297Y-76116772D01*
X155156000Y-76281184D01*
X155156000Y-76448816D01*
X155123297Y-76613228D01*
X155059147Y-76768100D01*
X154966015Y-76907481D01*
X154847481Y-77026015D01*
X154708100Y-77119147D01*
X154553228Y-77183297D01*
X154388816Y-77216000D01*
X154221184Y-77216000D01*
X154056772Y-77183297D01*
X153901900Y-77119147D01*
X153762519Y-77026015D01*
X153643985Y-76907481D01*
X153550853Y-76768100D01*
X153486703Y-76613228D01*
X153454000Y-76448816D01*
X153454000Y-76281184D01*
X153486703Y-76116772D01*
X153550853Y-75961900D01*
X153643985Y-75822519D01*
X153762519Y-75703985D01*
X153901900Y-75610853D01*
X154056772Y-75546703D01*
X154221184Y-75514000D01*
X154388816Y-75514000D01*
X154553228Y-75546703D01*
X154553228Y-75546703D01*
G37*
G36*
X159553228Y-75546703D02*
G01*
X159708100Y-75610853D01*
X159847481Y-75703985D01*
X159966015Y-75822519D01*
X160059147Y-75961900D01*
X160123297Y-76116772D01*
X160156000Y-76281184D01*
X160156000Y-76448816D01*
X160123297Y-76613228D01*
X160059147Y-76768100D01*
X159966015Y-76907481D01*
X159847481Y-77026015D01*
X159708100Y-77119147D01*
X159553228Y-77183297D01*
X159388816Y-77216000D01*
X159221184Y-77216000D01*
X159056772Y-77183297D01*
X158901900Y-77119147D01*
X158762519Y-77026015D01*
X158643985Y-76907481D01*
X158550853Y-76768100D01*
X158486703Y-76613228D01*
X158454000Y-76448816D01*
X158454000Y-76281184D01*
X158486703Y-76116772D01*
X158550853Y-75961900D01*
X158643985Y-75822519D01*
X158762519Y-75703985D01*
X158901900Y-75610853D01*
X159056772Y-75546703D01*
X159221184Y-75514000D01*
X159388816Y-75514000D01*
X159553228Y-75546703D01*
X159553228Y-75546703D01*
G37*
G36*
X82221564Y-67734389D02*
G01*
X82412833Y-67813615D01*
X82412835Y-67813616D01*
X82584973Y-67928635D01*
X82731365Y-68075027D01*
X82846385Y-68247167D01*
X82925611Y-68438436D01*
X82966000Y-68641484D01*
X82966000Y-68848516D01*
X82925611Y-69051564D01*
X82846385Y-69242833D01*
X82846384Y-69242835D01*
X82731365Y-69414973D01*
X82584973Y-69561365D01*
X82412835Y-69676384D01*
X82412834Y-69676385D01*
X82412833Y-69676385D01*
X82221564Y-69755611D01*
X82018516Y-69796000D01*
X81811484Y-69796000D01*
X81608436Y-69755611D01*
X81417167Y-69676385D01*
X81417166Y-69676385D01*
X81417165Y-69676384D01*
X81245027Y-69561365D01*
X81098635Y-69414973D01*
X80983616Y-69242835D01*
X80983615Y-69242833D01*
X80904389Y-69051564D01*
X80864000Y-68848516D01*
X80864000Y-68641484D01*
X80904389Y-68438436D01*
X80983615Y-68247167D01*
X81098635Y-68075027D01*
X81245027Y-67928635D01*
X81417165Y-67813616D01*
X81417167Y-67813615D01*
X81608436Y-67734389D01*
X81811484Y-67694000D01*
X82018516Y-67694000D01*
X82221564Y-67734389D01*
X82221564Y-67734389D01*
G37*
G36*
X137408228Y-64671703D02*
G01*
X137563100Y-64735853D01*
X137702481Y-64828985D01*
X137821015Y-64947519D01*
X137914147Y-65086900D01*
X137978297Y-65241772D01*
X138011000Y-65406184D01*
X138011000Y-65573816D01*
X137978297Y-65738228D01*
X137914147Y-65893100D01*
X137821015Y-66032481D01*
X137702481Y-66151015D01*
X137563100Y-66244147D01*
X137408228Y-66308297D01*
X137243816Y-66341000D01*
X137076184Y-66341000D01*
X136911772Y-66308297D01*
X136756900Y-66244147D01*
X136617519Y-66151015D01*
X136498985Y-66032481D01*
X136405853Y-65893100D01*
X136341703Y-65738228D01*
X136309000Y-65573816D01*
X136309000Y-65406184D01*
X136341703Y-65241772D01*
X136405853Y-65086900D01*
X136498985Y-64947519D01*
X136617519Y-64828985D01*
X136756900Y-64735853D01*
X136911772Y-64671703D01*
X137076184Y-64639000D01*
X137243816Y-64639000D01*
X137408228Y-64671703D01*
X137408228Y-64671703D01*
G37*
G36*
X152013228Y-64671703D02*
G01*
X152168100Y-64735853D01*
X152307481Y-64828985D01*
X152426015Y-64947519D01*
X152519147Y-65086900D01*
X152583297Y-65241772D01*
X152616000Y-65406184D01*
X152616000Y-65573816D01*
X152583297Y-65738228D01*
X152519147Y-65893100D01*
X152426015Y-66032481D01*
X152307481Y-66151015D01*
X152168100Y-66244147D01*
X152013228Y-66308297D01*
X151848816Y-66341000D01*
X151681184Y-66341000D01*
X151516772Y-66308297D01*
X151361900Y-66244147D01*
X151222519Y-66151015D01*
X151103985Y-66032481D01*
X151010853Y-65893100D01*
X150946703Y-65738228D01*
X150914000Y-65573816D01*
X150914000Y-65406184D01*
X150946703Y-65241772D01*
X151010853Y-65086900D01*
X151103985Y-64947519D01*
X151222519Y-64828985D01*
X151361900Y-64735853D01*
X151516772Y-64671703D01*
X151681184Y-64639000D01*
X151848816Y-64639000D01*
X152013228Y-64671703D01*
X152013228Y-64671703D01*
G37*
G36*
X167888228Y-64671703D02*
G01*
X168043100Y-64735853D01*
X168182481Y-64828985D01*
X168301015Y-64947519D01*
X168394147Y-65086900D01*
X168458297Y-65241772D01*
X168491000Y-65406184D01*
X168491000Y-65573816D01*
X168458297Y-65738228D01*
X168394147Y-65893100D01*
X168301015Y-66032481D01*
X168182481Y-66151015D01*
X168043100Y-66244147D01*
X167888228Y-66308297D01*
X167723816Y-66341000D01*
X167556184Y-66341000D01*
X167391772Y-66308297D01*
X167236900Y-66244147D01*
X167097519Y-66151015D01*
X166978985Y-66032481D01*
X166885853Y-65893100D01*
X166821703Y-65738228D01*
X166789000Y-65573816D01*
X166789000Y-65406184D01*
X166821703Y-65241772D01*
X166885853Y-65086900D01*
X166978985Y-64947519D01*
X167097519Y-64828985D01*
X167236900Y-64735853D01*
X167391772Y-64671703D01*
X167556184Y-64639000D01*
X167723816Y-64639000D01*
X167888228Y-64671703D01*
X167888228Y-64671703D01*
G37*
G36*
X111373228Y-62211703D02*
G01*
X111528100Y-62275853D01*
X111667481Y-62368985D01*
X111786015Y-62487519D01*
X111879147Y-62626900D01*
X111943297Y-62781772D01*
X111976000Y-62946184D01*
X111976000Y-63113816D01*
X111943297Y-63278228D01*
X111879147Y-63433100D01*
X111786015Y-63572481D01*
X111667481Y-63691015D01*
X111528100Y-63784147D01*
X111373228Y-63848297D01*
X111208816Y-63881000D01*
X111041184Y-63881000D01*
X110876772Y-63848297D01*
X110721900Y-63784147D01*
X110582519Y-63691015D01*
X110463985Y-63572481D01*
X110370853Y-63433100D01*
X110306703Y-63278228D01*
X110274000Y-63113816D01*
X110274000Y-62946184D01*
X110306703Y-62781772D01*
X110370853Y-62626900D01*
X110463985Y-62487519D01*
X110582519Y-62368985D01*
X110721900Y-62275853D01*
X110876772Y-62211703D01*
X111041184Y-62179000D01*
X111208816Y-62179000D01*
X111373228Y-62211703D01*
X111373228Y-62211703D01*
G37*
G36*
X82798228Y-62211703D02*
G01*
X82953100Y-62275853D01*
X83092481Y-62368985D01*
X83211015Y-62487519D01*
X83304147Y-62626900D01*
X83368297Y-62781772D01*
X83401000Y-62946184D01*
X83401000Y-63113816D01*
X83368297Y-63278228D01*
X83304147Y-63433100D01*
X83211015Y-63572481D01*
X83092481Y-63691015D01*
X82953100Y-63784147D01*
X82798228Y-63848297D01*
X82633816Y-63881000D01*
X82466184Y-63881000D01*
X82301772Y-63848297D01*
X82146900Y-63784147D01*
X82007519Y-63691015D01*
X81888985Y-63572481D01*
X81795853Y-63433100D01*
X81731703Y-63278228D01*
X81699000Y-63113816D01*
X81699000Y-62946184D01*
X81731703Y-62781772D01*
X81795853Y-62626900D01*
X81888985Y-62487519D01*
X82007519Y-62368985D01*
X82146900Y-62275853D01*
X82301772Y-62211703D01*
X82466184Y-62179000D01*
X82633816Y-62179000D01*
X82798228Y-62211703D01*
X82798228Y-62211703D01*
G37*
G36*
X92323228Y-62211703D02*
G01*
X92478100Y-62275853D01*
X92617481Y-62368985D01*
X92736015Y-62487519D01*
X92829147Y-62626900D01*
X92893297Y-62781772D01*
X92926000Y-62946184D01*
X92926000Y-63113816D01*
X92893297Y-63278228D01*
X92829147Y-63433100D01*
X92736015Y-63572481D01*
X92617481Y-63691015D01*
X92478100Y-63784147D01*
X92323228Y-63848297D01*
X92158816Y-63881000D01*
X91991184Y-63881000D01*
X91826772Y-63848297D01*
X91671900Y-63784147D01*
X91532519Y-63691015D01*
X91413985Y-63572481D01*
X91320853Y-63433100D01*
X91256703Y-63278228D01*
X91224000Y-63113816D01*
X91224000Y-62946184D01*
X91256703Y-62781772D01*
X91320853Y-62626900D01*
X91413985Y-62487519D01*
X91532519Y-62368985D01*
X91671900Y-62275853D01*
X91826772Y-62211703D01*
X91991184Y-62179000D01*
X92158816Y-62179000D01*
X92323228Y-62211703D01*
X92323228Y-62211703D01*
G37*
G36*
X101848228Y-62211703D02*
G01*
X102003100Y-62275853D01*
X102142481Y-62368985D01*
X102261015Y-62487519D01*
X102354147Y-62626900D01*
X102418297Y-62781772D01*
X102451000Y-62946184D01*
X102451000Y-63113816D01*
X102418297Y-63278228D01*
X102354147Y-63433100D01*
X102261015Y-63572481D01*
X102142481Y-63691015D01*
X102003100Y-63784147D01*
X101848228Y-63848297D01*
X101683816Y-63881000D01*
X101516184Y-63881000D01*
X101351772Y-63848297D01*
X101196900Y-63784147D01*
X101057519Y-63691015D01*
X100938985Y-63572481D01*
X100845853Y-63433100D01*
X100781703Y-63278228D01*
X100749000Y-63113816D01*
X100749000Y-62946184D01*
X100781703Y-62781772D01*
X100845853Y-62626900D01*
X100938985Y-62487519D01*
X101057519Y-62368985D01*
X101196900Y-62275853D01*
X101351772Y-62211703D01*
X101516184Y-62179000D01*
X101683816Y-62179000D01*
X101848228Y-62211703D01*
X101848228Y-62211703D01*
G37*
G36*
X152013228Y-59671703D02*
G01*
X152168100Y-59735853D01*
X152307481Y-59828985D01*
X152426015Y-59947519D01*
X152519147Y-60086900D01*
X152583297Y-60241772D01*
X152616000Y-60406184D01*
X152616000Y-60573816D01*
X152583297Y-60738228D01*
X152519147Y-60893100D01*
X152426015Y-61032481D01*
X152307481Y-61151015D01*
X152168100Y-61244147D01*
X152013228Y-61308297D01*
X151848816Y-61341000D01*
X151681184Y-61341000D01*
X151516772Y-61308297D01*
X151361900Y-61244147D01*
X151222519Y-61151015D01*
X151103985Y-61032481D01*
X151010853Y-60893100D01*
X150946703Y-60738228D01*
X150914000Y-60573816D01*
X150914000Y-60406184D01*
X150946703Y-60241772D01*
X151010853Y-60086900D01*
X151103985Y-59947519D01*
X151222519Y-59828985D01*
X151361900Y-59735853D01*
X151516772Y-59671703D01*
X151681184Y-59639000D01*
X151848816Y-59639000D01*
X152013228Y-59671703D01*
X152013228Y-59671703D01*
G37*
G36*
X167888228Y-59671703D02*
G01*
X168043100Y-59735853D01*
X168182481Y-59828985D01*
X168301015Y-59947519D01*
X168394147Y-60086900D01*
X168458297Y-60241772D01*
X168491000Y-60406184D01*
X168491000Y-60573816D01*
X168458297Y-60738228D01*
X168394147Y-60893100D01*
X168301015Y-61032481D01*
X168182481Y-61151015D01*
X168043100Y-61244147D01*
X167888228Y-61308297D01*
X167723816Y-61341000D01*
X167556184Y-61341000D01*
X167391772Y-61308297D01*
X167236900Y-61244147D01*
X167097519Y-61151015D01*
X166978985Y-61032481D01*
X166885853Y-60893100D01*
X166821703Y-60738228D01*
X166789000Y-60573816D01*
X166789000Y-60406184D01*
X166821703Y-60241772D01*
X166885853Y-60086900D01*
X166978985Y-59947519D01*
X167097519Y-59828985D01*
X167236900Y-59735853D01*
X167391772Y-59671703D01*
X167556184Y-59639000D01*
X167723816Y-59639000D01*
X167888228Y-59671703D01*
X167888228Y-59671703D01*
G37*
G36*
X137408228Y-59671703D02*
G01*
X137563100Y-59735853D01*
X137702481Y-59828985D01*
X137821015Y-59947519D01*
X137914147Y-60086900D01*
X137978297Y-60241772D01*
X138011000Y-60406184D01*
X138011000Y-60573816D01*
X137978297Y-60738228D01*
X137914147Y-60893100D01*
X137821015Y-61032481D01*
X137702481Y-61151015D01*
X137563100Y-61244147D01*
X137408228Y-61308297D01*
X137243816Y-61341000D01*
X137076184Y-61341000D01*
X136911772Y-61308297D01*
X136756900Y-61244147D01*
X136617519Y-61151015D01*
X136498985Y-61032481D01*
X136405853Y-60893100D01*
X136341703Y-60738228D01*
X136309000Y-60573816D01*
X136309000Y-60406184D01*
X136341703Y-60241772D01*
X136405853Y-60086900D01*
X136498985Y-59947519D01*
X136617519Y-59828985D01*
X136756900Y-59735853D01*
X136911772Y-59671703D01*
X137076184Y-59639000D01*
X137243816Y-59639000D01*
X137408228Y-59671703D01*
X137408228Y-59671703D01*
G37*
G36*
X82798228Y-58711703D02*
G01*
X82953100Y-58775853D01*
X83092481Y-58868985D01*
X83211015Y-58987519D01*
X83304147Y-59126900D01*
X83368297Y-59281772D01*
X83401000Y-59446184D01*
X83401000Y-59613816D01*
X83368297Y-59778228D01*
X83304147Y-59933100D01*
X83211015Y-60072481D01*
X83092481Y-60191015D01*
X82953100Y-60284147D01*
X82798228Y-60348297D01*
X82633816Y-60381000D01*
X82466184Y-60381000D01*
X82301772Y-60348297D01*
X82146900Y-60284147D01*
X82007519Y-60191015D01*
X81888985Y-60072481D01*
X81795853Y-59933100D01*
X81731703Y-59778228D01*
X81699000Y-59613816D01*
X81699000Y-59446184D01*
X81731703Y-59281772D01*
X81795853Y-59126900D01*
X81888985Y-58987519D01*
X82007519Y-58868985D01*
X82146900Y-58775853D01*
X82301772Y-58711703D01*
X82466184Y-58679000D01*
X82633816Y-58679000D01*
X82798228Y-58711703D01*
X82798228Y-58711703D01*
G37*
G36*
X92323228Y-58711703D02*
G01*
X92478100Y-58775853D01*
X92617481Y-58868985D01*
X92736015Y-58987519D01*
X92829147Y-59126900D01*
X92893297Y-59281772D01*
X92926000Y-59446184D01*
X92926000Y-59613816D01*
X92893297Y-59778228D01*
X92829147Y-59933100D01*
X92736015Y-60072481D01*
X92617481Y-60191015D01*
X92478100Y-60284147D01*
X92323228Y-60348297D01*
X92158816Y-60381000D01*
X91991184Y-60381000D01*
X91826772Y-60348297D01*
X91671900Y-60284147D01*
X91532519Y-60191015D01*
X91413985Y-60072481D01*
X91320853Y-59933100D01*
X91256703Y-59778228D01*
X91224000Y-59613816D01*
X91224000Y-59446184D01*
X91256703Y-59281772D01*
X91320853Y-59126900D01*
X91413985Y-58987519D01*
X91532519Y-58868985D01*
X91671900Y-58775853D01*
X91826772Y-58711703D01*
X91991184Y-58679000D01*
X92158816Y-58679000D01*
X92323228Y-58711703D01*
X92323228Y-58711703D01*
G37*
G36*
X101848228Y-58711703D02*
G01*
X102003100Y-58775853D01*
X102142481Y-58868985D01*
X102261015Y-58987519D01*
X102354147Y-59126900D01*
X102418297Y-59281772D01*
X102451000Y-59446184D01*
X102451000Y-59613816D01*
X102418297Y-59778228D01*
X102354147Y-59933100D01*
X102261015Y-60072481D01*
X102142481Y-60191015D01*
X102003100Y-60284147D01*
X101848228Y-60348297D01*
X101683816Y-60381000D01*
X101516184Y-60381000D01*
X101351772Y-60348297D01*
X101196900Y-60284147D01*
X101057519Y-60191015D01*
X100938985Y-60072481D01*
X100845853Y-59933100D01*
X100781703Y-59778228D01*
X100749000Y-59613816D01*
X100749000Y-59446184D01*
X100781703Y-59281772D01*
X100845853Y-59126900D01*
X100938985Y-58987519D01*
X101057519Y-58868985D01*
X101196900Y-58775853D01*
X101351772Y-58711703D01*
X101516184Y-58679000D01*
X101683816Y-58679000D01*
X101848228Y-58711703D01*
X101848228Y-58711703D01*
G37*
G36*
X111373228Y-58711703D02*
G01*
X111528100Y-58775853D01*
X111667481Y-58868985D01*
X111786015Y-58987519D01*
X111879147Y-59126900D01*
X111943297Y-59281772D01*
X111976000Y-59446184D01*
X111976000Y-59613816D01*
X111943297Y-59778228D01*
X111879147Y-59933100D01*
X111786015Y-60072481D01*
X111667481Y-60191015D01*
X111528100Y-60284147D01*
X111373228Y-60348297D01*
X111208816Y-60381000D01*
X111041184Y-60381000D01*
X110876772Y-60348297D01*
X110721900Y-60284147D01*
X110582519Y-60191015D01*
X110463985Y-60072481D01*
X110370853Y-59933100D01*
X110306703Y-59778228D01*
X110274000Y-59613816D01*
X110274000Y-59446184D01*
X110306703Y-59281772D01*
X110370853Y-59126900D01*
X110463985Y-58987519D01*
X110582519Y-58868985D01*
X110721900Y-58775853D01*
X110876772Y-58711703D01*
X111041184Y-58679000D01*
X111208816Y-58679000D01*
X111373228Y-58711703D01*
X111373228Y-58711703D01*
G37*
G36*
X147626564Y-53129389D02*
G01*
X147817833Y-53208615D01*
X147817835Y-53208616D01*
X147989973Y-53323635D01*
X148136365Y-53470027D01*
X148251385Y-53642167D01*
X148330611Y-53833436D01*
X148371000Y-54036484D01*
X148371000Y-54243516D01*
X148330611Y-54446564D01*
X148285281Y-54556000D01*
X148251384Y-54637835D01*
X148136365Y-54809973D01*
X147989973Y-54956365D01*
X147817835Y-55071384D01*
X147817834Y-55071385D01*
X147817833Y-55071385D01*
X147626564Y-55150611D01*
X147423516Y-55191000D01*
X147216484Y-55191000D01*
X147013436Y-55150611D01*
X146822167Y-55071385D01*
X146822166Y-55071385D01*
X146822165Y-55071384D01*
X146650027Y-54956365D01*
X146503635Y-54809973D01*
X146388616Y-54637835D01*
X146354719Y-54556000D01*
X146309389Y-54446564D01*
X146269000Y-54243516D01*
X146269000Y-54036484D01*
X146309389Y-53833436D01*
X146388615Y-53642167D01*
X146503635Y-53470027D01*
X146650027Y-53323635D01*
X146822165Y-53208616D01*
X146822167Y-53208615D01*
X147013436Y-53129389D01*
X147216484Y-53089000D01*
X147423516Y-53089000D01*
X147626564Y-53129389D01*
X147626564Y-53129389D01*
G37*
G36*
X143181564Y-53129389D02*
G01*
X143372833Y-53208615D01*
X143372835Y-53208616D01*
X143544973Y-53323635D01*
X143691365Y-53470027D01*
X143806385Y-53642167D01*
X143885611Y-53833436D01*
X143926000Y-54036484D01*
X143926000Y-54243516D01*
X143885611Y-54446564D01*
X143840281Y-54556000D01*
X143806384Y-54637835D01*
X143691365Y-54809973D01*
X143544973Y-54956365D01*
X143372835Y-55071384D01*
X143372834Y-55071385D01*
X143372833Y-55071385D01*
X143181564Y-55150611D01*
X142978516Y-55191000D01*
X142771484Y-55191000D01*
X142568436Y-55150611D01*
X142377167Y-55071385D01*
X142377166Y-55071385D01*
X142377165Y-55071384D01*
X142205027Y-54956365D01*
X142058635Y-54809973D01*
X141943616Y-54637835D01*
X141909719Y-54556000D01*
X141864389Y-54446564D01*
X141824000Y-54243516D01*
X141824000Y-54036484D01*
X141864389Y-53833436D01*
X141943615Y-53642167D01*
X142058635Y-53470027D01*
X142205027Y-53323635D01*
X142377165Y-53208616D01*
X142377167Y-53208615D01*
X142568436Y-53129389D01*
X142771484Y-53089000D01*
X142978516Y-53089000D01*
X143181564Y-53129389D01*
X143181564Y-53129389D01*
G37*
G36*
X162866564Y-52494389D02*
G01*
X163057833Y-52573615D01*
X163057835Y-52573616D01*
X163229973Y-52688635D01*
X163376365Y-52835027D01*
X163491385Y-53007167D01*
X163570611Y-53198436D01*
X163611000Y-53401484D01*
X163611000Y-53608516D01*
X163570611Y-53811564D01*
X163525281Y-53921000D01*
X163491384Y-54002835D01*
X163376365Y-54174973D01*
X163229973Y-54321365D01*
X163057835Y-54436384D01*
X163057834Y-54436385D01*
X163057833Y-54436385D01*
X162866564Y-54515611D01*
X162663516Y-54556000D01*
X162456484Y-54556000D01*
X162253436Y-54515611D01*
X162062167Y-54436385D01*
X162062166Y-54436385D01*
X162062165Y-54436384D01*
X161890027Y-54321365D01*
X161743635Y-54174973D01*
X161628616Y-54002835D01*
X161594719Y-53921000D01*
X161549389Y-53811564D01*
X161509000Y-53608516D01*
X161509000Y-53401484D01*
X161549389Y-53198436D01*
X161628615Y-53007167D01*
X161743635Y-52835027D01*
X161890027Y-52688635D01*
X162062165Y-52573616D01*
X162062167Y-52573615D01*
X162253436Y-52494389D01*
X162456484Y-52454000D01*
X162663516Y-52454000D01*
X162866564Y-52494389D01*
X162866564Y-52494389D01*
G37*
G36*
X167311564Y-51859389D02*
G01*
X167502833Y-51938615D01*
X167502835Y-51938616D01*
X167674973Y-52053635D01*
X167821365Y-52200027D01*
X167936385Y-52372167D01*
X168015611Y-52563436D01*
X168056000Y-52766484D01*
X168056000Y-52973516D01*
X168015611Y-53176564D01*
X167954692Y-53323635D01*
X167936384Y-53367835D01*
X167821365Y-53539973D01*
X167674973Y-53686365D01*
X167502835Y-53801384D01*
X167502834Y-53801385D01*
X167502833Y-53801385D01*
X167311564Y-53880611D01*
X167108516Y-53921000D01*
X166901484Y-53921000D01*
X166698436Y-53880611D01*
X166507167Y-53801385D01*
X166507166Y-53801385D01*
X166507165Y-53801384D01*
X166335027Y-53686365D01*
X166188635Y-53539973D01*
X166073616Y-53367835D01*
X166055308Y-53323635D01*
X165994389Y-53176564D01*
X165954000Y-52973516D01*
X165954000Y-52766484D01*
X165994389Y-52563436D01*
X166073615Y-52372167D01*
X166188635Y-52200027D01*
X166335027Y-52053635D01*
X166507165Y-51938616D01*
X166507167Y-51938615D01*
X166698436Y-51859389D01*
X166901484Y-51819000D01*
X167108516Y-51819000D01*
X167311564Y-51859389D01*
X167311564Y-51859389D01*
G37*
G36*
X116848228Y-43481703D02*
G01*
X117003100Y-43545853D01*
X117142481Y-43638985D01*
X117261015Y-43757519D01*
X117354147Y-43896900D01*
X117418297Y-44051772D01*
X117451000Y-44216184D01*
X117451000Y-44383816D01*
X117418297Y-44548228D01*
X117354147Y-44703100D01*
X117261015Y-44842481D01*
X117142481Y-44961015D01*
X117003100Y-45054147D01*
X116848228Y-45118297D01*
X116683816Y-45151000D01*
X116516184Y-45151000D01*
X116351772Y-45118297D01*
X116196900Y-45054147D01*
X116057519Y-44961015D01*
X115938985Y-44842481D01*
X115845853Y-44703100D01*
X115781703Y-44548228D01*
X115749000Y-44383816D01*
X115749000Y-44216184D01*
X115781703Y-44051772D01*
X115845853Y-43896900D01*
X115938985Y-43757519D01*
X116057519Y-43638985D01*
X116196900Y-43545853D01*
X116351772Y-43481703D01*
X116516184Y-43449000D01*
X116683816Y-43449000D01*
X116848228Y-43481703D01*
X116848228Y-43481703D01*
G37*
G36*
X122948228Y-43481703D02*
G01*
X123103100Y-43545853D01*
X123242481Y-43638985D01*
X123361015Y-43757519D01*
X123454147Y-43896900D01*
X123518297Y-44051772D01*
X123551000Y-44216184D01*
X123551000Y-44383816D01*
X123518297Y-44548228D01*
X123454147Y-44703100D01*
X123361015Y-44842481D01*
X123242481Y-44961015D01*
X123103100Y-45054147D01*
X122948228Y-45118297D01*
X122783816Y-45151000D01*
X122616184Y-45151000D01*
X122451772Y-45118297D01*
X122296900Y-45054147D01*
X122157519Y-44961015D01*
X122038985Y-44842481D01*
X121945853Y-44703100D01*
X121881703Y-44548228D01*
X121849000Y-44383816D01*
X121849000Y-44216184D01*
X121881703Y-44051772D01*
X121945853Y-43896900D01*
X122038985Y-43757519D01*
X122157519Y-43638985D01*
X122296900Y-43545853D01*
X122451772Y-43481703D01*
X122616184Y-43449000D01*
X122783816Y-43449000D01*
X122948228Y-43481703D01*
X122948228Y-43481703D01*
G37*
G36*
X114951000Y-45151000D02*
G01*
X113249000Y-45151000D01*
X113249000Y-43449000D01*
X114951000Y-43449000D01*
X114951000Y-45151000D01*
X114951000Y-45151000D01*
G37*
G36*
X126051000Y-45151000D02*
G01*
X124349000Y-45151000D01*
X124349000Y-43449000D01*
X126051000Y-43449000D01*
X126051000Y-45151000D01*
X126051000Y-45151000D01*
G37*
G36*
X170834239Y-30611467D02*
G01*
X171148282Y-30673934D01*
X171739926Y-30919001D01*
X172272392Y-31274784D01*
X172725216Y-31727608D01*
X173080999Y-32260074D01*
X173326066Y-32851718D01*
X173387850Y-33162326D01*
X173415337Y-33300511D01*
X173451000Y-33479804D01*
X173451000Y-34120196D01*
X173326066Y-34748282D01*
X173080999Y-35339926D01*
X172725216Y-35872392D01*
X172272392Y-36325216D01*
X171739926Y-36680999D01*
X171148282Y-36926066D01*
X170834239Y-36988533D01*
X170520197Y-37051000D01*
X169879803Y-37051000D01*
X169565761Y-36988533D01*
X169251718Y-36926066D01*
X168660074Y-36680999D01*
X168127608Y-36325216D01*
X167674784Y-35872392D01*
X167319001Y-35339926D01*
X167073934Y-34748282D01*
X166949000Y-34120196D01*
X166949000Y-33479804D01*
X166984664Y-33300511D01*
X167012150Y-33162326D01*
X167073934Y-32851718D01*
X167319001Y-32260074D01*
X167674784Y-31727608D01*
X168127608Y-31274784D01*
X168660074Y-30919001D01*
X169251718Y-30673934D01*
X169565761Y-30611467D01*
X169879803Y-30549000D01*
X170520197Y-30549000D01*
X170834239Y-30611467D01*
X170834239Y-30611467D01*
G37*
G36*
X82834239Y-30611467D02*
G01*
X83148282Y-30673934D01*
X83739926Y-30919001D01*
X84272392Y-31274784D01*
X84725216Y-31727608D01*
X85080999Y-32260074D01*
X85326066Y-32851718D01*
X85387850Y-33162326D01*
X85415337Y-33300511D01*
X85451000Y-33479804D01*
X85451000Y-34120196D01*
X85326066Y-34748282D01*
X85080999Y-35339926D01*
X84725216Y-35872392D01*
X84272392Y-36325216D01*
X83739926Y-36680999D01*
X83148282Y-36926066D01*
X82834239Y-36988533D01*
X82520197Y-37051000D01*
X81879803Y-37051000D01*
X81565761Y-36988533D01*
X81251718Y-36926066D01*
X80660074Y-36680999D01*
X80127608Y-36325216D01*
X79674784Y-35872392D01*
X79319001Y-35339926D01*
X79073934Y-34748282D01*
X78949000Y-34120196D01*
X78949000Y-33479804D01*
X78984664Y-33300511D01*
X79012150Y-33162326D01*
X79073934Y-32851718D01*
X79319001Y-32260074D01*
X79674784Y-31727608D01*
X80127608Y-31274784D01*
X80660074Y-30919001D01*
X81251718Y-30673934D01*
X81565761Y-30611467D01*
X81879803Y-30549000D01*
X82520197Y-30549000D01*
X82834239Y-30611467D01*
X82834239Y-30611467D01*
G37*
G36*
X95420547Y-33162326D02*
G01*
X95594156Y-33214990D01*
X95594158Y-33214991D01*
X95754155Y-33300511D01*
X95894397Y-33415603D01*
X95973729Y-33512271D01*
X96009489Y-33555844D01*
X96095010Y-33715843D01*
X96147674Y-33889452D01*
X96161000Y-34024756D01*
X96161000Y-34575243D01*
X96147674Y-34710548D01*
X96095010Y-34884157D01*
X96009489Y-35044156D01*
X95973729Y-35087729D01*
X95894397Y-35184397D01*
X95797729Y-35263729D01*
X95754156Y-35299489D01*
X95594157Y-35385010D01*
X95420548Y-35437674D01*
X95240000Y-35455456D01*
X95059453Y-35437674D01*
X94885844Y-35385010D01*
X94725845Y-35299489D01*
X94682272Y-35263729D01*
X94585604Y-35184397D01*
X94470513Y-35044157D01*
X94470512Y-35044155D01*
X94384990Y-34884157D01*
X94332326Y-34710548D01*
X94319000Y-34575244D01*
X94319000Y-34024757D01*
X94332326Y-33889453D01*
X94384990Y-33715844D01*
X94470511Y-33555845D01*
X94470512Y-33555844D01*
X94585603Y-33415603D01*
X94711388Y-33312375D01*
X94725844Y-33300511D01*
X94885843Y-33214990D01*
X95059452Y-33162326D01*
X95240000Y-33144544D01*
X95420547Y-33162326D01*
X95420547Y-33162326D01*
G37*
G36*
X139720547Y-33162326D02*
G01*
X139894156Y-33214990D01*
X139894158Y-33214991D01*
X140054155Y-33300511D01*
X140194397Y-33415603D01*
X140273729Y-33512271D01*
X140309489Y-33555844D01*
X140395010Y-33715843D01*
X140447674Y-33889452D01*
X140461000Y-34024756D01*
X140461000Y-34575243D01*
X140447674Y-34710548D01*
X140395010Y-34884157D01*
X140309489Y-35044156D01*
X140273729Y-35087729D01*
X140194397Y-35184397D01*
X140097729Y-35263729D01*
X140054156Y-35299489D01*
X139894157Y-35385010D01*
X139720548Y-35437674D01*
X139540000Y-35455456D01*
X139359453Y-35437674D01*
X139185844Y-35385010D01*
X139025845Y-35299489D01*
X138982272Y-35263729D01*
X138885604Y-35184397D01*
X138770513Y-35044157D01*
X138770512Y-35044155D01*
X138684990Y-34884157D01*
X138632326Y-34710548D01*
X138619000Y-34575244D01*
X138619000Y-34024757D01*
X138632326Y-33889453D01*
X138684990Y-33715844D01*
X138770511Y-33555845D01*
X138770512Y-33555844D01*
X138885603Y-33415603D01*
X139011388Y-33312375D01*
X139025844Y-33300511D01*
X139185843Y-33214990D01*
X139359452Y-33162326D01*
X139540000Y-33144544D01*
X139720547Y-33162326D01*
X139720547Y-33162326D01*
G37*
G36*
X159720547Y-33162326D02*
G01*
X159894156Y-33214990D01*
X159894158Y-33214991D01*
X160054155Y-33300511D01*
X160194397Y-33415603D01*
X160273729Y-33512271D01*
X160309489Y-33555844D01*
X160395010Y-33715843D01*
X160447674Y-33889452D01*
X160461000Y-34024756D01*
X160461000Y-34575243D01*
X160447674Y-34710548D01*
X160395010Y-34884157D01*
X160309489Y-35044156D01*
X160273729Y-35087729D01*
X160194397Y-35184397D01*
X160097729Y-35263729D01*
X160054156Y-35299489D01*
X159894157Y-35385010D01*
X159720548Y-35437674D01*
X159540000Y-35455456D01*
X159359453Y-35437674D01*
X159185844Y-35385010D01*
X159025845Y-35299489D01*
X158982272Y-35263729D01*
X158885604Y-35184397D01*
X158770513Y-35044157D01*
X158770512Y-35044155D01*
X158684990Y-34884157D01*
X158632326Y-34710548D01*
X158619000Y-34575244D01*
X158619000Y-34024757D01*
X158632326Y-33889453D01*
X158684990Y-33715844D01*
X158770511Y-33555845D01*
X158770512Y-33555844D01*
X158885603Y-33415603D01*
X159011388Y-33312375D01*
X159025844Y-33300511D01*
X159185843Y-33214990D01*
X159359452Y-33162326D01*
X159540000Y-33144544D01*
X159720547Y-33162326D01*
X159720547Y-33162326D01*
G37*
G36*
X105420547Y-33162326D02*
G01*
X105594156Y-33214990D01*
X105594158Y-33214991D01*
X105754155Y-33300511D01*
X105894397Y-33415603D01*
X105973729Y-33512271D01*
X106009489Y-33555844D01*
X106095010Y-33715843D01*
X106147674Y-33889452D01*
X106161000Y-34024756D01*
X106161000Y-34575243D01*
X106147674Y-34710548D01*
X106095010Y-34884157D01*
X106009489Y-35044156D01*
X105973729Y-35087729D01*
X105894397Y-35184397D01*
X105797729Y-35263729D01*
X105754156Y-35299489D01*
X105594157Y-35385010D01*
X105420548Y-35437674D01*
X105240000Y-35455456D01*
X105059453Y-35437674D01*
X104885844Y-35385010D01*
X104725845Y-35299489D01*
X104682272Y-35263729D01*
X104585604Y-35184397D01*
X104470513Y-35044157D01*
X104470512Y-35044155D01*
X104384990Y-34884157D01*
X104332326Y-34710548D01*
X104319000Y-34575244D01*
X104319000Y-34024757D01*
X104332326Y-33889453D01*
X104384990Y-33715844D01*
X104470511Y-33555845D01*
X104470512Y-33555844D01*
X104585603Y-33415603D01*
X104711388Y-33312375D01*
X104725844Y-33300511D01*
X104885843Y-33214990D01*
X105059452Y-33162326D01*
X105240000Y-33144544D01*
X105420547Y-33162326D01*
X105420547Y-33162326D01*
G37*
G36*
X116420547Y-33162326D02*
G01*
X116594156Y-33214990D01*
X116594158Y-33214991D01*
X116754155Y-33300511D01*
X116894397Y-33415603D01*
X116973729Y-33512271D01*
X117009489Y-33555844D01*
X117095010Y-33715843D01*
X117147674Y-33889452D01*
X117161000Y-34024756D01*
X117161000Y-34575243D01*
X117147674Y-34710548D01*
X117095010Y-34884157D01*
X117009489Y-35044156D01*
X116973729Y-35087729D01*
X116894397Y-35184397D01*
X116797729Y-35263729D01*
X116754156Y-35299489D01*
X116594157Y-35385010D01*
X116420548Y-35437674D01*
X116240000Y-35455456D01*
X116059453Y-35437674D01*
X115885844Y-35385010D01*
X115725845Y-35299489D01*
X115682272Y-35263729D01*
X115585604Y-35184397D01*
X115470513Y-35044157D01*
X115470512Y-35044155D01*
X115384990Y-34884157D01*
X115332326Y-34710548D01*
X115319000Y-34575244D01*
X115319000Y-34024757D01*
X115332326Y-33889453D01*
X115384990Y-33715844D01*
X115470511Y-33555845D01*
X115470512Y-33555844D01*
X115585603Y-33415603D01*
X115711388Y-33312375D01*
X115725844Y-33300511D01*
X115885843Y-33214990D01*
X116059452Y-33162326D01*
X116240000Y-33144544D01*
X116420547Y-33162326D01*
X116420547Y-33162326D01*
G37*
G36*
X118960547Y-33162326D02*
G01*
X119134156Y-33214990D01*
X119134158Y-33214991D01*
X119294155Y-33300511D01*
X119434397Y-33415603D01*
X119513729Y-33512271D01*
X119549489Y-33555844D01*
X119635010Y-33715843D01*
X119687674Y-33889452D01*
X119701000Y-34024756D01*
X119701000Y-34575243D01*
X119687674Y-34710548D01*
X119635010Y-34884157D01*
X119549489Y-35044156D01*
X119513729Y-35087729D01*
X119434397Y-35184397D01*
X119337729Y-35263729D01*
X119294156Y-35299489D01*
X119134157Y-35385010D01*
X118960548Y-35437674D01*
X118780000Y-35455456D01*
X118599453Y-35437674D01*
X118425844Y-35385010D01*
X118265845Y-35299489D01*
X118222272Y-35263729D01*
X118125604Y-35184397D01*
X118010513Y-35044157D01*
X118010512Y-35044155D01*
X117924990Y-34884157D01*
X117872326Y-34710548D01*
X117859000Y-34575244D01*
X117859000Y-34024757D01*
X117872326Y-33889453D01*
X117924990Y-33715844D01*
X118010511Y-33555845D01*
X118010512Y-33555844D01*
X118125603Y-33415603D01*
X118251388Y-33312375D01*
X118265844Y-33300511D01*
X118425843Y-33214990D01*
X118599452Y-33162326D01*
X118780000Y-33144544D01*
X118960547Y-33162326D01*
X118960547Y-33162326D01*
G37*
G36*
X129720547Y-33162326D02*
G01*
X129894156Y-33214990D01*
X129894158Y-33214991D01*
X130054155Y-33300511D01*
X130194397Y-33415603D01*
X130273729Y-33512271D01*
X130309489Y-33555844D01*
X130395010Y-33715843D01*
X130447674Y-33889452D01*
X130461000Y-34024756D01*
X130461000Y-34575243D01*
X130447674Y-34710548D01*
X130395010Y-34884157D01*
X130309489Y-35044156D01*
X130273729Y-35087729D01*
X130194397Y-35184397D01*
X130097729Y-35263729D01*
X130054156Y-35299489D01*
X129894157Y-35385010D01*
X129720548Y-35437674D01*
X129540000Y-35455456D01*
X129359453Y-35437674D01*
X129185844Y-35385010D01*
X129025845Y-35299489D01*
X128982272Y-35263729D01*
X128885604Y-35184397D01*
X128770513Y-35044157D01*
X128770512Y-35044155D01*
X128684990Y-34884157D01*
X128632326Y-34710548D01*
X128619000Y-34575244D01*
X128619000Y-34024757D01*
X128632326Y-33889453D01*
X128684990Y-33715844D01*
X128770511Y-33555845D01*
X128770512Y-33555844D01*
X128885603Y-33415603D01*
X129011388Y-33312375D01*
X129025844Y-33300511D01*
X129185843Y-33214990D01*
X129359452Y-33162326D01*
X129540000Y-33144544D01*
X129720547Y-33162326D01*
X129720547Y-33162326D01*
G37*
G36*
X149720547Y-33162326D02*
G01*
X149894156Y-33214990D01*
X149894158Y-33214991D01*
X150054155Y-33300511D01*
X150194397Y-33415603D01*
X150273729Y-33512271D01*
X150309489Y-33555844D01*
X150395010Y-33715843D01*
X150447674Y-33889452D01*
X150461000Y-34024756D01*
X150461000Y-34575243D01*
X150447674Y-34710548D01*
X150395010Y-34884157D01*
X150309489Y-35044156D01*
X150273729Y-35087729D01*
X150194397Y-35184397D01*
X150097729Y-35263729D01*
X150054156Y-35299489D01*
X149894157Y-35385010D01*
X149720548Y-35437674D01*
X149540000Y-35455456D01*
X149359453Y-35437674D01*
X149185844Y-35385010D01*
X149025845Y-35299489D01*
X148982272Y-35263729D01*
X148885604Y-35184397D01*
X148770513Y-35044157D01*
X148770512Y-35044155D01*
X148684990Y-34884157D01*
X148632326Y-34710548D01*
X148619000Y-34575244D01*
X148619000Y-34024757D01*
X148632326Y-33889453D01*
X148684990Y-33715844D01*
X148770511Y-33555845D01*
X148770512Y-33555844D01*
X148885603Y-33415603D01*
X149011388Y-33312375D01*
X149025844Y-33300511D01*
X149185843Y-33214990D01*
X149359452Y-33162326D01*
X149540000Y-33144544D01*
X149720547Y-33162326D01*
X149720547Y-33162326D01*
G37*
G36*
X103479561Y-33152966D02*
G01*
X103512383Y-33162923D01*
X103542632Y-33179092D01*
X103569148Y-33200852D01*
X103590908Y-33227368D01*
X103607077Y-33257617D01*
X103617034Y-33290439D01*
X103621000Y-33330713D01*
X103621000Y-35269287D01*
X103617034Y-35309561D01*
X103607077Y-35342383D01*
X103590908Y-35372632D01*
X103569148Y-35399148D01*
X103542632Y-35420908D01*
X103512383Y-35437077D01*
X103479561Y-35447034D01*
X103439287Y-35451000D01*
X101960713Y-35451000D01*
X101920439Y-35447034D01*
X101887617Y-35437077D01*
X101857368Y-35420908D01*
X101830852Y-35399148D01*
X101809092Y-35372632D01*
X101792923Y-35342383D01*
X101782966Y-35309561D01*
X101779000Y-35269287D01*
X101779000Y-33330713D01*
X101782966Y-33290439D01*
X101792923Y-33257617D01*
X101809092Y-33227368D01*
X101830852Y-33200852D01*
X101857368Y-33179092D01*
X101887617Y-33162923D01*
X101920439Y-33152966D01*
X101960713Y-33149000D01*
X103439287Y-33149000D01*
X103479561Y-33152966D01*
X103479561Y-33152966D01*
G37*
G36*
X93479561Y-33152966D02*
G01*
X93512383Y-33162923D01*
X93542632Y-33179092D01*
X93569148Y-33200852D01*
X93590908Y-33227368D01*
X93607077Y-33257617D01*
X93617034Y-33290439D01*
X93621000Y-33330713D01*
X93621000Y-35269287D01*
X93617034Y-35309561D01*
X93607077Y-35342383D01*
X93590908Y-35372632D01*
X93569148Y-35399148D01*
X93542632Y-35420908D01*
X93512383Y-35437077D01*
X93479561Y-35447034D01*
X93439287Y-35451000D01*
X91960713Y-35451000D01*
X91920439Y-35447034D01*
X91887617Y-35437077D01*
X91857368Y-35420908D01*
X91830852Y-35399148D01*
X91809092Y-35372632D01*
X91792923Y-35342383D01*
X91782966Y-35309561D01*
X91779000Y-35269287D01*
X91779000Y-33330713D01*
X91782966Y-33290439D01*
X91792923Y-33257617D01*
X91809092Y-33227368D01*
X91830852Y-33200852D01*
X91857368Y-33179092D01*
X91887617Y-33162923D01*
X91920439Y-33152966D01*
X91960713Y-33149000D01*
X93439287Y-33149000D01*
X93479561Y-33152966D01*
X93479561Y-33152966D01*
G37*
G36*
X127779561Y-33152966D02*
G01*
X127812383Y-33162923D01*
X127842632Y-33179092D01*
X127869148Y-33200852D01*
X127890908Y-33227368D01*
X127907077Y-33257617D01*
X127917034Y-33290439D01*
X127921000Y-33330713D01*
X127921000Y-35269287D01*
X127917034Y-35309561D01*
X127907077Y-35342383D01*
X127890908Y-35372632D01*
X127869148Y-35399148D01*
X127842632Y-35420908D01*
X127812383Y-35437077D01*
X127779561Y-35447034D01*
X127739287Y-35451000D01*
X126260713Y-35451000D01*
X126220439Y-35447034D01*
X126187617Y-35437077D01*
X126157368Y-35420908D01*
X126130852Y-35399148D01*
X126109092Y-35372632D01*
X126092923Y-35342383D01*
X126082966Y-35309561D01*
X126079000Y-35269287D01*
X126079000Y-33330713D01*
X126082966Y-33290439D01*
X126092923Y-33257617D01*
X126109092Y-33227368D01*
X126130852Y-33200852D01*
X126157368Y-33179092D01*
X126187617Y-33162923D01*
X126220439Y-33152966D01*
X126260713Y-33149000D01*
X127739287Y-33149000D01*
X127779561Y-33152966D01*
X127779561Y-33152966D01*
G37*
G36*
X114479561Y-33152966D02*
G01*
X114512383Y-33162923D01*
X114542632Y-33179092D01*
X114569148Y-33200852D01*
X114590908Y-33227368D01*
X114607077Y-33257617D01*
X114617034Y-33290439D01*
X114621000Y-33330713D01*
X114621000Y-35269287D01*
X114617034Y-35309561D01*
X114607077Y-35342383D01*
X114590908Y-35372632D01*
X114569148Y-35399148D01*
X114542632Y-35420908D01*
X114512383Y-35437077D01*
X114479561Y-35447034D01*
X114439287Y-35451000D01*
X112960713Y-35451000D01*
X112920439Y-35447034D01*
X112887617Y-35437077D01*
X112857368Y-35420908D01*
X112830852Y-35399148D01*
X112809092Y-35372632D01*
X112792923Y-35342383D01*
X112782966Y-35309561D01*
X112779000Y-35269287D01*
X112779000Y-33330713D01*
X112782966Y-33290439D01*
X112792923Y-33257617D01*
X112809092Y-33227368D01*
X112830852Y-33200852D01*
X112857368Y-33179092D01*
X112887617Y-33162923D01*
X112920439Y-33152966D01*
X112960713Y-33149000D01*
X114439287Y-33149000D01*
X114479561Y-33152966D01*
X114479561Y-33152966D01*
G37*
G36*
X137779561Y-33152966D02*
G01*
X137812383Y-33162923D01*
X137842632Y-33179092D01*
X137869148Y-33200852D01*
X137890908Y-33227368D01*
X137907077Y-33257617D01*
X137917034Y-33290439D01*
X137921000Y-33330713D01*
X137921000Y-35269287D01*
X137917034Y-35309561D01*
X137907077Y-35342383D01*
X137890908Y-35372632D01*
X137869148Y-35399148D01*
X137842632Y-35420908D01*
X137812383Y-35437077D01*
X137779561Y-35447034D01*
X137739287Y-35451000D01*
X136260713Y-35451000D01*
X136220439Y-35447034D01*
X136187617Y-35437077D01*
X136157368Y-35420908D01*
X136130852Y-35399148D01*
X136109092Y-35372632D01*
X136092923Y-35342383D01*
X136082966Y-35309561D01*
X136079000Y-35269287D01*
X136079000Y-33330713D01*
X136082966Y-33290439D01*
X136092923Y-33257617D01*
X136109092Y-33227368D01*
X136130852Y-33200852D01*
X136157368Y-33179092D01*
X136187617Y-33162923D01*
X136220439Y-33152966D01*
X136260713Y-33149000D01*
X137739287Y-33149000D01*
X137779561Y-33152966D01*
X137779561Y-33152966D01*
G37*
G36*
X147779561Y-33152966D02*
G01*
X147812383Y-33162923D01*
X147842632Y-33179092D01*
X147869148Y-33200852D01*
X147890908Y-33227368D01*
X147907077Y-33257617D01*
X147917034Y-33290439D01*
X147921000Y-33330713D01*
X147921000Y-35269287D01*
X147917034Y-35309561D01*
X147907077Y-35342383D01*
X147890908Y-35372632D01*
X147869148Y-35399148D01*
X147842632Y-35420908D01*
X147812383Y-35437077D01*
X147779561Y-35447034D01*
X147739287Y-35451000D01*
X146260713Y-35451000D01*
X146220439Y-35447034D01*
X146187617Y-35437077D01*
X146157368Y-35420908D01*
X146130852Y-35399148D01*
X146109092Y-35372632D01*
X146092923Y-35342383D01*
X146082966Y-35309561D01*
X146079000Y-35269287D01*
X146079000Y-33330713D01*
X146082966Y-33290439D01*
X146092923Y-33257617D01*
X146109092Y-33227368D01*
X146130852Y-33200852D01*
X146157368Y-33179092D01*
X146187617Y-33162923D01*
X146220439Y-33152966D01*
X146260713Y-33149000D01*
X147739287Y-33149000D01*
X147779561Y-33152966D01*
X147779561Y-33152966D01*
G37*
G36*
X157779561Y-33152966D02*
G01*
X157812383Y-33162923D01*
X157842632Y-33179092D01*
X157869148Y-33200852D01*
X157890908Y-33227368D01*
X157907077Y-33257617D01*
X157917034Y-33290439D01*
X157921000Y-33330713D01*
X157921000Y-35269287D01*
X157917034Y-35309561D01*
X157907077Y-35342383D01*
X157890908Y-35372632D01*
X157869148Y-35399148D01*
X157842632Y-35420908D01*
X157812383Y-35437077D01*
X157779561Y-35447034D01*
X157739287Y-35451000D01*
X156260713Y-35451000D01*
X156220439Y-35447034D01*
X156187617Y-35437077D01*
X156157368Y-35420908D01*
X156130852Y-35399148D01*
X156109092Y-35372632D01*
X156092923Y-35342383D01*
X156082966Y-35309561D01*
X156079000Y-35269287D01*
X156079000Y-33330713D01*
X156082966Y-33290439D01*
X156092923Y-33257617D01*
X156109092Y-33227368D01*
X156130852Y-33200852D01*
X156157368Y-33179092D01*
X156187617Y-33162923D01*
X156220439Y-33152966D01*
X156260713Y-33149000D01*
X157739287Y-33149000D01*
X157779561Y-33152966D01*
X157779561Y-33152966D01*
G37*
M02*
