G04 #@! TF.GenerationSoftware,KiCad,Pcbnew,5.1.4*
G04 #@! TF.CreationDate,2019-09-29T22:13:44-04:00*
G04 #@! TF.ProjectId,balanced_amplifier,62616c61-6e63-4656-945f-616d706c6966,1*
G04 #@! TF.SameCoordinates,Original*
G04 #@! TF.FileFunction,Legend,Bot*
G04 #@! TF.FilePolarity,Positive*
%FSLAX46Y46*%
G04 Gerber Fmt 4.6, Leading zero omitted, Abs format (unit mm)*
G04 Created by KiCad (PCBNEW 5.1.4) date 2019-09-29 22:13:44*
%MOMM*%
%LPD*%
G04 APERTURE LIST*
%ADD10C,0.150000*%
%ADD11C,0.120000*%
%ADD12C,0.010000*%
G04 APERTURE END LIST*
D10*
X101781071Y-40503571D02*
X101638214Y-40551190D01*
X101590595Y-40598809D01*
X101542976Y-40694047D01*
X101542976Y-40836904D01*
X101590595Y-40932142D01*
X101638214Y-40979761D01*
X101733452Y-41027380D01*
X102114404Y-41027380D01*
X102114404Y-40027380D01*
X101781071Y-40027380D01*
X101685833Y-40075000D01*
X101638214Y-40122619D01*
X101590595Y-40217857D01*
X101590595Y-40313095D01*
X101638214Y-40408333D01*
X101685833Y-40455952D01*
X101781071Y-40503571D01*
X102114404Y-40503571D01*
X100685833Y-41027380D02*
X100685833Y-40503571D01*
X100733452Y-40408333D01*
X100828690Y-40360714D01*
X101019166Y-40360714D01*
X101114404Y-40408333D01*
X100685833Y-40979761D02*
X100781071Y-41027380D01*
X101019166Y-41027380D01*
X101114404Y-40979761D01*
X101162023Y-40884523D01*
X101162023Y-40789285D01*
X101114404Y-40694047D01*
X101019166Y-40646428D01*
X100781071Y-40646428D01*
X100685833Y-40598809D01*
X100066785Y-41027380D02*
X100162023Y-40979761D01*
X100209642Y-40884523D01*
X100209642Y-40027380D01*
X99257261Y-41027380D02*
X99257261Y-40503571D01*
X99304880Y-40408333D01*
X99400119Y-40360714D01*
X99590595Y-40360714D01*
X99685833Y-40408333D01*
X99257261Y-40979761D02*
X99352500Y-41027380D01*
X99590595Y-41027380D01*
X99685833Y-40979761D01*
X99733452Y-40884523D01*
X99733452Y-40789285D01*
X99685833Y-40694047D01*
X99590595Y-40646428D01*
X99352500Y-40646428D01*
X99257261Y-40598809D01*
X98781071Y-40360714D02*
X98781071Y-41027380D01*
X98781071Y-40455952D02*
X98733452Y-40408333D01*
X98638214Y-40360714D01*
X98495357Y-40360714D01*
X98400119Y-40408333D01*
X98352500Y-40503571D01*
X98352500Y-41027380D01*
X97447738Y-40979761D02*
X97542976Y-41027380D01*
X97733452Y-41027380D01*
X97828690Y-40979761D01*
X97876309Y-40932142D01*
X97923928Y-40836904D01*
X97923928Y-40551190D01*
X97876309Y-40455952D01*
X97828690Y-40408333D01*
X97733452Y-40360714D01*
X97542976Y-40360714D01*
X97447738Y-40408333D01*
X96638214Y-40979761D02*
X96733452Y-41027380D01*
X96923928Y-41027380D01*
X97019166Y-40979761D01*
X97066785Y-40884523D01*
X97066785Y-40503571D01*
X97019166Y-40408333D01*
X96923928Y-40360714D01*
X96733452Y-40360714D01*
X96638214Y-40408333D01*
X96590595Y-40503571D01*
X96590595Y-40598809D01*
X97066785Y-40694047D01*
X95733452Y-41027380D02*
X95733452Y-40027380D01*
X95733452Y-40979761D02*
X95828690Y-41027380D01*
X96019166Y-41027380D01*
X96114404Y-40979761D01*
X96162023Y-40932142D01*
X96209642Y-40836904D01*
X96209642Y-40551190D01*
X96162023Y-40455952D01*
X96114404Y-40408333D01*
X96019166Y-40360714D01*
X95828690Y-40360714D01*
X95733452Y-40408333D01*
X94542976Y-40741666D02*
X94066785Y-40741666D01*
X94638214Y-41027380D02*
X94304880Y-40027380D01*
X93971547Y-41027380D01*
X93638214Y-41027380D02*
X93638214Y-40360714D01*
X93638214Y-40455952D02*
X93590595Y-40408333D01*
X93495357Y-40360714D01*
X93352500Y-40360714D01*
X93257261Y-40408333D01*
X93209642Y-40503571D01*
X93209642Y-41027380D01*
X93209642Y-40503571D02*
X93162023Y-40408333D01*
X93066785Y-40360714D01*
X92923928Y-40360714D01*
X92828690Y-40408333D01*
X92781071Y-40503571D01*
X92781071Y-41027380D01*
X92304880Y-40360714D02*
X92304880Y-41360714D01*
X92304880Y-40408333D02*
X92209642Y-40360714D01*
X92019166Y-40360714D01*
X91923928Y-40408333D01*
X91876309Y-40455952D01*
X91828690Y-40551190D01*
X91828690Y-40836904D01*
X91876309Y-40932142D01*
X91923928Y-40979761D01*
X92019166Y-41027380D01*
X92209642Y-41027380D01*
X92304880Y-40979761D01*
X91257261Y-41027380D02*
X91352500Y-40979761D01*
X91400119Y-40884523D01*
X91400119Y-40027380D01*
X90876309Y-41027380D02*
X90876309Y-40360714D01*
X90876309Y-40027380D02*
X90923928Y-40075000D01*
X90876309Y-40122619D01*
X90828690Y-40075000D01*
X90876309Y-40027380D01*
X90876309Y-40122619D01*
X90542976Y-40360714D02*
X90162023Y-40360714D01*
X90400119Y-41027380D02*
X90400119Y-40170238D01*
X90352500Y-40075000D01*
X90257261Y-40027380D01*
X90162023Y-40027380D01*
X89828690Y-41027380D02*
X89828690Y-40360714D01*
X89828690Y-40027380D02*
X89876309Y-40075000D01*
X89828690Y-40122619D01*
X89781071Y-40075000D01*
X89828690Y-40027380D01*
X89828690Y-40122619D01*
X88971547Y-40979761D02*
X89066785Y-41027380D01*
X89257261Y-41027380D01*
X89352500Y-40979761D01*
X89400119Y-40884523D01*
X89400119Y-40503571D01*
X89352500Y-40408333D01*
X89257261Y-40360714D01*
X89066785Y-40360714D01*
X88971547Y-40408333D01*
X88923928Y-40503571D01*
X88923928Y-40598809D01*
X89400119Y-40694047D01*
X88495357Y-41027380D02*
X88495357Y-40360714D01*
X88495357Y-40551190D02*
X88447738Y-40455952D01*
X88400119Y-40408333D01*
X88304880Y-40360714D01*
X88209642Y-40360714D01*
X87114404Y-41027380D02*
X87114404Y-40360714D01*
X87114404Y-40551190D02*
X87066785Y-40455952D01*
X87019166Y-40408333D01*
X86923928Y-40360714D01*
X86828690Y-40360714D01*
X86114404Y-40979761D02*
X86209642Y-41027380D01*
X86400119Y-41027380D01*
X86495357Y-40979761D01*
X86542976Y-40884523D01*
X86542976Y-40503571D01*
X86495357Y-40408333D01*
X86400119Y-40360714D01*
X86209642Y-40360714D01*
X86114404Y-40408333D01*
X86066785Y-40503571D01*
X86066785Y-40598809D01*
X86542976Y-40694047D01*
X85733452Y-40360714D02*
X85495357Y-41027380D01*
X85257261Y-40360714D01*
X84352500Y-41027380D02*
X84923928Y-41027380D01*
X84638214Y-41027380D02*
X84638214Y-40027380D01*
X84733452Y-40170238D01*
X84828690Y-40265476D01*
X84923928Y-40313095D01*
X102114404Y-42677380D02*
X102114404Y-41677380D01*
X101733452Y-41677380D01*
X101638214Y-41725000D01*
X101590595Y-41772619D01*
X101542976Y-41867857D01*
X101542976Y-42010714D01*
X101590595Y-42105952D01*
X101638214Y-42153571D01*
X101733452Y-42201190D01*
X102114404Y-42201190D01*
X101114404Y-42677380D02*
X101114404Y-42010714D01*
X101114404Y-42201190D02*
X101066785Y-42105952D01*
X101019166Y-42058333D01*
X100923928Y-42010714D01*
X100828690Y-42010714D01*
X100114404Y-42629761D02*
X100209642Y-42677380D01*
X100400119Y-42677380D01*
X100495357Y-42629761D01*
X100542976Y-42534523D01*
X100542976Y-42153571D01*
X100495357Y-42058333D01*
X100400119Y-42010714D01*
X100209642Y-42010714D01*
X100114404Y-42058333D01*
X100066785Y-42153571D01*
X100066785Y-42248809D01*
X100542976Y-42344047D01*
X99209642Y-42677380D02*
X99209642Y-42153571D01*
X99257261Y-42058333D01*
X99352500Y-42010714D01*
X99542976Y-42010714D01*
X99638214Y-42058333D01*
X99209642Y-42629761D02*
X99304880Y-42677380D01*
X99542976Y-42677380D01*
X99638214Y-42629761D01*
X99685833Y-42534523D01*
X99685833Y-42439285D01*
X99638214Y-42344047D01*
X99542976Y-42296428D01*
X99304880Y-42296428D01*
X99209642Y-42248809D01*
X98733452Y-42677380D02*
X98733452Y-42010714D01*
X98733452Y-42105952D02*
X98685833Y-42058333D01*
X98590595Y-42010714D01*
X98447738Y-42010714D01*
X98352500Y-42058333D01*
X98304880Y-42153571D01*
X98304880Y-42677380D01*
X98304880Y-42153571D02*
X98257261Y-42058333D01*
X98162023Y-42010714D01*
X98019166Y-42010714D01*
X97923928Y-42058333D01*
X97876309Y-42153571D01*
X97876309Y-42677380D01*
X97400119Y-42010714D02*
X97400119Y-43010714D01*
X97400119Y-42058333D02*
X97304880Y-42010714D01*
X97114404Y-42010714D01*
X97019166Y-42058333D01*
X96971547Y-42105952D01*
X96923928Y-42201190D01*
X96923928Y-42486904D01*
X96971547Y-42582142D01*
X97019166Y-42629761D01*
X97114404Y-42677380D01*
X97304880Y-42677380D01*
X97400119Y-42629761D01*
X95781071Y-41772619D02*
X95733452Y-41725000D01*
X95638214Y-41677380D01*
X95400119Y-41677380D01*
X95304880Y-41725000D01*
X95257261Y-41772619D01*
X95209642Y-41867857D01*
X95209642Y-41963095D01*
X95257261Y-42105952D01*
X95828690Y-42677380D01*
X95209642Y-42677380D01*
X94590595Y-41677380D02*
X94495357Y-41677380D01*
X94400119Y-41725000D01*
X94352500Y-41772619D01*
X94304880Y-41867857D01*
X94257261Y-42058333D01*
X94257261Y-42296428D01*
X94304880Y-42486904D01*
X94352500Y-42582142D01*
X94400119Y-42629761D01*
X94495357Y-42677380D01*
X94590595Y-42677380D01*
X94685833Y-42629761D01*
X94733452Y-42582142D01*
X94781071Y-42486904D01*
X94828690Y-42296428D01*
X94828690Y-42058333D01*
X94781071Y-41867857D01*
X94733452Y-41772619D01*
X94685833Y-41725000D01*
X94590595Y-41677380D01*
X93304880Y-42677380D02*
X93876309Y-42677380D01*
X93590595Y-42677380D02*
X93590595Y-41677380D01*
X93685833Y-41820238D01*
X93781071Y-41915476D01*
X93876309Y-41963095D01*
X92828690Y-42677380D02*
X92638214Y-42677380D01*
X92542976Y-42629761D01*
X92495357Y-42582142D01*
X92400119Y-42439285D01*
X92352500Y-42248809D01*
X92352500Y-41867857D01*
X92400119Y-41772619D01*
X92447738Y-41725000D01*
X92542976Y-41677380D01*
X92733452Y-41677380D01*
X92828690Y-41725000D01*
X92876309Y-41772619D01*
X92923928Y-41867857D01*
X92923928Y-42105952D01*
X92876309Y-42201190D01*
X92828690Y-42248809D01*
X92733452Y-42296428D01*
X92542976Y-42296428D01*
X92447738Y-42248809D01*
X92400119Y-42201190D01*
X92352500Y-42105952D01*
X101590595Y-43375000D02*
X101685833Y-43327380D01*
X101828690Y-43327380D01*
X101971547Y-43375000D01*
X102066785Y-43470238D01*
X102114404Y-43565476D01*
X102162023Y-43755952D01*
X102162023Y-43898809D01*
X102114404Y-44089285D01*
X102066785Y-44184523D01*
X101971547Y-44279761D01*
X101828690Y-44327380D01*
X101733452Y-44327380D01*
X101590595Y-44279761D01*
X101542976Y-44232142D01*
X101542976Y-43898809D01*
X101733452Y-43898809D01*
X101114404Y-44232142D02*
X101066785Y-44279761D01*
X101114404Y-44327380D01*
X101162023Y-44279761D01*
X101114404Y-44232142D01*
X101114404Y-44327380D01*
X99876309Y-44327380D02*
X99876309Y-43327380D01*
X99304880Y-44327380D02*
X99733452Y-43755952D01*
X99304880Y-43327380D02*
X99876309Y-43898809D01*
X98495357Y-44279761D02*
X98590595Y-44327380D01*
X98781071Y-44327380D01*
X98876309Y-44279761D01*
X98923928Y-44184523D01*
X98923928Y-43803571D01*
X98876309Y-43708333D01*
X98781071Y-43660714D01*
X98590595Y-43660714D01*
X98495357Y-43708333D01*
X98447738Y-43803571D01*
X98447738Y-43898809D01*
X98923928Y-43994047D01*
X97638214Y-44279761D02*
X97733452Y-44327380D01*
X97923928Y-44327380D01*
X98019166Y-44279761D01*
X98066785Y-44184523D01*
X98066785Y-43803571D01*
X98019166Y-43708333D01*
X97923928Y-43660714D01*
X97733452Y-43660714D01*
X97638214Y-43708333D01*
X97590595Y-43803571D01*
X97590595Y-43898809D01*
X98066785Y-43994047D01*
X97304880Y-43660714D02*
X96923928Y-43660714D01*
X97162023Y-43327380D02*
X97162023Y-44184523D01*
X97114404Y-44279761D01*
X97019166Y-44327380D01*
X96923928Y-44327380D01*
X96590595Y-44327380D02*
X96590595Y-43327380D01*
X96162023Y-44327380D02*
X96162023Y-43803571D01*
X96209642Y-43708333D01*
X96304880Y-43660714D01*
X96447738Y-43660714D01*
X96542976Y-43708333D01*
X96590595Y-43755952D01*
X102162023Y-45072619D02*
X102114404Y-45025000D01*
X102019166Y-44977380D01*
X101781071Y-44977380D01*
X101685833Y-45025000D01*
X101638214Y-45072619D01*
X101590595Y-45167857D01*
X101590595Y-45263095D01*
X101638214Y-45405952D01*
X102209642Y-45977380D01*
X101590595Y-45977380D01*
X100971547Y-44977380D02*
X100876309Y-44977380D01*
X100781071Y-45025000D01*
X100733452Y-45072619D01*
X100685833Y-45167857D01*
X100638214Y-45358333D01*
X100638214Y-45596428D01*
X100685833Y-45786904D01*
X100733452Y-45882142D01*
X100781071Y-45929761D01*
X100876309Y-45977380D01*
X100971547Y-45977380D01*
X101066785Y-45929761D01*
X101114404Y-45882142D01*
X101162023Y-45786904D01*
X101209642Y-45596428D01*
X101209642Y-45358333D01*
X101162023Y-45167857D01*
X101114404Y-45072619D01*
X101066785Y-45025000D01*
X100971547Y-44977380D01*
X99685833Y-45977380D02*
X100257261Y-45977380D01*
X99971547Y-45977380D02*
X99971547Y-44977380D01*
X100066785Y-45120238D01*
X100162023Y-45215476D01*
X100257261Y-45263095D01*
X99209642Y-45977380D02*
X99019166Y-45977380D01*
X98923928Y-45929761D01*
X98876309Y-45882142D01*
X98781071Y-45739285D01*
X98733452Y-45548809D01*
X98733452Y-45167857D01*
X98781071Y-45072619D01*
X98828690Y-45025000D01*
X98923928Y-44977380D01*
X99114404Y-44977380D01*
X99209642Y-45025000D01*
X99257261Y-45072619D01*
X99304880Y-45167857D01*
X99304880Y-45405952D01*
X99257261Y-45501190D01*
X99209642Y-45548809D01*
X99114404Y-45596428D01*
X98923928Y-45596428D01*
X98828690Y-45548809D01*
X98781071Y-45501190D01*
X98733452Y-45405952D01*
X98304880Y-45596428D02*
X97542976Y-45596428D01*
X96876309Y-44977380D02*
X96781071Y-44977380D01*
X96685833Y-45025000D01*
X96638214Y-45072619D01*
X96590595Y-45167857D01*
X96542976Y-45358333D01*
X96542976Y-45596428D01*
X96590595Y-45786904D01*
X96638214Y-45882142D01*
X96685833Y-45929761D01*
X96781071Y-45977380D01*
X96876309Y-45977380D01*
X96971547Y-45929761D01*
X97019166Y-45882142D01*
X97066785Y-45786904D01*
X97114404Y-45596428D01*
X97114404Y-45358333D01*
X97066785Y-45167857D01*
X97019166Y-45072619D01*
X96971547Y-45025000D01*
X96876309Y-44977380D01*
X96066785Y-45977380D02*
X95876309Y-45977380D01*
X95781071Y-45929761D01*
X95733452Y-45882142D01*
X95638214Y-45739285D01*
X95590595Y-45548809D01*
X95590595Y-45167857D01*
X95638214Y-45072619D01*
X95685833Y-45025000D01*
X95781071Y-44977380D01*
X95971547Y-44977380D01*
X96066785Y-45025000D01*
X96114404Y-45072619D01*
X96162023Y-45167857D01*
X96162023Y-45405952D01*
X96114404Y-45501190D01*
X96066785Y-45548809D01*
X95971547Y-45596428D01*
X95781071Y-45596428D01*
X95685833Y-45548809D01*
X95638214Y-45501190D01*
X95590595Y-45405952D01*
X95162023Y-45596428D02*
X94400119Y-45596428D01*
X93971547Y-45072619D02*
X93923928Y-45025000D01*
X93828690Y-44977380D01*
X93590595Y-44977380D01*
X93495357Y-45025000D01*
X93447738Y-45072619D01*
X93400119Y-45167857D01*
X93400119Y-45263095D01*
X93447738Y-45405952D01*
X94019166Y-45977380D01*
X93400119Y-45977380D01*
X92828690Y-45405952D02*
X92923928Y-45358333D01*
X92971547Y-45310714D01*
X93019166Y-45215476D01*
X93019166Y-45167857D01*
X92971547Y-45072619D01*
X92923928Y-45025000D01*
X92828690Y-44977380D01*
X92638214Y-44977380D01*
X92542976Y-45025000D01*
X92495357Y-45072619D01*
X92447738Y-45167857D01*
X92447738Y-45215476D01*
X92495357Y-45310714D01*
X92542976Y-45358333D01*
X92638214Y-45405952D01*
X92828690Y-45405952D01*
X92923928Y-45453571D01*
X92971547Y-45501190D01*
X93019166Y-45596428D01*
X93019166Y-45786904D01*
X92971547Y-45882142D01*
X92923928Y-45929761D01*
X92828690Y-45977380D01*
X92638214Y-45977380D01*
X92542976Y-45929761D01*
X92495357Y-45882142D01*
X92447738Y-45786904D01*
X92447738Y-45596428D01*
X92495357Y-45501190D01*
X92542976Y-45453571D01*
X92638214Y-45405952D01*
D11*
X110755000Y-36300000D02*
X110755000Y-32300000D01*
X118920000Y-31650000D02*
X117740000Y-31650000D01*
X113560000Y-31650000D02*
X114740000Y-31650000D01*
X118920000Y-31140000D02*
X118920000Y-32670000D01*
X113560000Y-31140000D02*
X118920000Y-31140000D01*
X113560000Y-32670000D02*
X113560000Y-31140000D01*
X121435000Y-31650000D02*
X120160000Y-31650000D01*
X111045000Y-31650000D02*
X112320000Y-31650000D01*
X120160000Y-30120000D02*
X120160000Y-31650000D01*
X112320000Y-30120000D02*
X120160000Y-30120000D01*
X112320000Y-31650000D02*
X112320000Y-30120000D01*
X115595000Y-35930000D02*
X115595000Y-36950000D01*
X120415000Y-35930000D02*
X115595000Y-35930000D01*
X120415000Y-32670000D02*
X120415000Y-35930000D01*
X117740000Y-32670000D02*
X120415000Y-32670000D01*
X117740000Y-31650000D02*
X117740000Y-32670000D01*
X114740000Y-31650000D02*
X117740000Y-31650000D01*
X114740000Y-32670000D02*
X114740000Y-31650000D01*
X112065000Y-32670000D02*
X114740000Y-32670000D01*
X112065000Y-35930000D02*
X112065000Y-32670000D01*
X114345000Y-35930000D02*
X112065000Y-35930000D01*
X114345000Y-36950000D02*
X114345000Y-35930000D01*
X121435000Y-36950000D02*
X121435000Y-31650000D01*
X111045000Y-36950000D02*
X121435000Y-36950000D01*
X111045000Y-31650000D02*
X111045000Y-36950000D01*
X154185000Y-36300000D02*
X154185000Y-32300000D01*
X161045000Y-31650000D02*
X159770000Y-31650000D01*
X155495000Y-31650000D02*
X156770000Y-31650000D01*
X161045000Y-31140000D02*
X161045000Y-32670000D01*
X155495000Y-31140000D02*
X161045000Y-31140000D01*
X155495000Y-32670000D02*
X155495000Y-31140000D01*
X162065000Y-30120000D02*
X162065000Y-32670000D01*
X154475000Y-30120000D02*
X162065000Y-30120000D01*
X154475000Y-32670000D02*
X154475000Y-30120000D01*
X158895000Y-35930000D02*
X158895000Y-36950000D01*
X161045000Y-35930000D02*
X158895000Y-35930000D01*
X161045000Y-32670000D02*
X161045000Y-35930000D01*
X159770000Y-32670000D02*
X161045000Y-32670000D01*
X159770000Y-31650000D02*
X159770000Y-32670000D01*
X156770000Y-31650000D02*
X159770000Y-31650000D01*
X156770000Y-32670000D02*
X156770000Y-31650000D01*
X155495000Y-32670000D02*
X156770000Y-32670000D01*
X155495000Y-35930000D02*
X155495000Y-32670000D01*
X157645000Y-35930000D02*
X155495000Y-35930000D01*
X157645000Y-36950000D02*
X157645000Y-35930000D01*
X162065000Y-36950000D02*
X162065000Y-31650000D01*
X154475000Y-36950000D02*
X162065000Y-36950000D01*
X154475000Y-31650000D02*
X154475000Y-36950000D01*
X144185000Y-36300000D02*
X144185000Y-32300000D01*
X151045000Y-31650000D02*
X149770000Y-31650000D01*
X145495000Y-31650000D02*
X146770000Y-31650000D01*
X151045000Y-31140000D02*
X151045000Y-32670000D01*
X145495000Y-31140000D02*
X151045000Y-31140000D01*
X145495000Y-32670000D02*
X145495000Y-31140000D01*
X152065000Y-30120000D02*
X152065000Y-32670000D01*
X144475000Y-30120000D02*
X152065000Y-30120000D01*
X144475000Y-32670000D02*
X144475000Y-30120000D01*
X148895000Y-35930000D02*
X148895000Y-36950000D01*
X151045000Y-35930000D02*
X148895000Y-35930000D01*
X151045000Y-32670000D02*
X151045000Y-35930000D01*
X149770000Y-32670000D02*
X151045000Y-32670000D01*
X149770000Y-31650000D02*
X149770000Y-32670000D01*
X146770000Y-31650000D02*
X149770000Y-31650000D01*
X146770000Y-32670000D02*
X146770000Y-31650000D01*
X145495000Y-32670000D02*
X146770000Y-32670000D01*
X145495000Y-35930000D02*
X145495000Y-32670000D01*
X147645000Y-35930000D02*
X145495000Y-35930000D01*
X147645000Y-36950000D02*
X147645000Y-35930000D01*
X152065000Y-36950000D02*
X152065000Y-31650000D01*
X144475000Y-36950000D02*
X152065000Y-36950000D01*
X144475000Y-31650000D02*
X144475000Y-36950000D01*
X134185000Y-36300000D02*
X134185000Y-32300000D01*
X141045000Y-31650000D02*
X139770000Y-31650000D01*
X135495000Y-31650000D02*
X136770000Y-31650000D01*
X141045000Y-31140000D02*
X141045000Y-32670000D01*
X135495000Y-31140000D02*
X141045000Y-31140000D01*
X135495000Y-32670000D02*
X135495000Y-31140000D01*
X142065000Y-30120000D02*
X142065000Y-32670000D01*
X134475000Y-30120000D02*
X142065000Y-30120000D01*
X134475000Y-32670000D02*
X134475000Y-30120000D01*
X138895000Y-35930000D02*
X138895000Y-36950000D01*
X141045000Y-35930000D02*
X138895000Y-35930000D01*
X141045000Y-32670000D02*
X141045000Y-35930000D01*
X139770000Y-32670000D02*
X141045000Y-32670000D01*
X139770000Y-31650000D02*
X139770000Y-32670000D01*
X136770000Y-31650000D02*
X139770000Y-31650000D01*
X136770000Y-32670000D02*
X136770000Y-31650000D01*
X135495000Y-32670000D02*
X136770000Y-32670000D01*
X135495000Y-35930000D02*
X135495000Y-32670000D01*
X137645000Y-35930000D02*
X135495000Y-35930000D01*
X137645000Y-36950000D02*
X137645000Y-35930000D01*
X142065000Y-36950000D02*
X142065000Y-31650000D01*
X134475000Y-36950000D02*
X142065000Y-36950000D01*
X134475000Y-31650000D02*
X134475000Y-36950000D01*
X124185000Y-36300000D02*
X124185000Y-32300000D01*
X131045000Y-31650000D02*
X129770000Y-31650000D01*
X125495000Y-31650000D02*
X126770000Y-31650000D01*
X131045000Y-31140000D02*
X131045000Y-32670000D01*
X125495000Y-31140000D02*
X131045000Y-31140000D01*
X125495000Y-32670000D02*
X125495000Y-31140000D01*
X132065000Y-30120000D02*
X132065000Y-32670000D01*
X124475000Y-30120000D02*
X132065000Y-30120000D01*
X124475000Y-32670000D02*
X124475000Y-30120000D01*
X128895000Y-35930000D02*
X128895000Y-36950000D01*
X131045000Y-35930000D02*
X128895000Y-35930000D01*
X131045000Y-32670000D02*
X131045000Y-35930000D01*
X129770000Y-32670000D02*
X131045000Y-32670000D01*
X129770000Y-31650000D02*
X129770000Y-32670000D01*
X126770000Y-31650000D02*
X129770000Y-31650000D01*
X126770000Y-32670000D02*
X126770000Y-31650000D01*
X125495000Y-32670000D02*
X126770000Y-32670000D01*
X125495000Y-35930000D02*
X125495000Y-32670000D01*
X127645000Y-35930000D02*
X125495000Y-35930000D01*
X127645000Y-36950000D02*
X127645000Y-35930000D01*
X132065000Y-36950000D02*
X132065000Y-31650000D01*
X124475000Y-36950000D02*
X132065000Y-36950000D01*
X124475000Y-31650000D02*
X124475000Y-36950000D01*
X89885000Y-36300000D02*
X89885000Y-32300000D01*
X96745000Y-31650000D02*
X95470000Y-31650000D01*
X91195000Y-31650000D02*
X92470000Y-31650000D01*
X96745000Y-31140000D02*
X96745000Y-32670000D01*
X91195000Y-31140000D02*
X96745000Y-31140000D01*
X91195000Y-32670000D02*
X91195000Y-31140000D01*
X97765000Y-30120000D02*
X97765000Y-32670000D01*
X90175000Y-30120000D02*
X97765000Y-30120000D01*
X90175000Y-32670000D02*
X90175000Y-30120000D01*
X94595000Y-35930000D02*
X94595000Y-36950000D01*
X96745000Y-35930000D02*
X94595000Y-35930000D01*
X96745000Y-32670000D02*
X96745000Y-35930000D01*
X95470000Y-32670000D02*
X96745000Y-32670000D01*
X95470000Y-31650000D02*
X95470000Y-32670000D01*
X92470000Y-31650000D02*
X95470000Y-31650000D01*
X92470000Y-32670000D02*
X92470000Y-31650000D01*
X91195000Y-32670000D02*
X92470000Y-32670000D01*
X91195000Y-35930000D02*
X91195000Y-32670000D01*
X93345000Y-35930000D02*
X91195000Y-35930000D01*
X93345000Y-36950000D02*
X93345000Y-35930000D01*
X97765000Y-36950000D02*
X97765000Y-31650000D01*
X90175000Y-36950000D02*
X97765000Y-36950000D01*
X90175000Y-31650000D02*
X90175000Y-36950000D01*
X99885000Y-36300000D02*
X99885000Y-32300000D01*
X106745000Y-31650000D02*
X105470000Y-31650000D01*
X101195000Y-31650000D02*
X102470000Y-31650000D01*
X106745000Y-31140000D02*
X106745000Y-32670000D01*
X101195000Y-31140000D02*
X106745000Y-31140000D01*
X101195000Y-32670000D02*
X101195000Y-31140000D01*
X107765000Y-30120000D02*
X107765000Y-32670000D01*
X100175000Y-30120000D02*
X107765000Y-30120000D01*
X100175000Y-32670000D02*
X100175000Y-30120000D01*
X104595000Y-35930000D02*
X104595000Y-36950000D01*
X106745000Y-35930000D02*
X104595000Y-35930000D01*
X106745000Y-32670000D02*
X106745000Y-35930000D01*
X105470000Y-32670000D02*
X106745000Y-32670000D01*
X105470000Y-31650000D02*
X105470000Y-32670000D01*
X102470000Y-31650000D02*
X105470000Y-31650000D01*
X102470000Y-32670000D02*
X102470000Y-31650000D01*
X101195000Y-32670000D02*
X102470000Y-32670000D01*
X101195000Y-35930000D02*
X101195000Y-32670000D01*
X103345000Y-35930000D02*
X101195000Y-35930000D01*
X103345000Y-36950000D02*
X103345000Y-35930000D01*
X107765000Y-36950000D02*
X107765000Y-31650000D01*
X100175000Y-36950000D02*
X107765000Y-36950000D01*
X100175000Y-31650000D02*
X100175000Y-36950000D01*
D12*
G36*
X162310122Y-38837776D02*
G01*
X162204388Y-38838355D01*
X162127868Y-38839922D01*
X162075628Y-38842972D01*
X162042737Y-38847996D01*
X162024263Y-38855489D01*
X162015273Y-38865944D01*
X162010837Y-38879853D01*
X162010406Y-38881654D01*
X162003667Y-38914145D01*
X161991192Y-38978252D01*
X161974281Y-39067151D01*
X161954229Y-39174019D01*
X161932336Y-39292033D01*
X161931571Y-39296178D01*
X161909641Y-39411831D01*
X161889123Y-39514014D01*
X161871341Y-39596598D01*
X161857619Y-39653456D01*
X161849282Y-39678458D01*
X161848884Y-39678901D01*
X161824323Y-39691110D01*
X161773685Y-39711456D01*
X161707905Y-39735545D01*
X161707539Y-39735674D01*
X161624683Y-39766818D01*
X161527000Y-39806491D01*
X161434923Y-39846381D01*
X161430566Y-39848353D01*
X161280593Y-39916420D01*
X160948502Y-39689639D01*
X160846626Y-39620504D01*
X160754343Y-39558697D01*
X160676997Y-39507733D01*
X160619936Y-39471127D01*
X160588505Y-39452394D01*
X160585521Y-39451004D01*
X160562679Y-39457190D01*
X160520018Y-39487035D01*
X160455872Y-39541947D01*
X160368579Y-39623334D01*
X160279465Y-39709922D01*
X160193559Y-39795247D01*
X160116673Y-39873108D01*
X160053436Y-39938697D01*
X160008477Y-39987205D01*
X159986424Y-40013825D01*
X159985604Y-40015195D01*
X159983166Y-40033463D01*
X159992350Y-40063295D01*
X160015426Y-40108721D01*
X160054663Y-40173770D01*
X160112330Y-40262470D01*
X160189205Y-40376657D01*
X160257430Y-40477162D01*
X160318418Y-40567303D01*
X160368644Y-40641849D01*
X160404584Y-40695565D01*
X160422713Y-40723218D01*
X160423854Y-40725095D01*
X160421641Y-40751590D01*
X160404862Y-40803086D01*
X160376858Y-40869851D01*
X160366878Y-40891172D01*
X160323328Y-40986159D01*
X160276866Y-41093937D01*
X160239123Y-41187192D01*
X160211927Y-41256406D01*
X160190325Y-41309006D01*
X160177842Y-41336497D01*
X160176291Y-41338616D01*
X160153332Y-41342124D01*
X160099214Y-41351738D01*
X160021132Y-41366089D01*
X159926281Y-41383807D01*
X159821857Y-41403525D01*
X159715056Y-41423874D01*
X159613074Y-41443486D01*
X159523106Y-41460991D01*
X159452347Y-41475022D01*
X159407994Y-41484209D01*
X159397115Y-41486807D01*
X159385878Y-41493218D01*
X159377395Y-41507697D01*
X159371286Y-41535133D01*
X159367168Y-41580411D01*
X159364659Y-41648420D01*
X159363379Y-41744047D01*
X159362946Y-41872180D01*
X159362923Y-41924701D01*
X159362923Y-42351845D01*
X159465500Y-42372091D01*
X159522569Y-42383070D01*
X159607731Y-42399095D01*
X159710628Y-42418233D01*
X159820904Y-42438551D01*
X159851385Y-42444132D01*
X159953145Y-42463917D01*
X160041795Y-42483373D01*
X160109892Y-42500697D01*
X160149996Y-42514088D01*
X160156677Y-42518079D01*
X160173081Y-42546342D01*
X160196601Y-42601109D01*
X160222684Y-42671588D01*
X160227858Y-42686769D01*
X160262044Y-42780896D01*
X160304477Y-42887101D01*
X160346003Y-42982473D01*
X160346208Y-42982916D01*
X160415360Y-43132525D01*
X159960488Y-43801617D01*
X160252500Y-44094116D01*
X160340820Y-44181170D01*
X160421375Y-44257909D01*
X160489640Y-44320237D01*
X160541092Y-44364056D01*
X160571206Y-44385270D01*
X160575526Y-44386616D01*
X160600889Y-44376016D01*
X160652642Y-44346547D01*
X160725132Y-44301705D01*
X160812706Y-44244984D01*
X160907388Y-44181462D01*
X161003484Y-44116668D01*
X161089163Y-44060287D01*
X161158984Y-44015788D01*
X161207506Y-43986639D01*
X161229218Y-43976308D01*
X161255707Y-43985050D01*
X161305938Y-44008087D01*
X161369549Y-44040631D01*
X161376292Y-44044249D01*
X161461954Y-44087210D01*
X161520694Y-44108279D01*
X161557228Y-44108503D01*
X161576269Y-44088928D01*
X161576380Y-44088654D01*
X161585898Y-44065472D01*
X161608597Y-44010441D01*
X161642718Y-43927822D01*
X161686500Y-43821872D01*
X161738184Y-43696852D01*
X161796008Y-43557020D01*
X161852009Y-43421637D01*
X161913553Y-43272234D01*
X161970061Y-43133832D01*
X162019839Y-43010673D01*
X162061194Y-42907002D01*
X162092432Y-42827059D01*
X162111859Y-42775088D01*
X162117846Y-42755692D01*
X162102832Y-42733443D01*
X162063561Y-42697982D01*
X162011193Y-42658887D01*
X161862059Y-42535245D01*
X161745489Y-42393522D01*
X161662882Y-42236704D01*
X161615634Y-42067775D01*
X161605143Y-41889722D01*
X161612769Y-41807539D01*
X161654318Y-41637031D01*
X161725877Y-41486459D01*
X161823005Y-41357309D01*
X161941266Y-41251064D01*
X162076220Y-41169210D01*
X162223429Y-41113232D01*
X162378456Y-41084615D01*
X162536861Y-41084844D01*
X162694206Y-41115405D01*
X162846054Y-41177782D01*
X162987965Y-41273460D01*
X163047197Y-41327572D01*
X163160797Y-41466520D01*
X163239894Y-41618361D01*
X163285014Y-41778667D01*
X163296684Y-41943012D01*
X163275431Y-42106971D01*
X163221780Y-42266118D01*
X163136260Y-42416025D01*
X163019395Y-42552267D01*
X162888807Y-42658887D01*
X162834412Y-42699642D01*
X162795986Y-42734718D01*
X162782154Y-42755726D01*
X162789397Y-42778635D01*
X162809995Y-42833365D01*
X162842254Y-42915672D01*
X162884479Y-43021315D01*
X162934977Y-43146050D01*
X162992052Y-43285636D01*
X163048146Y-43421670D01*
X163110033Y-43571201D01*
X163167356Y-43709767D01*
X163218356Y-43833107D01*
X163261273Y-43936964D01*
X163294347Y-44017080D01*
X163315819Y-44069195D01*
X163323775Y-44088654D01*
X163342571Y-44108423D01*
X163378926Y-44108365D01*
X163437521Y-44087441D01*
X163523032Y-44044613D01*
X163523708Y-44044249D01*
X163588093Y-44011012D01*
X163640139Y-43986802D01*
X163669488Y-43976404D01*
X163670783Y-43976308D01*
X163692876Y-43986855D01*
X163741652Y-44016184D01*
X163811669Y-44060827D01*
X163897486Y-44117314D01*
X163992612Y-44181462D01*
X164089460Y-44246411D01*
X164176747Y-44302896D01*
X164248819Y-44347421D01*
X164300023Y-44376490D01*
X164324474Y-44386616D01*
X164346990Y-44373307D01*
X164392258Y-44336112D01*
X164455756Y-44279128D01*
X164532961Y-44206449D01*
X164619349Y-44122171D01*
X164647601Y-44094016D01*
X164939713Y-43801416D01*
X164717369Y-43475104D01*
X164649798Y-43374897D01*
X164590493Y-43284963D01*
X164542783Y-43210510D01*
X164509993Y-43156751D01*
X164495452Y-43128894D01*
X164495026Y-43126912D01*
X164502692Y-43100655D01*
X164523311Y-43047837D01*
X164553315Y-42977310D01*
X164574375Y-42930093D01*
X164613752Y-42839694D01*
X164650835Y-42748366D01*
X164679585Y-42671200D01*
X164687395Y-42647692D01*
X164709583Y-42584916D01*
X164731273Y-42536411D01*
X164743187Y-42518079D01*
X164769477Y-42506859D01*
X164826858Y-42490954D01*
X164907882Y-42472167D01*
X165005105Y-42452299D01*
X165048615Y-42444132D01*
X165159104Y-42423829D01*
X165265084Y-42404170D01*
X165356199Y-42387088D01*
X165422092Y-42374518D01*
X165434500Y-42372091D01*
X165537077Y-42351845D01*
X165537077Y-41924701D01*
X165536847Y-41784246D01*
X165535901Y-41677979D01*
X165533859Y-41601013D01*
X165530338Y-41548460D01*
X165524957Y-41515433D01*
X165517334Y-41497045D01*
X165507088Y-41488408D01*
X165502885Y-41486807D01*
X165477530Y-41481127D01*
X165421516Y-41469795D01*
X165342036Y-41454179D01*
X165246288Y-41435647D01*
X165141467Y-41415569D01*
X165034768Y-41395312D01*
X164933387Y-41376246D01*
X164844521Y-41359739D01*
X164775363Y-41347159D01*
X164733111Y-41339875D01*
X164723710Y-41338616D01*
X164715193Y-41321763D01*
X164696340Y-41276870D01*
X164670676Y-41212430D01*
X164660877Y-41187192D01*
X164621352Y-41089686D01*
X164574808Y-40981959D01*
X164533123Y-40891172D01*
X164502450Y-40821753D01*
X164482044Y-40764710D01*
X164475232Y-40729777D01*
X164476318Y-40725095D01*
X164490715Y-40702991D01*
X164523588Y-40653831D01*
X164571410Y-40582848D01*
X164630652Y-40495278D01*
X164697785Y-40396357D01*
X164711059Y-40376830D01*
X164788954Y-40261140D01*
X164846213Y-40173044D01*
X164885119Y-40108486D01*
X164907956Y-40063411D01*
X164917006Y-40033763D01*
X164914552Y-40015485D01*
X164914489Y-40015369D01*
X164895173Y-39991361D01*
X164852449Y-39944947D01*
X164790949Y-39880937D01*
X164715302Y-39804145D01*
X164630139Y-39719382D01*
X164620535Y-39709922D01*
X164513210Y-39605989D01*
X164430385Y-39529675D01*
X164370395Y-39479571D01*
X164331577Y-39454270D01*
X164314480Y-39451004D01*
X164289527Y-39465250D01*
X164237745Y-39498156D01*
X164164480Y-39546208D01*
X164075080Y-39605890D01*
X163974889Y-39673688D01*
X163951499Y-39689639D01*
X163619407Y-39916420D01*
X163469435Y-39848353D01*
X163378230Y-39808685D01*
X163280331Y-39768791D01*
X163196169Y-39736983D01*
X163192462Y-39735674D01*
X163126631Y-39711576D01*
X163075884Y-39691200D01*
X163051158Y-39678936D01*
X163051116Y-39678901D01*
X163043271Y-39656734D01*
X163029934Y-39602217D01*
X163012430Y-39521480D01*
X162992083Y-39420650D01*
X162970218Y-39305856D01*
X162968429Y-39296178D01*
X162946496Y-39177904D01*
X162926360Y-39070542D01*
X162909320Y-38980917D01*
X162896672Y-38915851D01*
X162889716Y-38882168D01*
X162889594Y-38881654D01*
X162885361Y-38867325D01*
X162877129Y-38856507D01*
X162859967Y-38848706D01*
X162828942Y-38843429D01*
X162779122Y-38840182D01*
X162705576Y-38838472D01*
X162603371Y-38837807D01*
X162467575Y-38837693D01*
X162450000Y-38837692D01*
X162310122Y-38837776D01*
X162310122Y-38837776D01*
G37*
X162310122Y-38837776D02*
X162204388Y-38838355D01*
X162127868Y-38839922D01*
X162075628Y-38842972D01*
X162042737Y-38847996D01*
X162024263Y-38855489D01*
X162015273Y-38865944D01*
X162010837Y-38879853D01*
X162010406Y-38881654D01*
X162003667Y-38914145D01*
X161991192Y-38978252D01*
X161974281Y-39067151D01*
X161954229Y-39174019D01*
X161932336Y-39292033D01*
X161931571Y-39296178D01*
X161909641Y-39411831D01*
X161889123Y-39514014D01*
X161871341Y-39596598D01*
X161857619Y-39653456D01*
X161849282Y-39678458D01*
X161848884Y-39678901D01*
X161824323Y-39691110D01*
X161773685Y-39711456D01*
X161707905Y-39735545D01*
X161707539Y-39735674D01*
X161624683Y-39766818D01*
X161527000Y-39806491D01*
X161434923Y-39846381D01*
X161430566Y-39848353D01*
X161280593Y-39916420D01*
X160948502Y-39689639D01*
X160846626Y-39620504D01*
X160754343Y-39558697D01*
X160676997Y-39507733D01*
X160619936Y-39471127D01*
X160588505Y-39452394D01*
X160585521Y-39451004D01*
X160562679Y-39457190D01*
X160520018Y-39487035D01*
X160455872Y-39541947D01*
X160368579Y-39623334D01*
X160279465Y-39709922D01*
X160193559Y-39795247D01*
X160116673Y-39873108D01*
X160053436Y-39938697D01*
X160008477Y-39987205D01*
X159986424Y-40013825D01*
X159985604Y-40015195D01*
X159983166Y-40033463D01*
X159992350Y-40063295D01*
X160015426Y-40108721D01*
X160054663Y-40173770D01*
X160112330Y-40262470D01*
X160189205Y-40376657D01*
X160257430Y-40477162D01*
X160318418Y-40567303D01*
X160368644Y-40641849D01*
X160404584Y-40695565D01*
X160422713Y-40723218D01*
X160423854Y-40725095D01*
X160421641Y-40751590D01*
X160404862Y-40803086D01*
X160376858Y-40869851D01*
X160366878Y-40891172D01*
X160323328Y-40986159D01*
X160276866Y-41093937D01*
X160239123Y-41187192D01*
X160211927Y-41256406D01*
X160190325Y-41309006D01*
X160177842Y-41336497D01*
X160176291Y-41338616D01*
X160153332Y-41342124D01*
X160099214Y-41351738D01*
X160021132Y-41366089D01*
X159926281Y-41383807D01*
X159821857Y-41403525D01*
X159715056Y-41423874D01*
X159613074Y-41443486D01*
X159523106Y-41460991D01*
X159452347Y-41475022D01*
X159407994Y-41484209D01*
X159397115Y-41486807D01*
X159385878Y-41493218D01*
X159377395Y-41507697D01*
X159371286Y-41535133D01*
X159367168Y-41580411D01*
X159364659Y-41648420D01*
X159363379Y-41744047D01*
X159362946Y-41872180D01*
X159362923Y-41924701D01*
X159362923Y-42351845D01*
X159465500Y-42372091D01*
X159522569Y-42383070D01*
X159607731Y-42399095D01*
X159710628Y-42418233D01*
X159820904Y-42438551D01*
X159851385Y-42444132D01*
X159953145Y-42463917D01*
X160041795Y-42483373D01*
X160109892Y-42500697D01*
X160149996Y-42514088D01*
X160156677Y-42518079D01*
X160173081Y-42546342D01*
X160196601Y-42601109D01*
X160222684Y-42671588D01*
X160227858Y-42686769D01*
X160262044Y-42780896D01*
X160304477Y-42887101D01*
X160346003Y-42982473D01*
X160346208Y-42982916D01*
X160415360Y-43132525D01*
X159960488Y-43801617D01*
X160252500Y-44094116D01*
X160340820Y-44181170D01*
X160421375Y-44257909D01*
X160489640Y-44320237D01*
X160541092Y-44364056D01*
X160571206Y-44385270D01*
X160575526Y-44386616D01*
X160600889Y-44376016D01*
X160652642Y-44346547D01*
X160725132Y-44301705D01*
X160812706Y-44244984D01*
X160907388Y-44181462D01*
X161003484Y-44116668D01*
X161089163Y-44060287D01*
X161158984Y-44015788D01*
X161207506Y-43986639D01*
X161229218Y-43976308D01*
X161255707Y-43985050D01*
X161305938Y-44008087D01*
X161369549Y-44040631D01*
X161376292Y-44044249D01*
X161461954Y-44087210D01*
X161520694Y-44108279D01*
X161557228Y-44108503D01*
X161576269Y-44088928D01*
X161576380Y-44088654D01*
X161585898Y-44065472D01*
X161608597Y-44010441D01*
X161642718Y-43927822D01*
X161686500Y-43821872D01*
X161738184Y-43696852D01*
X161796008Y-43557020D01*
X161852009Y-43421637D01*
X161913553Y-43272234D01*
X161970061Y-43133832D01*
X162019839Y-43010673D01*
X162061194Y-42907002D01*
X162092432Y-42827059D01*
X162111859Y-42775088D01*
X162117846Y-42755692D01*
X162102832Y-42733443D01*
X162063561Y-42697982D01*
X162011193Y-42658887D01*
X161862059Y-42535245D01*
X161745489Y-42393522D01*
X161662882Y-42236704D01*
X161615634Y-42067775D01*
X161605143Y-41889722D01*
X161612769Y-41807539D01*
X161654318Y-41637031D01*
X161725877Y-41486459D01*
X161823005Y-41357309D01*
X161941266Y-41251064D01*
X162076220Y-41169210D01*
X162223429Y-41113232D01*
X162378456Y-41084615D01*
X162536861Y-41084844D01*
X162694206Y-41115405D01*
X162846054Y-41177782D01*
X162987965Y-41273460D01*
X163047197Y-41327572D01*
X163160797Y-41466520D01*
X163239894Y-41618361D01*
X163285014Y-41778667D01*
X163296684Y-41943012D01*
X163275431Y-42106971D01*
X163221780Y-42266118D01*
X163136260Y-42416025D01*
X163019395Y-42552267D01*
X162888807Y-42658887D01*
X162834412Y-42699642D01*
X162795986Y-42734718D01*
X162782154Y-42755726D01*
X162789397Y-42778635D01*
X162809995Y-42833365D01*
X162842254Y-42915672D01*
X162884479Y-43021315D01*
X162934977Y-43146050D01*
X162992052Y-43285636D01*
X163048146Y-43421670D01*
X163110033Y-43571201D01*
X163167356Y-43709767D01*
X163218356Y-43833107D01*
X163261273Y-43936964D01*
X163294347Y-44017080D01*
X163315819Y-44069195D01*
X163323775Y-44088654D01*
X163342571Y-44108423D01*
X163378926Y-44108365D01*
X163437521Y-44087441D01*
X163523032Y-44044613D01*
X163523708Y-44044249D01*
X163588093Y-44011012D01*
X163640139Y-43986802D01*
X163669488Y-43976404D01*
X163670783Y-43976308D01*
X163692876Y-43986855D01*
X163741652Y-44016184D01*
X163811669Y-44060827D01*
X163897486Y-44117314D01*
X163992612Y-44181462D01*
X164089460Y-44246411D01*
X164176747Y-44302896D01*
X164248819Y-44347421D01*
X164300023Y-44376490D01*
X164324474Y-44386616D01*
X164346990Y-44373307D01*
X164392258Y-44336112D01*
X164455756Y-44279128D01*
X164532961Y-44206449D01*
X164619349Y-44122171D01*
X164647601Y-44094016D01*
X164939713Y-43801416D01*
X164717369Y-43475104D01*
X164649798Y-43374897D01*
X164590493Y-43284963D01*
X164542783Y-43210510D01*
X164509993Y-43156751D01*
X164495452Y-43128894D01*
X164495026Y-43126912D01*
X164502692Y-43100655D01*
X164523311Y-43047837D01*
X164553315Y-42977310D01*
X164574375Y-42930093D01*
X164613752Y-42839694D01*
X164650835Y-42748366D01*
X164679585Y-42671200D01*
X164687395Y-42647692D01*
X164709583Y-42584916D01*
X164731273Y-42536411D01*
X164743187Y-42518079D01*
X164769477Y-42506859D01*
X164826858Y-42490954D01*
X164907882Y-42472167D01*
X165005105Y-42452299D01*
X165048615Y-42444132D01*
X165159104Y-42423829D01*
X165265084Y-42404170D01*
X165356199Y-42387088D01*
X165422092Y-42374518D01*
X165434500Y-42372091D01*
X165537077Y-42351845D01*
X165537077Y-41924701D01*
X165536847Y-41784246D01*
X165535901Y-41677979D01*
X165533859Y-41601013D01*
X165530338Y-41548460D01*
X165524957Y-41515433D01*
X165517334Y-41497045D01*
X165507088Y-41488408D01*
X165502885Y-41486807D01*
X165477530Y-41481127D01*
X165421516Y-41469795D01*
X165342036Y-41454179D01*
X165246288Y-41435647D01*
X165141467Y-41415569D01*
X165034768Y-41395312D01*
X164933387Y-41376246D01*
X164844521Y-41359739D01*
X164775363Y-41347159D01*
X164733111Y-41339875D01*
X164723710Y-41338616D01*
X164715193Y-41321763D01*
X164696340Y-41276870D01*
X164670676Y-41212430D01*
X164660877Y-41187192D01*
X164621352Y-41089686D01*
X164574808Y-40981959D01*
X164533123Y-40891172D01*
X164502450Y-40821753D01*
X164482044Y-40764710D01*
X164475232Y-40729777D01*
X164476318Y-40725095D01*
X164490715Y-40702991D01*
X164523588Y-40653831D01*
X164571410Y-40582848D01*
X164630652Y-40495278D01*
X164697785Y-40396357D01*
X164711059Y-40376830D01*
X164788954Y-40261140D01*
X164846213Y-40173044D01*
X164885119Y-40108486D01*
X164907956Y-40063411D01*
X164917006Y-40033763D01*
X164914552Y-40015485D01*
X164914489Y-40015369D01*
X164895173Y-39991361D01*
X164852449Y-39944947D01*
X164790949Y-39880937D01*
X164715302Y-39804145D01*
X164630139Y-39719382D01*
X164620535Y-39709922D01*
X164513210Y-39605989D01*
X164430385Y-39529675D01*
X164370395Y-39479571D01*
X164331577Y-39454270D01*
X164314480Y-39451004D01*
X164289527Y-39465250D01*
X164237745Y-39498156D01*
X164164480Y-39546208D01*
X164075080Y-39605890D01*
X163974889Y-39673688D01*
X163951499Y-39689639D01*
X163619407Y-39916420D01*
X163469435Y-39848353D01*
X163378230Y-39808685D01*
X163280331Y-39768791D01*
X163196169Y-39736983D01*
X163192462Y-39735674D01*
X163126631Y-39711576D01*
X163075884Y-39691200D01*
X163051158Y-39678936D01*
X163051116Y-39678901D01*
X163043271Y-39656734D01*
X163029934Y-39602217D01*
X163012430Y-39521480D01*
X162992083Y-39420650D01*
X162970218Y-39305856D01*
X162968429Y-39296178D01*
X162946496Y-39177904D01*
X162926360Y-39070542D01*
X162909320Y-38980917D01*
X162896672Y-38915851D01*
X162889716Y-38882168D01*
X162889594Y-38881654D01*
X162885361Y-38867325D01*
X162877129Y-38856507D01*
X162859967Y-38848706D01*
X162828942Y-38843429D01*
X162779122Y-38840182D01*
X162705576Y-38838472D01*
X162603371Y-38837807D01*
X162467575Y-38837693D01*
X162450000Y-38837692D01*
X162310122Y-38837776D01*
G36*
X158204776Y-45197838D02*
G01*
X158127472Y-45248361D01*
X158090186Y-45293590D01*
X158060647Y-45375663D01*
X158058301Y-45440607D01*
X158063615Y-45527445D01*
X158263885Y-45615103D01*
X158361261Y-45659887D01*
X158424887Y-45695913D01*
X158457971Y-45727117D01*
X158463720Y-45757436D01*
X158445342Y-45790805D01*
X158425077Y-45812923D01*
X158366111Y-45848393D01*
X158301976Y-45850879D01*
X158243074Y-45823235D01*
X158199803Y-45768320D01*
X158192064Y-45748928D01*
X158154994Y-45688364D01*
X158112346Y-45662552D01*
X158053846Y-45640471D01*
X158053846Y-45724184D01*
X158059018Y-45781150D01*
X158079277Y-45829189D01*
X158121738Y-45884346D01*
X158128049Y-45891514D01*
X158175280Y-45940585D01*
X158215879Y-45966920D01*
X158266672Y-45979035D01*
X158308780Y-45983003D01*
X158384098Y-45983991D01*
X158437714Y-45971466D01*
X158471162Y-45952869D01*
X158523732Y-45911975D01*
X158560121Y-45867748D01*
X158583150Y-45812126D01*
X158595641Y-45737047D01*
X158600413Y-45634449D01*
X158600794Y-45582376D01*
X158599499Y-45519948D01*
X158481529Y-45519948D01*
X158480161Y-45553438D01*
X158476751Y-45558923D01*
X158454247Y-45551472D01*
X158405818Y-45531753D01*
X158341092Y-45503718D01*
X158327557Y-45497692D01*
X158245756Y-45456096D01*
X158200688Y-45419538D01*
X158190783Y-45385296D01*
X158214474Y-45350648D01*
X158234040Y-45335339D01*
X158304640Y-45304721D01*
X158370720Y-45309780D01*
X158426041Y-45347151D01*
X158464364Y-45413473D01*
X158476651Y-45466116D01*
X158481529Y-45519948D01*
X158599499Y-45519948D01*
X158598270Y-45460720D01*
X158588968Y-45370710D01*
X158570540Y-45305167D01*
X158540640Y-45256912D01*
X158496920Y-45218767D01*
X158477859Y-45206440D01*
X158391274Y-45174336D01*
X158296478Y-45172316D01*
X158204776Y-45197838D01*
X158204776Y-45197838D01*
G37*
X158204776Y-45197838D02*
X158127472Y-45248361D01*
X158090186Y-45293590D01*
X158060647Y-45375663D01*
X158058301Y-45440607D01*
X158063615Y-45527445D01*
X158263885Y-45615103D01*
X158361261Y-45659887D01*
X158424887Y-45695913D01*
X158457971Y-45727117D01*
X158463720Y-45757436D01*
X158445342Y-45790805D01*
X158425077Y-45812923D01*
X158366111Y-45848393D01*
X158301976Y-45850879D01*
X158243074Y-45823235D01*
X158199803Y-45768320D01*
X158192064Y-45748928D01*
X158154994Y-45688364D01*
X158112346Y-45662552D01*
X158053846Y-45640471D01*
X158053846Y-45724184D01*
X158059018Y-45781150D01*
X158079277Y-45829189D01*
X158121738Y-45884346D01*
X158128049Y-45891514D01*
X158175280Y-45940585D01*
X158215879Y-45966920D01*
X158266672Y-45979035D01*
X158308780Y-45983003D01*
X158384098Y-45983991D01*
X158437714Y-45971466D01*
X158471162Y-45952869D01*
X158523732Y-45911975D01*
X158560121Y-45867748D01*
X158583150Y-45812126D01*
X158595641Y-45737047D01*
X158600413Y-45634449D01*
X158600794Y-45582376D01*
X158599499Y-45519948D01*
X158481529Y-45519948D01*
X158480161Y-45553438D01*
X158476751Y-45558923D01*
X158454247Y-45551472D01*
X158405818Y-45531753D01*
X158341092Y-45503718D01*
X158327557Y-45497692D01*
X158245756Y-45456096D01*
X158200688Y-45419538D01*
X158190783Y-45385296D01*
X158214474Y-45350648D01*
X158234040Y-45335339D01*
X158304640Y-45304721D01*
X158370720Y-45309780D01*
X158426041Y-45347151D01*
X158464364Y-45413473D01*
X158476651Y-45466116D01*
X158481529Y-45519948D01*
X158599499Y-45519948D01*
X158598270Y-45460720D01*
X158588968Y-45370710D01*
X158570540Y-45305167D01*
X158540640Y-45256912D01*
X158496920Y-45218767D01*
X158477859Y-45206440D01*
X158391274Y-45174336D01*
X158296478Y-45172316D01*
X158204776Y-45197838D01*
G36*
X158879193Y-45186782D02*
G01*
X158855839Y-45196988D01*
X158800098Y-45241134D01*
X158752431Y-45304967D01*
X158722952Y-45373087D01*
X158718154Y-45406670D01*
X158734240Y-45453556D01*
X158769525Y-45478365D01*
X158807356Y-45493387D01*
X158824679Y-45496155D01*
X158833114Y-45476066D01*
X158849770Y-45432351D01*
X158857077Y-45412598D01*
X158898052Y-45344271D01*
X158957378Y-45310191D01*
X159033448Y-45311239D01*
X159039082Y-45312581D01*
X159079695Y-45331836D01*
X159109552Y-45369375D01*
X159129945Y-45429809D01*
X159142164Y-45517751D01*
X159147500Y-45637813D01*
X159148000Y-45701698D01*
X159148248Y-45802403D01*
X159149874Y-45871054D01*
X159154199Y-45914673D01*
X159162546Y-45940282D01*
X159176235Y-45954903D01*
X159196589Y-45965558D01*
X159197766Y-45966095D01*
X159236962Y-45982667D01*
X159256381Y-45988769D01*
X159259365Y-45970319D01*
X159261919Y-45919323D01*
X159263860Y-45842308D01*
X159265003Y-45745805D01*
X159265231Y-45675184D01*
X159264068Y-45538525D01*
X159259521Y-45434851D01*
X159250001Y-45358108D01*
X159233919Y-45302246D01*
X159209687Y-45261212D01*
X159175714Y-45228954D01*
X159142167Y-45206440D01*
X159061501Y-45176476D01*
X158967619Y-45169718D01*
X158879193Y-45186782D01*
X158879193Y-45186782D01*
G37*
X158879193Y-45186782D02*
X158855839Y-45196988D01*
X158800098Y-45241134D01*
X158752431Y-45304967D01*
X158722952Y-45373087D01*
X158718154Y-45406670D01*
X158734240Y-45453556D01*
X158769525Y-45478365D01*
X158807356Y-45493387D01*
X158824679Y-45496155D01*
X158833114Y-45476066D01*
X158849770Y-45432351D01*
X158857077Y-45412598D01*
X158898052Y-45344271D01*
X158957378Y-45310191D01*
X159033448Y-45311239D01*
X159039082Y-45312581D01*
X159079695Y-45331836D01*
X159109552Y-45369375D01*
X159129945Y-45429809D01*
X159142164Y-45517751D01*
X159147500Y-45637813D01*
X159148000Y-45701698D01*
X159148248Y-45802403D01*
X159149874Y-45871054D01*
X159154199Y-45914673D01*
X159162546Y-45940282D01*
X159176235Y-45954903D01*
X159196589Y-45965558D01*
X159197766Y-45966095D01*
X159236962Y-45982667D01*
X159256381Y-45988769D01*
X159259365Y-45970319D01*
X159261919Y-45919323D01*
X159263860Y-45842308D01*
X159265003Y-45745805D01*
X159265231Y-45675184D01*
X159264068Y-45538525D01*
X159259521Y-45434851D01*
X159250001Y-45358108D01*
X159233919Y-45302246D01*
X159209687Y-45261212D01*
X159175714Y-45228954D01*
X159142167Y-45206440D01*
X159061501Y-45176476D01*
X158967619Y-45169718D01*
X158879193Y-45186782D01*
G36*
X159562667Y-45183528D02*
G01*
X159506410Y-45209117D01*
X159462253Y-45240124D01*
X159429899Y-45274795D01*
X159407562Y-45319520D01*
X159393454Y-45380692D01*
X159385789Y-45464701D01*
X159382780Y-45577940D01*
X159382462Y-45652509D01*
X159382462Y-45943420D01*
X159432227Y-45966095D01*
X159471424Y-45982667D01*
X159490843Y-45988769D01*
X159494558Y-45970610D01*
X159497505Y-45921648D01*
X159499309Y-45850153D01*
X159499692Y-45793385D01*
X159501339Y-45711371D01*
X159505778Y-45646309D01*
X159512260Y-45606467D01*
X159517410Y-45598000D01*
X159552023Y-45606646D01*
X159606360Y-45628823D01*
X159669278Y-45658886D01*
X159729632Y-45691192D01*
X159776279Y-45720098D01*
X159798074Y-45739961D01*
X159798161Y-45740175D01*
X159796286Y-45776935D01*
X159779475Y-45812026D01*
X159749961Y-45840528D01*
X159706884Y-45850061D01*
X159670068Y-45848950D01*
X159617926Y-45848133D01*
X159590556Y-45860349D01*
X159574118Y-45892624D01*
X159572045Y-45898710D01*
X159564919Y-45944739D01*
X159583976Y-45972687D01*
X159633647Y-45986007D01*
X159687303Y-45988470D01*
X159783858Y-45970210D01*
X159833841Y-45944131D01*
X159895571Y-45882868D01*
X159928310Y-45807670D01*
X159931247Y-45728211D01*
X159903576Y-45654167D01*
X159861953Y-45607769D01*
X159820396Y-45581793D01*
X159755078Y-45548907D01*
X159678962Y-45515557D01*
X159666274Y-45510461D01*
X159582667Y-45473565D01*
X159534470Y-45441046D01*
X159518970Y-45408718D01*
X159533450Y-45372394D01*
X159558308Y-45344000D01*
X159617061Y-45309039D01*
X159681707Y-45306417D01*
X159740992Y-45333358D01*
X159783661Y-45387088D01*
X159789261Y-45400950D01*
X159821867Y-45451936D01*
X159869470Y-45489787D01*
X159929539Y-45520850D01*
X159929539Y-45432768D01*
X159926003Y-45378951D01*
X159910844Y-45336534D01*
X159877232Y-45291279D01*
X159844965Y-45256420D01*
X159794791Y-45207062D01*
X159755807Y-45180547D01*
X159713936Y-45169911D01*
X159666540Y-45168154D01*
X159562667Y-45183528D01*
X159562667Y-45183528D01*
G37*
X159562667Y-45183528D02*
X159506410Y-45209117D01*
X159462253Y-45240124D01*
X159429899Y-45274795D01*
X159407562Y-45319520D01*
X159393454Y-45380692D01*
X159385789Y-45464701D01*
X159382780Y-45577940D01*
X159382462Y-45652509D01*
X159382462Y-45943420D01*
X159432227Y-45966095D01*
X159471424Y-45982667D01*
X159490843Y-45988769D01*
X159494558Y-45970610D01*
X159497505Y-45921648D01*
X159499309Y-45850153D01*
X159499692Y-45793385D01*
X159501339Y-45711371D01*
X159505778Y-45646309D01*
X159512260Y-45606467D01*
X159517410Y-45598000D01*
X159552023Y-45606646D01*
X159606360Y-45628823D01*
X159669278Y-45658886D01*
X159729632Y-45691192D01*
X159776279Y-45720098D01*
X159798074Y-45739961D01*
X159798161Y-45740175D01*
X159796286Y-45776935D01*
X159779475Y-45812026D01*
X159749961Y-45840528D01*
X159706884Y-45850061D01*
X159670068Y-45848950D01*
X159617926Y-45848133D01*
X159590556Y-45860349D01*
X159574118Y-45892624D01*
X159572045Y-45898710D01*
X159564919Y-45944739D01*
X159583976Y-45972687D01*
X159633647Y-45986007D01*
X159687303Y-45988470D01*
X159783858Y-45970210D01*
X159833841Y-45944131D01*
X159895571Y-45882868D01*
X159928310Y-45807670D01*
X159931247Y-45728211D01*
X159903576Y-45654167D01*
X159861953Y-45607769D01*
X159820396Y-45581793D01*
X159755078Y-45548907D01*
X159678962Y-45515557D01*
X159666274Y-45510461D01*
X159582667Y-45473565D01*
X159534470Y-45441046D01*
X159518970Y-45408718D01*
X159533450Y-45372394D01*
X159558308Y-45344000D01*
X159617061Y-45309039D01*
X159681707Y-45306417D01*
X159740992Y-45333358D01*
X159783661Y-45387088D01*
X159789261Y-45400950D01*
X159821867Y-45451936D01*
X159869470Y-45489787D01*
X159929539Y-45520850D01*
X159929539Y-45432768D01*
X159926003Y-45378951D01*
X159910844Y-45336534D01*
X159877232Y-45291279D01*
X159844965Y-45256420D01*
X159794791Y-45207062D01*
X159755807Y-45180547D01*
X159713936Y-45169911D01*
X159666540Y-45168154D01*
X159562667Y-45183528D01*
G36*
X160054071Y-45186662D02*
G01*
X160051089Y-45238068D01*
X160048753Y-45316192D01*
X160047251Y-45414857D01*
X160046769Y-45518343D01*
X160046769Y-45868533D01*
X160108599Y-45930363D01*
X160151207Y-45968462D01*
X160188610Y-45983895D01*
X160239730Y-45982918D01*
X160260022Y-45980433D01*
X160323446Y-45973200D01*
X160375905Y-45969055D01*
X160388692Y-45968672D01*
X160431801Y-45971176D01*
X160493456Y-45977462D01*
X160517362Y-45980433D01*
X160576078Y-45985028D01*
X160615536Y-45975046D01*
X160654662Y-45944228D01*
X160668785Y-45930363D01*
X160730615Y-45868533D01*
X160730615Y-45213503D01*
X160680850Y-45190829D01*
X160637998Y-45174034D01*
X160612927Y-45168154D01*
X160606499Y-45186736D01*
X160600491Y-45238655D01*
X160595303Y-45318172D01*
X160591336Y-45419546D01*
X160589423Y-45505192D01*
X160584077Y-45842231D01*
X160537440Y-45848825D01*
X160495024Y-45844214D01*
X160474240Y-45829287D01*
X160468430Y-45801377D01*
X160463470Y-45741925D01*
X160459754Y-45658466D01*
X160457676Y-45558532D01*
X160457376Y-45507104D01*
X160457077Y-45211054D01*
X160395546Y-45189604D01*
X160351996Y-45175020D01*
X160328306Y-45168219D01*
X160327623Y-45168154D01*
X160325246Y-45186642D01*
X160322634Y-45237906D01*
X160320005Y-45315649D01*
X160317579Y-45413574D01*
X160315885Y-45505192D01*
X160310539Y-45842231D01*
X160193308Y-45842231D01*
X160187928Y-45534746D01*
X160182549Y-45227261D01*
X160125399Y-45197707D01*
X160083203Y-45177413D01*
X160058230Y-45168204D01*
X160057509Y-45168154D01*
X160054071Y-45186662D01*
X160054071Y-45186662D01*
G37*
X160054071Y-45186662D02*
X160051089Y-45238068D01*
X160048753Y-45316192D01*
X160047251Y-45414857D01*
X160046769Y-45518343D01*
X160046769Y-45868533D01*
X160108599Y-45930363D01*
X160151207Y-45968462D01*
X160188610Y-45983895D01*
X160239730Y-45982918D01*
X160260022Y-45980433D01*
X160323446Y-45973200D01*
X160375905Y-45969055D01*
X160388692Y-45968672D01*
X160431801Y-45971176D01*
X160493456Y-45977462D01*
X160517362Y-45980433D01*
X160576078Y-45985028D01*
X160615536Y-45975046D01*
X160654662Y-45944228D01*
X160668785Y-45930363D01*
X160730615Y-45868533D01*
X160730615Y-45213503D01*
X160680850Y-45190829D01*
X160637998Y-45174034D01*
X160612927Y-45168154D01*
X160606499Y-45186736D01*
X160600491Y-45238655D01*
X160595303Y-45318172D01*
X160591336Y-45419546D01*
X160589423Y-45505192D01*
X160584077Y-45842231D01*
X160537440Y-45848825D01*
X160495024Y-45844214D01*
X160474240Y-45829287D01*
X160468430Y-45801377D01*
X160463470Y-45741925D01*
X160459754Y-45658466D01*
X160457676Y-45558532D01*
X160457376Y-45507104D01*
X160457077Y-45211054D01*
X160395546Y-45189604D01*
X160351996Y-45175020D01*
X160328306Y-45168219D01*
X160327623Y-45168154D01*
X160325246Y-45186642D01*
X160322634Y-45237906D01*
X160320005Y-45315649D01*
X160317579Y-45413574D01*
X160315885Y-45505192D01*
X160310539Y-45842231D01*
X160193308Y-45842231D01*
X160187928Y-45534746D01*
X160182549Y-45227261D01*
X160125399Y-45197707D01*
X160083203Y-45177413D01*
X160058230Y-45168204D01*
X160057509Y-45168154D01*
X160054071Y-45186662D01*
G36*
X160847919Y-45330289D02*
G01*
X160848167Y-45476320D01*
X160849128Y-45588655D01*
X160851206Y-45672678D01*
X160854807Y-45733769D01*
X160860335Y-45777309D01*
X160868196Y-45808679D01*
X160878793Y-45833262D01*
X160886818Y-45847294D01*
X160953272Y-45923388D01*
X161037530Y-45971084D01*
X161130751Y-45988199D01*
X161224100Y-45972546D01*
X161279688Y-45944418D01*
X161338043Y-45895760D01*
X161377814Y-45836333D01*
X161401810Y-45758507D01*
X161412839Y-45654652D01*
X161414401Y-45578462D01*
X161414191Y-45572986D01*
X161277692Y-45572986D01*
X161276859Y-45660355D01*
X161273039Y-45718192D01*
X161264254Y-45756029D01*
X161248526Y-45783398D01*
X161229734Y-45804042D01*
X161166625Y-45843890D01*
X161098863Y-45847295D01*
X161034821Y-45814025D01*
X161029836Y-45809517D01*
X161008561Y-45786067D01*
X160995221Y-45758166D01*
X160987999Y-45716641D01*
X160985077Y-45652316D01*
X160984615Y-45581200D01*
X160985617Y-45491858D01*
X160989762Y-45432258D01*
X160998764Y-45393089D01*
X161014333Y-45365040D01*
X161027098Y-45350144D01*
X161086400Y-45312575D01*
X161154699Y-45308057D01*
X161219890Y-45336753D01*
X161232472Y-45347406D01*
X161253889Y-45371063D01*
X161267256Y-45399251D01*
X161274434Y-45441245D01*
X161277281Y-45506319D01*
X161277692Y-45572986D01*
X161414191Y-45572986D01*
X161409678Y-45455765D01*
X161393638Y-45363577D01*
X161363472Y-45294269D01*
X161316371Y-45240211D01*
X161279688Y-45212505D01*
X161213010Y-45182572D01*
X161135728Y-45168678D01*
X161063890Y-45172397D01*
X161023692Y-45187400D01*
X161007918Y-45191670D01*
X160997450Y-45175750D01*
X160990144Y-45133089D01*
X160984615Y-45068106D01*
X160978563Y-44995732D01*
X160970156Y-44952187D01*
X160954859Y-44927287D01*
X160928136Y-44910845D01*
X160911346Y-44903564D01*
X160847846Y-44876963D01*
X160847919Y-45330289D01*
X160847919Y-45330289D01*
G37*
X160847919Y-45330289D02*
X160848167Y-45476320D01*
X160849128Y-45588655D01*
X160851206Y-45672678D01*
X160854807Y-45733769D01*
X160860335Y-45777309D01*
X160868196Y-45808679D01*
X160878793Y-45833262D01*
X160886818Y-45847294D01*
X160953272Y-45923388D01*
X161037530Y-45971084D01*
X161130751Y-45988199D01*
X161224100Y-45972546D01*
X161279688Y-45944418D01*
X161338043Y-45895760D01*
X161377814Y-45836333D01*
X161401810Y-45758507D01*
X161412839Y-45654652D01*
X161414401Y-45578462D01*
X161414191Y-45572986D01*
X161277692Y-45572986D01*
X161276859Y-45660355D01*
X161273039Y-45718192D01*
X161264254Y-45756029D01*
X161248526Y-45783398D01*
X161229734Y-45804042D01*
X161166625Y-45843890D01*
X161098863Y-45847295D01*
X161034821Y-45814025D01*
X161029836Y-45809517D01*
X161008561Y-45786067D01*
X160995221Y-45758166D01*
X160987999Y-45716641D01*
X160985077Y-45652316D01*
X160984615Y-45581200D01*
X160985617Y-45491858D01*
X160989762Y-45432258D01*
X160998764Y-45393089D01*
X161014333Y-45365040D01*
X161027098Y-45350144D01*
X161086400Y-45312575D01*
X161154699Y-45308057D01*
X161219890Y-45336753D01*
X161232472Y-45347406D01*
X161253889Y-45371063D01*
X161267256Y-45399251D01*
X161274434Y-45441245D01*
X161277281Y-45506319D01*
X161277692Y-45572986D01*
X161414191Y-45572986D01*
X161409678Y-45455765D01*
X161393638Y-45363577D01*
X161363472Y-45294269D01*
X161316371Y-45240211D01*
X161279688Y-45212505D01*
X161213010Y-45182572D01*
X161135728Y-45168678D01*
X161063890Y-45172397D01*
X161023692Y-45187400D01*
X161007918Y-45191670D01*
X160997450Y-45175750D01*
X160990144Y-45133089D01*
X160984615Y-45068106D01*
X160978563Y-44995732D01*
X160970156Y-44952187D01*
X160954859Y-44927287D01*
X160928136Y-44910845D01*
X160911346Y-44903564D01*
X160847846Y-44876963D01*
X160847919Y-45330289D01*
G36*
X161736638Y-45174670D02*
G01*
X161647883Y-45207421D01*
X161575978Y-45265350D01*
X161547856Y-45306128D01*
X161517198Y-45380954D01*
X161517835Y-45435058D01*
X161550013Y-45471446D01*
X161561919Y-45477633D01*
X161613325Y-45496925D01*
X161639578Y-45491982D01*
X161648470Y-45459587D01*
X161648923Y-45441692D01*
X161665203Y-45375859D01*
X161707635Y-45329807D01*
X161766612Y-45307564D01*
X161832525Y-45313161D01*
X161886105Y-45342229D01*
X161904202Y-45358810D01*
X161917029Y-45378925D01*
X161925694Y-45409332D01*
X161931304Y-45456788D01*
X161934965Y-45528050D01*
X161937785Y-45629875D01*
X161938516Y-45662115D01*
X161941180Y-45772410D01*
X161944208Y-45850036D01*
X161948750Y-45901396D01*
X161955954Y-45932890D01*
X161966967Y-45950920D01*
X161982940Y-45961888D01*
X161993166Y-45966733D01*
X162036594Y-45983301D01*
X162062158Y-45988769D01*
X162070605Y-45970507D01*
X162075761Y-45915296D01*
X162077654Y-45822499D01*
X162076311Y-45691478D01*
X162075893Y-45671269D01*
X162072942Y-45551733D01*
X162069452Y-45464449D01*
X162064486Y-45402591D01*
X162057107Y-45359336D01*
X162046376Y-45327860D01*
X162031355Y-45301339D01*
X162023498Y-45289975D01*
X161978447Y-45239692D01*
X161928060Y-45200581D01*
X161921892Y-45197167D01*
X161831542Y-45170212D01*
X161736638Y-45174670D01*
X161736638Y-45174670D01*
G37*
X161736638Y-45174670D02*
X161647883Y-45207421D01*
X161575978Y-45265350D01*
X161547856Y-45306128D01*
X161517198Y-45380954D01*
X161517835Y-45435058D01*
X161550013Y-45471446D01*
X161561919Y-45477633D01*
X161613325Y-45496925D01*
X161639578Y-45491982D01*
X161648470Y-45459587D01*
X161648923Y-45441692D01*
X161665203Y-45375859D01*
X161707635Y-45329807D01*
X161766612Y-45307564D01*
X161832525Y-45313161D01*
X161886105Y-45342229D01*
X161904202Y-45358810D01*
X161917029Y-45378925D01*
X161925694Y-45409332D01*
X161931304Y-45456788D01*
X161934965Y-45528050D01*
X161937785Y-45629875D01*
X161938516Y-45662115D01*
X161941180Y-45772410D01*
X161944208Y-45850036D01*
X161948750Y-45901396D01*
X161955954Y-45932890D01*
X161966967Y-45950920D01*
X161982940Y-45961888D01*
X161993166Y-45966733D01*
X162036594Y-45983301D01*
X162062158Y-45988769D01*
X162070605Y-45970507D01*
X162075761Y-45915296D01*
X162077654Y-45822499D01*
X162076311Y-45691478D01*
X162075893Y-45671269D01*
X162072942Y-45551733D01*
X162069452Y-45464449D01*
X162064486Y-45402591D01*
X162057107Y-45359336D01*
X162046376Y-45327860D01*
X162031355Y-45301339D01*
X162023498Y-45289975D01*
X161978447Y-45239692D01*
X161928060Y-45200581D01*
X161921892Y-45197167D01*
X161831542Y-45170212D01*
X161736638Y-45174670D01*
G36*
X162396499Y-45176303D02*
G01*
X162319940Y-45204733D01*
X162319064Y-45205279D01*
X162271715Y-45240127D01*
X162236759Y-45280852D01*
X162212175Y-45333925D01*
X162195938Y-45405814D01*
X162186025Y-45502992D01*
X162180414Y-45631928D01*
X162179923Y-45650298D01*
X162172859Y-45927287D01*
X162232305Y-45958028D01*
X162275319Y-45978802D01*
X162301290Y-45988646D01*
X162302491Y-45988769D01*
X162306986Y-45970606D01*
X162310556Y-45921612D01*
X162312752Y-45850031D01*
X162313231Y-45792068D01*
X162313242Y-45698170D01*
X162317534Y-45639203D01*
X162332497Y-45611079D01*
X162364518Y-45609706D01*
X162419986Y-45630998D01*
X162503731Y-45670136D01*
X162565311Y-45702643D01*
X162596983Y-45730845D01*
X162606294Y-45761582D01*
X162606308Y-45763104D01*
X162590943Y-45816054D01*
X162545453Y-45844660D01*
X162475834Y-45848803D01*
X162425687Y-45848084D01*
X162399246Y-45862527D01*
X162382757Y-45897218D01*
X162373267Y-45941416D01*
X162386943Y-45966493D01*
X162392093Y-45970082D01*
X162440575Y-45984496D01*
X162508469Y-45986537D01*
X162578388Y-45976983D01*
X162627932Y-45959522D01*
X162696430Y-45901364D01*
X162735366Y-45820408D01*
X162743077Y-45757160D01*
X162737193Y-45700111D01*
X162715899Y-45653542D01*
X162673735Y-45612181D01*
X162605241Y-45570755D01*
X162504956Y-45523993D01*
X162498846Y-45521350D01*
X162408510Y-45479617D01*
X162352765Y-45445391D01*
X162328871Y-45414635D01*
X162334087Y-45383311D01*
X162365672Y-45347383D01*
X162375117Y-45339116D01*
X162438383Y-45307058D01*
X162503936Y-45308407D01*
X162561028Y-45339838D01*
X162598907Y-45398024D01*
X162602426Y-45409446D01*
X162636700Y-45464837D01*
X162680191Y-45491518D01*
X162743077Y-45517960D01*
X162743077Y-45449548D01*
X162723948Y-45350110D01*
X162667169Y-45258902D01*
X162637622Y-45228389D01*
X162570458Y-45189228D01*
X162485044Y-45171500D01*
X162396499Y-45176303D01*
X162396499Y-45176303D01*
G37*
X162396499Y-45176303D02*
X162319940Y-45204733D01*
X162319064Y-45205279D01*
X162271715Y-45240127D01*
X162236759Y-45280852D01*
X162212175Y-45333925D01*
X162195938Y-45405814D01*
X162186025Y-45502992D01*
X162180414Y-45631928D01*
X162179923Y-45650298D01*
X162172859Y-45927287D01*
X162232305Y-45958028D01*
X162275319Y-45978802D01*
X162301290Y-45988646D01*
X162302491Y-45988769D01*
X162306986Y-45970606D01*
X162310556Y-45921612D01*
X162312752Y-45850031D01*
X162313231Y-45792068D01*
X162313242Y-45698170D01*
X162317534Y-45639203D01*
X162332497Y-45611079D01*
X162364518Y-45609706D01*
X162419986Y-45630998D01*
X162503731Y-45670136D01*
X162565311Y-45702643D01*
X162596983Y-45730845D01*
X162606294Y-45761582D01*
X162606308Y-45763104D01*
X162590943Y-45816054D01*
X162545453Y-45844660D01*
X162475834Y-45848803D01*
X162425687Y-45848084D01*
X162399246Y-45862527D01*
X162382757Y-45897218D01*
X162373267Y-45941416D01*
X162386943Y-45966493D01*
X162392093Y-45970082D01*
X162440575Y-45984496D01*
X162508469Y-45986537D01*
X162578388Y-45976983D01*
X162627932Y-45959522D01*
X162696430Y-45901364D01*
X162735366Y-45820408D01*
X162743077Y-45757160D01*
X162737193Y-45700111D01*
X162715899Y-45653542D01*
X162673735Y-45612181D01*
X162605241Y-45570755D01*
X162504956Y-45523993D01*
X162498846Y-45521350D01*
X162408510Y-45479617D01*
X162352765Y-45445391D01*
X162328871Y-45414635D01*
X162334087Y-45383311D01*
X162365672Y-45347383D01*
X162375117Y-45339116D01*
X162438383Y-45307058D01*
X162503936Y-45308407D01*
X162561028Y-45339838D01*
X162598907Y-45398024D01*
X162602426Y-45409446D01*
X162636700Y-45464837D01*
X162680191Y-45491518D01*
X162743077Y-45517960D01*
X162743077Y-45449548D01*
X162723948Y-45350110D01*
X162667169Y-45258902D01*
X162637622Y-45228389D01*
X162570458Y-45189228D01*
X162485044Y-45171500D01*
X162396499Y-45176303D01*
G36*
X163290154Y-45042120D02*
G01*
X163284428Y-45121980D01*
X163277851Y-45169039D01*
X163268738Y-45189566D01*
X163255402Y-45189829D01*
X163251077Y-45187378D01*
X163193556Y-45169636D01*
X163118732Y-45170672D01*
X163042661Y-45188910D01*
X162995082Y-45212505D01*
X162946298Y-45250198D01*
X162910636Y-45292855D01*
X162886155Y-45347057D01*
X162870913Y-45419384D01*
X162862970Y-45516419D01*
X162860384Y-45644742D01*
X162860338Y-45669358D01*
X162860308Y-45945870D01*
X162921839Y-45967320D01*
X162965541Y-45981912D01*
X162989518Y-45988706D01*
X162990223Y-45988769D01*
X162992585Y-45970345D01*
X162994594Y-45919526D01*
X162996099Y-45842993D01*
X162996947Y-45747430D01*
X162997077Y-45689329D01*
X162997349Y-45574771D01*
X162998748Y-45492667D01*
X163002151Y-45436393D01*
X163008433Y-45399326D01*
X163018471Y-45374844D01*
X163033139Y-45356325D01*
X163042298Y-45347406D01*
X163105211Y-45311466D01*
X163173864Y-45308775D01*
X163236152Y-45339170D01*
X163247671Y-45350144D01*
X163264567Y-45370779D01*
X163276286Y-45395256D01*
X163283767Y-45430647D01*
X163287946Y-45484026D01*
X163289763Y-45562466D01*
X163290154Y-45670617D01*
X163290154Y-45945870D01*
X163351685Y-45967320D01*
X163395387Y-45981912D01*
X163419364Y-45988706D01*
X163420070Y-45988769D01*
X163421874Y-45970069D01*
X163423500Y-45917322D01*
X163424883Y-45835557D01*
X163425958Y-45729805D01*
X163426660Y-45605094D01*
X163426923Y-45466455D01*
X163426923Y-44931806D01*
X163299923Y-44878236D01*
X163290154Y-45042120D01*
X163290154Y-45042120D01*
G37*
X163290154Y-45042120D02*
X163284428Y-45121980D01*
X163277851Y-45169039D01*
X163268738Y-45189566D01*
X163255402Y-45189829D01*
X163251077Y-45187378D01*
X163193556Y-45169636D01*
X163118732Y-45170672D01*
X163042661Y-45188910D01*
X162995082Y-45212505D01*
X162946298Y-45250198D01*
X162910636Y-45292855D01*
X162886155Y-45347057D01*
X162870913Y-45419384D01*
X162862970Y-45516419D01*
X162860384Y-45644742D01*
X162860338Y-45669358D01*
X162860308Y-45945870D01*
X162921839Y-45967320D01*
X162965541Y-45981912D01*
X162989518Y-45988706D01*
X162990223Y-45988769D01*
X162992585Y-45970345D01*
X162994594Y-45919526D01*
X162996099Y-45842993D01*
X162996947Y-45747430D01*
X162997077Y-45689329D01*
X162997349Y-45574771D01*
X162998748Y-45492667D01*
X163002151Y-45436393D01*
X163008433Y-45399326D01*
X163018471Y-45374844D01*
X163033139Y-45356325D01*
X163042298Y-45347406D01*
X163105211Y-45311466D01*
X163173864Y-45308775D01*
X163236152Y-45339170D01*
X163247671Y-45350144D01*
X163264567Y-45370779D01*
X163276286Y-45395256D01*
X163283767Y-45430647D01*
X163287946Y-45484026D01*
X163289763Y-45562466D01*
X163290154Y-45670617D01*
X163290154Y-45945870D01*
X163351685Y-45967320D01*
X163395387Y-45981912D01*
X163419364Y-45988706D01*
X163420070Y-45988769D01*
X163421874Y-45970069D01*
X163423500Y-45917322D01*
X163424883Y-45835557D01*
X163425958Y-45729805D01*
X163426660Y-45605094D01*
X163426923Y-45466455D01*
X163426923Y-44931806D01*
X163299923Y-44878236D01*
X163290154Y-45042120D01*
G36*
X164915746Y-45149745D02*
G01*
X164838714Y-45201567D01*
X164779184Y-45276412D01*
X164743622Y-45371654D01*
X164736429Y-45441756D01*
X164737246Y-45471009D01*
X164744086Y-45493407D01*
X164762888Y-45513474D01*
X164799592Y-45535733D01*
X164860138Y-45564709D01*
X164950466Y-45604927D01*
X164950923Y-45605129D01*
X165034067Y-45643210D01*
X165102247Y-45677025D01*
X165148495Y-45702933D01*
X165165842Y-45717295D01*
X165165846Y-45717411D01*
X165150557Y-45748685D01*
X165114804Y-45783157D01*
X165073758Y-45807990D01*
X165052963Y-45812923D01*
X164996230Y-45795862D01*
X164947373Y-45753133D01*
X164923535Y-45706155D01*
X164900603Y-45671522D01*
X164855682Y-45632081D01*
X164802877Y-45598009D01*
X164756290Y-45579480D01*
X164746548Y-45578462D01*
X164735582Y-45595215D01*
X164734921Y-45638039D01*
X164742980Y-45695781D01*
X164758173Y-45757289D01*
X164778914Y-45811409D01*
X164779962Y-45813510D01*
X164842379Y-45900660D01*
X164923274Y-45959939D01*
X165015144Y-45989034D01*
X165110487Y-45985634D01*
X165201802Y-45947428D01*
X165205862Y-45944741D01*
X165277694Y-45879642D01*
X165324927Y-45794705D01*
X165351066Y-45683021D01*
X165354574Y-45651643D01*
X165360787Y-45503536D01*
X165353339Y-45434468D01*
X165165846Y-45434468D01*
X165163410Y-45477552D01*
X165150086Y-45490126D01*
X165116868Y-45480719D01*
X165064506Y-45458483D01*
X165005976Y-45430610D01*
X165004521Y-45429872D01*
X164954911Y-45403777D01*
X164935000Y-45386363D01*
X164939910Y-45368107D01*
X164960584Y-45344120D01*
X165013181Y-45309406D01*
X165069823Y-45306856D01*
X165120631Y-45332119D01*
X165155724Y-45380847D01*
X165165846Y-45434468D01*
X165353339Y-45434468D01*
X165348008Y-45385036D01*
X165315222Y-45291055D01*
X165269579Y-45225215D01*
X165187198Y-45158681D01*
X165096454Y-45125676D01*
X165003815Y-45123573D01*
X164915746Y-45149745D01*
X164915746Y-45149745D01*
G37*
X164915746Y-45149745D02*
X164838714Y-45201567D01*
X164779184Y-45276412D01*
X164743622Y-45371654D01*
X164736429Y-45441756D01*
X164737246Y-45471009D01*
X164744086Y-45493407D01*
X164762888Y-45513474D01*
X164799592Y-45535733D01*
X164860138Y-45564709D01*
X164950466Y-45604927D01*
X164950923Y-45605129D01*
X165034067Y-45643210D01*
X165102247Y-45677025D01*
X165148495Y-45702933D01*
X165165842Y-45717295D01*
X165165846Y-45717411D01*
X165150557Y-45748685D01*
X165114804Y-45783157D01*
X165073758Y-45807990D01*
X165052963Y-45812923D01*
X164996230Y-45795862D01*
X164947373Y-45753133D01*
X164923535Y-45706155D01*
X164900603Y-45671522D01*
X164855682Y-45632081D01*
X164802877Y-45598009D01*
X164756290Y-45579480D01*
X164746548Y-45578462D01*
X164735582Y-45595215D01*
X164734921Y-45638039D01*
X164742980Y-45695781D01*
X164758173Y-45757289D01*
X164778914Y-45811409D01*
X164779962Y-45813510D01*
X164842379Y-45900660D01*
X164923274Y-45959939D01*
X165015144Y-45989034D01*
X165110487Y-45985634D01*
X165201802Y-45947428D01*
X165205862Y-45944741D01*
X165277694Y-45879642D01*
X165324927Y-45794705D01*
X165351066Y-45683021D01*
X165354574Y-45651643D01*
X165360787Y-45503536D01*
X165353339Y-45434468D01*
X165165846Y-45434468D01*
X165163410Y-45477552D01*
X165150086Y-45490126D01*
X165116868Y-45480719D01*
X165064506Y-45458483D01*
X165005976Y-45430610D01*
X165004521Y-45429872D01*
X164954911Y-45403777D01*
X164935000Y-45386363D01*
X164939910Y-45368107D01*
X164960584Y-45344120D01*
X165013181Y-45309406D01*
X165069823Y-45306856D01*
X165120631Y-45332119D01*
X165155724Y-45380847D01*
X165165846Y-45434468D01*
X165353339Y-45434468D01*
X165348008Y-45385036D01*
X165315222Y-45291055D01*
X165269579Y-45225215D01*
X165187198Y-45158681D01*
X165096454Y-45125676D01*
X165003815Y-45123573D01*
X164915746Y-45149745D01*
G36*
X166433114Y-45137256D02*
G01*
X166341536Y-45185409D01*
X166273951Y-45262905D01*
X166249943Y-45312727D01*
X166231262Y-45387533D01*
X166221699Y-45482052D01*
X166220792Y-45585210D01*
X166228079Y-45685935D01*
X166243097Y-45773153D01*
X166265385Y-45835791D01*
X166272235Y-45846579D01*
X166353368Y-45927105D01*
X166449734Y-45975336D01*
X166554299Y-45989450D01*
X166660032Y-45967629D01*
X166689457Y-45954547D01*
X166746759Y-45914231D01*
X166797050Y-45860775D01*
X166801803Y-45853995D01*
X166821122Y-45821321D01*
X166833892Y-45786394D01*
X166841436Y-45740414D01*
X166845076Y-45674584D01*
X166846135Y-45580105D01*
X166846154Y-45558923D01*
X166846106Y-45552182D01*
X166650769Y-45552182D01*
X166649632Y-45641349D01*
X166645159Y-45700520D01*
X166635754Y-45738741D01*
X166619824Y-45765053D01*
X166611692Y-45773846D01*
X166564942Y-45807261D01*
X166519553Y-45805737D01*
X166473660Y-45776752D01*
X166446288Y-45745809D01*
X166430077Y-45700643D01*
X166420974Y-45629420D01*
X166420349Y-45621114D01*
X166418796Y-45492037D01*
X166435035Y-45396172D01*
X166468848Y-45334107D01*
X166520016Y-45306432D01*
X166538280Y-45304923D01*
X166586240Y-45312513D01*
X166619047Y-45338808D01*
X166639105Y-45389095D01*
X166648822Y-45468664D01*
X166650769Y-45552182D01*
X166846106Y-45552182D01*
X166845426Y-45458249D01*
X166842371Y-45387906D01*
X166835678Y-45339163D01*
X166824040Y-45303288D01*
X166806147Y-45271548D01*
X166802192Y-45265648D01*
X166735733Y-45186104D01*
X166663315Y-45139929D01*
X166575151Y-45121599D01*
X166545213Y-45120703D01*
X166433114Y-45137256D01*
X166433114Y-45137256D01*
G37*
X166433114Y-45137256D02*
X166341536Y-45185409D01*
X166273951Y-45262905D01*
X166249943Y-45312727D01*
X166231262Y-45387533D01*
X166221699Y-45482052D01*
X166220792Y-45585210D01*
X166228079Y-45685935D01*
X166243097Y-45773153D01*
X166265385Y-45835791D01*
X166272235Y-45846579D01*
X166353368Y-45927105D01*
X166449734Y-45975336D01*
X166554299Y-45989450D01*
X166660032Y-45967629D01*
X166689457Y-45954547D01*
X166746759Y-45914231D01*
X166797050Y-45860775D01*
X166801803Y-45853995D01*
X166821122Y-45821321D01*
X166833892Y-45786394D01*
X166841436Y-45740414D01*
X166845076Y-45674584D01*
X166846135Y-45580105D01*
X166846154Y-45558923D01*
X166846106Y-45552182D01*
X166650769Y-45552182D01*
X166649632Y-45641349D01*
X166645159Y-45700520D01*
X166635754Y-45738741D01*
X166619824Y-45765053D01*
X166611692Y-45773846D01*
X166564942Y-45807261D01*
X166519553Y-45805737D01*
X166473660Y-45776752D01*
X166446288Y-45745809D01*
X166430077Y-45700643D01*
X166420974Y-45629420D01*
X166420349Y-45621114D01*
X166418796Y-45492037D01*
X166435035Y-45396172D01*
X166468848Y-45334107D01*
X166520016Y-45306432D01*
X166538280Y-45304923D01*
X166586240Y-45312513D01*
X166619047Y-45338808D01*
X166639105Y-45389095D01*
X166648822Y-45468664D01*
X166650769Y-45552182D01*
X166846106Y-45552182D01*
X166845426Y-45458249D01*
X166842371Y-45387906D01*
X166835678Y-45339163D01*
X166824040Y-45303288D01*
X166806147Y-45271548D01*
X166802192Y-45265648D01*
X166735733Y-45186104D01*
X166663315Y-45139929D01*
X166575151Y-45121599D01*
X166545213Y-45120703D01*
X166433114Y-45137256D01*
G36*
X164178336Y-45145089D02*
G01*
X164115633Y-45181358D01*
X164072039Y-45217358D01*
X164040155Y-45255075D01*
X164018190Y-45301199D01*
X164004351Y-45362421D01*
X163996847Y-45445431D01*
X163993883Y-45556919D01*
X163993539Y-45637062D01*
X163993539Y-45932065D01*
X164159615Y-46006515D01*
X164169385Y-45683402D01*
X164173421Y-45562729D01*
X164177656Y-45475141D01*
X164182903Y-45414650D01*
X164189975Y-45375268D01*
X164199689Y-45351007D01*
X164212856Y-45335880D01*
X164217081Y-45332606D01*
X164281091Y-45307034D01*
X164345792Y-45317153D01*
X164384308Y-45344000D01*
X164399975Y-45363024D01*
X164410820Y-45387988D01*
X164417712Y-45425834D01*
X164421521Y-45483502D01*
X164423117Y-45567935D01*
X164423385Y-45655928D01*
X164423437Y-45766323D01*
X164425328Y-45844463D01*
X164431655Y-45897165D01*
X164445017Y-45931242D01*
X164468015Y-45953511D01*
X164503246Y-45970787D01*
X164550303Y-45988738D01*
X164601697Y-46008278D01*
X164595579Y-45661485D01*
X164593116Y-45536468D01*
X164590233Y-45444082D01*
X164586102Y-45377881D01*
X164579893Y-45331420D01*
X164570774Y-45298256D01*
X164557917Y-45271944D01*
X164542416Y-45248729D01*
X164467629Y-45174569D01*
X164376372Y-45131684D01*
X164277117Y-45121412D01*
X164178336Y-45145089D01*
X164178336Y-45145089D01*
G37*
X164178336Y-45145089D02*
X164115633Y-45181358D01*
X164072039Y-45217358D01*
X164040155Y-45255075D01*
X164018190Y-45301199D01*
X164004351Y-45362421D01*
X163996847Y-45445431D01*
X163993883Y-45556919D01*
X163993539Y-45637062D01*
X163993539Y-45932065D01*
X164159615Y-46006515D01*
X164169385Y-45683402D01*
X164173421Y-45562729D01*
X164177656Y-45475141D01*
X164182903Y-45414650D01*
X164189975Y-45375268D01*
X164199689Y-45351007D01*
X164212856Y-45335880D01*
X164217081Y-45332606D01*
X164281091Y-45307034D01*
X164345792Y-45317153D01*
X164384308Y-45344000D01*
X164399975Y-45363024D01*
X164410820Y-45387988D01*
X164417712Y-45425834D01*
X164421521Y-45483502D01*
X164423117Y-45567935D01*
X164423385Y-45655928D01*
X164423437Y-45766323D01*
X164425328Y-45844463D01*
X164431655Y-45897165D01*
X164445017Y-45931242D01*
X164468015Y-45953511D01*
X164503246Y-45970787D01*
X164550303Y-45988738D01*
X164601697Y-46008278D01*
X164595579Y-45661485D01*
X164593116Y-45536468D01*
X164590233Y-45444082D01*
X164586102Y-45377881D01*
X164579893Y-45331420D01*
X164570774Y-45298256D01*
X164557917Y-45271944D01*
X164542416Y-45248729D01*
X164467629Y-45174569D01*
X164376372Y-45131684D01*
X164277117Y-45121412D01*
X164178336Y-45145089D01*
G36*
X165681114Y-45134505D02*
G01*
X165606461Y-45171727D01*
X165540569Y-45240261D01*
X165522423Y-45265648D01*
X165502655Y-45298866D01*
X165489828Y-45334945D01*
X165482490Y-45383098D01*
X165479187Y-45452536D01*
X165478462Y-45544206D01*
X165481737Y-45669830D01*
X165493123Y-45764154D01*
X165514959Y-45834523D01*
X165549581Y-45888286D01*
X165599330Y-45932788D01*
X165602986Y-45935423D01*
X165652015Y-45962377D01*
X165711055Y-45975712D01*
X165786141Y-45979000D01*
X165908205Y-45979000D01*
X165908256Y-46097497D01*
X165909392Y-46163492D01*
X165916314Y-46202202D01*
X165934402Y-46225419D01*
X165969038Y-46244933D01*
X165977355Y-46248920D01*
X166016280Y-46267603D01*
X166046417Y-46279403D01*
X166068826Y-46280422D01*
X166084567Y-46266761D01*
X166094698Y-46234522D01*
X166100277Y-46179804D01*
X166102365Y-46098711D01*
X166102019Y-45987344D01*
X166100300Y-45841802D01*
X166099763Y-45798269D01*
X166097828Y-45648205D01*
X166096096Y-45550042D01*
X165908308Y-45550042D01*
X165907252Y-45633364D01*
X165902562Y-45687880D01*
X165891949Y-45723837D01*
X165873128Y-45751482D01*
X165860350Y-45764965D01*
X165808110Y-45804417D01*
X165761858Y-45807628D01*
X165714133Y-45775049D01*
X165712923Y-45773846D01*
X165693506Y-45748668D01*
X165681693Y-45714447D01*
X165675735Y-45661748D01*
X165673880Y-45581131D01*
X165673846Y-45563271D01*
X165678330Y-45452175D01*
X165692926Y-45375161D01*
X165719350Y-45328147D01*
X165759317Y-45307050D01*
X165782416Y-45304923D01*
X165837238Y-45314900D01*
X165874842Y-45347752D01*
X165897477Y-45407857D01*
X165907394Y-45499598D01*
X165908308Y-45550042D01*
X166096096Y-45550042D01*
X166095778Y-45532060D01*
X166093127Y-45444679D01*
X166089394Y-45380905D01*
X166084093Y-45335582D01*
X166076742Y-45303555D01*
X166066857Y-45279668D01*
X166053954Y-45258764D01*
X166048421Y-45250898D01*
X165975031Y-45176595D01*
X165882240Y-45134467D01*
X165774904Y-45122722D01*
X165681114Y-45134505D01*
X165681114Y-45134505D01*
G37*
X165681114Y-45134505D02*
X165606461Y-45171727D01*
X165540569Y-45240261D01*
X165522423Y-45265648D01*
X165502655Y-45298866D01*
X165489828Y-45334945D01*
X165482490Y-45383098D01*
X165479187Y-45452536D01*
X165478462Y-45544206D01*
X165481737Y-45669830D01*
X165493123Y-45764154D01*
X165514959Y-45834523D01*
X165549581Y-45888286D01*
X165599330Y-45932788D01*
X165602986Y-45935423D01*
X165652015Y-45962377D01*
X165711055Y-45975712D01*
X165786141Y-45979000D01*
X165908205Y-45979000D01*
X165908256Y-46097497D01*
X165909392Y-46163492D01*
X165916314Y-46202202D01*
X165934402Y-46225419D01*
X165969038Y-46244933D01*
X165977355Y-46248920D01*
X166016280Y-46267603D01*
X166046417Y-46279403D01*
X166068826Y-46280422D01*
X166084567Y-46266761D01*
X166094698Y-46234522D01*
X166100277Y-46179804D01*
X166102365Y-46098711D01*
X166102019Y-45987344D01*
X166100300Y-45841802D01*
X166099763Y-45798269D01*
X166097828Y-45648205D01*
X166096096Y-45550042D01*
X165908308Y-45550042D01*
X165907252Y-45633364D01*
X165902562Y-45687880D01*
X165891949Y-45723837D01*
X165873128Y-45751482D01*
X165860350Y-45764965D01*
X165808110Y-45804417D01*
X165761858Y-45807628D01*
X165714133Y-45775049D01*
X165712923Y-45773846D01*
X165693506Y-45748668D01*
X165681693Y-45714447D01*
X165675735Y-45661748D01*
X165673880Y-45581131D01*
X165673846Y-45563271D01*
X165678330Y-45452175D01*
X165692926Y-45375161D01*
X165719350Y-45328147D01*
X165759317Y-45307050D01*
X165782416Y-45304923D01*
X165837238Y-45314900D01*
X165874842Y-45347752D01*
X165897477Y-45407857D01*
X165907394Y-45499598D01*
X165908308Y-45550042D01*
X166096096Y-45550042D01*
X166095778Y-45532060D01*
X166093127Y-45444679D01*
X166089394Y-45380905D01*
X166084093Y-45335582D01*
X166076742Y-45303555D01*
X166066857Y-45279668D01*
X166053954Y-45258764D01*
X166048421Y-45250898D01*
X165975031Y-45176595D01*
X165882240Y-45134467D01*
X165774904Y-45122722D01*
X165681114Y-45134505D01*
G36*
X149473043Y-39326571D02*
G01*
X149376768Y-39350809D01*
X149290184Y-39393641D01*
X149215373Y-39453419D01*
X149154418Y-39528494D01*
X149109399Y-39617220D01*
X149083136Y-39713530D01*
X149077286Y-39810795D01*
X149092140Y-39904654D01*
X149125840Y-39992511D01*
X149176528Y-40071770D01*
X149242345Y-40139836D01*
X149321434Y-40194112D01*
X149411934Y-40232002D01*
X149463200Y-40244426D01*
X149507698Y-40251947D01*
X149541999Y-40254919D01*
X149574960Y-40253094D01*
X149615434Y-40246225D01*
X149648531Y-40239250D01*
X149741947Y-40207741D01*
X149825619Y-40156617D01*
X149897665Y-40087429D01*
X149956200Y-40001728D01*
X149970148Y-39974489D01*
X149986586Y-39938122D01*
X149996894Y-39907582D01*
X150002460Y-39875450D01*
X150004669Y-39834307D01*
X150004948Y-39788222D01*
X150000861Y-39703865D01*
X149987446Y-39634586D01*
X149962256Y-39573961D01*
X149922846Y-39515567D01*
X149884298Y-39471302D01*
X149812406Y-39405484D01*
X149737313Y-39360053D01*
X149654562Y-39332850D01*
X149576928Y-39322576D01*
X149473043Y-39326571D01*
X149473043Y-39326571D01*
G37*
X149473043Y-39326571D02*
X149376768Y-39350809D01*
X149290184Y-39393641D01*
X149215373Y-39453419D01*
X149154418Y-39528494D01*
X149109399Y-39617220D01*
X149083136Y-39713530D01*
X149077286Y-39810795D01*
X149092140Y-39904654D01*
X149125840Y-39992511D01*
X149176528Y-40071770D01*
X149242345Y-40139836D01*
X149321434Y-40194112D01*
X149411934Y-40232002D01*
X149463200Y-40244426D01*
X149507698Y-40251947D01*
X149541999Y-40254919D01*
X149574960Y-40253094D01*
X149615434Y-40246225D01*
X149648531Y-40239250D01*
X149741947Y-40207741D01*
X149825619Y-40156617D01*
X149897665Y-40087429D01*
X149956200Y-40001728D01*
X149970148Y-39974489D01*
X149986586Y-39938122D01*
X149996894Y-39907582D01*
X150002460Y-39875450D01*
X150004669Y-39834307D01*
X150004948Y-39788222D01*
X150000861Y-39703865D01*
X149987446Y-39634586D01*
X149962256Y-39573961D01*
X149922846Y-39515567D01*
X149884298Y-39471302D01*
X149812406Y-39405484D01*
X149737313Y-39360053D01*
X149654562Y-39332850D01*
X149576928Y-39322576D01*
X149473043Y-39326571D01*
G36*
X141013493Y-41772245D02*
G01*
X141013474Y-42006662D01*
X141013448Y-42219603D01*
X141013375Y-42412168D01*
X141013218Y-42585459D01*
X141012936Y-42740576D01*
X141012491Y-42878620D01*
X141011844Y-43000692D01*
X141010955Y-43107894D01*
X141009787Y-43201326D01*
X141008299Y-43282090D01*
X141006454Y-43351286D01*
X141004211Y-43410015D01*
X141001531Y-43459379D01*
X140998377Y-43500478D01*
X140994708Y-43534413D01*
X140990487Y-43562286D01*
X140985673Y-43585198D01*
X140980227Y-43604249D01*
X140974112Y-43620540D01*
X140967288Y-43635173D01*
X140959715Y-43649249D01*
X140951355Y-43663868D01*
X140946161Y-43672974D01*
X140911896Y-43733689D01*
X141770045Y-43733689D01*
X141770045Y-43637733D01*
X141770776Y-43594370D01*
X141772728Y-43561205D01*
X141775537Y-43543424D01*
X141776779Y-43541778D01*
X141788201Y-43548662D01*
X141810916Y-43566505D01*
X141833615Y-43585879D01*
X141888200Y-43626614D01*
X141957679Y-43667617D01*
X142034730Y-43705123D01*
X142112035Y-43735364D01*
X142142887Y-43745012D01*
X142211384Y-43759578D01*
X142294236Y-43769539D01*
X142383629Y-43774583D01*
X142471752Y-43774396D01*
X142550793Y-43768666D01*
X142588489Y-43762858D01*
X142726586Y-43724797D01*
X142853887Y-43667073D01*
X142969708Y-43590211D01*
X143073363Y-43494739D01*
X143164167Y-43381179D01*
X143230969Y-43270381D01*
X143285836Y-43153625D01*
X143327837Y-43034276D01*
X143357833Y-42908283D01*
X143376689Y-42771594D01*
X143385268Y-42620158D01*
X143385994Y-42542711D01*
X143383900Y-42485934D01*
X142554783Y-42485934D01*
X142554576Y-42579002D01*
X142551663Y-42666692D01*
X142546000Y-42743772D01*
X142537545Y-42805009D01*
X142534962Y-42817350D01*
X142503160Y-42924633D01*
X142461502Y-43011658D01*
X142409637Y-43078642D01*
X142347219Y-43125805D01*
X142273900Y-43153365D01*
X142189331Y-43161541D01*
X142093165Y-43150551D01*
X142029689Y-43134829D01*
X141980546Y-43116639D01*
X141926417Y-43090791D01*
X141885756Y-43067089D01*
X141815200Y-43020721D01*
X141815200Y-41870530D01*
X141882608Y-41826962D01*
X141961133Y-41786040D01*
X142045319Y-41759389D01*
X142130443Y-41747465D01*
X142211784Y-41750722D01*
X142284620Y-41769615D01*
X142316574Y-41785184D01*
X142374499Y-41828181D01*
X142423456Y-41884953D01*
X142464610Y-41957575D01*
X142499126Y-42048121D01*
X142528167Y-42158666D01*
X142529448Y-42164533D01*
X142539619Y-42226788D01*
X142547261Y-42304594D01*
X142552330Y-42392720D01*
X142554783Y-42485934D01*
X143383900Y-42485934D01*
X143378143Y-42329895D01*
X143356198Y-42134059D01*
X143320214Y-41955332D01*
X143270241Y-41793845D01*
X143206332Y-41649726D01*
X143128538Y-41523106D01*
X143036911Y-41414115D01*
X142931503Y-41322883D01*
X142886338Y-41291932D01*
X142785389Y-41235785D01*
X142682099Y-41196174D01*
X142572011Y-41172014D01*
X142450670Y-41162219D01*
X142358164Y-41163265D01*
X142228510Y-41174231D01*
X142115916Y-41196046D01*
X142017125Y-41229714D01*
X141928879Y-41276236D01*
X141880014Y-41310448D01*
X141850647Y-41332362D01*
X141828957Y-41347333D01*
X141820747Y-41351733D01*
X141819132Y-41340904D01*
X141817841Y-41310251D01*
X141816862Y-41262526D01*
X141816183Y-41200479D01*
X141815790Y-41126862D01*
X141815670Y-41044427D01*
X141815812Y-40955925D01*
X141816203Y-40864107D01*
X141816829Y-40771724D01*
X141817680Y-40681528D01*
X141818740Y-40596271D01*
X141819999Y-40518703D01*
X141821444Y-40451576D01*
X141823062Y-40397641D01*
X141824839Y-40359650D01*
X141825331Y-40352667D01*
X141832908Y-40282251D01*
X141844469Y-40227102D01*
X141862208Y-40179981D01*
X141888318Y-40133647D01*
X141894585Y-40124067D01*
X141919017Y-40087378D01*
X141013689Y-40087378D01*
X141013493Y-41772245D01*
X141013493Y-41772245D01*
G37*
X141013493Y-41772245D02*
X141013474Y-42006662D01*
X141013448Y-42219603D01*
X141013375Y-42412168D01*
X141013218Y-42585459D01*
X141012936Y-42740576D01*
X141012491Y-42878620D01*
X141011844Y-43000692D01*
X141010955Y-43107894D01*
X141009787Y-43201326D01*
X141008299Y-43282090D01*
X141006454Y-43351286D01*
X141004211Y-43410015D01*
X141001531Y-43459379D01*
X140998377Y-43500478D01*
X140994708Y-43534413D01*
X140990487Y-43562286D01*
X140985673Y-43585198D01*
X140980227Y-43604249D01*
X140974112Y-43620540D01*
X140967288Y-43635173D01*
X140959715Y-43649249D01*
X140951355Y-43663868D01*
X140946161Y-43672974D01*
X140911896Y-43733689D01*
X141770045Y-43733689D01*
X141770045Y-43637733D01*
X141770776Y-43594370D01*
X141772728Y-43561205D01*
X141775537Y-43543424D01*
X141776779Y-43541778D01*
X141788201Y-43548662D01*
X141810916Y-43566505D01*
X141833615Y-43585879D01*
X141888200Y-43626614D01*
X141957679Y-43667617D01*
X142034730Y-43705123D01*
X142112035Y-43735364D01*
X142142887Y-43745012D01*
X142211384Y-43759578D01*
X142294236Y-43769539D01*
X142383629Y-43774583D01*
X142471752Y-43774396D01*
X142550793Y-43768666D01*
X142588489Y-43762858D01*
X142726586Y-43724797D01*
X142853887Y-43667073D01*
X142969708Y-43590211D01*
X143073363Y-43494739D01*
X143164167Y-43381179D01*
X143230969Y-43270381D01*
X143285836Y-43153625D01*
X143327837Y-43034276D01*
X143357833Y-42908283D01*
X143376689Y-42771594D01*
X143385268Y-42620158D01*
X143385994Y-42542711D01*
X143383900Y-42485934D01*
X142554783Y-42485934D01*
X142554576Y-42579002D01*
X142551663Y-42666692D01*
X142546000Y-42743772D01*
X142537545Y-42805009D01*
X142534962Y-42817350D01*
X142503160Y-42924633D01*
X142461502Y-43011658D01*
X142409637Y-43078642D01*
X142347219Y-43125805D01*
X142273900Y-43153365D01*
X142189331Y-43161541D01*
X142093165Y-43150551D01*
X142029689Y-43134829D01*
X141980546Y-43116639D01*
X141926417Y-43090791D01*
X141885756Y-43067089D01*
X141815200Y-43020721D01*
X141815200Y-41870530D01*
X141882608Y-41826962D01*
X141961133Y-41786040D01*
X142045319Y-41759389D01*
X142130443Y-41747465D01*
X142211784Y-41750722D01*
X142284620Y-41769615D01*
X142316574Y-41785184D01*
X142374499Y-41828181D01*
X142423456Y-41884953D01*
X142464610Y-41957575D01*
X142499126Y-42048121D01*
X142528167Y-42158666D01*
X142529448Y-42164533D01*
X142539619Y-42226788D01*
X142547261Y-42304594D01*
X142552330Y-42392720D01*
X142554783Y-42485934D01*
X143383900Y-42485934D01*
X143378143Y-42329895D01*
X143356198Y-42134059D01*
X143320214Y-41955332D01*
X143270241Y-41793845D01*
X143206332Y-41649726D01*
X143128538Y-41523106D01*
X143036911Y-41414115D01*
X142931503Y-41322883D01*
X142886338Y-41291932D01*
X142785389Y-41235785D01*
X142682099Y-41196174D01*
X142572011Y-41172014D01*
X142450670Y-41162219D01*
X142358164Y-41163265D01*
X142228510Y-41174231D01*
X142115916Y-41196046D01*
X142017125Y-41229714D01*
X141928879Y-41276236D01*
X141880014Y-41310448D01*
X141850647Y-41332362D01*
X141828957Y-41347333D01*
X141820747Y-41351733D01*
X141819132Y-41340904D01*
X141817841Y-41310251D01*
X141816862Y-41262526D01*
X141816183Y-41200479D01*
X141815790Y-41126862D01*
X141815670Y-41044427D01*
X141815812Y-40955925D01*
X141816203Y-40864107D01*
X141816829Y-40771724D01*
X141817680Y-40681528D01*
X141818740Y-40596271D01*
X141819999Y-40518703D01*
X141821444Y-40451576D01*
X141823062Y-40397641D01*
X141824839Y-40359650D01*
X141825331Y-40352667D01*
X141832908Y-40282251D01*
X141844469Y-40227102D01*
X141862208Y-40179981D01*
X141888318Y-40133647D01*
X141894585Y-40124067D01*
X141919017Y-40087378D01*
X141013689Y-40087378D01*
X141013493Y-41772245D01*
G36*
X144526426Y-41166552D02*
G01*
X144374508Y-41186567D01*
X144239244Y-41220202D01*
X144119761Y-41267725D01*
X144015185Y-41329405D01*
X143937576Y-41392965D01*
X143868735Y-41467099D01*
X143814994Y-41546871D01*
X143772090Y-41639091D01*
X143756616Y-41682161D01*
X143743756Y-41721142D01*
X143732554Y-41757289D01*
X143722880Y-41792434D01*
X143714604Y-41828410D01*
X143707597Y-41867050D01*
X143701728Y-41910185D01*
X143696869Y-41959649D01*
X143692890Y-42017273D01*
X143689660Y-42084891D01*
X143687051Y-42164334D01*
X143684933Y-42257436D01*
X143683176Y-42366027D01*
X143681651Y-42491942D01*
X143680228Y-42637012D01*
X143678975Y-42779778D01*
X143677649Y-42935968D01*
X143676444Y-43071239D01*
X143675234Y-43187246D01*
X143673894Y-43285645D01*
X143672300Y-43368093D01*
X143670325Y-43436246D01*
X143667844Y-43491760D01*
X143664731Y-43536292D01*
X143660862Y-43571498D01*
X143656111Y-43599034D01*
X143650352Y-43620556D01*
X143643461Y-43637722D01*
X143635311Y-43652186D01*
X143625777Y-43665606D01*
X143614734Y-43679638D01*
X143610434Y-43685071D01*
X143594614Y-43707910D01*
X143587578Y-43723463D01*
X143587556Y-43723922D01*
X143598433Y-43726121D01*
X143629418Y-43728147D01*
X143678043Y-43729942D01*
X143741837Y-43731451D01*
X143818331Y-43732616D01*
X143905056Y-43733380D01*
X143999543Y-43733686D01*
X144010450Y-43733689D01*
X144433343Y-43733689D01*
X144436605Y-43637622D01*
X144439867Y-43541556D01*
X144501956Y-43592543D01*
X144599286Y-43660057D01*
X144709187Y-43714749D01*
X144795651Y-43744978D01*
X144864722Y-43759666D01*
X144948075Y-43769659D01*
X145037841Y-43774646D01*
X145126155Y-43774313D01*
X145205149Y-43768351D01*
X145241378Y-43762638D01*
X145381397Y-43724776D01*
X145507822Y-43669932D01*
X145619740Y-43598924D01*
X145716238Y-43512568D01*
X145796400Y-43411679D01*
X145859313Y-43297076D01*
X145903688Y-43170984D01*
X145916022Y-43114401D01*
X145923632Y-43052202D01*
X145927261Y-42977363D01*
X145927755Y-42943467D01*
X145927690Y-42940282D01*
X145167752Y-42940282D01*
X145158459Y-43015333D01*
X145130272Y-43079160D01*
X145081803Y-43134798D01*
X145076746Y-43139211D01*
X145028452Y-43174037D01*
X144976743Y-43196620D01*
X144916011Y-43208540D01*
X144840648Y-43211383D01*
X144822541Y-43210978D01*
X144768722Y-43208325D01*
X144728692Y-43202909D01*
X144693676Y-43192745D01*
X144654897Y-43175850D01*
X144644255Y-43170672D01*
X144583604Y-43134844D01*
X144536785Y-43092212D01*
X144524048Y-43076973D01*
X144479378Y-43020462D01*
X144479378Y-42824586D01*
X144479914Y-42745939D01*
X144481604Y-42687988D01*
X144484572Y-42648875D01*
X144488943Y-42626741D01*
X144493028Y-42620274D01*
X144508953Y-42617111D01*
X144542736Y-42614488D01*
X144589660Y-42612655D01*
X144645007Y-42611857D01*
X144653894Y-42611842D01*
X144774670Y-42617096D01*
X144877340Y-42633263D01*
X144963894Y-42660961D01*
X145036319Y-42700808D01*
X145091249Y-42747758D01*
X145135796Y-42805645D01*
X145160520Y-42868693D01*
X145167752Y-42940282D01*
X145927690Y-42940282D01*
X145925822Y-42849712D01*
X145917478Y-42770812D01*
X145901232Y-42699590D01*
X145875595Y-42628864D01*
X145851599Y-42576493D01*
X145792980Y-42481196D01*
X145714883Y-42393170D01*
X145619685Y-42314017D01*
X145509762Y-42245340D01*
X145387490Y-42188741D01*
X145255245Y-42145821D01*
X145190578Y-42130882D01*
X145054396Y-42108777D01*
X144905951Y-42094194D01*
X144754495Y-42087813D01*
X144627936Y-42089445D01*
X144466050Y-42096224D01*
X144473470Y-42037245D01*
X144492762Y-41938092D01*
X144523896Y-41857372D01*
X144567731Y-41794466D01*
X144625129Y-41748756D01*
X144696952Y-41719622D01*
X144784059Y-41706447D01*
X144887314Y-41708611D01*
X144925289Y-41712612D01*
X145066480Y-41737780D01*
X145203293Y-41778814D01*
X145297822Y-41816815D01*
X145342982Y-41836190D01*
X145381415Y-41851760D01*
X145407766Y-41861405D01*
X145415454Y-41863452D01*
X145425198Y-41854374D01*
X145441917Y-41825405D01*
X145465768Y-41776217D01*
X145496907Y-41706484D01*
X145535493Y-41615879D01*
X145542090Y-41600089D01*
X145572147Y-41527772D01*
X145599126Y-41462425D01*
X145621864Y-41406906D01*
X145639194Y-41364072D01*
X145649952Y-41336781D01*
X145653059Y-41327942D01*
X145643060Y-41323187D01*
X145616783Y-41317910D01*
X145588511Y-41314231D01*
X145558354Y-41309474D01*
X145510567Y-41300028D01*
X145449388Y-41286820D01*
X145379054Y-41270776D01*
X145303806Y-41252820D01*
X145275245Y-41245797D01*
X145170184Y-41220209D01*
X145082520Y-41200147D01*
X145007932Y-41184969D01*
X144942097Y-41174035D01*
X144880693Y-41166704D01*
X144819398Y-41162335D01*
X144753890Y-41160287D01*
X144695872Y-41159889D01*
X144526426Y-41166552D01*
X144526426Y-41166552D01*
G37*
X144526426Y-41166552D02*
X144374508Y-41186567D01*
X144239244Y-41220202D01*
X144119761Y-41267725D01*
X144015185Y-41329405D01*
X143937576Y-41392965D01*
X143868735Y-41467099D01*
X143814994Y-41546871D01*
X143772090Y-41639091D01*
X143756616Y-41682161D01*
X143743756Y-41721142D01*
X143732554Y-41757289D01*
X143722880Y-41792434D01*
X143714604Y-41828410D01*
X143707597Y-41867050D01*
X143701728Y-41910185D01*
X143696869Y-41959649D01*
X143692890Y-42017273D01*
X143689660Y-42084891D01*
X143687051Y-42164334D01*
X143684933Y-42257436D01*
X143683176Y-42366027D01*
X143681651Y-42491942D01*
X143680228Y-42637012D01*
X143678975Y-42779778D01*
X143677649Y-42935968D01*
X143676444Y-43071239D01*
X143675234Y-43187246D01*
X143673894Y-43285645D01*
X143672300Y-43368093D01*
X143670325Y-43436246D01*
X143667844Y-43491760D01*
X143664731Y-43536292D01*
X143660862Y-43571498D01*
X143656111Y-43599034D01*
X143650352Y-43620556D01*
X143643461Y-43637722D01*
X143635311Y-43652186D01*
X143625777Y-43665606D01*
X143614734Y-43679638D01*
X143610434Y-43685071D01*
X143594614Y-43707910D01*
X143587578Y-43723463D01*
X143587556Y-43723922D01*
X143598433Y-43726121D01*
X143629418Y-43728147D01*
X143678043Y-43729942D01*
X143741837Y-43731451D01*
X143818331Y-43732616D01*
X143905056Y-43733380D01*
X143999543Y-43733686D01*
X144010450Y-43733689D01*
X144433343Y-43733689D01*
X144436605Y-43637622D01*
X144439867Y-43541556D01*
X144501956Y-43592543D01*
X144599286Y-43660057D01*
X144709187Y-43714749D01*
X144795651Y-43744978D01*
X144864722Y-43759666D01*
X144948075Y-43769659D01*
X145037841Y-43774646D01*
X145126155Y-43774313D01*
X145205149Y-43768351D01*
X145241378Y-43762638D01*
X145381397Y-43724776D01*
X145507822Y-43669932D01*
X145619740Y-43598924D01*
X145716238Y-43512568D01*
X145796400Y-43411679D01*
X145859313Y-43297076D01*
X145903688Y-43170984D01*
X145916022Y-43114401D01*
X145923632Y-43052202D01*
X145927261Y-42977363D01*
X145927755Y-42943467D01*
X145927690Y-42940282D01*
X145167752Y-42940282D01*
X145158459Y-43015333D01*
X145130272Y-43079160D01*
X145081803Y-43134798D01*
X145076746Y-43139211D01*
X145028452Y-43174037D01*
X144976743Y-43196620D01*
X144916011Y-43208540D01*
X144840648Y-43211383D01*
X144822541Y-43210978D01*
X144768722Y-43208325D01*
X144728692Y-43202909D01*
X144693676Y-43192745D01*
X144654897Y-43175850D01*
X144644255Y-43170672D01*
X144583604Y-43134844D01*
X144536785Y-43092212D01*
X144524048Y-43076973D01*
X144479378Y-43020462D01*
X144479378Y-42824586D01*
X144479914Y-42745939D01*
X144481604Y-42687988D01*
X144484572Y-42648875D01*
X144488943Y-42626741D01*
X144493028Y-42620274D01*
X144508953Y-42617111D01*
X144542736Y-42614488D01*
X144589660Y-42612655D01*
X144645007Y-42611857D01*
X144653894Y-42611842D01*
X144774670Y-42617096D01*
X144877340Y-42633263D01*
X144963894Y-42660961D01*
X145036319Y-42700808D01*
X145091249Y-42747758D01*
X145135796Y-42805645D01*
X145160520Y-42868693D01*
X145167752Y-42940282D01*
X145927690Y-42940282D01*
X145925822Y-42849712D01*
X145917478Y-42770812D01*
X145901232Y-42699590D01*
X145875595Y-42628864D01*
X145851599Y-42576493D01*
X145792980Y-42481196D01*
X145714883Y-42393170D01*
X145619685Y-42314017D01*
X145509762Y-42245340D01*
X145387490Y-42188741D01*
X145255245Y-42145821D01*
X145190578Y-42130882D01*
X145054396Y-42108777D01*
X144905951Y-42094194D01*
X144754495Y-42087813D01*
X144627936Y-42089445D01*
X144466050Y-42096224D01*
X144473470Y-42037245D01*
X144492762Y-41938092D01*
X144523896Y-41857372D01*
X144567731Y-41794466D01*
X144625129Y-41748756D01*
X144696952Y-41719622D01*
X144784059Y-41706447D01*
X144887314Y-41708611D01*
X144925289Y-41712612D01*
X145066480Y-41737780D01*
X145203293Y-41778814D01*
X145297822Y-41816815D01*
X145342982Y-41836190D01*
X145381415Y-41851760D01*
X145407766Y-41861405D01*
X145415454Y-41863452D01*
X145425198Y-41854374D01*
X145441917Y-41825405D01*
X145465768Y-41776217D01*
X145496907Y-41706484D01*
X145535493Y-41615879D01*
X145542090Y-41600089D01*
X145572147Y-41527772D01*
X145599126Y-41462425D01*
X145621864Y-41406906D01*
X145639194Y-41364072D01*
X145649952Y-41336781D01*
X145653059Y-41327942D01*
X145643060Y-41323187D01*
X145616783Y-41317910D01*
X145588511Y-41314231D01*
X145558354Y-41309474D01*
X145510567Y-41300028D01*
X145449388Y-41286820D01*
X145379054Y-41270776D01*
X145303806Y-41252820D01*
X145275245Y-41245797D01*
X145170184Y-41220209D01*
X145082520Y-41200147D01*
X145007932Y-41184969D01*
X144942097Y-41174035D01*
X144880693Y-41166704D01*
X144819398Y-41162335D01*
X144753890Y-41160287D01*
X144695872Y-41159889D01*
X144526426Y-41166552D01*
G36*
X146871571Y-40249071D02*
G01*
X146711430Y-40270245D01*
X146547490Y-40310385D01*
X146377687Y-40369889D01*
X146199957Y-40449154D01*
X146188690Y-40454699D01*
X146130995Y-40482725D01*
X146079448Y-40506802D01*
X146037809Y-40525249D01*
X146009838Y-40536386D01*
X146000267Y-40538933D01*
X145981050Y-40543941D01*
X145976439Y-40548147D01*
X145981542Y-40558580D01*
X145997582Y-40584868D01*
X146022712Y-40624257D01*
X146055086Y-40673991D01*
X146092857Y-40731315D01*
X146134178Y-40793476D01*
X146177202Y-40857718D01*
X146220083Y-40921285D01*
X146260974Y-40981425D01*
X146298029Y-41035380D01*
X146329400Y-41080397D01*
X146353241Y-41113721D01*
X146367706Y-41132597D01*
X146369691Y-41134787D01*
X146379809Y-41130138D01*
X146402150Y-41112962D01*
X146432720Y-41086440D01*
X146448464Y-41071964D01*
X146544953Y-40996682D01*
X146651664Y-40941241D01*
X146767168Y-40906141D01*
X146890038Y-40891880D01*
X146959439Y-40893051D01*
X147080577Y-40910212D01*
X147189795Y-40946094D01*
X147287418Y-41000959D01*
X147373772Y-41075070D01*
X147449185Y-41168688D01*
X147513982Y-41282076D01*
X147551399Y-41368667D01*
X147595252Y-41504366D01*
X147627572Y-41651850D01*
X147648443Y-41807314D01*
X147657949Y-41966956D01*
X147656173Y-42126973D01*
X147643197Y-42283561D01*
X147619106Y-42432918D01*
X147583982Y-42571240D01*
X147537908Y-42694724D01*
X147521627Y-42728978D01*
X147453380Y-42843064D01*
X147372921Y-42939557D01*
X147281430Y-43017670D01*
X147180089Y-43076617D01*
X147070080Y-43115612D01*
X146952585Y-43133868D01*
X146911117Y-43135211D01*
X146789559Y-43124290D01*
X146669122Y-43091474D01*
X146551334Y-43037439D01*
X146437723Y-42962865D01*
X146346315Y-42884539D01*
X146299785Y-42840008D01*
X146118517Y-43137271D01*
X146073420Y-43211433D01*
X146032181Y-43279646D01*
X145996265Y-43339459D01*
X145967134Y-43388420D01*
X145946250Y-43424079D01*
X145935076Y-43443984D01*
X145933625Y-43447079D01*
X145941854Y-43456718D01*
X145967433Y-43473999D01*
X146007127Y-43497283D01*
X146057703Y-43524934D01*
X146115926Y-43555315D01*
X146178563Y-43586790D01*
X146242379Y-43617722D01*
X146304140Y-43646473D01*
X146360612Y-43671408D01*
X146408562Y-43690889D01*
X146432014Y-43699318D01*
X146565779Y-43737133D01*
X146703673Y-43762136D01*
X146851378Y-43775140D01*
X146978167Y-43777468D01*
X147046122Y-43776373D01*
X147111723Y-43774275D01*
X147169153Y-43771434D01*
X147212597Y-43768106D01*
X147226702Y-43766422D01*
X147365716Y-43737587D01*
X147507243Y-43692468D01*
X147644725Y-43633750D01*
X147771606Y-43564120D01*
X147849111Y-43511441D01*
X147976519Y-43403239D01*
X148094822Y-43276671D01*
X148201828Y-43134866D01*
X148295348Y-42980951D01*
X148373190Y-42818053D01*
X148417044Y-42700756D01*
X148467292Y-42517128D01*
X148500791Y-42322581D01*
X148517551Y-42121325D01*
X148517584Y-41917568D01*
X148500899Y-41715521D01*
X148467507Y-41519392D01*
X148417420Y-41333391D01*
X148413603Y-41321803D01*
X148350719Y-41159750D01*
X148273972Y-41011832D01*
X148180758Y-40873865D01*
X148068473Y-40741661D01*
X148024608Y-40696399D01*
X147888466Y-40572457D01*
X147748509Y-40469915D01*
X147602589Y-40387656D01*
X147448558Y-40324564D01*
X147284268Y-40279523D01*
X147188711Y-40262033D01*
X147029977Y-40246466D01*
X146871571Y-40249071D01*
X146871571Y-40249071D01*
G37*
X146871571Y-40249071D02*
X146711430Y-40270245D01*
X146547490Y-40310385D01*
X146377687Y-40369889D01*
X146199957Y-40449154D01*
X146188690Y-40454699D01*
X146130995Y-40482725D01*
X146079448Y-40506802D01*
X146037809Y-40525249D01*
X146009838Y-40536386D01*
X146000267Y-40538933D01*
X145981050Y-40543941D01*
X145976439Y-40548147D01*
X145981542Y-40558580D01*
X145997582Y-40584868D01*
X146022712Y-40624257D01*
X146055086Y-40673991D01*
X146092857Y-40731315D01*
X146134178Y-40793476D01*
X146177202Y-40857718D01*
X146220083Y-40921285D01*
X146260974Y-40981425D01*
X146298029Y-41035380D01*
X146329400Y-41080397D01*
X146353241Y-41113721D01*
X146367706Y-41132597D01*
X146369691Y-41134787D01*
X146379809Y-41130138D01*
X146402150Y-41112962D01*
X146432720Y-41086440D01*
X146448464Y-41071964D01*
X146544953Y-40996682D01*
X146651664Y-40941241D01*
X146767168Y-40906141D01*
X146890038Y-40891880D01*
X146959439Y-40893051D01*
X147080577Y-40910212D01*
X147189795Y-40946094D01*
X147287418Y-41000959D01*
X147373772Y-41075070D01*
X147449185Y-41168688D01*
X147513982Y-41282076D01*
X147551399Y-41368667D01*
X147595252Y-41504366D01*
X147627572Y-41651850D01*
X147648443Y-41807314D01*
X147657949Y-41966956D01*
X147656173Y-42126973D01*
X147643197Y-42283561D01*
X147619106Y-42432918D01*
X147583982Y-42571240D01*
X147537908Y-42694724D01*
X147521627Y-42728978D01*
X147453380Y-42843064D01*
X147372921Y-42939557D01*
X147281430Y-43017670D01*
X147180089Y-43076617D01*
X147070080Y-43115612D01*
X146952585Y-43133868D01*
X146911117Y-43135211D01*
X146789559Y-43124290D01*
X146669122Y-43091474D01*
X146551334Y-43037439D01*
X146437723Y-42962865D01*
X146346315Y-42884539D01*
X146299785Y-42840008D01*
X146118517Y-43137271D01*
X146073420Y-43211433D01*
X146032181Y-43279646D01*
X145996265Y-43339459D01*
X145967134Y-43388420D01*
X145946250Y-43424079D01*
X145935076Y-43443984D01*
X145933625Y-43447079D01*
X145941854Y-43456718D01*
X145967433Y-43473999D01*
X146007127Y-43497283D01*
X146057703Y-43524934D01*
X146115926Y-43555315D01*
X146178563Y-43586790D01*
X146242379Y-43617722D01*
X146304140Y-43646473D01*
X146360612Y-43671408D01*
X146408562Y-43690889D01*
X146432014Y-43699318D01*
X146565779Y-43737133D01*
X146703673Y-43762136D01*
X146851378Y-43775140D01*
X146978167Y-43777468D01*
X147046122Y-43776373D01*
X147111723Y-43774275D01*
X147169153Y-43771434D01*
X147212597Y-43768106D01*
X147226702Y-43766422D01*
X147365716Y-43737587D01*
X147507243Y-43692468D01*
X147644725Y-43633750D01*
X147771606Y-43564120D01*
X147849111Y-43511441D01*
X147976519Y-43403239D01*
X148094822Y-43276671D01*
X148201828Y-43134866D01*
X148295348Y-42980951D01*
X148373190Y-42818053D01*
X148417044Y-42700756D01*
X148467292Y-42517128D01*
X148500791Y-42322581D01*
X148517551Y-42121325D01*
X148517584Y-41917568D01*
X148500899Y-41715521D01*
X148467507Y-41519392D01*
X148417420Y-41333391D01*
X148413603Y-41321803D01*
X148350719Y-41159750D01*
X148273972Y-41011832D01*
X148180758Y-40873865D01*
X148068473Y-40741661D01*
X148024608Y-40696399D01*
X147888466Y-40572457D01*
X147748509Y-40469915D01*
X147602589Y-40387656D01*
X147448558Y-40324564D01*
X147284268Y-40279523D01*
X147188711Y-40262033D01*
X147029977Y-40246466D01*
X146871571Y-40249071D01*
G36*
X150146400Y-39789054D02*
G01*
X150135535Y-39902993D01*
X150103918Y-40010616D01*
X150053015Y-40109615D01*
X149984293Y-40197684D01*
X149899219Y-40272516D01*
X149802232Y-40330384D01*
X149695964Y-40370005D01*
X149588950Y-40388573D01*
X149483300Y-40387434D01*
X149381125Y-40367930D01*
X149284534Y-40331406D01*
X149195638Y-40279205D01*
X149116546Y-40212673D01*
X149049369Y-40133152D01*
X148996217Y-40041987D01*
X148959199Y-39940523D01*
X148940427Y-39830102D01*
X148938489Y-39780206D01*
X148938489Y-39692267D01*
X148886560Y-39692267D01*
X148850253Y-39695111D01*
X148823355Y-39706911D01*
X148796249Y-39730649D01*
X148757867Y-39769031D01*
X148757867Y-41960602D01*
X148757876Y-42222739D01*
X148757908Y-42463241D01*
X148757972Y-42683048D01*
X148758076Y-42883101D01*
X148758227Y-43064344D01*
X148758434Y-43227716D01*
X148758706Y-43374160D01*
X148759050Y-43504617D01*
X148759474Y-43620029D01*
X148759987Y-43721338D01*
X148760597Y-43809484D01*
X148761312Y-43885410D01*
X148762140Y-43950057D01*
X148763089Y-44004367D01*
X148764167Y-44049280D01*
X148765383Y-44085740D01*
X148766745Y-44114687D01*
X148768261Y-44137063D01*
X148769938Y-44153809D01*
X148771786Y-44165868D01*
X148773813Y-44174180D01*
X148776025Y-44179687D01*
X148777108Y-44181537D01*
X148781271Y-44188549D01*
X148784805Y-44194996D01*
X148788635Y-44200900D01*
X148793682Y-44206286D01*
X148800871Y-44211178D01*
X148811123Y-44215598D01*
X148825364Y-44219572D01*
X148844514Y-44223121D01*
X148869499Y-44226270D01*
X148901240Y-44229042D01*
X148940662Y-44231461D01*
X148988686Y-44233551D01*
X149046237Y-44235335D01*
X149114237Y-44236837D01*
X149193610Y-44238080D01*
X149285279Y-44239089D01*
X149390166Y-44239885D01*
X149509196Y-44240494D01*
X149643290Y-44240939D01*
X149793373Y-44241243D01*
X149960367Y-44241430D01*
X150145196Y-44241524D01*
X150348783Y-44241548D01*
X150572050Y-44241525D01*
X150815922Y-44241480D01*
X151081321Y-44241437D01*
X151119704Y-44241432D01*
X151386682Y-44241389D01*
X151632002Y-44241318D01*
X151856583Y-44241213D01*
X152061345Y-44241066D01*
X152247206Y-44240869D01*
X152415088Y-44240616D01*
X152565908Y-44240300D01*
X152700587Y-44239913D01*
X152820044Y-44239447D01*
X152925199Y-44238897D01*
X153016971Y-44238253D01*
X153096279Y-44237511D01*
X153164043Y-44236661D01*
X153221182Y-44235697D01*
X153268617Y-44234611D01*
X153307266Y-44233397D01*
X153338049Y-44232047D01*
X153361885Y-44230555D01*
X153379694Y-44228911D01*
X153392395Y-44227111D01*
X153400908Y-44225145D01*
X153405266Y-44223477D01*
X153413728Y-44219906D01*
X153421497Y-44217270D01*
X153428602Y-44214634D01*
X153435073Y-44211062D01*
X153440939Y-44205621D01*
X153446229Y-44197375D01*
X153450974Y-44185390D01*
X153455202Y-44168731D01*
X153458943Y-44146463D01*
X153462227Y-44117652D01*
X153465083Y-44081363D01*
X153467540Y-44036661D01*
X153469629Y-43982611D01*
X153471378Y-43918279D01*
X153472817Y-43842730D01*
X153473976Y-43755030D01*
X153474883Y-43654243D01*
X153475569Y-43539434D01*
X153476063Y-43409670D01*
X153476395Y-43264015D01*
X153476593Y-43101535D01*
X153476687Y-42921295D01*
X153476708Y-42722360D01*
X153476685Y-42503796D01*
X153476646Y-42264668D01*
X153476622Y-42004040D01*
X153476622Y-41961889D01*
X153476636Y-41698992D01*
X153476661Y-41457732D01*
X153476671Y-41237165D01*
X153476642Y-41036352D01*
X153476548Y-40854349D01*
X153476362Y-40690216D01*
X153476059Y-40543011D01*
X153475614Y-40411792D01*
X153475034Y-40301867D01*
X153172197Y-40301867D01*
X153132407Y-40359711D01*
X153121236Y-40375479D01*
X153111166Y-40389441D01*
X153102138Y-40402784D01*
X153094097Y-40416693D01*
X153086986Y-40432356D01*
X153080747Y-40450958D01*
X153075325Y-40473686D01*
X153070662Y-40501727D01*
X153066701Y-40536267D01*
X153063385Y-40578492D01*
X153060659Y-40629589D01*
X153058464Y-40690744D01*
X153056745Y-40763144D01*
X153055444Y-40847975D01*
X153054505Y-40946422D01*
X153053870Y-41059674D01*
X153053484Y-41188916D01*
X153053288Y-41335334D01*
X153053227Y-41500116D01*
X153053243Y-41684447D01*
X153053280Y-41889513D01*
X153053289Y-42012133D01*
X153053265Y-42229082D01*
X153053231Y-42424642D01*
X153053243Y-42599999D01*
X153053358Y-42756341D01*
X153053630Y-42894857D01*
X153054118Y-43016734D01*
X153054876Y-43123160D01*
X153055962Y-43215322D01*
X153057431Y-43294409D01*
X153059340Y-43361608D01*
X153061744Y-43418107D01*
X153064701Y-43465093D01*
X153068266Y-43503755D01*
X153072495Y-43535280D01*
X153077446Y-43560855D01*
X153083173Y-43581670D01*
X153089733Y-43598911D01*
X153097183Y-43613765D01*
X153105579Y-43627422D01*
X153114976Y-43641069D01*
X153125432Y-43655893D01*
X153131523Y-43664783D01*
X153170296Y-43722400D01*
X152638732Y-43722400D01*
X152515483Y-43722365D01*
X152412987Y-43722215D01*
X152329420Y-43721878D01*
X152262956Y-43721286D01*
X152211771Y-43720367D01*
X152174041Y-43719051D01*
X152147940Y-43717269D01*
X152131644Y-43714951D01*
X152123328Y-43712026D01*
X152121168Y-43708424D01*
X152123339Y-43704075D01*
X152124535Y-43702645D01*
X152149685Y-43665573D01*
X152175583Y-43612772D01*
X152199192Y-43550770D01*
X152207461Y-43524357D01*
X152212078Y-43506416D01*
X152215979Y-43485355D01*
X152219248Y-43459089D01*
X152221966Y-43425532D01*
X152224215Y-43382599D01*
X152226077Y-43328204D01*
X152227636Y-43260262D01*
X152228972Y-43176688D01*
X152230169Y-43075395D01*
X152231308Y-42954300D01*
X152231685Y-42909600D01*
X152232702Y-42784449D01*
X152233460Y-42680082D01*
X152233903Y-42594707D01*
X152233970Y-42526533D01*
X152233605Y-42473765D01*
X152232748Y-42434614D01*
X152231341Y-42407285D01*
X152229325Y-42389986D01*
X152226643Y-42380926D01*
X152223236Y-42378312D01*
X152219044Y-42380351D01*
X152214571Y-42384667D01*
X152204216Y-42397602D01*
X152182158Y-42426676D01*
X152149957Y-42469759D01*
X152109174Y-42524718D01*
X152061370Y-42589423D01*
X152008105Y-42661742D01*
X151950940Y-42739544D01*
X151891437Y-42820698D01*
X151831155Y-42903072D01*
X151771655Y-42984536D01*
X151714498Y-43062957D01*
X151661245Y-43136204D01*
X151613457Y-43202147D01*
X151572693Y-43258654D01*
X151540516Y-43303593D01*
X151518485Y-43334834D01*
X151513917Y-43341466D01*
X151490996Y-43378369D01*
X151464188Y-43426359D01*
X151438789Y-43475897D01*
X151435568Y-43482577D01*
X151413890Y-43530772D01*
X151401304Y-43568334D01*
X151395574Y-43604160D01*
X151394456Y-43646200D01*
X151395090Y-43722400D01*
X150240651Y-43722400D01*
X150331815Y-43628669D01*
X150378612Y-43578775D01*
X150428899Y-43522295D01*
X150474944Y-43468026D01*
X150495369Y-43442673D01*
X150525807Y-43403128D01*
X150565862Y-43349916D01*
X150614361Y-43284667D01*
X150670135Y-43209011D01*
X150732011Y-43124577D01*
X150798819Y-43032994D01*
X150869387Y-42935892D01*
X150942545Y-42834901D01*
X151017121Y-42731650D01*
X151091944Y-42627768D01*
X151165843Y-42524885D01*
X151237646Y-42424631D01*
X151306184Y-42328636D01*
X151370284Y-42238527D01*
X151428775Y-42155936D01*
X151480486Y-42082492D01*
X151524247Y-42019824D01*
X151558885Y-41969561D01*
X151583230Y-41933334D01*
X151596111Y-41912771D01*
X151597869Y-41908668D01*
X151589910Y-41897342D01*
X151569115Y-41870162D01*
X151536847Y-41828829D01*
X151494470Y-41775044D01*
X151443347Y-41710506D01*
X151384841Y-41636918D01*
X151320314Y-41555978D01*
X151251131Y-41469388D01*
X151178653Y-41378848D01*
X151104246Y-41286060D01*
X151044517Y-41211702D01*
X150033511Y-41211702D01*
X150027602Y-41224659D01*
X150013272Y-41246908D01*
X150012225Y-41248391D01*
X149993438Y-41278544D01*
X149973791Y-41315375D01*
X149969892Y-41323511D01*
X149966356Y-41331940D01*
X149963230Y-41342059D01*
X149960486Y-41355260D01*
X149958092Y-41372938D01*
X149956019Y-41396484D01*
X149954235Y-41427293D01*
X149952712Y-41466757D01*
X149951419Y-41516269D01*
X149950326Y-41577223D01*
X149949403Y-41651011D01*
X149948619Y-41739028D01*
X149947945Y-41842665D01*
X149947350Y-41963316D01*
X149946805Y-42102374D01*
X149946279Y-42261232D01*
X149945745Y-42440089D01*
X149945206Y-42625207D01*
X149944772Y-42789145D01*
X149944509Y-42933303D01*
X149944484Y-43059079D01*
X149944765Y-43167871D01*
X149945419Y-43261077D01*
X149946514Y-43340097D01*
X149948118Y-43406328D01*
X149950297Y-43461170D01*
X149953119Y-43506021D01*
X149956651Y-43542278D01*
X149960961Y-43571341D01*
X149966117Y-43594609D01*
X149972185Y-43613479D01*
X149979233Y-43629351D01*
X149987329Y-43643622D01*
X149996540Y-43657691D01*
X150005040Y-43670158D01*
X150022176Y-43696452D01*
X150032322Y-43714037D01*
X150033511Y-43717257D01*
X150022604Y-43718334D01*
X149991411Y-43719335D01*
X149942223Y-43720235D01*
X149877333Y-43721010D01*
X149799030Y-43721637D01*
X149709607Y-43722091D01*
X149611356Y-43722349D01*
X149542445Y-43722400D01*
X149437452Y-43722180D01*
X149340610Y-43721548D01*
X149254107Y-43720549D01*
X149180132Y-43719227D01*
X149120874Y-43717626D01*
X149078520Y-43715791D01*
X149055260Y-43713765D01*
X149051378Y-43712493D01*
X149059076Y-43697591D01*
X149067074Y-43689560D01*
X149080246Y-43672434D01*
X149097485Y-43642183D01*
X149109407Y-43617622D01*
X149136045Y-43558711D01*
X149139120Y-42381845D01*
X149142195Y-41204978D01*
X149587853Y-41204978D01*
X149685670Y-41205142D01*
X149776064Y-41205611D01*
X149856630Y-41206347D01*
X149924962Y-41207316D01*
X149978656Y-41208480D01*
X150015305Y-41209803D01*
X150032504Y-41211249D01*
X150033511Y-41211702D01*
X151044517Y-41211702D01*
X151029270Y-41192722D01*
X150955090Y-41100537D01*
X150883069Y-41011204D01*
X150814569Y-40926424D01*
X150750955Y-40847898D01*
X150693588Y-40777326D01*
X150643833Y-40716409D01*
X150603052Y-40666847D01*
X150585888Y-40646178D01*
X150499596Y-40545516D01*
X150422997Y-40462259D01*
X150354183Y-40394438D01*
X150291248Y-40340089D01*
X150281867Y-40332722D01*
X150242356Y-40302117D01*
X151374116Y-40301867D01*
X151368827Y-40349844D01*
X151372130Y-40407188D01*
X151393661Y-40475463D01*
X151433635Y-40555212D01*
X151478943Y-40627495D01*
X151495161Y-40650140D01*
X151523214Y-40687696D01*
X151561430Y-40738021D01*
X151608137Y-40798973D01*
X151661661Y-40868411D01*
X151720331Y-40944194D01*
X151782475Y-41024180D01*
X151846421Y-41106228D01*
X151910495Y-41188196D01*
X151973027Y-41267943D01*
X152032343Y-41343327D01*
X152086771Y-41412207D01*
X152134639Y-41472442D01*
X152174275Y-41521889D01*
X152204006Y-41558408D01*
X152222161Y-41579858D01*
X152225220Y-41583156D01*
X152228079Y-41575149D01*
X152230293Y-41544855D01*
X152231857Y-41492556D01*
X152232767Y-41418531D01*
X152233020Y-41323063D01*
X152232613Y-41206434D01*
X152231704Y-41086445D01*
X152230382Y-40954333D01*
X152228857Y-40842594D01*
X152226881Y-40749025D01*
X152224206Y-40671419D01*
X152220582Y-40607574D01*
X152215761Y-40555283D01*
X152209494Y-40512344D01*
X152201532Y-40476551D01*
X152191627Y-40445700D01*
X152179531Y-40417586D01*
X152164993Y-40390005D01*
X152150311Y-40364966D01*
X152112314Y-40301867D01*
X153172197Y-40301867D01*
X153475034Y-40301867D01*
X153475001Y-40295617D01*
X153474195Y-40193544D01*
X153473170Y-40104633D01*
X153471900Y-40027941D01*
X153470360Y-39962527D01*
X153468524Y-39907449D01*
X153466367Y-39861765D01*
X153463863Y-39824534D01*
X153460987Y-39794813D01*
X153457713Y-39771662D01*
X153454015Y-39754139D01*
X153449869Y-39741301D01*
X153445247Y-39732208D01*
X153440126Y-39725918D01*
X153434478Y-39721488D01*
X153428279Y-39717978D01*
X153421504Y-39714445D01*
X153415508Y-39710876D01*
X153410275Y-39708300D01*
X153402099Y-39705972D01*
X153389886Y-39703878D01*
X153372541Y-39702007D01*
X153348969Y-39700347D01*
X153318077Y-39698884D01*
X153278768Y-39697608D01*
X153229950Y-39696504D01*
X153170527Y-39695561D01*
X153099404Y-39694767D01*
X153015488Y-39694109D01*
X152917683Y-39693575D01*
X152804894Y-39693153D01*
X152676029Y-39692829D01*
X152529991Y-39692592D01*
X152365686Y-39692430D01*
X152182020Y-39692330D01*
X151977897Y-39692280D01*
X151766753Y-39692267D01*
X150146400Y-39692267D01*
X150146400Y-39789054D01*
X150146400Y-39789054D01*
G37*
X150146400Y-39789054D02*
X150135535Y-39902993D01*
X150103918Y-40010616D01*
X150053015Y-40109615D01*
X149984293Y-40197684D01*
X149899219Y-40272516D01*
X149802232Y-40330384D01*
X149695964Y-40370005D01*
X149588950Y-40388573D01*
X149483300Y-40387434D01*
X149381125Y-40367930D01*
X149284534Y-40331406D01*
X149195638Y-40279205D01*
X149116546Y-40212673D01*
X149049369Y-40133152D01*
X148996217Y-40041987D01*
X148959199Y-39940523D01*
X148940427Y-39830102D01*
X148938489Y-39780206D01*
X148938489Y-39692267D01*
X148886560Y-39692267D01*
X148850253Y-39695111D01*
X148823355Y-39706911D01*
X148796249Y-39730649D01*
X148757867Y-39769031D01*
X148757867Y-41960602D01*
X148757876Y-42222739D01*
X148757908Y-42463241D01*
X148757972Y-42683048D01*
X148758076Y-42883101D01*
X148758227Y-43064344D01*
X148758434Y-43227716D01*
X148758706Y-43374160D01*
X148759050Y-43504617D01*
X148759474Y-43620029D01*
X148759987Y-43721338D01*
X148760597Y-43809484D01*
X148761312Y-43885410D01*
X148762140Y-43950057D01*
X148763089Y-44004367D01*
X148764167Y-44049280D01*
X148765383Y-44085740D01*
X148766745Y-44114687D01*
X148768261Y-44137063D01*
X148769938Y-44153809D01*
X148771786Y-44165868D01*
X148773813Y-44174180D01*
X148776025Y-44179687D01*
X148777108Y-44181537D01*
X148781271Y-44188549D01*
X148784805Y-44194996D01*
X148788635Y-44200900D01*
X148793682Y-44206286D01*
X148800871Y-44211178D01*
X148811123Y-44215598D01*
X148825364Y-44219572D01*
X148844514Y-44223121D01*
X148869499Y-44226270D01*
X148901240Y-44229042D01*
X148940662Y-44231461D01*
X148988686Y-44233551D01*
X149046237Y-44235335D01*
X149114237Y-44236837D01*
X149193610Y-44238080D01*
X149285279Y-44239089D01*
X149390166Y-44239885D01*
X149509196Y-44240494D01*
X149643290Y-44240939D01*
X149793373Y-44241243D01*
X149960367Y-44241430D01*
X150145196Y-44241524D01*
X150348783Y-44241548D01*
X150572050Y-44241525D01*
X150815922Y-44241480D01*
X151081321Y-44241437D01*
X151119704Y-44241432D01*
X151386682Y-44241389D01*
X151632002Y-44241318D01*
X151856583Y-44241213D01*
X152061345Y-44241066D01*
X152247206Y-44240869D01*
X152415088Y-44240616D01*
X152565908Y-44240300D01*
X152700587Y-44239913D01*
X152820044Y-44239447D01*
X152925199Y-44238897D01*
X153016971Y-44238253D01*
X153096279Y-44237511D01*
X153164043Y-44236661D01*
X153221182Y-44235697D01*
X153268617Y-44234611D01*
X153307266Y-44233397D01*
X153338049Y-44232047D01*
X153361885Y-44230555D01*
X153379694Y-44228911D01*
X153392395Y-44227111D01*
X153400908Y-44225145D01*
X153405266Y-44223477D01*
X153413728Y-44219906D01*
X153421497Y-44217270D01*
X153428602Y-44214634D01*
X153435073Y-44211062D01*
X153440939Y-44205621D01*
X153446229Y-44197375D01*
X153450974Y-44185390D01*
X153455202Y-44168731D01*
X153458943Y-44146463D01*
X153462227Y-44117652D01*
X153465083Y-44081363D01*
X153467540Y-44036661D01*
X153469629Y-43982611D01*
X153471378Y-43918279D01*
X153472817Y-43842730D01*
X153473976Y-43755030D01*
X153474883Y-43654243D01*
X153475569Y-43539434D01*
X153476063Y-43409670D01*
X153476395Y-43264015D01*
X153476593Y-43101535D01*
X153476687Y-42921295D01*
X153476708Y-42722360D01*
X153476685Y-42503796D01*
X153476646Y-42264668D01*
X153476622Y-42004040D01*
X153476622Y-41961889D01*
X153476636Y-41698992D01*
X153476661Y-41457732D01*
X153476671Y-41237165D01*
X153476642Y-41036352D01*
X153476548Y-40854349D01*
X153476362Y-40690216D01*
X153476059Y-40543011D01*
X153475614Y-40411792D01*
X153475034Y-40301867D01*
X153172197Y-40301867D01*
X153132407Y-40359711D01*
X153121236Y-40375479D01*
X153111166Y-40389441D01*
X153102138Y-40402784D01*
X153094097Y-40416693D01*
X153086986Y-40432356D01*
X153080747Y-40450958D01*
X153075325Y-40473686D01*
X153070662Y-40501727D01*
X153066701Y-40536267D01*
X153063385Y-40578492D01*
X153060659Y-40629589D01*
X153058464Y-40690744D01*
X153056745Y-40763144D01*
X153055444Y-40847975D01*
X153054505Y-40946422D01*
X153053870Y-41059674D01*
X153053484Y-41188916D01*
X153053288Y-41335334D01*
X153053227Y-41500116D01*
X153053243Y-41684447D01*
X153053280Y-41889513D01*
X153053289Y-42012133D01*
X153053265Y-42229082D01*
X153053231Y-42424642D01*
X153053243Y-42599999D01*
X153053358Y-42756341D01*
X153053630Y-42894857D01*
X153054118Y-43016734D01*
X153054876Y-43123160D01*
X153055962Y-43215322D01*
X153057431Y-43294409D01*
X153059340Y-43361608D01*
X153061744Y-43418107D01*
X153064701Y-43465093D01*
X153068266Y-43503755D01*
X153072495Y-43535280D01*
X153077446Y-43560855D01*
X153083173Y-43581670D01*
X153089733Y-43598911D01*
X153097183Y-43613765D01*
X153105579Y-43627422D01*
X153114976Y-43641069D01*
X153125432Y-43655893D01*
X153131523Y-43664783D01*
X153170296Y-43722400D01*
X152638732Y-43722400D01*
X152515483Y-43722365D01*
X152412987Y-43722215D01*
X152329420Y-43721878D01*
X152262956Y-43721286D01*
X152211771Y-43720367D01*
X152174041Y-43719051D01*
X152147940Y-43717269D01*
X152131644Y-43714951D01*
X152123328Y-43712026D01*
X152121168Y-43708424D01*
X152123339Y-43704075D01*
X152124535Y-43702645D01*
X152149685Y-43665573D01*
X152175583Y-43612772D01*
X152199192Y-43550770D01*
X152207461Y-43524357D01*
X152212078Y-43506416D01*
X152215979Y-43485355D01*
X152219248Y-43459089D01*
X152221966Y-43425532D01*
X152224215Y-43382599D01*
X152226077Y-43328204D01*
X152227636Y-43260262D01*
X152228972Y-43176688D01*
X152230169Y-43075395D01*
X152231308Y-42954300D01*
X152231685Y-42909600D01*
X152232702Y-42784449D01*
X152233460Y-42680082D01*
X152233903Y-42594707D01*
X152233970Y-42526533D01*
X152233605Y-42473765D01*
X152232748Y-42434614D01*
X152231341Y-42407285D01*
X152229325Y-42389986D01*
X152226643Y-42380926D01*
X152223236Y-42378312D01*
X152219044Y-42380351D01*
X152214571Y-42384667D01*
X152204216Y-42397602D01*
X152182158Y-42426676D01*
X152149957Y-42469759D01*
X152109174Y-42524718D01*
X152061370Y-42589423D01*
X152008105Y-42661742D01*
X151950940Y-42739544D01*
X151891437Y-42820698D01*
X151831155Y-42903072D01*
X151771655Y-42984536D01*
X151714498Y-43062957D01*
X151661245Y-43136204D01*
X151613457Y-43202147D01*
X151572693Y-43258654D01*
X151540516Y-43303593D01*
X151518485Y-43334834D01*
X151513917Y-43341466D01*
X151490996Y-43378369D01*
X151464188Y-43426359D01*
X151438789Y-43475897D01*
X151435568Y-43482577D01*
X151413890Y-43530772D01*
X151401304Y-43568334D01*
X151395574Y-43604160D01*
X151394456Y-43646200D01*
X151395090Y-43722400D01*
X150240651Y-43722400D01*
X150331815Y-43628669D01*
X150378612Y-43578775D01*
X150428899Y-43522295D01*
X150474944Y-43468026D01*
X150495369Y-43442673D01*
X150525807Y-43403128D01*
X150565862Y-43349916D01*
X150614361Y-43284667D01*
X150670135Y-43209011D01*
X150732011Y-43124577D01*
X150798819Y-43032994D01*
X150869387Y-42935892D01*
X150942545Y-42834901D01*
X151017121Y-42731650D01*
X151091944Y-42627768D01*
X151165843Y-42524885D01*
X151237646Y-42424631D01*
X151306184Y-42328636D01*
X151370284Y-42238527D01*
X151428775Y-42155936D01*
X151480486Y-42082492D01*
X151524247Y-42019824D01*
X151558885Y-41969561D01*
X151583230Y-41933334D01*
X151596111Y-41912771D01*
X151597869Y-41908668D01*
X151589910Y-41897342D01*
X151569115Y-41870162D01*
X151536847Y-41828829D01*
X151494470Y-41775044D01*
X151443347Y-41710506D01*
X151384841Y-41636918D01*
X151320314Y-41555978D01*
X151251131Y-41469388D01*
X151178653Y-41378848D01*
X151104246Y-41286060D01*
X151044517Y-41211702D01*
X150033511Y-41211702D01*
X150027602Y-41224659D01*
X150013272Y-41246908D01*
X150012225Y-41248391D01*
X149993438Y-41278544D01*
X149973791Y-41315375D01*
X149969892Y-41323511D01*
X149966356Y-41331940D01*
X149963230Y-41342059D01*
X149960486Y-41355260D01*
X149958092Y-41372938D01*
X149956019Y-41396484D01*
X149954235Y-41427293D01*
X149952712Y-41466757D01*
X149951419Y-41516269D01*
X149950326Y-41577223D01*
X149949403Y-41651011D01*
X149948619Y-41739028D01*
X149947945Y-41842665D01*
X149947350Y-41963316D01*
X149946805Y-42102374D01*
X149946279Y-42261232D01*
X149945745Y-42440089D01*
X149945206Y-42625207D01*
X149944772Y-42789145D01*
X149944509Y-42933303D01*
X149944484Y-43059079D01*
X149944765Y-43167871D01*
X149945419Y-43261077D01*
X149946514Y-43340097D01*
X149948118Y-43406328D01*
X149950297Y-43461170D01*
X149953119Y-43506021D01*
X149956651Y-43542278D01*
X149960961Y-43571341D01*
X149966117Y-43594609D01*
X149972185Y-43613479D01*
X149979233Y-43629351D01*
X149987329Y-43643622D01*
X149996540Y-43657691D01*
X150005040Y-43670158D01*
X150022176Y-43696452D01*
X150032322Y-43714037D01*
X150033511Y-43717257D01*
X150022604Y-43718334D01*
X149991411Y-43719335D01*
X149942223Y-43720235D01*
X149877333Y-43721010D01*
X149799030Y-43721637D01*
X149709607Y-43722091D01*
X149611356Y-43722349D01*
X149542445Y-43722400D01*
X149437452Y-43722180D01*
X149340610Y-43721548D01*
X149254107Y-43720549D01*
X149180132Y-43719227D01*
X149120874Y-43717626D01*
X149078520Y-43715791D01*
X149055260Y-43713765D01*
X149051378Y-43712493D01*
X149059076Y-43697591D01*
X149067074Y-43689560D01*
X149080246Y-43672434D01*
X149097485Y-43642183D01*
X149109407Y-43617622D01*
X149136045Y-43558711D01*
X149139120Y-42381845D01*
X149142195Y-41204978D01*
X149587853Y-41204978D01*
X149685670Y-41205142D01*
X149776064Y-41205611D01*
X149856630Y-41206347D01*
X149924962Y-41207316D01*
X149978656Y-41208480D01*
X150015305Y-41209803D01*
X150032504Y-41211249D01*
X150033511Y-41211702D01*
X151044517Y-41211702D01*
X151029270Y-41192722D01*
X150955090Y-41100537D01*
X150883069Y-41011204D01*
X150814569Y-40926424D01*
X150750955Y-40847898D01*
X150693588Y-40777326D01*
X150643833Y-40716409D01*
X150603052Y-40666847D01*
X150585888Y-40646178D01*
X150499596Y-40545516D01*
X150422997Y-40462259D01*
X150354183Y-40394438D01*
X150291248Y-40340089D01*
X150281867Y-40332722D01*
X150242356Y-40302117D01*
X151374116Y-40301867D01*
X151368827Y-40349844D01*
X151372130Y-40407188D01*
X151393661Y-40475463D01*
X151433635Y-40555212D01*
X151478943Y-40627495D01*
X151495161Y-40650140D01*
X151523214Y-40687696D01*
X151561430Y-40738021D01*
X151608137Y-40798973D01*
X151661661Y-40868411D01*
X151720331Y-40944194D01*
X151782475Y-41024180D01*
X151846421Y-41106228D01*
X151910495Y-41188196D01*
X151973027Y-41267943D01*
X152032343Y-41343327D01*
X152086771Y-41412207D01*
X152134639Y-41472442D01*
X152174275Y-41521889D01*
X152204006Y-41558408D01*
X152222161Y-41579858D01*
X152225220Y-41583156D01*
X152228079Y-41575149D01*
X152230293Y-41544855D01*
X152231857Y-41492556D01*
X152232767Y-41418531D01*
X152233020Y-41323063D01*
X152232613Y-41206434D01*
X152231704Y-41086445D01*
X152230382Y-40954333D01*
X152228857Y-40842594D01*
X152226881Y-40749025D01*
X152224206Y-40671419D01*
X152220582Y-40607574D01*
X152215761Y-40555283D01*
X152209494Y-40512344D01*
X152201532Y-40476551D01*
X152191627Y-40445700D01*
X152179531Y-40417586D01*
X152164993Y-40390005D01*
X152150311Y-40364966D01*
X152112314Y-40301867D01*
X153172197Y-40301867D01*
X153475034Y-40301867D01*
X153475001Y-40295617D01*
X153474195Y-40193544D01*
X153473170Y-40104633D01*
X153471900Y-40027941D01*
X153470360Y-39962527D01*
X153468524Y-39907449D01*
X153466367Y-39861765D01*
X153463863Y-39824534D01*
X153460987Y-39794813D01*
X153457713Y-39771662D01*
X153454015Y-39754139D01*
X153449869Y-39741301D01*
X153445247Y-39732208D01*
X153440126Y-39725918D01*
X153434478Y-39721488D01*
X153428279Y-39717978D01*
X153421504Y-39714445D01*
X153415508Y-39710876D01*
X153410275Y-39708300D01*
X153402099Y-39705972D01*
X153389886Y-39703878D01*
X153372541Y-39702007D01*
X153348969Y-39700347D01*
X153318077Y-39698884D01*
X153278768Y-39697608D01*
X153229950Y-39696504D01*
X153170527Y-39695561D01*
X153099404Y-39694767D01*
X153015488Y-39694109D01*
X152917683Y-39693575D01*
X152804894Y-39693153D01*
X152676029Y-39692829D01*
X152529991Y-39692592D01*
X152365686Y-39692430D01*
X152182020Y-39692330D01*
X151977897Y-39692280D01*
X151766753Y-39692267D01*
X150146400Y-39692267D01*
X150146400Y-39789054D01*
G36*
X140971177Y-44574533D02*
G01*
X140939798Y-44596776D01*
X140912089Y-44624485D01*
X140912089Y-44933920D01*
X140912162Y-45025799D01*
X140912505Y-45097840D01*
X140913308Y-45152780D01*
X140914759Y-45193360D01*
X140917048Y-45222317D01*
X140920364Y-45242391D01*
X140924895Y-45256321D01*
X140930831Y-45266845D01*
X140935486Y-45273100D01*
X140966217Y-45297673D01*
X141001504Y-45300341D01*
X141033755Y-45285271D01*
X141044412Y-45276374D01*
X141051536Y-45264557D01*
X141055833Y-45245526D01*
X141058009Y-45214992D01*
X141058772Y-45168662D01*
X141058845Y-45132871D01*
X141058845Y-44998045D01*
X141555556Y-44998045D01*
X141555556Y-45120700D01*
X141556069Y-45176787D01*
X141558124Y-45215333D01*
X141562492Y-45241361D01*
X141569944Y-45259897D01*
X141578953Y-45273100D01*
X141609856Y-45297604D01*
X141644804Y-45300506D01*
X141678262Y-45283089D01*
X141687396Y-45273959D01*
X141693848Y-45261855D01*
X141698103Y-45243001D01*
X141700648Y-45213620D01*
X141701971Y-45169937D01*
X141702557Y-45108175D01*
X141702625Y-45094000D01*
X141703109Y-44977631D01*
X141703359Y-44881727D01*
X141703277Y-44804177D01*
X141702769Y-44742869D01*
X141701738Y-44695690D01*
X141700087Y-44660530D01*
X141697721Y-44635276D01*
X141694543Y-44617817D01*
X141690456Y-44606041D01*
X141685366Y-44597835D01*
X141679734Y-44591645D01*
X141647872Y-44571844D01*
X141614643Y-44574533D01*
X141583265Y-44596776D01*
X141570567Y-44611126D01*
X141562474Y-44626978D01*
X141557958Y-44649554D01*
X141555994Y-44684078D01*
X141555556Y-44735776D01*
X141555556Y-44851289D01*
X141058845Y-44851289D01*
X141058845Y-44732756D01*
X141058338Y-44678148D01*
X141056302Y-44641275D01*
X141051965Y-44617307D01*
X141044553Y-44601415D01*
X141036267Y-44591645D01*
X141004406Y-44571844D01*
X140971177Y-44574533D01*
X140971177Y-44574533D01*
G37*
X140971177Y-44574533D02*
X140939798Y-44596776D01*
X140912089Y-44624485D01*
X140912089Y-44933920D01*
X140912162Y-45025799D01*
X140912505Y-45097840D01*
X140913308Y-45152780D01*
X140914759Y-45193360D01*
X140917048Y-45222317D01*
X140920364Y-45242391D01*
X140924895Y-45256321D01*
X140930831Y-45266845D01*
X140935486Y-45273100D01*
X140966217Y-45297673D01*
X141001504Y-45300341D01*
X141033755Y-45285271D01*
X141044412Y-45276374D01*
X141051536Y-45264557D01*
X141055833Y-45245526D01*
X141058009Y-45214992D01*
X141058772Y-45168662D01*
X141058845Y-45132871D01*
X141058845Y-44998045D01*
X141555556Y-44998045D01*
X141555556Y-45120700D01*
X141556069Y-45176787D01*
X141558124Y-45215333D01*
X141562492Y-45241361D01*
X141569944Y-45259897D01*
X141578953Y-45273100D01*
X141609856Y-45297604D01*
X141644804Y-45300506D01*
X141678262Y-45283089D01*
X141687396Y-45273959D01*
X141693848Y-45261855D01*
X141698103Y-45243001D01*
X141700648Y-45213620D01*
X141701971Y-45169937D01*
X141702557Y-45108175D01*
X141702625Y-45094000D01*
X141703109Y-44977631D01*
X141703359Y-44881727D01*
X141703277Y-44804177D01*
X141702769Y-44742869D01*
X141701738Y-44695690D01*
X141700087Y-44660530D01*
X141697721Y-44635276D01*
X141694543Y-44617817D01*
X141690456Y-44606041D01*
X141685366Y-44597835D01*
X141679734Y-44591645D01*
X141647872Y-44571844D01*
X141614643Y-44574533D01*
X141583265Y-44596776D01*
X141570567Y-44611126D01*
X141562474Y-44626978D01*
X141557958Y-44649554D01*
X141555994Y-44684078D01*
X141555556Y-44735776D01*
X141555556Y-44851289D01*
X141058845Y-44851289D01*
X141058845Y-44732756D01*
X141058338Y-44678148D01*
X141056302Y-44641275D01*
X141051965Y-44617307D01*
X141044553Y-44601415D01*
X141036267Y-44591645D01*
X141004406Y-44571844D01*
X140971177Y-44574533D01*
G36*
X142236935Y-44569163D02*
G01*
X142158228Y-44569542D01*
X142097137Y-44570333D01*
X142051183Y-44571670D01*
X142017886Y-44573683D01*
X141994764Y-44576506D01*
X141979338Y-44580269D01*
X141969129Y-44585105D01*
X141964187Y-44588822D01*
X141938543Y-44621358D01*
X141935441Y-44655138D01*
X141951289Y-44685826D01*
X141961652Y-44698089D01*
X141972804Y-44706450D01*
X141988965Y-44711657D01*
X142014358Y-44714457D01*
X142053202Y-44715596D01*
X142109720Y-44715821D01*
X142120820Y-44715822D01*
X142266756Y-44715822D01*
X142266756Y-44986756D01*
X142266852Y-45072154D01*
X142267289Y-45137864D01*
X142268288Y-45186774D01*
X142270072Y-45221773D01*
X142272863Y-45245749D01*
X142276883Y-45261593D01*
X142282355Y-45272191D01*
X142289334Y-45280267D01*
X142322266Y-45300112D01*
X142356646Y-45298548D01*
X142387824Y-45275906D01*
X142390114Y-45273100D01*
X142397571Y-45262492D01*
X142403253Y-45250081D01*
X142407399Y-45232850D01*
X142410250Y-45207784D01*
X142412046Y-45171867D01*
X142413028Y-45122083D01*
X142413436Y-45055417D01*
X142413511Y-44979589D01*
X142413511Y-44715822D01*
X142552873Y-44715822D01*
X142612678Y-44715418D01*
X142654082Y-44713840D01*
X142681252Y-44710547D01*
X142698354Y-44704992D01*
X142709557Y-44696631D01*
X142710917Y-44695178D01*
X142727275Y-44661939D01*
X142725828Y-44624362D01*
X142707022Y-44591645D01*
X142699750Y-44585298D01*
X142690373Y-44580266D01*
X142676391Y-44576396D01*
X142655304Y-44573537D01*
X142624611Y-44571535D01*
X142581811Y-44570239D01*
X142524405Y-44569498D01*
X142449890Y-44569158D01*
X142355767Y-44569068D01*
X142335740Y-44569067D01*
X142236935Y-44569163D01*
X142236935Y-44569163D01*
G37*
X142236935Y-44569163D02*
X142158228Y-44569542D01*
X142097137Y-44570333D01*
X142051183Y-44571670D01*
X142017886Y-44573683D01*
X141994764Y-44576506D01*
X141979338Y-44580269D01*
X141969129Y-44585105D01*
X141964187Y-44588822D01*
X141938543Y-44621358D01*
X141935441Y-44655138D01*
X141951289Y-44685826D01*
X141961652Y-44698089D01*
X141972804Y-44706450D01*
X141988965Y-44711657D01*
X142014358Y-44714457D01*
X142053202Y-44715596D01*
X142109720Y-44715821D01*
X142120820Y-44715822D01*
X142266756Y-44715822D01*
X142266756Y-44986756D01*
X142266852Y-45072154D01*
X142267289Y-45137864D01*
X142268288Y-45186774D01*
X142270072Y-45221773D01*
X142272863Y-45245749D01*
X142276883Y-45261593D01*
X142282355Y-45272191D01*
X142289334Y-45280267D01*
X142322266Y-45300112D01*
X142356646Y-45298548D01*
X142387824Y-45275906D01*
X142390114Y-45273100D01*
X142397571Y-45262492D01*
X142403253Y-45250081D01*
X142407399Y-45232850D01*
X142410250Y-45207784D01*
X142412046Y-45171867D01*
X142413028Y-45122083D01*
X142413436Y-45055417D01*
X142413511Y-44979589D01*
X142413511Y-44715822D01*
X142552873Y-44715822D01*
X142612678Y-44715418D01*
X142654082Y-44713840D01*
X142681252Y-44710547D01*
X142698354Y-44704992D01*
X142709557Y-44696631D01*
X142710917Y-44695178D01*
X142727275Y-44661939D01*
X142725828Y-44624362D01*
X142707022Y-44591645D01*
X142699750Y-44585298D01*
X142690373Y-44580266D01*
X142676391Y-44576396D01*
X142655304Y-44573537D01*
X142624611Y-44571535D01*
X142581811Y-44570239D01*
X142524405Y-44569498D01*
X142449890Y-44569158D01*
X142355767Y-44569068D01*
X142335740Y-44569067D01*
X142236935Y-44569163D01*
G36*
X143011386Y-44575877D02*
G01*
X142987673Y-44590647D01*
X142961022Y-44612227D01*
X142961022Y-44933773D01*
X142961107Y-45027830D01*
X142961471Y-45101932D01*
X142962276Y-45158704D01*
X142963687Y-45200768D01*
X142965867Y-45230748D01*
X142968979Y-45251267D01*
X142973186Y-45264949D01*
X142978652Y-45274416D01*
X142982528Y-45279082D01*
X143013966Y-45299575D01*
X143049767Y-45298739D01*
X143081127Y-45281264D01*
X143107778Y-45259684D01*
X143107778Y-44612227D01*
X143081127Y-44590647D01*
X143055406Y-44574949D01*
X143034400Y-44569067D01*
X143011386Y-44575877D01*
X143011386Y-44575877D01*
G37*
X143011386Y-44575877D02*
X142987673Y-44590647D01*
X142961022Y-44612227D01*
X142961022Y-44933773D01*
X142961107Y-45027830D01*
X142961471Y-45101932D01*
X142962276Y-45158704D01*
X142963687Y-45200768D01*
X142965867Y-45230748D01*
X142968979Y-45251267D01*
X142973186Y-45264949D01*
X142978652Y-45274416D01*
X142982528Y-45279082D01*
X143013966Y-45299575D01*
X143049767Y-45298739D01*
X143081127Y-45281264D01*
X143107778Y-45259684D01*
X143107778Y-44612227D01*
X143081127Y-44590647D01*
X143055406Y-44574949D01*
X143034400Y-44569067D01*
X143011386Y-44575877D01*
G36*
X143455335Y-44571034D02*
G01*
X143435745Y-44578035D01*
X143434990Y-44578377D01*
X143408387Y-44598678D01*
X143393730Y-44619561D01*
X143390862Y-44629352D01*
X143391004Y-44642361D01*
X143395039Y-44660895D01*
X143403854Y-44687257D01*
X143418331Y-44723752D01*
X143439355Y-44772687D01*
X143467812Y-44836365D01*
X143504585Y-44917093D01*
X143524825Y-44961216D01*
X143561375Y-45039985D01*
X143595685Y-45112423D01*
X143626448Y-45175880D01*
X143652352Y-45227708D01*
X143672090Y-45265259D01*
X143684350Y-45285884D01*
X143686776Y-45288733D01*
X143717817Y-45301302D01*
X143752879Y-45299619D01*
X143781000Y-45284332D01*
X143782146Y-45283089D01*
X143793332Y-45266154D01*
X143812096Y-45233170D01*
X143836125Y-45188380D01*
X143863103Y-45136032D01*
X143872799Y-45116742D01*
X143945986Y-44970150D01*
X144025760Y-45129393D01*
X144054233Y-45184415D01*
X144080650Y-45232132D01*
X144102852Y-45268893D01*
X144118681Y-45291044D01*
X144124046Y-45295741D01*
X144165743Y-45302102D01*
X144200151Y-45288733D01*
X144210272Y-45274446D01*
X144227786Y-45242692D01*
X144251265Y-45196597D01*
X144279280Y-45139285D01*
X144310401Y-45073880D01*
X144343201Y-45003507D01*
X144376250Y-44931291D01*
X144408119Y-44860355D01*
X144437381Y-44793825D01*
X144462605Y-44734826D01*
X144482364Y-44686481D01*
X144495228Y-44651915D01*
X144499769Y-44634253D01*
X144499723Y-44633613D01*
X144488674Y-44611388D01*
X144466590Y-44588753D01*
X144465290Y-44587768D01*
X144438147Y-44572425D01*
X144413042Y-44572574D01*
X144403632Y-44575466D01*
X144392166Y-44581718D01*
X144379990Y-44594014D01*
X144365643Y-44614908D01*
X144347664Y-44646949D01*
X144324593Y-44692688D01*
X144294970Y-44754677D01*
X144268255Y-44811898D01*
X144237520Y-44878226D01*
X144209979Y-44937874D01*
X144187062Y-44987725D01*
X144170202Y-45024664D01*
X144160827Y-45045573D01*
X144159460Y-45048845D01*
X144153311Y-45043497D01*
X144139178Y-45021109D01*
X144118943Y-44984946D01*
X144094485Y-44938277D01*
X144084752Y-44919022D01*
X144051783Y-44854004D01*
X144026357Y-44806654D01*
X144006388Y-44774219D01*
X143989790Y-44753946D01*
X143974476Y-44743082D01*
X143958360Y-44738875D01*
X143947857Y-44738400D01*
X143929330Y-44740042D01*
X143913096Y-44746831D01*
X143896965Y-44761566D01*
X143878749Y-44787044D01*
X143856261Y-44826061D01*
X143827311Y-44881414D01*
X143811338Y-44912903D01*
X143785430Y-44963087D01*
X143762833Y-45004704D01*
X143745542Y-45034242D01*
X143735550Y-45048189D01*
X143734191Y-45048770D01*
X143727739Y-45037793D01*
X143713292Y-45009290D01*
X143692297Y-44966244D01*
X143666203Y-44911638D01*
X143636454Y-44848454D01*
X143621820Y-44817071D01*
X143583750Y-44736078D01*
X143553095Y-44673756D01*
X143528263Y-44628071D01*
X143507663Y-44596989D01*
X143489702Y-44578478D01*
X143472790Y-44570504D01*
X143455335Y-44571034D01*
X143455335Y-44571034D01*
G37*
X143455335Y-44571034D02*
X143435745Y-44578035D01*
X143434990Y-44578377D01*
X143408387Y-44598678D01*
X143393730Y-44619561D01*
X143390862Y-44629352D01*
X143391004Y-44642361D01*
X143395039Y-44660895D01*
X143403854Y-44687257D01*
X143418331Y-44723752D01*
X143439355Y-44772687D01*
X143467812Y-44836365D01*
X143504585Y-44917093D01*
X143524825Y-44961216D01*
X143561375Y-45039985D01*
X143595685Y-45112423D01*
X143626448Y-45175880D01*
X143652352Y-45227708D01*
X143672090Y-45265259D01*
X143684350Y-45285884D01*
X143686776Y-45288733D01*
X143717817Y-45301302D01*
X143752879Y-45299619D01*
X143781000Y-45284332D01*
X143782146Y-45283089D01*
X143793332Y-45266154D01*
X143812096Y-45233170D01*
X143836125Y-45188380D01*
X143863103Y-45136032D01*
X143872799Y-45116742D01*
X143945986Y-44970150D01*
X144025760Y-45129393D01*
X144054233Y-45184415D01*
X144080650Y-45232132D01*
X144102852Y-45268893D01*
X144118681Y-45291044D01*
X144124046Y-45295741D01*
X144165743Y-45302102D01*
X144200151Y-45288733D01*
X144210272Y-45274446D01*
X144227786Y-45242692D01*
X144251265Y-45196597D01*
X144279280Y-45139285D01*
X144310401Y-45073880D01*
X144343201Y-45003507D01*
X144376250Y-44931291D01*
X144408119Y-44860355D01*
X144437381Y-44793825D01*
X144462605Y-44734826D01*
X144482364Y-44686481D01*
X144495228Y-44651915D01*
X144499769Y-44634253D01*
X144499723Y-44633613D01*
X144488674Y-44611388D01*
X144466590Y-44588753D01*
X144465290Y-44587768D01*
X144438147Y-44572425D01*
X144413042Y-44572574D01*
X144403632Y-44575466D01*
X144392166Y-44581718D01*
X144379990Y-44594014D01*
X144365643Y-44614908D01*
X144347664Y-44646949D01*
X144324593Y-44692688D01*
X144294970Y-44754677D01*
X144268255Y-44811898D01*
X144237520Y-44878226D01*
X144209979Y-44937874D01*
X144187062Y-44987725D01*
X144170202Y-45024664D01*
X144160827Y-45045573D01*
X144159460Y-45048845D01*
X144153311Y-45043497D01*
X144139178Y-45021109D01*
X144118943Y-44984946D01*
X144094485Y-44938277D01*
X144084752Y-44919022D01*
X144051783Y-44854004D01*
X144026357Y-44806654D01*
X144006388Y-44774219D01*
X143989790Y-44753946D01*
X143974476Y-44743082D01*
X143958360Y-44738875D01*
X143947857Y-44738400D01*
X143929330Y-44740042D01*
X143913096Y-44746831D01*
X143896965Y-44761566D01*
X143878749Y-44787044D01*
X143856261Y-44826061D01*
X143827311Y-44881414D01*
X143811338Y-44912903D01*
X143785430Y-44963087D01*
X143762833Y-45004704D01*
X143745542Y-45034242D01*
X143735550Y-45048189D01*
X143734191Y-45048770D01*
X143727739Y-45037793D01*
X143713292Y-45009290D01*
X143692297Y-44966244D01*
X143666203Y-44911638D01*
X143636454Y-44848454D01*
X143621820Y-44817071D01*
X143583750Y-44736078D01*
X143553095Y-44673756D01*
X143528263Y-44628071D01*
X143507663Y-44596989D01*
X143489702Y-44578478D01*
X143472790Y-44570504D01*
X143455335Y-44571034D01*
G36*
X146181691Y-44569275D02*
G01*
X146052712Y-44573636D01*
X145943009Y-44586861D01*
X145850774Y-44609741D01*
X145774198Y-44643070D01*
X145711473Y-44687638D01*
X145660788Y-44744236D01*
X145620337Y-44813658D01*
X145619541Y-44815351D01*
X145595399Y-44877483D01*
X145586797Y-44932509D01*
X145593769Y-44987887D01*
X145616346Y-45051073D01*
X145620628Y-45060689D01*
X145649828Y-45116966D01*
X145682644Y-45160451D01*
X145724998Y-45197417D01*
X145782810Y-45234135D01*
X145786169Y-45236052D01*
X145836496Y-45260227D01*
X145893379Y-45278282D01*
X145960473Y-45290839D01*
X146041435Y-45298522D01*
X146139918Y-45301953D01*
X146174714Y-45302251D01*
X146340406Y-45302845D01*
X146363803Y-45273100D01*
X146370743Y-45263319D01*
X146376158Y-45251897D01*
X146380235Y-45236095D01*
X146383163Y-45213175D01*
X146385133Y-45180396D01*
X146385775Y-45156089D01*
X146229156Y-45156089D01*
X146135274Y-45156089D01*
X146080336Y-45154483D01*
X146023940Y-45150255D01*
X145977655Y-45144292D01*
X145974861Y-45143790D01*
X145892652Y-45121736D01*
X145828886Y-45088600D01*
X145781548Y-45042847D01*
X145748618Y-44982939D01*
X145742892Y-44967061D01*
X145737279Y-44942333D01*
X145739709Y-44917902D01*
X145751533Y-44885400D01*
X145758660Y-44869434D01*
X145782000Y-44827006D01*
X145810120Y-44797240D01*
X145841060Y-44776511D01*
X145903034Y-44749537D01*
X145982349Y-44729998D01*
X146074747Y-44718746D01*
X146141667Y-44716270D01*
X146229156Y-44715822D01*
X146229156Y-45156089D01*
X146385775Y-45156089D01*
X146386332Y-45135021D01*
X146386950Y-45074311D01*
X146387175Y-44995526D01*
X146387200Y-44933920D01*
X146387200Y-44624485D01*
X146359491Y-44596776D01*
X146347194Y-44585544D01*
X146333897Y-44577853D01*
X146315328Y-44573040D01*
X146287214Y-44570446D01*
X146245283Y-44569410D01*
X146185263Y-44569270D01*
X146181691Y-44569275D01*
X146181691Y-44569275D01*
G37*
X146181691Y-44569275D02*
X146052712Y-44573636D01*
X145943009Y-44586861D01*
X145850774Y-44609741D01*
X145774198Y-44643070D01*
X145711473Y-44687638D01*
X145660788Y-44744236D01*
X145620337Y-44813658D01*
X145619541Y-44815351D01*
X145595399Y-44877483D01*
X145586797Y-44932509D01*
X145593769Y-44987887D01*
X145616346Y-45051073D01*
X145620628Y-45060689D01*
X145649828Y-45116966D01*
X145682644Y-45160451D01*
X145724998Y-45197417D01*
X145782810Y-45234135D01*
X145786169Y-45236052D01*
X145836496Y-45260227D01*
X145893379Y-45278282D01*
X145960473Y-45290839D01*
X146041435Y-45298522D01*
X146139918Y-45301953D01*
X146174714Y-45302251D01*
X146340406Y-45302845D01*
X146363803Y-45273100D01*
X146370743Y-45263319D01*
X146376158Y-45251897D01*
X146380235Y-45236095D01*
X146383163Y-45213175D01*
X146385133Y-45180396D01*
X146385775Y-45156089D01*
X146229156Y-45156089D01*
X146135274Y-45156089D01*
X146080336Y-45154483D01*
X146023940Y-45150255D01*
X145977655Y-45144292D01*
X145974861Y-45143790D01*
X145892652Y-45121736D01*
X145828886Y-45088600D01*
X145781548Y-45042847D01*
X145748618Y-44982939D01*
X145742892Y-44967061D01*
X145737279Y-44942333D01*
X145739709Y-44917902D01*
X145751533Y-44885400D01*
X145758660Y-44869434D01*
X145782000Y-44827006D01*
X145810120Y-44797240D01*
X145841060Y-44776511D01*
X145903034Y-44749537D01*
X145982349Y-44729998D01*
X146074747Y-44718746D01*
X146141667Y-44716270D01*
X146229156Y-44715822D01*
X146229156Y-45156089D01*
X146385775Y-45156089D01*
X146386332Y-45135021D01*
X146386950Y-45074311D01*
X146387175Y-44995526D01*
X146387200Y-44933920D01*
X146387200Y-44624485D01*
X146359491Y-44596776D01*
X146347194Y-44585544D01*
X146333897Y-44577853D01*
X146315328Y-44573040D01*
X146287214Y-44570446D01*
X146245283Y-44569410D01*
X146185263Y-44569270D01*
X146181691Y-44569275D01*
G36*
X146969657Y-44569260D02*
G01*
X146893299Y-44570174D01*
X146834783Y-44572311D01*
X146791745Y-44576175D01*
X146761817Y-44582267D01*
X146742632Y-44591090D01*
X146731824Y-44603146D01*
X146727027Y-44618939D01*
X146725873Y-44638970D01*
X146725867Y-44641335D01*
X146726869Y-44663992D01*
X146731604Y-44681503D01*
X146742667Y-44694574D01*
X146762652Y-44703913D01*
X146794154Y-44710227D01*
X146839768Y-44714222D01*
X146902087Y-44716606D01*
X146983707Y-44718086D01*
X147008723Y-44718414D01*
X147250800Y-44721467D01*
X147254186Y-44786378D01*
X147257571Y-44851289D01*
X147089424Y-44851289D01*
X147023734Y-44851531D01*
X146976828Y-44852556D01*
X146944917Y-44854811D01*
X146924209Y-44858742D01*
X146910916Y-44864798D01*
X146901245Y-44873424D01*
X146901183Y-44873493D01*
X146883644Y-44907112D01*
X146884278Y-44943448D01*
X146902686Y-44974423D01*
X146906329Y-44977607D01*
X146919259Y-44985812D01*
X146936976Y-44991521D01*
X146963430Y-44995162D01*
X147002568Y-44997167D01*
X147058338Y-44997964D01*
X147094006Y-44998045D01*
X147256445Y-44998045D01*
X147256445Y-45156089D01*
X147009839Y-45156089D01*
X146928420Y-45156231D01*
X146866590Y-45156814D01*
X146821363Y-45158068D01*
X146789752Y-45160227D01*
X146768769Y-45163523D01*
X146755427Y-45168189D01*
X146746739Y-45174457D01*
X146744550Y-45176733D01*
X146728386Y-45208280D01*
X146727203Y-45244168D01*
X146740464Y-45275285D01*
X146750957Y-45285271D01*
X146761871Y-45290769D01*
X146778783Y-45295022D01*
X146804367Y-45298180D01*
X146841299Y-45300392D01*
X146892254Y-45301806D01*
X146959906Y-45302572D01*
X147046931Y-45302838D01*
X147066606Y-45302845D01*
X147155089Y-45302787D01*
X147223773Y-45302467D01*
X147275436Y-45301667D01*
X147312855Y-45300167D01*
X147338810Y-45297749D01*
X147356078Y-45294194D01*
X147367438Y-45289282D01*
X147375668Y-45282795D01*
X147380183Y-45278138D01*
X147386979Y-45269889D01*
X147392288Y-45259669D01*
X147396294Y-45244800D01*
X147399179Y-45222602D01*
X147401126Y-45190393D01*
X147402319Y-45145496D01*
X147402939Y-45085228D01*
X147403171Y-45006911D01*
X147403200Y-44940994D01*
X147403129Y-44848628D01*
X147402792Y-44776117D01*
X147402002Y-44720737D01*
X147400574Y-44679765D01*
X147398321Y-44650478D01*
X147395057Y-44630153D01*
X147390596Y-44616066D01*
X147384752Y-44605495D01*
X147379803Y-44598811D01*
X147356406Y-44569067D01*
X147066226Y-44569067D01*
X146969657Y-44569260D01*
X146969657Y-44569260D01*
G37*
X146969657Y-44569260D02*
X146893299Y-44570174D01*
X146834783Y-44572311D01*
X146791745Y-44576175D01*
X146761817Y-44582267D01*
X146742632Y-44591090D01*
X146731824Y-44603146D01*
X146727027Y-44618939D01*
X146725873Y-44638970D01*
X146725867Y-44641335D01*
X146726869Y-44663992D01*
X146731604Y-44681503D01*
X146742667Y-44694574D01*
X146762652Y-44703913D01*
X146794154Y-44710227D01*
X146839768Y-44714222D01*
X146902087Y-44716606D01*
X146983707Y-44718086D01*
X147008723Y-44718414D01*
X147250800Y-44721467D01*
X147254186Y-44786378D01*
X147257571Y-44851289D01*
X147089424Y-44851289D01*
X147023734Y-44851531D01*
X146976828Y-44852556D01*
X146944917Y-44854811D01*
X146924209Y-44858742D01*
X146910916Y-44864798D01*
X146901245Y-44873424D01*
X146901183Y-44873493D01*
X146883644Y-44907112D01*
X146884278Y-44943448D01*
X146902686Y-44974423D01*
X146906329Y-44977607D01*
X146919259Y-44985812D01*
X146936976Y-44991521D01*
X146963430Y-44995162D01*
X147002568Y-44997167D01*
X147058338Y-44997964D01*
X147094006Y-44998045D01*
X147256445Y-44998045D01*
X147256445Y-45156089D01*
X147009839Y-45156089D01*
X146928420Y-45156231D01*
X146866590Y-45156814D01*
X146821363Y-45158068D01*
X146789752Y-45160227D01*
X146768769Y-45163523D01*
X146755427Y-45168189D01*
X146746739Y-45174457D01*
X146744550Y-45176733D01*
X146728386Y-45208280D01*
X146727203Y-45244168D01*
X146740464Y-45275285D01*
X146750957Y-45285271D01*
X146761871Y-45290769D01*
X146778783Y-45295022D01*
X146804367Y-45298180D01*
X146841299Y-45300392D01*
X146892254Y-45301806D01*
X146959906Y-45302572D01*
X147046931Y-45302838D01*
X147066606Y-45302845D01*
X147155089Y-45302787D01*
X147223773Y-45302467D01*
X147275436Y-45301667D01*
X147312855Y-45300167D01*
X147338810Y-45297749D01*
X147356078Y-45294194D01*
X147367438Y-45289282D01*
X147375668Y-45282795D01*
X147380183Y-45278138D01*
X147386979Y-45269889D01*
X147392288Y-45259669D01*
X147396294Y-45244800D01*
X147399179Y-45222602D01*
X147401126Y-45190393D01*
X147402319Y-45145496D01*
X147402939Y-45085228D01*
X147403171Y-45006911D01*
X147403200Y-44940994D01*
X147403129Y-44848628D01*
X147402792Y-44776117D01*
X147402002Y-44720737D01*
X147400574Y-44679765D01*
X147398321Y-44650478D01*
X147395057Y-44630153D01*
X147390596Y-44616066D01*
X147384752Y-44605495D01*
X147379803Y-44598811D01*
X147356406Y-44569067D01*
X147066226Y-44569067D01*
X146969657Y-44569260D01*
G36*
X148500114Y-44573448D02*
G01*
X148476548Y-44587273D01*
X148445735Y-44609881D01*
X148406078Y-44642338D01*
X148355980Y-44685708D01*
X148293843Y-44741058D01*
X148218072Y-44809451D01*
X148131334Y-44888084D01*
X147950711Y-45051878D01*
X147945067Y-44832029D01*
X147943029Y-44756351D01*
X147941063Y-44699994D01*
X147938734Y-44659706D01*
X147935606Y-44632235D01*
X147931245Y-44614329D01*
X147925216Y-44602737D01*
X147917084Y-44594208D01*
X147912772Y-44590623D01*
X147878241Y-44571670D01*
X147845383Y-44574441D01*
X147819318Y-44590633D01*
X147792667Y-44612199D01*
X147789352Y-44927151D01*
X147788435Y-45019779D01*
X147787968Y-45092544D01*
X147788113Y-45148161D01*
X147789032Y-45189342D01*
X147790887Y-45218803D01*
X147793839Y-45239255D01*
X147798050Y-45253413D01*
X147803682Y-45263991D01*
X147809927Y-45272474D01*
X147823439Y-45288207D01*
X147836883Y-45298636D01*
X147852124Y-45302639D01*
X147871026Y-45299094D01*
X147895455Y-45286879D01*
X147927273Y-45264871D01*
X147968348Y-45231949D01*
X148020542Y-45186991D01*
X148085722Y-45128875D01*
X148159556Y-45062099D01*
X148424845Y-44821458D01*
X148430489Y-45040589D01*
X148432531Y-45116128D01*
X148434502Y-45172354D01*
X148436839Y-45212524D01*
X148439981Y-45239896D01*
X148444364Y-45257728D01*
X148450424Y-45269279D01*
X148458600Y-45277807D01*
X148462784Y-45281282D01*
X148499765Y-45300372D01*
X148534708Y-45297493D01*
X148565136Y-45273100D01*
X148572097Y-45263286D01*
X148577523Y-45251826D01*
X148581603Y-45235968D01*
X148584529Y-45212963D01*
X148586492Y-45180062D01*
X148587683Y-45134516D01*
X148588292Y-45073573D01*
X148588511Y-44994486D01*
X148588534Y-44935956D01*
X148588460Y-44844407D01*
X148588113Y-44772687D01*
X148587301Y-44718045D01*
X148585833Y-44677732D01*
X148583519Y-44648998D01*
X148580167Y-44629093D01*
X148575588Y-44615268D01*
X148569589Y-44604772D01*
X148565136Y-44598811D01*
X148553850Y-44584691D01*
X148543301Y-44574029D01*
X148531893Y-44567892D01*
X148518030Y-44567343D01*
X148500114Y-44573448D01*
X148500114Y-44573448D01*
G37*
X148500114Y-44573448D02*
X148476548Y-44587273D01*
X148445735Y-44609881D01*
X148406078Y-44642338D01*
X148355980Y-44685708D01*
X148293843Y-44741058D01*
X148218072Y-44809451D01*
X148131334Y-44888084D01*
X147950711Y-45051878D01*
X147945067Y-44832029D01*
X147943029Y-44756351D01*
X147941063Y-44699994D01*
X147938734Y-44659706D01*
X147935606Y-44632235D01*
X147931245Y-44614329D01*
X147925216Y-44602737D01*
X147917084Y-44594208D01*
X147912772Y-44590623D01*
X147878241Y-44571670D01*
X147845383Y-44574441D01*
X147819318Y-44590633D01*
X147792667Y-44612199D01*
X147789352Y-44927151D01*
X147788435Y-45019779D01*
X147787968Y-45092544D01*
X147788113Y-45148161D01*
X147789032Y-45189342D01*
X147790887Y-45218803D01*
X147793839Y-45239255D01*
X147798050Y-45253413D01*
X147803682Y-45263991D01*
X147809927Y-45272474D01*
X147823439Y-45288207D01*
X147836883Y-45298636D01*
X147852124Y-45302639D01*
X147871026Y-45299094D01*
X147895455Y-45286879D01*
X147927273Y-45264871D01*
X147968348Y-45231949D01*
X148020542Y-45186991D01*
X148085722Y-45128875D01*
X148159556Y-45062099D01*
X148424845Y-44821458D01*
X148430489Y-45040589D01*
X148432531Y-45116128D01*
X148434502Y-45172354D01*
X148436839Y-45212524D01*
X148439981Y-45239896D01*
X148444364Y-45257728D01*
X148450424Y-45269279D01*
X148458600Y-45277807D01*
X148462784Y-45281282D01*
X148499765Y-45300372D01*
X148534708Y-45297493D01*
X148565136Y-45273100D01*
X148572097Y-45263286D01*
X148577523Y-45251826D01*
X148581603Y-45235968D01*
X148584529Y-45212963D01*
X148586492Y-45180062D01*
X148587683Y-45134516D01*
X148588292Y-45073573D01*
X148588511Y-44994486D01*
X148588534Y-44935956D01*
X148588460Y-44844407D01*
X148588113Y-44772687D01*
X148587301Y-44718045D01*
X148585833Y-44677732D01*
X148583519Y-44648998D01*
X148580167Y-44629093D01*
X148575588Y-44615268D01*
X148569589Y-44604772D01*
X148565136Y-44598811D01*
X148553850Y-44584691D01*
X148543301Y-44574029D01*
X148531893Y-44567892D01*
X148518030Y-44567343D01*
X148500114Y-44573448D01*
G36*
X149150081Y-44574599D02*
G01*
X149081565Y-44586095D01*
X149028943Y-44603967D01*
X148994708Y-44627499D01*
X148985379Y-44640924D01*
X148975893Y-44672148D01*
X148982277Y-44700395D01*
X149002430Y-44727182D01*
X149033745Y-44739713D01*
X149079183Y-44738696D01*
X149114326Y-44731906D01*
X149192419Y-44718971D01*
X149272226Y-44717742D01*
X149361555Y-44728241D01*
X149386229Y-44732690D01*
X149469291Y-44756108D01*
X149534273Y-44790945D01*
X149580461Y-44836604D01*
X149607145Y-44892494D01*
X149612663Y-44921388D01*
X149609051Y-44980012D01*
X149585729Y-45031879D01*
X149544824Y-45075978D01*
X149488459Y-45111299D01*
X149418760Y-45136829D01*
X149337852Y-45151559D01*
X149247860Y-45154478D01*
X149150910Y-45144575D01*
X149145436Y-45143641D01*
X149106875Y-45136459D01*
X149085494Y-45129521D01*
X149076227Y-45119227D01*
X149074006Y-45101976D01*
X149073956Y-45092841D01*
X149073956Y-45054489D01*
X149142431Y-45054489D01*
X149202900Y-45050347D01*
X149244165Y-45037147D01*
X149268175Y-45013730D01*
X149276877Y-44978936D01*
X149276983Y-44974394D01*
X149271892Y-44944654D01*
X149254433Y-44923419D01*
X149221939Y-44909366D01*
X149171743Y-44901173D01*
X149123123Y-44898161D01*
X149052456Y-44896433D01*
X149001198Y-44899070D01*
X148966239Y-44908800D01*
X148944470Y-44928353D01*
X148932780Y-44960456D01*
X148928060Y-45007838D01*
X148927200Y-45070071D01*
X148928609Y-45139535D01*
X148932848Y-45186786D01*
X148939936Y-45212012D01*
X148941311Y-45213988D01*
X148980228Y-45245508D01*
X149037286Y-45270470D01*
X149108869Y-45288340D01*
X149191358Y-45298586D01*
X149281139Y-45300673D01*
X149374592Y-45294068D01*
X149429556Y-45285956D01*
X149515766Y-45261554D01*
X149595892Y-45221662D01*
X149662977Y-45169887D01*
X149673173Y-45159539D01*
X149706302Y-45116035D01*
X149736194Y-45062118D01*
X149759357Y-45005592D01*
X149772298Y-44954259D01*
X149773858Y-44934544D01*
X149767218Y-44893419D01*
X149749568Y-44842252D01*
X149724297Y-44788394D01*
X149694789Y-44739195D01*
X149668719Y-44706334D01*
X149607765Y-44657452D01*
X149528969Y-44618545D01*
X149435157Y-44590494D01*
X149329150Y-44574179D01*
X149232000Y-44570192D01*
X149150081Y-44574599D01*
X149150081Y-44574599D01*
G37*
X149150081Y-44574599D02*
X149081565Y-44586095D01*
X149028943Y-44603967D01*
X148994708Y-44627499D01*
X148985379Y-44640924D01*
X148975893Y-44672148D01*
X148982277Y-44700395D01*
X149002430Y-44727182D01*
X149033745Y-44739713D01*
X149079183Y-44738696D01*
X149114326Y-44731906D01*
X149192419Y-44718971D01*
X149272226Y-44717742D01*
X149361555Y-44728241D01*
X149386229Y-44732690D01*
X149469291Y-44756108D01*
X149534273Y-44790945D01*
X149580461Y-44836604D01*
X149607145Y-44892494D01*
X149612663Y-44921388D01*
X149609051Y-44980012D01*
X149585729Y-45031879D01*
X149544824Y-45075978D01*
X149488459Y-45111299D01*
X149418760Y-45136829D01*
X149337852Y-45151559D01*
X149247860Y-45154478D01*
X149150910Y-45144575D01*
X149145436Y-45143641D01*
X149106875Y-45136459D01*
X149085494Y-45129521D01*
X149076227Y-45119227D01*
X149074006Y-45101976D01*
X149073956Y-45092841D01*
X149073956Y-45054489D01*
X149142431Y-45054489D01*
X149202900Y-45050347D01*
X149244165Y-45037147D01*
X149268175Y-45013730D01*
X149276877Y-44978936D01*
X149276983Y-44974394D01*
X149271892Y-44944654D01*
X149254433Y-44923419D01*
X149221939Y-44909366D01*
X149171743Y-44901173D01*
X149123123Y-44898161D01*
X149052456Y-44896433D01*
X149001198Y-44899070D01*
X148966239Y-44908800D01*
X148944470Y-44928353D01*
X148932780Y-44960456D01*
X148928060Y-45007838D01*
X148927200Y-45070071D01*
X148928609Y-45139535D01*
X148932848Y-45186786D01*
X148939936Y-45212012D01*
X148941311Y-45213988D01*
X148980228Y-45245508D01*
X149037286Y-45270470D01*
X149108869Y-45288340D01*
X149191358Y-45298586D01*
X149281139Y-45300673D01*
X149374592Y-45294068D01*
X149429556Y-45285956D01*
X149515766Y-45261554D01*
X149595892Y-45221662D01*
X149662977Y-45169887D01*
X149673173Y-45159539D01*
X149706302Y-45116035D01*
X149736194Y-45062118D01*
X149759357Y-45005592D01*
X149772298Y-44954259D01*
X149773858Y-44934544D01*
X149767218Y-44893419D01*
X149749568Y-44842252D01*
X149724297Y-44788394D01*
X149694789Y-44739195D01*
X149668719Y-44706334D01*
X149607765Y-44657452D01*
X149528969Y-44618545D01*
X149435157Y-44590494D01*
X149329150Y-44574179D01*
X149232000Y-44570192D01*
X149150081Y-44574599D01*
G36*
X150123822Y-44591645D02*
G01*
X150117242Y-44599218D01*
X150112079Y-44608987D01*
X150108164Y-44623571D01*
X150105324Y-44645585D01*
X150103387Y-44677648D01*
X150102183Y-44722375D01*
X150101539Y-44782385D01*
X150101284Y-44860294D01*
X150101245Y-44935956D01*
X150101314Y-45029802D01*
X150101638Y-45103689D01*
X150102386Y-45160232D01*
X150103732Y-45202049D01*
X150105846Y-45231757D01*
X150108900Y-45251973D01*
X150113066Y-45265314D01*
X150118516Y-45274398D01*
X150123822Y-45280267D01*
X150156826Y-45299947D01*
X150191991Y-45298181D01*
X150223455Y-45276717D01*
X150230684Y-45268337D01*
X150236334Y-45258614D01*
X150240599Y-45244861D01*
X150243673Y-45224389D01*
X150245752Y-45194512D01*
X150247030Y-45152541D01*
X150247701Y-45095789D01*
X150247959Y-45021567D01*
X150248000Y-44937537D01*
X150248000Y-44624485D01*
X150220291Y-44596776D01*
X150186137Y-44573463D01*
X150153006Y-44572623D01*
X150123822Y-44591645D01*
X150123822Y-44591645D01*
G37*
X150123822Y-44591645D02*
X150117242Y-44599218D01*
X150112079Y-44608987D01*
X150108164Y-44623571D01*
X150105324Y-44645585D01*
X150103387Y-44677648D01*
X150102183Y-44722375D01*
X150101539Y-44782385D01*
X150101284Y-44860294D01*
X150101245Y-44935956D01*
X150101314Y-45029802D01*
X150101638Y-45103689D01*
X150102386Y-45160232D01*
X150103732Y-45202049D01*
X150105846Y-45231757D01*
X150108900Y-45251973D01*
X150113066Y-45265314D01*
X150118516Y-45274398D01*
X150123822Y-45280267D01*
X150156826Y-45299947D01*
X150191991Y-45298181D01*
X150223455Y-45276717D01*
X150230684Y-45268337D01*
X150236334Y-45258614D01*
X150240599Y-45244861D01*
X150243673Y-45224389D01*
X150245752Y-45194512D01*
X150247030Y-45152541D01*
X150247701Y-45095789D01*
X150247959Y-45021567D01*
X150248000Y-44937537D01*
X150248000Y-44624485D01*
X150220291Y-44596776D01*
X150186137Y-44573463D01*
X150153006Y-44572623D01*
X150123822Y-44591645D01*
G36*
X150891703Y-44570351D02*
G01*
X150816888Y-44575581D01*
X150747306Y-44583750D01*
X150687002Y-44594550D01*
X150640020Y-44607673D01*
X150610406Y-44622813D01*
X150605860Y-44627269D01*
X150590054Y-44661850D01*
X150594847Y-44697351D01*
X150619364Y-44727725D01*
X150620534Y-44728596D01*
X150634954Y-44737954D01*
X150650008Y-44742876D01*
X150671005Y-44743473D01*
X150703257Y-44739861D01*
X150752073Y-44732154D01*
X150756000Y-44731505D01*
X150828739Y-44722569D01*
X150907217Y-44718161D01*
X150985927Y-44718119D01*
X151059361Y-44722279D01*
X151122011Y-44730479D01*
X151168370Y-44742557D01*
X151171416Y-44743771D01*
X151205048Y-44762615D01*
X151216864Y-44781685D01*
X151207614Y-44800439D01*
X151178047Y-44818337D01*
X151128911Y-44834837D01*
X151060957Y-44849396D01*
X151015645Y-44856406D01*
X150921456Y-44869889D01*
X150846544Y-44882214D01*
X150787717Y-44894449D01*
X150741785Y-44907661D01*
X150705555Y-44922917D01*
X150675838Y-44941285D01*
X150649442Y-44963831D01*
X150628230Y-44985971D01*
X150603065Y-45016819D01*
X150590681Y-45043345D01*
X150586808Y-45076026D01*
X150586667Y-45087995D01*
X150589576Y-45127712D01*
X150601202Y-45157259D01*
X150621323Y-45183486D01*
X150662216Y-45223576D01*
X150707817Y-45254149D01*
X150761513Y-45276203D01*
X150826692Y-45290735D01*
X150906744Y-45298741D01*
X151005057Y-45301218D01*
X151021289Y-45301177D01*
X151086849Y-45299818D01*
X151151866Y-45296730D01*
X151209252Y-45292356D01*
X151251922Y-45287140D01*
X151255372Y-45286541D01*
X151297796Y-45276491D01*
X151333780Y-45263796D01*
X151354150Y-45252190D01*
X151373107Y-45221572D01*
X151374427Y-45185918D01*
X151358085Y-45154144D01*
X151354429Y-45150551D01*
X151339315Y-45139876D01*
X151320415Y-45135276D01*
X151291162Y-45136059D01*
X151255651Y-45140127D01*
X151215970Y-45143762D01*
X151160345Y-45146828D01*
X151095406Y-45149053D01*
X151027785Y-45150164D01*
X151010000Y-45150237D01*
X150942128Y-45149964D01*
X150892454Y-45148646D01*
X150856610Y-45145827D01*
X150830224Y-45141050D01*
X150808926Y-45133857D01*
X150796126Y-45127867D01*
X150768000Y-45111233D01*
X150750068Y-45096168D01*
X150747447Y-45091897D01*
X150752976Y-45074263D01*
X150779260Y-45057192D01*
X150824478Y-45041458D01*
X150886808Y-45027838D01*
X150905171Y-45024804D01*
X151001090Y-45009738D01*
X151077641Y-44997146D01*
X151137780Y-44986111D01*
X151184460Y-44975720D01*
X151220637Y-44965056D01*
X151249265Y-44953205D01*
X151273298Y-44939251D01*
X151295692Y-44922281D01*
X151319402Y-44901378D01*
X151327380Y-44894049D01*
X151355353Y-44866699D01*
X151370160Y-44845029D01*
X151375952Y-44820232D01*
X151376889Y-44788983D01*
X151366575Y-44727705D01*
X151335752Y-44675640D01*
X151284595Y-44632958D01*
X151213283Y-44599825D01*
X151162400Y-44584964D01*
X151107100Y-44575366D01*
X151040853Y-44569936D01*
X150967706Y-44568367D01*
X150891703Y-44570351D01*
X150891703Y-44570351D01*
G37*
X150891703Y-44570351D02*
X150816888Y-44575581D01*
X150747306Y-44583750D01*
X150687002Y-44594550D01*
X150640020Y-44607673D01*
X150610406Y-44622813D01*
X150605860Y-44627269D01*
X150590054Y-44661850D01*
X150594847Y-44697351D01*
X150619364Y-44727725D01*
X150620534Y-44728596D01*
X150634954Y-44737954D01*
X150650008Y-44742876D01*
X150671005Y-44743473D01*
X150703257Y-44739861D01*
X150752073Y-44732154D01*
X150756000Y-44731505D01*
X150828739Y-44722569D01*
X150907217Y-44718161D01*
X150985927Y-44718119D01*
X151059361Y-44722279D01*
X151122011Y-44730479D01*
X151168370Y-44742557D01*
X151171416Y-44743771D01*
X151205048Y-44762615D01*
X151216864Y-44781685D01*
X151207614Y-44800439D01*
X151178047Y-44818337D01*
X151128911Y-44834837D01*
X151060957Y-44849396D01*
X151015645Y-44856406D01*
X150921456Y-44869889D01*
X150846544Y-44882214D01*
X150787717Y-44894449D01*
X150741785Y-44907661D01*
X150705555Y-44922917D01*
X150675838Y-44941285D01*
X150649442Y-44963831D01*
X150628230Y-44985971D01*
X150603065Y-45016819D01*
X150590681Y-45043345D01*
X150586808Y-45076026D01*
X150586667Y-45087995D01*
X150589576Y-45127712D01*
X150601202Y-45157259D01*
X150621323Y-45183486D01*
X150662216Y-45223576D01*
X150707817Y-45254149D01*
X150761513Y-45276203D01*
X150826692Y-45290735D01*
X150906744Y-45298741D01*
X151005057Y-45301218D01*
X151021289Y-45301177D01*
X151086849Y-45299818D01*
X151151866Y-45296730D01*
X151209252Y-45292356D01*
X151251922Y-45287140D01*
X151255372Y-45286541D01*
X151297796Y-45276491D01*
X151333780Y-45263796D01*
X151354150Y-45252190D01*
X151373107Y-45221572D01*
X151374427Y-45185918D01*
X151358085Y-45154144D01*
X151354429Y-45150551D01*
X151339315Y-45139876D01*
X151320415Y-45135276D01*
X151291162Y-45136059D01*
X151255651Y-45140127D01*
X151215970Y-45143762D01*
X151160345Y-45146828D01*
X151095406Y-45149053D01*
X151027785Y-45150164D01*
X151010000Y-45150237D01*
X150942128Y-45149964D01*
X150892454Y-45148646D01*
X150856610Y-45145827D01*
X150830224Y-45141050D01*
X150808926Y-45133857D01*
X150796126Y-45127867D01*
X150768000Y-45111233D01*
X150750068Y-45096168D01*
X150747447Y-45091897D01*
X150752976Y-45074263D01*
X150779260Y-45057192D01*
X150824478Y-45041458D01*
X150886808Y-45027838D01*
X150905171Y-45024804D01*
X151001090Y-45009738D01*
X151077641Y-44997146D01*
X151137780Y-44986111D01*
X151184460Y-44975720D01*
X151220637Y-44965056D01*
X151249265Y-44953205D01*
X151273298Y-44939251D01*
X151295692Y-44922281D01*
X151319402Y-44901378D01*
X151327380Y-44894049D01*
X151355353Y-44866699D01*
X151370160Y-44845029D01*
X151375952Y-44820232D01*
X151376889Y-44788983D01*
X151366575Y-44727705D01*
X151335752Y-44675640D01*
X151284595Y-44632958D01*
X151213283Y-44599825D01*
X151162400Y-44584964D01*
X151107100Y-44575366D01*
X151040853Y-44569936D01*
X150967706Y-44568367D01*
X150891703Y-44570351D01*
G36*
X151912794Y-44569146D02*
G01*
X151843386Y-44569518D01*
X151790997Y-44570385D01*
X151752847Y-44571946D01*
X151726159Y-44574403D01*
X151708153Y-44577957D01*
X151696049Y-44582810D01*
X151687069Y-44589161D01*
X151683818Y-44592084D01*
X151664043Y-44623142D01*
X151660482Y-44658828D01*
X151673491Y-44690510D01*
X151679506Y-44696913D01*
X151689235Y-44703121D01*
X151704901Y-44707910D01*
X151729408Y-44711514D01*
X151765661Y-44714164D01*
X151816565Y-44716095D01*
X151885026Y-44717539D01*
X151947617Y-44718418D01*
X152195334Y-44721467D01*
X152198719Y-44786378D01*
X152202105Y-44851289D01*
X152033958Y-44851289D01*
X151960959Y-44851919D01*
X151907517Y-44854553D01*
X151870628Y-44860309D01*
X151847288Y-44870304D01*
X151834494Y-44885656D01*
X151829242Y-44907482D01*
X151828445Y-44927738D01*
X151830923Y-44952592D01*
X151840277Y-44970906D01*
X151859383Y-44983637D01*
X151891118Y-44991741D01*
X151938359Y-44996176D01*
X152003983Y-44997899D01*
X152039801Y-44998045D01*
X152200978Y-44998045D01*
X152200978Y-45156089D01*
X151952622Y-45156089D01*
X151871213Y-45156202D01*
X151809342Y-45156712D01*
X151763968Y-45157870D01*
X151732054Y-45159930D01*
X151710559Y-45163146D01*
X151696443Y-45167772D01*
X151686668Y-45174059D01*
X151681689Y-45178667D01*
X151664610Y-45205560D01*
X151659111Y-45229467D01*
X151666963Y-45258667D01*
X151681689Y-45280267D01*
X151689546Y-45287066D01*
X151699688Y-45292346D01*
X151714844Y-45296298D01*
X151737741Y-45299113D01*
X151771109Y-45300982D01*
X151817675Y-45302098D01*
X151880167Y-45302651D01*
X151961314Y-45302833D01*
X152003422Y-45302845D01*
X152093598Y-45302765D01*
X152163924Y-45302398D01*
X152217129Y-45301552D01*
X152255940Y-45300036D01*
X152283087Y-45297659D01*
X152301298Y-45294229D01*
X152313300Y-45289554D01*
X152321822Y-45283444D01*
X152325156Y-45280267D01*
X152331755Y-45272670D01*
X152336927Y-45262870D01*
X152340846Y-45248239D01*
X152343684Y-45226152D01*
X152345615Y-45193982D01*
X152346812Y-45149103D01*
X152347448Y-45088889D01*
X152347697Y-45010713D01*
X152347734Y-44937923D01*
X152347700Y-44844707D01*
X152347465Y-44771431D01*
X152346830Y-44715458D01*
X152345594Y-44674151D01*
X152343556Y-44644872D01*
X152340517Y-44624984D01*
X152336277Y-44611850D01*
X152330635Y-44602832D01*
X152323391Y-44595293D01*
X152321606Y-44593612D01*
X152312945Y-44586172D01*
X152302882Y-44580409D01*
X152288625Y-44576112D01*
X152267383Y-44573064D01*
X152236364Y-44571051D01*
X152192777Y-44569860D01*
X152133831Y-44569275D01*
X152056734Y-44569083D01*
X152002001Y-44569067D01*
X151912794Y-44569146D01*
X151912794Y-44569146D01*
G37*
X151912794Y-44569146D02*
X151843386Y-44569518D01*
X151790997Y-44570385D01*
X151752847Y-44571946D01*
X151726159Y-44574403D01*
X151708153Y-44577957D01*
X151696049Y-44582810D01*
X151687069Y-44589161D01*
X151683818Y-44592084D01*
X151664043Y-44623142D01*
X151660482Y-44658828D01*
X151673491Y-44690510D01*
X151679506Y-44696913D01*
X151689235Y-44703121D01*
X151704901Y-44707910D01*
X151729408Y-44711514D01*
X151765661Y-44714164D01*
X151816565Y-44716095D01*
X151885026Y-44717539D01*
X151947617Y-44718418D01*
X152195334Y-44721467D01*
X152198719Y-44786378D01*
X152202105Y-44851289D01*
X152033958Y-44851289D01*
X151960959Y-44851919D01*
X151907517Y-44854553D01*
X151870628Y-44860309D01*
X151847288Y-44870304D01*
X151834494Y-44885656D01*
X151829242Y-44907482D01*
X151828445Y-44927738D01*
X151830923Y-44952592D01*
X151840277Y-44970906D01*
X151859383Y-44983637D01*
X151891118Y-44991741D01*
X151938359Y-44996176D01*
X152003983Y-44997899D01*
X152039801Y-44998045D01*
X152200978Y-44998045D01*
X152200978Y-45156089D01*
X151952622Y-45156089D01*
X151871213Y-45156202D01*
X151809342Y-45156712D01*
X151763968Y-45157870D01*
X151732054Y-45159930D01*
X151710559Y-45163146D01*
X151696443Y-45167772D01*
X151686668Y-45174059D01*
X151681689Y-45178667D01*
X151664610Y-45205560D01*
X151659111Y-45229467D01*
X151666963Y-45258667D01*
X151681689Y-45280267D01*
X151689546Y-45287066D01*
X151699688Y-45292346D01*
X151714844Y-45296298D01*
X151737741Y-45299113D01*
X151771109Y-45300982D01*
X151817675Y-45302098D01*
X151880167Y-45302651D01*
X151961314Y-45302833D01*
X152003422Y-45302845D01*
X152093598Y-45302765D01*
X152163924Y-45302398D01*
X152217129Y-45301552D01*
X152255940Y-45300036D01*
X152283087Y-45297659D01*
X152301298Y-45294229D01*
X152313300Y-45289554D01*
X152321822Y-45283444D01*
X152325156Y-45280267D01*
X152331755Y-45272670D01*
X152336927Y-45262870D01*
X152340846Y-45248239D01*
X152343684Y-45226152D01*
X152345615Y-45193982D01*
X152346812Y-45149103D01*
X152347448Y-45088889D01*
X152347697Y-45010713D01*
X152347734Y-44937923D01*
X152347700Y-44844707D01*
X152347465Y-44771431D01*
X152346830Y-44715458D01*
X152345594Y-44674151D01*
X152343556Y-44644872D01*
X152340517Y-44624984D01*
X152336277Y-44611850D01*
X152330635Y-44602832D01*
X152323391Y-44595293D01*
X152321606Y-44593612D01*
X152312945Y-44586172D01*
X152302882Y-44580409D01*
X152288625Y-44576112D01*
X152267383Y-44573064D01*
X152236364Y-44571051D01*
X152192777Y-44569860D01*
X152133831Y-44569275D01*
X152056734Y-44569083D01*
X152002001Y-44569067D01*
X151912794Y-44569146D01*
G36*
X153321371Y-44569066D02*
G01*
X153281889Y-44569467D01*
X153166200Y-44572259D01*
X153069311Y-44580550D01*
X152987919Y-44595232D01*
X152918723Y-44617193D01*
X152858420Y-44647322D01*
X152803708Y-44686510D01*
X152784167Y-44703532D01*
X152751750Y-44743363D01*
X152722520Y-44797413D01*
X152699991Y-44857323D01*
X152687679Y-44914739D01*
X152686400Y-44935956D01*
X152694417Y-44994769D01*
X152715899Y-45059013D01*
X152746999Y-45119821D01*
X152783866Y-45168330D01*
X152789854Y-45174182D01*
X152840579Y-45215321D01*
X152896125Y-45247435D01*
X152959696Y-45271365D01*
X153034494Y-45287953D01*
X153123722Y-45298041D01*
X153230582Y-45302469D01*
X153279528Y-45302845D01*
X153341762Y-45302545D01*
X153385528Y-45301292D01*
X153414931Y-45298554D01*
X153434079Y-45293801D01*
X153447077Y-45286501D01*
X153454045Y-45280267D01*
X153460626Y-45272694D01*
X153465788Y-45262924D01*
X153469703Y-45248340D01*
X153472543Y-45226326D01*
X153474480Y-45194264D01*
X153475684Y-45149536D01*
X153476328Y-45089526D01*
X153476583Y-45011617D01*
X153476622Y-44935956D01*
X153476870Y-44835041D01*
X153476817Y-44754427D01*
X153475857Y-44715822D01*
X153329867Y-44715822D01*
X153329867Y-45156089D01*
X153236734Y-45156004D01*
X153180693Y-45154396D01*
X153121999Y-45150256D01*
X153073028Y-45144464D01*
X153071538Y-45144226D01*
X152992392Y-45125090D01*
X152931002Y-45095287D01*
X152884305Y-45052878D01*
X152854635Y-45006961D01*
X152836353Y-44956026D01*
X152837771Y-44908200D01*
X152858988Y-44856933D01*
X152900489Y-44803899D01*
X152957998Y-44764600D01*
X153032750Y-44738331D01*
X153082708Y-44729035D01*
X153139416Y-44722507D01*
X153199519Y-44717782D01*
X153250639Y-44715817D01*
X153253667Y-44715808D01*
X153329867Y-44715822D01*
X153475857Y-44715822D01*
X153475260Y-44691851D01*
X153470998Y-44645055D01*
X153462830Y-44611778D01*
X153449556Y-44589759D01*
X153429974Y-44576739D01*
X153402883Y-44570457D01*
X153367082Y-44568653D01*
X153321371Y-44569066D01*
X153321371Y-44569066D01*
G37*
X153321371Y-44569066D02*
X153281889Y-44569467D01*
X153166200Y-44572259D01*
X153069311Y-44580550D01*
X152987919Y-44595232D01*
X152918723Y-44617193D01*
X152858420Y-44647322D01*
X152803708Y-44686510D01*
X152784167Y-44703532D01*
X152751750Y-44743363D01*
X152722520Y-44797413D01*
X152699991Y-44857323D01*
X152687679Y-44914739D01*
X152686400Y-44935956D01*
X152694417Y-44994769D01*
X152715899Y-45059013D01*
X152746999Y-45119821D01*
X152783866Y-45168330D01*
X152789854Y-45174182D01*
X152840579Y-45215321D01*
X152896125Y-45247435D01*
X152959696Y-45271365D01*
X153034494Y-45287953D01*
X153123722Y-45298041D01*
X153230582Y-45302469D01*
X153279528Y-45302845D01*
X153341762Y-45302545D01*
X153385528Y-45301292D01*
X153414931Y-45298554D01*
X153434079Y-45293801D01*
X153447077Y-45286501D01*
X153454045Y-45280267D01*
X153460626Y-45272694D01*
X153465788Y-45262924D01*
X153469703Y-45248340D01*
X153472543Y-45226326D01*
X153474480Y-45194264D01*
X153475684Y-45149536D01*
X153476328Y-45089526D01*
X153476583Y-45011617D01*
X153476622Y-44935956D01*
X153476870Y-44835041D01*
X153476817Y-44754427D01*
X153475857Y-44715822D01*
X153329867Y-44715822D01*
X153329867Y-45156089D01*
X153236734Y-45156004D01*
X153180693Y-45154396D01*
X153121999Y-45150256D01*
X153073028Y-45144464D01*
X153071538Y-45144226D01*
X152992392Y-45125090D01*
X152931002Y-45095287D01*
X152884305Y-45052878D01*
X152854635Y-45006961D01*
X152836353Y-44956026D01*
X152837771Y-44908200D01*
X152858988Y-44856933D01*
X152900489Y-44803899D01*
X152957998Y-44764600D01*
X153032750Y-44738331D01*
X153082708Y-44729035D01*
X153139416Y-44722507D01*
X153199519Y-44717782D01*
X153250639Y-44715817D01*
X153253667Y-44715808D01*
X153329867Y-44715822D01*
X153475857Y-44715822D01*
X153475260Y-44691851D01*
X153470998Y-44645055D01*
X153462830Y-44611778D01*
X153449556Y-44589759D01*
X153429974Y-44576739D01*
X153402883Y-44570457D01*
X153367082Y-44568653D01*
X153321371Y-44569066D01*
D10*
X120652380Y-29966666D02*
X121366666Y-29966666D01*
X121509523Y-29919047D01*
X121604761Y-29823809D01*
X121652380Y-29680952D01*
X121652380Y-29585714D01*
X120652380Y-30347619D02*
X120652380Y-30966666D01*
X121033333Y-30633333D01*
X121033333Y-30776190D01*
X121080952Y-30871428D01*
X121128571Y-30919047D01*
X121223809Y-30966666D01*
X121461904Y-30966666D01*
X121557142Y-30919047D01*
X121604761Y-30871428D01*
X121652380Y-30776190D01*
X121652380Y-30490476D01*
X121604761Y-30395238D01*
X121557142Y-30347619D01*
X114461904Y-37871428D02*
X113700000Y-37871428D01*
X114080952Y-38252380D02*
X114080952Y-37490476D01*
X112700000Y-38252380D02*
X113271428Y-38252380D01*
X112985714Y-38252380D02*
X112985714Y-37252380D01*
X113080952Y-37395238D01*
X113176190Y-37490476D01*
X113271428Y-37538095D01*
X111795238Y-37252380D02*
X112271428Y-37252380D01*
X112319047Y-37728571D01*
X112271428Y-37680952D01*
X112176190Y-37633333D01*
X111938095Y-37633333D01*
X111842857Y-37680952D01*
X111795238Y-37728571D01*
X111747619Y-37823809D01*
X111747619Y-38061904D01*
X111795238Y-38157142D01*
X111842857Y-38204761D01*
X111938095Y-38252380D01*
X112176190Y-38252380D01*
X112271428Y-38204761D01*
X112319047Y-38157142D01*
X111461904Y-37252380D02*
X111128571Y-38252380D01*
X110795238Y-37252380D01*
X116676190Y-37252380D02*
X116580952Y-37252380D01*
X116485714Y-37300000D01*
X116438095Y-37347619D01*
X116390476Y-37442857D01*
X116342857Y-37633333D01*
X116342857Y-37871428D01*
X116390476Y-38061904D01*
X116438095Y-38157142D01*
X116485714Y-38204761D01*
X116580952Y-38252380D01*
X116676190Y-38252380D01*
X116771428Y-38204761D01*
X116819047Y-38157142D01*
X116866666Y-38061904D01*
X116914285Y-37871428D01*
X116914285Y-37633333D01*
X116866666Y-37442857D01*
X116819047Y-37347619D01*
X116771428Y-37300000D01*
X116676190Y-37252380D01*
X116057142Y-37252380D02*
X115723809Y-38252380D01*
X115390476Y-37252380D01*
X122461904Y-37871428D02*
X121700000Y-37871428D01*
X120700000Y-38252380D02*
X121271428Y-38252380D01*
X120985714Y-38252380D02*
X120985714Y-37252380D01*
X121080952Y-37395238D01*
X121176190Y-37490476D01*
X121271428Y-37538095D01*
X119795238Y-37252380D02*
X120271428Y-37252380D01*
X120319047Y-37728571D01*
X120271428Y-37680952D01*
X120176190Y-37633333D01*
X119938095Y-37633333D01*
X119842857Y-37680952D01*
X119795238Y-37728571D01*
X119747619Y-37823809D01*
X119747619Y-38061904D01*
X119795238Y-38157142D01*
X119842857Y-38204761D01*
X119938095Y-38252380D01*
X120176190Y-38252380D01*
X120271428Y-38204761D01*
X120319047Y-38157142D01*
X119461904Y-37252380D02*
X119128571Y-38252380D01*
X118795238Y-37252380D01*
X118509523Y-29252380D02*
X118509523Y-28252380D01*
X118128571Y-28252380D01*
X118033333Y-28300000D01*
X117985714Y-28347619D01*
X117938095Y-28442857D01*
X117938095Y-28585714D01*
X117985714Y-28680952D01*
X118033333Y-28728571D01*
X118128571Y-28776190D01*
X118509523Y-28776190D01*
X117319047Y-28252380D02*
X117128571Y-28252380D01*
X117033333Y-28300000D01*
X116938095Y-28395238D01*
X116890476Y-28585714D01*
X116890476Y-28919047D01*
X116938095Y-29109523D01*
X117033333Y-29204761D01*
X117128571Y-29252380D01*
X117319047Y-29252380D01*
X117414285Y-29204761D01*
X117509523Y-29109523D01*
X117557142Y-28919047D01*
X117557142Y-28585714D01*
X117509523Y-28395238D01*
X117414285Y-28300000D01*
X117319047Y-28252380D01*
X116557142Y-28252380D02*
X116319047Y-29252380D01*
X116128571Y-28538095D01*
X115938095Y-29252380D01*
X115700000Y-28252380D01*
X115319047Y-28728571D02*
X114985714Y-28728571D01*
X114842857Y-29252380D02*
X115319047Y-29252380D01*
X115319047Y-28252380D01*
X114842857Y-28252380D01*
X113842857Y-29252380D02*
X114176190Y-28776190D01*
X114414285Y-29252380D02*
X114414285Y-28252380D01*
X114033333Y-28252380D01*
X113938095Y-28300000D01*
X113890476Y-28347619D01*
X113842857Y-28442857D01*
X113842857Y-28585714D01*
X113890476Y-28680952D01*
X113938095Y-28728571D01*
X114033333Y-28776190D01*
X114414285Y-28776190D01*
X162452380Y-29966666D02*
X163166666Y-29966666D01*
X163309523Y-29919047D01*
X163404761Y-29823809D01*
X163452380Y-29680952D01*
X163452380Y-29585714D01*
X162452380Y-30347619D02*
X162452380Y-31014285D01*
X163452380Y-30585714D01*
X156380952Y-37871428D02*
X155619047Y-37871428D01*
X156000000Y-38252380D02*
X156000000Y-37490476D01*
X160880952Y-37871428D02*
X160119047Y-37871428D01*
X161261904Y-29252380D02*
X161738095Y-29252380D01*
X161738095Y-28252380D01*
X160928571Y-28728571D02*
X160595238Y-28728571D01*
X160452380Y-29252380D02*
X160928571Y-29252380D01*
X160928571Y-28252380D01*
X160452380Y-28252380D01*
X159690476Y-28728571D02*
X160023809Y-28728571D01*
X160023809Y-29252380D02*
X160023809Y-28252380D01*
X159547619Y-28252380D01*
X159309523Y-28252380D02*
X158738095Y-28252380D01*
X159023809Y-29252380D02*
X159023809Y-28252380D01*
X157452380Y-28252380D02*
X157261904Y-28252380D01*
X157166666Y-28300000D01*
X157071428Y-28395238D01*
X157023809Y-28585714D01*
X157023809Y-28919047D01*
X157071428Y-29109523D01*
X157166666Y-29204761D01*
X157261904Y-29252380D01*
X157452380Y-29252380D01*
X157547619Y-29204761D01*
X157642857Y-29109523D01*
X157690476Y-28919047D01*
X157690476Y-28585714D01*
X157642857Y-28395238D01*
X157547619Y-28300000D01*
X157452380Y-28252380D01*
X156595238Y-28252380D02*
X156595238Y-29061904D01*
X156547619Y-29157142D01*
X156500000Y-29204761D01*
X156404761Y-29252380D01*
X156214285Y-29252380D01*
X156119047Y-29204761D01*
X156071428Y-29157142D01*
X156023809Y-29061904D01*
X156023809Y-28252380D01*
X155690476Y-28252380D02*
X155119047Y-28252380D01*
X155404761Y-29252380D02*
X155404761Y-28252380D01*
X152452380Y-29966666D02*
X153166666Y-29966666D01*
X153309523Y-29919047D01*
X153404761Y-29823809D01*
X153452380Y-29680952D01*
X153452380Y-29585714D01*
X152452380Y-30871428D02*
X152452380Y-30680952D01*
X152500000Y-30585714D01*
X152547619Y-30538095D01*
X152690476Y-30442857D01*
X152880952Y-30395238D01*
X153261904Y-30395238D01*
X153357142Y-30442857D01*
X153404761Y-30490476D01*
X153452380Y-30585714D01*
X153452380Y-30776190D01*
X153404761Y-30871428D01*
X153357142Y-30919047D01*
X153261904Y-30966666D01*
X153023809Y-30966666D01*
X152928571Y-30919047D01*
X152880952Y-30871428D01*
X152833333Y-30776190D01*
X152833333Y-30585714D01*
X152880952Y-30490476D01*
X152928571Y-30442857D01*
X153023809Y-30395238D01*
X146380952Y-37871428D02*
X145619047Y-37871428D01*
X146000000Y-38252380D02*
X146000000Y-37490476D01*
X150880952Y-37871428D02*
X150119047Y-37871428D01*
X151261904Y-29252380D02*
X151738095Y-29252380D01*
X151738095Y-28252380D01*
X150928571Y-28728571D02*
X150595238Y-28728571D01*
X150452380Y-29252380D02*
X150928571Y-29252380D01*
X150928571Y-28252380D01*
X150452380Y-28252380D01*
X149690476Y-28728571D02*
X150023809Y-28728571D01*
X150023809Y-29252380D02*
X150023809Y-28252380D01*
X149547619Y-28252380D01*
X149309523Y-28252380D02*
X148738095Y-28252380D01*
X149023809Y-29252380D02*
X149023809Y-28252380D01*
X147452380Y-28252380D02*
X147261904Y-28252380D01*
X147166666Y-28300000D01*
X147071428Y-28395238D01*
X147023809Y-28585714D01*
X147023809Y-28919047D01*
X147071428Y-29109523D01*
X147166666Y-29204761D01*
X147261904Y-29252380D01*
X147452380Y-29252380D01*
X147547619Y-29204761D01*
X147642857Y-29109523D01*
X147690476Y-28919047D01*
X147690476Y-28585714D01*
X147642857Y-28395238D01*
X147547619Y-28300000D01*
X147452380Y-28252380D01*
X146595238Y-28252380D02*
X146595238Y-29061904D01*
X146547619Y-29157142D01*
X146500000Y-29204761D01*
X146404761Y-29252380D01*
X146214285Y-29252380D01*
X146119047Y-29204761D01*
X146071428Y-29157142D01*
X146023809Y-29061904D01*
X146023809Y-28252380D01*
X145690476Y-28252380D02*
X145119047Y-28252380D01*
X145404761Y-29252380D02*
X145404761Y-28252380D01*
X142452380Y-29966666D02*
X143166666Y-29966666D01*
X143309523Y-29919047D01*
X143404761Y-29823809D01*
X143452380Y-29680952D01*
X143452380Y-29585714D01*
X142452380Y-30919047D02*
X142452380Y-30442857D01*
X142928571Y-30395238D01*
X142880952Y-30442857D01*
X142833333Y-30538095D01*
X142833333Y-30776190D01*
X142880952Y-30871428D01*
X142928571Y-30919047D01*
X143023809Y-30966666D01*
X143261904Y-30966666D01*
X143357142Y-30919047D01*
X143404761Y-30871428D01*
X143452380Y-30776190D01*
X143452380Y-30538095D01*
X143404761Y-30442857D01*
X143357142Y-30395238D01*
X136380952Y-37871428D02*
X135619047Y-37871428D01*
X136000000Y-38252380D02*
X136000000Y-37490476D01*
X140880952Y-37871428D02*
X140119047Y-37871428D01*
X141142857Y-29252380D02*
X141476190Y-28776190D01*
X141714285Y-29252380D02*
X141714285Y-28252380D01*
X141333333Y-28252380D01*
X141238095Y-28300000D01*
X141190476Y-28347619D01*
X141142857Y-28442857D01*
X141142857Y-28585714D01*
X141190476Y-28680952D01*
X141238095Y-28728571D01*
X141333333Y-28776190D01*
X141714285Y-28776190D01*
X140714285Y-29252380D02*
X140714285Y-28252380D01*
X139714285Y-28300000D02*
X139809523Y-28252380D01*
X139952380Y-28252380D01*
X140095238Y-28300000D01*
X140190476Y-28395238D01*
X140238095Y-28490476D01*
X140285714Y-28680952D01*
X140285714Y-28823809D01*
X140238095Y-29014285D01*
X140190476Y-29109523D01*
X140095238Y-29204761D01*
X139952380Y-29252380D01*
X139857142Y-29252380D01*
X139714285Y-29204761D01*
X139666666Y-29157142D01*
X139666666Y-28823809D01*
X139857142Y-28823809D01*
X139238095Y-29252380D02*
X139238095Y-28252380D01*
X139238095Y-28728571D02*
X138666666Y-28728571D01*
X138666666Y-29252380D02*
X138666666Y-28252380D01*
X138333333Y-28252380D02*
X137761904Y-28252380D01*
X138047619Y-29252380D02*
X138047619Y-28252380D01*
X136476190Y-28252380D02*
X136285714Y-28252380D01*
X136190476Y-28300000D01*
X136095238Y-28395238D01*
X136047619Y-28585714D01*
X136047619Y-28919047D01*
X136095238Y-29109523D01*
X136190476Y-29204761D01*
X136285714Y-29252380D01*
X136476190Y-29252380D01*
X136571428Y-29204761D01*
X136666666Y-29109523D01*
X136714285Y-28919047D01*
X136714285Y-28585714D01*
X136666666Y-28395238D01*
X136571428Y-28300000D01*
X136476190Y-28252380D01*
X135619047Y-28252380D02*
X135619047Y-29061904D01*
X135571428Y-29157142D01*
X135523809Y-29204761D01*
X135428571Y-29252380D01*
X135238095Y-29252380D01*
X135142857Y-29204761D01*
X135095238Y-29157142D01*
X135047619Y-29061904D01*
X135047619Y-28252380D01*
X134714285Y-28252380D02*
X134142857Y-28252380D01*
X134428571Y-29252380D02*
X134428571Y-28252380D01*
X132452380Y-29966666D02*
X133166666Y-29966666D01*
X133309523Y-29919047D01*
X133404761Y-29823809D01*
X133452380Y-29680952D01*
X133452380Y-29585714D01*
X132785714Y-30871428D02*
X133452380Y-30871428D01*
X132404761Y-30633333D02*
X133119047Y-30395238D01*
X133119047Y-31014285D01*
X126380952Y-37871428D02*
X125619047Y-37871428D01*
X126000000Y-38252380D02*
X126000000Y-37490476D01*
X130880952Y-37871428D02*
X130119047Y-37871428D01*
X131642857Y-29252380D02*
X131976190Y-28776190D01*
X132214285Y-29252380D02*
X132214285Y-28252380D01*
X131833333Y-28252380D01*
X131738095Y-28300000D01*
X131690476Y-28347619D01*
X131642857Y-28442857D01*
X131642857Y-28585714D01*
X131690476Y-28680952D01*
X131738095Y-28728571D01*
X131833333Y-28776190D01*
X132214285Y-28776190D01*
X131214285Y-29252380D02*
X131214285Y-28252380D01*
X130214285Y-28300000D02*
X130309523Y-28252380D01*
X130452380Y-28252380D01*
X130595238Y-28300000D01*
X130690476Y-28395238D01*
X130738095Y-28490476D01*
X130785714Y-28680952D01*
X130785714Y-28823809D01*
X130738095Y-29014285D01*
X130690476Y-29109523D01*
X130595238Y-29204761D01*
X130452380Y-29252380D01*
X130357142Y-29252380D01*
X130214285Y-29204761D01*
X130166666Y-29157142D01*
X130166666Y-28823809D01*
X130357142Y-28823809D01*
X129738095Y-29252380D02*
X129738095Y-28252380D01*
X129738095Y-28728571D02*
X129166666Y-28728571D01*
X129166666Y-29252380D02*
X129166666Y-28252380D01*
X128833333Y-28252380D02*
X128261904Y-28252380D01*
X128547619Y-29252380D02*
X128547619Y-28252380D01*
X126976190Y-28252380D02*
X126785714Y-28252380D01*
X126690476Y-28300000D01*
X126595238Y-28395238D01*
X126547619Y-28585714D01*
X126547619Y-28919047D01*
X126595238Y-29109523D01*
X126690476Y-29204761D01*
X126785714Y-29252380D01*
X126976190Y-29252380D01*
X127071428Y-29204761D01*
X127166666Y-29109523D01*
X127214285Y-28919047D01*
X127214285Y-28585714D01*
X127166666Y-28395238D01*
X127071428Y-28300000D01*
X126976190Y-28252380D01*
X126119047Y-28252380D02*
X126119047Y-29061904D01*
X126071428Y-29157142D01*
X126023809Y-29204761D01*
X125928571Y-29252380D01*
X125738095Y-29252380D01*
X125642857Y-29204761D01*
X125595238Y-29157142D01*
X125547619Y-29061904D01*
X125547619Y-28252380D01*
X125214285Y-28252380D02*
X124642857Y-28252380D01*
X124928571Y-29252380D02*
X124928571Y-28252380D01*
X99247619Y-30633333D02*
X98533333Y-30633333D01*
X98390476Y-30680952D01*
X98295238Y-30776190D01*
X98247619Y-30919047D01*
X98247619Y-31014285D01*
X99152380Y-30204761D02*
X99200000Y-30157142D01*
X99247619Y-30061904D01*
X99247619Y-29823809D01*
X99200000Y-29728571D01*
X99152380Y-29680952D01*
X99057142Y-29633333D01*
X98961904Y-29633333D01*
X98819047Y-29680952D01*
X98247619Y-30252380D01*
X98247619Y-29633333D01*
X92080952Y-37871428D02*
X91319047Y-37871428D01*
X91700000Y-38252380D02*
X91700000Y-37490476D01*
X96580952Y-37871428D02*
X95819047Y-37871428D01*
X96295238Y-29252380D02*
X96771428Y-29252380D01*
X96771428Y-28252380D01*
X95961904Y-28728571D02*
X95628571Y-28728571D01*
X95485714Y-29252380D02*
X95961904Y-29252380D01*
X95961904Y-28252380D01*
X95485714Y-28252380D01*
X94723809Y-28728571D02*
X95057142Y-28728571D01*
X95057142Y-29252380D02*
X95057142Y-28252380D01*
X94580952Y-28252380D01*
X94342857Y-28252380D02*
X93771428Y-28252380D01*
X94057142Y-29252380D02*
X94057142Y-28252380D01*
X92676190Y-29252380D02*
X92676190Y-28252380D01*
X92200000Y-29252380D02*
X92200000Y-28252380D01*
X91628571Y-29252380D01*
X91628571Y-28252380D01*
X108152380Y-29966666D02*
X108866666Y-29966666D01*
X109009523Y-29919047D01*
X109104761Y-29823809D01*
X109152380Y-29680952D01*
X109152380Y-29585714D01*
X109152380Y-30966666D02*
X109152380Y-30395238D01*
X109152380Y-30680952D02*
X108152380Y-30680952D01*
X108295238Y-30585714D01*
X108390476Y-30490476D01*
X108438095Y-30395238D01*
X102080952Y-37871428D02*
X101319047Y-37871428D01*
X101700000Y-38252380D02*
X101700000Y-37490476D01*
X106580952Y-37871428D02*
X105819047Y-37871428D01*
X106176190Y-29252380D02*
X106509523Y-28776190D01*
X106747619Y-29252380D02*
X106747619Y-28252380D01*
X106366666Y-28252380D01*
X106271428Y-28300000D01*
X106223809Y-28347619D01*
X106176190Y-28442857D01*
X106176190Y-28585714D01*
X106223809Y-28680952D01*
X106271428Y-28728571D01*
X106366666Y-28776190D01*
X106747619Y-28776190D01*
X105747619Y-29252380D02*
X105747619Y-28252380D01*
X104747619Y-28300000D02*
X104842857Y-28252380D01*
X104985714Y-28252380D01*
X105128571Y-28300000D01*
X105223809Y-28395238D01*
X105271428Y-28490476D01*
X105319047Y-28680952D01*
X105319047Y-28823809D01*
X105271428Y-29014285D01*
X105223809Y-29109523D01*
X105128571Y-29204761D01*
X104985714Y-29252380D01*
X104890476Y-29252380D01*
X104747619Y-29204761D01*
X104700000Y-29157142D01*
X104700000Y-28823809D01*
X104890476Y-28823809D01*
X104271428Y-29252380D02*
X104271428Y-28252380D01*
X104271428Y-28728571D02*
X103700000Y-28728571D01*
X103700000Y-29252380D02*
X103700000Y-28252380D01*
X103366666Y-28252380D02*
X102795238Y-28252380D01*
X103080952Y-29252380D02*
X103080952Y-28252380D01*
X101700000Y-29252380D02*
X101700000Y-28252380D01*
X101223809Y-29252380D02*
X101223809Y-28252380D01*
X100652380Y-29252380D01*
X100652380Y-28252380D01*
M02*
