M48
; DRILL file {KiCad 5.1.4} date Sun 29 Sep 2019 10:13:46 PM EDT
; FORMAT={-:-/ absolute / inch / decimal}
; #@! TF.CreationDate,2019-09-29T22:13:46-04:00
; #@! TF.GenerationSoftware,Kicad,Pcbnew,5.1.4
; #@! TF.FileFunction,Plated,1,2,PTH
FMAT,2
INCH
T1C0.0157
T2C0.0315
T3C0.0394
T4C0.0417
T5C0.0472
T6C0.1260
%
G90
G05
T1
X3.225Y-1.9815
X3.5191Y-2.0065
X3.6Y-2.9065
X3.625Y-2.7315
X3.675Y-3.1315
X4.0Y-2.0065
X4.0Y-2.6815
X4.075Y-2.9315
X4.1Y-3.0815
X4.2941Y-2.0065
X4.375Y-2.7315
X4.825Y-3.2315
X4.825Y-3.4315
X4.825Y-3.8815
X4.8625Y-3.019
X4.875Y-2.6315
X5.15Y-3.4815
X5.1625Y-3.094
X5.375Y-2.7815
X5.4705Y-3.8602
X5.4803Y-3.6437
X5.65Y-2.0315
X5.8Y-3.5065
X5.8Y-3.7565
X5.825Y-4.0565
X5.875Y-2.0315
X5.9Y-3.4565
X6.0Y-4.0565
X6.175Y-4.0065
X6.225Y-3.5565
X6.25Y-3.9565
X6.35Y-2.0315
X6.675Y-2.0315
T2
X4.275Y-3.9065
X4.275Y-4.0049
X6.6Y-2.3815
X6.6Y-2.5783
X4.0Y-2.3437
X4.0Y-2.4815
X4.375Y-2.3437
X4.375Y-2.4815
X5.4Y-2.3815
X5.4Y-2.5783
X5.1Y-4.1528
X5.1Y-4.2315
X5.5Y-4.1528
X5.5Y-4.2315
X6.075Y-3.0065
X6.2719Y-3.0065
X5.975Y-2.3815
X5.975Y-2.5783
X3.425Y-3.9315
X3.425Y-4.0299
X3.25Y-2.3437
X3.25Y-2.4815
X4.4921Y-1.7441
X4.5906Y-1.7441
X3.625Y-2.3437
X3.625Y-2.4815
X4.8307Y-1.7441
X4.9291Y-1.7441
T3
X5.8Y-2.1315
X6.575Y-2.0815
X5.625Y-2.1315
X5.65Y-3.8565
X6.5425Y-3.2134
X4.325Y-3.0565
X4.65Y-4.6315
X4.65Y-4.8283
X4.375Y-3.3815
X3.225Y-2.7065
X3.525Y-3.6065
X4.075Y-3.6815
X5.6Y-3.1565
X4.725Y-3.5815
X4.65Y-4.1096
X4.65Y-4.3065
X3.275Y-3.2315
X6.4Y-2.1065
T4
X3.6874Y-4.2378
X3.6874Y-4.6378
X3.7874Y-4.2378
X3.7874Y-4.6378
X3.8874Y-4.2378
X3.8874Y-4.6378
X6.0496Y-4.2378
X6.0496Y-4.6378
X6.1496Y-4.2378
X6.1496Y-4.6378
X6.2496Y-4.2378
X6.2496Y-4.6378
T5
X5.3937Y-1.3504
X5.4937Y-1.3504
X5.0Y-1.3504
X5.1Y-1.3504
X4.0433Y-1.3504
X4.1433Y-1.3504
X6.1811Y-1.3504
X6.2811Y-1.3504
X5.7874Y-1.3504
X5.8874Y-1.3504
X4.4764Y-1.3504
X4.5764Y-1.3504
X4.6764Y-1.3504
X3.6496Y-1.3504
X3.7496Y-1.3504
T6
X3.2362Y-4.7953
X6.7008Y-4.7953
X3.2362Y-1.3307
X6.7008Y-1.3307
T0
M30
