G04 #@! TF.GenerationSoftware,KiCad,Pcbnew,5.1.4*
G04 #@! TF.CreationDate,2019-09-29T22:13:44-04:00*
G04 #@! TF.ProjectId,balanced_amplifier,62616c61-6e63-4656-945f-616d706c6966,1*
G04 #@! TF.SameCoordinates,Original*
G04 #@! TF.FileFunction,Legend,Top*
G04 #@! TF.FilePolarity,Positive*
%FSLAX46Y46*%
G04 Gerber Fmt 4.6, Leading zero omitted, Abs format (unit mm)*
G04 Created by KiCad (PCBNEW 5.1.4) date 2019-09-29 22:13:44*
%MOMM*%
%LPD*%
G04 APERTURE LIST*
%ADD10C,0.150000*%
%ADD11C,0.200000*%
%ADD12C,0.120000*%
G04 APERTURE END LIST*
D10*
X174652380Y-116300000D02*
X173652380Y-116300000D01*
X174652380Y-115871428D02*
X174128571Y-115871428D01*
X174033333Y-115919047D01*
X173985714Y-116014285D01*
X173985714Y-116157142D01*
X174033333Y-116252380D01*
X174080952Y-116300000D01*
X173985714Y-115538095D02*
X173985714Y-115157142D01*
X173652380Y-115395238D02*
X174509523Y-115395238D01*
X174604761Y-115347619D01*
X174652380Y-115252380D01*
X174652380Y-115157142D01*
X173985714Y-114966666D02*
X173985714Y-114585714D01*
X173652380Y-114823809D02*
X174509523Y-114823809D01*
X174604761Y-114776190D01*
X174652380Y-114680952D01*
X174652380Y-114585714D01*
X173985714Y-114252380D02*
X174985714Y-114252380D01*
X174033333Y-114252380D02*
X173985714Y-114157142D01*
X173985714Y-113966666D01*
X174033333Y-113871428D01*
X174080952Y-113823809D01*
X174176190Y-113776190D01*
X174461904Y-113776190D01*
X174557142Y-113823809D01*
X174604761Y-113871428D01*
X174652380Y-113966666D01*
X174652380Y-114157142D01*
X174604761Y-114252380D01*
X174604761Y-113395238D02*
X174652380Y-113300000D01*
X174652380Y-113109523D01*
X174604761Y-113014285D01*
X174509523Y-112966666D01*
X174461904Y-112966666D01*
X174366666Y-113014285D01*
X174319047Y-113109523D01*
X174319047Y-113252380D01*
X174271428Y-113347619D01*
X174176190Y-113395238D01*
X174128571Y-113395238D01*
X174033333Y-113347619D01*
X173985714Y-113252380D01*
X173985714Y-113109523D01*
X174033333Y-113014285D01*
X174557142Y-112538095D02*
X174604761Y-112490476D01*
X174652380Y-112538095D01*
X174604761Y-112585714D01*
X174557142Y-112538095D01*
X174652380Y-112538095D01*
X174033333Y-112538095D02*
X174080952Y-112490476D01*
X174128571Y-112538095D01*
X174080952Y-112585714D01*
X174033333Y-112538095D01*
X174128571Y-112538095D01*
X173604761Y-111347619D02*
X174890476Y-112204761D01*
X173604761Y-110300000D02*
X174890476Y-111157142D01*
X174604761Y-109538095D02*
X174652380Y-109633333D01*
X174652380Y-109823809D01*
X174604761Y-109919047D01*
X174557142Y-109966666D01*
X174461904Y-110014285D01*
X174176190Y-110014285D01*
X174080952Y-109966666D01*
X174033333Y-109919047D01*
X173985714Y-109823809D01*
X173985714Y-109633333D01*
X174033333Y-109538095D01*
X174652380Y-109109523D02*
X173985714Y-109109523D01*
X174176190Y-109109523D02*
X174080952Y-109061904D01*
X174033333Y-109014285D01*
X173985714Y-108919047D01*
X173985714Y-108823809D01*
X174604761Y-108109523D02*
X174652380Y-108204761D01*
X174652380Y-108395238D01*
X174604761Y-108490476D01*
X174509523Y-108538095D01*
X174128571Y-108538095D01*
X174033333Y-108490476D01*
X173985714Y-108395238D01*
X173985714Y-108204761D01*
X174033333Y-108109523D01*
X174128571Y-108061904D01*
X174223809Y-108061904D01*
X174319047Y-108538095D01*
X174652380Y-107204761D02*
X174128571Y-107204761D01*
X174033333Y-107252380D01*
X173985714Y-107347619D01*
X173985714Y-107538095D01*
X174033333Y-107633333D01*
X174604761Y-107204761D02*
X174652380Y-107300000D01*
X174652380Y-107538095D01*
X174604761Y-107633333D01*
X174509523Y-107680952D01*
X174414285Y-107680952D01*
X174319047Y-107633333D01*
X174271428Y-107538095D01*
X174271428Y-107300000D01*
X174223809Y-107204761D01*
X173985714Y-106871428D02*
X173985714Y-106490476D01*
X173652380Y-106728571D02*
X174509523Y-106728571D01*
X174604761Y-106680952D01*
X174652380Y-106585714D01*
X174652380Y-106490476D01*
X174652380Y-106157142D02*
X173985714Y-106157142D01*
X173652380Y-106157142D02*
X173700000Y-106204761D01*
X173747619Y-106157142D01*
X173700000Y-106109523D01*
X173652380Y-106157142D01*
X173747619Y-106157142D01*
X173985714Y-105776190D02*
X174652380Y-105538095D01*
X173985714Y-105300000D01*
X174604761Y-104538095D02*
X174652380Y-104633333D01*
X174652380Y-104823809D01*
X174604761Y-104919047D01*
X174509523Y-104966666D01*
X174128571Y-104966666D01*
X174033333Y-104919047D01*
X173985714Y-104823809D01*
X173985714Y-104633333D01*
X174033333Y-104538095D01*
X174128571Y-104490476D01*
X174223809Y-104490476D01*
X174319047Y-104966666D01*
X174604761Y-103633333D02*
X174652380Y-103728571D01*
X174652380Y-103919047D01*
X174604761Y-104014285D01*
X174557142Y-104061904D01*
X174461904Y-104109523D01*
X174176190Y-104109523D01*
X174080952Y-104061904D01*
X174033333Y-104014285D01*
X173985714Y-103919047D01*
X173985714Y-103728571D01*
X174033333Y-103633333D01*
X174652380Y-103061904D02*
X174604761Y-103157142D01*
X174557142Y-103204761D01*
X174461904Y-103252380D01*
X174176190Y-103252380D01*
X174080952Y-103204761D01*
X174033333Y-103157142D01*
X173985714Y-103061904D01*
X173985714Y-102919047D01*
X174033333Y-102823809D01*
X174080952Y-102776190D01*
X174176190Y-102728571D01*
X174461904Y-102728571D01*
X174557142Y-102776190D01*
X174604761Y-102823809D01*
X174652380Y-102919047D01*
X174652380Y-103061904D01*
X174652380Y-102300000D02*
X173985714Y-102300000D01*
X174080952Y-102300000D02*
X174033333Y-102252380D01*
X173985714Y-102157142D01*
X173985714Y-102014285D01*
X174033333Y-101919047D01*
X174128571Y-101871428D01*
X174652380Y-101871428D01*
X174128571Y-101871428D02*
X174033333Y-101823809D01*
X173985714Y-101728571D01*
X173985714Y-101585714D01*
X174033333Y-101490476D01*
X174128571Y-101442857D01*
X174652380Y-101442857D01*
X174652380Y-100966666D02*
X173985714Y-100966666D01*
X174080952Y-100966666D02*
X174033333Y-100919047D01*
X173985714Y-100823809D01*
X173985714Y-100680952D01*
X174033333Y-100585714D01*
X174128571Y-100538095D01*
X174652380Y-100538095D01*
X174128571Y-100538095D02*
X174033333Y-100490476D01*
X173985714Y-100395238D01*
X173985714Y-100252380D01*
X174033333Y-100157142D01*
X174128571Y-100109523D01*
X174652380Y-100109523D01*
X174652380Y-99490476D02*
X174604761Y-99585714D01*
X174557142Y-99633333D01*
X174461904Y-99680952D01*
X174176190Y-99680952D01*
X174080952Y-99633333D01*
X174033333Y-99585714D01*
X173985714Y-99490476D01*
X173985714Y-99347619D01*
X174033333Y-99252380D01*
X174080952Y-99204761D01*
X174176190Y-99157142D01*
X174461904Y-99157142D01*
X174557142Y-99204761D01*
X174604761Y-99252380D01*
X174652380Y-99347619D01*
X174652380Y-99490476D01*
X173985714Y-98728571D02*
X174652380Y-98728571D01*
X174080952Y-98728571D02*
X174033333Y-98680952D01*
X173985714Y-98585714D01*
X173985714Y-98442857D01*
X174033333Y-98347619D01*
X174128571Y-98300000D01*
X174652380Y-98300000D01*
X174604761Y-97871428D02*
X174652380Y-97776190D01*
X174652380Y-97585714D01*
X174604761Y-97490476D01*
X174509523Y-97442857D01*
X174461904Y-97442857D01*
X174366666Y-97490476D01*
X174319047Y-97585714D01*
X174319047Y-97728571D01*
X174271428Y-97823809D01*
X174176190Y-97871428D01*
X174128571Y-97871428D01*
X174033333Y-97823809D01*
X173985714Y-97728571D01*
X173985714Y-97585714D01*
X174033333Y-97490476D01*
X174557142Y-97014285D02*
X174604761Y-96966666D01*
X174652380Y-97014285D01*
X174604761Y-97061904D01*
X174557142Y-97014285D01*
X174652380Y-97014285D01*
X174652380Y-96395238D02*
X174604761Y-96490476D01*
X174557142Y-96538095D01*
X174461904Y-96585714D01*
X174176190Y-96585714D01*
X174080952Y-96538095D01*
X174033333Y-96490476D01*
X173985714Y-96395238D01*
X173985714Y-96252380D01*
X174033333Y-96157142D01*
X174080952Y-96109523D01*
X174176190Y-96061904D01*
X174461904Y-96061904D01*
X174557142Y-96109523D01*
X174604761Y-96157142D01*
X174652380Y-96252380D01*
X174652380Y-96395238D01*
X174652380Y-95633333D02*
X173985714Y-95633333D01*
X174176190Y-95633333D02*
X174080952Y-95585714D01*
X174033333Y-95538095D01*
X173985714Y-95442857D01*
X173985714Y-95347619D01*
X173985714Y-94585714D02*
X174795238Y-94585714D01*
X174890476Y-94633333D01*
X174938095Y-94680952D01*
X174985714Y-94776190D01*
X174985714Y-94919047D01*
X174938095Y-95014285D01*
X174604761Y-94585714D02*
X174652380Y-94680952D01*
X174652380Y-94871428D01*
X174604761Y-94966666D01*
X174557142Y-95014285D01*
X174461904Y-95061904D01*
X174176190Y-95061904D01*
X174080952Y-95014285D01*
X174033333Y-94966666D01*
X173985714Y-94871428D01*
X173985714Y-94680952D01*
X174033333Y-94585714D01*
X173604761Y-93395238D02*
X174890476Y-94252380D01*
X174652380Y-92919047D02*
X174604761Y-93014285D01*
X174509523Y-93061904D01*
X173652380Y-93061904D01*
X174652380Y-92538095D02*
X173985714Y-92538095D01*
X173652380Y-92538095D02*
X173700000Y-92585714D01*
X173747619Y-92538095D01*
X173700000Y-92490476D01*
X173652380Y-92538095D01*
X173747619Y-92538095D01*
X174604761Y-91633333D02*
X174652380Y-91728571D01*
X174652380Y-91919047D01*
X174604761Y-92014285D01*
X174557142Y-92061904D01*
X174461904Y-92109523D01*
X174176190Y-92109523D01*
X174080952Y-92061904D01*
X174033333Y-92014285D01*
X173985714Y-91919047D01*
X173985714Y-91728571D01*
X174033333Y-91633333D01*
X174604761Y-90823809D02*
X174652380Y-90919047D01*
X174652380Y-91109523D01*
X174604761Y-91204761D01*
X174509523Y-91252380D01*
X174128571Y-91252380D01*
X174033333Y-91204761D01*
X173985714Y-91109523D01*
X173985714Y-90919047D01*
X174033333Y-90823809D01*
X174128571Y-90776190D01*
X174223809Y-90776190D01*
X174319047Y-91252380D01*
X173985714Y-90347619D02*
X174652380Y-90347619D01*
X174080952Y-90347619D02*
X174033333Y-90300000D01*
X173985714Y-90204761D01*
X173985714Y-90061904D01*
X174033333Y-89966666D01*
X174128571Y-89919047D01*
X174652380Y-89919047D01*
X174604761Y-89490476D02*
X174652380Y-89395238D01*
X174652380Y-89204761D01*
X174604761Y-89109523D01*
X174509523Y-89061904D01*
X174461904Y-89061904D01*
X174366666Y-89109523D01*
X174319047Y-89204761D01*
X174319047Y-89347619D01*
X174271428Y-89442857D01*
X174176190Y-89490476D01*
X174128571Y-89490476D01*
X174033333Y-89442857D01*
X173985714Y-89347619D01*
X173985714Y-89204761D01*
X174033333Y-89109523D01*
X174604761Y-88252380D02*
X174652380Y-88347619D01*
X174652380Y-88538095D01*
X174604761Y-88633333D01*
X174509523Y-88680952D01*
X174128571Y-88680952D01*
X174033333Y-88633333D01*
X173985714Y-88538095D01*
X173985714Y-88347619D01*
X174033333Y-88252380D01*
X174128571Y-88204761D01*
X174223809Y-88204761D01*
X174319047Y-88680952D01*
X174604761Y-87823809D02*
X174652380Y-87728571D01*
X174652380Y-87538095D01*
X174604761Y-87442857D01*
X174509523Y-87395238D01*
X174461904Y-87395238D01*
X174366666Y-87442857D01*
X174319047Y-87538095D01*
X174319047Y-87680952D01*
X174271428Y-87776190D01*
X174176190Y-87823809D01*
X174128571Y-87823809D01*
X174033333Y-87776190D01*
X173985714Y-87680952D01*
X173985714Y-87538095D01*
X174033333Y-87442857D01*
X173604761Y-86252380D02*
X174890476Y-87109523D01*
X174652380Y-85919047D02*
X173652380Y-85919047D01*
X174033333Y-85919047D02*
X173985714Y-85823809D01*
X173985714Y-85633333D01*
X174033333Y-85538095D01*
X174080952Y-85490476D01*
X174176190Y-85442857D01*
X174461904Y-85442857D01*
X174557142Y-85490476D01*
X174604761Y-85538095D01*
X174652380Y-85633333D01*
X174652380Y-85823809D01*
X174604761Y-85919047D01*
X173985714Y-85109523D02*
X174652380Y-84871428D01*
X173985714Y-84633333D02*
X174652380Y-84871428D01*
X174890476Y-84966666D01*
X174938095Y-85014285D01*
X174985714Y-85109523D01*
X174271428Y-84252380D02*
X174271428Y-83490476D01*
X174604761Y-83061904D02*
X174652380Y-82966666D01*
X174652380Y-82776190D01*
X174604761Y-82680952D01*
X174509523Y-82633333D01*
X174461904Y-82633333D01*
X174366666Y-82680952D01*
X174319047Y-82776190D01*
X174319047Y-82919047D01*
X174271428Y-83014285D01*
X174176190Y-83061904D01*
X174128571Y-83061904D01*
X174033333Y-83014285D01*
X173985714Y-82919047D01*
X173985714Y-82776190D01*
X174033333Y-82680952D01*
X174652380Y-81776190D02*
X174128571Y-81776190D01*
X174033333Y-81823809D01*
X173985714Y-81919047D01*
X173985714Y-82109523D01*
X174033333Y-82204761D01*
X174604761Y-81776190D02*
X174652380Y-81871428D01*
X174652380Y-82109523D01*
X174604761Y-82204761D01*
X174509523Y-82252380D01*
X174414285Y-82252380D01*
X174319047Y-82204761D01*
X174271428Y-82109523D01*
X174271428Y-81871428D01*
X174223809Y-81776190D01*
X173604761Y-80585714D02*
X174890476Y-81442857D01*
X173985714Y-79823809D02*
X174652380Y-79823809D01*
X173604761Y-80061904D02*
X174319047Y-80300000D01*
X174319047Y-79680952D01*
X174557142Y-79300000D02*
X174604761Y-79252380D01*
X174652380Y-79300000D01*
X174604761Y-79347619D01*
X174557142Y-79300000D01*
X174652380Y-79300000D01*
X173652380Y-78633333D02*
X173652380Y-78538095D01*
X173700000Y-78442857D01*
X173747619Y-78395238D01*
X173842857Y-78347619D01*
X174033333Y-78300000D01*
X174271428Y-78300000D01*
X174461904Y-78347619D01*
X174557142Y-78395238D01*
X174604761Y-78442857D01*
X174652380Y-78538095D01*
X174652380Y-78633333D01*
X174604761Y-78728571D01*
X174557142Y-78776190D01*
X174461904Y-78823809D01*
X174271428Y-78871428D01*
X174033333Y-78871428D01*
X173842857Y-78823809D01*
X173747619Y-78776190D01*
X173700000Y-78728571D01*
X173652380Y-78633333D01*
X173604761Y-77157142D02*
X174890476Y-78014285D01*
D11*
X150721428Y-103888095D02*
X151154761Y-105188095D01*
X151588095Y-103888095D01*
X152207142Y-105188095D02*
X152083333Y-105126190D01*
X152021428Y-105064285D01*
X151959523Y-104940476D01*
X151959523Y-104569047D01*
X152021428Y-104445238D01*
X152083333Y-104383333D01*
X152207142Y-104321428D01*
X152392857Y-104321428D01*
X152516666Y-104383333D01*
X152578571Y-104445238D01*
X152640476Y-104569047D01*
X152640476Y-104940476D01*
X152578571Y-105064285D01*
X152516666Y-105126190D01*
X152392857Y-105188095D01*
X152207142Y-105188095D01*
X153383333Y-105188095D02*
X153259523Y-105126190D01*
X153197619Y-105002380D01*
X153197619Y-103888095D01*
X154435714Y-104321428D02*
X154435714Y-105188095D01*
X153878571Y-104321428D02*
X153878571Y-105002380D01*
X153940476Y-105126190D01*
X154064285Y-105188095D01*
X154250000Y-105188095D01*
X154373809Y-105126190D01*
X154435714Y-105064285D01*
X155054761Y-105188095D02*
X155054761Y-104321428D01*
X155054761Y-104445238D02*
X155116666Y-104383333D01*
X155240476Y-104321428D01*
X155426190Y-104321428D01*
X155550000Y-104383333D01*
X155611904Y-104507142D01*
X155611904Y-105188095D01*
X155611904Y-104507142D02*
X155673809Y-104383333D01*
X155797619Y-104321428D01*
X155983333Y-104321428D01*
X156107142Y-104383333D01*
X156169047Y-104507142D01*
X156169047Y-105188095D01*
X157283333Y-105126190D02*
X157159523Y-105188095D01*
X156911904Y-105188095D01*
X156788095Y-105126190D01*
X156726190Y-105002380D01*
X156726190Y-104507142D01*
X156788095Y-104383333D01*
X156911904Y-104321428D01*
X157159523Y-104321428D01*
X157283333Y-104383333D01*
X157345238Y-104507142D01*
X157345238Y-104630952D01*
X156726190Y-104754761D01*
X158892857Y-105188095D02*
X158892857Y-103888095D01*
X159388095Y-103888095D01*
X159511904Y-103950000D01*
X159573809Y-104011904D01*
X159635714Y-104135714D01*
X159635714Y-104321428D01*
X159573809Y-104445238D01*
X159511904Y-104507142D01*
X159388095Y-104569047D01*
X158892857Y-104569047D01*
X160378571Y-105188095D02*
X160254761Y-105126190D01*
X160192857Y-105064285D01*
X160130952Y-104940476D01*
X160130952Y-104569047D01*
X160192857Y-104445238D01*
X160254761Y-104383333D01*
X160378571Y-104321428D01*
X160564285Y-104321428D01*
X160688095Y-104383333D01*
X160750000Y-104445238D01*
X160811904Y-104569047D01*
X160811904Y-104940476D01*
X160750000Y-105064285D01*
X160688095Y-105126190D01*
X160564285Y-105188095D01*
X160378571Y-105188095D01*
X161183333Y-104321428D02*
X161678571Y-104321428D01*
X161369047Y-103888095D02*
X161369047Y-105002380D01*
X161430952Y-105126190D01*
X161554761Y-105188095D01*
X161678571Y-105188095D01*
X91069047Y-104607142D02*
X91254761Y-104669047D01*
X91316666Y-104730952D01*
X91378571Y-104854761D01*
X91378571Y-105040476D01*
X91316666Y-105164285D01*
X91254761Y-105226190D01*
X91130952Y-105288095D01*
X90635714Y-105288095D01*
X90635714Y-103988095D01*
X91069047Y-103988095D01*
X91192857Y-104050000D01*
X91254761Y-104111904D01*
X91316666Y-104235714D01*
X91316666Y-104359523D01*
X91254761Y-104483333D01*
X91192857Y-104545238D01*
X91069047Y-104607142D01*
X90635714Y-104607142D01*
X92492857Y-105288095D02*
X92492857Y-104607142D01*
X92430952Y-104483333D01*
X92307142Y-104421428D01*
X92059523Y-104421428D01*
X91935714Y-104483333D01*
X92492857Y-105226190D02*
X92369047Y-105288095D01*
X92059523Y-105288095D01*
X91935714Y-105226190D01*
X91873809Y-105102380D01*
X91873809Y-104978571D01*
X91935714Y-104854761D01*
X92059523Y-104792857D01*
X92369047Y-104792857D01*
X92492857Y-104730952D01*
X93297619Y-105288095D02*
X93173809Y-105226190D01*
X93111904Y-105102380D01*
X93111904Y-103988095D01*
X94350000Y-105288095D02*
X94350000Y-104607142D01*
X94288095Y-104483333D01*
X94164285Y-104421428D01*
X93916666Y-104421428D01*
X93792857Y-104483333D01*
X94350000Y-105226190D02*
X94226190Y-105288095D01*
X93916666Y-105288095D01*
X93792857Y-105226190D01*
X93730952Y-105102380D01*
X93730952Y-104978571D01*
X93792857Y-104854761D01*
X93916666Y-104792857D01*
X94226190Y-104792857D01*
X94350000Y-104730952D01*
X94969047Y-104421428D02*
X94969047Y-105288095D01*
X94969047Y-104545238D02*
X95030952Y-104483333D01*
X95154761Y-104421428D01*
X95340476Y-104421428D01*
X95464285Y-104483333D01*
X95526190Y-104607142D01*
X95526190Y-105288095D01*
X96702380Y-105226190D02*
X96578571Y-105288095D01*
X96330952Y-105288095D01*
X96207142Y-105226190D01*
X96145238Y-105164285D01*
X96083333Y-105040476D01*
X96083333Y-104669047D01*
X96145238Y-104545238D01*
X96207142Y-104483333D01*
X96330952Y-104421428D01*
X96578571Y-104421428D01*
X96702380Y-104483333D01*
X97754761Y-105226190D02*
X97630952Y-105288095D01*
X97383333Y-105288095D01*
X97259523Y-105226190D01*
X97197619Y-105102380D01*
X97197619Y-104607142D01*
X97259523Y-104483333D01*
X97383333Y-104421428D01*
X97630952Y-104421428D01*
X97754761Y-104483333D01*
X97816666Y-104607142D01*
X97816666Y-104730952D01*
X97197619Y-104854761D01*
X99364285Y-105288095D02*
X99364285Y-103988095D01*
X99859523Y-103988095D01*
X99983333Y-104050000D01*
X100045238Y-104111904D01*
X100107142Y-104235714D01*
X100107142Y-104421428D01*
X100045238Y-104545238D01*
X99983333Y-104607142D01*
X99859523Y-104669047D01*
X99364285Y-104669047D01*
X100850000Y-105288095D02*
X100726190Y-105226190D01*
X100664285Y-105164285D01*
X100602380Y-105040476D01*
X100602380Y-104669047D01*
X100664285Y-104545238D01*
X100726190Y-104483333D01*
X100850000Y-104421428D01*
X101035714Y-104421428D01*
X101159523Y-104483333D01*
X101221428Y-104545238D01*
X101283333Y-104669047D01*
X101283333Y-105040476D01*
X101221428Y-105164285D01*
X101159523Y-105226190D01*
X101035714Y-105288095D01*
X100850000Y-105288095D01*
X101654761Y-104421428D02*
X102150000Y-104421428D01*
X101840476Y-103988095D02*
X101840476Y-105102380D01*
X101902380Y-105226190D01*
X102026190Y-105288095D01*
X102150000Y-105288095D01*
D12*
X152160000Y-117800000D02*
X151660000Y-117300000D01*
X151660000Y-118300000D02*
X152160000Y-117800000D01*
X159485000Y-160720000D02*
X152915000Y-160720000D01*
X152915000Y-138490000D02*
X152915000Y-160720000D01*
X159485000Y-138490000D02*
X159485000Y-160720000D01*
X161075000Y-138490000D02*
X151325000Y-138490000D01*
X151325000Y-128960000D02*
X151325000Y-138490000D01*
X161075000Y-128960000D02*
X161075000Y-138490000D01*
X164250000Y-128960000D02*
X148150000Y-128960000D01*
X164250000Y-105880000D02*
X148150000Y-105880000D01*
X148150000Y-105880000D02*
X148150000Y-128960000D01*
X164250000Y-105880000D02*
X164250000Y-128960000D01*
X92160000Y-117800000D02*
X91660000Y-117300000D01*
X91660000Y-118300000D02*
X92160000Y-117800000D01*
X99485000Y-160720000D02*
X92915000Y-160720000D01*
X92915000Y-138490000D02*
X92915000Y-160720000D01*
X99485000Y-138490000D02*
X99485000Y-160720000D01*
X101075000Y-138490000D02*
X91325000Y-138490000D01*
X91325000Y-128960000D02*
X91325000Y-138490000D01*
X101075000Y-128960000D02*
X101075000Y-138490000D01*
X104250000Y-128960000D02*
X88150000Y-128960000D01*
X104250000Y-105880000D02*
X88150000Y-105880000D01*
X88150000Y-105880000D02*
X88150000Y-128960000D01*
X104250000Y-105880000D02*
X104250000Y-128960000D01*
X174010000Y-62990000D02*
G75*
G03X174010000Y-62990000I-6370000J0D01*
G01*
X163175000Y-76365000D02*
G75*
G03X163175000Y-76365000I-6370000J0D01*
G01*
X158135000Y-62990000D02*
G75*
G03X158135000Y-62990000I-6370000J0D01*
G01*
X143530000Y-62990000D02*
G75*
G03X143530000Y-62990000I-6370000J0D01*
G01*
D10*
X112525000Y-85890000D02*
G75*
G03X112525000Y-85890000I-1400000J0D01*
G01*
X111255000Y-77635000D02*
G75*
G03X111255000Y-77635000I-1400000J0D01*
G01*
X104905000Y-93510000D02*
G75*
G03X104905000Y-93510000I-1400000J0D01*
G01*
X84585000Y-82080000D02*
G75*
G03X84585000Y-82080000I-1400000J0D01*
G01*
X83315000Y-68745000D02*
G75*
G03X83315000Y-68745000I-1400000J0D01*
G01*
X90935000Y-91605000D02*
G75*
G03X90935000Y-91605000I-1400000J0D01*
G01*
X143640000Y-80175000D02*
G75*
G03X143640000Y-80175000I-1400000J0D01*
G01*
X121415000Y-90970000D02*
G75*
G03X121415000Y-90970000I-1400000J0D01*
G01*
X144275000Y-54140000D02*
G75*
G03X144275000Y-54140000I-1400000J0D01*
G01*
X148720000Y-54140000D02*
G75*
G03X148720000Y-54140000I-1400000J0D01*
G01*
X167580000Y-81620000D02*
G75*
G03X167580000Y-81620000I-1400000J0D01*
G01*
X144910000Y-97955000D02*
G75*
G03X144910000Y-97955000I-1400000J0D01*
G01*
X163960000Y-53505000D02*
G75*
G03X163960000Y-53505000I-1400000J0D01*
G01*
X168405000Y-52870000D02*
G75*
G03X168405000Y-52870000I-1400000J0D01*
G01*
D12*
X114735000Y-111864646D02*
X115735000Y-111864646D01*
X115235000Y-112364646D02*
X115235000Y-111364646D01*
X117511000Y-101804000D02*
X118709000Y-101804000D01*
X117248000Y-101844000D02*
X118972000Y-101844000D01*
X117048000Y-101884000D02*
X119172000Y-101884000D01*
X116880000Y-101924000D02*
X119340000Y-101924000D01*
X116732000Y-101964000D02*
X119488000Y-101964000D01*
X116600000Y-102004000D02*
X119620000Y-102004000D01*
X116480000Y-102044000D02*
X119740000Y-102044000D01*
X116368000Y-102084000D02*
X119852000Y-102084000D01*
X116264000Y-102124000D02*
X119956000Y-102124000D01*
X116166000Y-102164000D02*
X120054000Y-102164000D01*
X116073000Y-102204000D02*
X120147000Y-102204000D01*
X115985000Y-102244000D02*
X120235000Y-102244000D01*
X115901000Y-102284000D02*
X120319000Y-102284000D01*
X115821000Y-102324000D02*
X120399000Y-102324000D01*
X115745000Y-102364000D02*
X120475000Y-102364000D01*
X115671000Y-102404000D02*
X120549000Y-102404000D01*
X115600000Y-102444000D02*
X120620000Y-102444000D01*
X115531000Y-102484000D02*
X120689000Y-102484000D01*
X115465000Y-102524000D02*
X120755000Y-102524000D01*
X115401000Y-102564000D02*
X120819000Y-102564000D01*
X115340000Y-102604000D02*
X120880000Y-102604000D01*
X115280000Y-102644000D02*
X120940000Y-102644000D01*
X115221000Y-102684000D02*
X120999000Y-102684000D01*
X115165000Y-102724000D02*
X121055000Y-102724000D01*
X115110000Y-102764000D02*
X121110000Y-102764000D01*
X115056000Y-102804000D02*
X121164000Y-102804000D01*
X115004000Y-102844000D02*
X121216000Y-102844000D01*
X114954000Y-102884000D02*
X121266000Y-102884000D01*
X114904000Y-102924000D02*
X121316000Y-102924000D01*
X114856000Y-102964000D02*
X121364000Y-102964000D01*
X114809000Y-103004000D02*
X121411000Y-103004000D01*
X114763000Y-103044000D02*
X121457000Y-103044000D01*
X114718000Y-103084000D02*
X121502000Y-103084000D01*
X114674000Y-103124000D02*
X121546000Y-103124000D01*
X119351000Y-103164000D02*
X121588000Y-103164000D01*
X114632000Y-103164000D02*
X116869000Y-103164000D01*
X119351000Y-103204000D02*
X121630000Y-103204000D01*
X114590000Y-103204000D02*
X116869000Y-103204000D01*
X119351000Y-103244000D02*
X121671000Y-103244000D01*
X114549000Y-103244000D02*
X116869000Y-103244000D01*
X119351000Y-103284000D02*
X121711000Y-103284000D01*
X114509000Y-103284000D02*
X116869000Y-103284000D01*
X119351000Y-103324000D02*
X121750000Y-103324000D01*
X114470000Y-103324000D02*
X116869000Y-103324000D01*
X119351000Y-103364000D02*
X121789000Y-103364000D01*
X114431000Y-103364000D02*
X116869000Y-103364000D01*
X119351000Y-103404000D02*
X121826000Y-103404000D01*
X114394000Y-103404000D02*
X116869000Y-103404000D01*
X119351000Y-103444000D02*
X121863000Y-103444000D01*
X114357000Y-103444000D02*
X116869000Y-103444000D01*
X119351000Y-103484000D02*
X121899000Y-103484000D01*
X114321000Y-103484000D02*
X116869000Y-103484000D01*
X119351000Y-103524000D02*
X121934000Y-103524000D01*
X114286000Y-103524000D02*
X116869000Y-103524000D01*
X119351000Y-103564000D02*
X121968000Y-103564000D01*
X114252000Y-103564000D02*
X116869000Y-103564000D01*
X119351000Y-103604000D02*
X122002000Y-103604000D01*
X114218000Y-103604000D02*
X116869000Y-103604000D01*
X119351000Y-103644000D02*
X122035000Y-103644000D01*
X114185000Y-103644000D02*
X116869000Y-103644000D01*
X119351000Y-103684000D02*
X122067000Y-103684000D01*
X114153000Y-103684000D02*
X116869000Y-103684000D01*
X119351000Y-103724000D02*
X122099000Y-103724000D01*
X114121000Y-103724000D02*
X116869000Y-103724000D01*
X119351000Y-103764000D02*
X122130000Y-103764000D01*
X114090000Y-103764000D02*
X116869000Y-103764000D01*
X119351000Y-103804000D02*
X122160000Y-103804000D01*
X114060000Y-103804000D02*
X116869000Y-103804000D01*
X119351000Y-103844000D02*
X122190000Y-103844000D01*
X114030000Y-103844000D02*
X116869000Y-103844000D01*
X119351000Y-103884000D02*
X122220000Y-103884000D01*
X114000000Y-103884000D02*
X116869000Y-103884000D01*
X119351000Y-103924000D02*
X122248000Y-103924000D01*
X113972000Y-103924000D02*
X116869000Y-103924000D01*
X119351000Y-103964000D02*
X122276000Y-103964000D01*
X113944000Y-103964000D02*
X116869000Y-103964000D01*
X119351000Y-104004000D02*
X122304000Y-104004000D01*
X113916000Y-104004000D02*
X116869000Y-104004000D01*
X119351000Y-104044000D02*
X122331000Y-104044000D01*
X113889000Y-104044000D02*
X116869000Y-104044000D01*
X119351000Y-104084000D02*
X122357000Y-104084000D01*
X113863000Y-104084000D02*
X116869000Y-104084000D01*
X119351000Y-104124000D02*
X122383000Y-104124000D01*
X113837000Y-104124000D02*
X116869000Y-104124000D01*
X119351000Y-104164000D02*
X122408000Y-104164000D01*
X113812000Y-104164000D02*
X116869000Y-104164000D01*
X119351000Y-104204000D02*
X122433000Y-104204000D01*
X113787000Y-104204000D02*
X116869000Y-104204000D01*
X119351000Y-104244000D02*
X122457000Y-104244000D01*
X113763000Y-104244000D02*
X116869000Y-104244000D01*
X119351000Y-104284000D02*
X122481000Y-104284000D01*
X113739000Y-104284000D02*
X116869000Y-104284000D01*
X119351000Y-104324000D02*
X122505000Y-104324000D01*
X113715000Y-104324000D02*
X116869000Y-104324000D01*
X119351000Y-104364000D02*
X122527000Y-104364000D01*
X113693000Y-104364000D02*
X116869000Y-104364000D01*
X119351000Y-104404000D02*
X122550000Y-104404000D01*
X113670000Y-104404000D02*
X116869000Y-104404000D01*
X119351000Y-104444000D02*
X122572000Y-104444000D01*
X113648000Y-104444000D02*
X116869000Y-104444000D01*
X119351000Y-104484000D02*
X122593000Y-104484000D01*
X113627000Y-104484000D02*
X116869000Y-104484000D01*
X119351000Y-104524000D02*
X122614000Y-104524000D01*
X113606000Y-104524000D02*
X116869000Y-104524000D01*
X119351000Y-104564000D02*
X122635000Y-104564000D01*
X113585000Y-104564000D02*
X116869000Y-104564000D01*
X119351000Y-104604000D02*
X122655000Y-104604000D01*
X113565000Y-104604000D02*
X116869000Y-104604000D01*
X119351000Y-104644000D02*
X122674000Y-104644000D01*
X113546000Y-104644000D02*
X116869000Y-104644000D01*
X119351000Y-104684000D02*
X122694000Y-104684000D01*
X113526000Y-104684000D02*
X116869000Y-104684000D01*
X119351000Y-104724000D02*
X122713000Y-104724000D01*
X113507000Y-104724000D02*
X116869000Y-104724000D01*
X119351000Y-104764000D02*
X122731000Y-104764000D01*
X113489000Y-104764000D02*
X116869000Y-104764000D01*
X119351000Y-104804000D02*
X122749000Y-104804000D01*
X113471000Y-104804000D02*
X116869000Y-104804000D01*
X119351000Y-104844000D02*
X122767000Y-104844000D01*
X113453000Y-104844000D02*
X116869000Y-104844000D01*
X119351000Y-104884000D02*
X122784000Y-104884000D01*
X113436000Y-104884000D02*
X116869000Y-104884000D01*
X119351000Y-104924000D02*
X122800000Y-104924000D01*
X113420000Y-104924000D02*
X116869000Y-104924000D01*
X119351000Y-104964000D02*
X122817000Y-104964000D01*
X113403000Y-104964000D02*
X116869000Y-104964000D01*
X119351000Y-105004000D02*
X122833000Y-105004000D01*
X113387000Y-105004000D02*
X116869000Y-105004000D01*
X119351000Y-105044000D02*
X122848000Y-105044000D01*
X113372000Y-105044000D02*
X116869000Y-105044000D01*
X119351000Y-105084000D02*
X122864000Y-105084000D01*
X113356000Y-105084000D02*
X116869000Y-105084000D01*
X119351000Y-105124000D02*
X122878000Y-105124000D01*
X113342000Y-105124000D02*
X116869000Y-105124000D01*
X119351000Y-105164000D02*
X122893000Y-105164000D01*
X113327000Y-105164000D02*
X116869000Y-105164000D01*
X119351000Y-105204000D02*
X122907000Y-105204000D01*
X113313000Y-105204000D02*
X116869000Y-105204000D01*
X119351000Y-105244000D02*
X122921000Y-105244000D01*
X113299000Y-105244000D02*
X116869000Y-105244000D01*
X119351000Y-105284000D02*
X122934000Y-105284000D01*
X113286000Y-105284000D02*
X116869000Y-105284000D01*
X119351000Y-105324000D02*
X122947000Y-105324000D01*
X113273000Y-105324000D02*
X116869000Y-105324000D01*
X119351000Y-105364000D02*
X122960000Y-105364000D01*
X113260000Y-105364000D02*
X116869000Y-105364000D01*
X119351000Y-105404000D02*
X122972000Y-105404000D01*
X113248000Y-105404000D02*
X116869000Y-105404000D01*
X119351000Y-105444000D02*
X122984000Y-105444000D01*
X113236000Y-105444000D02*
X116869000Y-105444000D01*
X119351000Y-105484000D02*
X122995000Y-105484000D01*
X113225000Y-105484000D02*
X116869000Y-105484000D01*
X119351000Y-105524000D02*
X123007000Y-105524000D01*
X113213000Y-105524000D02*
X116869000Y-105524000D01*
X119351000Y-105564000D02*
X123017000Y-105564000D01*
X113203000Y-105564000D02*
X116869000Y-105564000D01*
X119351000Y-105604000D02*
X123028000Y-105604000D01*
X113192000Y-105604000D02*
X116869000Y-105604000D01*
X113182000Y-105644000D02*
X123038000Y-105644000D01*
X113172000Y-105684000D02*
X123048000Y-105684000D01*
X113163000Y-105724000D02*
X123057000Y-105724000D01*
X113154000Y-105764000D02*
X123066000Y-105764000D01*
X113145000Y-105804000D02*
X123075000Y-105804000D01*
X113136000Y-105844000D02*
X123084000Y-105844000D01*
X113128000Y-105884000D02*
X123092000Y-105884000D01*
X113120000Y-105924000D02*
X123100000Y-105924000D01*
X113113000Y-105964000D02*
X123107000Y-105964000D01*
X113106000Y-106004000D02*
X123114000Y-106004000D01*
X113099000Y-106044000D02*
X123121000Y-106044000D01*
X113092000Y-106084000D02*
X123128000Y-106084000D01*
X113086000Y-106124000D02*
X123134000Y-106124000D01*
X113080000Y-106164000D02*
X123140000Y-106164000D01*
X113075000Y-106205000D02*
X123145000Y-106205000D01*
X113070000Y-106245000D02*
X123150000Y-106245000D01*
X113065000Y-106285000D02*
X123155000Y-106285000D01*
X113060000Y-106325000D02*
X123160000Y-106325000D01*
X113056000Y-106365000D02*
X123164000Y-106365000D01*
X113052000Y-106405000D02*
X123168000Y-106405000D01*
X113048000Y-106445000D02*
X123172000Y-106445000D01*
X113045000Y-106485000D02*
X123175000Y-106485000D01*
X113042000Y-106525000D02*
X123178000Y-106525000D01*
X113040000Y-106565000D02*
X123180000Y-106565000D01*
X113037000Y-106605000D02*
X123183000Y-106605000D01*
X113035000Y-106645000D02*
X123185000Y-106645000D01*
X113033000Y-106685000D02*
X123187000Y-106685000D01*
X113032000Y-106725000D02*
X123188000Y-106725000D01*
X113031000Y-106765000D02*
X123189000Y-106765000D01*
X113030000Y-106805000D02*
X123190000Y-106805000D01*
X113030000Y-106845000D02*
X123190000Y-106845000D01*
X113030000Y-106885000D02*
X123190000Y-106885000D01*
X123230000Y-106885000D02*
G75*
G03X123230000Y-106885000I-5120000J0D01*
G01*
X123230000Y-120140000D02*
G75*
G03X123230000Y-120140000I-5120000J0D01*
G01*
X123190000Y-120140000D02*
X113030000Y-120140000D01*
X123190000Y-120180000D02*
X113030000Y-120180000D01*
X123190000Y-120220000D02*
X113030000Y-120220000D01*
X123189000Y-120260000D02*
X113031000Y-120260000D01*
X123188000Y-120300000D02*
X113032000Y-120300000D01*
X123187000Y-120340000D02*
X113033000Y-120340000D01*
X123185000Y-120380000D02*
X113035000Y-120380000D01*
X123183000Y-120420000D02*
X113037000Y-120420000D01*
X123180000Y-120460000D02*
X113040000Y-120460000D01*
X123178000Y-120500000D02*
X113042000Y-120500000D01*
X123175000Y-120540000D02*
X113045000Y-120540000D01*
X123172000Y-120580000D02*
X113048000Y-120580000D01*
X123168000Y-120620000D02*
X113052000Y-120620000D01*
X123164000Y-120660000D02*
X113056000Y-120660000D01*
X123160000Y-120700000D02*
X113060000Y-120700000D01*
X123155000Y-120740000D02*
X113065000Y-120740000D01*
X123150000Y-120780000D02*
X113070000Y-120780000D01*
X123145000Y-120820000D02*
X113075000Y-120820000D01*
X123140000Y-120861000D02*
X113080000Y-120861000D01*
X123134000Y-120901000D02*
X113086000Y-120901000D01*
X123128000Y-120941000D02*
X113092000Y-120941000D01*
X123121000Y-120981000D02*
X113099000Y-120981000D01*
X123114000Y-121021000D02*
X113106000Y-121021000D01*
X123107000Y-121061000D02*
X113113000Y-121061000D01*
X123100000Y-121101000D02*
X113120000Y-121101000D01*
X123092000Y-121141000D02*
X113128000Y-121141000D01*
X123084000Y-121181000D02*
X113136000Y-121181000D01*
X123075000Y-121221000D02*
X113145000Y-121221000D01*
X123066000Y-121261000D02*
X113154000Y-121261000D01*
X123057000Y-121301000D02*
X113163000Y-121301000D01*
X123048000Y-121341000D02*
X113172000Y-121341000D01*
X123038000Y-121381000D02*
X113182000Y-121381000D01*
X123028000Y-121421000D02*
X119351000Y-121421000D01*
X116869000Y-121421000D02*
X113192000Y-121421000D01*
X123017000Y-121461000D02*
X119351000Y-121461000D01*
X116869000Y-121461000D02*
X113203000Y-121461000D01*
X123007000Y-121501000D02*
X119351000Y-121501000D01*
X116869000Y-121501000D02*
X113213000Y-121501000D01*
X122995000Y-121541000D02*
X119351000Y-121541000D01*
X116869000Y-121541000D02*
X113225000Y-121541000D01*
X122984000Y-121581000D02*
X119351000Y-121581000D01*
X116869000Y-121581000D02*
X113236000Y-121581000D01*
X122972000Y-121621000D02*
X119351000Y-121621000D01*
X116869000Y-121621000D02*
X113248000Y-121621000D01*
X122960000Y-121661000D02*
X119351000Y-121661000D01*
X116869000Y-121661000D02*
X113260000Y-121661000D01*
X122947000Y-121701000D02*
X119351000Y-121701000D01*
X116869000Y-121701000D02*
X113273000Y-121701000D01*
X122934000Y-121741000D02*
X119351000Y-121741000D01*
X116869000Y-121741000D02*
X113286000Y-121741000D01*
X122921000Y-121781000D02*
X119351000Y-121781000D01*
X116869000Y-121781000D02*
X113299000Y-121781000D01*
X122907000Y-121821000D02*
X119351000Y-121821000D01*
X116869000Y-121821000D02*
X113313000Y-121821000D01*
X122893000Y-121861000D02*
X119351000Y-121861000D01*
X116869000Y-121861000D02*
X113327000Y-121861000D01*
X122878000Y-121901000D02*
X119351000Y-121901000D01*
X116869000Y-121901000D02*
X113342000Y-121901000D01*
X122864000Y-121941000D02*
X119351000Y-121941000D01*
X116869000Y-121941000D02*
X113356000Y-121941000D01*
X122848000Y-121981000D02*
X119351000Y-121981000D01*
X116869000Y-121981000D02*
X113372000Y-121981000D01*
X122833000Y-122021000D02*
X119351000Y-122021000D01*
X116869000Y-122021000D02*
X113387000Y-122021000D01*
X122817000Y-122061000D02*
X119351000Y-122061000D01*
X116869000Y-122061000D02*
X113403000Y-122061000D01*
X122800000Y-122101000D02*
X119351000Y-122101000D01*
X116869000Y-122101000D02*
X113420000Y-122101000D01*
X122784000Y-122141000D02*
X119351000Y-122141000D01*
X116869000Y-122141000D02*
X113436000Y-122141000D01*
X122767000Y-122181000D02*
X119351000Y-122181000D01*
X116869000Y-122181000D02*
X113453000Y-122181000D01*
X122749000Y-122221000D02*
X119351000Y-122221000D01*
X116869000Y-122221000D02*
X113471000Y-122221000D01*
X122731000Y-122261000D02*
X119351000Y-122261000D01*
X116869000Y-122261000D02*
X113489000Y-122261000D01*
X122713000Y-122301000D02*
X119351000Y-122301000D01*
X116869000Y-122301000D02*
X113507000Y-122301000D01*
X122694000Y-122341000D02*
X119351000Y-122341000D01*
X116869000Y-122341000D02*
X113526000Y-122341000D01*
X122674000Y-122381000D02*
X119351000Y-122381000D01*
X116869000Y-122381000D02*
X113546000Y-122381000D01*
X122655000Y-122421000D02*
X119351000Y-122421000D01*
X116869000Y-122421000D02*
X113565000Y-122421000D01*
X122635000Y-122461000D02*
X119351000Y-122461000D01*
X116869000Y-122461000D02*
X113585000Y-122461000D01*
X122614000Y-122501000D02*
X119351000Y-122501000D01*
X116869000Y-122501000D02*
X113606000Y-122501000D01*
X122593000Y-122541000D02*
X119351000Y-122541000D01*
X116869000Y-122541000D02*
X113627000Y-122541000D01*
X122572000Y-122581000D02*
X119351000Y-122581000D01*
X116869000Y-122581000D02*
X113648000Y-122581000D01*
X122550000Y-122621000D02*
X119351000Y-122621000D01*
X116869000Y-122621000D02*
X113670000Y-122621000D01*
X122527000Y-122661000D02*
X119351000Y-122661000D01*
X116869000Y-122661000D02*
X113693000Y-122661000D01*
X122505000Y-122701000D02*
X119351000Y-122701000D01*
X116869000Y-122701000D02*
X113715000Y-122701000D01*
X122481000Y-122741000D02*
X119351000Y-122741000D01*
X116869000Y-122741000D02*
X113739000Y-122741000D01*
X122457000Y-122781000D02*
X119351000Y-122781000D01*
X116869000Y-122781000D02*
X113763000Y-122781000D01*
X122433000Y-122821000D02*
X119351000Y-122821000D01*
X116869000Y-122821000D02*
X113787000Y-122821000D01*
X122408000Y-122861000D02*
X119351000Y-122861000D01*
X116869000Y-122861000D02*
X113812000Y-122861000D01*
X122383000Y-122901000D02*
X119351000Y-122901000D01*
X116869000Y-122901000D02*
X113837000Y-122901000D01*
X122357000Y-122941000D02*
X119351000Y-122941000D01*
X116869000Y-122941000D02*
X113863000Y-122941000D01*
X122331000Y-122981000D02*
X119351000Y-122981000D01*
X116869000Y-122981000D02*
X113889000Y-122981000D01*
X122304000Y-123021000D02*
X119351000Y-123021000D01*
X116869000Y-123021000D02*
X113916000Y-123021000D01*
X122276000Y-123061000D02*
X119351000Y-123061000D01*
X116869000Y-123061000D02*
X113944000Y-123061000D01*
X122248000Y-123101000D02*
X119351000Y-123101000D01*
X116869000Y-123101000D02*
X113972000Y-123101000D01*
X122220000Y-123141000D02*
X119351000Y-123141000D01*
X116869000Y-123141000D02*
X114000000Y-123141000D01*
X122190000Y-123181000D02*
X119351000Y-123181000D01*
X116869000Y-123181000D02*
X114030000Y-123181000D01*
X122160000Y-123221000D02*
X119351000Y-123221000D01*
X116869000Y-123221000D02*
X114060000Y-123221000D01*
X122130000Y-123261000D02*
X119351000Y-123261000D01*
X116869000Y-123261000D02*
X114090000Y-123261000D01*
X122099000Y-123301000D02*
X119351000Y-123301000D01*
X116869000Y-123301000D02*
X114121000Y-123301000D01*
X122067000Y-123341000D02*
X119351000Y-123341000D01*
X116869000Y-123341000D02*
X114153000Y-123341000D01*
X122035000Y-123381000D02*
X119351000Y-123381000D01*
X116869000Y-123381000D02*
X114185000Y-123381000D01*
X122002000Y-123421000D02*
X119351000Y-123421000D01*
X116869000Y-123421000D02*
X114218000Y-123421000D01*
X121968000Y-123461000D02*
X119351000Y-123461000D01*
X116869000Y-123461000D02*
X114252000Y-123461000D01*
X121934000Y-123501000D02*
X119351000Y-123501000D01*
X116869000Y-123501000D02*
X114286000Y-123501000D01*
X121899000Y-123541000D02*
X119351000Y-123541000D01*
X116869000Y-123541000D02*
X114321000Y-123541000D01*
X121863000Y-123581000D02*
X119351000Y-123581000D01*
X116869000Y-123581000D02*
X114357000Y-123581000D01*
X121826000Y-123621000D02*
X119351000Y-123621000D01*
X116869000Y-123621000D02*
X114394000Y-123621000D01*
X121789000Y-123661000D02*
X119351000Y-123661000D01*
X116869000Y-123661000D02*
X114431000Y-123661000D01*
X121750000Y-123701000D02*
X119351000Y-123701000D01*
X116869000Y-123701000D02*
X114470000Y-123701000D01*
X121711000Y-123741000D02*
X119351000Y-123741000D01*
X116869000Y-123741000D02*
X114509000Y-123741000D01*
X121671000Y-123781000D02*
X119351000Y-123781000D01*
X116869000Y-123781000D02*
X114549000Y-123781000D01*
X121630000Y-123821000D02*
X119351000Y-123821000D01*
X116869000Y-123821000D02*
X114590000Y-123821000D01*
X121588000Y-123861000D02*
X119351000Y-123861000D01*
X116869000Y-123861000D02*
X114632000Y-123861000D01*
X121546000Y-123901000D02*
X114674000Y-123901000D01*
X121502000Y-123941000D02*
X114718000Y-123941000D01*
X121457000Y-123981000D02*
X114763000Y-123981000D01*
X121411000Y-124021000D02*
X114809000Y-124021000D01*
X121364000Y-124061000D02*
X114856000Y-124061000D01*
X121316000Y-124101000D02*
X114904000Y-124101000D01*
X121266000Y-124141000D02*
X114954000Y-124141000D01*
X121216000Y-124181000D02*
X115004000Y-124181000D01*
X121164000Y-124221000D02*
X115056000Y-124221000D01*
X121110000Y-124261000D02*
X115110000Y-124261000D01*
X121055000Y-124301000D02*
X115165000Y-124301000D01*
X120999000Y-124341000D02*
X115221000Y-124341000D01*
X120940000Y-124381000D02*
X115280000Y-124381000D01*
X120880000Y-124421000D02*
X115340000Y-124421000D01*
X120819000Y-124461000D02*
X115401000Y-124461000D01*
X120755000Y-124501000D02*
X115465000Y-124501000D01*
X120689000Y-124541000D02*
X115531000Y-124541000D01*
X120620000Y-124581000D02*
X115600000Y-124581000D01*
X120549000Y-124621000D02*
X115671000Y-124621000D01*
X120475000Y-124661000D02*
X115745000Y-124661000D01*
X120399000Y-124701000D02*
X115821000Y-124701000D01*
X120319000Y-124741000D02*
X115901000Y-124741000D01*
X120235000Y-124781000D02*
X115985000Y-124781000D01*
X120147000Y-124821000D02*
X116073000Y-124821000D01*
X120054000Y-124861000D02*
X116166000Y-124861000D01*
X119956000Y-124901000D02*
X116264000Y-124901000D01*
X119852000Y-124941000D02*
X116368000Y-124941000D01*
X119740000Y-124981000D02*
X116480000Y-124981000D01*
X119620000Y-125021000D02*
X116600000Y-125021000D01*
X119488000Y-125061000D02*
X116732000Y-125061000D01*
X119340000Y-125101000D02*
X116880000Y-125101000D01*
X119172000Y-125141000D02*
X117048000Y-125141000D01*
X118972000Y-125181000D02*
X117248000Y-125181000D01*
X118709000Y-125221000D02*
X117511000Y-125221000D01*
X120985000Y-114660354D02*
X120985000Y-115660354D01*
X121485000Y-115160354D02*
X120485000Y-115160354D01*
X142320000Y-106480000D02*
G75*
G03X142320000Y-106480000I-2620000J0D01*
G01*
X140740000Y-106480000D02*
X142280000Y-106480000D01*
X137120000Y-106480000D02*
X138660000Y-106480000D01*
X140740000Y-106440000D02*
X142280000Y-106440000D01*
X137120000Y-106440000D02*
X138660000Y-106440000D01*
X137121000Y-106400000D02*
X138660000Y-106400000D01*
X140740000Y-106400000D02*
X142279000Y-106400000D01*
X137122000Y-106360000D02*
X138660000Y-106360000D01*
X140740000Y-106360000D02*
X142278000Y-106360000D01*
X137124000Y-106320000D02*
X138660000Y-106320000D01*
X140740000Y-106320000D02*
X142276000Y-106320000D01*
X137127000Y-106280000D02*
X138660000Y-106280000D01*
X140740000Y-106280000D02*
X142273000Y-106280000D01*
X137131000Y-106240000D02*
X138660000Y-106240000D01*
X140740000Y-106240000D02*
X142269000Y-106240000D01*
X137135000Y-106200000D02*
X138660000Y-106200000D01*
X140740000Y-106200000D02*
X142265000Y-106200000D01*
X137139000Y-106160000D02*
X138660000Y-106160000D01*
X140740000Y-106160000D02*
X142261000Y-106160000D01*
X137144000Y-106120000D02*
X138660000Y-106120000D01*
X140740000Y-106120000D02*
X142256000Y-106120000D01*
X137150000Y-106080000D02*
X138660000Y-106080000D01*
X140740000Y-106080000D02*
X142250000Y-106080000D01*
X137157000Y-106040000D02*
X138660000Y-106040000D01*
X140740000Y-106040000D02*
X142243000Y-106040000D01*
X137164000Y-106000000D02*
X138660000Y-106000000D01*
X140740000Y-106000000D02*
X142236000Y-106000000D01*
X137172000Y-105960000D02*
X138660000Y-105960000D01*
X140740000Y-105960000D02*
X142228000Y-105960000D01*
X137180000Y-105920000D02*
X138660000Y-105920000D01*
X140740000Y-105920000D02*
X142220000Y-105920000D01*
X137189000Y-105880000D02*
X138660000Y-105880000D01*
X140740000Y-105880000D02*
X142211000Y-105880000D01*
X137199000Y-105840000D02*
X138660000Y-105840000D01*
X140740000Y-105840000D02*
X142201000Y-105840000D01*
X137209000Y-105800000D02*
X138660000Y-105800000D01*
X140740000Y-105800000D02*
X142191000Y-105800000D01*
X137220000Y-105759000D02*
X138660000Y-105759000D01*
X140740000Y-105759000D02*
X142180000Y-105759000D01*
X137232000Y-105719000D02*
X138660000Y-105719000D01*
X140740000Y-105719000D02*
X142168000Y-105719000D01*
X137245000Y-105679000D02*
X138660000Y-105679000D01*
X140740000Y-105679000D02*
X142155000Y-105679000D01*
X137258000Y-105639000D02*
X138660000Y-105639000D01*
X140740000Y-105639000D02*
X142142000Y-105639000D01*
X137272000Y-105599000D02*
X138660000Y-105599000D01*
X140740000Y-105599000D02*
X142128000Y-105599000D01*
X137286000Y-105559000D02*
X138660000Y-105559000D01*
X140740000Y-105559000D02*
X142114000Y-105559000D01*
X137302000Y-105519000D02*
X138660000Y-105519000D01*
X140740000Y-105519000D02*
X142098000Y-105519000D01*
X137318000Y-105479000D02*
X138660000Y-105479000D01*
X140740000Y-105479000D02*
X142082000Y-105479000D01*
X137335000Y-105439000D02*
X138660000Y-105439000D01*
X140740000Y-105439000D02*
X142065000Y-105439000D01*
X137352000Y-105399000D02*
X138660000Y-105399000D01*
X140740000Y-105399000D02*
X142048000Y-105399000D01*
X137371000Y-105359000D02*
X138660000Y-105359000D01*
X140740000Y-105359000D02*
X142029000Y-105359000D01*
X137390000Y-105319000D02*
X138660000Y-105319000D01*
X140740000Y-105319000D02*
X142010000Y-105319000D01*
X137410000Y-105279000D02*
X138660000Y-105279000D01*
X140740000Y-105279000D02*
X141990000Y-105279000D01*
X137432000Y-105239000D02*
X138660000Y-105239000D01*
X140740000Y-105239000D02*
X141968000Y-105239000D01*
X137453000Y-105199000D02*
X138660000Y-105199000D01*
X140740000Y-105199000D02*
X141947000Y-105199000D01*
X137476000Y-105159000D02*
X138660000Y-105159000D01*
X140740000Y-105159000D02*
X141924000Y-105159000D01*
X137500000Y-105119000D02*
X138660000Y-105119000D01*
X140740000Y-105119000D02*
X141900000Y-105119000D01*
X137525000Y-105079000D02*
X138660000Y-105079000D01*
X140740000Y-105079000D02*
X141875000Y-105079000D01*
X137551000Y-105039000D02*
X138660000Y-105039000D01*
X140740000Y-105039000D02*
X141849000Y-105039000D01*
X137578000Y-104999000D02*
X138660000Y-104999000D01*
X140740000Y-104999000D02*
X141822000Y-104999000D01*
X137605000Y-104959000D02*
X138660000Y-104959000D01*
X140740000Y-104959000D02*
X141795000Y-104959000D01*
X137635000Y-104919000D02*
X138660000Y-104919000D01*
X140740000Y-104919000D02*
X141765000Y-104919000D01*
X137665000Y-104879000D02*
X138660000Y-104879000D01*
X140740000Y-104879000D02*
X141735000Y-104879000D01*
X137696000Y-104839000D02*
X138660000Y-104839000D01*
X140740000Y-104839000D02*
X141704000Y-104839000D01*
X137729000Y-104799000D02*
X138660000Y-104799000D01*
X140740000Y-104799000D02*
X141671000Y-104799000D01*
X137763000Y-104759000D02*
X138660000Y-104759000D01*
X140740000Y-104759000D02*
X141637000Y-104759000D01*
X137799000Y-104719000D02*
X138660000Y-104719000D01*
X140740000Y-104719000D02*
X141601000Y-104719000D01*
X137836000Y-104679000D02*
X138660000Y-104679000D01*
X140740000Y-104679000D02*
X141564000Y-104679000D01*
X137874000Y-104639000D02*
X138660000Y-104639000D01*
X140740000Y-104639000D02*
X141526000Y-104639000D01*
X137915000Y-104599000D02*
X138660000Y-104599000D01*
X140740000Y-104599000D02*
X141485000Y-104599000D01*
X137957000Y-104559000D02*
X138660000Y-104559000D01*
X140740000Y-104559000D02*
X141443000Y-104559000D01*
X138001000Y-104519000D02*
X138660000Y-104519000D01*
X140740000Y-104519000D02*
X141399000Y-104519000D01*
X138047000Y-104479000D02*
X138660000Y-104479000D01*
X140740000Y-104479000D02*
X141353000Y-104479000D01*
X138095000Y-104439000D02*
X141305000Y-104439000D01*
X138146000Y-104399000D02*
X141254000Y-104399000D01*
X138200000Y-104359000D02*
X141200000Y-104359000D01*
X138257000Y-104319000D02*
X141143000Y-104319000D01*
X138317000Y-104279000D02*
X141083000Y-104279000D01*
X138381000Y-104239000D02*
X141019000Y-104239000D01*
X138449000Y-104199000D02*
X140951000Y-104199000D01*
X138522000Y-104159000D02*
X140878000Y-104159000D01*
X138602000Y-104119000D02*
X140798000Y-104119000D01*
X138689000Y-104079000D02*
X140711000Y-104079000D01*
X138785000Y-104039000D02*
X140615000Y-104039000D01*
X138895000Y-103999000D02*
X140505000Y-103999000D01*
X139023000Y-103959000D02*
X140377000Y-103959000D01*
X139182000Y-103919000D02*
X140218000Y-103919000D01*
X139416000Y-103879000D02*
X139984000Y-103879000D01*
X138225000Y-109284775D02*
X138225000Y-108784775D01*
X137975000Y-109034775D02*
X138475000Y-109034775D01*
X110739000Y-97289759D02*
X110109000Y-97289759D01*
X110424000Y-96974759D02*
X110424000Y-97604759D01*
X108987000Y-103716000D02*
X108183000Y-103716000D01*
X109218000Y-103676000D02*
X107952000Y-103676000D01*
X109387000Y-103636000D02*
X107783000Y-103636000D01*
X109525000Y-103596000D02*
X107645000Y-103596000D01*
X109644000Y-103556000D02*
X107526000Y-103556000D01*
X109750000Y-103516000D02*
X107420000Y-103516000D01*
X109847000Y-103476000D02*
X107323000Y-103476000D01*
X109935000Y-103436000D02*
X107235000Y-103436000D01*
X110017000Y-103396000D02*
X107153000Y-103396000D01*
X110094000Y-103356000D02*
X107076000Y-103356000D01*
X110166000Y-103316000D02*
X107004000Y-103316000D01*
X110235000Y-103276000D02*
X106935000Y-103276000D01*
X110299000Y-103236000D02*
X106871000Y-103236000D01*
X110361000Y-103196000D02*
X106809000Y-103196000D01*
X110419000Y-103156000D02*
X106751000Y-103156000D01*
X110475000Y-103116000D02*
X106695000Y-103116000D01*
X110529000Y-103076000D02*
X106641000Y-103076000D01*
X110580000Y-103036000D02*
X106590000Y-103036000D01*
X110629000Y-102996000D02*
X106541000Y-102996000D01*
X110677000Y-102956000D02*
X106493000Y-102956000D01*
X110722000Y-102916000D02*
X106448000Y-102916000D01*
X110767000Y-102876000D02*
X106403000Y-102876000D01*
X110809000Y-102836000D02*
X106361000Y-102836000D01*
X110850000Y-102796000D02*
X106320000Y-102796000D01*
X107545000Y-102756000D02*
X106280000Y-102756000D01*
X110890000Y-102756000D02*
X109625000Y-102756000D01*
X107545000Y-102716000D02*
X106242000Y-102716000D01*
X110928000Y-102716000D02*
X109625000Y-102716000D01*
X107545000Y-102676000D02*
X106205000Y-102676000D01*
X110965000Y-102676000D02*
X109625000Y-102676000D01*
X107545000Y-102636000D02*
X106169000Y-102636000D01*
X111001000Y-102636000D02*
X109625000Y-102636000D01*
X107545000Y-102596000D02*
X106135000Y-102596000D01*
X111035000Y-102596000D02*
X109625000Y-102596000D01*
X107545000Y-102556000D02*
X106101000Y-102556000D01*
X111069000Y-102556000D02*
X109625000Y-102556000D01*
X107545000Y-102516000D02*
X106069000Y-102516000D01*
X111101000Y-102516000D02*
X109625000Y-102516000D01*
X107545000Y-102476000D02*
X106037000Y-102476000D01*
X111133000Y-102476000D02*
X109625000Y-102476000D01*
X107545000Y-102436000D02*
X106007000Y-102436000D01*
X111163000Y-102436000D02*
X109625000Y-102436000D01*
X107545000Y-102396000D02*
X105978000Y-102396000D01*
X111192000Y-102396000D02*
X109625000Y-102396000D01*
X107545000Y-102356000D02*
X105949000Y-102356000D01*
X111221000Y-102356000D02*
X109625000Y-102356000D01*
X107545000Y-102316000D02*
X105921000Y-102316000D01*
X111249000Y-102316000D02*
X109625000Y-102316000D01*
X107545000Y-102276000D02*
X105895000Y-102276000D01*
X111275000Y-102276000D02*
X109625000Y-102276000D01*
X107545000Y-102236000D02*
X105869000Y-102236000D01*
X111301000Y-102236000D02*
X109625000Y-102236000D01*
X107545000Y-102196000D02*
X105843000Y-102196000D01*
X111327000Y-102196000D02*
X109625000Y-102196000D01*
X107545000Y-102156000D02*
X105819000Y-102156000D01*
X111351000Y-102156000D02*
X109625000Y-102156000D01*
X107545000Y-102116000D02*
X105795000Y-102116000D01*
X111375000Y-102116000D02*
X109625000Y-102116000D01*
X107545000Y-102076000D02*
X105773000Y-102076000D01*
X111397000Y-102076000D02*
X109625000Y-102076000D01*
X107545000Y-102036000D02*
X105751000Y-102036000D01*
X111419000Y-102036000D02*
X109625000Y-102036000D01*
X107545000Y-101996000D02*
X105729000Y-101996000D01*
X111441000Y-101996000D02*
X109625000Y-101996000D01*
X107545000Y-101956000D02*
X105709000Y-101956000D01*
X111461000Y-101956000D02*
X109625000Y-101956000D01*
X107545000Y-101916000D02*
X105689000Y-101916000D01*
X111481000Y-101916000D02*
X109625000Y-101916000D01*
X107545000Y-101876000D02*
X105669000Y-101876000D01*
X111501000Y-101876000D02*
X109625000Y-101876000D01*
X107545000Y-101836000D02*
X105651000Y-101836000D01*
X111519000Y-101836000D02*
X109625000Y-101836000D01*
X107545000Y-101796000D02*
X105633000Y-101796000D01*
X111537000Y-101796000D02*
X109625000Y-101796000D01*
X107545000Y-101756000D02*
X105615000Y-101756000D01*
X111555000Y-101756000D02*
X109625000Y-101756000D01*
X107545000Y-101716000D02*
X105599000Y-101716000D01*
X111571000Y-101716000D02*
X109625000Y-101716000D01*
X107545000Y-101676000D02*
X105583000Y-101676000D01*
X111587000Y-101676000D02*
X109625000Y-101676000D01*
X107545000Y-101636000D02*
X105567000Y-101636000D01*
X111603000Y-101636000D02*
X109625000Y-101636000D01*
X107545000Y-101596000D02*
X105552000Y-101596000D01*
X111618000Y-101596000D02*
X109625000Y-101596000D01*
X107545000Y-101556000D02*
X105538000Y-101556000D01*
X111632000Y-101556000D02*
X109625000Y-101556000D01*
X107545000Y-101516000D02*
X105524000Y-101516000D01*
X111646000Y-101516000D02*
X109625000Y-101516000D01*
X107545000Y-101476000D02*
X105511000Y-101476000D01*
X111659000Y-101476000D02*
X109625000Y-101476000D01*
X107545000Y-101436000D02*
X105499000Y-101436000D01*
X111671000Y-101436000D02*
X109625000Y-101436000D01*
X107545000Y-101396000D02*
X105487000Y-101396000D01*
X111683000Y-101396000D02*
X109625000Y-101396000D01*
X107545000Y-101356000D02*
X105475000Y-101356000D01*
X111695000Y-101356000D02*
X109625000Y-101356000D01*
X107545000Y-101316000D02*
X105464000Y-101316000D01*
X111706000Y-101316000D02*
X109625000Y-101316000D01*
X107545000Y-101276000D02*
X105454000Y-101276000D01*
X111716000Y-101276000D02*
X109625000Y-101276000D01*
X107545000Y-101236000D02*
X105444000Y-101236000D01*
X111726000Y-101236000D02*
X109625000Y-101236000D01*
X107545000Y-101196000D02*
X105435000Y-101196000D01*
X111735000Y-101196000D02*
X109625000Y-101196000D01*
X107545000Y-101155000D02*
X105426000Y-101155000D01*
X111744000Y-101155000D02*
X109625000Y-101155000D01*
X107545000Y-101115000D02*
X105418000Y-101115000D01*
X111752000Y-101115000D02*
X109625000Y-101115000D01*
X107545000Y-101075000D02*
X105410000Y-101075000D01*
X111760000Y-101075000D02*
X109625000Y-101075000D01*
X107545000Y-101035000D02*
X105403000Y-101035000D01*
X111767000Y-101035000D02*
X109625000Y-101035000D01*
X107545000Y-100995000D02*
X105396000Y-100995000D01*
X111774000Y-100995000D02*
X109625000Y-100995000D01*
X107545000Y-100955000D02*
X105390000Y-100955000D01*
X111780000Y-100955000D02*
X109625000Y-100955000D01*
X107545000Y-100915000D02*
X105384000Y-100915000D01*
X111786000Y-100915000D02*
X109625000Y-100915000D01*
X107545000Y-100875000D02*
X105379000Y-100875000D01*
X111791000Y-100875000D02*
X109625000Y-100875000D01*
X107545000Y-100835000D02*
X105374000Y-100835000D01*
X111796000Y-100835000D02*
X109625000Y-100835000D01*
X107545000Y-100795000D02*
X105370000Y-100795000D01*
X111800000Y-100795000D02*
X109625000Y-100795000D01*
X107545000Y-100755000D02*
X105367000Y-100755000D01*
X111803000Y-100755000D02*
X109625000Y-100755000D01*
X107545000Y-100715000D02*
X105363000Y-100715000D01*
X111807000Y-100715000D02*
X109625000Y-100715000D01*
X111809000Y-100675000D02*
X105361000Y-100675000D01*
X111812000Y-100635000D02*
X105358000Y-100635000D01*
X111813000Y-100595000D02*
X105357000Y-100595000D01*
X111815000Y-100555000D02*
X105355000Y-100555000D01*
X111815000Y-100515000D02*
X105355000Y-100515000D01*
X111815000Y-100475000D02*
X105355000Y-100475000D01*
X111855000Y-100475000D02*
G75*
G03X111855000Y-100475000I-3270000J0D01*
G01*
X111035000Y-53971267D02*
X111035000Y-53628733D01*
X112055000Y-53971267D02*
X112055000Y-53628733D01*
X103415000Y-53971267D02*
X103415000Y-53628733D01*
X104435000Y-53971267D02*
X104435000Y-53628733D01*
X104900000Y-86696267D02*
X104900000Y-86353733D01*
X105920000Y-86696267D02*
X105920000Y-86353733D01*
X104900000Y-81616267D02*
X104900000Y-81273733D01*
X105920000Y-81616267D02*
X105920000Y-81273733D01*
X92370000Y-53971267D02*
X92370000Y-53628733D01*
X91350000Y-53971267D02*
X91350000Y-53628733D01*
X84750000Y-53971267D02*
X84750000Y-53628733D01*
X83730000Y-53971267D02*
X83730000Y-53628733D01*
X89410000Y-85426267D02*
X89410000Y-85083733D01*
X88390000Y-85426267D02*
X88390000Y-85083733D01*
X89410000Y-80346267D02*
X89410000Y-80003733D01*
X88390000Y-80346267D02*
X88390000Y-80003733D01*
X90265000Y-101110000D02*
G75*
G03X90265000Y-101110000I-3270000J0D01*
G01*
X90225000Y-101110000D02*
X83765000Y-101110000D01*
X90225000Y-101150000D02*
X83765000Y-101150000D01*
X90225000Y-101190000D02*
X83765000Y-101190000D01*
X90223000Y-101230000D02*
X83767000Y-101230000D01*
X90222000Y-101270000D02*
X83768000Y-101270000D01*
X90219000Y-101310000D02*
X83771000Y-101310000D01*
X90217000Y-101350000D02*
X88035000Y-101350000D01*
X85955000Y-101350000D02*
X83773000Y-101350000D01*
X90213000Y-101390000D02*
X88035000Y-101390000D01*
X85955000Y-101390000D02*
X83777000Y-101390000D01*
X90210000Y-101430000D02*
X88035000Y-101430000D01*
X85955000Y-101430000D02*
X83780000Y-101430000D01*
X90206000Y-101470000D02*
X88035000Y-101470000D01*
X85955000Y-101470000D02*
X83784000Y-101470000D01*
X90201000Y-101510000D02*
X88035000Y-101510000D01*
X85955000Y-101510000D02*
X83789000Y-101510000D01*
X90196000Y-101550000D02*
X88035000Y-101550000D01*
X85955000Y-101550000D02*
X83794000Y-101550000D01*
X90190000Y-101590000D02*
X88035000Y-101590000D01*
X85955000Y-101590000D02*
X83800000Y-101590000D01*
X90184000Y-101630000D02*
X88035000Y-101630000D01*
X85955000Y-101630000D02*
X83806000Y-101630000D01*
X90177000Y-101670000D02*
X88035000Y-101670000D01*
X85955000Y-101670000D02*
X83813000Y-101670000D01*
X90170000Y-101710000D02*
X88035000Y-101710000D01*
X85955000Y-101710000D02*
X83820000Y-101710000D01*
X90162000Y-101750000D02*
X88035000Y-101750000D01*
X85955000Y-101750000D02*
X83828000Y-101750000D01*
X90154000Y-101790000D02*
X88035000Y-101790000D01*
X85955000Y-101790000D02*
X83836000Y-101790000D01*
X90145000Y-101831000D02*
X88035000Y-101831000D01*
X85955000Y-101831000D02*
X83845000Y-101831000D01*
X90136000Y-101871000D02*
X88035000Y-101871000D01*
X85955000Y-101871000D02*
X83854000Y-101871000D01*
X90126000Y-101911000D02*
X88035000Y-101911000D01*
X85955000Y-101911000D02*
X83864000Y-101911000D01*
X90116000Y-101951000D02*
X88035000Y-101951000D01*
X85955000Y-101951000D02*
X83874000Y-101951000D01*
X90105000Y-101991000D02*
X88035000Y-101991000D01*
X85955000Y-101991000D02*
X83885000Y-101991000D01*
X90093000Y-102031000D02*
X88035000Y-102031000D01*
X85955000Y-102031000D02*
X83897000Y-102031000D01*
X90081000Y-102071000D02*
X88035000Y-102071000D01*
X85955000Y-102071000D02*
X83909000Y-102071000D01*
X90069000Y-102111000D02*
X88035000Y-102111000D01*
X85955000Y-102111000D02*
X83921000Y-102111000D01*
X90056000Y-102151000D02*
X88035000Y-102151000D01*
X85955000Y-102151000D02*
X83934000Y-102151000D01*
X90042000Y-102191000D02*
X88035000Y-102191000D01*
X85955000Y-102191000D02*
X83948000Y-102191000D01*
X90028000Y-102231000D02*
X88035000Y-102231000D01*
X85955000Y-102231000D02*
X83962000Y-102231000D01*
X90013000Y-102271000D02*
X88035000Y-102271000D01*
X85955000Y-102271000D02*
X83977000Y-102271000D01*
X89997000Y-102311000D02*
X88035000Y-102311000D01*
X85955000Y-102311000D02*
X83993000Y-102311000D01*
X89981000Y-102351000D02*
X88035000Y-102351000D01*
X85955000Y-102351000D02*
X84009000Y-102351000D01*
X89965000Y-102391000D02*
X88035000Y-102391000D01*
X85955000Y-102391000D02*
X84025000Y-102391000D01*
X89947000Y-102431000D02*
X88035000Y-102431000D01*
X85955000Y-102431000D02*
X84043000Y-102431000D01*
X89929000Y-102471000D02*
X88035000Y-102471000D01*
X85955000Y-102471000D02*
X84061000Y-102471000D01*
X89911000Y-102511000D02*
X88035000Y-102511000D01*
X85955000Y-102511000D02*
X84079000Y-102511000D01*
X89891000Y-102551000D02*
X88035000Y-102551000D01*
X85955000Y-102551000D02*
X84099000Y-102551000D01*
X89871000Y-102591000D02*
X88035000Y-102591000D01*
X85955000Y-102591000D02*
X84119000Y-102591000D01*
X89851000Y-102631000D02*
X88035000Y-102631000D01*
X85955000Y-102631000D02*
X84139000Y-102631000D01*
X89829000Y-102671000D02*
X88035000Y-102671000D01*
X85955000Y-102671000D02*
X84161000Y-102671000D01*
X89807000Y-102711000D02*
X88035000Y-102711000D01*
X85955000Y-102711000D02*
X84183000Y-102711000D01*
X89785000Y-102751000D02*
X88035000Y-102751000D01*
X85955000Y-102751000D02*
X84205000Y-102751000D01*
X89761000Y-102791000D02*
X88035000Y-102791000D01*
X85955000Y-102791000D02*
X84229000Y-102791000D01*
X89737000Y-102831000D02*
X88035000Y-102831000D01*
X85955000Y-102831000D02*
X84253000Y-102831000D01*
X89711000Y-102871000D02*
X88035000Y-102871000D01*
X85955000Y-102871000D02*
X84279000Y-102871000D01*
X89685000Y-102911000D02*
X88035000Y-102911000D01*
X85955000Y-102911000D02*
X84305000Y-102911000D01*
X89659000Y-102951000D02*
X88035000Y-102951000D01*
X85955000Y-102951000D02*
X84331000Y-102951000D01*
X89631000Y-102991000D02*
X88035000Y-102991000D01*
X85955000Y-102991000D02*
X84359000Y-102991000D01*
X89602000Y-103031000D02*
X88035000Y-103031000D01*
X85955000Y-103031000D02*
X84388000Y-103031000D01*
X89573000Y-103071000D02*
X88035000Y-103071000D01*
X85955000Y-103071000D02*
X84417000Y-103071000D01*
X89543000Y-103111000D02*
X88035000Y-103111000D01*
X85955000Y-103111000D02*
X84447000Y-103111000D01*
X89511000Y-103151000D02*
X88035000Y-103151000D01*
X85955000Y-103151000D02*
X84479000Y-103151000D01*
X89479000Y-103191000D02*
X88035000Y-103191000D01*
X85955000Y-103191000D02*
X84511000Y-103191000D01*
X89445000Y-103231000D02*
X88035000Y-103231000D01*
X85955000Y-103231000D02*
X84545000Y-103231000D01*
X89411000Y-103271000D02*
X88035000Y-103271000D01*
X85955000Y-103271000D02*
X84579000Y-103271000D01*
X89375000Y-103311000D02*
X88035000Y-103311000D01*
X85955000Y-103311000D02*
X84615000Y-103311000D01*
X89338000Y-103351000D02*
X88035000Y-103351000D01*
X85955000Y-103351000D02*
X84652000Y-103351000D01*
X89300000Y-103391000D02*
X88035000Y-103391000D01*
X85955000Y-103391000D02*
X84690000Y-103391000D01*
X89260000Y-103431000D02*
X84730000Y-103431000D01*
X89219000Y-103471000D02*
X84771000Y-103471000D01*
X89177000Y-103511000D02*
X84813000Y-103511000D01*
X89132000Y-103551000D02*
X84858000Y-103551000D01*
X89087000Y-103591000D02*
X84903000Y-103591000D01*
X89039000Y-103631000D02*
X84951000Y-103631000D01*
X88990000Y-103671000D02*
X85000000Y-103671000D01*
X88939000Y-103711000D02*
X85051000Y-103711000D01*
X88885000Y-103751000D02*
X85105000Y-103751000D01*
X88829000Y-103791000D02*
X85161000Y-103791000D01*
X88771000Y-103831000D02*
X85219000Y-103831000D01*
X88709000Y-103871000D02*
X85281000Y-103871000D01*
X88645000Y-103911000D02*
X85345000Y-103911000D01*
X88576000Y-103951000D02*
X85414000Y-103951000D01*
X88504000Y-103991000D02*
X85486000Y-103991000D01*
X88427000Y-104031000D02*
X85563000Y-104031000D01*
X88345000Y-104071000D02*
X85645000Y-104071000D01*
X88257000Y-104111000D02*
X85733000Y-104111000D01*
X88160000Y-104151000D02*
X85830000Y-104151000D01*
X88054000Y-104191000D02*
X85936000Y-104191000D01*
X87935000Y-104231000D02*
X86055000Y-104231000D01*
X87797000Y-104271000D02*
X86193000Y-104271000D01*
X87628000Y-104311000D02*
X86362000Y-104311000D01*
X87397000Y-104351000D02*
X86593000Y-104351000D01*
X88834000Y-97609759D02*
X88834000Y-98239759D01*
X89149000Y-97924759D02*
X88519000Y-97924759D01*
X106418748Y-67550000D02*
X106941252Y-67550000D01*
X106418748Y-66130000D02*
X106941252Y-66130000D01*
X96893748Y-79465000D02*
X97416252Y-79465000D01*
X96893748Y-80885000D02*
X97416252Y-80885000D01*
X96893748Y-91680000D02*
X97416252Y-91680000D01*
X96893748Y-90260000D02*
X97416252Y-90260000D01*
X87368748Y-66130000D02*
X87891252Y-66130000D01*
X87368748Y-67550000D02*
X87891252Y-67550000D01*
X127815000Y-109034775D02*
X128315000Y-109034775D01*
X128065000Y-109284775D02*
X128065000Y-108784775D01*
X129256000Y-103879000D02*
X129824000Y-103879000D01*
X129022000Y-103919000D02*
X130058000Y-103919000D01*
X128863000Y-103959000D02*
X130217000Y-103959000D01*
X128735000Y-103999000D02*
X130345000Y-103999000D01*
X128625000Y-104039000D02*
X130455000Y-104039000D01*
X128529000Y-104079000D02*
X130551000Y-104079000D01*
X128442000Y-104119000D02*
X130638000Y-104119000D01*
X128362000Y-104159000D02*
X130718000Y-104159000D01*
X128289000Y-104199000D02*
X130791000Y-104199000D01*
X128221000Y-104239000D02*
X130859000Y-104239000D01*
X128157000Y-104279000D02*
X130923000Y-104279000D01*
X128097000Y-104319000D02*
X130983000Y-104319000D01*
X128040000Y-104359000D02*
X131040000Y-104359000D01*
X127986000Y-104399000D02*
X131094000Y-104399000D01*
X127935000Y-104439000D02*
X131145000Y-104439000D01*
X130580000Y-104479000D02*
X131193000Y-104479000D01*
X127887000Y-104479000D02*
X128500000Y-104479000D01*
X130580000Y-104519000D02*
X131239000Y-104519000D01*
X127841000Y-104519000D02*
X128500000Y-104519000D01*
X130580000Y-104559000D02*
X131283000Y-104559000D01*
X127797000Y-104559000D02*
X128500000Y-104559000D01*
X130580000Y-104599000D02*
X131325000Y-104599000D01*
X127755000Y-104599000D02*
X128500000Y-104599000D01*
X130580000Y-104639000D02*
X131366000Y-104639000D01*
X127714000Y-104639000D02*
X128500000Y-104639000D01*
X130580000Y-104679000D02*
X131404000Y-104679000D01*
X127676000Y-104679000D02*
X128500000Y-104679000D01*
X130580000Y-104719000D02*
X131441000Y-104719000D01*
X127639000Y-104719000D02*
X128500000Y-104719000D01*
X130580000Y-104759000D02*
X131477000Y-104759000D01*
X127603000Y-104759000D02*
X128500000Y-104759000D01*
X130580000Y-104799000D02*
X131511000Y-104799000D01*
X127569000Y-104799000D02*
X128500000Y-104799000D01*
X130580000Y-104839000D02*
X131544000Y-104839000D01*
X127536000Y-104839000D02*
X128500000Y-104839000D01*
X130580000Y-104879000D02*
X131575000Y-104879000D01*
X127505000Y-104879000D02*
X128500000Y-104879000D01*
X130580000Y-104919000D02*
X131605000Y-104919000D01*
X127475000Y-104919000D02*
X128500000Y-104919000D01*
X130580000Y-104959000D02*
X131635000Y-104959000D01*
X127445000Y-104959000D02*
X128500000Y-104959000D01*
X130580000Y-104999000D02*
X131662000Y-104999000D01*
X127418000Y-104999000D02*
X128500000Y-104999000D01*
X130580000Y-105039000D02*
X131689000Y-105039000D01*
X127391000Y-105039000D02*
X128500000Y-105039000D01*
X130580000Y-105079000D02*
X131715000Y-105079000D01*
X127365000Y-105079000D02*
X128500000Y-105079000D01*
X130580000Y-105119000D02*
X131740000Y-105119000D01*
X127340000Y-105119000D02*
X128500000Y-105119000D01*
X130580000Y-105159000D02*
X131764000Y-105159000D01*
X127316000Y-105159000D02*
X128500000Y-105159000D01*
X130580000Y-105199000D02*
X131787000Y-105199000D01*
X127293000Y-105199000D02*
X128500000Y-105199000D01*
X130580000Y-105239000D02*
X131808000Y-105239000D01*
X127272000Y-105239000D02*
X128500000Y-105239000D01*
X130580000Y-105279000D02*
X131830000Y-105279000D01*
X127250000Y-105279000D02*
X128500000Y-105279000D01*
X130580000Y-105319000D02*
X131850000Y-105319000D01*
X127230000Y-105319000D02*
X128500000Y-105319000D01*
X130580000Y-105359000D02*
X131869000Y-105359000D01*
X127211000Y-105359000D02*
X128500000Y-105359000D01*
X130580000Y-105399000D02*
X131888000Y-105399000D01*
X127192000Y-105399000D02*
X128500000Y-105399000D01*
X130580000Y-105439000D02*
X131905000Y-105439000D01*
X127175000Y-105439000D02*
X128500000Y-105439000D01*
X130580000Y-105479000D02*
X131922000Y-105479000D01*
X127158000Y-105479000D02*
X128500000Y-105479000D01*
X130580000Y-105519000D02*
X131938000Y-105519000D01*
X127142000Y-105519000D02*
X128500000Y-105519000D01*
X130580000Y-105559000D02*
X131954000Y-105559000D01*
X127126000Y-105559000D02*
X128500000Y-105559000D01*
X130580000Y-105599000D02*
X131968000Y-105599000D01*
X127112000Y-105599000D02*
X128500000Y-105599000D01*
X130580000Y-105639000D02*
X131982000Y-105639000D01*
X127098000Y-105639000D02*
X128500000Y-105639000D01*
X130580000Y-105679000D02*
X131995000Y-105679000D01*
X127085000Y-105679000D02*
X128500000Y-105679000D01*
X130580000Y-105719000D02*
X132008000Y-105719000D01*
X127072000Y-105719000D02*
X128500000Y-105719000D01*
X130580000Y-105759000D02*
X132020000Y-105759000D01*
X127060000Y-105759000D02*
X128500000Y-105759000D01*
X130580000Y-105800000D02*
X132031000Y-105800000D01*
X127049000Y-105800000D02*
X128500000Y-105800000D01*
X130580000Y-105840000D02*
X132041000Y-105840000D01*
X127039000Y-105840000D02*
X128500000Y-105840000D01*
X130580000Y-105880000D02*
X132051000Y-105880000D01*
X127029000Y-105880000D02*
X128500000Y-105880000D01*
X130580000Y-105920000D02*
X132060000Y-105920000D01*
X127020000Y-105920000D02*
X128500000Y-105920000D01*
X130580000Y-105960000D02*
X132068000Y-105960000D01*
X127012000Y-105960000D02*
X128500000Y-105960000D01*
X130580000Y-106000000D02*
X132076000Y-106000000D01*
X127004000Y-106000000D02*
X128500000Y-106000000D01*
X130580000Y-106040000D02*
X132083000Y-106040000D01*
X126997000Y-106040000D02*
X128500000Y-106040000D01*
X130580000Y-106080000D02*
X132090000Y-106080000D01*
X126990000Y-106080000D02*
X128500000Y-106080000D01*
X130580000Y-106120000D02*
X132096000Y-106120000D01*
X126984000Y-106120000D02*
X128500000Y-106120000D01*
X130580000Y-106160000D02*
X132101000Y-106160000D01*
X126979000Y-106160000D02*
X128500000Y-106160000D01*
X130580000Y-106200000D02*
X132105000Y-106200000D01*
X126975000Y-106200000D02*
X128500000Y-106200000D01*
X130580000Y-106240000D02*
X132109000Y-106240000D01*
X126971000Y-106240000D02*
X128500000Y-106240000D01*
X130580000Y-106280000D02*
X132113000Y-106280000D01*
X126967000Y-106280000D02*
X128500000Y-106280000D01*
X130580000Y-106320000D02*
X132116000Y-106320000D01*
X126964000Y-106320000D02*
X128500000Y-106320000D01*
X130580000Y-106360000D02*
X132118000Y-106360000D01*
X126962000Y-106360000D02*
X128500000Y-106360000D01*
X130580000Y-106400000D02*
X132119000Y-106400000D01*
X126961000Y-106400000D02*
X128500000Y-106400000D01*
X126960000Y-106440000D02*
X128500000Y-106440000D01*
X130580000Y-106440000D02*
X132120000Y-106440000D01*
X126960000Y-106480000D02*
X128500000Y-106480000D01*
X130580000Y-106480000D02*
X132120000Y-106480000D01*
X132160000Y-106480000D02*
G75*
G03X132160000Y-106480000I-2620000J0D01*
G01*
X121444463Y-73972328D02*
X121444463Y-74314862D01*
X120424463Y-73972328D02*
X120424463Y-74314862D01*
X134110000Y-84918733D02*
X134110000Y-85261267D01*
X135130000Y-84918733D02*
X135130000Y-85261267D01*
X136083745Y-75877328D02*
X136083745Y-76219862D01*
X135063745Y-75877328D02*
X135063745Y-76219862D01*
X146810000Y-85083733D02*
X146810000Y-85426267D01*
X147830000Y-85083733D02*
X147830000Y-85426267D01*
X161800000Y-97783733D02*
X161800000Y-98126267D01*
X160780000Y-97783733D02*
X160780000Y-98126267D01*
X161415000Y-86988733D02*
X161415000Y-87331267D01*
X162435000Y-86988733D02*
X162435000Y-87331267D01*
X127896252Y-81520000D02*
X127373748Y-81520000D01*
X127896252Y-80100000D02*
X127373748Y-80100000D01*
X127896252Y-71995000D02*
X127373748Y-71995000D01*
X127896252Y-70575000D02*
X127373748Y-70575000D01*
X153931252Y-92800000D02*
X153408748Y-92800000D01*
X153931252Y-94220000D02*
X153408748Y-94220000D01*
X153931252Y-90260000D02*
X153408748Y-90260000D01*
X153931252Y-91680000D02*
X153408748Y-91680000D01*
X118620000Y-44300000D02*
G75*
G03X118620000Y-44300000I-3270000J0D01*
G01*
X115350000Y-41070000D02*
X115350000Y-47530000D01*
X115390000Y-41070000D02*
X115390000Y-47530000D01*
X115430000Y-41070000D02*
X115430000Y-47530000D01*
X115470000Y-41072000D02*
X115470000Y-47528000D01*
X115510000Y-41073000D02*
X115510000Y-47527000D01*
X115550000Y-41076000D02*
X115550000Y-47524000D01*
X115590000Y-41078000D02*
X115590000Y-43260000D01*
X115590000Y-45340000D02*
X115590000Y-47522000D01*
X115630000Y-41082000D02*
X115630000Y-43260000D01*
X115630000Y-45340000D02*
X115630000Y-47518000D01*
X115670000Y-41085000D02*
X115670000Y-43260000D01*
X115670000Y-45340000D02*
X115670000Y-47515000D01*
X115710000Y-41089000D02*
X115710000Y-43260000D01*
X115710000Y-45340000D02*
X115710000Y-47511000D01*
X115750000Y-41094000D02*
X115750000Y-43260000D01*
X115750000Y-45340000D02*
X115750000Y-47506000D01*
X115790000Y-41099000D02*
X115790000Y-43260000D01*
X115790000Y-45340000D02*
X115790000Y-47501000D01*
X115830000Y-41105000D02*
X115830000Y-43260000D01*
X115830000Y-45340000D02*
X115830000Y-47495000D01*
X115870000Y-41111000D02*
X115870000Y-43260000D01*
X115870000Y-45340000D02*
X115870000Y-47489000D01*
X115910000Y-41118000D02*
X115910000Y-43260000D01*
X115910000Y-45340000D02*
X115910000Y-47482000D01*
X115950000Y-41125000D02*
X115950000Y-43260000D01*
X115950000Y-45340000D02*
X115950000Y-47475000D01*
X115990000Y-41133000D02*
X115990000Y-43260000D01*
X115990000Y-45340000D02*
X115990000Y-47467000D01*
X116030000Y-41141000D02*
X116030000Y-43260000D01*
X116030000Y-45340000D02*
X116030000Y-47459000D01*
X116071000Y-41150000D02*
X116071000Y-43260000D01*
X116071000Y-45340000D02*
X116071000Y-47450000D01*
X116111000Y-41159000D02*
X116111000Y-43260000D01*
X116111000Y-45340000D02*
X116111000Y-47441000D01*
X116151000Y-41169000D02*
X116151000Y-43260000D01*
X116151000Y-45340000D02*
X116151000Y-47431000D01*
X116191000Y-41179000D02*
X116191000Y-43260000D01*
X116191000Y-45340000D02*
X116191000Y-47421000D01*
X116231000Y-41190000D02*
X116231000Y-43260000D01*
X116231000Y-45340000D02*
X116231000Y-47410000D01*
X116271000Y-41202000D02*
X116271000Y-43260000D01*
X116271000Y-45340000D02*
X116271000Y-47398000D01*
X116311000Y-41214000D02*
X116311000Y-43260000D01*
X116311000Y-45340000D02*
X116311000Y-47386000D01*
X116351000Y-41226000D02*
X116351000Y-43260000D01*
X116351000Y-45340000D02*
X116351000Y-47374000D01*
X116391000Y-41239000D02*
X116391000Y-43260000D01*
X116391000Y-45340000D02*
X116391000Y-47361000D01*
X116431000Y-41253000D02*
X116431000Y-43260000D01*
X116431000Y-45340000D02*
X116431000Y-47347000D01*
X116471000Y-41267000D02*
X116471000Y-43260000D01*
X116471000Y-45340000D02*
X116471000Y-47333000D01*
X116511000Y-41282000D02*
X116511000Y-43260000D01*
X116511000Y-45340000D02*
X116511000Y-47318000D01*
X116551000Y-41298000D02*
X116551000Y-43260000D01*
X116551000Y-45340000D02*
X116551000Y-47302000D01*
X116591000Y-41314000D02*
X116591000Y-43260000D01*
X116591000Y-45340000D02*
X116591000Y-47286000D01*
X116631000Y-41330000D02*
X116631000Y-43260000D01*
X116631000Y-45340000D02*
X116631000Y-47270000D01*
X116671000Y-41348000D02*
X116671000Y-43260000D01*
X116671000Y-45340000D02*
X116671000Y-47252000D01*
X116711000Y-41366000D02*
X116711000Y-43260000D01*
X116711000Y-45340000D02*
X116711000Y-47234000D01*
X116751000Y-41384000D02*
X116751000Y-43260000D01*
X116751000Y-45340000D02*
X116751000Y-47216000D01*
X116791000Y-41404000D02*
X116791000Y-43260000D01*
X116791000Y-45340000D02*
X116791000Y-47196000D01*
X116831000Y-41424000D02*
X116831000Y-43260000D01*
X116831000Y-45340000D02*
X116831000Y-47176000D01*
X116871000Y-41444000D02*
X116871000Y-43260000D01*
X116871000Y-45340000D02*
X116871000Y-47156000D01*
X116911000Y-41466000D02*
X116911000Y-43260000D01*
X116911000Y-45340000D02*
X116911000Y-47134000D01*
X116951000Y-41488000D02*
X116951000Y-43260000D01*
X116951000Y-45340000D02*
X116951000Y-47112000D01*
X116991000Y-41510000D02*
X116991000Y-43260000D01*
X116991000Y-45340000D02*
X116991000Y-47090000D01*
X117031000Y-41534000D02*
X117031000Y-43260000D01*
X117031000Y-45340000D02*
X117031000Y-47066000D01*
X117071000Y-41558000D02*
X117071000Y-43260000D01*
X117071000Y-45340000D02*
X117071000Y-47042000D01*
X117111000Y-41584000D02*
X117111000Y-43260000D01*
X117111000Y-45340000D02*
X117111000Y-47016000D01*
X117151000Y-41610000D02*
X117151000Y-43260000D01*
X117151000Y-45340000D02*
X117151000Y-46990000D01*
X117191000Y-41636000D02*
X117191000Y-43260000D01*
X117191000Y-45340000D02*
X117191000Y-46964000D01*
X117231000Y-41664000D02*
X117231000Y-43260000D01*
X117231000Y-45340000D02*
X117231000Y-46936000D01*
X117271000Y-41693000D02*
X117271000Y-43260000D01*
X117271000Y-45340000D02*
X117271000Y-46907000D01*
X117311000Y-41722000D02*
X117311000Y-43260000D01*
X117311000Y-45340000D02*
X117311000Y-46878000D01*
X117351000Y-41752000D02*
X117351000Y-43260000D01*
X117351000Y-45340000D02*
X117351000Y-46848000D01*
X117391000Y-41784000D02*
X117391000Y-43260000D01*
X117391000Y-45340000D02*
X117391000Y-46816000D01*
X117431000Y-41816000D02*
X117431000Y-43260000D01*
X117431000Y-45340000D02*
X117431000Y-46784000D01*
X117471000Y-41850000D02*
X117471000Y-43260000D01*
X117471000Y-45340000D02*
X117471000Y-46750000D01*
X117511000Y-41884000D02*
X117511000Y-43260000D01*
X117511000Y-45340000D02*
X117511000Y-46716000D01*
X117551000Y-41920000D02*
X117551000Y-43260000D01*
X117551000Y-45340000D02*
X117551000Y-46680000D01*
X117591000Y-41957000D02*
X117591000Y-43260000D01*
X117591000Y-45340000D02*
X117591000Y-46643000D01*
X117631000Y-41995000D02*
X117631000Y-43260000D01*
X117631000Y-45340000D02*
X117631000Y-46605000D01*
X117671000Y-42035000D02*
X117671000Y-46565000D01*
X117711000Y-42076000D02*
X117711000Y-46524000D01*
X117751000Y-42118000D02*
X117751000Y-46482000D01*
X117791000Y-42163000D02*
X117791000Y-46437000D01*
X117831000Y-42208000D02*
X117831000Y-46392000D01*
X117871000Y-42256000D02*
X117871000Y-46344000D01*
X117911000Y-42305000D02*
X117911000Y-46295000D01*
X117951000Y-42356000D02*
X117951000Y-46244000D01*
X117991000Y-42410000D02*
X117991000Y-46190000D01*
X118031000Y-42466000D02*
X118031000Y-46134000D01*
X118071000Y-42524000D02*
X118071000Y-46076000D01*
X118111000Y-42586000D02*
X118111000Y-46014000D01*
X118151000Y-42650000D02*
X118151000Y-45950000D01*
X118191000Y-42719000D02*
X118191000Y-45881000D01*
X118231000Y-42791000D02*
X118231000Y-45809000D01*
X118271000Y-42868000D02*
X118271000Y-45732000D01*
X118311000Y-42950000D02*
X118311000Y-45650000D01*
X118351000Y-43038000D02*
X118351000Y-45562000D01*
X118391000Y-43135000D02*
X118391000Y-45465000D01*
X118431000Y-43241000D02*
X118431000Y-45359000D01*
X118471000Y-43360000D02*
X118471000Y-45240000D01*
X118511000Y-43498000D02*
X118511000Y-45102000D01*
X118551000Y-43667000D02*
X118551000Y-44933000D01*
X118591000Y-43898000D02*
X118591000Y-44702000D01*
X111849759Y-42461000D02*
X112479759Y-42461000D01*
X112164759Y-42146000D02*
X112164759Y-42776000D01*
X127135241Y-46454000D02*
X127135241Y-45824000D01*
X127450241Y-46139000D02*
X126820241Y-46139000D01*
X120709000Y-44702000D02*
X120709000Y-43898000D01*
X120749000Y-44933000D02*
X120749000Y-43667000D01*
X120789000Y-45102000D02*
X120789000Y-43498000D01*
X120829000Y-45240000D02*
X120829000Y-43360000D01*
X120869000Y-45359000D02*
X120869000Y-43241000D01*
X120909000Y-45465000D02*
X120909000Y-43135000D01*
X120949000Y-45562000D02*
X120949000Y-43038000D01*
X120989000Y-45650000D02*
X120989000Y-42950000D01*
X121029000Y-45732000D02*
X121029000Y-42868000D01*
X121069000Y-45809000D02*
X121069000Y-42791000D01*
X121109000Y-45881000D02*
X121109000Y-42719000D01*
X121149000Y-45950000D02*
X121149000Y-42650000D01*
X121189000Y-46014000D02*
X121189000Y-42586000D01*
X121229000Y-46076000D02*
X121229000Y-42524000D01*
X121269000Y-46134000D02*
X121269000Y-42466000D01*
X121309000Y-46190000D02*
X121309000Y-42410000D01*
X121349000Y-46244000D02*
X121349000Y-42356000D01*
X121389000Y-46295000D02*
X121389000Y-42305000D01*
X121429000Y-46344000D02*
X121429000Y-42256000D01*
X121469000Y-46392000D02*
X121469000Y-42208000D01*
X121509000Y-46437000D02*
X121509000Y-42163000D01*
X121549000Y-46482000D02*
X121549000Y-42118000D01*
X121589000Y-46524000D02*
X121589000Y-42076000D01*
X121629000Y-46565000D02*
X121629000Y-42035000D01*
X121669000Y-43260000D02*
X121669000Y-41995000D01*
X121669000Y-46605000D02*
X121669000Y-45340000D01*
X121709000Y-43260000D02*
X121709000Y-41957000D01*
X121709000Y-46643000D02*
X121709000Y-45340000D01*
X121749000Y-43260000D02*
X121749000Y-41920000D01*
X121749000Y-46680000D02*
X121749000Y-45340000D01*
X121789000Y-43260000D02*
X121789000Y-41884000D01*
X121789000Y-46716000D02*
X121789000Y-45340000D01*
X121829000Y-43260000D02*
X121829000Y-41850000D01*
X121829000Y-46750000D02*
X121829000Y-45340000D01*
X121869000Y-43260000D02*
X121869000Y-41816000D01*
X121869000Y-46784000D02*
X121869000Y-45340000D01*
X121909000Y-43260000D02*
X121909000Y-41784000D01*
X121909000Y-46816000D02*
X121909000Y-45340000D01*
X121949000Y-43260000D02*
X121949000Y-41752000D01*
X121949000Y-46848000D02*
X121949000Y-45340000D01*
X121989000Y-43260000D02*
X121989000Y-41722000D01*
X121989000Y-46878000D02*
X121989000Y-45340000D01*
X122029000Y-43260000D02*
X122029000Y-41693000D01*
X122029000Y-46907000D02*
X122029000Y-45340000D01*
X122069000Y-43260000D02*
X122069000Y-41664000D01*
X122069000Y-46936000D02*
X122069000Y-45340000D01*
X122109000Y-43260000D02*
X122109000Y-41636000D01*
X122109000Y-46964000D02*
X122109000Y-45340000D01*
X122149000Y-43260000D02*
X122149000Y-41610000D01*
X122149000Y-46990000D02*
X122149000Y-45340000D01*
X122189000Y-43260000D02*
X122189000Y-41584000D01*
X122189000Y-47016000D02*
X122189000Y-45340000D01*
X122229000Y-43260000D02*
X122229000Y-41558000D01*
X122229000Y-47042000D02*
X122229000Y-45340000D01*
X122269000Y-43260000D02*
X122269000Y-41534000D01*
X122269000Y-47066000D02*
X122269000Y-45340000D01*
X122309000Y-43260000D02*
X122309000Y-41510000D01*
X122309000Y-47090000D02*
X122309000Y-45340000D01*
X122349000Y-43260000D02*
X122349000Y-41488000D01*
X122349000Y-47112000D02*
X122349000Y-45340000D01*
X122389000Y-43260000D02*
X122389000Y-41466000D01*
X122389000Y-47134000D02*
X122389000Y-45340000D01*
X122429000Y-43260000D02*
X122429000Y-41444000D01*
X122429000Y-47156000D02*
X122429000Y-45340000D01*
X122469000Y-43260000D02*
X122469000Y-41424000D01*
X122469000Y-47176000D02*
X122469000Y-45340000D01*
X122509000Y-43260000D02*
X122509000Y-41404000D01*
X122509000Y-47196000D02*
X122509000Y-45340000D01*
X122549000Y-43260000D02*
X122549000Y-41384000D01*
X122549000Y-47216000D02*
X122549000Y-45340000D01*
X122589000Y-43260000D02*
X122589000Y-41366000D01*
X122589000Y-47234000D02*
X122589000Y-45340000D01*
X122629000Y-43260000D02*
X122629000Y-41348000D01*
X122629000Y-47252000D02*
X122629000Y-45340000D01*
X122669000Y-43260000D02*
X122669000Y-41330000D01*
X122669000Y-47270000D02*
X122669000Y-45340000D01*
X122709000Y-43260000D02*
X122709000Y-41314000D01*
X122709000Y-47286000D02*
X122709000Y-45340000D01*
X122749000Y-43260000D02*
X122749000Y-41298000D01*
X122749000Y-47302000D02*
X122749000Y-45340000D01*
X122789000Y-43260000D02*
X122789000Y-41282000D01*
X122789000Y-47318000D02*
X122789000Y-45340000D01*
X122829000Y-43260000D02*
X122829000Y-41267000D01*
X122829000Y-47333000D02*
X122829000Y-45340000D01*
X122869000Y-43260000D02*
X122869000Y-41253000D01*
X122869000Y-47347000D02*
X122869000Y-45340000D01*
X122909000Y-43260000D02*
X122909000Y-41239000D01*
X122909000Y-47361000D02*
X122909000Y-45340000D01*
X122949000Y-43260000D02*
X122949000Y-41226000D01*
X122949000Y-47374000D02*
X122949000Y-45340000D01*
X122989000Y-43260000D02*
X122989000Y-41214000D01*
X122989000Y-47386000D02*
X122989000Y-45340000D01*
X123029000Y-43260000D02*
X123029000Y-41202000D01*
X123029000Y-47398000D02*
X123029000Y-45340000D01*
X123069000Y-43260000D02*
X123069000Y-41190000D01*
X123069000Y-47410000D02*
X123069000Y-45340000D01*
X123109000Y-43260000D02*
X123109000Y-41179000D01*
X123109000Y-47421000D02*
X123109000Y-45340000D01*
X123149000Y-43260000D02*
X123149000Y-41169000D01*
X123149000Y-47431000D02*
X123149000Y-45340000D01*
X123189000Y-43260000D02*
X123189000Y-41159000D01*
X123189000Y-47441000D02*
X123189000Y-45340000D01*
X123229000Y-43260000D02*
X123229000Y-41150000D01*
X123229000Y-47450000D02*
X123229000Y-45340000D01*
X123270000Y-43260000D02*
X123270000Y-41141000D01*
X123270000Y-47459000D02*
X123270000Y-45340000D01*
X123310000Y-43260000D02*
X123310000Y-41133000D01*
X123310000Y-47467000D02*
X123310000Y-45340000D01*
X123350000Y-43260000D02*
X123350000Y-41125000D01*
X123350000Y-47475000D02*
X123350000Y-45340000D01*
X123390000Y-43260000D02*
X123390000Y-41118000D01*
X123390000Y-47482000D02*
X123390000Y-45340000D01*
X123430000Y-43260000D02*
X123430000Y-41111000D01*
X123430000Y-47489000D02*
X123430000Y-45340000D01*
X123470000Y-43260000D02*
X123470000Y-41105000D01*
X123470000Y-47495000D02*
X123470000Y-45340000D01*
X123510000Y-43260000D02*
X123510000Y-41099000D01*
X123510000Y-47501000D02*
X123510000Y-45340000D01*
X123550000Y-43260000D02*
X123550000Y-41094000D01*
X123550000Y-47506000D02*
X123550000Y-45340000D01*
X123590000Y-43260000D02*
X123590000Y-41089000D01*
X123590000Y-47511000D02*
X123590000Y-45340000D01*
X123630000Y-43260000D02*
X123630000Y-41085000D01*
X123630000Y-47515000D02*
X123630000Y-45340000D01*
X123670000Y-43260000D02*
X123670000Y-41082000D01*
X123670000Y-47518000D02*
X123670000Y-45340000D01*
X123710000Y-43260000D02*
X123710000Y-41078000D01*
X123710000Y-47522000D02*
X123710000Y-45340000D01*
X123750000Y-47524000D02*
X123750000Y-41076000D01*
X123790000Y-47527000D02*
X123790000Y-41073000D01*
X123830000Y-47528000D02*
X123830000Y-41072000D01*
X123870000Y-47530000D02*
X123870000Y-41070000D01*
X123910000Y-47530000D02*
X123910000Y-41070000D01*
X123950000Y-47530000D02*
X123950000Y-41070000D01*
X127220000Y-44300000D02*
G75*
G03X127220000Y-44300000I-3270000J0D01*
G01*
X113960000Y-53971267D02*
X113960000Y-53628733D01*
X112940000Y-53971267D02*
X112940000Y-53628733D01*
X109130000Y-53628733D02*
X109130000Y-53971267D01*
X110150000Y-53628733D02*
X110150000Y-53971267D01*
X107225000Y-53971267D02*
X107225000Y-53628733D01*
X108245000Y-53971267D02*
X108245000Y-53628733D01*
X105320000Y-53971267D02*
X105320000Y-53628733D01*
X106340000Y-53971267D02*
X106340000Y-53628733D01*
X102530000Y-53971267D02*
X102530000Y-53628733D01*
X101510000Y-53971267D02*
X101510000Y-53628733D01*
X100625000Y-53628733D02*
X100625000Y-53971267D01*
X99605000Y-53628733D02*
X99605000Y-53971267D01*
X112270000Y-73996267D02*
X112270000Y-73653733D01*
X111250000Y-73996267D02*
X111250000Y-73653733D01*
X106805000Y-86696267D02*
X106805000Y-86353733D01*
X107825000Y-86696267D02*
X107825000Y-86353733D01*
X101960000Y-85922936D02*
X101960000Y-87127064D01*
X103780000Y-85922936D02*
X103780000Y-87127064D01*
X101090000Y-72091267D02*
X101090000Y-71748733D01*
X102110000Y-72091267D02*
X102110000Y-71748733D01*
X107825000Y-81273733D02*
X107825000Y-81616267D01*
X106805000Y-81273733D02*
X106805000Y-81616267D01*
X103780000Y-80842936D02*
X103780000Y-82047064D01*
X101960000Y-80842936D02*
X101960000Y-82047064D01*
X94275000Y-53971267D02*
X94275000Y-53628733D01*
X93255000Y-53971267D02*
X93255000Y-53628733D01*
X89445000Y-53628733D02*
X89445000Y-53971267D01*
X90465000Y-53628733D02*
X90465000Y-53971267D01*
X87540000Y-53971267D02*
X87540000Y-53628733D01*
X88560000Y-53971267D02*
X88560000Y-53628733D01*
X85635000Y-53971267D02*
X85635000Y-53628733D01*
X86655000Y-53971267D02*
X86655000Y-53628733D01*
X82845000Y-53971267D02*
X82845000Y-53628733D01*
X81825000Y-53971267D02*
X81825000Y-53628733D01*
X79920000Y-53628733D02*
X79920000Y-53971267D01*
X80940000Y-53628733D02*
X80940000Y-53971267D01*
X92200000Y-72726267D02*
X92200000Y-72383733D01*
X93220000Y-72726267D02*
X93220000Y-72383733D01*
X87505000Y-85426267D02*
X87505000Y-85083733D01*
X86485000Y-85426267D02*
X86485000Y-85083733D01*
X92350000Y-84652936D02*
X92350000Y-85857064D01*
X90530000Y-84652936D02*
X90530000Y-85857064D01*
X83060000Y-73996267D02*
X83060000Y-73653733D01*
X82040000Y-73996267D02*
X82040000Y-73653733D01*
X87505000Y-80003733D02*
X87505000Y-80346267D01*
X86485000Y-80003733D02*
X86485000Y-80346267D01*
X92350000Y-79572936D02*
X92350000Y-80777064D01*
X90530000Y-79572936D02*
X90530000Y-80777064D01*
X122045000Y-84551267D02*
X122045000Y-84208733D01*
X123065000Y-84551267D02*
X123065000Y-84208733D01*
X118470000Y-78302936D02*
X118470000Y-79507064D01*
X120290000Y-78302936D02*
X120290000Y-79507064D01*
X122363745Y-73972328D02*
X122363745Y-74314862D01*
X123383745Y-73972328D02*
X123383745Y-74314862D01*
X122045000Y-69208733D02*
X122045000Y-69551267D01*
X123065000Y-69208733D02*
X123065000Y-69551267D01*
X125062064Y-90610000D02*
X123857936Y-90610000D01*
X125062064Y-88790000D02*
X123857936Y-88790000D01*
X133225000Y-84918733D02*
X133225000Y-85261267D01*
X132205000Y-84918733D02*
X132205000Y-85261267D01*
X137966267Y-79415000D02*
X137623733Y-79415000D01*
X137966267Y-78395000D02*
X137623733Y-78395000D01*
X137203745Y-76015659D02*
X137203745Y-74811531D01*
X139023745Y-76015659D02*
X139023745Y-74811531D01*
X132123745Y-74811531D02*
X132123745Y-76015659D01*
X133943745Y-74811531D02*
X133943745Y-76015659D01*
X143681267Y-50840000D02*
X143338733Y-50840000D01*
X143681267Y-49820000D02*
X143338733Y-49820000D01*
X143681267Y-47915000D02*
X143338733Y-47915000D01*
X143681267Y-48935000D02*
X143338733Y-48935000D01*
X149688733Y-49820000D02*
X150031267Y-49820000D01*
X149688733Y-50840000D02*
X150031267Y-50840000D01*
X149688733Y-48935000D02*
X150031267Y-48935000D01*
X149688733Y-47915000D02*
X150031267Y-47915000D01*
X154133733Y-101255000D02*
X154476267Y-101255000D01*
X154133733Y-102275000D02*
X154476267Y-102275000D01*
X146410000Y-98622936D02*
X146410000Y-99827064D01*
X148230000Y-98622936D02*
X148230000Y-99827064D01*
X148715000Y-85083733D02*
X148715000Y-85426267D01*
X149735000Y-85083733D02*
X149735000Y-85426267D01*
X146810000Y-78338733D02*
X146810000Y-78681267D01*
X147830000Y-78338733D02*
X147830000Y-78681267D01*
X162920000Y-99892936D02*
X162920000Y-101097064D01*
X164740000Y-99892936D02*
X164740000Y-101097064D01*
X159895000Y-97783733D02*
X159895000Y-98126267D01*
X158875000Y-97783733D02*
X158875000Y-98126267D01*
X162685000Y-95878733D02*
X162685000Y-96221267D01*
X163705000Y-95878733D02*
X163705000Y-96221267D01*
X163555000Y-87127064D02*
X163555000Y-85922936D01*
X165375000Y-87127064D02*
X165375000Y-85922936D01*
X158475000Y-85922936D02*
X158475000Y-87127064D01*
X160295000Y-85922936D02*
X160295000Y-87127064D01*
X160191267Y-50840000D02*
X159848733Y-50840000D01*
X160191267Y-49820000D02*
X159848733Y-49820000D01*
X160191267Y-47750000D02*
X159848733Y-47750000D01*
X160191267Y-48770000D02*
X159848733Y-48770000D01*
X170008733Y-49820000D02*
X170351267Y-49820000D01*
X170008733Y-50840000D02*
X170351267Y-50840000D01*
X170008733Y-48935000D02*
X170351267Y-48935000D01*
X170008733Y-47915000D02*
X170351267Y-47915000D01*
D10*
X108755000Y-73175000D02*
X110155000Y-73175000D01*
X108755000Y-68075000D02*
X104605000Y-68075000D01*
X108755000Y-73225000D02*
X104605000Y-73225000D01*
X108755000Y-68075000D02*
X108755000Y-68220000D01*
X104605000Y-68075000D02*
X104605000Y-68220000D01*
X104605000Y-73225000D02*
X104605000Y-73080000D01*
X108755000Y-73225000D02*
X108755000Y-73175000D01*
X99230000Y-86510000D02*
X100630000Y-86510000D01*
X99230000Y-81410000D02*
X95080000Y-81410000D01*
X99230000Y-86560000D02*
X95080000Y-86560000D01*
X99230000Y-81410000D02*
X99230000Y-81555000D01*
X95080000Y-81410000D02*
X95080000Y-81555000D01*
X95080000Y-86560000D02*
X95080000Y-86415000D01*
X99230000Y-86560000D02*
X99230000Y-86510000D01*
X99230000Y-97355000D02*
X99230000Y-97305000D01*
X95080000Y-97355000D02*
X95080000Y-97210000D01*
X95080000Y-92205000D02*
X95080000Y-92350000D01*
X99230000Y-92205000D02*
X99230000Y-92350000D01*
X99230000Y-97355000D02*
X95080000Y-97355000D01*
X99230000Y-92205000D02*
X95080000Y-92205000D01*
X99230000Y-97305000D02*
X100630000Y-97305000D01*
X89705000Y-73225000D02*
X89705000Y-73175000D01*
X85555000Y-73225000D02*
X85555000Y-73080000D01*
X85555000Y-68075000D02*
X85555000Y-68220000D01*
X89705000Y-68075000D02*
X89705000Y-68220000D01*
X89705000Y-73225000D02*
X85555000Y-73225000D01*
X89705000Y-68075000D02*
X85555000Y-68075000D01*
X89705000Y-73175000D02*
X91105000Y-73175000D01*
X125560000Y-82515000D02*
X125560000Y-82565000D01*
X129710000Y-82515000D02*
X129710000Y-82660000D01*
X129710000Y-87665000D02*
X129710000Y-87520000D01*
X125560000Y-87665000D02*
X125560000Y-87520000D01*
X125560000Y-82515000D02*
X129710000Y-82515000D01*
X125560000Y-87665000D02*
X129710000Y-87665000D01*
X125560000Y-82565000D02*
X124160000Y-82565000D01*
X125844463Y-72888595D02*
X124444463Y-72888595D01*
X125844463Y-77988595D02*
X129994463Y-77988595D01*
X125844463Y-72838595D02*
X129994463Y-72838595D01*
X125844463Y-77988595D02*
X125844463Y-77843595D01*
X129994463Y-77988595D02*
X129994463Y-77843595D01*
X129994463Y-72838595D02*
X129994463Y-72983595D01*
X125844463Y-72838595D02*
X125844463Y-72888595D01*
X152230000Y-95380000D02*
X152230000Y-95430000D01*
X156380000Y-95380000D02*
X156380000Y-95525000D01*
X156380000Y-100530000D02*
X156380000Y-100385000D01*
X152230000Y-100530000D02*
X152230000Y-100385000D01*
X152230000Y-95380000D02*
X156380000Y-95380000D01*
X152230000Y-100530000D02*
X156380000Y-100530000D01*
X152230000Y-95430000D02*
X150830000Y-95430000D01*
X152230000Y-84000000D02*
X150830000Y-84000000D01*
X152230000Y-89100000D02*
X156380000Y-89100000D01*
X152230000Y-83950000D02*
X156380000Y-83950000D01*
X152230000Y-89100000D02*
X152230000Y-88955000D01*
X156380000Y-89100000D02*
X156380000Y-88955000D01*
X156380000Y-83950000D02*
X156380000Y-84095000D01*
X152230000Y-83950000D02*
X152230000Y-84000000D01*
D12*
X115245000Y-61280000D02*
G75*
G03X115245000Y-61280000I-4120000J0D01*
G01*
X105720000Y-61280000D02*
G75*
G03X105720000Y-61280000I-4120000J0D01*
G01*
X96195000Y-61280000D02*
G75*
G03X96195000Y-61280000I-4120000J0D01*
G01*
X86670000Y-61280000D02*
G75*
G03X86670000Y-61280000I-4120000J0D01*
G01*
D10*
X147612380Y-118395238D02*
X147136190Y-118728571D01*
X147612380Y-118966666D02*
X146612380Y-118966666D01*
X146612380Y-118585714D01*
X146660000Y-118490476D01*
X146707619Y-118442857D01*
X146802857Y-118395238D01*
X146945714Y-118395238D01*
X147040952Y-118442857D01*
X147088571Y-118490476D01*
X147136190Y-118585714D01*
X147136190Y-118966666D01*
X146612380Y-118109523D02*
X147612380Y-117776190D01*
X146612380Y-117442857D01*
X146707619Y-117157142D02*
X146660000Y-117109523D01*
X146612380Y-117014285D01*
X146612380Y-116776190D01*
X146660000Y-116680952D01*
X146707619Y-116633333D01*
X146802857Y-116585714D01*
X146898095Y-116585714D01*
X147040952Y-116633333D01*
X147612380Y-117204761D01*
X147612380Y-116585714D01*
X87612380Y-118395238D02*
X87136190Y-118728571D01*
X87612380Y-118966666D02*
X86612380Y-118966666D01*
X86612380Y-118585714D01*
X86660000Y-118490476D01*
X86707619Y-118442857D01*
X86802857Y-118395238D01*
X86945714Y-118395238D01*
X87040952Y-118442857D01*
X87088571Y-118490476D01*
X87136190Y-118585714D01*
X87136190Y-118966666D01*
X86612380Y-118109523D02*
X87612380Y-117776190D01*
X86612380Y-117442857D01*
X87612380Y-116585714D02*
X87612380Y-117157142D01*
X87612380Y-116871428D02*
X86612380Y-116871428D01*
X86755238Y-116966666D01*
X86850476Y-117061904D01*
X86898095Y-117157142D01*
X167057142Y-70657142D02*
X167009523Y-70704761D01*
X166866666Y-70752380D01*
X166771428Y-70752380D01*
X166628571Y-70704761D01*
X166533333Y-70609523D01*
X166485714Y-70514285D01*
X166438095Y-70323809D01*
X166438095Y-70180952D01*
X166485714Y-69990476D01*
X166533333Y-69895238D01*
X166628571Y-69800000D01*
X166771428Y-69752380D01*
X166866666Y-69752380D01*
X167009523Y-69800000D01*
X167057142Y-69847619D01*
X167390476Y-69752380D02*
X168009523Y-69752380D01*
X167676190Y-70133333D01*
X167819047Y-70133333D01*
X167914285Y-70180952D01*
X167961904Y-70228571D01*
X168009523Y-70323809D01*
X168009523Y-70561904D01*
X167961904Y-70657142D01*
X167914285Y-70704761D01*
X167819047Y-70752380D01*
X167533333Y-70752380D01*
X167438095Y-70704761D01*
X167390476Y-70657142D01*
X168866666Y-70085714D02*
X168866666Y-70752380D01*
X168628571Y-69704761D02*
X168390476Y-70419047D01*
X169009523Y-70419047D01*
X164557142Y-76942857D02*
X164604761Y-76990476D01*
X164652380Y-77133333D01*
X164652380Y-77228571D01*
X164604761Y-77371428D01*
X164509523Y-77466666D01*
X164414285Y-77514285D01*
X164223809Y-77561904D01*
X164080952Y-77561904D01*
X163890476Y-77514285D01*
X163795238Y-77466666D01*
X163700000Y-77371428D01*
X163652380Y-77228571D01*
X163652380Y-77133333D01*
X163700000Y-76990476D01*
X163747619Y-76942857D01*
X163652380Y-76609523D02*
X163652380Y-75990476D01*
X164033333Y-76323809D01*
X164033333Y-76180952D01*
X164080952Y-76085714D01*
X164128571Y-76038095D01*
X164223809Y-75990476D01*
X164461904Y-75990476D01*
X164557142Y-76038095D01*
X164604761Y-76085714D01*
X164652380Y-76180952D01*
X164652380Y-76466666D01*
X164604761Y-76561904D01*
X164557142Y-76609523D01*
X163652380Y-75657142D02*
X163652380Y-75038095D01*
X164033333Y-75371428D01*
X164033333Y-75228571D01*
X164080952Y-75133333D01*
X164128571Y-75085714D01*
X164223809Y-75038095D01*
X164461904Y-75038095D01*
X164557142Y-75085714D01*
X164604761Y-75133333D01*
X164652380Y-75228571D01*
X164652380Y-75514285D01*
X164604761Y-75609523D01*
X164557142Y-75657142D01*
X151057142Y-56157142D02*
X151009523Y-56204761D01*
X150866666Y-56252380D01*
X150771428Y-56252380D01*
X150628571Y-56204761D01*
X150533333Y-56109523D01*
X150485714Y-56014285D01*
X150438095Y-55823809D01*
X150438095Y-55680952D01*
X150485714Y-55490476D01*
X150533333Y-55395238D01*
X150628571Y-55300000D01*
X150771428Y-55252380D01*
X150866666Y-55252380D01*
X151009523Y-55300000D01*
X151057142Y-55347619D01*
X151438095Y-55347619D02*
X151485714Y-55300000D01*
X151580952Y-55252380D01*
X151819047Y-55252380D01*
X151914285Y-55300000D01*
X151961904Y-55347619D01*
X152009523Y-55442857D01*
X152009523Y-55538095D01*
X151961904Y-55680952D01*
X151390476Y-56252380D01*
X152009523Y-56252380D01*
X152342857Y-55252380D02*
X153009523Y-55252380D01*
X152580952Y-56252380D01*
X136557142Y-56157142D02*
X136509523Y-56204761D01*
X136366666Y-56252380D01*
X136271428Y-56252380D01*
X136128571Y-56204761D01*
X136033333Y-56109523D01*
X135985714Y-56014285D01*
X135938095Y-55823809D01*
X135938095Y-55680952D01*
X135985714Y-55490476D01*
X136033333Y-55395238D01*
X136128571Y-55300000D01*
X136271428Y-55252380D01*
X136366666Y-55252380D01*
X136509523Y-55300000D01*
X136557142Y-55347619D01*
X136938095Y-55347619D02*
X136985714Y-55300000D01*
X137080952Y-55252380D01*
X137319047Y-55252380D01*
X137414285Y-55300000D01*
X137461904Y-55347619D01*
X137509523Y-55442857D01*
X137509523Y-55538095D01*
X137461904Y-55680952D01*
X136890476Y-56252380D01*
X137509523Y-56252380D01*
X138366666Y-55252380D02*
X138176190Y-55252380D01*
X138080952Y-55300000D01*
X138033333Y-55347619D01*
X137938095Y-55490476D01*
X137890476Y-55680952D01*
X137890476Y-56061904D01*
X137938095Y-56157142D01*
X137985714Y-56204761D01*
X138080952Y-56252380D01*
X138271428Y-56252380D01*
X138366666Y-56204761D01*
X138414285Y-56157142D01*
X138461904Y-56061904D01*
X138461904Y-55823809D01*
X138414285Y-55728571D01*
X138366666Y-55680952D01*
X138271428Y-55633333D01*
X138080952Y-55633333D01*
X137985714Y-55680952D01*
X137938095Y-55728571D01*
X137890476Y-55823809D01*
X109863095Y-87842380D02*
X110434523Y-87842380D01*
X110148809Y-88842380D02*
X110148809Y-87842380D01*
X110767857Y-88842380D02*
X110767857Y-87842380D01*
X111148809Y-87842380D01*
X111244047Y-87890000D01*
X111291666Y-87937619D01*
X111339285Y-88032857D01*
X111339285Y-88175714D01*
X111291666Y-88270952D01*
X111244047Y-88318571D01*
X111148809Y-88366190D01*
X110767857Y-88366190D01*
X112291666Y-88842380D02*
X111720238Y-88842380D01*
X112005952Y-88842380D02*
X112005952Y-87842380D01*
X111910714Y-87985238D01*
X111815476Y-88080476D01*
X111720238Y-88128095D01*
X108593095Y-79587380D02*
X109164523Y-79587380D01*
X108878809Y-80587380D02*
X108878809Y-79587380D01*
X109497857Y-80587380D02*
X109497857Y-79587380D01*
X109878809Y-79587380D01*
X109974047Y-79635000D01*
X110021666Y-79682619D01*
X110069285Y-79777857D01*
X110069285Y-79920714D01*
X110021666Y-80015952D01*
X109974047Y-80063571D01*
X109878809Y-80111190D01*
X109497857Y-80111190D01*
X110450238Y-79682619D02*
X110497857Y-79635000D01*
X110593095Y-79587380D01*
X110831190Y-79587380D01*
X110926428Y-79635000D01*
X110974047Y-79682619D01*
X111021666Y-79777857D01*
X111021666Y-79873095D01*
X110974047Y-80015952D01*
X110402619Y-80587380D01*
X111021666Y-80587380D01*
X102243095Y-95462380D02*
X102814523Y-95462380D01*
X102528809Y-96462380D02*
X102528809Y-95462380D01*
X103147857Y-96462380D02*
X103147857Y-95462380D01*
X103528809Y-95462380D01*
X103624047Y-95510000D01*
X103671666Y-95557619D01*
X103719285Y-95652857D01*
X103719285Y-95795714D01*
X103671666Y-95890952D01*
X103624047Y-95938571D01*
X103528809Y-95986190D01*
X103147857Y-95986190D01*
X104052619Y-95462380D02*
X104671666Y-95462380D01*
X104338333Y-95843333D01*
X104481190Y-95843333D01*
X104576428Y-95890952D01*
X104624047Y-95938571D01*
X104671666Y-96033809D01*
X104671666Y-96271904D01*
X104624047Y-96367142D01*
X104576428Y-96414761D01*
X104481190Y-96462380D01*
X104195476Y-96462380D01*
X104100238Y-96414761D01*
X104052619Y-96367142D01*
X81923095Y-84032380D02*
X82494523Y-84032380D01*
X82208809Y-85032380D02*
X82208809Y-84032380D01*
X82827857Y-85032380D02*
X82827857Y-84032380D01*
X83208809Y-84032380D01*
X83304047Y-84080000D01*
X83351666Y-84127619D01*
X83399285Y-84222857D01*
X83399285Y-84365714D01*
X83351666Y-84460952D01*
X83304047Y-84508571D01*
X83208809Y-84556190D01*
X82827857Y-84556190D01*
X84256428Y-84365714D02*
X84256428Y-85032380D01*
X84018333Y-83984761D02*
X83780238Y-84699047D01*
X84399285Y-84699047D01*
X80653095Y-70697380D02*
X81224523Y-70697380D01*
X80938809Y-71697380D02*
X80938809Y-70697380D01*
X81557857Y-71697380D02*
X81557857Y-70697380D01*
X81938809Y-70697380D01*
X82034047Y-70745000D01*
X82081666Y-70792619D01*
X82129285Y-70887857D01*
X82129285Y-71030714D01*
X82081666Y-71125952D01*
X82034047Y-71173571D01*
X81938809Y-71221190D01*
X81557857Y-71221190D01*
X83034047Y-70697380D02*
X82557857Y-70697380D01*
X82510238Y-71173571D01*
X82557857Y-71125952D01*
X82653095Y-71078333D01*
X82891190Y-71078333D01*
X82986428Y-71125952D01*
X83034047Y-71173571D01*
X83081666Y-71268809D01*
X83081666Y-71506904D01*
X83034047Y-71602142D01*
X82986428Y-71649761D01*
X82891190Y-71697380D01*
X82653095Y-71697380D01*
X82557857Y-71649761D01*
X82510238Y-71602142D01*
X88273095Y-93557380D02*
X88844523Y-93557380D01*
X88558809Y-94557380D02*
X88558809Y-93557380D01*
X89177857Y-94557380D02*
X89177857Y-93557380D01*
X89558809Y-93557380D01*
X89654047Y-93605000D01*
X89701666Y-93652619D01*
X89749285Y-93747857D01*
X89749285Y-93890714D01*
X89701666Y-93985952D01*
X89654047Y-94033571D01*
X89558809Y-94081190D01*
X89177857Y-94081190D01*
X90606428Y-93557380D02*
X90415952Y-93557380D01*
X90320714Y-93605000D01*
X90273095Y-93652619D01*
X90177857Y-93795476D01*
X90130238Y-93985952D01*
X90130238Y-94366904D01*
X90177857Y-94462142D01*
X90225476Y-94509761D01*
X90320714Y-94557380D01*
X90511190Y-94557380D01*
X90606428Y-94509761D01*
X90654047Y-94462142D01*
X90701666Y-94366904D01*
X90701666Y-94128809D01*
X90654047Y-94033571D01*
X90606428Y-93985952D01*
X90511190Y-93938333D01*
X90320714Y-93938333D01*
X90225476Y-93985952D01*
X90177857Y-94033571D01*
X90130238Y-94128809D01*
X140978095Y-82127380D02*
X141549523Y-82127380D01*
X141263809Y-83127380D02*
X141263809Y-82127380D01*
X141882857Y-83127380D02*
X141882857Y-82127380D01*
X142263809Y-82127380D01*
X142359047Y-82175000D01*
X142406666Y-82222619D01*
X142454285Y-82317857D01*
X142454285Y-82460714D01*
X142406666Y-82555952D01*
X142359047Y-82603571D01*
X142263809Y-82651190D01*
X141882857Y-82651190D01*
X142787619Y-82127380D02*
X143454285Y-82127380D01*
X143025714Y-83127380D01*
X118753095Y-92922380D02*
X119324523Y-92922380D01*
X119038809Y-93922380D02*
X119038809Y-92922380D01*
X119657857Y-93922380D02*
X119657857Y-92922380D01*
X120038809Y-92922380D01*
X120134047Y-92970000D01*
X120181666Y-93017619D01*
X120229285Y-93112857D01*
X120229285Y-93255714D01*
X120181666Y-93350952D01*
X120134047Y-93398571D01*
X120038809Y-93446190D01*
X119657857Y-93446190D01*
X120800714Y-93350952D02*
X120705476Y-93303333D01*
X120657857Y-93255714D01*
X120610238Y-93160476D01*
X120610238Y-93112857D01*
X120657857Y-93017619D01*
X120705476Y-92970000D01*
X120800714Y-92922380D01*
X120991190Y-92922380D01*
X121086428Y-92970000D01*
X121134047Y-93017619D01*
X121181666Y-93112857D01*
X121181666Y-93160476D01*
X121134047Y-93255714D01*
X121086428Y-93303333D01*
X120991190Y-93350952D01*
X120800714Y-93350952D01*
X120705476Y-93398571D01*
X120657857Y-93446190D01*
X120610238Y-93541428D01*
X120610238Y-93731904D01*
X120657857Y-93827142D01*
X120705476Y-93874761D01*
X120800714Y-93922380D01*
X120991190Y-93922380D01*
X121086428Y-93874761D01*
X121134047Y-93827142D01*
X121181666Y-93731904D01*
X121181666Y-93541428D01*
X121134047Y-93446190D01*
X121086428Y-93398571D01*
X120991190Y-93350952D01*
X141613095Y-56092380D02*
X142184523Y-56092380D01*
X141898809Y-57092380D02*
X141898809Y-56092380D01*
X142517857Y-57092380D02*
X142517857Y-56092380D01*
X142898809Y-56092380D01*
X142994047Y-56140000D01*
X143041666Y-56187619D01*
X143089285Y-56282857D01*
X143089285Y-56425714D01*
X143041666Y-56520952D01*
X142994047Y-56568571D01*
X142898809Y-56616190D01*
X142517857Y-56616190D01*
X143565476Y-57092380D02*
X143755952Y-57092380D01*
X143851190Y-57044761D01*
X143898809Y-56997142D01*
X143994047Y-56854285D01*
X144041666Y-56663809D01*
X144041666Y-56282857D01*
X143994047Y-56187619D01*
X143946428Y-56140000D01*
X143851190Y-56092380D01*
X143660714Y-56092380D01*
X143565476Y-56140000D01*
X143517857Y-56187619D01*
X143470238Y-56282857D01*
X143470238Y-56520952D01*
X143517857Y-56616190D01*
X143565476Y-56663809D01*
X143660714Y-56711428D01*
X143851190Y-56711428D01*
X143946428Y-56663809D01*
X143994047Y-56616190D01*
X144041666Y-56520952D01*
X145581904Y-56092380D02*
X146153333Y-56092380D01*
X145867619Y-57092380D02*
X145867619Y-56092380D01*
X146486666Y-57092380D02*
X146486666Y-56092380D01*
X146867619Y-56092380D01*
X146962857Y-56140000D01*
X147010476Y-56187619D01*
X147058095Y-56282857D01*
X147058095Y-56425714D01*
X147010476Y-56520952D01*
X146962857Y-56568571D01*
X146867619Y-56616190D01*
X146486666Y-56616190D01*
X148010476Y-57092380D02*
X147439047Y-57092380D01*
X147724761Y-57092380D02*
X147724761Y-56092380D01*
X147629523Y-56235238D01*
X147534285Y-56330476D01*
X147439047Y-56378095D01*
X148629523Y-56092380D02*
X148724761Y-56092380D01*
X148820000Y-56140000D01*
X148867619Y-56187619D01*
X148915238Y-56282857D01*
X148962857Y-56473333D01*
X148962857Y-56711428D01*
X148915238Y-56901904D01*
X148867619Y-56997142D01*
X148820000Y-57044761D01*
X148724761Y-57092380D01*
X148629523Y-57092380D01*
X148534285Y-57044761D01*
X148486666Y-56997142D01*
X148439047Y-56901904D01*
X148391428Y-56711428D01*
X148391428Y-56473333D01*
X148439047Y-56282857D01*
X148486666Y-56187619D01*
X148534285Y-56140000D01*
X148629523Y-56092380D01*
X168132380Y-83358095D02*
X168132380Y-82786666D01*
X169132380Y-83072380D02*
X168132380Y-83072380D01*
X169132380Y-82453333D02*
X168132380Y-82453333D01*
X168132380Y-82072380D01*
X168180000Y-81977142D01*
X168227619Y-81929523D01*
X168322857Y-81881904D01*
X168465714Y-81881904D01*
X168560952Y-81929523D01*
X168608571Y-81977142D01*
X168656190Y-82072380D01*
X168656190Y-82453333D01*
X169132380Y-80929523D02*
X169132380Y-81500952D01*
X169132380Y-81215238D02*
X168132380Y-81215238D01*
X168275238Y-81310476D01*
X168370476Y-81405714D01*
X168418095Y-81500952D01*
X169132380Y-79977142D02*
X169132380Y-80548571D01*
X169132380Y-80262857D02*
X168132380Y-80262857D01*
X168275238Y-80358095D01*
X168370476Y-80453333D01*
X168418095Y-80548571D01*
X141771904Y-99907380D02*
X142343333Y-99907380D01*
X142057619Y-100907380D02*
X142057619Y-99907380D01*
X142676666Y-100907380D02*
X142676666Y-99907380D01*
X143057619Y-99907380D01*
X143152857Y-99955000D01*
X143200476Y-100002619D01*
X143248095Y-100097857D01*
X143248095Y-100240714D01*
X143200476Y-100335952D01*
X143152857Y-100383571D01*
X143057619Y-100431190D01*
X142676666Y-100431190D01*
X144200476Y-100907380D02*
X143629047Y-100907380D01*
X143914761Y-100907380D02*
X143914761Y-99907380D01*
X143819523Y-100050238D01*
X143724285Y-100145476D01*
X143629047Y-100193095D01*
X144581428Y-100002619D02*
X144629047Y-99955000D01*
X144724285Y-99907380D01*
X144962380Y-99907380D01*
X145057619Y-99955000D01*
X145105238Y-100002619D01*
X145152857Y-100097857D01*
X145152857Y-100193095D01*
X145105238Y-100335952D01*
X144533809Y-100907380D01*
X145152857Y-100907380D01*
X160821904Y-55457380D02*
X161393333Y-55457380D01*
X161107619Y-56457380D02*
X161107619Y-55457380D01*
X161726666Y-56457380D02*
X161726666Y-55457380D01*
X162107619Y-55457380D01*
X162202857Y-55505000D01*
X162250476Y-55552619D01*
X162298095Y-55647857D01*
X162298095Y-55790714D01*
X162250476Y-55885952D01*
X162202857Y-55933571D01*
X162107619Y-55981190D01*
X161726666Y-55981190D01*
X163250476Y-56457380D02*
X162679047Y-56457380D01*
X162964761Y-56457380D02*
X162964761Y-55457380D01*
X162869523Y-55600238D01*
X162774285Y-55695476D01*
X162679047Y-55743095D01*
X163583809Y-55457380D02*
X164202857Y-55457380D01*
X163869523Y-55838333D01*
X164012380Y-55838333D01*
X164107619Y-55885952D01*
X164155238Y-55933571D01*
X164202857Y-56028809D01*
X164202857Y-56266904D01*
X164155238Y-56362142D01*
X164107619Y-56409761D01*
X164012380Y-56457380D01*
X163726666Y-56457380D01*
X163631428Y-56409761D01*
X163583809Y-56362142D01*
X165266904Y-54822380D02*
X165838333Y-54822380D01*
X165552619Y-55822380D02*
X165552619Y-54822380D01*
X166171666Y-55822380D02*
X166171666Y-54822380D01*
X166552619Y-54822380D01*
X166647857Y-54870000D01*
X166695476Y-54917619D01*
X166743095Y-55012857D01*
X166743095Y-55155714D01*
X166695476Y-55250952D01*
X166647857Y-55298571D01*
X166552619Y-55346190D01*
X166171666Y-55346190D01*
X167695476Y-55822380D02*
X167124047Y-55822380D01*
X167409761Y-55822380D02*
X167409761Y-54822380D01*
X167314523Y-54965238D01*
X167219285Y-55060476D01*
X167124047Y-55108095D01*
X168552619Y-55155714D02*
X168552619Y-55822380D01*
X168314523Y-54774761D02*
X168076428Y-55489047D01*
X168695476Y-55489047D01*
X112217142Y-107527857D02*
X112264761Y-107575476D01*
X112312380Y-107718333D01*
X112312380Y-107813571D01*
X112264761Y-107956428D01*
X112169523Y-108051666D01*
X112074285Y-108099285D01*
X111883809Y-108146904D01*
X111740952Y-108146904D01*
X111550476Y-108099285D01*
X111455238Y-108051666D01*
X111360000Y-107956428D01*
X111312380Y-107813571D01*
X111312380Y-107718333D01*
X111360000Y-107575476D01*
X111407619Y-107527857D01*
X111407619Y-107146904D02*
X111360000Y-107099285D01*
X111312380Y-107004047D01*
X111312380Y-106765952D01*
X111360000Y-106670714D01*
X111407619Y-106623095D01*
X111502857Y-106575476D01*
X111598095Y-106575476D01*
X111740952Y-106623095D01*
X112312380Y-107194523D01*
X112312380Y-106575476D01*
X112312380Y-105623095D02*
X112312380Y-106194523D01*
X112312380Y-105908809D02*
X111312380Y-105908809D01*
X111455238Y-106004047D01*
X111550476Y-106099285D01*
X111598095Y-106194523D01*
X124717142Y-120782857D02*
X124764761Y-120830476D01*
X124812380Y-120973333D01*
X124812380Y-121068571D01*
X124764761Y-121211428D01*
X124669523Y-121306666D01*
X124574285Y-121354285D01*
X124383809Y-121401904D01*
X124240952Y-121401904D01*
X124050476Y-121354285D01*
X123955238Y-121306666D01*
X123860000Y-121211428D01*
X123812380Y-121068571D01*
X123812380Y-120973333D01*
X123860000Y-120830476D01*
X123907619Y-120782857D01*
X123907619Y-120401904D02*
X123860000Y-120354285D01*
X123812380Y-120259047D01*
X123812380Y-120020952D01*
X123860000Y-119925714D01*
X123907619Y-119878095D01*
X124002857Y-119830476D01*
X124098095Y-119830476D01*
X124240952Y-119878095D01*
X124812380Y-120449523D01*
X124812380Y-119830476D01*
X124240952Y-119259047D02*
X124193333Y-119354285D01*
X124145714Y-119401904D01*
X124050476Y-119449523D01*
X124002857Y-119449523D01*
X123907619Y-119401904D01*
X123860000Y-119354285D01*
X123812380Y-119259047D01*
X123812380Y-119068571D01*
X123860000Y-118973333D01*
X123907619Y-118925714D01*
X124002857Y-118878095D01*
X124050476Y-118878095D01*
X124145714Y-118925714D01*
X124193333Y-118973333D01*
X124240952Y-119068571D01*
X124240952Y-119259047D01*
X124288571Y-119354285D01*
X124336190Y-119401904D01*
X124431428Y-119449523D01*
X124621904Y-119449523D01*
X124717142Y-119401904D01*
X124764761Y-119354285D01*
X124812380Y-119259047D01*
X124812380Y-119068571D01*
X124764761Y-118973333D01*
X124717142Y-118925714D01*
X124621904Y-118878095D01*
X124431428Y-118878095D01*
X124336190Y-118925714D01*
X124288571Y-118973333D01*
X124240952Y-119068571D01*
X136247142Y-106852857D02*
X136294761Y-106900476D01*
X136342380Y-107043333D01*
X136342380Y-107138571D01*
X136294761Y-107281428D01*
X136199523Y-107376666D01*
X136104285Y-107424285D01*
X135913809Y-107471904D01*
X135770952Y-107471904D01*
X135580476Y-107424285D01*
X135485238Y-107376666D01*
X135390000Y-107281428D01*
X135342380Y-107138571D01*
X135342380Y-107043333D01*
X135390000Y-106900476D01*
X135437619Y-106852857D01*
X135437619Y-106471904D02*
X135390000Y-106424285D01*
X135342380Y-106329047D01*
X135342380Y-106090952D01*
X135390000Y-105995714D01*
X135437619Y-105948095D01*
X135532857Y-105900476D01*
X135628095Y-105900476D01*
X135770952Y-105948095D01*
X136342380Y-106519523D01*
X136342380Y-105900476D01*
X136342380Y-105424285D02*
X136342380Y-105233809D01*
X136294761Y-105138571D01*
X136247142Y-105090952D01*
X136104285Y-104995714D01*
X135913809Y-104948095D01*
X135532857Y-104948095D01*
X135437619Y-104995714D01*
X135390000Y-105043333D01*
X135342380Y-105138571D01*
X135342380Y-105329047D01*
X135390000Y-105424285D01*
X135437619Y-105471904D01*
X135532857Y-105519523D01*
X135770952Y-105519523D01*
X135866190Y-105471904D01*
X135913809Y-105424285D01*
X135961428Y-105329047D01*
X135961428Y-105138571D01*
X135913809Y-105043333D01*
X135866190Y-104995714D01*
X135770952Y-104948095D01*
X108418333Y-96407142D02*
X108370714Y-96454761D01*
X108227857Y-96502380D01*
X108132619Y-96502380D01*
X107989761Y-96454761D01*
X107894523Y-96359523D01*
X107846904Y-96264285D01*
X107799285Y-96073809D01*
X107799285Y-95930952D01*
X107846904Y-95740476D01*
X107894523Y-95645238D01*
X107989761Y-95550000D01*
X108132619Y-95502380D01*
X108227857Y-95502380D01*
X108370714Y-95550000D01*
X108418333Y-95597619D01*
X108751666Y-95502380D02*
X109418333Y-95502380D01*
X108989761Y-96502380D01*
X111902142Y-50956666D02*
X111949761Y-51004285D01*
X111997380Y-51147142D01*
X111997380Y-51242380D01*
X111949761Y-51385238D01*
X111854523Y-51480476D01*
X111759285Y-51528095D01*
X111568809Y-51575714D01*
X111425952Y-51575714D01*
X111235476Y-51528095D01*
X111140238Y-51480476D01*
X111045000Y-51385238D01*
X110997380Y-51242380D01*
X110997380Y-51147142D01*
X111045000Y-51004285D01*
X111092619Y-50956666D01*
X111997380Y-50004285D02*
X111997380Y-50575714D01*
X111997380Y-50290000D02*
X110997380Y-50290000D01*
X111140238Y-50385238D01*
X111235476Y-50480476D01*
X111283095Y-50575714D01*
X104282142Y-50956666D02*
X104329761Y-51004285D01*
X104377380Y-51147142D01*
X104377380Y-51242380D01*
X104329761Y-51385238D01*
X104234523Y-51480476D01*
X104139285Y-51528095D01*
X103948809Y-51575714D01*
X103805952Y-51575714D01*
X103615476Y-51528095D01*
X103520238Y-51480476D01*
X103425000Y-51385238D01*
X103377380Y-51242380D01*
X103377380Y-51147142D01*
X103425000Y-51004285D01*
X103472619Y-50956666D01*
X103377380Y-50623333D02*
X103377380Y-50004285D01*
X103758333Y-50337619D01*
X103758333Y-50194761D01*
X103805952Y-50099523D01*
X103853571Y-50051904D01*
X103948809Y-50004285D01*
X104186904Y-50004285D01*
X104282142Y-50051904D01*
X104329761Y-50099523D01*
X104377380Y-50194761D01*
X104377380Y-50480476D01*
X104329761Y-50575714D01*
X104282142Y-50623333D01*
X105767142Y-89866666D02*
X105814761Y-89914285D01*
X105862380Y-90057142D01*
X105862380Y-90152380D01*
X105814761Y-90295238D01*
X105719523Y-90390476D01*
X105624285Y-90438095D01*
X105433809Y-90485714D01*
X105290952Y-90485714D01*
X105100476Y-90438095D01*
X105005238Y-90390476D01*
X104910000Y-90295238D01*
X104862380Y-90152380D01*
X104862380Y-90057142D01*
X104910000Y-89914285D01*
X104957619Y-89866666D01*
X104862380Y-88961904D02*
X104862380Y-89438095D01*
X105338571Y-89485714D01*
X105290952Y-89438095D01*
X105243333Y-89342857D01*
X105243333Y-89104761D01*
X105290952Y-89009523D01*
X105338571Y-88961904D01*
X105433809Y-88914285D01*
X105671904Y-88914285D01*
X105767142Y-88961904D01*
X105814761Y-89009523D01*
X105862380Y-89104761D01*
X105862380Y-89342857D01*
X105814761Y-89438095D01*
X105767142Y-89485714D01*
X105767142Y-78436666D02*
X105814761Y-78484285D01*
X105862380Y-78627142D01*
X105862380Y-78722380D01*
X105814761Y-78865238D01*
X105719523Y-78960476D01*
X105624285Y-79008095D01*
X105433809Y-79055714D01*
X105290952Y-79055714D01*
X105100476Y-79008095D01*
X105005238Y-78960476D01*
X104910000Y-78865238D01*
X104862380Y-78722380D01*
X104862380Y-78627142D01*
X104910000Y-78484285D01*
X104957619Y-78436666D01*
X104862380Y-77579523D02*
X104862380Y-77770000D01*
X104910000Y-77865238D01*
X104957619Y-77912857D01*
X105100476Y-78008095D01*
X105290952Y-78055714D01*
X105671904Y-78055714D01*
X105767142Y-78008095D01*
X105814761Y-77960476D01*
X105862380Y-77865238D01*
X105862380Y-77674761D01*
X105814761Y-77579523D01*
X105767142Y-77531904D01*
X105671904Y-77484285D01*
X105433809Y-77484285D01*
X105338571Y-77531904D01*
X105290952Y-77579523D01*
X105243333Y-77674761D01*
X105243333Y-77865238D01*
X105290952Y-77960476D01*
X105338571Y-78008095D01*
X105433809Y-78055714D01*
X92217142Y-50956666D02*
X92264761Y-51004285D01*
X92312380Y-51147142D01*
X92312380Y-51242380D01*
X92264761Y-51385238D01*
X92169523Y-51480476D01*
X92074285Y-51528095D01*
X91883809Y-51575714D01*
X91740952Y-51575714D01*
X91550476Y-51528095D01*
X91455238Y-51480476D01*
X91360000Y-51385238D01*
X91312380Y-51242380D01*
X91312380Y-51147142D01*
X91360000Y-51004285D01*
X91407619Y-50956666D01*
X92312380Y-50480476D02*
X92312380Y-50290000D01*
X92264761Y-50194761D01*
X92217142Y-50147142D01*
X92074285Y-50051904D01*
X91883809Y-50004285D01*
X91502857Y-50004285D01*
X91407619Y-50051904D01*
X91360000Y-50099523D01*
X91312380Y-50194761D01*
X91312380Y-50385238D01*
X91360000Y-50480476D01*
X91407619Y-50528095D01*
X91502857Y-50575714D01*
X91740952Y-50575714D01*
X91836190Y-50528095D01*
X91883809Y-50480476D01*
X91931428Y-50385238D01*
X91931428Y-50194761D01*
X91883809Y-50099523D01*
X91836190Y-50051904D01*
X91740952Y-50004285D01*
X84597142Y-50797857D02*
X84644761Y-50845476D01*
X84692380Y-50988333D01*
X84692380Y-51083571D01*
X84644761Y-51226428D01*
X84549523Y-51321666D01*
X84454285Y-51369285D01*
X84263809Y-51416904D01*
X84120952Y-51416904D01*
X83930476Y-51369285D01*
X83835238Y-51321666D01*
X83740000Y-51226428D01*
X83692380Y-51083571D01*
X83692380Y-50988333D01*
X83740000Y-50845476D01*
X83787619Y-50797857D01*
X84692380Y-49845476D02*
X84692380Y-50416904D01*
X84692380Y-50131190D02*
X83692380Y-50131190D01*
X83835238Y-50226428D01*
X83930476Y-50321666D01*
X83978095Y-50416904D01*
X84692380Y-48893095D02*
X84692380Y-49464523D01*
X84692380Y-49178809D02*
X83692380Y-49178809D01*
X83835238Y-49274047D01*
X83930476Y-49369285D01*
X83978095Y-49464523D01*
X89257142Y-89072857D02*
X89304761Y-89120476D01*
X89352380Y-89263333D01*
X89352380Y-89358571D01*
X89304761Y-89501428D01*
X89209523Y-89596666D01*
X89114285Y-89644285D01*
X88923809Y-89691904D01*
X88780952Y-89691904D01*
X88590476Y-89644285D01*
X88495238Y-89596666D01*
X88400000Y-89501428D01*
X88352380Y-89358571D01*
X88352380Y-89263333D01*
X88400000Y-89120476D01*
X88447619Y-89072857D01*
X89352380Y-88120476D02*
X89352380Y-88691904D01*
X89352380Y-88406190D02*
X88352380Y-88406190D01*
X88495238Y-88501428D01*
X88590476Y-88596666D01*
X88638095Y-88691904D01*
X88352380Y-87787142D02*
X88352380Y-87168095D01*
X88733333Y-87501428D01*
X88733333Y-87358571D01*
X88780952Y-87263333D01*
X88828571Y-87215714D01*
X88923809Y-87168095D01*
X89161904Y-87168095D01*
X89257142Y-87215714D01*
X89304761Y-87263333D01*
X89352380Y-87358571D01*
X89352380Y-87644285D01*
X89304761Y-87739523D01*
X89257142Y-87787142D01*
X89257142Y-77642857D02*
X89304761Y-77690476D01*
X89352380Y-77833333D01*
X89352380Y-77928571D01*
X89304761Y-78071428D01*
X89209523Y-78166666D01*
X89114285Y-78214285D01*
X88923809Y-78261904D01*
X88780952Y-78261904D01*
X88590476Y-78214285D01*
X88495238Y-78166666D01*
X88400000Y-78071428D01*
X88352380Y-77928571D01*
X88352380Y-77833333D01*
X88400000Y-77690476D01*
X88447619Y-77642857D01*
X89352380Y-76690476D02*
X89352380Y-77261904D01*
X89352380Y-76976190D02*
X88352380Y-76976190D01*
X88495238Y-77071428D01*
X88590476Y-77166666D01*
X88638095Y-77261904D01*
X88685714Y-75833333D02*
X89352380Y-75833333D01*
X88304761Y-76071428D02*
X89019047Y-76309523D01*
X89019047Y-75690476D01*
X91752142Y-101752857D02*
X91799761Y-101800476D01*
X91847380Y-101943333D01*
X91847380Y-102038571D01*
X91799761Y-102181428D01*
X91704523Y-102276666D01*
X91609285Y-102324285D01*
X91418809Y-102371904D01*
X91275952Y-102371904D01*
X91085476Y-102324285D01*
X90990238Y-102276666D01*
X90895000Y-102181428D01*
X90847380Y-102038571D01*
X90847380Y-101943333D01*
X90895000Y-101800476D01*
X90942619Y-101752857D01*
X91847380Y-100800476D02*
X91847380Y-101371904D01*
X91847380Y-101086190D02*
X90847380Y-101086190D01*
X90990238Y-101181428D01*
X91085476Y-101276666D01*
X91133095Y-101371904D01*
X90847380Y-99895714D02*
X90847380Y-100371904D01*
X91323571Y-100419523D01*
X91275952Y-100371904D01*
X91228333Y-100276666D01*
X91228333Y-100038571D01*
X91275952Y-99943333D01*
X91323571Y-99895714D01*
X91418809Y-99848095D01*
X91656904Y-99848095D01*
X91752142Y-99895714D01*
X91799761Y-99943333D01*
X91847380Y-100038571D01*
X91847380Y-100276666D01*
X91799761Y-100371904D01*
X91752142Y-100419523D01*
X106037142Y-65547142D02*
X105989523Y-65594761D01*
X105846666Y-65642380D01*
X105751428Y-65642380D01*
X105608571Y-65594761D01*
X105513333Y-65499523D01*
X105465714Y-65404285D01*
X105418095Y-65213809D01*
X105418095Y-65070952D01*
X105465714Y-64880476D01*
X105513333Y-64785238D01*
X105608571Y-64690000D01*
X105751428Y-64642380D01*
X105846666Y-64642380D01*
X105989523Y-64690000D01*
X106037142Y-64737619D01*
X106989523Y-65642380D02*
X106418095Y-65642380D01*
X106703809Y-65642380D02*
X106703809Y-64642380D01*
X106608571Y-64785238D01*
X106513333Y-64880476D01*
X106418095Y-64928095D01*
X107322857Y-64642380D02*
X107989523Y-64642380D01*
X107560952Y-65642380D01*
X96512142Y-78882142D02*
X96464523Y-78929761D01*
X96321666Y-78977380D01*
X96226428Y-78977380D01*
X96083571Y-78929761D01*
X95988333Y-78834523D01*
X95940714Y-78739285D01*
X95893095Y-78548809D01*
X95893095Y-78405952D01*
X95940714Y-78215476D01*
X95988333Y-78120238D01*
X96083571Y-78025000D01*
X96226428Y-77977380D01*
X96321666Y-77977380D01*
X96464523Y-78025000D01*
X96512142Y-78072619D01*
X97464523Y-78977380D02*
X96893095Y-78977380D01*
X97178809Y-78977380D02*
X97178809Y-77977380D01*
X97083571Y-78120238D01*
X96988333Y-78215476D01*
X96893095Y-78263095D01*
X98035952Y-78405952D02*
X97940714Y-78358333D01*
X97893095Y-78310714D01*
X97845476Y-78215476D01*
X97845476Y-78167857D01*
X97893095Y-78072619D01*
X97940714Y-78025000D01*
X98035952Y-77977380D01*
X98226428Y-77977380D01*
X98321666Y-78025000D01*
X98369285Y-78072619D01*
X98416904Y-78167857D01*
X98416904Y-78215476D01*
X98369285Y-78310714D01*
X98321666Y-78358333D01*
X98226428Y-78405952D01*
X98035952Y-78405952D01*
X97940714Y-78453571D01*
X97893095Y-78501190D01*
X97845476Y-78596428D01*
X97845476Y-78786904D01*
X97893095Y-78882142D01*
X97940714Y-78929761D01*
X98035952Y-78977380D01*
X98226428Y-78977380D01*
X98321666Y-78929761D01*
X98369285Y-78882142D01*
X98416904Y-78786904D01*
X98416904Y-78596428D01*
X98369285Y-78501190D01*
X98321666Y-78453571D01*
X98226428Y-78405952D01*
X96512142Y-89677142D02*
X96464523Y-89724761D01*
X96321666Y-89772380D01*
X96226428Y-89772380D01*
X96083571Y-89724761D01*
X95988333Y-89629523D01*
X95940714Y-89534285D01*
X95893095Y-89343809D01*
X95893095Y-89200952D01*
X95940714Y-89010476D01*
X95988333Y-88915238D01*
X96083571Y-88820000D01*
X96226428Y-88772380D01*
X96321666Y-88772380D01*
X96464523Y-88820000D01*
X96512142Y-88867619D01*
X97464523Y-89772380D02*
X96893095Y-89772380D01*
X97178809Y-89772380D02*
X97178809Y-88772380D01*
X97083571Y-88915238D01*
X96988333Y-89010476D01*
X96893095Y-89058095D01*
X97940714Y-89772380D02*
X98131190Y-89772380D01*
X98226428Y-89724761D01*
X98274047Y-89677142D01*
X98369285Y-89534285D01*
X98416904Y-89343809D01*
X98416904Y-88962857D01*
X98369285Y-88867619D01*
X98321666Y-88820000D01*
X98226428Y-88772380D01*
X98035952Y-88772380D01*
X97940714Y-88820000D01*
X97893095Y-88867619D01*
X97845476Y-88962857D01*
X97845476Y-89200952D01*
X97893095Y-89296190D01*
X97940714Y-89343809D01*
X98035952Y-89391428D01*
X98226428Y-89391428D01*
X98321666Y-89343809D01*
X98369285Y-89296190D01*
X98416904Y-89200952D01*
X86987142Y-65547142D02*
X86939523Y-65594761D01*
X86796666Y-65642380D01*
X86701428Y-65642380D01*
X86558571Y-65594761D01*
X86463333Y-65499523D01*
X86415714Y-65404285D01*
X86368095Y-65213809D01*
X86368095Y-65070952D01*
X86415714Y-64880476D01*
X86463333Y-64785238D01*
X86558571Y-64690000D01*
X86701428Y-64642380D01*
X86796666Y-64642380D01*
X86939523Y-64690000D01*
X86987142Y-64737619D01*
X87368095Y-64737619D02*
X87415714Y-64690000D01*
X87510952Y-64642380D01*
X87749047Y-64642380D01*
X87844285Y-64690000D01*
X87891904Y-64737619D01*
X87939523Y-64832857D01*
X87939523Y-64928095D01*
X87891904Y-65070952D01*
X87320476Y-65642380D01*
X87939523Y-65642380D01*
X88558571Y-64642380D02*
X88653809Y-64642380D01*
X88749047Y-64690000D01*
X88796666Y-64737619D01*
X88844285Y-64832857D01*
X88891904Y-65023333D01*
X88891904Y-65261428D01*
X88844285Y-65451904D01*
X88796666Y-65547142D01*
X88749047Y-65594761D01*
X88653809Y-65642380D01*
X88558571Y-65642380D01*
X88463333Y-65594761D01*
X88415714Y-65547142D01*
X88368095Y-65451904D01*
X88320476Y-65261428D01*
X88320476Y-65023333D01*
X88368095Y-64832857D01*
X88415714Y-64737619D01*
X88463333Y-64690000D01*
X88558571Y-64642380D01*
X126087142Y-106852857D02*
X126134761Y-106900476D01*
X126182380Y-107043333D01*
X126182380Y-107138571D01*
X126134761Y-107281428D01*
X126039523Y-107376666D01*
X125944285Y-107424285D01*
X125753809Y-107471904D01*
X125610952Y-107471904D01*
X125420476Y-107424285D01*
X125325238Y-107376666D01*
X125230000Y-107281428D01*
X125182380Y-107138571D01*
X125182380Y-107043333D01*
X125230000Y-106900476D01*
X125277619Y-106852857D01*
X125277619Y-106471904D02*
X125230000Y-106424285D01*
X125182380Y-106329047D01*
X125182380Y-106090952D01*
X125230000Y-105995714D01*
X125277619Y-105948095D01*
X125372857Y-105900476D01*
X125468095Y-105900476D01*
X125610952Y-105948095D01*
X126182380Y-106519523D01*
X126182380Y-105900476D01*
X125277619Y-105519523D02*
X125230000Y-105471904D01*
X125182380Y-105376666D01*
X125182380Y-105138571D01*
X125230000Y-105043333D01*
X125277619Y-104995714D01*
X125372857Y-104948095D01*
X125468095Y-104948095D01*
X125610952Y-104995714D01*
X126182380Y-105567142D01*
X126182380Y-104948095D01*
X119737142Y-74467857D02*
X119784761Y-74515476D01*
X119832380Y-74658333D01*
X119832380Y-74753571D01*
X119784761Y-74896428D01*
X119689523Y-74991666D01*
X119594285Y-75039285D01*
X119403809Y-75086904D01*
X119260952Y-75086904D01*
X119070476Y-75039285D01*
X118975238Y-74991666D01*
X118880000Y-74896428D01*
X118832380Y-74753571D01*
X118832380Y-74658333D01*
X118880000Y-74515476D01*
X118927619Y-74467857D01*
X118927619Y-74086904D02*
X118880000Y-74039285D01*
X118832380Y-73944047D01*
X118832380Y-73705952D01*
X118880000Y-73610714D01*
X118927619Y-73563095D01*
X119022857Y-73515476D01*
X119118095Y-73515476D01*
X119260952Y-73563095D01*
X119832380Y-74134523D01*
X119832380Y-73515476D01*
X118832380Y-73182142D02*
X118832380Y-72563095D01*
X119213333Y-72896428D01*
X119213333Y-72753571D01*
X119260952Y-72658333D01*
X119308571Y-72610714D01*
X119403809Y-72563095D01*
X119641904Y-72563095D01*
X119737142Y-72610714D01*
X119784761Y-72658333D01*
X119832380Y-72753571D01*
X119832380Y-73039285D01*
X119784761Y-73134523D01*
X119737142Y-73182142D01*
X134977142Y-89072857D02*
X135024761Y-89120476D01*
X135072380Y-89263333D01*
X135072380Y-89358571D01*
X135024761Y-89501428D01*
X134929523Y-89596666D01*
X134834285Y-89644285D01*
X134643809Y-89691904D01*
X134500952Y-89691904D01*
X134310476Y-89644285D01*
X134215238Y-89596666D01*
X134120000Y-89501428D01*
X134072380Y-89358571D01*
X134072380Y-89263333D01*
X134120000Y-89120476D01*
X134167619Y-89072857D01*
X134167619Y-88691904D02*
X134120000Y-88644285D01*
X134072380Y-88549047D01*
X134072380Y-88310952D01*
X134120000Y-88215714D01*
X134167619Y-88168095D01*
X134262857Y-88120476D01*
X134358095Y-88120476D01*
X134500952Y-88168095D01*
X135072380Y-88739523D01*
X135072380Y-88120476D01*
X134405714Y-87263333D02*
X135072380Y-87263333D01*
X134024761Y-87501428D02*
X134739047Y-87739523D01*
X134739047Y-87120476D01*
X135930887Y-73046452D02*
X135978506Y-73094071D01*
X136026125Y-73236928D01*
X136026125Y-73332166D01*
X135978506Y-73475023D01*
X135883268Y-73570261D01*
X135788030Y-73617880D01*
X135597554Y-73665499D01*
X135454697Y-73665499D01*
X135264221Y-73617880D01*
X135168983Y-73570261D01*
X135073745Y-73475023D01*
X135026125Y-73332166D01*
X135026125Y-73236928D01*
X135073745Y-73094071D01*
X135121364Y-73046452D01*
X135121364Y-72665499D02*
X135073745Y-72617880D01*
X135026125Y-72522642D01*
X135026125Y-72284547D01*
X135073745Y-72189309D01*
X135121364Y-72141690D01*
X135216602Y-72094071D01*
X135311840Y-72094071D01*
X135454697Y-72141690D01*
X136026125Y-72713118D01*
X136026125Y-72094071D01*
X135026125Y-71189309D02*
X135026125Y-71665499D01*
X135502316Y-71713118D01*
X135454697Y-71665499D01*
X135407078Y-71570261D01*
X135407078Y-71332166D01*
X135454697Y-71236928D01*
X135502316Y-71189309D01*
X135597554Y-71141690D01*
X135835649Y-71141690D01*
X135930887Y-71189309D01*
X135978506Y-71236928D01*
X136026125Y-71332166D01*
X136026125Y-71570261D01*
X135978506Y-71665499D01*
X135930887Y-71713118D01*
X147677142Y-82722857D02*
X147724761Y-82770476D01*
X147772380Y-82913333D01*
X147772380Y-83008571D01*
X147724761Y-83151428D01*
X147629523Y-83246666D01*
X147534285Y-83294285D01*
X147343809Y-83341904D01*
X147200952Y-83341904D01*
X147010476Y-83294285D01*
X146915238Y-83246666D01*
X146820000Y-83151428D01*
X146772380Y-83008571D01*
X146772380Y-82913333D01*
X146820000Y-82770476D01*
X146867619Y-82722857D01*
X146772380Y-82389523D02*
X146772380Y-81770476D01*
X147153333Y-82103809D01*
X147153333Y-81960952D01*
X147200952Y-81865714D01*
X147248571Y-81818095D01*
X147343809Y-81770476D01*
X147581904Y-81770476D01*
X147677142Y-81818095D01*
X147724761Y-81865714D01*
X147772380Y-81960952D01*
X147772380Y-82246666D01*
X147724761Y-82341904D01*
X147677142Y-82389523D01*
X146772380Y-81151428D02*
X146772380Y-81056190D01*
X146820000Y-80960952D01*
X146867619Y-80913333D01*
X146962857Y-80865714D01*
X147153333Y-80818095D01*
X147391428Y-80818095D01*
X147581904Y-80865714D01*
X147677142Y-80913333D01*
X147724761Y-80960952D01*
X147772380Y-81056190D01*
X147772380Y-81151428D01*
X147724761Y-81246666D01*
X147677142Y-81294285D01*
X147581904Y-81341904D01*
X147391428Y-81389523D01*
X147153333Y-81389523D01*
X146962857Y-81341904D01*
X146867619Y-81294285D01*
X146820000Y-81246666D01*
X146772380Y-81151428D01*
X161647142Y-95422857D02*
X161694761Y-95470476D01*
X161742380Y-95613333D01*
X161742380Y-95708571D01*
X161694761Y-95851428D01*
X161599523Y-95946666D01*
X161504285Y-95994285D01*
X161313809Y-96041904D01*
X161170952Y-96041904D01*
X160980476Y-95994285D01*
X160885238Y-95946666D01*
X160790000Y-95851428D01*
X160742380Y-95708571D01*
X160742380Y-95613333D01*
X160790000Y-95470476D01*
X160837619Y-95422857D01*
X160742380Y-95089523D02*
X160742380Y-94470476D01*
X161123333Y-94803809D01*
X161123333Y-94660952D01*
X161170952Y-94565714D01*
X161218571Y-94518095D01*
X161313809Y-94470476D01*
X161551904Y-94470476D01*
X161647142Y-94518095D01*
X161694761Y-94565714D01*
X161742380Y-94660952D01*
X161742380Y-94946666D01*
X161694761Y-95041904D01*
X161647142Y-95089523D01*
X161742380Y-93518095D02*
X161742380Y-94089523D01*
X161742380Y-93803809D02*
X160742380Y-93803809D01*
X160885238Y-93899047D01*
X160980476Y-93994285D01*
X161028095Y-94089523D01*
X162282142Y-91612857D02*
X162329761Y-91660476D01*
X162377380Y-91803333D01*
X162377380Y-91898571D01*
X162329761Y-92041428D01*
X162234523Y-92136666D01*
X162139285Y-92184285D01*
X161948809Y-92231904D01*
X161805952Y-92231904D01*
X161615476Y-92184285D01*
X161520238Y-92136666D01*
X161425000Y-92041428D01*
X161377380Y-91898571D01*
X161377380Y-91803333D01*
X161425000Y-91660476D01*
X161472619Y-91612857D01*
X161377380Y-91279523D02*
X161377380Y-90660476D01*
X161758333Y-90993809D01*
X161758333Y-90850952D01*
X161805952Y-90755714D01*
X161853571Y-90708095D01*
X161948809Y-90660476D01*
X162186904Y-90660476D01*
X162282142Y-90708095D01*
X162329761Y-90755714D01*
X162377380Y-90850952D01*
X162377380Y-91136666D01*
X162329761Y-91231904D01*
X162282142Y-91279523D01*
X161472619Y-90279523D02*
X161425000Y-90231904D01*
X161377380Y-90136666D01*
X161377380Y-89898571D01*
X161425000Y-89803333D01*
X161472619Y-89755714D01*
X161567857Y-89708095D01*
X161663095Y-89708095D01*
X161805952Y-89755714D01*
X162377380Y-90327142D01*
X162377380Y-89708095D01*
X123182142Y-81167142D02*
X123134523Y-81214761D01*
X122991666Y-81262380D01*
X122896428Y-81262380D01*
X122753571Y-81214761D01*
X122658333Y-81119523D01*
X122610714Y-81024285D01*
X122563095Y-80833809D01*
X122563095Y-80690952D01*
X122610714Y-80500476D01*
X122658333Y-80405238D01*
X122753571Y-80310000D01*
X122896428Y-80262380D01*
X122991666Y-80262380D01*
X123134523Y-80310000D01*
X123182142Y-80357619D01*
X123515476Y-80262380D02*
X124134523Y-80262380D01*
X123801190Y-80643333D01*
X123944047Y-80643333D01*
X124039285Y-80690952D01*
X124086904Y-80738571D01*
X124134523Y-80833809D01*
X124134523Y-81071904D01*
X124086904Y-81167142D01*
X124039285Y-81214761D01*
X123944047Y-81262380D01*
X123658333Y-81262380D01*
X123563095Y-81214761D01*
X123515476Y-81167142D01*
X125039285Y-80262380D02*
X124563095Y-80262380D01*
X124515476Y-80738571D01*
X124563095Y-80690952D01*
X124658333Y-80643333D01*
X124896428Y-80643333D01*
X124991666Y-80690952D01*
X125039285Y-80738571D01*
X125086904Y-80833809D01*
X125086904Y-81071904D01*
X125039285Y-81167142D01*
X124991666Y-81214761D01*
X124896428Y-81262380D01*
X124658333Y-81262380D01*
X124563095Y-81214761D01*
X124515476Y-81167142D01*
X126992142Y-69737142D02*
X126944523Y-69784761D01*
X126801666Y-69832380D01*
X126706428Y-69832380D01*
X126563571Y-69784761D01*
X126468333Y-69689523D01*
X126420714Y-69594285D01*
X126373095Y-69403809D01*
X126373095Y-69260952D01*
X126420714Y-69070476D01*
X126468333Y-68975238D01*
X126563571Y-68880000D01*
X126706428Y-68832380D01*
X126801666Y-68832380D01*
X126944523Y-68880000D01*
X126992142Y-68927619D01*
X127325476Y-68832380D02*
X127944523Y-68832380D01*
X127611190Y-69213333D01*
X127754047Y-69213333D01*
X127849285Y-69260952D01*
X127896904Y-69308571D01*
X127944523Y-69403809D01*
X127944523Y-69641904D01*
X127896904Y-69737142D01*
X127849285Y-69784761D01*
X127754047Y-69832380D01*
X127468333Y-69832380D01*
X127373095Y-69784761D01*
X127325476Y-69737142D01*
X128801666Y-68832380D02*
X128611190Y-68832380D01*
X128515952Y-68880000D01*
X128468333Y-68927619D01*
X128373095Y-69070476D01*
X128325476Y-69260952D01*
X128325476Y-69641904D01*
X128373095Y-69737142D01*
X128420714Y-69784761D01*
X128515952Y-69832380D01*
X128706428Y-69832380D01*
X128801666Y-69784761D01*
X128849285Y-69737142D01*
X128896904Y-69641904D01*
X128896904Y-69403809D01*
X128849285Y-69308571D01*
X128801666Y-69260952D01*
X128706428Y-69213333D01*
X128515952Y-69213333D01*
X128420714Y-69260952D01*
X128373095Y-69308571D01*
X128325476Y-69403809D01*
X149217142Y-93867142D02*
X149169523Y-93914761D01*
X149026666Y-93962380D01*
X148931428Y-93962380D01*
X148788571Y-93914761D01*
X148693333Y-93819523D01*
X148645714Y-93724285D01*
X148598095Y-93533809D01*
X148598095Y-93390952D01*
X148645714Y-93200476D01*
X148693333Y-93105238D01*
X148788571Y-93010000D01*
X148931428Y-92962380D01*
X149026666Y-92962380D01*
X149169523Y-93010000D01*
X149217142Y-93057619D01*
X149550476Y-92962380D02*
X150169523Y-92962380D01*
X149836190Y-93343333D01*
X149979047Y-93343333D01*
X150074285Y-93390952D01*
X150121904Y-93438571D01*
X150169523Y-93533809D01*
X150169523Y-93771904D01*
X150121904Y-93867142D01*
X150074285Y-93914761D01*
X149979047Y-93962380D01*
X149693333Y-93962380D01*
X149598095Y-93914761D01*
X149550476Y-93867142D01*
X150502857Y-92962380D02*
X151169523Y-92962380D01*
X150740952Y-93962380D01*
X149217142Y-91327142D02*
X149169523Y-91374761D01*
X149026666Y-91422380D01*
X148931428Y-91422380D01*
X148788571Y-91374761D01*
X148693333Y-91279523D01*
X148645714Y-91184285D01*
X148598095Y-90993809D01*
X148598095Y-90850952D01*
X148645714Y-90660476D01*
X148693333Y-90565238D01*
X148788571Y-90470000D01*
X148931428Y-90422380D01*
X149026666Y-90422380D01*
X149169523Y-90470000D01*
X149217142Y-90517619D01*
X149550476Y-90422380D02*
X150169523Y-90422380D01*
X149836190Y-90803333D01*
X149979047Y-90803333D01*
X150074285Y-90850952D01*
X150121904Y-90898571D01*
X150169523Y-90993809D01*
X150169523Y-91231904D01*
X150121904Y-91327142D01*
X150074285Y-91374761D01*
X149979047Y-91422380D01*
X149693333Y-91422380D01*
X149598095Y-91374761D01*
X149550476Y-91327142D01*
X150740952Y-90850952D02*
X150645714Y-90803333D01*
X150598095Y-90755714D01*
X150550476Y-90660476D01*
X150550476Y-90612857D01*
X150598095Y-90517619D01*
X150645714Y-90470000D01*
X150740952Y-90422380D01*
X150931428Y-90422380D01*
X151026666Y-90470000D01*
X151074285Y-90517619D01*
X151121904Y-90612857D01*
X151121904Y-90660476D01*
X151074285Y-90755714D01*
X151026666Y-90803333D01*
X150931428Y-90850952D01*
X150740952Y-90850952D01*
X150645714Y-90898571D01*
X150598095Y-90946190D01*
X150550476Y-91041428D01*
X150550476Y-91231904D01*
X150598095Y-91327142D01*
X150645714Y-91374761D01*
X150740952Y-91422380D01*
X150931428Y-91422380D01*
X151026666Y-91374761D01*
X151074285Y-91327142D01*
X151121904Y-91231904D01*
X151121904Y-91041428D01*
X151074285Y-90946190D01*
X151026666Y-90898571D01*
X150931428Y-90850952D01*
X113980952Y-40157142D02*
X113933333Y-40204761D01*
X113790476Y-40252380D01*
X113695238Y-40252380D01*
X113552380Y-40204761D01*
X113457142Y-40109523D01*
X113409523Y-40014285D01*
X113361904Y-39823809D01*
X113361904Y-39680952D01*
X113409523Y-39490476D01*
X113457142Y-39395238D01*
X113552380Y-39300000D01*
X113695238Y-39252380D01*
X113790476Y-39252380D01*
X113933333Y-39300000D01*
X113980952Y-39347619D01*
X114933333Y-40252380D02*
X114361904Y-40252380D01*
X114647619Y-40252380D02*
X114647619Y-39252380D01*
X114552380Y-39395238D01*
X114457142Y-39490476D01*
X114361904Y-39538095D01*
X115552380Y-39252380D02*
X115647619Y-39252380D01*
X115742857Y-39300000D01*
X115790476Y-39347619D01*
X115838095Y-39442857D01*
X115885714Y-39633333D01*
X115885714Y-39871428D01*
X115838095Y-40061904D01*
X115790476Y-40157142D01*
X115742857Y-40204761D01*
X115647619Y-40252380D01*
X115552380Y-40252380D01*
X115457142Y-40204761D01*
X115409523Y-40157142D01*
X115361904Y-40061904D01*
X115314285Y-39871428D01*
X115314285Y-39633333D01*
X115361904Y-39442857D01*
X115409523Y-39347619D01*
X115457142Y-39300000D01*
X115552380Y-39252380D01*
X116504761Y-39252380D02*
X116600000Y-39252380D01*
X116695238Y-39300000D01*
X116742857Y-39347619D01*
X116790476Y-39442857D01*
X116838095Y-39633333D01*
X116838095Y-39871428D01*
X116790476Y-40061904D01*
X116742857Y-40157142D01*
X116695238Y-40204761D01*
X116600000Y-40252380D01*
X116504761Y-40252380D01*
X116409523Y-40204761D01*
X116361904Y-40157142D01*
X116314285Y-40061904D01*
X116266666Y-39871428D01*
X116266666Y-39633333D01*
X116314285Y-39442857D01*
X116361904Y-39347619D01*
X116409523Y-39300000D01*
X116504761Y-39252380D01*
X123080952Y-49157142D02*
X123033333Y-49204761D01*
X122890476Y-49252380D01*
X122795238Y-49252380D01*
X122652380Y-49204761D01*
X122557142Y-49109523D01*
X122509523Y-49014285D01*
X122461904Y-48823809D01*
X122461904Y-48680952D01*
X122509523Y-48490476D01*
X122557142Y-48395238D01*
X122652380Y-48300000D01*
X122795238Y-48252380D01*
X122890476Y-48252380D01*
X123033333Y-48300000D01*
X123080952Y-48347619D01*
X124033333Y-49252380D02*
X123461904Y-49252380D01*
X123747619Y-49252380D02*
X123747619Y-48252380D01*
X123652380Y-48395238D01*
X123557142Y-48490476D01*
X123461904Y-48538095D01*
X124652380Y-48252380D02*
X124747619Y-48252380D01*
X124842857Y-48300000D01*
X124890476Y-48347619D01*
X124938095Y-48442857D01*
X124985714Y-48633333D01*
X124985714Y-48871428D01*
X124938095Y-49061904D01*
X124890476Y-49157142D01*
X124842857Y-49204761D01*
X124747619Y-49252380D01*
X124652380Y-49252380D01*
X124557142Y-49204761D01*
X124509523Y-49157142D01*
X124461904Y-49061904D01*
X124414285Y-48871428D01*
X124414285Y-48633333D01*
X124461904Y-48442857D01*
X124509523Y-48347619D01*
X124557142Y-48300000D01*
X124652380Y-48252380D01*
X125938095Y-49252380D02*
X125366666Y-49252380D01*
X125652380Y-49252380D02*
X125652380Y-48252380D01*
X125557142Y-48395238D01*
X125461904Y-48490476D01*
X125366666Y-48538095D01*
X113902380Y-50956666D02*
X113426190Y-51290000D01*
X113902380Y-51528095D02*
X112902380Y-51528095D01*
X112902380Y-51147142D01*
X112950000Y-51051904D01*
X112997619Y-51004285D01*
X113092857Y-50956666D01*
X113235714Y-50956666D01*
X113330952Y-51004285D01*
X113378571Y-51051904D01*
X113426190Y-51147142D01*
X113426190Y-51528095D01*
X113902380Y-50004285D02*
X113902380Y-50575714D01*
X113902380Y-50290000D02*
X112902380Y-50290000D01*
X113045238Y-50385238D01*
X113140476Y-50480476D01*
X113188095Y-50575714D01*
X110092380Y-50956666D02*
X109616190Y-51290000D01*
X110092380Y-51528095D02*
X109092380Y-51528095D01*
X109092380Y-51147142D01*
X109140000Y-51051904D01*
X109187619Y-51004285D01*
X109282857Y-50956666D01*
X109425714Y-50956666D01*
X109520952Y-51004285D01*
X109568571Y-51051904D01*
X109616190Y-51147142D01*
X109616190Y-51528095D01*
X109187619Y-50575714D02*
X109140000Y-50528095D01*
X109092380Y-50432857D01*
X109092380Y-50194761D01*
X109140000Y-50099523D01*
X109187619Y-50051904D01*
X109282857Y-50004285D01*
X109378095Y-50004285D01*
X109520952Y-50051904D01*
X110092380Y-50623333D01*
X110092380Y-50004285D01*
X108187380Y-50956666D02*
X107711190Y-51290000D01*
X108187380Y-51528095D02*
X107187380Y-51528095D01*
X107187380Y-51147142D01*
X107235000Y-51051904D01*
X107282619Y-51004285D01*
X107377857Y-50956666D01*
X107520714Y-50956666D01*
X107615952Y-51004285D01*
X107663571Y-51051904D01*
X107711190Y-51147142D01*
X107711190Y-51528095D01*
X107187380Y-50623333D02*
X107187380Y-50004285D01*
X107568333Y-50337619D01*
X107568333Y-50194761D01*
X107615952Y-50099523D01*
X107663571Y-50051904D01*
X107758809Y-50004285D01*
X107996904Y-50004285D01*
X108092142Y-50051904D01*
X108139761Y-50099523D01*
X108187380Y-50194761D01*
X108187380Y-50480476D01*
X108139761Y-50575714D01*
X108092142Y-50623333D01*
X106282380Y-50956666D02*
X105806190Y-51290000D01*
X106282380Y-51528095D02*
X105282380Y-51528095D01*
X105282380Y-51147142D01*
X105330000Y-51051904D01*
X105377619Y-51004285D01*
X105472857Y-50956666D01*
X105615714Y-50956666D01*
X105710952Y-51004285D01*
X105758571Y-51051904D01*
X105806190Y-51147142D01*
X105806190Y-51528095D01*
X105615714Y-50099523D02*
X106282380Y-50099523D01*
X105234761Y-50337619D02*
X105949047Y-50575714D01*
X105949047Y-49956666D01*
X102472380Y-50956666D02*
X101996190Y-51290000D01*
X102472380Y-51528095D02*
X101472380Y-51528095D01*
X101472380Y-51147142D01*
X101520000Y-51051904D01*
X101567619Y-51004285D01*
X101662857Y-50956666D01*
X101805714Y-50956666D01*
X101900952Y-51004285D01*
X101948571Y-51051904D01*
X101996190Y-51147142D01*
X101996190Y-51528095D01*
X101472380Y-50051904D02*
X101472380Y-50528095D01*
X101948571Y-50575714D01*
X101900952Y-50528095D01*
X101853333Y-50432857D01*
X101853333Y-50194761D01*
X101900952Y-50099523D01*
X101948571Y-50051904D01*
X102043809Y-50004285D01*
X102281904Y-50004285D01*
X102377142Y-50051904D01*
X102424761Y-50099523D01*
X102472380Y-50194761D01*
X102472380Y-50432857D01*
X102424761Y-50528095D01*
X102377142Y-50575714D01*
X100567380Y-50956666D02*
X100091190Y-51290000D01*
X100567380Y-51528095D02*
X99567380Y-51528095D01*
X99567380Y-51147142D01*
X99615000Y-51051904D01*
X99662619Y-51004285D01*
X99757857Y-50956666D01*
X99900714Y-50956666D01*
X99995952Y-51004285D01*
X100043571Y-51051904D01*
X100091190Y-51147142D01*
X100091190Y-51528095D01*
X99567380Y-50099523D02*
X99567380Y-50290000D01*
X99615000Y-50385238D01*
X99662619Y-50432857D01*
X99805476Y-50528095D01*
X99995952Y-50575714D01*
X100376904Y-50575714D01*
X100472142Y-50528095D01*
X100519761Y-50480476D01*
X100567380Y-50385238D01*
X100567380Y-50194761D01*
X100519761Y-50099523D01*
X100472142Y-50051904D01*
X100376904Y-50004285D01*
X100138809Y-50004285D01*
X100043571Y-50051904D01*
X99995952Y-50099523D01*
X99948333Y-50194761D01*
X99948333Y-50385238D01*
X99995952Y-50480476D01*
X100043571Y-50528095D01*
X100138809Y-50575714D01*
X112212380Y-70816666D02*
X111736190Y-71150000D01*
X112212380Y-71388095D02*
X111212380Y-71388095D01*
X111212380Y-71007142D01*
X111260000Y-70911904D01*
X111307619Y-70864285D01*
X111402857Y-70816666D01*
X111545714Y-70816666D01*
X111640952Y-70864285D01*
X111688571Y-70911904D01*
X111736190Y-71007142D01*
X111736190Y-71388095D01*
X111212380Y-70483333D02*
X111212380Y-69816666D01*
X112212380Y-70245238D01*
X107767380Y-89866666D02*
X107291190Y-90200000D01*
X107767380Y-90438095D02*
X106767380Y-90438095D01*
X106767380Y-90057142D01*
X106815000Y-89961904D01*
X106862619Y-89914285D01*
X106957857Y-89866666D01*
X107100714Y-89866666D01*
X107195952Y-89914285D01*
X107243571Y-89961904D01*
X107291190Y-90057142D01*
X107291190Y-90438095D01*
X107195952Y-89295238D02*
X107148333Y-89390476D01*
X107100714Y-89438095D01*
X107005476Y-89485714D01*
X106957857Y-89485714D01*
X106862619Y-89438095D01*
X106815000Y-89390476D01*
X106767380Y-89295238D01*
X106767380Y-89104761D01*
X106815000Y-89009523D01*
X106862619Y-88961904D01*
X106957857Y-88914285D01*
X107005476Y-88914285D01*
X107100714Y-88961904D01*
X107148333Y-89009523D01*
X107195952Y-89104761D01*
X107195952Y-89295238D01*
X107243571Y-89390476D01*
X107291190Y-89438095D01*
X107386428Y-89485714D01*
X107576904Y-89485714D01*
X107672142Y-89438095D01*
X107719761Y-89390476D01*
X107767380Y-89295238D01*
X107767380Y-89104761D01*
X107719761Y-89009523D01*
X107672142Y-88961904D01*
X107576904Y-88914285D01*
X107386428Y-88914285D01*
X107291190Y-88961904D01*
X107243571Y-89009523D01*
X107195952Y-89104761D01*
X103322380Y-90501666D02*
X102846190Y-90835000D01*
X103322380Y-91073095D02*
X102322380Y-91073095D01*
X102322380Y-90692142D01*
X102370000Y-90596904D01*
X102417619Y-90549285D01*
X102512857Y-90501666D01*
X102655714Y-90501666D01*
X102750952Y-90549285D01*
X102798571Y-90596904D01*
X102846190Y-90692142D01*
X102846190Y-91073095D01*
X103322380Y-90025476D02*
X103322380Y-89835000D01*
X103274761Y-89739761D01*
X103227142Y-89692142D01*
X103084285Y-89596904D01*
X102893809Y-89549285D01*
X102512857Y-89549285D01*
X102417619Y-89596904D01*
X102370000Y-89644523D01*
X102322380Y-89739761D01*
X102322380Y-89930238D01*
X102370000Y-90025476D01*
X102417619Y-90073095D01*
X102512857Y-90120714D01*
X102750952Y-90120714D01*
X102846190Y-90073095D01*
X102893809Y-90025476D01*
X102941428Y-89930238D01*
X102941428Y-89739761D01*
X102893809Y-89644523D01*
X102846190Y-89596904D01*
X102750952Y-89549285D01*
X100622380Y-72562857D02*
X100146190Y-72896190D01*
X100622380Y-73134285D02*
X99622380Y-73134285D01*
X99622380Y-72753333D01*
X99670000Y-72658095D01*
X99717619Y-72610476D01*
X99812857Y-72562857D01*
X99955714Y-72562857D01*
X100050952Y-72610476D01*
X100098571Y-72658095D01*
X100146190Y-72753333D01*
X100146190Y-73134285D01*
X100622380Y-71610476D02*
X100622380Y-72181904D01*
X100622380Y-71896190D02*
X99622380Y-71896190D01*
X99765238Y-71991428D01*
X99860476Y-72086666D01*
X99908095Y-72181904D01*
X99622380Y-70991428D02*
X99622380Y-70896190D01*
X99670000Y-70800952D01*
X99717619Y-70753333D01*
X99812857Y-70705714D01*
X100003333Y-70658095D01*
X100241428Y-70658095D01*
X100431904Y-70705714D01*
X100527142Y-70753333D01*
X100574761Y-70800952D01*
X100622380Y-70896190D01*
X100622380Y-70991428D01*
X100574761Y-71086666D01*
X100527142Y-71134285D01*
X100431904Y-71181904D01*
X100241428Y-71229523D01*
X100003333Y-71229523D01*
X99812857Y-71181904D01*
X99717619Y-71134285D01*
X99670000Y-71086666D01*
X99622380Y-70991428D01*
X107767380Y-78277857D02*
X107291190Y-78611190D01*
X107767380Y-78849285D02*
X106767380Y-78849285D01*
X106767380Y-78468333D01*
X106815000Y-78373095D01*
X106862619Y-78325476D01*
X106957857Y-78277857D01*
X107100714Y-78277857D01*
X107195952Y-78325476D01*
X107243571Y-78373095D01*
X107291190Y-78468333D01*
X107291190Y-78849285D01*
X107767380Y-77325476D02*
X107767380Y-77896904D01*
X107767380Y-77611190D02*
X106767380Y-77611190D01*
X106910238Y-77706428D01*
X107005476Y-77801666D01*
X107053095Y-77896904D01*
X107767380Y-76373095D02*
X107767380Y-76944523D01*
X107767380Y-76658809D02*
X106767380Y-76658809D01*
X106910238Y-76754047D01*
X107005476Y-76849285D01*
X107053095Y-76944523D01*
X103322380Y-77642857D02*
X102846190Y-77976190D01*
X103322380Y-78214285D02*
X102322380Y-78214285D01*
X102322380Y-77833333D01*
X102370000Y-77738095D01*
X102417619Y-77690476D01*
X102512857Y-77642857D01*
X102655714Y-77642857D01*
X102750952Y-77690476D01*
X102798571Y-77738095D01*
X102846190Y-77833333D01*
X102846190Y-78214285D01*
X103322380Y-76690476D02*
X103322380Y-77261904D01*
X103322380Y-76976190D02*
X102322380Y-76976190D01*
X102465238Y-77071428D01*
X102560476Y-77166666D01*
X102608095Y-77261904D01*
X102417619Y-76309523D02*
X102370000Y-76261904D01*
X102322380Y-76166666D01*
X102322380Y-75928571D01*
X102370000Y-75833333D01*
X102417619Y-75785714D01*
X102512857Y-75738095D01*
X102608095Y-75738095D01*
X102750952Y-75785714D01*
X103322380Y-76357142D01*
X103322380Y-75738095D01*
X94217380Y-50797857D02*
X93741190Y-51131190D01*
X94217380Y-51369285D02*
X93217380Y-51369285D01*
X93217380Y-50988333D01*
X93265000Y-50893095D01*
X93312619Y-50845476D01*
X93407857Y-50797857D01*
X93550714Y-50797857D01*
X93645952Y-50845476D01*
X93693571Y-50893095D01*
X93741190Y-50988333D01*
X93741190Y-51369285D01*
X94217380Y-49845476D02*
X94217380Y-50416904D01*
X94217380Y-50131190D02*
X93217380Y-50131190D01*
X93360238Y-50226428D01*
X93455476Y-50321666D01*
X93503095Y-50416904D01*
X93217380Y-49512142D02*
X93217380Y-48893095D01*
X93598333Y-49226428D01*
X93598333Y-49083571D01*
X93645952Y-48988333D01*
X93693571Y-48940714D01*
X93788809Y-48893095D01*
X94026904Y-48893095D01*
X94122142Y-48940714D01*
X94169761Y-48988333D01*
X94217380Y-49083571D01*
X94217380Y-49369285D01*
X94169761Y-49464523D01*
X94122142Y-49512142D01*
X90407380Y-50797857D02*
X89931190Y-51131190D01*
X90407380Y-51369285D02*
X89407380Y-51369285D01*
X89407380Y-50988333D01*
X89455000Y-50893095D01*
X89502619Y-50845476D01*
X89597857Y-50797857D01*
X89740714Y-50797857D01*
X89835952Y-50845476D01*
X89883571Y-50893095D01*
X89931190Y-50988333D01*
X89931190Y-51369285D01*
X90407380Y-49845476D02*
X90407380Y-50416904D01*
X90407380Y-50131190D02*
X89407380Y-50131190D01*
X89550238Y-50226428D01*
X89645476Y-50321666D01*
X89693095Y-50416904D01*
X89740714Y-48988333D02*
X90407380Y-48988333D01*
X89359761Y-49226428D02*
X90074047Y-49464523D01*
X90074047Y-48845476D01*
X88502380Y-50797857D02*
X88026190Y-51131190D01*
X88502380Y-51369285D02*
X87502380Y-51369285D01*
X87502380Y-50988333D01*
X87550000Y-50893095D01*
X87597619Y-50845476D01*
X87692857Y-50797857D01*
X87835714Y-50797857D01*
X87930952Y-50845476D01*
X87978571Y-50893095D01*
X88026190Y-50988333D01*
X88026190Y-51369285D01*
X88502380Y-49845476D02*
X88502380Y-50416904D01*
X88502380Y-50131190D02*
X87502380Y-50131190D01*
X87645238Y-50226428D01*
X87740476Y-50321666D01*
X87788095Y-50416904D01*
X87502380Y-48940714D02*
X87502380Y-49416904D01*
X87978571Y-49464523D01*
X87930952Y-49416904D01*
X87883333Y-49321666D01*
X87883333Y-49083571D01*
X87930952Y-48988333D01*
X87978571Y-48940714D01*
X88073809Y-48893095D01*
X88311904Y-48893095D01*
X88407142Y-48940714D01*
X88454761Y-48988333D01*
X88502380Y-49083571D01*
X88502380Y-49321666D01*
X88454761Y-49416904D01*
X88407142Y-49464523D01*
X86597380Y-50797857D02*
X86121190Y-51131190D01*
X86597380Y-51369285D02*
X85597380Y-51369285D01*
X85597380Y-50988333D01*
X85645000Y-50893095D01*
X85692619Y-50845476D01*
X85787857Y-50797857D01*
X85930714Y-50797857D01*
X86025952Y-50845476D01*
X86073571Y-50893095D01*
X86121190Y-50988333D01*
X86121190Y-51369285D01*
X86597380Y-49845476D02*
X86597380Y-50416904D01*
X86597380Y-50131190D02*
X85597380Y-50131190D01*
X85740238Y-50226428D01*
X85835476Y-50321666D01*
X85883095Y-50416904D01*
X85597380Y-48988333D02*
X85597380Y-49178809D01*
X85645000Y-49274047D01*
X85692619Y-49321666D01*
X85835476Y-49416904D01*
X86025952Y-49464523D01*
X86406904Y-49464523D01*
X86502142Y-49416904D01*
X86549761Y-49369285D01*
X86597380Y-49274047D01*
X86597380Y-49083571D01*
X86549761Y-48988333D01*
X86502142Y-48940714D01*
X86406904Y-48893095D01*
X86168809Y-48893095D01*
X86073571Y-48940714D01*
X86025952Y-48988333D01*
X85978333Y-49083571D01*
X85978333Y-49274047D01*
X86025952Y-49369285D01*
X86073571Y-49416904D01*
X86168809Y-49464523D01*
X82787380Y-50797857D02*
X82311190Y-51131190D01*
X82787380Y-51369285D02*
X81787380Y-51369285D01*
X81787380Y-50988333D01*
X81835000Y-50893095D01*
X81882619Y-50845476D01*
X81977857Y-50797857D01*
X82120714Y-50797857D01*
X82215952Y-50845476D01*
X82263571Y-50893095D01*
X82311190Y-50988333D01*
X82311190Y-51369285D01*
X82787380Y-49845476D02*
X82787380Y-50416904D01*
X82787380Y-50131190D02*
X81787380Y-50131190D01*
X81930238Y-50226428D01*
X82025476Y-50321666D01*
X82073095Y-50416904D01*
X81787380Y-49512142D02*
X81787380Y-48845476D01*
X82787380Y-49274047D01*
X80882380Y-50797857D02*
X80406190Y-51131190D01*
X80882380Y-51369285D02*
X79882380Y-51369285D01*
X79882380Y-50988333D01*
X79930000Y-50893095D01*
X79977619Y-50845476D01*
X80072857Y-50797857D01*
X80215714Y-50797857D01*
X80310952Y-50845476D01*
X80358571Y-50893095D01*
X80406190Y-50988333D01*
X80406190Y-51369285D01*
X80882380Y-49845476D02*
X80882380Y-50416904D01*
X80882380Y-50131190D02*
X79882380Y-50131190D01*
X80025238Y-50226428D01*
X80120476Y-50321666D01*
X80168095Y-50416904D01*
X80310952Y-49274047D02*
X80263333Y-49369285D01*
X80215714Y-49416904D01*
X80120476Y-49464523D01*
X80072857Y-49464523D01*
X79977619Y-49416904D01*
X79930000Y-49369285D01*
X79882380Y-49274047D01*
X79882380Y-49083571D01*
X79930000Y-48988333D01*
X79977619Y-48940714D01*
X80072857Y-48893095D01*
X80120476Y-48893095D01*
X80215714Y-48940714D01*
X80263333Y-48988333D01*
X80310952Y-49083571D01*
X80310952Y-49274047D01*
X80358571Y-49369285D01*
X80406190Y-49416904D01*
X80501428Y-49464523D01*
X80691904Y-49464523D01*
X80787142Y-49416904D01*
X80834761Y-49369285D01*
X80882380Y-49274047D01*
X80882380Y-49083571D01*
X80834761Y-48988333D01*
X80787142Y-48940714D01*
X80691904Y-48893095D01*
X80501428Y-48893095D01*
X80406190Y-48940714D01*
X80358571Y-48988333D01*
X80310952Y-49083571D01*
X93162380Y-70022857D02*
X92686190Y-70356190D01*
X93162380Y-70594285D02*
X92162380Y-70594285D01*
X92162380Y-70213333D01*
X92210000Y-70118095D01*
X92257619Y-70070476D01*
X92352857Y-70022857D01*
X92495714Y-70022857D01*
X92590952Y-70070476D01*
X92638571Y-70118095D01*
X92686190Y-70213333D01*
X92686190Y-70594285D01*
X93162380Y-69070476D02*
X93162380Y-69641904D01*
X93162380Y-69356190D02*
X92162380Y-69356190D01*
X92305238Y-69451428D01*
X92400476Y-69546666D01*
X92448095Y-69641904D01*
X93162380Y-68594285D02*
X93162380Y-68403809D01*
X93114761Y-68308571D01*
X93067142Y-68260952D01*
X92924285Y-68165714D01*
X92733809Y-68118095D01*
X92352857Y-68118095D01*
X92257619Y-68165714D01*
X92210000Y-68213333D01*
X92162380Y-68308571D01*
X92162380Y-68499047D01*
X92210000Y-68594285D01*
X92257619Y-68641904D01*
X92352857Y-68689523D01*
X92590952Y-68689523D01*
X92686190Y-68641904D01*
X92733809Y-68594285D01*
X92781428Y-68499047D01*
X92781428Y-68308571D01*
X92733809Y-68213333D01*
X92686190Y-68165714D01*
X92590952Y-68118095D01*
X87447380Y-89072857D02*
X86971190Y-89406190D01*
X87447380Y-89644285D02*
X86447380Y-89644285D01*
X86447380Y-89263333D01*
X86495000Y-89168095D01*
X86542619Y-89120476D01*
X86637857Y-89072857D01*
X86780714Y-89072857D01*
X86875952Y-89120476D01*
X86923571Y-89168095D01*
X86971190Y-89263333D01*
X86971190Y-89644285D01*
X86542619Y-88691904D02*
X86495000Y-88644285D01*
X86447380Y-88549047D01*
X86447380Y-88310952D01*
X86495000Y-88215714D01*
X86542619Y-88168095D01*
X86637857Y-88120476D01*
X86733095Y-88120476D01*
X86875952Y-88168095D01*
X87447380Y-88739523D01*
X87447380Y-88120476D01*
X86447380Y-87501428D02*
X86447380Y-87406190D01*
X86495000Y-87310952D01*
X86542619Y-87263333D01*
X86637857Y-87215714D01*
X86828333Y-87168095D01*
X87066428Y-87168095D01*
X87256904Y-87215714D01*
X87352142Y-87263333D01*
X87399761Y-87310952D01*
X87447380Y-87406190D01*
X87447380Y-87501428D01*
X87399761Y-87596666D01*
X87352142Y-87644285D01*
X87256904Y-87691904D01*
X87066428Y-87739523D01*
X86828333Y-87739523D01*
X86637857Y-87691904D01*
X86542619Y-87644285D01*
X86495000Y-87596666D01*
X86447380Y-87501428D01*
X91892380Y-90342857D02*
X91416190Y-90676190D01*
X91892380Y-90914285D02*
X90892380Y-90914285D01*
X90892380Y-90533333D01*
X90940000Y-90438095D01*
X90987619Y-90390476D01*
X91082857Y-90342857D01*
X91225714Y-90342857D01*
X91320952Y-90390476D01*
X91368571Y-90438095D01*
X91416190Y-90533333D01*
X91416190Y-90914285D01*
X90987619Y-89961904D02*
X90940000Y-89914285D01*
X90892380Y-89819047D01*
X90892380Y-89580952D01*
X90940000Y-89485714D01*
X90987619Y-89438095D01*
X91082857Y-89390476D01*
X91178095Y-89390476D01*
X91320952Y-89438095D01*
X91892380Y-90009523D01*
X91892380Y-89390476D01*
X91892380Y-88438095D02*
X91892380Y-89009523D01*
X91892380Y-88723809D02*
X90892380Y-88723809D01*
X91035238Y-88819047D01*
X91130476Y-88914285D01*
X91178095Y-89009523D01*
X81572380Y-74467857D02*
X81096190Y-74801190D01*
X81572380Y-75039285D02*
X80572380Y-75039285D01*
X80572380Y-74658333D01*
X80620000Y-74563095D01*
X80667619Y-74515476D01*
X80762857Y-74467857D01*
X80905714Y-74467857D01*
X81000952Y-74515476D01*
X81048571Y-74563095D01*
X81096190Y-74658333D01*
X81096190Y-75039285D01*
X80667619Y-74086904D02*
X80620000Y-74039285D01*
X80572380Y-73944047D01*
X80572380Y-73705952D01*
X80620000Y-73610714D01*
X80667619Y-73563095D01*
X80762857Y-73515476D01*
X80858095Y-73515476D01*
X81000952Y-73563095D01*
X81572380Y-74134523D01*
X81572380Y-73515476D01*
X80667619Y-73134523D02*
X80620000Y-73086904D01*
X80572380Y-72991666D01*
X80572380Y-72753571D01*
X80620000Y-72658333D01*
X80667619Y-72610714D01*
X80762857Y-72563095D01*
X80858095Y-72563095D01*
X81000952Y-72610714D01*
X81572380Y-73182142D01*
X81572380Y-72563095D01*
X87447380Y-77642857D02*
X86971190Y-77976190D01*
X87447380Y-78214285D02*
X86447380Y-78214285D01*
X86447380Y-77833333D01*
X86495000Y-77738095D01*
X86542619Y-77690476D01*
X86637857Y-77642857D01*
X86780714Y-77642857D01*
X86875952Y-77690476D01*
X86923571Y-77738095D01*
X86971190Y-77833333D01*
X86971190Y-78214285D01*
X86542619Y-77261904D02*
X86495000Y-77214285D01*
X86447380Y-77119047D01*
X86447380Y-76880952D01*
X86495000Y-76785714D01*
X86542619Y-76738095D01*
X86637857Y-76690476D01*
X86733095Y-76690476D01*
X86875952Y-76738095D01*
X87447380Y-77309523D01*
X87447380Y-76690476D01*
X86447380Y-76357142D02*
X86447380Y-75738095D01*
X86828333Y-76071428D01*
X86828333Y-75928571D01*
X86875952Y-75833333D01*
X86923571Y-75785714D01*
X87018809Y-75738095D01*
X87256904Y-75738095D01*
X87352142Y-75785714D01*
X87399761Y-75833333D01*
X87447380Y-75928571D01*
X87447380Y-76214285D01*
X87399761Y-76309523D01*
X87352142Y-76357142D01*
X91892380Y-77007857D02*
X91416190Y-77341190D01*
X91892380Y-77579285D02*
X90892380Y-77579285D01*
X90892380Y-77198333D01*
X90940000Y-77103095D01*
X90987619Y-77055476D01*
X91082857Y-77007857D01*
X91225714Y-77007857D01*
X91320952Y-77055476D01*
X91368571Y-77103095D01*
X91416190Y-77198333D01*
X91416190Y-77579285D01*
X90987619Y-76626904D02*
X90940000Y-76579285D01*
X90892380Y-76484047D01*
X90892380Y-76245952D01*
X90940000Y-76150714D01*
X90987619Y-76103095D01*
X91082857Y-76055476D01*
X91178095Y-76055476D01*
X91320952Y-76103095D01*
X91892380Y-76674523D01*
X91892380Y-76055476D01*
X91225714Y-75198333D02*
X91892380Y-75198333D01*
X90844761Y-75436428D02*
X91559047Y-75674523D01*
X91559047Y-75055476D01*
X121737380Y-85022857D02*
X121261190Y-85356190D01*
X121737380Y-85594285D02*
X120737380Y-85594285D01*
X120737380Y-85213333D01*
X120785000Y-85118095D01*
X120832619Y-85070476D01*
X120927857Y-85022857D01*
X121070714Y-85022857D01*
X121165952Y-85070476D01*
X121213571Y-85118095D01*
X121261190Y-85213333D01*
X121261190Y-85594285D01*
X120832619Y-84641904D02*
X120785000Y-84594285D01*
X120737380Y-84499047D01*
X120737380Y-84260952D01*
X120785000Y-84165714D01*
X120832619Y-84118095D01*
X120927857Y-84070476D01*
X121023095Y-84070476D01*
X121165952Y-84118095D01*
X121737380Y-84689523D01*
X121737380Y-84070476D01*
X120737380Y-83165714D02*
X120737380Y-83641904D01*
X121213571Y-83689523D01*
X121165952Y-83641904D01*
X121118333Y-83546666D01*
X121118333Y-83308571D01*
X121165952Y-83213333D01*
X121213571Y-83165714D01*
X121308809Y-83118095D01*
X121546904Y-83118095D01*
X121642142Y-83165714D01*
X121689761Y-83213333D01*
X121737380Y-83308571D01*
X121737380Y-83546666D01*
X121689761Y-83641904D01*
X121642142Y-83689523D01*
X117927380Y-79547857D02*
X117451190Y-79881190D01*
X117927380Y-80119285D02*
X116927380Y-80119285D01*
X116927380Y-79738333D01*
X116975000Y-79643095D01*
X117022619Y-79595476D01*
X117117857Y-79547857D01*
X117260714Y-79547857D01*
X117355952Y-79595476D01*
X117403571Y-79643095D01*
X117451190Y-79738333D01*
X117451190Y-80119285D01*
X117022619Y-79166904D02*
X116975000Y-79119285D01*
X116927380Y-79024047D01*
X116927380Y-78785952D01*
X116975000Y-78690714D01*
X117022619Y-78643095D01*
X117117857Y-78595476D01*
X117213095Y-78595476D01*
X117355952Y-78643095D01*
X117927380Y-79214523D01*
X117927380Y-78595476D01*
X116927380Y-77738333D02*
X116927380Y-77928809D01*
X116975000Y-78024047D01*
X117022619Y-78071666D01*
X117165476Y-78166904D01*
X117355952Y-78214523D01*
X117736904Y-78214523D01*
X117832142Y-78166904D01*
X117879761Y-78119285D01*
X117927380Y-78024047D01*
X117927380Y-77833571D01*
X117879761Y-77738333D01*
X117832142Y-77690714D01*
X117736904Y-77643095D01*
X117498809Y-77643095D01*
X117403571Y-77690714D01*
X117355952Y-77738333D01*
X117308333Y-77833571D01*
X117308333Y-78024047D01*
X117355952Y-78119285D01*
X117403571Y-78166904D01*
X117498809Y-78214523D01*
X123007380Y-78277857D02*
X122531190Y-78611190D01*
X123007380Y-78849285D02*
X122007380Y-78849285D01*
X122007380Y-78468333D01*
X122055000Y-78373095D01*
X122102619Y-78325476D01*
X122197857Y-78277857D01*
X122340714Y-78277857D01*
X122435952Y-78325476D01*
X122483571Y-78373095D01*
X122531190Y-78468333D01*
X122531190Y-78849285D01*
X122102619Y-77896904D02*
X122055000Y-77849285D01*
X122007380Y-77754047D01*
X122007380Y-77515952D01*
X122055000Y-77420714D01*
X122102619Y-77373095D01*
X122197857Y-77325476D01*
X122293095Y-77325476D01*
X122435952Y-77373095D01*
X123007380Y-77944523D01*
X123007380Y-77325476D01*
X122007380Y-76992142D02*
X122007380Y-76325476D01*
X123007380Y-76754047D01*
X123007380Y-66847857D02*
X122531190Y-67181190D01*
X123007380Y-67419285D02*
X122007380Y-67419285D01*
X122007380Y-67038333D01*
X122055000Y-66943095D01*
X122102619Y-66895476D01*
X122197857Y-66847857D01*
X122340714Y-66847857D01*
X122435952Y-66895476D01*
X122483571Y-66943095D01*
X122531190Y-67038333D01*
X122531190Y-67419285D01*
X122102619Y-66466904D02*
X122055000Y-66419285D01*
X122007380Y-66324047D01*
X122007380Y-66085952D01*
X122055000Y-65990714D01*
X122102619Y-65943095D01*
X122197857Y-65895476D01*
X122293095Y-65895476D01*
X122435952Y-65943095D01*
X123007380Y-66514523D01*
X123007380Y-65895476D01*
X122435952Y-65324047D02*
X122388333Y-65419285D01*
X122340714Y-65466904D01*
X122245476Y-65514523D01*
X122197857Y-65514523D01*
X122102619Y-65466904D01*
X122055000Y-65419285D01*
X122007380Y-65324047D01*
X122007380Y-65133571D01*
X122055000Y-65038333D01*
X122102619Y-64990714D01*
X122197857Y-64943095D01*
X122245476Y-64943095D01*
X122340714Y-64990714D01*
X122388333Y-65038333D01*
X122435952Y-65133571D01*
X122435952Y-65324047D01*
X122483571Y-65419285D01*
X122531190Y-65466904D01*
X122626428Y-65514523D01*
X122816904Y-65514523D01*
X122912142Y-65466904D01*
X122959761Y-65419285D01*
X123007380Y-65324047D01*
X123007380Y-65133571D01*
X122959761Y-65038333D01*
X122912142Y-64990714D01*
X122816904Y-64943095D01*
X122626428Y-64943095D01*
X122531190Y-64990714D01*
X122483571Y-65038333D01*
X122435952Y-65133571D01*
X123817142Y-92057380D02*
X123483809Y-91581190D01*
X123245714Y-92057380D02*
X123245714Y-91057380D01*
X123626666Y-91057380D01*
X123721904Y-91105000D01*
X123769523Y-91152619D01*
X123817142Y-91247857D01*
X123817142Y-91390714D01*
X123769523Y-91485952D01*
X123721904Y-91533571D01*
X123626666Y-91581190D01*
X123245714Y-91581190D01*
X124198095Y-91152619D02*
X124245714Y-91105000D01*
X124340952Y-91057380D01*
X124579047Y-91057380D01*
X124674285Y-91105000D01*
X124721904Y-91152619D01*
X124769523Y-91247857D01*
X124769523Y-91343095D01*
X124721904Y-91485952D01*
X124150476Y-92057380D01*
X124769523Y-92057380D01*
X125245714Y-92057380D02*
X125436190Y-92057380D01*
X125531428Y-92009761D01*
X125579047Y-91962142D01*
X125674285Y-91819285D01*
X125721904Y-91628809D01*
X125721904Y-91247857D01*
X125674285Y-91152619D01*
X125626666Y-91105000D01*
X125531428Y-91057380D01*
X125340952Y-91057380D01*
X125245714Y-91105000D01*
X125198095Y-91152619D01*
X125150476Y-91247857D01*
X125150476Y-91485952D01*
X125198095Y-91581190D01*
X125245714Y-91628809D01*
X125340952Y-91676428D01*
X125531428Y-91676428D01*
X125626666Y-91628809D01*
X125674285Y-91581190D01*
X125721904Y-91485952D01*
X133167380Y-89072857D02*
X132691190Y-89406190D01*
X133167380Y-89644285D02*
X132167380Y-89644285D01*
X132167380Y-89263333D01*
X132215000Y-89168095D01*
X132262619Y-89120476D01*
X132357857Y-89072857D01*
X132500714Y-89072857D01*
X132595952Y-89120476D01*
X132643571Y-89168095D01*
X132691190Y-89263333D01*
X132691190Y-89644285D01*
X132167380Y-88739523D02*
X132167380Y-88120476D01*
X132548333Y-88453809D01*
X132548333Y-88310952D01*
X132595952Y-88215714D01*
X132643571Y-88168095D01*
X132738809Y-88120476D01*
X132976904Y-88120476D01*
X133072142Y-88168095D01*
X133119761Y-88215714D01*
X133167380Y-88310952D01*
X133167380Y-88596666D01*
X133119761Y-88691904D01*
X133072142Y-88739523D01*
X132167380Y-87501428D02*
X132167380Y-87406190D01*
X132215000Y-87310952D01*
X132262619Y-87263333D01*
X132357857Y-87215714D01*
X132548333Y-87168095D01*
X132786428Y-87168095D01*
X132976904Y-87215714D01*
X133072142Y-87263333D01*
X133119761Y-87310952D01*
X133167380Y-87406190D01*
X133167380Y-87501428D01*
X133119761Y-87596666D01*
X133072142Y-87644285D01*
X132976904Y-87691904D01*
X132786428Y-87739523D01*
X132548333Y-87739523D01*
X132357857Y-87691904D01*
X132262619Y-87644285D01*
X132215000Y-87596666D01*
X132167380Y-87501428D01*
X137152142Y-80787380D02*
X136818809Y-80311190D01*
X136580714Y-80787380D02*
X136580714Y-79787380D01*
X136961666Y-79787380D01*
X137056904Y-79835000D01*
X137104523Y-79882619D01*
X137152142Y-79977857D01*
X137152142Y-80120714D01*
X137104523Y-80215952D01*
X137056904Y-80263571D01*
X136961666Y-80311190D01*
X136580714Y-80311190D01*
X137485476Y-79787380D02*
X138104523Y-79787380D01*
X137771190Y-80168333D01*
X137914047Y-80168333D01*
X138009285Y-80215952D01*
X138056904Y-80263571D01*
X138104523Y-80358809D01*
X138104523Y-80596904D01*
X138056904Y-80692142D01*
X138009285Y-80739761D01*
X137914047Y-80787380D01*
X137628333Y-80787380D01*
X137533095Y-80739761D01*
X137485476Y-80692142D01*
X139056904Y-80787380D02*
X138485476Y-80787380D01*
X138771190Y-80787380D02*
X138771190Y-79787380D01*
X138675952Y-79930238D01*
X138580714Y-80025476D01*
X138485476Y-80073095D01*
X138566125Y-71611452D02*
X138089935Y-71944785D01*
X138566125Y-72182880D02*
X137566125Y-72182880D01*
X137566125Y-71801928D01*
X137613745Y-71706690D01*
X137661364Y-71659071D01*
X137756602Y-71611452D01*
X137899459Y-71611452D01*
X137994697Y-71659071D01*
X138042316Y-71706690D01*
X138089935Y-71801928D01*
X138089935Y-72182880D01*
X137566125Y-71278118D02*
X137566125Y-70659071D01*
X137947078Y-70992404D01*
X137947078Y-70849547D01*
X137994697Y-70754309D01*
X138042316Y-70706690D01*
X138137554Y-70659071D01*
X138375649Y-70659071D01*
X138470887Y-70706690D01*
X138518506Y-70754309D01*
X138566125Y-70849547D01*
X138566125Y-71135261D01*
X138518506Y-71230499D01*
X138470887Y-71278118D01*
X137661364Y-70278118D02*
X137613745Y-70230499D01*
X137566125Y-70135261D01*
X137566125Y-69897166D01*
X137613745Y-69801928D01*
X137661364Y-69754309D01*
X137756602Y-69706690D01*
X137851840Y-69706690D01*
X137994697Y-69754309D01*
X138566125Y-70325737D01*
X138566125Y-69706690D01*
X133486125Y-71993952D02*
X133009935Y-72327285D01*
X133486125Y-72565380D02*
X132486125Y-72565380D01*
X132486125Y-72184428D01*
X132533745Y-72089190D01*
X132581364Y-72041571D01*
X132676602Y-71993952D01*
X132819459Y-71993952D01*
X132914697Y-72041571D01*
X132962316Y-72089190D01*
X133009935Y-72184428D01*
X133009935Y-72565380D01*
X132486125Y-71660618D02*
X132486125Y-71041571D01*
X132867078Y-71374904D01*
X132867078Y-71232047D01*
X132914697Y-71136809D01*
X132962316Y-71089190D01*
X133057554Y-71041571D01*
X133295649Y-71041571D01*
X133390887Y-71089190D01*
X133438506Y-71136809D01*
X133486125Y-71232047D01*
X133486125Y-71517761D01*
X133438506Y-71612999D01*
X133390887Y-71660618D01*
X132486125Y-70708237D02*
X132486125Y-70089190D01*
X132867078Y-70422523D01*
X132867078Y-70279666D01*
X132914697Y-70184428D01*
X132962316Y-70136809D01*
X133057554Y-70089190D01*
X133295649Y-70089190D01*
X133390887Y-70136809D01*
X133438506Y-70184428D01*
X133486125Y-70279666D01*
X133486125Y-70565380D01*
X133438506Y-70660618D01*
X133390887Y-70708237D01*
X139692142Y-50782380D02*
X139358809Y-50306190D01*
X139120714Y-50782380D02*
X139120714Y-49782380D01*
X139501666Y-49782380D01*
X139596904Y-49830000D01*
X139644523Y-49877619D01*
X139692142Y-49972857D01*
X139692142Y-50115714D01*
X139644523Y-50210952D01*
X139596904Y-50258571D01*
X139501666Y-50306190D01*
X139120714Y-50306190D01*
X140025476Y-49782380D02*
X140644523Y-49782380D01*
X140311190Y-50163333D01*
X140454047Y-50163333D01*
X140549285Y-50210952D01*
X140596904Y-50258571D01*
X140644523Y-50353809D01*
X140644523Y-50591904D01*
X140596904Y-50687142D01*
X140549285Y-50734761D01*
X140454047Y-50782380D01*
X140168333Y-50782380D01*
X140073095Y-50734761D01*
X140025476Y-50687142D01*
X141501666Y-50115714D02*
X141501666Y-50782380D01*
X141263571Y-49734761D02*
X141025476Y-50449047D01*
X141644523Y-50449047D01*
X139692142Y-48877380D02*
X139358809Y-48401190D01*
X139120714Y-48877380D02*
X139120714Y-47877380D01*
X139501666Y-47877380D01*
X139596904Y-47925000D01*
X139644523Y-47972619D01*
X139692142Y-48067857D01*
X139692142Y-48210714D01*
X139644523Y-48305952D01*
X139596904Y-48353571D01*
X139501666Y-48401190D01*
X139120714Y-48401190D01*
X140025476Y-47877380D02*
X140644523Y-47877380D01*
X140311190Y-48258333D01*
X140454047Y-48258333D01*
X140549285Y-48305952D01*
X140596904Y-48353571D01*
X140644523Y-48448809D01*
X140644523Y-48686904D01*
X140596904Y-48782142D01*
X140549285Y-48829761D01*
X140454047Y-48877380D01*
X140168333Y-48877380D01*
X140073095Y-48829761D01*
X140025476Y-48782142D01*
X141549285Y-47877380D02*
X141073095Y-47877380D01*
X141025476Y-48353571D01*
X141073095Y-48305952D01*
X141168333Y-48258333D01*
X141406428Y-48258333D01*
X141501666Y-48305952D01*
X141549285Y-48353571D01*
X141596904Y-48448809D01*
X141596904Y-48686904D01*
X141549285Y-48782142D01*
X141501666Y-48829761D01*
X141406428Y-48877380D01*
X141168333Y-48877380D01*
X141073095Y-48829761D01*
X141025476Y-48782142D01*
X152392142Y-50782380D02*
X152058809Y-50306190D01*
X151820714Y-50782380D02*
X151820714Y-49782380D01*
X152201666Y-49782380D01*
X152296904Y-49830000D01*
X152344523Y-49877619D01*
X152392142Y-49972857D01*
X152392142Y-50115714D01*
X152344523Y-50210952D01*
X152296904Y-50258571D01*
X152201666Y-50306190D01*
X151820714Y-50306190D01*
X152725476Y-49782380D02*
X153344523Y-49782380D01*
X153011190Y-50163333D01*
X153154047Y-50163333D01*
X153249285Y-50210952D01*
X153296904Y-50258571D01*
X153344523Y-50353809D01*
X153344523Y-50591904D01*
X153296904Y-50687142D01*
X153249285Y-50734761D01*
X153154047Y-50782380D01*
X152868333Y-50782380D01*
X152773095Y-50734761D01*
X152725476Y-50687142D01*
X154201666Y-49782380D02*
X154011190Y-49782380D01*
X153915952Y-49830000D01*
X153868333Y-49877619D01*
X153773095Y-50020476D01*
X153725476Y-50210952D01*
X153725476Y-50591904D01*
X153773095Y-50687142D01*
X153820714Y-50734761D01*
X153915952Y-50782380D01*
X154106428Y-50782380D01*
X154201666Y-50734761D01*
X154249285Y-50687142D01*
X154296904Y-50591904D01*
X154296904Y-50353809D01*
X154249285Y-50258571D01*
X154201666Y-50210952D01*
X154106428Y-50163333D01*
X153915952Y-50163333D01*
X153820714Y-50210952D01*
X153773095Y-50258571D01*
X153725476Y-50353809D01*
X152392142Y-48877380D02*
X152058809Y-48401190D01*
X151820714Y-48877380D02*
X151820714Y-47877380D01*
X152201666Y-47877380D01*
X152296904Y-47925000D01*
X152344523Y-47972619D01*
X152392142Y-48067857D01*
X152392142Y-48210714D01*
X152344523Y-48305952D01*
X152296904Y-48353571D01*
X152201666Y-48401190D01*
X151820714Y-48401190D01*
X152725476Y-47877380D02*
X153344523Y-47877380D01*
X153011190Y-48258333D01*
X153154047Y-48258333D01*
X153249285Y-48305952D01*
X153296904Y-48353571D01*
X153344523Y-48448809D01*
X153344523Y-48686904D01*
X153296904Y-48782142D01*
X153249285Y-48829761D01*
X153154047Y-48877380D01*
X152868333Y-48877380D01*
X152773095Y-48829761D01*
X152725476Y-48782142D01*
X153677857Y-47877380D02*
X154344523Y-47877380D01*
X153915952Y-48877380D01*
X150487142Y-102217380D02*
X150153809Y-101741190D01*
X149915714Y-102217380D02*
X149915714Y-101217380D01*
X150296666Y-101217380D01*
X150391904Y-101265000D01*
X150439523Y-101312619D01*
X150487142Y-101407857D01*
X150487142Y-101550714D01*
X150439523Y-101645952D01*
X150391904Y-101693571D01*
X150296666Y-101741190D01*
X149915714Y-101741190D01*
X150820476Y-101217380D02*
X151439523Y-101217380D01*
X151106190Y-101598333D01*
X151249047Y-101598333D01*
X151344285Y-101645952D01*
X151391904Y-101693571D01*
X151439523Y-101788809D01*
X151439523Y-102026904D01*
X151391904Y-102122142D01*
X151344285Y-102169761D01*
X151249047Y-102217380D01*
X150963333Y-102217380D01*
X150868095Y-102169761D01*
X150820476Y-102122142D01*
X152010952Y-101645952D02*
X151915714Y-101598333D01*
X151868095Y-101550714D01*
X151820476Y-101455476D01*
X151820476Y-101407857D01*
X151868095Y-101312619D01*
X151915714Y-101265000D01*
X152010952Y-101217380D01*
X152201428Y-101217380D01*
X152296666Y-101265000D01*
X152344285Y-101312619D01*
X152391904Y-101407857D01*
X152391904Y-101455476D01*
X152344285Y-101550714D01*
X152296666Y-101598333D01*
X152201428Y-101645952D01*
X152010952Y-101645952D01*
X151915714Y-101693571D01*
X151868095Y-101741190D01*
X151820476Y-101836428D01*
X151820476Y-102026904D01*
X151868095Y-102122142D01*
X151915714Y-102169761D01*
X152010952Y-102217380D01*
X152201428Y-102217380D01*
X152296666Y-102169761D01*
X152344285Y-102122142D01*
X152391904Y-102026904D01*
X152391904Y-101836428D01*
X152344285Y-101741190D01*
X152296666Y-101693571D01*
X152201428Y-101645952D01*
X147772380Y-95422857D02*
X147296190Y-95756190D01*
X147772380Y-95994285D02*
X146772380Y-95994285D01*
X146772380Y-95613333D01*
X146820000Y-95518095D01*
X146867619Y-95470476D01*
X146962857Y-95422857D01*
X147105714Y-95422857D01*
X147200952Y-95470476D01*
X147248571Y-95518095D01*
X147296190Y-95613333D01*
X147296190Y-95994285D01*
X146772380Y-95089523D02*
X146772380Y-94470476D01*
X147153333Y-94803809D01*
X147153333Y-94660952D01*
X147200952Y-94565714D01*
X147248571Y-94518095D01*
X147343809Y-94470476D01*
X147581904Y-94470476D01*
X147677142Y-94518095D01*
X147724761Y-94565714D01*
X147772380Y-94660952D01*
X147772380Y-94946666D01*
X147724761Y-95041904D01*
X147677142Y-95089523D01*
X147772380Y-93994285D02*
X147772380Y-93803809D01*
X147724761Y-93708571D01*
X147677142Y-93660952D01*
X147534285Y-93565714D01*
X147343809Y-93518095D01*
X146962857Y-93518095D01*
X146867619Y-93565714D01*
X146820000Y-93613333D01*
X146772380Y-93708571D01*
X146772380Y-93899047D01*
X146820000Y-93994285D01*
X146867619Y-94041904D01*
X146962857Y-94089523D01*
X147200952Y-94089523D01*
X147296190Y-94041904D01*
X147343809Y-93994285D01*
X147391428Y-93899047D01*
X147391428Y-93708571D01*
X147343809Y-93613333D01*
X147296190Y-93565714D01*
X147200952Y-93518095D01*
X149677380Y-82722857D02*
X149201190Y-83056190D01*
X149677380Y-83294285D02*
X148677380Y-83294285D01*
X148677380Y-82913333D01*
X148725000Y-82818095D01*
X148772619Y-82770476D01*
X148867857Y-82722857D01*
X149010714Y-82722857D01*
X149105952Y-82770476D01*
X149153571Y-82818095D01*
X149201190Y-82913333D01*
X149201190Y-83294285D01*
X149010714Y-81865714D02*
X149677380Y-81865714D01*
X148629761Y-82103809D02*
X149344047Y-82341904D01*
X149344047Y-81722857D01*
X148677380Y-81151428D02*
X148677380Y-81056190D01*
X148725000Y-80960952D01*
X148772619Y-80913333D01*
X148867857Y-80865714D01*
X149058333Y-80818095D01*
X149296428Y-80818095D01*
X149486904Y-80865714D01*
X149582142Y-80913333D01*
X149629761Y-80960952D01*
X149677380Y-81056190D01*
X149677380Y-81151428D01*
X149629761Y-81246666D01*
X149582142Y-81294285D01*
X149486904Y-81341904D01*
X149296428Y-81389523D01*
X149058333Y-81389523D01*
X148867857Y-81341904D01*
X148772619Y-81294285D01*
X148725000Y-81246666D01*
X148677380Y-81151428D01*
X149202380Y-79152857D02*
X148726190Y-79486190D01*
X149202380Y-79724285D02*
X148202380Y-79724285D01*
X148202380Y-79343333D01*
X148250000Y-79248095D01*
X148297619Y-79200476D01*
X148392857Y-79152857D01*
X148535714Y-79152857D01*
X148630952Y-79200476D01*
X148678571Y-79248095D01*
X148726190Y-79343333D01*
X148726190Y-79724285D01*
X148535714Y-78295714D02*
X149202380Y-78295714D01*
X148154761Y-78533809D02*
X148869047Y-78771904D01*
X148869047Y-78152857D01*
X149202380Y-77248095D02*
X149202380Y-77819523D01*
X149202380Y-77533809D02*
X148202380Y-77533809D01*
X148345238Y-77629047D01*
X148440476Y-77724285D01*
X148488095Y-77819523D01*
X166187380Y-101137857D02*
X165711190Y-101471190D01*
X166187380Y-101709285D02*
X165187380Y-101709285D01*
X165187380Y-101328333D01*
X165235000Y-101233095D01*
X165282619Y-101185476D01*
X165377857Y-101137857D01*
X165520714Y-101137857D01*
X165615952Y-101185476D01*
X165663571Y-101233095D01*
X165711190Y-101328333D01*
X165711190Y-101709285D01*
X165520714Y-100280714D02*
X166187380Y-100280714D01*
X165139761Y-100518809D02*
X165854047Y-100756904D01*
X165854047Y-100137857D01*
X165282619Y-99804523D02*
X165235000Y-99756904D01*
X165187380Y-99661666D01*
X165187380Y-99423571D01*
X165235000Y-99328333D01*
X165282619Y-99280714D01*
X165377857Y-99233095D01*
X165473095Y-99233095D01*
X165615952Y-99280714D01*
X166187380Y-99852142D01*
X166187380Y-99233095D01*
X159837380Y-95422857D02*
X159361190Y-95756190D01*
X159837380Y-95994285D02*
X158837380Y-95994285D01*
X158837380Y-95613333D01*
X158885000Y-95518095D01*
X158932619Y-95470476D01*
X159027857Y-95422857D01*
X159170714Y-95422857D01*
X159265952Y-95470476D01*
X159313571Y-95518095D01*
X159361190Y-95613333D01*
X159361190Y-95994285D01*
X159170714Y-94565714D02*
X159837380Y-94565714D01*
X158789761Y-94803809D02*
X159504047Y-95041904D01*
X159504047Y-94422857D01*
X158837380Y-94137142D02*
X158837380Y-93518095D01*
X159218333Y-93851428D01*
X159218333Y-93708571D01*
X159265952Y-93613333D01*
X159313571Y-93565714D01*
X159408809Y-93518095D01*
X159646904Y-93518095D01*
X159742142Y-93565714D01*
X159789761Y-93613333D01*
X159837380Y-93708571D01*
X159837380Y-93994285D01*
X159789761Y-94089523D01*
X159742142Y-94137142D01*
X165077380Y-96692857D02*
X164601190Y-97026190D01*
X165077380Y-97264285D02*
X164077380Y-97264285D01*
X164077380Y-96883333D01*
X164125000Y-96788095D01*
X164172619Y-96740476D01*
X164267857Y-96692857D01*
X164410714Y-96692857D01*
X164505952Y-96740476D01*
X164553571Y-96788095D01*
X164601190Y-96883333D01*
X164601190Y-97264285D01*
X164410714Y-95835714D02*
X165077380Y-95835714D01*
X164029761Y-96073809D02*
X164744047Y-96311904D01*
X164744047Y-95692857D01*
X164410714Y-94883333D02*
X165077380Y-94883333D01*
X164029761Y-95121428D02*
X164744047Y-95359523D01*
X164744047Y-94740476D01*
X164917380Y-91612857D02*
X164441190Y-91946190D01*
X164917380Y-92184285D02*
X163917380Y-92184285D01*
X163917380Y-91803333D01*
X163965000Y-91708095D01*
X164012619Y-91660476D01*
X164107857Y-91612857D01*
X164250714Y-91612857D01*
X164345952Y-91660476D01*
X164393571Y-91708095D01*
X164441190Y-91803333D01*
X164441190Y-92184285D01*
X164250714Y-90755714D02*
X164917380Y-90755714D01*
X163869761Y-90993809D02*
X164584047Y-91231904D01*
X164584047Y-90612857D01*
X163917380Y-89755714D02*
X163917380Y-90231904D01*
X164393571Y-90279523D01*
X164345952Y-90231904D01*
X164298333Y-90136666D01*
X164298333Y-89898571D01*
X164345952Y-89803333D01*
X164393571Y-89755714D01*
X164488809Y-89708095D01*
X164726904Y-89708095D01*
X164822142Y-89755714D01*
X164869761Y-89803333D01*
X164917380Y-89898571D01*
X164917380Y-90136666D01*
X164869761Y-90231904D01*
X164822142Y-90279523D01*
X159837380Y-91612857D02*
X159361190Y-91946190D01*
X159837380Y-92184285D02*
X158837380Y-92184285D01*
X158837380Y-91803333D01*
X158885000Y-91708095D01*
X158932619Y-91660476D01*
X159027857Y-91612857D01*
X159170714Y-91612857D01*
X159265952Y-91660476D01*
X159313571Y-91708095D01*
X159361190Y-91803333D01*
X159361190Y-92184285D01*
X159170714Y-90755714D02*
X159837380Y-90755714D01*
X158789761Y-90993809D02*
X159504047Y-91231904D01*
X159504047Y-90612857D01*
X158837380Y-89803333D02*
X158837380Y-89993809D01*
X158885000Y-90089047D01*
X158932619Y-90136666D01*
X159075476Y-90231904D01*
X159265952Y-90279523D01*
X159646904Y-90279523D01*
X159742142Y-90231904D01*
X159789761Y-90184285D01*
X159837380Y-90089047D01*
X159837380Y-89898571D01*
X159789761Y-89803333D01*
X159742142Y-89755714D01*
X159646904Y-89708095D01*
X159408809Y-89708095D01*
X159313571Y-89755714D01*
X159265952Y-89803333D01*
X159218333Y-89898571D01*
X159218333Y-90089047D01*
X159265952Y-90184285D01*
X159313571Y-90231904D01*
X159408809Y-90279523D01*
X156202142Y-50782380D02*
X155868809Y-50306190D01*
X155630714Y-50782380D02*
X155630714Y-49782380D01*
X156011666Y-49782380D01*
X156106904Y-49830000D01*
X156154523Y-49877619D01*
X156202142Y-49972857D01*
X156202142Y-50115714D01*
X156154523Y-50210952D01*
X156106904Y-50258571D01*
X156011666Y-50306190D01*
X155630714Y-50306190D01*
X157059285Y-50115714D02*
X157059285Y-50782380D01*
X156821190Y-49734761D02*
X156583095Y-50449047D01*
X157202142Y-50449047D01*
X157487857Y-49782380D02*
X158154523Y-49782380D01*
X157725952Y-50782380D01*
X156202142Y-48877380D02*
X155868809Y-48401190D01*
X155630714Y-48877380D02*
X155630714Y-47877380D01*
X156011666Y-47877380D01*
X156106904Y-47925000D01*
X156154523Y-47972619D01*
X156202142Y-48067857D01*
X156202142Y-48210714D01*
X156154523Y-48305952D01*
X156106904Y-48353571D01*
X156011666Y-48401190D01*
X155630714Y-48401190D01*
X157059285Y-48210714D02*
X157059285Y-48877380D01*
X156821190Y-47829761D02*
X156583095Y-48544047D01*
X157202142Y-48544047D01*
X157725952Y-48305952D02*
X157630714Y-48258333D01*
X157583095Y-48210714D01*
X157535476Y-48115476D01*
X157535476Y-48067857D01*
X157583095Y-47972619D01*
X157630714Y-47925000D01*
X157725952Y-47877380D01*
X157916428Y-47877380D01*
X158011666Y-47925000D01*
X158059285Y-47972619D01*
X158106904Y-48067857D01*
X158106904Y-48115476D01*
X158059285Y-48210714D01*
X158011666Y-48258333D01*
X157916428Y-48305952D01*
X157725952Y-48305952D01*
X157630714Y-48353571D01*
X157583095Y-48401190D01*
X157535476Y-48496428D01*
X157535476Y-48686904D01*
X157583095Y-48782142D01*
X157630714Y-48829761D01*
X157725952Y-48877380D01*
X157916428Y-48877380D01*
X158011666Y-48829761D01*
X158059285Y-48782142D01*
X158106904Y-48686904D01*
X158106904Y-48496428D01*
X158059285Y-48401190D01*
X158011666Y-48353571D01*
X157916428Y-48305952D01*
X172712142Y-50782380D02*
X172378809Y-50306190D01*
X172140714Y-50782380D02*
X172140714Y-49782380D01*
X172521666Y-49782380D01*
X172616904Y-49830000D01*
X172664523Y-49877619D01*
X172712142Y-49972857D01*
X172712142Y-50115714D01*
X172664523Y-50210952D01*
X172616904Y-50258571D01*
X172521666Y-50306190D01*
X172140714Y-50306190D01*
X173569285Y-50115714D02*
X173569285Y-50782380D01*
X173331190Y-49734761D02*
X173093095Y-50449047D01*
X173712142Y-50449047D01*
X174140714Y-50782380D02*
X174331190Y-50782380D01*
X174426428Y-50734761D01*
X174474047Y-50687142D01*
X174569285Y-50544285D01*
X174616904Y-50353809D01*
X174616904Y-49972857D01*
X174569285Y-49877619D01*
X174521666Y-49830000D01*
X174426428Y-49782380D01*
X174235952Y-49782380D01*
X174140714Y-49830000D01*
X174093095Y-49877619D01*
X174045476Y-49972857D01*
X174045476Y-50210952D01*
X174093095Y-50306190D01*
X174140714Y-50353809D01*
X174235952Y-50401428D01*
X174426428Y-50401428D01*
X174521666Y-50353809D01*
X174569285Y-50306190D01*
X174616904Y-50210952D01*
X172712142Y-48877380D02*
X172378809Y-48401190D01*
X172140714Y-48877380D02*
X172140714Y-47877380D01*
X172521666Y-47877380D01*
X172616904Y-47925000D01*
X172664523Y-47972619D01*
X172712142Y-48067857D01*
X172712142Y-48210714D01*
X172664523Y-48305952D01*
X172616904Y-48353571D01*
X172521666Y-48401190D01*
X172140714Y-48401190D01*
X173616904Y-47877380D02*
X173140714Y-47877380D01*
X173093095Y-48353571D01*
X173140714Y-48305952D01*
X173235952Y-48258333D01*
X173474047Y-48258333D01*
X173569285Y-48305952D01*
X173616904Y-48353571D01*
X173664523Y-48448809D01*
X173664523Y-48686904D01*
X173616904Y-48782142D01*
X173569285Y-48829761D01*
X173474047Y-48877380D01*
X173235952Y-48877380D01*
X173140714Y-48829761D01*
X173093095Y-48782142D01*
X174283571Y-47877380D02*
X174378809Y-47877380D01*
X174474047Y-47925000D01*
X174521666Y-47972619D01*
X174569285Y-48067857D01*
X174616904Y-48258333D01*
X174616904Y-48496428D01*
X174569285Y-48686904D01*
X174521666Y-48782142D01*
X174474047Y-48829761D01*
X174378809Y-48877380D01*
X174283571Y-48877380D01*
X174188333Y-48829761D01*
X174140714Y-48782142D01*
X174093095Y-48686904D01*
X174045476Y-48496428D01*
X174045476Y-48258333D01*
X174093095Y-48067857D01*
X174140714Y-47972619D01*
X174188333Y-47925000D01*
X174283571Y-47877380D01*
X105918095Y-73602380D02*
X105918095Y-74411904D01*
X105965714Y-74507142D01*
X106013333Y-74554761D01*
X106108571Y-74602380D01*
X106299047Y-74602380D01*
X106394285Y-74554761D01*
X106441904Y-74507142D01*
X106489523Y-74411904D01*
X106489523Y-73602380D01*
X107489523Y-74602380D02*
X106918095Y-74602380D01*
X107203809Y-74602380D02*
X107203809Y-73602380D01*
X107108571Y-73745238D01*
X107013333Y-73840476D01*
X106918095Y-73888095D01*
X96393095Y-86937380D02*
X96393095Y-87746904D01*
X96440714Y-87842142D01*
X96488333Y-87889761D01*
X96583571Y-87937380D01*
X96774047Y-87937380D01*
X96869285Y-87889761D01*
X96916904Y-87842142D01*
X96964523Y-87746904D01*
X96964523Y-86937380D01*
X97393095Y-87032619D02*
X97440714Y-86985000D01*
X97535952Y-86937380D01*
X97774047Y-86937380D01*
X97869285Y-86985000D01*
X97916904Y-87032619D01*
X97964523Y-87127857D01*
X97964523Y-87223095D01*
X97916904Y-87365952D01*
X97345476Y-87937380D01*
X97964523Y-87937380D01*
X96393095Y-97732380D02*
X96393095Y-98541904D01*
X96440714Y-98637142D01*
X96488333Y-98684761D01*
X96583571Y-98732380D01*
X96774047Y-98732380D01*
X96869285Y-98684761D01*
X96916904Y-98637142D01*
X96964523Y-98541904D01*
X96964523Y-97732380D01*
X97345476Y-97732380D02*
X97964523Y-97732380D01*
X97631190Y-98113333D01*
X97774047Y-98113333D01*
X97869285Y-98160952D01*
X97916904Y-98208571D01*
X97964523Y-98303809D01*
X97964523Y-98541904D01*
X97916904Y-98637142D01*
X97869285Y-98684761D01*
X97774047Y-98732380D01*
X97488333Y-98732380D01*
X97393095Y-98684761D01*
X97345476Y-98637142D01*
X86868095Y-73602380D02*
X86868095Y-74411904D01*
X86915714Y-74507142D01*
X86963333Y-74554761D01*
X87058571Y-74602380D01*
X87249047Y-74602380D01*
X87344285Y-74554761D01*
X87391904Y-74507142D01*
X87439523Y-74411904D01*
X87439523Y-73602380D01*
X88344285Y-73935714D02*
X88344285Y-74602380D01*
X88106190Y-73554761D02*
X87868095Y-74269047D01*
X88487142Y-74269047D01*
X130048095Y-80897380D02*
X130048095Y-81706904D01*
X130095714Y-81802142D01*
X130143333Y-81849761D01*
X130238571Y-81897380D01*
X130429047Y-81897380D01*
X130524285Y-81849761D01*
X130571904Y-81802142D01*
X130619523Y-81706904D01*
X130619523Y-80897380D01*
X131571904Y-80897380D02*
X131095714Y-80897380D01*
X131048095Y-81373571D01*
X131095714Y-81325952D01*
X131190952Y-81278333D01*
X131429047Y-81278333D01*
X131524285Y-81325952D01*
X131571904Y-81373571D01*
X131619523Y-81468809D01*
X131619523Y-81706904D01*
X131571904Y-81802142D01*
X131524285Y-81849761D01*
X131429047Y-81897380D01*
X131190952Y-81897380D01*
X131095714Y-81849761D01*
X131048095Y-81802142D01*
X130048095Y-70737380D02*
X130048095Y-71546904D01*
X130095714Y-71642142D01*
X130143333Y-71689761D01*
X130238571Y-71737380D01*
X130429047Y-71737380D01*
X130524285Y-71689761D01*
X130571904Y-71642142D01*
X130619523Y-71546904D01*
X130619523Y-70737380D01*
X131524285Y-70737380D02*
X131333809Y-70737380D01*
X131238571Y-70785000D01*
X131190952Y-70832619D01*
X131095714Y-70975476D01*
X131048095Y-71165952D01*
X131048095Y-71546904D01*
X131095714Y-71642142D01*
X131143333Y-71689761D01*
X131238571Y-71737380D01*
X131429047Y-71737380D01*
X131524285Y-71689761D01*
X131571904Y-71642142D01*
X131619523Y-71546904D01*
X131619523Y-71308809D01*
X131571904Y-71213571D01*
X131524285Y-71165952D01*
X131429047Y-71118333D01*
X131238571Y-71118333D01*
X131143333Y-71165952D01*
X131095714Y-71213571D01*
X131048095Y-71308809D01*
X156083095Y-93907380D02*
X156083095Y-94716904D01*
X156130714Y-94812142D01*
X156178333Y-94859761D01*
X156273571Y-94907380D01*
X156464047Y-94907380D01*
X156559285Y-94859761D01*
X156606904Y-94812142D01*
X156654523Y-94716904D01*
X156654523Y-93907380D01*
X157035476Y-93907380D02*
X157702142Y-93907380D01*
X157273571Y-94907380D01*
X151638095Y-82477380D02*
X151638095Y-83286904D01*
X151685714Y-83382142D01*
X151733333Y-83429761D01*
X151828571Y-83477380D01*
X152019047Y-83477380D01*
X152114285Y-83429761D01*
X152161904Y-83382142D01*
X152209523Y-83286904D01*
X152209523Y-82477380D01*
X152828571Y-82905952D02*
X152733333Y-82858333D01*
X152685714Y-82810714D01*
X152638095Y-82715476D01*
X152638095Y-82667857D01*
X152685714Y-82572619D01*
X152733333Y-82525000D01*
X152828571Y-82477380D01*
X153019047Y-82477380D01*
X153114285Y-82525000D01*
X153161904Y-82572619D01*
X153209523Y-82667857D01*
X153209523Y-82715476D01*
X153161904Y-82810714D01*
X153114285Y-82858333D01*
X153019047Y-82905952D01*
X152828571Y-82905952D01*
X152733333Y-82953571D01*
X152685714Y-83001190D01*
X152638095Y-83096428D01*
X152638095Y-83286904D01*
X152685714Y-83382142D01*
X152733333Y-83429761D01*
X152828571Y-83477380D01*
X153019047Y-83477380D01*
X153114285Y-83429761D01*
X153161904Y-83382142D01*
X153209523Y-83286904D01*
X153209523Y-83096428D01*
X153161904Y-83001190D01*
X153114285Y-82953571D01*
X153019047Y-82905952D01*
X108418333Y-57037142D02*
X108370714Y-57084761D01*
X108227857Y-57132380D01*
X108132619Y-57132380D01*
X107989761Y-57084761D01*
X107894523Y-56989523D01*
X107846904Y-56894285D01*
X107799285Y-56703809D01*
X107799285Y-56560952D01*
X107846904Y-56370476D01*
X107894523Y-56275238D01*
X107989761Y-56180000D01*
X108132619Y-56132380D01*
X108227857Y-56132380D01*
X108370714Y-56180000D01*
X108418333Y-56227619D01*
X108799285Y-56227619D02*
X108846904Y-56180000D01*
X108942142Y-56132380D01*
X109180238Y-56132380D01*
X109275476Y-56180000D01*
X109323095Y-56227619D01*
X109370714Y-56322857D01*
X109370714Y-56418095D01*
X109323095Y-56560952D01*
X108751666Y-57132380D01*
X109370714Y-57132380D01*
X98893333Y-57037142D02*
X98845714Y-57084761D01*
X98702857Y-57132380D01*
X98607619Y-57132380D01*
X98464761Y-57084761D01*
X98369523Y-56989523D01*
X98321904Y-56894285D01*
X98274285Y-56703809D01*
X98274285Y-56560952D01*
X98321904Y-56370476D01*
X98369523Y-56275238D01*
X98464761Y-56180000D01*
X98607619Y-56132380D01*
X98702857Y-56132380D01*
X98845714Y-56180000D01*
X98893333Y-56227619D01*
X99750476Y-56465714D02*
X99750476Y-57132380D01*
X99512380Y-56084761D02*
X99274285Y-56799047D01*
X99893333Y-56799047D01*
X88257142Y-57037142D02*
X88209523Y-57084761D01*
X88066666Y-57132380D01*
X87971428Y-57132380D01*
X87828571Y-57084761D01*
X87733333Y-56989523D01*
X87685714Y-56894285D01*
X87638095Y-56703809D01*
X87638095Y-56560952D01*
X87685714Y-56370476D01*
X87733333Y-56275238D01*
X87828571Y-56180000D01*
X87971428Y-56132380D01*
X88066666Y-56132380D01*
X88209523Y-56180000D01*
X88257142Y-56227619D01*
X89209523Y-57132380D02*
X88638095Y-57132380D01*
X88923809Y-57132380D02*
X88923809Y-56132380D01*
X88828571Y-56275238D01*
X88733333Y-56370476D01*
X88638095Y-56418095D01*
X89828571Y-56132380D02*
X89923809Y-56132380D01*
X90019047Y-56180000D01*
X90066666Y-56227619D01*
X90114285Y-56322857D01*
X90161904Y-56513333D01*
X90161904Y-56751428D01*
X90114285Y-56941904D01*
X90066666Y-57037142D01*
X90019047Y-57084761D01*
X89923809Y-57132380D01*
X89828571Y-57132380D01*
X89733333Y-57084761D01*
X89685714Y-57037142D01*
X89638095Y-56941904D01*
X89590476Y-56751428D01*
X89590476Y-56513333D01*
X89638095Y-56322857D01*
X89685714Y-56227619D01*
X89733333Y-56180000D01*
X89828571Y-56132380D01*
X78732142Y-57037142D02*
X78684523Y-57084761D01*
X78541666Y-57132380D01*
X78446428Y-57132380D01*
X78303571Y-57084761D01*
X78208333Y-56989523D01*
X78160714Y-56894285D01*
X78113095Y-56703809D01*
X78113095Y-56560952D01*
X78160714Y-56370476D01*
X78208333Y-56275238D01*
X78303571Y-56180000D01*
X78446428Y-56132380D01*
X78541666Y-56132380D01*
X78684523Y-56180000D01*
X78732142Y-56227619D01*
X79684523Y-57132380D02*
X79113095Y-57132380D01*
X79398809Y-57132380D02*
X79398809Y-56132380D01*
X79303571Y-56275238D01*
X79208333Y-56370476D01*
X79113095Y-56418095D01*
X80065476Y-56227619D02*
X80113095Y-56180000D01*
X80208333Y-56132380D01*
X80446428Y-56132380D01*
X80541666Y-56180000D01*
X80589285Y-56227619D01*
X80636904Y-56322857D01*
X80636904Y-56418095D01*
X80589285Y-56560952D01*
X80017857Y-57132380D01*
X80636904Y-57132380D01*
M02*
