M48
;DRILL file {KiCad 5.0.1} date Mon 31 Dec 2018 03:50:20 PM EST
;FORMAT={-:-/ absolute / inch / decimal}
FMAT,2
INCH,TZ
T1C0.0157
T2C0.0315
T3C0.0394
T4C0.0437
T5C0.0472
T6C0.0512
T7C0.1772
%
G90
G05
M72
T1
X3.225Y-1.9815
X3.5191Y-2.0065
X3.6Y-2.9065
X3.625Y-2.7315
X3.675Y-3.1315
X4.Y-2.0065
X4.Y-2.6815
X4.075Y-2.9315
X4.1Y-3.0815
X4.2941Y-2.0065
X4.375Y-2.7315
X4.825Y-3.2315
X4.825Y-3.4315
X4.825Y-3.8815
X4.8625Y-3.019
X4.875Y-2.6315
X5.15Y-3.4815
X5.1625Y-3.094
X5.375Y-2.7815
X5.475Y-3.6065
X5.475Y-3.8565
X5.65Y-2.0315
X5.8Y-3.5065
X5.8Y-3.7565
X5.825Y-4.0565
X5.875Y-2.0315
X5.9Y-3.4565
X6.Y-4.0565
X6.175Y-4.0065
X6.225Y-3.5565
X6.25Y-3.9565
X6.35Y-2.0315
X6.675Y-2.0315
T2
X5.975Y-2.3815
X5.975Y-2.5783
X3.425Y-3.9315
X3.425Y-4.0299
X4.275Y-3.9065
X4.275Y-4.0049
X5.5Y-4.1528
X5.5Y-4.2315
X5.0766Y-2.1065
X5.175Y-2.1065
X4.Y-2.3437
X4.Y-2.4815
X3.625Y-2.3437
X3.625Y-2.4815
X3.25Y-2.3437
X3.25Y-2.4815
X5.1Y-4.7831
X5.1Y-4.8815
X4.375Y-2.3437
X4.375Y-2.4815
X5.4Y-2.3815
X5.4Y-2.5783
X5.1Y-4.4331
X5.1Y-4.5315
X5.1Y-4.1528
X5.1Y-4.2315
X6.6Y-2.3815
X6.6Y-2.5783
X6.075Y-3.0065
X6.2719Y-3.0065
X4.6266Y-2.1065
X4.725Y-2.1065
T3
X5.6Y-3.1565
X6.575Y-2.0815
X5.625Y-2.1315
X5.8Y-2.1315
X4.075Y-3.6815
X4.375Y-3.3815
X6.5425Y-3.2134
X6.4Y-2.1065
X3.525Y-3.6065
X3.275Y-3.2315
X4.725Y-3.5815
X5.65Y-3.8565
X3.225Y-2.7065
X4.325Y-3.0565
T4
X5.9134Y-4.1984
X5.9134Y-4.5984
X6.0134Y-4.1984
X6.0134Y-4.5984
X6.1134Y-4.1984
X6.1134Y-4.5984
X3.8268Y-4.1984
X3.8268Y-4.5984
X3.9268Y-4.1984
X3.9268Y-4.5984
X4.0268Y-4.1984
X4.0268Y-4.5984
T5
X3.2906Y-1.7431
X3.3906Y-1.7431
X3.4906Y-1.7431
X3.5906Y-1.7431
X3.9992Y-1.7431
X4.0992Y-1.7431
X4.1992Y-1.7431
X4.2992Y-1.7431
X6.337Y-1.725
X6.437Y-1.725
X6.537Y-1.725
X6.637Y-1.725
X5.6283Y-1.725
X5.7283Y-1.725
X5.8283Y-1.725
X5.9283Y-1.725
T6
X4.7717Y-1.7565
X4.9685Y-1.7565
X5.1654Y-1.7565
T7
X3.275Y-4.7565
X6.6614Y-4.7565
X3.2756Y-1.3307
X6.6614Y-1.3307
T0
M30
