G04 #@! TF.GenerationSoftware,KiCad,Pcbnew,5.0.1*
G04 #@! TF.CreationDate,2018-12-31T15:50:12-05:00*
G04 #@! TF.ProjectId,balanced_amplifier,62616C616E6365645F616D706C696669,rev?*
G04 #@! TF.SameCoordinates,Original*
G04 #@! TF.FileFunction,Soldermask,Bot*
G04 #@! TF.FilePolarity,Negative*
%FSLAX46Y46*%
G04 Gerber Fmt 4.6, Leading zero omitted, Abs format (unit mm)*
G04 Created by KiCad (PCBNEW 5.0.1) date Mon 31 Dec 2018 03:50:12 PM EST*
%MOMM*%
%LPD*%
G01*
G04 APERTURE LIST*
%ADD10C,0.100000*%
G04 APERTURE END LIST*
D10*
G36*
X170527475Y-116438892D02*
X170527477Y-116438893D01*
X170527478Y-116438893D01*
X171355707Y-116781956D01*
X172097727Y-117277759D01*
X172101096Y-117280010D01*
X172734990Y-117913904D01*
X172734992Y-117913907D01*
X173233044Y-118659293D01*
X173576107Y-119487522D01*
X173576108Y-119487525D01*
X173751000Y-120366764D01*
X173751000Y-121263236D01*
X173689222Y-121573816D01*
X173576107Y-122142478D01*
X173233044Y-122970707D01*
X172737241Y-123712727D01*
X172734990Y-123716096D01*
X172101096Y-124349990D01*
X172101093Y-124349992D01*
X171355707Y-124848044D01*
X170527478Y-125191107D01*
X170527477Y-125191107D01*
X170527475Y-125191108D01*
X169648236Y-125366000D01*
X168751764Y-125366000D01*
X167872525Y-125191108D01*
X167872523Y-125191107D01*
X167872522Y-125191107D01*
X167044293Y-124848044D01*
X166298907Y-124349992D01*
X166298904Y-124349990D01*
X165665010Y-123716096D01*
X165662759Y-123712727D01*
X165166956Y-122970707D01*
X164823893Y-122142478D01*
X164710779Y-121573816D01*
X164649000Y-121263236D01*
X164649000Y-120366764D01*
X164823892Y-119487525D01*
X164823893Y-119487522D01*
X165166956Y-118659293D01*
X165665008Y-117913907D01*
X165665010Y-117913904D01*
X166298904Y-117280010D01*
X166302273Y-117277759D01*
X167044293Y-116781956D01*
X167872522Y-116438893D01*
X167872523Y-116438893D01*
X167872525Y-116438892D01*
X168751764Y-116264000D01*
X169648236Y-116264000D01*
X170527475Y-116438892D01*
X170527475Y-116438892D01*
G37*
G36*
X84512475Y-116438892D02*
X84512477Y-116438893D01*
X84512478Y-116438893D01*
X85340707Y-116781956D01*
X86082727Y-117277759D01*
X86086096Y-117280010D01*
X86719990Y-117913904D01*
X86719992Y-117913907D01*
X87218044Y-118659293D01*
X87561107Y-119487522D01*
X87561108Y-119487525D01*
X87736000Y-120366764D01*
X87736000Y-121263236D01*
X87674222Y-121573816D01*
X87561107Y-122142478D01*
X87218044Y-122970707D01*
X86722241Y-123712727D01*
X86719990Y-123716096D01*
X86086096Y-124349990D01*
X86086093Y-124349992D01*
X85340707Y-124848044D01*
X84512478Y-125191107D01*
X84512477Y-125191107D01*
X84512475Y-125191108D01*
X83633236Y-125366000D01*
X82736764Y-125366000D01*
X81857525Y-125191108D01*
X81857523Y-125191107D01*
X81857522Y-125191107D01*
X81029293Y-124848044D01*
X80283907Y-124349992D01*
X80283904Y-124349990D01*
X79650010Y-123716096D01*
X79647759Y-123712727D01*
X79151956Y-122970707D01*
X78808893Y-122142478D01*
X78695779Y-121573816D01*
X78634000Y-121263236D01*
X78634000Y-120366764D01*
X78808892Y-119487525D01*
X78808893Y-119487522D01*
X79151956Y-118659293D01*
X79650008Y-117913907D01*
X79650010Y-117913904D01*
X80283904Y-117280010D01*
X80287273Y-117277759D01*
X81029293Y-116781956D01*
X81857522Y-116438893D01*
X81857523Y-116438893D01*
X81857525Y-116438892D01*
X82736764Y-116264000D01*
X83633236Y-116264000D01*
X84512475Y-116438892D01*
X84512475Y-116438892D01*
G37*
G36*
X130391000Y-124841000D02*
X128689000Y-124841000D01*
X128689000Y-123139000D01*
X130391000Y-123139000D01*
X130391000Y-124841000D01*
X130391000Y-124841000D01*
G37*
G36*
X129788228Y-120671703D02*
X129943100Y-120735853D01*
X130082481Y-120828985D01*
X130201015Y-120947519D01*
X130294147Y-121086900D01*
X130358297Y-121241772D01*
X130391000Y-121406184D01*
X130391000Y-121573816D01*
X130358297Y-121738228D01*
X130294147Y-121893100D01*
X130201015Y-122032481D01*
X130082481Y-122151015D01*
X129943100Y-122244147D01*
X129788228Y-122308297D01*
X129623816Y-122341000D01*
X129456184Y-122341000D01*
X129291772Y-122308297D01*
X129136900Y-122244147D01*
X128997519Y-122151015D01*
X128878985Y-122032481D01*
X128785853Y-121893100D01*
X128721703Y-121738228D01*
X128689000Y-121573816D01*
X128689000Y-121406184D01*
X128721703Y-121241772D01*
X128785853Y-121086900D01*
X128878985Y-120947519D01*
X128997519Y-120828985D01*
X129136900Y-120735853D01*
X129291772Y-120671703D01*
X129456184Y-120639000D01*
X129623816Y-120639000D01*
X129788228Y-120671703D01*
X129788228Y-120671703D01*
G37*
G36*
X155586565Y-115789389D02*
X155777834Y-115868615D01*
X155949976Y-115983637D01*
X156096363Y-116130024D01*
X156211385Y-116302166D01*
X156290611Y-116493435D01*
X156331000Y-116696484D01*
X156331000Y-116903516D01*
X156290611Y-117106565D01*
X156211385Y-117297834D01*
X156096363Y-117469976D01*
X155949976Y-117616363D01*
X155777834Y-117731385D01*
X155586565Y-117810611D01*
X155383516Y-117851000D01*
X155176484Y-117851000D01*
X154973435Y-117810611D01*
X154782166Y-117731385D01*
X154610024Y-117616363D01*
X154463637Y-117469976D01*
X154348615Y-117297834D01*
X154269389Y-117106565D01*
X154229000Y-116903516D01*
X154229000Y-116696484D01*
X154269389Y-116493435D01*
X154348615Y-116302166D01*
X154463637Y-116130024D01*
X154610024Y-115983637D01*
X154782166Y-115868615D01*
X154973435Y-115789389D01*
X155176484Y-115749000D01*
X155383516Y-115749000D01*
X155586565Y-115789389D01*
X155586565Y-115789389D01*
G37*
G36*
X153046565Y-115789389D02*
X153237834Y-115868615D01*
X153409976Y-115983637D01*
X153556363Y-116130024D01*
X153671385Y-116302166D01*
X153750611Y-116493435D01*
X153791000Y-116696484D01*
X153791000Y-116903516D01*
X153750611Y-117106565D01*
X153671385Y-117297834D01*
X153556363Y-117469976D01*
X153409976Y-117616363D01*
X153237834Y-117731385D01*
X153046565Y-117810611D01*
X152843516Y-117851000D01*
X152636484Y-117851000D01*
X152433435Y-117810611D01*
X152242166Y-117731385D01*
X152070024Y-117616363D01*
X151923637Y-117469976D01*
X151808615Y-117297834D01*
X151729389Y-117106565D01*
X151689000Y-116903516D01*
X151689000Y-116696484D01*
X151729389Y-116493435D01*
X151808615Y-116302166D01*
X151923637Y-116130024D01*
X152070024Y-115983637D01*
X152242166Y-115868615D01*
X152433435Y-115789389D01*
X152636484Y-115749000D01*
X152843516Y-115749000D01*
X153046565Y-115789389D01*
X153046565Y-115789389D01*
G37*
G36*
X150506565Y-115789389D02*
X150697834Y-115868615D01*
X150869976Y-115983637D01*
X151016363Y-116130024D01*
X151131385Y-116302166D01*
X151210611Y-116493435D01*
X151251000Y-116696484D01*
X151251000Y-116903516D01*
X151210611Y-117106565D01*
X151131385Y-117297834D01*
X151016363Y-117469976D01*
X150869976Y-117616363D01*
X150697834Y-117731385D01*
X150506565Y-117810611D01*
X150303516Y-117851000D01*
X150096484Y-117851000D01*
X149893435Y-117810611D01*
X149702166Y-117731385D01*
X149530024Y-117616363D01*
X149383637Y-117469976D01*
X149268615Y-117297834D01*
X149189389Y-117106565D01*
X149149000Y-116903516D01*
X149149000Y-116696484D01*
X149189389Y-116493435D01*
X149268615Y-116302166D01*
X149383637Y-116130024D01*
X149530024Y-115983637D01*
X149702166Y-115868615D01*
X149893435Y-115789389D01*
X150096484Y-115749000D01*
X150303516Y-115749000D01*
X150506565Y-115789389D01*
X150506565Y-115789389D01*
G37*
G36*
X97506565Y-115789389D02*
X97697834Y-115868615D01*
X97869976Y-115983637D01*
X98016363Y-116130024D01*
X98131385Y-116302166D01*
X98210611Y-116493435D01*
X98251000Y-116696484D01*
X98251000Y-116903516D01*
X98210611Y-117106565D01*
X98131385Y-117297834D01*
X98016363Y-117469976D01*
X97869976Y-117616363D01*
X97697834Y-117731385D01*
X97506565Y-117810611D01*
X97303516Y-117851000D01*
X97096484Y-117851000D01*
X96893435Y-117810611D01*
X96702166Y-117731385D01*
X96530024Y-117616363D01*
X96383637Y-117469976D01*
X96268615Y-117297834D01*
X96189389Y-117106565D01*
X96149000Y-116903516D01*
X96149000Y-116696484D01*
X96189389Y-116493435D01*
X96268615Y-116302166D01*
X96383637Y-116130024D01*
X96530024Y-115983637D01*
X96702166Y-115868615D01*
X96893435Y-115789389D01*
X97096484Y-115749000D01*
X97303516Y-115749000D01*
X97506565Y-115789389D01*
X97506565Y-115789389D01*
G37*
G36*
X100046565Y-115789389D02*
X100237834Y-115868615D01*
X100409976Y-115983637D01*
X100556363Y-116130024D01*
X100671385Y-116302166D01*
X100750611Y-116493435D01*
X100791000Y-116696484D01*
X100791000Y-116903516D01*
X100750611Y-117106565D01*
X100671385Y-117297834D01*
X100556363Y-117469976D01*
X100409976Y-117616363D01*
X100237834Y-117731385D01*
X100046565Y-117810611D01*
X99843516Y-117851000D01*
X99636484Y-117851000D01*
X99433435Y-117810611D01*
X99242166Y-117731385D01*
X99070024Y-117616363D01*
X98923637Y-117469976D01*
X98808615Y-117297834D01*
X98729389Y-117106565D01*
X98689000Y-116903516D01*
X98689000Y-116696484D01*
X98729389Y-116493435D01*
X98808615Y-116302166D01*
X98923637Y-116130024D01*
X99070024Y-115983637D01*
X99242166Y-115868615D01*
X99433435Y-115789389D01*
X99636484Y-115749000D01*
X99843516Y-115749000D01*
X100046565Y-115789389D01*
X100046565Y-115789389D01*
G37*
G36*
X102586565Y-115789389D02*
X102777834Y-115868615D01*
X102949976Y-115983637D01*
X103096363Y-116130024D01*
X103211385Y-116302166D01*
X103290611Y-116493435D01*
X103331000Y-116696484D01*
X103331000Y-116903516D01*
X103290611Y-117106565D01*
X103211385Y-117297834D01*
X103096363Y-117469976D01*
X102949976Y-117616363D01*
X102777834Y-117731385D01*
X102586565Y-117810611D01*
X102383516Y-117851000D01*
X102176484Y-117851000D01*
X101973435Y-117810611D01*
X101782166Y-117731385D01*
X101610024Y-117616363D01*
X101463637Y-117469976D01*
X101348615Y-117297834D01*
X101269389Y-117106565D01*
X101229000Y-116903516D01*
X101229000Y-116696484D01*
X101269389Y-116493435D01*
X101348615Y-116302166D01*
X101463637Y-116130024D01*
X101610024Y-115983637D01*
X101782166Y-115868615D01*
X101973435Y-115789389D01*
X102176484Y-115749000D01*
X102383516Y-115749000D01*
X102586565Y-115789389D01*
X102586565Y-115789389D01*
G37*
G36*
X130391000Y-115951000D02*
X128689000Y-115951000D01*
X128689000Y-114249000D01*
X130391000Y-114249000D01*
X130391000Y-115951000D01*
X130391000Y-115951000D01*
G37*
G36*
X129788228Y-111781703D02*
X129943100Y-111845853D01*
X130082481Y-111938985D01*
X130201015Y-112057519D01*
X130294147Y-112196900D01*
X130358297Y-112351772D01*
X130391000Y-112516184D01*
X130391000Y-112683816D01*
X130358297Y-112848228D01*
X130294147Y-113003100D01*
X130201015Y-113142481D01*
X130082481Y-113261015D01*
X129943100Y-113354147D01*
X129788228Y-113418297D01*
X129623816Y-113451000D01*
X129456184Y-113451000D01*
X129291772Y-113418297D01*
X129136900Y-113354147D01*
X128997519Y-113261015D01*
X128878985Y-113142481D01*
X128785853Y-113003100D01*
X128721703Y-112848228D01*
X128689000Y-112683816D01*
X128689000Y-112516184D01*
X128721703Y-112351772D01*
X128785853Y-112196900D01*
X128878985Y-112057519D01*
X128997519Y-111938985D01*
X129136900Y-111845853D01*
X129291772Y-111781703D01*
X129456184Y-111749000D01*
X129623816Y-111749000D01*
X129788228Y-111781703D01*
X129788228Y-111781703D01*
G37*
G36*
X140551000Y-108331000D02*
X138849000Y-108331000D01*
X138849000Y-106629000D01*
X140551000Y-106629000D01*
X140551000Y-108331000D01*
X140551000Y-108331000D01*
G37*
G36*
X130391000Y-108331000D02*
X128689000Y-108331000D01*
X128689000Y-106629000D01*
X130391000Y-106629000D01*
X130391000Y-108331000D01*
X130391000Y-108331000D01*
G37*
G36*
X155586565Y-105629389D02*
X155777834Y-105708615D01*
X155949976Y-105823637D01*
X156096363Y-105970024D01*
X156211385Y-106142166D01*
X156290611Y-106333435D01*
X156331000Y-106536484D01*
X156331000Y-106743516D01*
X156290611Y-106946565D01*
X156211385Y-107137834D01*
X156096363Y-107309976D01*
X155949976Y-107456363D01*
X155777834Y-107571385D01*
X155586565Y-107650611D01*
X155383516Y-107691000D01*
X155176484Y-107691000D01*
X154973435Y-107650611D01*
X154782166Y-107571385D01*
X154610024Y-107456363D01*
X154463637Y-107309976D01*
X154348615Y-107137834D01*
X154269389Y-106946565D01*
X154229000Y-106743516D01*
X154229000Y-106536484D01*
X154269389Y-106333435D01*
X154348615Y-106142166D01*
X154463637Y-105970024D01*
X154610024Y-105823637D01*
X154782166Y-105708615D01*
X154973435Y-105629389D01*
X155176484Y-105589000D01*
X155383516Y-105589000D01*
X155586565Y-105629389D01*
X155586565Y-105629389D01*
G37*
G36*
X153046565Y-105629389D02*
X153237834Y-105708615D01*
X153409976Y-105823637D01*
X153556363Y-105970024D01*
X153671385Y-106142166D01*
X153750611Y-106333435D01*
X153791000Y-106536484D01*
X153791000Y-106743516D01*
X153750611Y-106946565D01*
X153671385Y-107137834D01*
X153556363Y-107309976D01*
X153409976Y-107456363D01*
X153237834Y-107571385D01*
X153046565Y-107650611D01*
X152843516Y-107691000D01*
X152636484Y-107691000D01*
X152433435Y-107650611D01*
X152242166Y-107571385D01*
X152070024Y-107456363D01*
X151923637Y-107309976D01*
X151808615Y-107137834D01*
X151729389Y-106946565D01*
X151689000Y-106743516D01*
X151689000Y-106536484D01*
X151729389Y-106333435D01*
X151808615Y-106142166D01*
X151923637Y-105970024D01*
X152070024Y-105823637D01*
X152242166Y-105708615D01*
X152433435Y-105629389D01*
X152636484Y-105589000D01*
X152843516Y-105589000D01*
X153046565Y-105629389D01*
X153046565Y-105629389D01*
G37*
G36*
X150506565Y-105629389D02*
X150697834Y-105708615D01*
X150869976Y-105823637D01*
X151016363Y-105970024D01*
X151131385Y-106142166D01*
X151210611Y-106333435D01*
X151251000Y-106536484D01*
X151251000Y-106743516D01*
X151210611Y-106946565D01*
X151131385Y-107137834D01*
X151016363Y-107309976D01*
X150869976Y-107456363D01*
X150697834Y-107571385D01*
X150506565Y-107650611D01*
X150303516Y-107691000D01*
X150096484Y-107691000D01*
X149893435Y-107650611D01*
X149702166Y-107571385D01*
X149530024Y-107456363D01*
X149383637Y-107309976D01*
X149268615Y-107137834D01*
X149189389Y-106946565D01*
X149149000Y-106743516D01*
X149149000Y-106536484D01*
X149189389Y-106333435D01*
X149268615Y-106142166D01*
X149383637Y-105970024D01*
X149530024Y-105823637D01*
X149702166Y-105708615D01*
X149893435Y-105629389D01*
X150096484Y-105589000D01*
X150303516Y-105589000D01*
X150506565Y-105629389D01*
X150506565Y-105629389D01*
G37*
G36*
X102586565Y-105629389D02*
X102777834Y-105708615D01*
X102949976Y-105823637D01*
X103096363Y-105970024D01*
X103211385Y-106142166D01*
X103290611Y-106333435D01*
X103331000Y-106536484D01*
X103331000Y-106743516D01*
X103290611Y-106946565D01*
X103211385Y-107137834D01*
X103096363Y-107309976D01*
X102949976Y-107456363D01*
X102777834Y-107571385D01*
X102586565Y-107650611D01*
X102383516Y-107691000D01*
X102176484Y-107691000D01*
X101973435Y-107650611D01*
X101782166Y-107571385D01*
X101610024Y-107456363D01*
X101463637Y-107309976D01*
X101348615Y-107137834D01*
X101269389Y-106946565D01*
X101229000Y-106743516D01*
X101229000Y-106536484D01*
X101269389Y-106333435D01*
X101348615Y-106142166D01*
X101463637Y-105970024D01*
X101610024Y-105823637D01*
X101782166Y-105708615D01*
X101973435Y-105629389D01*
X102176484Y-105589000D01*
X102383516Y-105589000D01*
X102586565Y-105629389D01*
X102586565Y-105629389D01*
G37*
G36*
X100046565Y-105629389D02*
X100237834Y-105708615D01*
X100409976Y-105823637D01*
X100556363Y-105970024D01*
X100671385Y-106142166D01*
X100750611Y-106333435D01*
X100791000Y-106536484D01*
X100791000Y-106743516D01*
X100750611Y-106946565D01*
X100671385Y-107137834D01*
X100556363Y-107309976D01*
X100409976Y-107456363D01*
X100237834Y-107571385D01*
X100046565Y-107650611D01*
X99843516Y-107691000D01*
X99636484Y-107691000D01*
X99433435Y-107650611D01*
X99242166Y-107571385D01*
X99070024Y-107456363D01*
X98923637Y-107309976D01*
X98808615Y-107137834D01*
X98729389Y-106946565D01*
X98689000Y-106743516D01*
X98689000Y-106536484D01*
X98729389Y-106333435D01*
X98808615Y-106142166D01*
X98923637Y-105970024D01*
X99070024Y-105823637D01*
X99242166Y-105708615D01*
X99433435Y-105629389D01*
X99636484Y-105589000D01*
X99843516Y-105589000D01*
X100046565Y-105629389D01*
X100046565Y-105629389D01*
G37*
G36*
X97506565Y-105629389D02*
X97697834Y-105708615D01*
X97869976Y-105823637D01*
X98016363Y-105970024D01*
X98131385Y-106142166D01*
X98210611Y-106333435D01*
X98251000Y-106536484D01*
X98251000Y-106743516D01*
X98210611Y-106946565D01*
X98131385Y-107137834D01*
X98016363Y-107309976D01*
X97869976Y-107456363D01*
X97697834Y-107571385D01*
X97506565Y-107650611D01*
X97303516Y-107691000D01*
X97096484Y-107691000D01*
X96893435Y-107650611D01*
X96702166Y-107571385D01*
X96530024Y-107456363D01*
X96383637Y-107309976D01*
X96268615Y-107137834D01*
X96189389Y-106946565D01*
X96149000Y-106743516D01*
X96149000Y-106536484D01*
X96189389Y-106333435D01*
X96268615Y-106142166D01*
X96383637Y-105970024D01*
X96530024Y-105823637D01*
X96702166Y-105708615D01*
X96893435Y-105629389D01*
X97096484Y-105589000D01*
X97303516Y-105589000D01*
X97506565Y-105629389D01*
X97506565Y-105629389D01*
G37*
G36*
X139948228Y-104661703D02*
X140103100Y-104725853D01*
X140242481Y-104818985D01*
X140361015Y-104937519D01*
X140454147Y-105076900D01*
X140518297Y-105231772D01*
X140551000Y-105396184D01*
X140551000Y-105563816D01*
X140518297Y-105728228D01*
X140454147Y-105883100D01*
X140361015Y-106022481D01*
X140242481Y-106141015D01*
X140103100Y-106234147D01*
X139948228Y-106298297D01*
X139783816Y-106331000D01*
X139616184Y-106331000D01*
X139451772Y-106298297D01*
X139296900Y-106234147D01*
X139157519Y-106141015D01*
X139038985Y-106022481D01*
X138945853Y-105883100D01*
X138881703Y-105728228D01*
X138849000Y-105563816D01*
X138849000Y-105396184D01*
X138881703Y-105231772D01*
X138945853Y-105076900D01*
X139038985Y-104937519D01*
X139157519Y-104818985D01*
X139296900Y-104725853D01*
X139451772Y-104661703D01*
X139616184Y-104629000D01*
X139783816Y-104629000D01*
X139948228Y-104661703D01*
X139948228Y-104661703D01*
G37*
G36*
X129788228Y-104661703D02*
X129943100Y-104725853D01*
X130082481Y-104818985D01*
X130201015Y-104937519D01*
X130294147Y-105076900D01*
X130358297Y-105231772D01*
X130391000Y-105396184D01*
X130391000Y-105563816D01*
X130358297Y-105728228D01*
X130294147Y-105883100D01*
X130201015Y-106022481D01*
X130082481Y-106141015D01*
X129943100Y-106234147D01*
X129788228Y-106298297D01*
X129623816Y-106331000D01*
X129456184Y-106331000D01*
X129291772Y-106298297D01*
X129136900Y-106234147D01*
X128997519Y-106141015D01*
X128878985Y-106022481D01*
X128785853Y-105883100D01*
X128721703Y-105728228D01*
X128689000Y-105563816D01*
X128689000Y-105396184D01*
X128721703Y-105231772D01*
X128785853Y-105076900D01*
X128878985Y-104937519D01*
X128997519Y-104818985D01*
X129136900Y-104725853D01*
X129291772Y-104661703D01*
X129456184Y-104629000D01*
X129623816Y-104629000D01*
X129788228Y-104661703D01*
X129788228Y-104661703D01*
G37*
G36*
X87243228Y-101541703D02*
X87398100Y-101605853D01*
X87537481Y-101698985D01*
X87656015Y-101817519D01*
X87749147Y-101956900D01*
X87813297Y-102111772D01*
X87846000Y-102276184D01*
X87846000Y-102443816D01*
X87813297Y-102608228D01*
X87749147Y-102763100D01*
X87656015Y-102902481D01*
X87537481Y-103021015D01*
X87398100Y-103114147D01*
X87243228Y-103178297D01*
X87078816Y-103211000D01*
X86911184Y-103211000D01*
X86746772Y-103178297D01*
X86591900Y-103114147D01*
X86452519Y-103021015D01*
X86333985Y-102902481D01*
X86240853Y-102763100D01*
X86176703Y-102608228D01*
X86144000Y-102443816D01*
X86144000Y-102276184D01*
X86176703Y-102111772D01*
X86240853Y-101956900D01*
X86333985Y-101817519D01*
X86452519Y-101698985D01*
X86591900Y-101605853D01*
X86746772Y-101541703D01*
X86911184Y-101509000D01*
X87078816Y-101509000D01*
X87243228Y-101541703D01*
X87243228Y-101541703D01*
G37*
G36*
X108833228Y-100906703D02*
X108988100Y-100970853D01*
X109127481Y-101063985D01*
X109246015Y-101182519D01*
X109339147Y-101321900D01*
X109403297Y-101476772D01*
X109436000Y-101641184D01*
X109436000Y-101808816D01*
X109403297Y-101973228D01*
X109339147Y-102128100D01*
X109246015Y-102267481D01*
X109127481Y-102386015D01*
X108988100Y-102479147D01*
X108833228Y-102543297D01*
X108668816Y-102576000D01*
X108501184Y-102576000D01*
X108336772Y-102543297D01*
X108181900Y-102479147D01*
X108042519Y-102386015D01*
X107923985Y-102267481D01*
X107830853Y-102128100D01*
X107766703Y-101973228D01*
X107734000Y-101808816D01*
X107734000Y-101641184D01*
X107766703Y-101476772D01*
X107830853Y-101321900D01*
X107923985Y-101182519D01*
X108042519Y-101063985D01*
X108181900Y-100970853D01*
X108336772Y-100906703D01*
X108501184Y-100874000D01*
X108668816Y-100874000D01*
X108833228Y-100906703D01*
X108833228Y-100906703D01*
G37*
G36*
X87846000Y-100711000D02*
X86144000Y-100711000D01*
X86144000Y-99009000D01*
X87846000Y-99009000D01*
X87846000Y-100711000D01*
X87846000Y-100711000D01*
G37*
G36*
X109436000Y-100076000D02*
X107734000Y-100076000D01*
X107734000Y-98374000D01*
X109436000Y-98374000D01*
X109436000Y-100076000D01*
X109436000Y-100076000D01*
G37*
G36*
X143816565Y-96944389D02*
X144007834Y-97023615D01*
X144179976Y-97138637D01*
X144326363Y-97285024D01*
X144441385Y-97457166D01*
X144520611Y-97648435D01*
X144561000Y-97851484D01*
X144561000Y-98058516D01*
X144520611Y-98261565D01*
X144441385Y-98452834D01*
X144326363Y-98624976D01*
X144179976Y-98771363D01*
X144007834Y-98886385D01*
X143816565Y-98965611D01*
X143613516Y-99006000D01*
X143406484Y-99006000D01*
X143203435Y-98965611D01*
X143012166Y-98886385D01*
X142840024Y-98771363D01*
X142693637Y-98624976D01*
X142578615Y-98452834D01*
X142499389Y-98261565D01*
X142459000Y-98058516D01*
X142459000Y-97851484D01*
X142499389Y-97648435D01*
X142578615Y-97457166D01*
X142693637Y-97285024D01*
X142840024Y-97138637D01*
X143012166Y-97023615D01*
X143203435Y-96944389D01*
X143406484Y-96904000D01*
X143613516Y-96904000D01*
X143816565Y-96944389D01*
X143816565Y-96944389D01*
G37*
G36*
X103811565Y-92499389D02*
X104002834Y-92578615D01*
X104174976Y-92693637D01*
X104321363Y-92840024D01*
X104436385Y-93012166D01*
X104515611Y-93203435D01*
X104556000Y-93406484D01*
X104556000Y-93613516D01*
X104515611Y-93816565D01*
X104436385Y-94007834D01*
X104321363Y-94179976D01*
X104174976Y-94326363D01*
X104002834Y-94441385D01*
X103811565Y-94520611D01*
X103608516Y-94561000D01*
X103401484Y-94561000D01*
X103198435Y-94520611D01*
X103007166Y-94441385D01*
X102835024Y-94326363D01*
X102688637Y-94179976D01*
X102573615Y-94007834D01*
X102494389Y-93816565D01*
X102454000Y-93613516D01*
X102454000Y-93406484D01*
X102494389Y-93203435D01*
X102573615Y-93012166D01*
X102688637Y-92840024D01*
X102835024Y-92693637D01*
X103007166Y-92578615D01*
X103198435Y-92499389D01*
X103401484Y-92459000D01*
X103608516Y-92459000D01*
X103811565Y-92499389D01*
X103811565Y-92499389D01*
G37*
G36*
X89841565Y-90594389D02*
X90032834Y-90673615D01*
X90204976Y-90788637D01*
X90351363Y-90935024D01*
X90466385Y-91107166D01*
X90545611Y-91298435D01*
X90586000Y-91501484D01*
X90586000Y-91708516D01*
X90545611Y-91911565D01*
X90466385Y-92102834D01*
X90351363Y-92274976D01*
X90204976Y-92421363D01*
X90032834Y-92536385D01*
X89841565Y-92615611D01*
X89638516Y-92656000D01*
X89431484Y-92656000D01*
X89228435Y-92615611D01*
X89037166Y-92536385D01*
X88865024Y-92421363D01*
X88718637Y-92274976D01*
X88603615Y-92102834D01*
X88524389Y-91911565D01*
X88484000Y-91708516D01*
X88484000Y-91501484D01*
X88524389Y-91298435D01*
X88603615Y-91107166D01*
X88718637Y-90935024D01*
X88865024Y-90788637D01*
X89037166Y-90673615D01*
X89228435Y-90594389D01*
X89431484Y-90554000D01*
X89638516Y-90554000D01*
X89841565Y-90594389D01*
X89841565Y-90594389D01*
G37*
G36*
X120321565Y-89959389D02*
X120512834Y-90038615D01*
X120684976Y-90153637D01*
X120831363Y-90300024D01*
X120946385Y-90472166D01*
X121025611Y-90663435D01*
X121066000Y-90866484D01*
X121066000Y-91073516D01*
X121025611Y-91276565D01*
X120946385Y-91467834D01*
X120831363Y-91639976D01*
X120684976Y-91786363D01*
X120512834Y-91901385D01*
X120321565Y-91980611D01*
X120118516Y-92021000D01*
X119911484Y-92021000D01*
X119708435Y-91980611D01*
X119517166Y-91901385D01*
X119345024Y-91786363D01*
X119198637Y-91639976D01*
X119083615Y-91467834D01*
X119004389Y-91276565D01*
X118964000Y-91073516D01*
X118964000Y-90866484D01*
X119004389Y-90663435D01*
X119083615Y-90472166D01*
X119198637Y-90300024D01*
X119345024Y-90153637D01*
X119517166Y-90038615D01*
X119708435Y-89959389D01*
X119911484Y-89919000D01*
X120118516Y-89919000D01*
X120321565Y-89959389D01*
X120321565Y-89959389D01*
G37*
G36*
X111431565Y-84879389D02*
X111622834Y-84958615D01*
X111794976Y-85073637D01*
X111941363Y-85220024D01*
X112056385Y-85392166D01*
X112135611Y-85583435D01*
X112176000Y-85786484D01*
X112176000Y-85993516D01*
X112135611Y-86196565D01*
X112056385Y-86387834D01*
X111941363Y-86559976D01*
X111794976Y-86706363D01*
X111622834Y-86821385D01*
X111431565Y-86900611D01*
X111228516Y-86941000D01*
X111021484Y-86941000D01*
X110818435Y-86900611D01*
X110627166Y-86821385D01*
X110455024Y-86706363D01*
X110308637Y-86559976D01*
X110193615Y-86387834D01*
X110114389Y-86196565D01*
X110074000Y-85993516D01*
X110074000Y-85786484D01*
X110114389Y-85583435D01*
X110193615Y-85392166D01*
X110308637Y-85220024D01*
X110455024Y-85073637D01*
X110627166Y-84958615D01*
X110818435Y-84879389D01*
X111021484Y-84839000D01*
X111228516Y-84839000D01*
X111431565Y-84879389D01*
X111431565Y-84879389D01*
G37*
G36*
X83491565Y-81069389D02*
X83682834Y-81148615D01*
X83854976Y-81263637D01*
X84001363Y-81410024D01*
X84116385Y-81582166D01*
X84195611Y-81773435D01*
X84236000Y-81976484D01*
X84236000Y-82183516D01*
X84195611Y-82386565D01*
X84116385Y-82577834D01*
X84001363Y-82749976D01*
X83854976Y-82896363D01*
X83682834Y-83011385D01*
X83491565Y-83090611D01*
X83288516Y-83131000D01*
X83081484Y-83131000D01*
X82878435Y-83090611D01*
X82687166Y-83011385D01*
X82515024Y-82896363D01*
X82368637Y-82749976D01*
X82253615Y-82577834D01*
X82174389Y-82386565D01*
X82134000Y-82183516D01*
X82134000Y-81976484D01*
X82174389Y-81773435D01*
X82253615Y-81582166D01*
X82368637Y-81410024D01*
X82515024Y-81263637D01*
X82687166Y-81148615D01*
X82878435Y-81069389D01*
X83081484Y-81029000D01*
X83288516Y-81029000D01*
X83491565Y-81069389D01*
X83491565Y-81069389D01*
G37*
G36*
X166486565Y-80609389D02*
X166677834Y-80688615D01*
X166849976Y-80803637D01*
X166996363Y-80950024D01*
X167111385Y-81122166D01*
X167190611Y-81313435D01*
X167231000Y-81516484D01*
X167231000Y-81723516D01*
X167190611Y-81926565D01*
X167111385Y-82117834D01*
X166996363Y-82289976D01*
X166849976Y-82436363D01*
X166677834Y-82551385D01*
X166486565Y-82630611D01*
X166283516Y-82671000D01*
X166076484Y-82671000D01*
X165873435Y-82630611D01*
X165682166Y-82551385D01*
X165510024Y-82436363D01*
X165363637Y-82289976D01*
X165248615Y-82117834D01*
X165169389Y-81926565D01*
X165129000Y-81723516D01*
X165129000Y-81516484D01*
X165169389Y-81313435D01*
X165248615Y-81122166D01*
X165363637Y-80950024D01*
X165510024Y-80803637D01*
X165682166Y-80688615D01*
X165873435Y-80609389D01*
X166076484Y-80569000D01*
X166283516Y-80569000D01*
X166486565Y-80609389D01*
X166486565Y-80609389D01*
G37*
G36*
X142546565Y-79164389D02*
X142737834Y-79243615D01*
X142909976Y-79358637D01*
X143056363Y-79505024D01*
X143171385Y-79677166D01*
X143250611Y-79868435D01*
X143291000Y-80071484D01*
X143291000Y-80278516D01*
X143250611Y-80481565D01*
X143171385Y-80672834D01*
X143056363Y-80844976D01*
X142909976Y-80991363D01*
X142737834Y-81106385D01*
X142546565Y-81185611D01*
X142343516Y-81226000D01*
X142136484Y-81226000D01*
X141933435Y-81185611D01*
X141742166Y-81106385D01*
X141570024Y-80991363D01*
X141423637Y-80844976D01*
X141308615Y-80672834D01*
X141229389Y-80481565D01*
X141189000Y-80278516D01*
X141189000Y-80071484D01*
X141229389Y-79868435D01*
X141308615Y-79677166D01*
X141423637Y-79505024D01*
X141570024Y-79358637D01*
X141742166Y-79243615D01*
X141933435Y-79164389D01*
X142136484Y-79124000D01*
X142343516Y-79124000D01*
X142546565Y-79164389D01*
X142546565Y-79164389D01*
G37*
G36*
X110161565Y-76624389D02*
X110352834Y-76703615D01*
X110524976Y-76818637D01*
X110671363Y-76965024D01*
X110786385Y-77137166D01*
X110865611Y-77328435D01*
X110906000Y-77531484D01*
X110906000Y-77738516D01*
X110865611Y-77941565D01*
X110786385Y-78132834D01*
X110671363Y-78304976D01*
X110524976Y-78451363D01*
X110352834Y-78566385D01*
X110161565Y-78645611D01*
X109958516Y-78686000D01*
X109751484Y-78686000D01*
X109548435Y-78645611D01*
X109357166Y-78566385D01*
X109185024Y-78451363D01*
X109038637Y-78304976D01*
X108923615Y-78132834D01*
X108844389Y-77941565D01*
X108804000Y-77738516D01*
X108804000Y-77531484D01*
X108844389Y-77328435D01*
X108923615Y-77137166D01*
X109038637Y-76965024D01*
X109185024Y-76818637D01*
X109357166Y-76703615D01*
X109548435Y-76624389D01*
X109751484Y-76584000D01*
X109958516Y-76584000D01*
X110161565Y-76624389D01*
X110161565Y-76624389D01*
G37*
G36*
X154553228Y-75546703D02*
X154708100Y-75610853D01*
X154847481Y-75703985D01*
X154966015Y-75822519D01*
X155059147Y-75961900D01*
X155123297Y-76116772D01*
X155156000Y-76281184D01*
X155156000Y-76448816D01*
X155123297Y-76613228D01*
X155059147Y-76768100D01*
X154966015Y-76907481D01*
X154847481Y-77026015D01*
X154708100Y-77119147D01*
X154553228Y-77183297D01*
X154388816Y-77216000D01*
X154221184Y-77216000D01*
X154056772Y-77183297D01*
X153901900Y-77119147D01*
X153762519Y-77026015D01*
X153643985Y-76907481D01*
X153550853Y-76768100D01*
X153486703Y-76613228D01*
X153454000Y-76448816D01*
X153454000Y-76281184D01*
X153486703Y-76116772D01*
X153550853Y-75961900D01*
X153643985Y-75822519D01*
X153762519Y-75703985D01*
X153901900Y-75610853D01*
X154056772Y-75546703D01*
X154221184Y-75514000D01*
X154388816Y-75514000D01*
X154553228Y-75546703D01*
X154553228Y-75546703D01*
G37*
G36*
X159553228Y-75546703D02*
X159708100Y-75610853D01*
X159847481Y-75703985D01*
X159966015Y-75822519D01*
X160059147Y-75961900D01*
X160123297Y-76116772D01*
X160156000Y-76281184D01*
X160156000Y-76448816D01*
X160123297Y-76613228D01*
X160059147Y-76768100D01*
X159966015Y-76907481D01*
X159847481Y-77026015D01*
X159708100Y-77119147D01*
X159553228Y-77183297D01*
X159388816Y-77216000D01*
X159221184Y-77216000D01*
X159056772Y-77183297D01*
X158901900Y-77119147D01*
X158762519Y-77026015D01*
X158643985Y-76907481D01*
X158550853Y-76768100D01*
X158486703Y-76613228D01*
X158454000Y-76448816D01*
X158454000Y-76281184D01*
X158486703Y-76116772D01*
X158550853Y-75961900D01*
X158643985Y-75822519D01*
X158762519Y-75703985D01*
X158901900Y-75610853D01*
X159056772Y-75546703D01*
X159221184Y-75514000D01*
X159388816Y-75514000D01*
X159553228Y-75546703D01*
X159553228Y-75546703D01*
G37*
G36*
X82221565Y-67734389D02*
X82412834Y-67813615D01*
X82584976Y-67928637D01*
X82731363Y-68075024D01*
X82846385Y-68247166D01*
X82925611Y-68438435D01*
X82966000Y-68641484D01*
X82966000Y-68848516D01*
X82925611Y-69051565D01*
X82846385Y-69242834D01*
X82731363Y-69414976D01*
X82584976Y-69561363D01*
X82412834Y-69676385D01*
X82221565Y-69755611D01*
X82018516Y-69796000D01*
X81811484Y-69796000D01*
X81608435Y-69755611D01*
X81417166Y-69676385D01*
X81245024Y-69561363D01*
X81098637Y-69414976D01*
X80983615Y-69242834D01*
X80904389Y-69051565D01*
X80864000Y-68848516D01*
X80864000Y-68641484D01*
X80904389Y-68438435D01*
X80983615Y-68247166D01*
X81098637Y-68075024D01*
X81245024Y-67928637D01*
X81417166Y-67813615D01*
X81608435Y-67734389D01*
X81811484Y-67694000D01*
X82018516Y-67694000D01*
X82221565Y-67734389D01*
X82221565Y-67734389D01*
G37*
G36*
X137408228Y-64671703D02*
X137563100Y-64735853D01*
X137702481Y-64828985D01*
X137821015Y-64947519D01*
X137914147Y-65086900D01*
X137978297Y-65241772D01*
X138011000Y-65406184D01*
X138011000Y-65573816D01*
X137978297Y-65738228D01*
X137914147Y-65893100D01*
X137821015Y-66032481D01*
X137702481Y-66151015D01*
X137563100Y-66244147D01*
X137408228Y-66308297D01*
X137243816Y-66341000D01*
X137076184Y-66341000D01*
X136911772Y-66308297D01*
X136756900Y-66244147D01*
X136617519Y-66151015D01*
X136498985Y-66032481D01*
X136405853Y-65893100D01*
X136341703Y-65738228D01*
X136309000Y-65573816D01*
X136309000Y-65406184D01*
X136341703Y-65241772D01*
X136405853Y-65086900D01*
X136498985Y-64947519D01*
X136617519Y-64828985D01*
X136756900Y-64735853D01*
X136911772Y-64671703D01*
X137076184Y-64639000D01*
X137243816Y-64639000D01*
X137408228Y-64671703D01*
X137408228Y-64671703D01*
G37*
G36*
X152013228Y-64671703D02*
X152168100Y-64735853D01*
X152307481Y-64828985D01*
X152426015Y-64947519D01*
X152519147Y-65086900D01*
X152583297Y-65241772D01*
X152616000Y-65406184D01*
X152616000Y-65573816D01*
X152583297Y-65738228D01*
X152519147Y-65893100D01*
X152426015Y-66032481D01*
X152307481Y-66151015D01*
X152168100Y-66244147D01*
X152013228Y-66308297D01*
X151848816Y-66341000D01*
X151681184Y-66341000D01*
X151516772Y-66308297D01*
X151361900Y-66244147D01*
X151222519Y-66151015D01*
X151103985Y-66032481D01*
X151010853Y-65893100D01*
X150946703Y-65738228D01*
X150914000Y-65573816D01*
X150914000Y-65406184D01*
X150946703Y-65241772D01*
X151010853Y-65086900D01*
X151103985Y-64947519D01*
X151222519Y-64828985D01*
X151361900Y-64735853D01*
X151516772Y-64671703D01*
X151681184Y-64639000D01*
X151848816Y-64639000D01*
X152013228Y-64671703D01*
X152013228Y-64671703D01*
G37*
G36*
X167888228Y-64671703D02*
X168043100Y-64735853D01*
X168182481Y-64828985D01*
X168301015Y-64947519D01*
X168394147Y-65086900D01*
X168458297Y-65241772D01*
X168491000Y-65406184D01*
X168491000Y-65573816D01*
X168458297Y-65738228D01*
X168394147Y-65893100D01*
X168301015Y-66032481D01*
X168182481Y-66151015D01*
X168043100Y-66244147D01*
X167888228Y-66308297D01*
X167723816Y-66341000D01*
X167556184Y-66341000D01*
X167391772Y-66308297D01*
X167236900Y-66244147D01*
X167097519Y-66151015D01*
X166978985Y-66032481D01*
X166885853Y-65893100D01*
X166821703Y-65738228D01*
X166789000Y-65573816D01*
X166789000Y-65406184D01*
X166821703Y-65241772D01*
X166885853Y-65086900D01*
X166978985Y-64947519D01*
X167097519Y-64828985D01*
X167236900Y-64735853D01*
X167391772Y-64671703D01*
X167556184Y-64639000D01*
X167723816Y-64639000D01*
X167888228Y-64671703D01*
X167888228Y-64671703D01*
G37*
G36*
X111373228Y-62211703D02*
X111528100Y-62275853D01*
X111667481Y-62368985D01*
X111786015Y-62487519D01*
X111879147Y-62626900D01*
X111943297Y-62781772D01*
X111976000Y-62946184D01*
X111976000Y-63113816D01*
X111943297Y-63278228D01*
X111879147Y-63433100D01*
X111786015Y-63572481D01*
X111667481Y-63691015D01*
X111528100Y-63784147D01*
X111373228Y-63848297D01*
X111208816Y-63881000D01*
X111041184Y-63881000D01*
X110876772Y-63848297D01*
X110721900Y-63784147D01*
X110582519Y-63691015D01*
X110463985Y-63572481D01*
X110370853Y-63433100D01*
X110306703Y-63278228D01*
X110274000Y-63113816D01*
X110274000Y-62946184D01*
X110306703Y-62781772D01*
X110370853Y-62626900D01*
X110463985Y-62487519D01*
X110582519Y-62368985D01*
X110721900Y-62275853D01*
X110876772Y-62211703D01*
X111041184Y-62179000D01*
X111208816Y-62179000D01*
X111373228Y-62211703D01*
X111373228Y-62211703D01*
G37*
G36*
X101848228Y-62211703D02*
X102003100Y-62275853D01*
X102142481Y-62368985D01*
X102261015Y-62487519D01*
X102354147Y-62626900D01*
X102418297Y-62781772D01*
X102451000Y-62946184D01*
X102451000Y-63113816D01*
X102418297Y-63278228D01*
X102354147Y-63433100D01*
X102261015Y-63572481D01*
X102142481Y-63691015D01*
X102003100Y-63784147D01*
X101848228Y-63848297D01*
X101683816Y-63881000D01*
X101516184Y-63881000D01*
X101351772Y-63848297D01*
X101196900Y-63784147D01*
X101057519Y-63691015D01*
X100938985Y-63572481D01*
X100845853Y-63433100D01*
X100781703Y-63278228D01*
X100749000Y-63113816D01*
X100749000Y-62946184D01*
X100781703Y-62781772D01*
X100845853Y-62626900D01*
X100938985Y-62487519D01*
X101057519Y-62368985D01*
X101196900Y-62275853D01*
X101351772Y-62211703D01*
X101516184Y-62179000D01*
X101683816Y-62179000D01*
X101848228Y-62211703D01*
X101848228Y-62211703D01*
G37*
G36*
X92323228Y-62211703D02*
X92478100Y-62275853D01*
X92617481Y-62368985D01*
X92736015Y-62487519D01*
X92829147Y-62626900D01*
X92893297Y-62781772D01*
X92926000Y-62946184D01*
X92926000Y-63113816D01*
X92893297Y-63278228D01*
X92829147Y-63433100D01*
X92736015Y-63572481D01*
X92617481Y-63691015D01*
X92478100Y-63784147D01*
X92323228Y-63848297D01*
X92158816Y-63881000D01*
X91991184Y-63881000D01*
X91826772Y-63848297D01*
X91671900Y-63784147D01*
X91532519Y-63691015D01*
X91413985Y-63572481D01*
X91320853Y-63433100D01*
X91256703Y-63278228D01*
X91224000Y-63113816D01*
X91224000Y-62946184D01*
X91256703Y-62781772D01*
X91320853Y-62626900D01*
X91413985Y-62487519D01*
X91532519Y-62368985D01*
X91671900Y-62275853D01*
X91826772Y-62211703D01*
X91991184Y-62179000D01*
X92158816Y-62179000D01*
X92323228Y-62211703D01*
X92323228Y-62211703D01*
G37*
G36*
X82798228Y-62211703D02*
X82953100Y-62275853D01*
X83092481Y-62368985D01*
X83211015Y-62487519D01*
X83304147Y-62626900D01*
X83368297Y-62781772D01*
X83401000Y-62946184D01*
X83401000Y-63113816D01*
X83368297Y-63278228D01*
X83304147Y-63433100D01*
X83211015Y-63572481D01*
X83092481Y-63691015D01*
X82953100Y-63784147D01*
X82798228Y-63848297D01*
X82633816Y-63881000D01*
X82466184Y-63881000D01*
X82301772Y-63848297D01*
X82146900Y-63784147D01*
X82007519Y-63691015D01*
X81888985Y-63572481D01*
X81795853Y-63433100D01*
X81731703Y-63278228D01*
X81699000Y-63113816D01*
X81699000Y-62946184D01*
X81731703Y-62781772D01*
X81795853Y-62626900D01*
X81888985Y-62487519D01*
X82007519Y-62368985D01*
X82146900Y-62275853D01*
X82301772Y-62211703D01*
X82466184Y-62179000D01*
X82633816Y-62179000D01*
X82798228Y-62211703D01*
X82798228Y-62211703D01*
G37*
G36*
X167888228Y-59671703D02*
X168043100Y-59735853D01*
X168182481Y-59828985D01*
X168301015Y-59947519D01*
X168394147Y-60086900D01*
X168458297Y-60241772D01*
X168491000Y-60406184D01*
X168491000Y-60573816D01*
X168458297Y-60738228D01*
X168394147Y-60893100D01*
X168301015Y-61032481D01*
X168182481Y-61151015D01*
X168043100Y-61244147D01*
X167888228Y-61308297D01*
X167723816Y-61341000D01*
X167556184Y-61341000D01*
X167391772Y-61308297D01*
X167236900Y-61244147D01*
X167097519Y-61151015D01*
X166978985Y-61032481D01*
X166885853Y-60893100D01*
X166821703Y-60738228D01*
X166789000Y-60573816D01*
X166789000Y-60406184D01*
X166821703Y-60241772D01*
X166885853Y-60086900D01*
X166978985Y-59947519D01*
X167097519Y-59828985D01*
X167236900Y-59735853D01*
X167391772Y-59671703D01*
X167556184Y-59639000D01*
X167723816Y-59639000D01*
X167888228Y-59671703D01*
X167888228Y-59671703D01*
G37*
G36*
X152013228Y-59671703D02*
X152168100Y-59735853D01*
X152307481Y-59828985D01*
X152426015Y-59947519D01*
X152519147Y-60086900D01*
X152583297Y-60241772D01*
X152616000Y-60406184D01*
X152616000Y-60573816D01*
X152583297Y-60738228D01*
X152519147Y-60893100D01*
X152426015Y-61032481D01*
X152307481Y-61151015D01*
X152168100Y-61244147D01*
X152013228Y-61308297D01*
X151848816Y-61341000D01*
X151681184Y-61341000D01*
X151516772Y-61308297D01*
X151361900Y-61244147D01*
X151222519Y-61151015D01*
X151103985Y-61032481D01*
X151010853Y-60893100D01*
X150946703Y-60738228D01*
X150914000Y-60573816D01*
X150914000Y-60406184D01*
X150946703Y-60241772D01*
X151010853Y-60086900D01*
X151103985Y-59947519D01*
X151222519Y-59828985D01*
X151361900Y-59735853D01*
X151516772Y-59671703D01*
X151681184Y-59639000D01*
X151848816Y-59639000D01*
X152013228Y-59671703D01*
X152013228Y-59671703D01*
G37*
G36*
X137408228Y-59671703D02*
X137563100Y-59735853D01*
X137702481Y-59828985D01*
X137821015Y-59947519D01*
X137914147Y-60086900D01*
X137978297Y-60241772D01*
X138011000Y-60406184D01*
X138011000Y-60573816D01*
X137978297Y-60738228D01*
X137914147Y-60893100D01*
X137821015Y-61032481D01*
X137702481Y-61151015D01*
X137563100Y-61244147D01*
X137408228Y-61308297D01*
X137243816Y-61341000D01*
X137076184Y-61341000D01*
X136911772Y-61308297D01*
X136756900Y-61244147D01*
X136617519Y-61151015D01*
X136498985Y-61032481D01*
X136405853Y-60893100D01*
X136341703Y-60738228D01*
X136309000Y-60573816D01*
X136309000Y-60406184D01*
X136341703Y-60241772D01*
X136405853Y-60086900D01*
X136498985Y-59947519D01*
X136617519Y-59828985D01*
X136756900Y-59735853D01*
X136911772Y-59671703D01*
X137076184Y-59639000D01*
X137243816Y-59639000D01*
X137408228Y-59671703D01*
X137408228Y-59671703D01*
G37*
G36*
X101848228Y-58711703D02*
X102003100Y-58775853D01*
X102142481Y-58868985D01*
X102261015Y-58987519D01*
X102354147Y-59126900D01*
X102418297Y-59281772D01*
X102451000Y-59446184D01*
X102451000Y-59613816D01*
X102418297Y-59778228D01*
X102354147Y-59933100D01*
X102261015Y-60072481D01*
X102142481Y-60191015D01*
X102003100Y-60284147D01*
X101848228Y-60348297D01*
X101683816Y-60381000D01*
X101516184Y-60381000D01*
X101351772Y-60348297D01*
X101196900Y-60284147D01*
X101057519Y-60191015D01*
X100938985Y-60072481D01*
X100845853Y-59933100D01*
X100781703Y-59778228D01*
X100749000Y-59613816D01*
X100749000Y-59446184D01*
X100781703Y-59281772D01*
X100845853Y-59126900D01*
X100938985Y-58987519D01*
X101057519Y-58868985D01*
X101196900Y-58775853D01*
X101351772Y-58711703D01*
X101516184Y-58679000D01*
X101683816Y-58679000D01*
X101848228Y-58711703D01*
X101848228Y-58711703D01*
G37*
G36*
X92323228Y-58711703D02*
X92478100Y-58775853D01*
X92617481Y-58868985D01*
X92736015Y-58987519D01*
X92829147Y-59126900D01*
X92893297Y-59281772D01*
X92926000Y-59446184D01*
X92926000Y-59613816D01*
X92893297Y-59778228D01*
X92829147Y-59933100D01*
X92736015Y-60072481D01*
X92617481Y-60191015D01*
X92478100Y-60284147D01*
X92323228Y-60348297D01*
X92158816Y-60381000D01*
X91991184Y-60381000D01*
X91826772Y-60348297D01*
X91671900Y-60284147D01*
X91532519Y-60191015D01*
X91413985Y-60072481D01*
X91320853Y-59933100D01*
X91256703Y-59778228D01*
X91224000Y-59613816D01*
X91224000Y-59446184D01*
X91256703Y-59281772D01*
X91320853Y-59126900D01*
X91413985Y-58987519D01*
X91532519Y-58868985D01*
X91671900Y-58775853D01*
X91826772Y-58711703D01*
X91991184Y-58679000D01*
X92158816Y-58679000D01*
X92323228Y-58711703D01*
X92323228Y-58711703D01*
G37*
G36*
X111373228Y-58711703D02*
X111528100Y-58775853D01*
X111667481Y-58868985D01*
X111786015Y-58987519D01*
X111879147Y-59126900D01*
X111943297Y-59281772D01*
X111976000Y-59446184D01*
X111976000Y-59613816D01*
X111943297Y-59778228D01*
X111879147Y-59933100D01*
X111786015Y-60072481D01*
X111667481Y-60191015D01*
X111528100Y-60284147D01*
X111373228Y-60348297D01*
X111208816Y-60381000D01*
X111041184Y-60381000D01*
X110876772Y-60348297D01*
X110721900Y-60284147D01*
X110582519Y-60191015D01*
X110463985Y-60072481D01*
X110370853Y-59933100D01*
X110306703Y-59778228D01*
X110274000Y-59613816D01*
X110274000Y-59446184D01*
X110306703Y-59281772D01*
X110370853Y-59126900D01*
X110463985Y-58987519D01*
X110582519Y-58868985D01*
X110721900Y-58775853D01*
X110876772Y-58711703D01*
X111041184Y-58679000D01*
X111208816Y-58679000D01*
X111373228Y-58711703D01*
X111373228Y-58711703D01*
G37*
G36*
X82798228Y-58711703D02*
X82953100Y-58775853D01*
X83092481Y-58868985D01*
X83211015Y-58987519D01*
X83304147Y-59126900D01*
X83368297Y-59281772D01*
X83401000Y-59446184D01*
X83401000Y-59613816D01*
X83368297Y-59778228D01*
X83304147Y-59933100D01*
X83211015Y-60072481D01*
X83092481Y-60191015D01*
X82953100Y-60284147D01*
X82798228Y-60348297D01*
X82633816Y-60381000D01*
X82466184Y-60381000D01*
X82301772Y-60348297D01*
X82146900Y-60284147D01*
X82007519Y-60191015D01*
X81888985Y-60072481D01*
X81795853Y-59933100D01*
X81731703Y-59778228D01*
X81699000Y-59613816D01*
X81699000Y-59446184D01*
X81731703Y-59281772D01*
X81795853Y-59126900D01*
X81888985Y-58987519D01*
X82007519Y-58868985D01*
X82146900Y-58775853D01*
X82301772Y-58711703D01*
X82466184Y-58679000D01*
X82633816Y-58679000D01*
X82798228Y-58711703D01*
X82798228Y-58711703D01*
G37*
G36*
X143181565Y-53129389D02*
X143372834Y-53208615D01*
X143544976Y-53323637D01*
X143691363Y-53470024D01*
X143806385Y-53642166D01*
X143885611Y-53833435D01*
X143926000Y-54036484D01*
X143926000Y-54243516D01*
X143885611Y-54446565D01*
X143806385Y-54637834D01*
X143691363Y-54809976D01*
X143544976Y-54956363D01*
X143372834Y-55071385D01*
X143181565Y-55150611D01*
X142978516Y-55191000D01*
X142771484Y-55191000D01*
X142568435Y-55150611D01*
X142377166Y-55071385D01*
X142205024Y-54956363D01*
X142058637Y-54809976D01*
X141943615Y-54637834D01*
X141864389Y-54446565D01*
X141824000Y-54243516D01*
X141824000Y-54036484D01*
X141864389Y-53833435D01*
X141943615Y-53642166D01*
X142058637Y-53470024D01*
X142205024Y-53323637D01*
X142377166Y-53208615D01*
X142568435Y-53129389D01*
X142771484Y-53089000D01*
X142978516Y-53089000D01*
X143181565Y-53129389D01*
X143181565Y-53129389D01*
G37*
G36*
X147626565Y-53129389D02*
X147817834Y-53208615D01*
X147989976Y-53323637D01*
X148136363Y-53470024D01*
X148251385Y-53642166D01*
X148330611Y-53833435D01*
X148371000Y-54036484D01*
X148371000Y-54243516D01*
X148330611Y-54446565D01*
X148251385Y-54637834D01*
X148136363Y-54809976D01*
X147989976Y-54956363D01*
X147817834Y-55071385D01*
X147626565Y-55150611D01*
X147423516Y-55191000D01*
X147216484Y-55191000D01*
X147013435Y-55150611D01*
X146822166Y-55071385D01*
X146650024Y-54956363D01*
X146503637Y-54809976D01*
X146388615Y-54637834D01*
X146309389Y-54446565D01*
X146269000Y-54243516D01*
X146269000Y-54036484D01*
X146309389Y-53833435D01*
X146388615Y-53642166D01*
X146503637Y-53470024D01*
X146650024Y-53323637D01*
X146822166Y-53208615D01*
X147013435Y-53129389D01*
X147216484Y-53089000D01*
X147423516Y-53089000D01*
X147626565Y-53129389D01*
X147626565Y-53129389D01*
G37*
G36*
X162866565Y-52494389D02*
X163057834Y-52573615D01*
X163229976Y-52688637D01*
X163376363Y-52835024D01*
X163491385Y-53007166D01*
X163570611Y-53198435D01*
X163611000Y-53401484D01*
X163611000Y-53608516D01*
X163570611Y-53811565D01*
X163491385Y-54002834D01*
X163376363Y-54174976D01*
X163229976Y-54321363D01*
X163057834Y-54436385D01*
X162866565Y-54515611D01*
X162663516Y-54556000D01*
X162456484Y-54556000D01*
X162253435Y-54515611D01*
X162062166Y-54436385D01*
X161890024Y-54321363D01*
X161743637Y-54174976D01*
X161628615Y-54002834D01*
X161549389Y-53811565D01*
X161509000Y-53608516D01*
X161509000Y-53401484D01*
X161549389Y-53198435D01*
X161628615Y-53007166D01*
X161743637Y-52835024D01*
X161890024Y-52688637D01*
X162062166Y-52573615D01*
X162253435Y-52494389D01*
X162456484Y-52454000D01*
X162663516Y-52454000D01*
X162866565Y-52494389D01*
X162866565Y-52494389D01*
G37*
G36*
X120866000Y-54356000D02*
X119164000Y-54356000D01*
X119164000Y-52654000D01*
X120866000Y-52654000D01*
X120866000Y-54356000D01*
X120866000Y-54356000D01*
G37*
G36*
X117763228Y-52686703D02*
X117918100Y-52750853D01*
X118057481Y-52843985D01*
X118176015Y-52962519D01*
X118269147Y-53101900D01*
X118333297Y-53256772D01*
X118366000Y-53421184D01*
X118366000Y-53588816D01*
X118333297Y-53753228D01*
X118269147Y-53908100D01*
X118176015Y-54047481D01*
X118057481Y-54166015D01*
X117918100Y-54259147D01*
X117763228Y-54323297D01*
X117598816Y-54356000D01*
X117431184Y-54356000D01*
X117266772Y-54323297D01*
X117111900Y-54259147D01*
X116972519Y-54166015D01*
X116853985Y-54047481D01*
X116760853Y-53908100D01*
X116696703Y-53753228D01*
X116664000Y-53588816D01*
X116664000Y-53421184D01*
X116696703Y-53256772D01*
X116760853Y-53101900D01*
X116853985Y-52962519D01*
X116972519Y-52843985D01*
X117111900Y-52750853D01*
X117266772Y-52686703D01*
X117431184Y-52654000D01*
X117598816Y-52654000D01*
X117763228Y-52686703D01*
X117763228Y-52686703D01*
G37*
G36*
X132296000Y-54356000D02*
X130594000Y-54356000D01*
X130594000Y-52654000D01*
X132296000Y-52654000D01*
X132296000Y-54356000D01*
X132296000Y-54356000D01*
G37*
G36*
X129193228Y-52686703D02*
X129348100Y-52750853D01*
X129487481Y-52843985D01*
X129606015Y-52962519D01*
X129699147Y-53101900D01*
X129763297Y-53256772D01*
X129796000Y-53421184D01*
X129796000Y-53588816D01*
X129763297Y-53753228D01*
X129699147Y-53908100D01*
X129606015Y-54047481D01*
X129487481Y-54166015D01*
X129348100Y-54259147D01*
X129193228Y-54323297D01*
X129028816Y-54356000D01*
X128861184Y-54356000D01*
X128696772Y-54323297D01*
X128541900Y-54259147D01*
X128402519Y-54166015D01*
X128283985Y-54047481D01*
X128190853Y-53908100D01*
X128126703Y-53753228D01*
X128094000Y-53588816D01*
X128094000Y-53421184D01*
X128126703Y-53256772D01*
X128190853Y-53101900D01*
X128283985Y-52962519D01*
X128402519Y-52843985D01*
X128541900Y-52750853D01*
X128696772Y-52686703D01*
X128861184Y-52654000D01*
X129028816Y-52654000D01*
X129193228Y-52686703D01*
X129193228Y-52686703D01*
G37*
G36*
X167311565Y-51859389D02*
X167502834Y-51938615D01*
X167674976Y-52053637D01*
X167821363Y-52200024D01*
X167936385Y-52372166D01*
X168015611Y-52563435D01*
X168056000Y-52766484D01*
X168056000Y-52973516D01*
X168015611Y-53176565D01*
X167936385Y-53367834D01*
X167821363Y-53539976D01*
X167674976Y-53686363D01*
X167502834Y-53801385D01*
X167311565Y-53880611D01*
X167108516Y-53921000D01*
X166901484Y-53921000D01*
X166698435Y-53880611D01*
X166507166Y-53801385D01*
X166335024Y-53686363D01*
X166188637Y-53539976D01*
X166073615Y-53367834D01*
X165994389Y-53176565D01*
X165954000Y-52973516D01*
X165954000Y-52766484D01*
X165994389Y-52563435D01*
X166073615Y-52372166D01*
X166188637Y-52200024D01*
X166335024Y-52053637D01*
X166507166Y-51938615D01*
X166698435Y-51859389D01*
X166901484Y-51819000D01*
X167108516Y-51819000D01*
X167311565Y-51859389D01*
X167311565Y-51859389D01*
G37*
G36*
X126390932Y-43275511D02*
X126594072Y-43315918D01*
X126839939Y-43417759D01*
X127060464Y-43565110D01*
X127061215Y-43565612D01*
X127249388Y-43753785D01*
X127249390Y-43753788D01*
X127397241Y-43975061D01*
X127499082Y-44220928D01*
X127500001Y-44225547D01*
X127551000Y-44481937D01*
X127551000Y-44748063D01*
X127543794Y-44784288D01*
X127499082Y-45009072D01*
X127397241Y-45254939D01*
X127285591Y-45422034D01*
X127249388Y-45476215D01*
X127061215Y-45664388D01*
X127061212Y-45664390D01*
X126839939Y-45812241D01*
X126594072Y-45914082D01*
X126463567Y-45940041D01*
X126333063Y-45966000D01*
X126066937Y-45966000D01*
X125936433Y-45940041D01*
X125805928Y-45914082D01*
X125560061Y-45812241D01*
X125338788Y-45664390D01*
X125338785Y-45664388D01*
X125150612Y-45476215D01*
X125114409Y-45422034D01*
X125002759Y-45254939D01*
X124900918Y-45009072D01*
X124856206Y-44784288D01*
X124849000Y-44748063D01*
X124849000Y-44481937D01*
X124899999Y-44225547D01*
X124900918Y-44220928D01*
X125002759Y-43975061D01*
X125150610Y-43753788D01*
X125150612Y-43753785D01*
X125338785Y-43565612D01*
X125339536Y-43565110D01*
X125560061Y-43417759D01*
X125805928Y-43315918D01*
X126009068Y-43275511D01*
X126066937Y-43264000D01*
X126333063Y-43264000D01*
X126390932Y-43275511D01*
X126390932Y-43275511D01*
G37*
G36*
X132551000Y-45966000D02*
X129849000Y-45966000D01*
X129849000Y-43264000D01*
X132551000Y-43264000D01*
X132551000Y-45966000D01*
X132551000Y-45966000D01*
G37*
G36*
X121390932Y-43275511D02*
X121594072Y-43315918D01*
X121839939Y-43417759D01*
X122060464Y-43565110D01*
X122061215Y-43565612D01*
X122249388Y-43753785D01*
X122249390Y-43753788D01*
X122397241Y-43975061D01*
X122499082Y-44220928D01*
X122500001Y-44225547D01*
X122551000Y-44481937D01*
X122551000Y-44748063D01*
X122543794Y-44784288D01*
X122499082Y-45009072D01*
X122397241Y-45254939D01*
X122285591Y-45422034D01*
X122249388Y-45476215D01*
X122061215Y-45664388D01*
X122061212Y-45664390D01*
X121839939Y-45812241D01*
X121594072Y-45914082D01*
X121463567Y-45940041D01*
X121333063Y-45966000D01*
X121066937Y-45966000D01*
X120936433Y-45940041D01*
X120805928Y-45914082D01*
X120560061Y-45812241D01*
X120338788Y-45664390D01*
X120338785Y-45664388D01*
X120150612Y-45476215D01*
X120114409Y-45422034D01*
X120002759Y-45254939D01*
X119900918Y-45009072D01*
X119856206Y-44784288D01*
X119849000Y-44748063D01*
X119849000Y-44481937D01*
X119899999Y-44225547D01*
X119900918Y-44220928D01*
X120002759Y-43975061D01*
X120150610Y-43753788D01*
X120150612Y-43753785D01*
X120338785Y-43565612D01*
X120339536Y-43565110D01*
X120560061Y-43417759D01*
X120805928Y-43315918D01*
X121009068Y-43275511D01*
X121066937Y-43264000D01*
X121333063Y-43264000D01*
X121390932Y-43275511D01*
X121390932Y-43275511D01*
G37*
G36*
X86300548Y-43137326D02*
X86416287Y-43172435D01*
X86474158Y-43189990D01*
X86497315Y-43202368D01*
X86634156Y-43275511D01*
X86774396Y-43390604D01*
X86889489Y-43530844D01*
X86975010Y-43690843D01*
X87027674Y-43864452D01*
X87041000Y-43999757D01*
X87041000Y-44550244D01*
X87027674Y-44685548D01*
X86997721Y-44784288D01*
X86975010Y-44859158D01*
X86959790Y-44887632D01*
X86889489Y-45019156D01*
X86774396Y-45159396D01*
X86634155Y-45274489D01*
X86532514Y-45328817D01*
X86474157Y-45360010D01*
X86427550Y-45374148D01*
X86300547Y-45412674D01*
X86120000Y-45430456D01*
X85939452Y-45412674D01*
X85812449Y-45374148D01*
X85765842Y-45360010D01*
X85624686Y-45284560D01*
X85605844Y-45274489D01*
X85465604Y-45159396D01*
X85350511Y-45019155D01*
X85286827Y-44900010D01*
X85264990Y-44859157D01*
X85217119Y-44701346D01*
X85212326Y-44685547D01*
X85199000Y-44550243D01*
X85199000Y-43999756D01*
X85212326Y-43864452D01*
X85264990Y-43690843D01*
X85264990Y-43690842D01*
X85345748Y-43539757D01*
X85350512Y-43530844D01*
X85465605Y-43390604D01*
X85605845Y-43275511D01*
X85742686Y-43202368D01*
X85765843Y-43189990D01*
X85823714Y-43172435D01*
X85939453Y-43137326D01*
X86120000Y-43119544D01*
X86300548Y-43137326D01*
X86300548Y-43137326D01*
G37*
G36*
X101760548Y-43137326D02*
X101876287Y-43172435D01*
X101934158Y-43189990D01*
X101957315Y-43202368D01*
X102094156Y-43275511D01*
X102234396Y-43390604D01*
X102349489Y-43530844D01*
X102435010Y-43690843D01*
X102487674Y-43864452D01*
X102501000Y-43999757D01*
X102501000Y-44550244D01*
X102487674Y-44685548D01*
X102457721Y-44784288D01*
X102435010Y-44859158D01*
X102419790Y-44887632D01*
X102349489Y-45019156D01*
X102234396Y-45159396D01*
X102094155Y-45274489D01*
X101992514Y-45328817D01*
X101934157Y-45360010D01*
X101887550Y-45374148D01*
X101760547Y-45412674D01*
X101580000Y-45430456D01*
X101399452Y-45412674D01*
X101272449Y-45374148D01*
X101225842Y-45360010D01*
X101084686Y-45284560D01*
X101065844Y-45274489D01*
X100925604Y-45159396D01*
X100810511Y-45019155D01*
X100746827Y-44900010D01*
X100724990Y-44859157D01*
X100677119Y-44701346D01*
X100672326Y-44685547D01*
X100659000Y-44550243D01*
X100659000Y-43999756D01*
X100672326Y-43864452D01*
X100724990Y-43690843D01*
X100724990Y-43690842D01*
X100805748Y-43539757D01*
X100810512Y-43530844D01*
X100925605Y-43390604D01*
X101065845Y-43275511D01*
X101202686Y-43202368D01*
X101225843Y-43189990D01*
X101283714Y-43172435D01*
X101399453Y-43137326D01*
X101580000Y-43119544D01*
X101760548Y-43137326D01*
X101760548Y-43137326D01*
G37*
G36*
X106840548Y-43137326D02*
X106956287Y-43172435D01*
X107014158Y-43189990D01*
X107037315Y-43202368D01*
X107174156Y-43275511D01*
X107314396Y-43390604D01*
X107429489Y-43530844D01*
X107515010Y-43690843D01*
X107567674Y-43864452D01*
X107581000Y-43999757D01*
X107581000Y-44550244D01*
X107567674Y-44685548D01*
X107537721Y-44784288D01*
X107515010Y-44859158D01*
X107499790Y-44887632D01*
X107429489Y-45019156D01*
X107314396Y-45159396D01*
X107174155Y-45274489D01*
X107072514Y-45328817D01*
X107014157Y-45360010D01*
X106967550Y-45374148D01*
X106840547Y-45412674D01*
X106660000Y-45430456D01*
X106479452Y-45412674D01*
X106352449Y-45374148D01*
X106305842Y-45360010D01*
X106164686Y-45284560D01*
X106145844Y-45274489D01*
X106005604Y-45159396D01*
X105890511Y-45019155D01*
X105826827Y-44900010D01*
X105804990Y-44859157D01*
X105757119Y-44701346D01*
X105752326Y-44685547D01*
X105739000Y-44550243D01*
X105739000Y-43999756D01*
X105752326Y-43864452D01*
X105804990Y-43690843D01*
X105804990Y-43690842D01*
X105885748Y-43539757D01*
X105890512Y-43530844D01*
X106005605Y-43390604D01*
X106145845Y-43275511D01*
X106282686Y-43202368D01*
X106305843Y-43189990D01*
X106363714Y-43172435D01*
X106479453Y-43137326D01*
X106660000Y-43119544D01*
X106840548Y-43137326D01*
X106840548Y-43137326D01*
G37*
G36*
X104300548Y-43137326D02*
X104416287Y-43172435D01*
X104474158Y-43189990D01*
X104497315Y-43202368D01*
X104634156Y-43275511D01*
X104774396Y-43390604D01*
X104889489Y-43530844D01*
X104975010Y-43690843D01*
X105027674Y-43864452D01*
X105041000Y-43999757D01*
X105041000Y-44550244D01*
X105027674Y-44685548D01*
X104997721Y-44784288D01*
X104975010Y-44859158D01*
X104959790Y-44887632D01*
X104889489Y-45019156D01*
X104774396Y-45159396D01*
X104634155Y-45274489D01*
X104532514Y-45328817D01*
X104474157Y-45360010D01*
X104427550Y-45374148D01*
X104300547Y-45412674D01*
X104120000Y-45430456D01*
X103939452Y-45412674D01*
X103812449Y-45374148D01*
X103765842Y-45360010D01*
X103624686Y-45284560D01*
X103605844Y-45274489D01*
X103465604Y-45159396D01*
X103350511Y-45019155D01*
X103286827Y-44900010D01*
X103264990Y-44859157D01*
X103217119Y-44701346D01*
X103212326Y-44685547D01*
X103199000Y-44550243D01*
X103199000Y-43999756D01*
X103212326Y-43864452D01*
X103264990Y-43690843D01*
X103264990Y-43690842D01*
X103345748Y-43539757D01*
X103350512Y-43530844D01*
X103465605Y-43390604D01*
X103605845Y-43275511D01*
X103742686Y-43202368D01*
X103765843Y-43189990D01*
X103823714Y-43172435D01*
X103939453Y-43137326D01*
X104120000Y-43119544D01*
X104300548Y-43137326D01*
X104300548Y-43137326D01*
G37*
G36*
X88840548Y-43137326D02*
X88956287Y-43172435D01*
X89014158Y-43189990D01*
X89037315Y-43202368D01*
X89174156Y-43275511D01*
X89314396Y-43390604D01*
X89429489Y-43530844D01*
X89515010Y-43690843D01*
X89567674Y-43864452D01*
X89581000Y-43999757D01*
X89581000Y-44550244D01*
X89567674Y-44685548D01*
X89537721Y-44784288D01*
X89515010Y-44859158D01*
X89499790Y-44887632D01*
X89429489Y-45019156D01*
X89314396Y-45159396D01*
X89174155Y-45274489D01*
X89072514Y-45328817D01*
X89014157Y-45360010D01*
X88967550Y-45374148D01*
X88840547Y-45412674D01*
X88660000Y-45430456D01*
X88479452Y-45412674D01*
X88352449Y-45374148D01*
X88305842Y-45360010D01*
X88164686Y-45284560D01*
X88145844Y-45274489D01*
X88005604Y-45159396D01*
X87890511Y-45019155D01*
X87826827Y-44900010D01*
X87804990Y-44859157D01*
X87757119Y-44701346D01*
X87752326Y-44685547D01*
X87739000Y-44550243D01*
X87739000Y-43999756D01*
X87752326Y-43864452D01*
X87804990Y-43690843D01*
X87804990Y-43690842D01*
X87885748Y-43539757D01*
X87890512Y-43530844D01*
X88005605Y-43390604D01*
X88145845Y-43275511D01*
X88282686Y-43202368D01*
X88305843Y-43189990D01*
X88363714Y-43172435D01*
X88479453Y-43137326D01*
X88660000Y-43119544D01*
X88840548Y-43137326D01*
X88840548Y-43137326D01*
G37*
G36*
X83760548Y-43137326D02*
X83876287Y-43172435D01*
X83934158Y-43189990D01*
X83957315Y-43202368D01*
X84094156Y-43275511D01*
X84234396Y-43390604D01*
X84349489Y-43530844D01*
X84435010Y-43690843D01*
X84487674Y-43864452D01*
X84501000Y-43999757D01*
X84501000Y-44550244D01*
X84487674Y-44685548D01*
X84457721Y-44784288D01*
X84435010Y-44859158D01*
X84419790Y-44887632D01*
X84349489Y-45019156D01*
X84234396Y-45159396D01*
X84094155Y-45274489D01*
X83992514Y-45328817D01*
X83934157Y-45360010D01*
X83887550Y-45374148D01*
X83760547Y-45412674D01*
X83580000Y-45430456D01*
X83399452Y-45412674D01*
X83272449Y-45374148D01*
X83225842Y-45360010D01*
X83084686Y-45284560D01*
X83065844Y-45274489D01*
X82925604Y-45159396D01*
X82810511Y-45019155D01*
X82746827Y-44900010D01*
X82724990Y-44859157D01*
X82677119Y-44701346D01*
X82672326Y-44685547D01*
X82659000Y-44550243D01*
X82659000Y-43999756D01*
X82672326Y-43864452D01*
X82724990Y-43690843D01*
X82724990Y-43690842D01*
X82805748Y-43539757D01*
X82810512Y-43530844D01*
X82925605Y-43390604D01*
X83065845Y-43275511D01*
X83202686Y-43202368D01*
X83225843Y-43189990D01*
X83283714Y-43172435D01*
X83399453Y-43137326D01*
X83580000Y-43119544D01*
X83760548Y-43137326D01*
X83760548Y-43137326D01*
G37*
G36*
X91979560Y-43127966D02*
X92012383Y-43137923D01*
X92042632Y-43154092D01*
X92069148Y-43175852D01*
X92090908Y-43202368D01*
X92107077Y-43232617D01*
X92117034Y-43265440D01*
X92121000Y-43305712D01*
X92121000Y-45244288D01*
X92117034Y-45284560D01*
X92107077Y-45317383D01*
X92090908Y-45347632D01*
X92069148Y-45374148D01*
X92042632Y-45395908D01*
X92012383Y-45412077D01*
X91979560Y-45422034D01*
X91939288Y-45426000D01*
X90460712Y-45426000D01*
X90420440Y-45422034D01*
X90387617Y-45412077D01*
X90357368Y-45395908D01*
X90330852Y-45374148D01*
X90309092Y-45347632D01*
X90292923Y-45317383D01*
X90282966Y-45284560D01*
X90279000Y-45244288D01*
X90279000Y-43305712D01*
X90282966Y-43265440D01*
X90292923Y-43232617D01*
X90309092Y-43202368D01*
X90330852Y-43175852D01*
X90357368Y-43154092D01*
X90387617Y-43137923D01*
X90420440Y-43127966D01*
X90460712Y-43124000D01*
X91939288Y-43124000D01*
X91979560Y-43127966D01*
X91979560Y-43127966D01*
G37*
G36*
X109979560Y-43127966D02*
X110012383Y-43137923D01*
X110042632Y-43154092D01*
X110069148Y-43175852D01*
X110090908Y-43202368D01*
X110107077Y-43232617D01*
X110117034Y-43265440D01*
X110121000Y-43305712D01*
X110121000Y-45244288D01*
X110117034Y-45284560D01*
X110107077Y-45317383D01*
X110090908Y-45347632D01*
X110069148Y-45374148D01*
X110042632Y-45395908D01*
X110012383Y-45412077D01*
X109979560Y-45422034D01*
X109939288Y-45426000D01*
X108460712Y-45426000D01*
X108420440Y-45422034D01*
X108387617Y-45412077D01*
X108357368Y-45395908D01*
X108330852Y-45374148D01*
X108309092Y-45347632D01*
X108292923Y-45317383D01*
X108282966Y-45284560D01*
X108279000Y-45244288D01*
X108279000Y-43305712D01*
X108282966Y-43265440D01*
X108292923Y-43232617D01*
X108309092Y-43202368D01*
X108330852Y-43175852D01*
X108357368Y-43154092D01*
X108387617Y-43137923D01*
X108420440Y-43127966D01*
X108460712Y-43124000D01*
X109939288Y-43124000D01*
X109979560Y-43127966D01*
X109979560Y-43127966D01*
G37*
G36*
X166220548Y-42677326D02*
X166336287Y-42712435D01*
X166394158Y-42729990D01*
X166417315Y-42742368D01*
X166554156Y-42815511D01*
X166694396Y-42930604D01*
X166809489Y-43070844D01*
X166895010Y-43230843D01*
X166947674Y-43404452D01*
X166961000Y-43539757D01*
X166961000Y-44090244D01*
X166947674Y-44225548D01*
X166912565Y-44341287D01*
X166895010Y-44399158D01*
X166850763Y-44481937D01*
X166809489Y-44559156D01*
X166694396Y-44699396D01*
X166554155Y-44814489D01*
X166470585Y-44859158D01*
X166394157Y-44900010D01*
X166347550Y-44914148D01*
X166220547Y-44952674D01*
X166040000Y-44970456D01*
X165859452Y-44952674D01*
X165732449Y-44914148D01*
X165685842Y-44900010D01*
X165544686Y-44824560D01*
X165525844Y-44814489D01*
X165385604Y-44699396D01*
X165270511Y-44559155D01*
X165184991Y-44399158D01*
X165184990Y-44399157D01*
X165167435Y-44341286D01*
X165132326Y-44225547D01*
X165119000Y-44090243D01*
X165119000Y-43539756D01*
X165132326Y-43404452D01*
X165184990Y-43230843D01*
X165184990Y-43230842D01*
X165270513Y-43070843D01*
X165385605Y-42930604D01*
X165525844Y-42815512D01*
X165525843Y-42815512D01*
X165525845Y-42815511D01*
X165662686Y-42742368D01*
X165685843Y-42729990D01*
X165743714Y-42712435D01*
X165859453Y-42677326D01*
X166040000Y-42659544D01*
X166220548Y-42677326D01*
X166220548Y-42677326D01*
G37*
G36*
X161140548Y-42677326D02*
X161256287Y-42712435D01*
X161314158Y-42729990D01*
X161337315Y-42742368D01*
X161474156Y-42815511D01*
X161614396Y-42930604D01*
X161729489Y-43070844D01*
X161815010Y-43230843D01*
X161867674Y-43404452D01*
X161881000Y-43539757D01*
X161881000Y-44090244D01*
X161867674Y-44225548D01*
X161832565Y-44341287D01*
X161815010Y-44399158D01*
X161770763Y-44481937D01*
X161729489Y-44559156D01*
X161614396Y-44699396D01*
X161474155Y-44814489D01*
X161390585Y-44859158D01*
X161314157Y-44900010D01*
X161267550Y-44914148D01*
X161140547Y-44952674D01*
X160960000Y-44970456D01*
X160779452Y-44952674D01*
X160652449Y-44914148D01*
X160605842Y-44900010D01*
X160464686Y-44824560D01*
X160445844Y-44814489D01*
X160305604Y-44699396D01*
X160190511Y-44559155D01*
X160104991Y-44399158D01*
X160104990Y-44399157D01*
X160087435Y-44341286D01*
X160052326Y-44225547D01*
X160039000Y-44090243D01*
X160039000Y-43539756D01*
X160052326Y-43404452D01*
X160104990Y-43230843D01*
X160104990Y-43230842D01*
X160190513Y-43070843D01*
X160305605Y-42930604D01*
X160445844Y-42815512D01*
X160445843Y-42815512D01*
X160445845Y-42815511D01*
X160582686Y-42742368D01*
X160605843Y-42729990D01*
X160663714Y-42712435D01*
X160779453Y-42677326D01*
X160960000Y-42659544D01*
X161140548Y-42677326D01*
X161140548Y-42677326D01*
G37*
G36*
X148220548Y-42677326D02*
X148336287Y-42712435D01*
X148394158Y-42729990D01*
X148417315Y-42742368D01*
X148554156Y-42815511D01*
X148694396Y-42930604D01*
X148809489Y-43070844D01*
X148895010Y-43230843D01*
X148947674Y-43404452D01*
X148961000Y-43539757D01*
X148961000Y-44090244D01*
X148947674Y-44225548D01*
X148912565Y-44341287D01*
X148895010Y-44399158D01*
X148850763Y-44481937D01*
X148809489Y-44559156D01*
X148694396Y-44699396D01*
X148554155Y-44814489D01*
X148470585Y-44859158D01*
X148394157Y-44900010D01*
X148347550Y-44914148D01*
X148220547Y-44952674D01*
X148040000Y-44970456D01*
X147859452Y-44952674D01*
X147732449Y-44914148D01*
X147685842Y-44900010D01*
X147544686Y-44824560D01*
X147525844Y-44814489D01*
X147385604Y-44699396D01*
X147270511Y-44559155D01*
X147184991Y-44399158D01*
X147184990Y-44399157D01*
X147167435Y-44341286D01*
X147132326Y-44225547D01*
X147119000Y-44090243D01*
X147119000Y-43539756D01*
X147132326Y-43404452D01*
X147184990Y-43230843D01*
X147184990Y-43230842D01*
X147270513Y-43070843D01*
X147385605Y-42930604D01*
X147525844Y-42815512D01*
X147525843Y-42815512D01*
X147525845Y-42815511D01*
X147662686Y-42742368D01*
X147685843Y-42729990D01*
X147743714Y-42712435D01*
X147859453Y-42677326D01*
X148040000Y-42659544D01*
X148220548Y-42677326D01*
X148220548Y-42677326D01*
G37*
G36*
X145680548Y-42677326D02*
X145796287Y-42712435D01*
X145854158Y-42729990D01*
X145877315Y-42742368D01*
X146014156Y-42815511D01*
X146154396Y-42930604D01*
X146269489Y-43070844D01*
X146355010Y-43230843D01*
X146407674Y-43404452D01*
X146421000Y-43539757D01*
X146421000Y-44090244D01*
X146407674Y-44225548D01*
X146372565Y-44341287D01*
X146355010Y-44399158D01*
X146310763Y-44481937D01*
X146269489Y-44559156D01*
X146154396Y-44699396D01*
X146014155Y-44814489D01*
X145930585Y-44859158D01*
X145854157Y-44900010D01*
X145807550Y-44914148D01*
X145680547Y-44952674D01*
X145500000Y-44970456D01*
X145319452Y-44952674D01*
X145192449Y-44914148D01*
X145145842Y-44900010D01*
X145004686Y-44824560D01*
X144985844Y-44814489D01*
X144845604Y-44699396D01*
X144730511Y-44559155D01*
X144644991Y-44399158D01*
X144644990Y-44399157D01*
X144627435Y-44341286D01*
X144592326Y-44225547D01*
X144579000Y-44090243D01*
X144579000Y-43539756D01*
X144592326Y-43404452D01*
X144644990Y-43230843D01*
X144644990Y-43230842D01*
X144730513Y-43070843D01*
X144845605Y-42930604D01*
X144985844Y-42815512D01*
X144985843Y-42815512D01*
X144985845Y-42815511D01*
X145122686Y-42742368D01*
X145145843Y-42729990D01*
X145203714Y-42712435D01*
X145319453Y-42677326D01*
X145500000Y-42659544D01*
X145680548Y-42677326D01*
X145680548Y-42677326D01*
G37*
G36*
X143140548Y-42677326D02*
X143256287Y-42712435D01*
X143314158Y-42729990D01*
X143337315Y-42742368D01*
X143474156Y-42815511D01*
X143614396Y-42930604D01*
X143729489Y-43070844D01*
X143815010Y-43230843D01*
X143867674Y-43404452D01*
X143881000Y-43539757D01*
X143881000Y-44090244D01*
X143867674Y-44225548D01*
X143832565Y-44341287D01*
X143815010Y-44399158D01*
X143770763Y-44481937D01*
X143729489Y-44559156D01*
X143614396Y-44699396D01*
X143474155Y-44814489D01*
X143390585Y-44859158D01*
X143314157Y-44900010D01*
X143267550Y-44914148D01*
X143140547Y-44952674D01*
X142960000Y-44970456D01*
X142779452Y-44952674D01*
X142652449Y-44914148D01*
X142605842Y-44900010D01*
X142464686Y-44824560D01*
X142445844Y-44814489D01*
X142305604Y-44699396D01*
X142190511Y-44559155D01*
X142104991Y-44399158D01*
X142104990Y-44399157D01*
X142087435Y-44341286D01*
X142052326Y-44225547D01*
X142039000Y-44090243D01*
X142039000Y-43539756D01*
X142052326Y-43404452D01*
X142104990Y-43230843D01*
X142104990Y-43230842D01*
X142190513Y-43070843D01*
X142305605Y-42930604D01*
X142445844Y-42815512D01*
X142445843Y-42815512D01*
X142445845Y-42815511D01*
X142582686Y-42742368D01*
X142605843Y-42729990D01*
X142663714Y-42712435D01*
X142779453Y-42677326D01*
X142960000Y-42659544D01*
X143140548Y-42677326D01*
X143140548Y-42677326D01*
G37*
G36*
X163680548Y-42677326D02*
X163796287Y-42712435D01*
X163854158Y-42729990D01*
X163877315Y-42742368D01*
X164014156Y-42815511D01*
X164154396Y-42930604D01*
X164269489Y-43070844D01*
X164355010Y-43230843D01*
X164407674Y-43404452D01*
X164421000Y-43539757D01*
X164421000Y-44090244D01*
X164407674Y-44225548D01*
X164372565Y-44341287D01*
X164355010Y-44399158D01*
X164310763Y-44481937D01*
X164269489Y-44559156D01*
X164154396Y-44699396D01*
X164014155Y-44814489D01*
X163930585Y-44859158D01*
X163854157Y-44900010D01*
X163807550Y-44914148D01*
X163680547Y-44952674D01*
X163500000Y-44970456D01*
X163319452Y-44952674D01*
X163192449Y-44914148D01*
X163145842Y-44900010D01*
X163004686Y-44824560D01*
X162985844Y-44814489D01*
X162845604Y-44699396D01*
X162730511Y-44559155D01*
X162644991Y-44399158D01*
X162644990Y-44399157D01*
X162627435Y-44341286D01*
X162592326Y-44225547D01*
X162579000Y-44090243D01*
X162579000Y-43539756D01*
X162592326Y-43404452D01*
X162644990Y-43230843D01*
X162644990Y-43230842D01*
X162730513Y-43070843D01*
X162845605Y-42930604D01*
X162985844Y-42815512D01*
X162985843Y-42815512D01*
X162985845Y-42815511D01*
X163122686Y-42742368D01*
X163145843Y-42729990D01*
X163203714Y-42712435D01*
X163319453Y-42677326D01*
X163500000Y-42659544D01*
X163680548Y-42677326D01*
X163680548Y-42677326D01*
G37*
G36*
X151359560Y-42667966D02*
X151392383Y-42677923D01*
X151422632Y-42694092D01*
X151449148Y-42715852D01*
X151470908Y-42742368D01*
X151487077Y-42772617D01*
X151497034Y-42805440D01*
X151501000Y-42845712D01*
X151501000Y-44784288D01*
X151497034Y-44824560D01*
X151487077Y-44857383D01*
X151470908Y-44887632D01*
X151449148Y-44914148D01*
X151422632Y-44935908D01*
X151392383Y-44952077D01*
X151359560Y-44962034D01*
X151319288Y-44966000D01*
X149840712Y-44966000D01*
X149800440Y-44962034D01*
X149767617Y-44952077D01*
X149737368Y-44935908D01*
X149710852Y-44914148D01*
X149689092Y-44887632D01*
X149672923Y-44857383D01*
X149662966Y-44824560D01*
X149659000Y-44784288D01*
X149659000Y-42845712D01*
X149662966Y-42805440D01*
X149672923Y-42772617D01*
X149689092Y-42742368D01*
X149710852Y-42715852D01*
X149737368Y-42694092D01*
X149767617Y-42677923D01*
X149800440Y-42667966D01*
X149840712Y-42664000D01*
X151319288Y-42664000D01*
X151359560Y-42667966D01*
X151359560Y-42667966D01*
G37*
G36*
X169359560Y-42667966D02*
X169392383Y-42677923D01*
X169422632Y-42694092D01*
X169449148Y-42715852D01*
X169470908Y-42742368D01*
X169487077Y-42772617D01*
X169497034Y-42805440D01*
X169501000Y-42845712D01*
X169501000Y-44784288D01*
X169497034Y-44824560D01*
X169487077Y-44857383D01*
X169470908Y-44887632D01*
X169449148Y-44914148D01*
X169422632Y-44935908D01*
X169392383Y-44952077D01*
X169359560Y-44962034D01*
X169319288Y-44966000D01*
X167840712Y-44966000D01*
X167800440Y-44962034D01*
X167767617Y-44952077D01*
X167737368Y-44935908D01*
X167710852Y-44914148D01*
X167689092Y-44887632D01*
X167672923Y-44857383D01*
X167662966Y-44824560D01*
X167659000Y-44784288D01*
X167659000Y-42845712D01*
X167662966Y-42805440D01*
X167672923Y-42772617D01*
X167689092Y-42742368D01*
X167710852Y-42715852D01*
X167737368Y-42694092D01*
X167767617Y-42677923D01*
X167800440Y-42667966D01*
X167840712Y-42664000D01*
X169319288Y-42664000D01*
X169359560Y-42667966D01*
X169359560Y-42667966D01*
G37*
G36*
X170527475Y-29423892D02*
X170527477Y-29423893D01*
X170527478Y-29423893D01*
X171355707Y-29766956D01*
X172097727Y-30262759D01*
X172101096Y-30265010D01*
X172734990Y-30898904D01*
X172734992Y-30898907D01*
X173233044Y-31644293D01*
X173576107Y-32472522D01*
X173751000Y-33351766D01*
X173751000Y-34248234D01*
X173576107Y-35127478D01*
X173233044Y-35955707D01*
X172737241Y-36697727D01*
X172734990Y-36701096D01*
X172101096Y-37334990D01*
X172101093Y-37334992D01*
X171355707Y-37833044D01*
X170527478Y-38176107D01*
X170527477Y-38176107D01*
X170527475Y-38176108D01*
X169648236Y-38351000D01*
X168751764Y-38351000D01*
X167872525Y-38176108D01*
X167872523Y-38176107D01*
X167872522Y-38176107D01*
X167044293Y-37833044D01*
X166298907Y-37334992D01*
X166298904Y-37334990D01*
X165665010Y-36701096D01*
X165662759Y-36697727D01*
X165166956Y-35955707D01*
X164823893Y-35127478D01*
X164649000Y-34248234D01*
X164649000Y-33351766D01*
X164823893Y-32472522D01*
X165166956Y-31644293D01*
X165665008Y-30898907D01*
X165665010Y-30898904D01*
X166298904Y-30265010D01*
X166302273Y-30262759D01*
X167044293Y-29766956D01*
X167872522Y-29423893D01*
X167872523Y-29423893D01*
X167872525Y-29423892D01*
X168751764Y-29249000D01*
X169648236Y-29249000D01*
X170527475Y-29423892D01*
X170527475Y-29423892D01*
G37*
G36*
X84527475Y-29423892D02*
X84527477Y-29423893D01*
X84527478Y-29423893D01*
X85355707Y-29766956D01*
X86097727Y-30262759D01*
X86101096Y-30265010D01*
X86734990Y-30898904D01*
X86734992Y-30898907D01*
X87233044Y-31644293D01*
X87576107Y-32472522D01*
X87751000Y-33351766D01*
X87751000Y-34248234D01*
X87576107Y-35127478D01*
X87233044Y-35955707D01*
X86737241Y-36697727D01*
X86734990Y-36701096D01*
X86101096Y-37334990D01*
X86101093Y-37334992D01*
X85355707Y-37833044D01*
X84527478Y-38176107D01*
X84527477Y-38176107D01*
X84527475Y-38176108D01*
X83648236Y-38351000D01*
X82751764Y-38351000D01*
X81872525Y-38176108D01*
X81872523Y-38176107D01*
X81872522Y-38176107D01*
X81044293Y-37833044D01*
X80298907Y-37334992D01*
X80298904Y-37334990D01*
X79665010Y-36701096D01*
X79662759Y-36697727D01*
X79166956Y-35955707D01*
X78823893Y-35127478D01*
X78649000Y-34248234D01*
X78649000Y-33351766D01*
X78823893Y-32472522D01*
X79166956Y-31644293D01*
X79665008Y-30898907D01*
X79665010Y-30898904D01*
X80298904Y-30265010D01*
X80302273Y-30262759D01*
X81044293Y-29766956D01*
X81872522Y-29423893D01*
X81872523Y-29423893D01*
X81872525Y-29423892D01*
X82751764Y-29249000D01*
X83648236Y-29249000D01*
X84527475Y-29423892D01*
X84527475Y-29423892D01*
G37*
M02*
